<?xml version="1.0" encoding="UTF-8"?>
<svg xmlns="http://www.w3.org/2000/svg" viewBox="0 0 414.28 333.33">
  <defs>
    <style>
      .cls-1 {
        fill: #4d4d4d;
        mix-blend-mode: multiply;
      }

      .cls-2 {
        isolation: isolate;
      }
    </style>
  </defs>
  <g class="cls-2">
    <g id="Layer_2" data-name="Layer 2">
      <g id="Figuras">
        <path class="cls-1" d="M0,333.33l24.29-33.33,24.76,33.33H0ZM48.57,266.66l24.76,33.33H24.29l24.29-33.33ZM96.67,331.42l22.86-31.43,24.76,33.33H49.05l24.29-33.33,23.33,31.43ZM134.28,167.14l-23.81,32.86-24.29-32.86,24.29-33.81,23.81,33.81ZM120,300l24.76-33.33,24.29,33.33h-49.05ZM193.33,0l-24.29,33.33L144.28,0h49.05ZM144.28,333.33l24.76-33.33,24.29,33.33h-49.05ZM182.85,100.47l24.29,32.86-24.29,33.81-23.81-33.81,23.81-32.86ZM159.05,200l23.81-32.86,24.29,32.86-24.29,33.81-23.81-33.81ZM207.14,66.67l-24.29-32.86L207.14,0l23.81,33.81-23.81,32.86ZM207.14,266.66l23.81,33.81-23.81,32.86-24.29-32.86,24.29-33.81ZM230.95,100.47l24.29,32.86-24.29,33.81-23.81-33.81,23.81-32.86ZM230.95,233.81l-23.81-33.81,23.81-32.86,24.29,32.86-24.29,33.81ZM270,0l-24.76,33.33L220.95,0h49.05ZM220.95,333.33l24.29-33.33,24.76,33.33h-49.05ZM269.52,266.66l24.76,33.33h-49.05l24.29-33.33ZM270,333.33l24.29-33.33,24.76,33.33h-49.05ZM328.09,167.14l-23.81,32.86-24.29-32.86,24.29-33.81,23.81,33.81ZM389.52,300l24.76,33.33h-95.24l24.29-33.33,23.33,31.43,22.86-31.43ZM364.76,266.66l24.76,33.33h-49.05l24.29-33.33Z"/>
      </g>
    </g>
  </g>
</svg>