<?xml version="1.0" encoding="UTF-8"?><svg id="uuid-2116d0c2-31c1-43e6-bd2e-4b3699fa292d" xmlns="http://www.w3.org/2000/svg" viewBox="0 0 870.82 907.09"><defs><style>.uuid-ae5d13b2-6a89-4d36-8d9a-71b59356cc89{opacity:.4;}.uuid-83cc90e3-433c-4c5e-8507-c71b3d8ff884{fill:#345133;}</style></defs><g id="uuid-4ae8d7f6-d560-4667-ad20-53743e778976"><g class="uuid-ae5d13b2-6a89-4d36-8d9a-71b59356cc89"><path class="uuid-83cc90e3-433c-4c5e-8507-c71b3d8ff884" d="M0,362.84h133.47l-66.08,90.7L0,362.84ZM67.39,453.54l66.08,90.72H0l67.39-90.72ZM66.09,272.12h133.47l-66.09,90.72-67.37-90.72ZM133.47,544.26l66.09,90.7H66.09l67.37-90.7ZM132.17,181.42h133.48l-66.09,90.7-67.39-90.7ZM199.56,634.96l66.09,90.72h-133.48l67.39-90.72ZM198.27,90.7h133.47l-66.08,90.72-67.39-90.72ZM265.66,725.68l66.08,90.7h-133.47l67.39-90.7ZM264.36,0h133.47l-66.09,90.7L264.36,0ZM331.73,816.38l66.09,90.72h-133.47l67.37-90.72ZM472.99,0h133.47l-67.39,90.7L472.99,0ZM539.07,816.38l67.39,90.72h-133.47l66.08-90.72ZM539.07,90.7h133.48l-67.39,90.72-66.09-90.72ZM605.17,725.68l67.39,90.7h-133.48l66.09-90.7ZM605.17,181.42h133.47l-67.37,90.7-66.09-90.7ZM671.26,634.96l67.37,90.72h-133.47l66.09-90.72ZM671.26,272.12h133.47l-67.39,90.72-66.08-90.72ZM737.34,544.26l67.39,90.7h-133.47l66.08-90.7ZM737.34,362.84h133.48l-67.39,90.7-66.09-90.7ZM803.43,453.54l67.39,90.72h-133.48l66.09-90.72Z"/><path class="uuid-83cc90e3-433c-4c5e-8507-c71b3d8ff884" d="M163.67,376.55h141.05l-46.58,63.41H118.38l45.29-63.41ZM118.38,467.13h134.58l46.58,63.41h-135.87l-45.29-63.41ZM229.67,284.68h142.34l-47.88,64.7h-141.05l46.58-64.7ZM183.08,557.71h137.16l46.58,64.7h-137.16l-46.58-64.7ZM623.04,456.78l-7.76,10.35H252.96l-7.76-10.35,12.94-16.82h353.26l11.65,16.82ZM479.41,258.8l-44-60.82-45.29,60.82h-141.05l46.58-64.7h280.8l46.58,64.7h-143.63ZM249.08,648.29h137.16l47.88,64.7h-138.46l-46.58-64.7ZM320.25,557.71l-20.7-27.17h270.45l-20.7,28.47-229.04-1.29ZM544.11,348.09l20.7,28.47h-260.09l19.41-27.17,219.98-1.29ZM510.46,103.52l46.58,64.7h-241.98l46.58-64.7h148.81ZM361.65,803.57l-46.58-64.7h241.98l-46.58,64.7h-148.81ZM386.24,648.29l-19.41-25.88,135.87,1.29-18.12,24.59h-98.34ZM479.41,258.8l18.12,24.59-125.52,1.29,18.12-25.88h89.29ZM436.71,0l55.64,77.64h-112.58L436.71,0ZM436.71,907.09l-56.94-77.64h112.58l-55.64,77.64ZM435.41,715.58l-1.29-2.59h2.59l-1.29,2.59ZM576.46,712.99h-139.75l47.88-64.7h138.46l-46.58,64.7ZM687.74,348.09h-143.63l-46.58-64.7h143.63v1.29l46.58,63.41ZM641.16,623.71h-138.46l46.58-64.7h138.46l-46.58,63.41v1.29ZM752.44,439.96h-141.05l-46.58-63.41h142.34l45.29,63.41ZM569.99,530.54l45.29-63.41h137.16l-45.29,63.41h-137.16Z"/></g></g></svg>