<?xml version="1.0" encoding="UTF-8"?><svg id="uuid-86da8790-33e5-4842-9f8f-6e76c7183145" xmlns="http://www.w3.org/2000/svg" viewBox="0 0 869.57 907.09"><defs><style>.uuid-6be27a56-24c1-4999-8a2d-f785c2e36091{fill:#004f71;}</style></defs><g id="uuid-230f1d94-1553-4dba-85a1-57c016764959"><path class="uuid-6be27a56-24c1-4999-8a2d-f785c2e36091" d="M0,362.32h133.28l-65.99,90.58L0,362.32ZM67.29,452.9l65.99,90.58H0l67.29-90.58ZM65.99,271.74h133.28l-65.99,90.58-67.29-90.58ZM133.28,543.48l65.99,90.58H65.99l67.29-90.58ZM117.75,439.96l45.29-63.41h65.99v63.41h-111.28ZM229.04,530.54h-65.99l-45.29-63.41h111.28v63.41ZM131.99,181.16h133.28l-66,90.58-67.29-90.58ZM199.27,634.06l66,90.58h-133.28l67.29-90.58ZM182.45,349.38l46.58-64.7v64.7h-46.58ZM229.04,622.41l-46.58-64.7h46.58v64.7ZM197.98,90.58h133.28l-65.99,90.58-67.29-90.58ZM265.27,724.64l65.99,90.58h-133.28l67.29-90.58ZM248.45,258.8l46.58-64.7h65.99v64.7h-112.58ZM361.02,712.99h-65.99l-46.58-64.7h112.58v64.7ZM263.97,0h133.28l-65.99,90.58L263.97,0ZM331.26,815.22l65.99,90.58h-133.28l67.29-90.58ZM302.79,454.19l133.28-182.45,133.28,182.45-133.28,179.87-133.28-179.87ZM314.44,168.22l46.58-64.7v64.7h-46.58ZM361.02,803.57l-46.58-64.7h46.58v64.7ZM436.08,0l55.64,77.64h-112.58L436.08,0ZM379.14,829.45h112.58l-55.64,77.64-56.94-77.64ZM386.9,168.22v-64.7h97.05v64.7h-97.05ZM386.9,258.8v-64.7h97.05v64.7h-97.05ZM483.95,712.99h-97.05v-64.7h97.05v64.7ZM483.95,803.57h-97.05v-64.7h97.05v64.7ZM472.31,0h133.28l-67.29,90.58L472.31,0ZM538.3,815.22l67.29,90.58h-133.28l65.99-90.58ZM556.42,168.22h-46.59v-64.7l46.59,64.7ZM575.83,194.1l46.58,64.7h-112.58v-64.7h66ZM509.83,648.29h112.58l-46.58,64.7h-66v-64.7ZM509.83,738.87h46.59l-46.59,64.7v-64.7ZM538.3,90.58h133.28l-67.29,90.58-65.99-90.58ZM604.3,724.64l67.29,90.58h-133.28l65.99-90.58ZM604.3,181.16h133.28l-67.29,90.58-65.99-90.58ZM670.29,634.06l67.29,90.58h-133.28l65.99-90.58ZM687.11,348.09h-46.58v-63.41l46.58,63.41ZM706.52,376.55l45.29,63.41h-111.28v-63.41h65.99ZM640.53,467.13h111.28l-45.29,63.41h-65.99v-63.41ZM640.53,559.01h46.58l-46.58,63.41v-63.41ZM670.29,271.74h133.28l-67.29,90.58-65.99-90.58ZM736.28,543.48l67.29,90.58h-133.28l65.99-90.58ZM736.28,362.32h133.28l-67.29,90.58-66-90.58ZM802.28,452.9l67.29,90.58h-133.28l66-90.58Z"/></g></svg>