<svg xmlns="http://www.w3.org/2000/svg" viewBox="0 0 943.3577 700.0389" preserveAspectRatio="xMidYMin meet"><path d="M110.1634,1.069l-54.5473,74.8698L0,1.069h110.1634ZM220.3303,1.069l-54.5473,74.8698L110.1634,1.069h110.1669ZM222.4682,300.548l-54.5473,74.8698-55.6162-74.8698h110.1634ZM222.4682,450.2876h-110.1634s55.6161-74.8698,55.6161-74.8698l54.5473,74.8698ZM275.9465,75.9387l-54.5473,74.8698-55.6162-74.8698h110.1634ZM277.0154,225.6783l-54.5473,74.8698-55.6162-74.8698h110.1634ZM277.0155,525.1573h-110.1634s55.6161-74.8698,55.6161-74.8698l54.5473,74.8698ZM472.748,748.6977l270.602-373.2801L472.7477,0,200.008,375.4178l272.74,373.2799ZM331.5662,150.8085l-54.5507,74.8698-55.6162-74.8698h110.1669ZM331.5663,600.0271h-110.1669s55.6161-74.8698,55.6161-74.8698l54.5508,74.8698ZM386.1134,75.9387l-54.5473,74.8698-55.6197-74.8698h110.1669ZM386.1136,674.8968h-110.1669s55.6196-74.8698,55.6196-74.8698l54.5473,74.8698ZM440.6607,1.0689l-54.5473,74.8698L330.4938,1.0689h110.1669ZM440.6609,749.7666h-110.1669s55.6196-74.8698,55.6196-74.8698l54.5473,74.8698ZM502.697,1.0689h110.1634s-55.6161,74.8698-55.6161,74.8698L502.697,1.0689ZM502.6973,749.7666l54.5473-74.8698,55.6162,74.8698h-110.1634ZM557.2443,75.9386h110.1634s-55.6161,74.8698-55.6161,74.8698l-54.5473-74.8698ZM557.2445,674.8968l54.5473-74.8698,55.6162,74.8698h-110.1634ZM611.7916,150.8084h110.1669s-55.6196,74.8698-55.6196,74.8698l-54.5473-74.8698ZM611.7918,600.027l54.5473-74.8698,55.6197,74.8698h-110.1669ZM666.3389,225.6781h110.1669s-55.6196,74.8698-55.6196,74.8698l-54.5473-74.8698ZM666.339,525.1572l54.5473-74.8698,55.6197,74.8698h-110.1669ZM667.4078,75.9386h110.1669s-55.6161,74.8698-55.6161,74.8698l-54.5508-74.8698ZM720.8862,300.5479h110.1669s-55.6161,74.8698-55.6161,74.8698l-54.5508-74.8698ZM720.8863,450.2874l54.5507-74.8698,55.6162,74.8698h-110.1669ZM723.0274,1.0688h110.1634s-55.6161,74.8698-55.6161,74.8698L723.0274,1.0688ZM833.1908,1.0687h110.1669s-55.6161,74.8698-55.6161,74.8698L833.1908,1.0687Z" fill="rgb(1,65,37)"/></svg>
