<?xml version="1.0" encoding="UTF-8"?>
<svg xmlns="http://www.w3.org/2000/svg" viewBox="0 0 270.14 372.25">
  <defs>
    <style>
      .cls-1 {
        fill: #432208;
        opacity: 0.3;
      }

      .cls-2 {
        isolation: isolate;
      }

      .cls-3 {
        mix-blend-mode: multiply;
      }
    </style>
  </defs>
  <g class="cls-2">
    <g id="Layer_2" data-name="Layer 2">
      <g id="Figuras">
        <g class="cls-3">
          <polygon class="cls-1" points="135.07 0 107.95 37.76 135.07 74.45 161.66 37.76 135.07 0"/>
          <polygon class="cls-1" points="135.07 372.25 161.66 335.55 135.07 297.8 107.95 335.55 135.07 372.25"/>
          <polygon class="cls-1" points="0 186.65 27.12 223.35 53.71 186.65 27.12 148.9 0 186.65"/>
          <polygon class="cls-1" points="243.56 148.9 216.44 186.65 243.56 223.35 270.14 186.65 243.56 148.9"/>
          <polygon class="cls-1" points="216.44 112.21 188.78 74.45 161.66 112.21 135.07 74.45 107.95 112.21 81.36 74.45 53.71 112.21 81.36 148.9 53.71 186.65 81.36 223.35 53.71 261.1 81.36 297.8 107.95 261.1 135.07 297.8 161.66 261.1 188.78 297.8 216.44 261.1 188.78 223.35 216.44 186.65 188.78 148.9 216.44 112.21"/>
        </g>
      </g>
    </g>
  </g>
</svg>