<?xml version="1.0" encoding="UTF-8"?>
<svg id="Layer_2" data-name="Layer 2" xmlns="http://www.w3.org/2000/svg" viewBox="0 0 320 440.95">
  <defs>
    <style>
      .cls-1 {
        fill: #fff;
      }
    </style>
  </defs>
  <g id="Contenido">
    <g>
      <polygon class="cls-1" points="226.49 36.66 213.1 55.29 226.49 73.4 239.61 55.29 226.49 36.66"/>
      <polygon class="cls-1" points="293.16 128.79 280.03 110.15 266.65 128.79 280.03 146.9 293.16 128.79"/>
      <polygon class="cls-1" points="169.12 115.84 160 102.89 150.87 115.6 147.03 110.15 133.64 128.79 146.95 146.78 146.61 147.24 160 165.35 173.12 147.24 166.23 137.45 173.21 146.9 186.33 128.79 173.21 110.15 169.12 115.84"/>
      <polygon class="cls-1" points="213.26 202.49 200.16 220.73 213.44 238.7 213.1 239.17 226.49 257.28 239.61 239.17 226.65 220.76 226.67 220.73 225.07 218.46 226.49 220.39 239.61 202.28 226.49 183.64 213.1 202.28 213.26 202.49"/>
      <polygon class="cls-1" points="93.49 36.66 80.1 55.29 93.49 73.4 106.61 55.29 93.49 36.66"/>
      <polygon class="cls-1" points="26.82 128.79 40.21 146.9 53.33 128.79 40.21 110.15 26.82 128.79"/>
      <polygon class="cls-1" points="293.16 312.66 280.03 294.03 266.65 312.66 280.03 330.77 293.16 312.66"/>
      <polygon class="cls-1" points="226.49 404.27 239.61 386.15 226.49 367.52 213.1 386.15 226.49 404.27"/>
      <path class="cls-1" d="M173.1,294.19l-13.1-18.59-13.39,18.63.14.19-13.11,18.25,13.39,18.11,3.76-5.18,9.21,12.47,9.19-12.68-.7-.99,4.72,6.38,13.12-18.11-13.12-18.63-.11.16ZM160.03,312.38l-.03-.04-.04.05-1.6-2.27,1.64,2.22,6.58-9.08-6.55,9.12Z"/>
      <polygon class="cls-1" points="93.49 404.27 106.61 386.15 93.49 367.52 80.1 386.15 93.49 404.27"/>
      <polygon class="cls-1" points="99.52 229.11 106.72 238.85 119.84 220.73 106.72 202.1 106.6 202.26 93.49 183.64 80.1 202.28 84.1 207.68 74.78 220.66 84.15 233.33 93.33 220.66 86.21 210.55 93.49 220.39 104.55 205.12 93.33 220.73 93.34 220.74 80.1 239.17 93.49 257.28 106.61 239.17 99.52 229.11"/>
      <polygon class="cls-1" points="26.82 312.66 40.21 330.77 53.33 312.66 40.21 294.03 26.82 312.66"/>
      <polygon class="cls-1" points="310.81 207.61 301.44 220.66 310.81 233.33 320 220.66 310.81 207.61"/>
      <polygon class="cls-1" points="273.33 284.78 282.52 272.1 273.33 259.06 263.96 272.1 273.33 284.78"/>
      <path class="cls-1" d="M273.33,156.17l-6.71,9.34-13.63-18.61,13.65-18.11-13.65-18.64,13.65-18.11-13.65-18.64-13.39,18.64-13.12-18.64-13.39,18.64-13.01-18.48,6.58-9.07-9.19-13.04-9.37,13.04,9.24,12.5-9.46,12.92-9.33-12.74,9.55-12.68-9.55-13.04,9.55-12.68-9.55-13.04-9.37,13.04-9.19-13.04-9.37,13.04-9.19-13.04-9.55,13.04,9.55,12.68-9.55,13.04,9.55,12.68-9.35,12.76-9.37-12.79,9.16-12.65-9.19-13.04-9.37,13.04,6.63,8.97-13.35,18.59-13.12-18.64-13.39,18.64-13.12-18.64-13.65,18.64,13.65,18.11-13.65,18.64,13.65,18.11-13.65,18.63,13.65,18.11,13.12-18.11,13.39,18.11,13.12-18.11,13.39,18.11,3.6-4.77-3.75,5.12,13.65,18.11-13.65,18.63,13.65,18.11-13.65,18.64h0s-13.24,18.44-13.24,18.44l-13.12-18.63-13.39,18.63-13.12-18.63-13.65,18.63,13.65,18.11-13.65,18.63,13.65,18.11-13.65,18.64,13.65,18.11,13.12-18.11,13.39,18.11,13.12-18.11,13.39,18.11.44-.58-7.1,9.89,9.37,12.68,9.19-12.68-9.13-12.97,9.37-12.44,9.31,12.36-9.55,13.04,9.55,12.68-9.55,13.04,9.55,12.68,9.19-12.68,9.37,12.68,9.19-12.68,9.37,12.68,9.55-12.68-9.55-13.04,9.55-12.68-9.55-13.04,9.3-12.34,9.47,12.56-9.21,12.83,9.37,12.68,9.19-12.68-6.62-9.4,13.05-18.02,13.39,18.11,13.12-18.11,13.39,18.11,13.65-18.11-13.65-18.64,13.65-18.11-13.65-18.63,13.65-18.11-13.65-18.63-13.39,18.63-13.12-18.63-13.39,18.63-12.97-18.41.02-.03-13.65-18.64,13.65-18.11-13.65-18.63,13.65-18.11-2.9-3.96,2.72,3.62,13.12-18.11,13.39,18.11,13.12-18.11,13.39,18.11,12.83-17.03-1.87,2.6,9.37,12.68,9.19-12.68-9.19-13.04ZM188.71,272.67l-2.38,3.25,13.65,18.11-13.65,18.63,13.65,18.11-13.38,18.27-8.04-10.98-9.37,13.04-9.19-13.04-9.37,13.04-9.19-13.04-8.06,11-13.39-18.28,13.65-18.11-13.65-18.63,13.65-18.11-3.22-4.4,3.07,4.07,13.12-18.11,13.39,18.11,13.12-18.11,13.39,18.11,2.2-2.92ZM199.98,146.9l-13.65,18.63.03.04-13.23,18.42-13.12-18.63-13.39,18.63-12.98-18.44.02-.02-13.65-18.63,13.65-18.11-13.65-18.64,13.46-17.86,7.99,10.6,9.19-12.68,9.37,12.68,9.19-12.68,9.37,12.68,7.97-10.58,13.45,17.84-13.65,18.64,13.65,18.11Z"/>
      <polygon class="cls-1" points="301.44 194.93 291.89 181.89 282.52 194.93 273.33 181.89 263.96 194.93 254.78 181.89 245.22 194.93 254.78 207.61 245.22 220.66 254.78 233.33 245.22 246.38 254.78 259.06 263.96 246.38 273.33 259.06 282.52 246.38 291.89 259.06 301.44 246.38 291.89 233.33 301.44 220.66 291.89 207.61 301.44 194.93"/>
      <polygon class="cls-1" points="226.67 220.66 236.04 233.33 245.22 220.66 236.04 207.61 226.67 220.66"/>
      <polygon class="cls-1" points="46.67 156.17 37.3 169.21 46.67 181.89 55.85 169.21 46.67 156.17"/>
      <polygon class="cls-1" points="0 220.66 9.37 233.33 18.56 220.66 9.37 207.61 0 220.66"/>
      <polygon class="cls-1" points="74.78 194.93 65.22 181.89 55.85 194.93 46.67 181.89 37.3 194.93 28.11 181.89 18.56 194.93 28.11 207.61 18.56 220.66 28.11 233.33 18.56 246.38 28.11 259.06 37.3 246.38 46.67 259.06 55.85 246.38 65.22 259.06 74.78 246.38 65.22 233.33 74.78 220.66 65.22 207.61 74.78 194.93"/>
      <polygon class="cls-1" points="46.67 284.78 55.85 272.1 46.67 259.06 37.3 272.1 46.67 284.78"/>
      <polygon class="cls-1" points="160 0 150.63 13.04 160 25.72 169.19 13.04 160 0"/>
      <polygon class="cls-1" points="160 440.95 169.19 428.27 160 415.22 150.63 428.27 160 440.95"/>
    </g>
  </g>
</svg>