<?xml version="1.0" encoding="UTF-8"?><svg id="Capa_1" xmlns="http://www.w3.org/2000/svg" viewBox="0 0 600 800"><defs><style>.cls-1{fill:#1d1d1b;stroke-width:0px;}</style></defs><path class="cls-1" d="M64.8,333.5h72.1l-35.7,49-36.4-49ZM64.8,431.5l36.4-49,35.7,49h-72.1ZM100.5,284.5h72.1l-35.7,49-36.4-49ZM100.5,480.5l36.4-49,35.7,49h-72.1ZM353.2,560.3l-52.5,67.2-53.2-67.2-126.7-173.6,30.8-44.8,129.5,175.7,19.6-25.2,52.5,67.9ZM136.2,235.5h72.1l-35.7,49-36.4-49ZM136.2,529.5l36.4-49,35.7,49h-72.1ZM160.7,329.3l28.7-38.5,107.1,147-28.7,37.1-107.1-145.6ZM171.9,186.5h72.1l-35.7,49-36.4-49ZM171.9,578.5l36.4-49,35.7,49h-72.1ZM223.7,243.9l70.7,98.7-25.2,32.9-71.4-98,25.9-33.6ZM207.6,137.5h72.1l-35.7,49-36.4-49ZM207.6,627.5l36.4-49,35.7,49h-72.1ZM232.1,231.3l68.6-93.8,67.2,94.5-67.9,94.5-67.9-95.2ZM300,277.5l35-48.3-35-49.7-35.7,49.7,35.7,48.3ZM332.9,474.2l-28.7-37.1,107.1-147,28.7,38.5-107.1,145.6ZM306.3,341.9l70.7-98.7,25.9,33.6-71.4,98-25.2-32.9ZM479.9,386l-126.7,174.3-33.6-43.4,129.5-175.7,30.8,44.8ZM320.3,137.5h72.1l-36.4,49-35.7-49ZM392.4,627.5h-72.1l35.7-49,36.4,49ZM356,186.5h72.1l-36.4,49-35.7-49ZM428.1,578.5h-72.1l35.7-49,36.4,49ZM391.7,235.5h72.1l-36.4,49-35.7-49ZM463.8,529.5h-72.1l35.7-49,36.4,49ZM427.4,284.5h72.1l-36.4,49-35.7-49ZM499.5,480.5h-72.1l35.7-49,36.4,49ZM463.1,333.5h72.1l-36.4,49-35.7-49ZM498.8,382.5l36.4,49h-72.1l35.7-49Z"/></svg>