<?xml version="1.0" encoding="UTF-8"?><svg id="Capa_1" xmlns="http://www.w3.org/2000/svg" viewBox="0 0 600 800"><defs><style>.cls-1{fill:#1d1d1b;stroke-width:0px;}</style></defs><path class="cls-1" d="M136.9,335.6l-35.7,49-36.4-49h72.1ZM136.9,433.6h-72.1l36.4-49,35.7,49ZM172.6,286.6l-35.7,49-36.4-49h72.1ZM172.6,482.6h-72.1l36.4-49,35.7,49ZM300.7,628.9l177.1-244.3-177.1-245.7-178.5,245.7,178.5,244.3ZM208.3,237.6l-35.7,49-36.4-49h72.1ZM208.3,531.6h-72.1l36.4-49,35.7,49ZM244,188.6l-35.7,49-36.4-49h72.1ZM244,580.6h-72.1l36.4-49,35.7,49ZM300.7,524.6l-102.9-140,102.9-140,101.5,140-101.5,140ZM279.7,139.6l-35.7,49-36.4-49h72.1ZM279.7,629.6h-72.1l36.4-49,35.7,49ZM320.3,139.6h72.1l-36.4,49-35.7-49ZM320.3,629.6l35.7-49,36.4,49h-72.1ZM356,188.6h72.1l-36.4,49-35.7-49ZM356,580.6l35.7-49,36.4,49h-72.1ZM391.7,237.6h72.1l-36.4,49-35.7-49ZM391.7,531.6l35.7-49,36.4,49h-72.1ZM427.4,286.6h72.1l-36.4,49-35.7-49ZM427.4,482.6l35.7-49,36.4,49h-72.1ZM463.1,335.6h72.1l-36.4,49-35.7-49ZM463.1,433.6l35.7-49,36.4,49h-72.1Z"/></svg>