<?xml version="1.0" encoding="UTF-8"?><svg id="Capa_1" xmlns="http://www.w3.org/2000/svg" viewBox="0 0 600 800"><defs><style>.cls-1{fill:#1d1d1b;stroke-width:0px;}</style></defs><path class="cls-1" d="M64.8,333.5h72.1l-35.7,49-36.4-49ZM101.2,382.5l35.7,49h-72.1l36.4-49ZM100.5,284.5h72.1l-35.7,49-36.4-49ZM136.9,431.5l35.7,49h-72.1l36.4-49ZM122.9,383.2l53.2-74.2,52.5,74.2-52.5,72.8-53.2-72.8ZM136.2,235.5h72.1l-35.7,49-36.4-49ZM172.6,480.5l35.7,49h-72.1l36.4-49ZM171.9,186.5h72.1l-35.7,49-36.4-49ZM208.3,529.5l35.7,49h-72.1l36.4-49ZM207.6,137.5h72.1l-35.7,49-36.4-49ZM244,578.5l35.7,49h-72.1l36.4-49ZM228.6,383.2l72.1-98.7,72.1,98.7-72.1,97.3-72.1-97.3ZM247.5,211.7l53.2-74.2,52.5,74.2-52.5,72.8-53.2-72.8ZM247.5,554.7l53.2-74.2,52.5,74.2-52.5,72.8-53.2-72.8ZM320.3,137.5h72.1l-36.4,49-35.7-49ZM356,578.5l36.4,49h-72.1l35.7-49ZM356,186.5h72.1l-36.4,49-35.7-49ZM391.7,529.5l36.4,49h-72.1l35.7-49ZM372.8,383.2l53.2-74.2,52.5,74.2-52.5,72.8-53.2-72.8ZM391.7,235.5h72.1l-36.4,49-35.7-49ZM427.4,480.5l36.4,49h-72.1l35.7-49ZM427.4,284.5h72.1l-36.4,49-35.7-49ZM463.1,431.5l36.4,49h-72.1l35.7-49ZM463.1,333.5h72.1l-36.4,49-35.7-49ZM498.8,382.5l36.4,49h-72.1l35.7-49Z"/></svg>