<?xml version="1.0" encoding="UTF-8"?><svg id="Capa_1" xmlns="http://www.w3.org/2000/svg" viewBox="0 0 600 800"><defs><style>.cls-1{fill:#1d1d1b;stroke-width:0px;}</style></defs><path class="cls-1" d="M64.8,333.5h72.1l-35.7,49-36.4-49ZM101.2,382.5l35.7,49h-72.1l36.4-49ZM100.5,284.5h72.1l-35.7,49-36.4-49ZM136.9,431.5l35.7,49h-72.1l36.4-49ZM128.5,375.5l24.5-34.3h35.7v34.3h-60.2ZM188.7,424.5h-35.7l-24.5-34.3h60.2v34.3ZM136.2,235.5h72.1l-35.7,49-36.4-49ZM172.6,480.5l35.7,49h-72.1l36.4-49ZM163.5,326.5l25.2-35v35h-25.2ZM188.7,474.2l-25.2-35h25.2v35ZM171.9,186.5h72.1l-35.7,49-36.4-49ZM208.3,529.5l35.7,49h-72.1l36.4-49ZM199.2,277.5l25.2-35h35.7v35h-60.9ZM260.1,523.2h-35.7l-25.2-35h60.9v35ZM260.1,291.5v35h-57.4v-35h57.4ZM202.7,375.5v-34.3h57.4v34.3h-57.4ZM260.1,424.5h-57.4v-34.3h57.4v34.3ZM202.7,439.2h57.4v35h-57.4v-35ZM207.6,137.5h72.1l-35.7,49-36.4-49ZM244,578.5l35.7,49h-72.1l36.4-49ZM234.9,228.5l25.2-35v35h-25.2ZM260.1,572.2l-25.2-35h25.2v35ZM300.7,137.5l30.1,42h-60.9l30.8-42ZM269.9,586.2h60.9l-30.1,42-30.8-42ZM274.1,228.5v-35h52.5v35h-52.5ZM274.1,277.5v-35h52.5v35h-52.5ZM274.1,326.5v-35h52.5v35h-52.5ZM274.1,375.5v-34.3h52.5v34.3h-52.5ZM326.6,424.5h-52.5v-34.3h52.5v34.3ZM326.6,474.2h-52.5v-35h52.5v35ZM326.6,523.2h-52.5v-35h52.5v35ZM326.6,572.2h-52.5v-35h52.5v35ZM320.3,137.5h72.1l-36.4,49-35.7-49ZM356,578.5l36.4,49h-72.1l35.7-49ZM397.3,341.2v34.3h-57.4v-34.3h57.4ZM339.9,390.2h57.4v34.3h-57.4v-34.3ZM365.8,228.5h-25.2v-35l25.2,35ZM376.3,242.5l25.2,35h-60.9v-35h35.7ZM340.6,326.5v-35l56.7-.7v35l-56.7.7ZM397.3,474.9l-56.7-.7v-35l56.7.7v35ZM340.6,488.2h60.9l-25.2,35h-35.7v-35ZM340.6,537.2h25.2l-25.2,35v-35ZM356,186.5h72.1l-36.4,49-35.7-49ZM391.7,529.5l36.4,49h-72.1l35.7-49ZM391.7,235.5h72.1l-36.4,49-35.7-49ZM427.4,480.5l36.4,49h-72.1l35.7-49ZM436.5,325.8h-25.2v-34.3l25.2,34.3ZM447,341.2l24.5,34.3h-60.2v-34.3h35.7ZM411.3,390.2h60.2l-24.5,34.3h-35.7v-34.3ZM411.3,439.9h25.2l-25.2,34.3v-34.3ZM427.4,284.5h72.1l-36.4,49-35.7-49ZM463.1,431.5l36.4,49h-72.1l35.7-49ZM463.1,333.5h72.1l-36.4,49-35.7-49ZM498.8,382.5l36.4,49h-72.1l35.7-49Z"/></svg>