<?xml version="1.0" encoding="UTF-8"?><svg id="Capa_1" xmlns="http://www.w3.org/2000/svg" viewBox="0 0 600 800"><defs><style>.cls-1{fill:#1d1d1b;stroke-width:0px;}</style></defs><path class="cls-1" d="M64.8,333.5h72.1l-35.7,49-36.4-49ZM64.8,431.5l36.4-49,35.7,49h-72.1ZM100.5,284.5h72.1l-35.7,49-36.4-49ZM100.5,480.5l36.4-49,35.7,49h-72.1ZM153,341.2h76.3l-25.2,34.3h-75.6l24.5-34.3ZM128.5,390.2h72.8l25.2,34.3h-73.5l-24.5-34.3ZM136.2,235.5h72.1l-35.7,49-36.4-49ZM136.2,529.5l36.4-49,35.7,49h-72.1ZM188.7,291.5h77l-25.9,35h-76.3l25.2-35ZM163.5,439.2h74.2l25.2,35h-74.2l-25.2-35ZM171.9,186.5h72.1l-35.7,49-36.4-49ZM171.9,578.5l36.4-49,35.7,49h-72.1ZM197.1,384.6l7-9.1h191.1l6.3,9.1-4.2,5.6h-196l-4.2-5.6ZM323.8,277.5l-23.8-32.9-24.5,32.9h-76.3l25.2-35h151.9l25.2,35h-77.7ZM273.4,488.2l26.6,36.4,26.6-36.4h74.9l-26.6,37.1h-150.5l-25.2-37.1h74.2ZM207.6,137.5h72.1l-35.7,49-36.4-49ZM207.6,627.5l36.4-49,35.7,49h-72.1ZM237.7,439.2l-11.2-14.7h146.3l-11.2,15.4-123.9-.7ZM229.3,341.2l10.5-14.7,119-.7,11.2,15.4h-140.7ZM260.1,193.5h80.5l25.2,35h-130.9l25.2-35ZM340.6,572.2h-80.5l-25.2-35h130.9l-25.2,35ZM273.4,488.2l-10.5-14,73.5.7-9.8,13.3h-53.2ZM275.5,277.5h48.3l9.8,13.3-67.9.7,9.8-14ZM269.9,179.5l30.8-42,30.1,42h-60.9ZM269.9,586.2h60.9l-30.1,42-30.8-42ZM320.3,137.5h72.1l-36.4,49-35.7-49ZM392.4,627.5h-72.1l35.7-49,36.4,49ZM436.5,325.8h-77.7l-25.2-35h77.7v.7l25.2,34.3ZM411.3,474.9h-74.9l25.2-35h74.9l-25.2,34.3v.7ZM356,186.5h72.1l-36.4,49-35.7-49ZM428.1,578.5h-72.1l35.7-49,36.4,49ZM471.5,375.5h-76.3l-25.2-34.3h77l24.5,34.3ZM447,424.5h-74.2l24.5-34.3h74.2l-24.5,34.3ZM391.7,235.5h72.1l-36.4,49-35.7-49ZM463.8,529.5h-72.1l35.7-49,36.4,49ZM427.4,284.5h72.1l-36.4,49-35.7-49ZM499.5,480.5h-72.1l35.7-49,36.4,49ZM463.1,333.5h72.1l-36.4,49-35.7-49ZM498.8,382.5l36.4,49h-72.1l35.7-49Z"/></svg>