<?xml version="1.0" encoding="UTF-8"?><svg id="Capa_1" xmlns="http://www.w3.org/2000/svg" viewBox="0 0 600 800"><defs><style>.cls-1{fill:#1d1d1b;stroke-width:0px;}</style></defs><path class="cls-1" d="M64.8,431.5H-7.3l36.4-49,35.7,49ZM100.5,480.5H28.4l36.4-49,35.7,49ZM136.2,529.5h-72.1l36.4-49,35.7,49ZM136.9,333.5l-35.7,49-36.4-49h72.1ZM136.9,431.5h-72.1l36.4-49,35.7,49ZM172.6,284.5l-35.7,49-36.4-49h72.1ZM172.6,480.5h-72.1l36.4-49,35.7,49ZM157.9,431.5l35-48.3-35-49.7-35.7,49.7,35.7,48.3ZM208.3,235.5l-35.7,49-36.4-49h72.1ZM208.3,529.5h-72.1l36.4-49,35.7,49ZM244,186.5l-35.7,49-36.4-49h72.1ZM244,578.5h-72.1l36.4-49,35.7,49ZM229.3,333.5l35-48.3-35-49.7-36.4,49.7,36.4,48.3ZM229.3,431.5l35-48.3-35-49.7-36.4,49.7,36.4,48.3ZM229.3,529.5l35-48.3-35-49.7-36.4,49.7,36.4,48.3ZM279.7,137.5l-35.7,49-36.4-49h72.1ZM279.7,627.5h-72.1l36.4-49,35.7,49ZM300,235.5l35-48.3-35-49.7-35.7,49.7,35.7,48.3ZM300,333.5l35-48.3-35-49.7-35.7,49.7,35.7,48.3ZM300,431.5l35-48.3-35-49.7-35.7,49.7,35.7,48.3ZM300,529.5l35-48.3-35-49.7-35.7,49.7,35.7,48.3ZM300,627.5l35-48.3-35-49.7-35.7,49.7,35.7,48.3ZM320.3,137.5h72.1l-36.4,49-35.7-49ZM320.3,627.5l35.7-49,36.4,49h-72.1ZM370.7,333.5l36.4-48.3-36.4-49.7-35.7,49.7,35.7,48.3ZM370.7,431.5l36.4-48.3-36.4-49.7-35.7,49.7,35.7,48.3ZM370.7,529.5l36.4-48.3-36.4-49.7-35.7,49.7,35.7,48.3ZM356,186.5h72.1l-36.4,49-35.7-49ZM356,578.5l35.7-49,36.4,49h-72.1ZM391.7,235.5h72.1l-36.4,49-35.7-49ZM391.7,529.5l35.7-49,36.4,49h-72.1ZM442.8,431.5l35-48.3-35-49.7-35.7,49.7,35.7,48.3ZM427.4,284.5h72.1l-36.4,49-35.7-49ZM427.4,480.5l35.7-49,36.4,49h-72.1ZM463.1,333.5h72.1l-36.4,49-35.7-49ZM463.1,431.5l35.7-49,36.4,49h-72.1ZM463.8,529.5l35.7-49,36.4,49h-72.1ZM499.5,480.5l35.7-49,36.4,49h-72.1ZM535.2,431.5l35.7-49,36.4,49h-72.1Z"/></svg>