<?xml version="1.0" encoding="UTF-8"?><svg id="Capa_1" xmlns="http://www.w3.org/2000/svg" viewBox="0 0 600 800"><defs><style>.cls-1{fill:#1d1d1b;stroke-width:0px;}</style></defs><path class="cls-1" d="M63.4,138.2l-35.7,49-36.4-49H63.4ZM135.5,138.2l-35.7,49-36.4-49h72.1ZM136.9,334.2l-35.7,49-36.4-49h72.1ZM136.9,432.2h-72.1l36.4-49,35.7,49ZM171.9,187.2l-35.7,49-36.4-49h72.1ZM172.6,285.2l-35.7,49-36.4-49h72.1ZM172.6,481.2h-72.1l36.4-49,35.7,49ZM300.7,627.5l177.1-244.3-177.1-245.7-178.5,245.7,178.5,244.3ZM208.3,236.2l-35.7,49-36.4-49h72.1ZM208.3,530.2h-72.1l36.4-49,35.7,49ZM244,187.2l-35.7,49-36.4-49h72.1ZM244,579.2h-72.1l36.4-49,35.7,49ZM279.7,138.2l-35.7,49-36.4-49h72.1ZM279.7,628.2h-72.1l36.4-49,35.7,49ZM320.3,138.2h72.1l-36.4,49-35.7-49ZM320.3,628.2l35.7-49,36.4,49h-72.1ZM356,187.2h72.1l-36.4,49-35.7-49ZM356,579.2l35.7-49,36.4,49h-72.1ZM391.7,236.2h72.1l-36.4,49-35.7-49ZM391.7,530.2l35.7-49,36.4,49h-72.1ZM427.4,285.2h72.1l-36.4,49-35.7-49ZM427.4,481.2l35.7-49,36.4,49h-72.1ZM428.1,187.2h72.1l-36.4,49-35.7-49ZM463.1,334.2h72.1l-36.4,49-35.7-49ZM463.1,432.2l35.7-49,36.4,49h-72.1ZM464.5,138.2h72.1l-36.4,49-35.7-49ZM536.6,138.2h72.1l-36.4,49-35.7-49Z"/></svg>