<?xml version="1.0" encoding="UTF-8"?><svg id="Capa_1" xmlns="http://www.w3.org/2000/svg" viewBox="0 0 600 800"><defs><style>.cls-1{fill:#1d1d1b;stroke-width:0px;}</style></defs><path class="cls-1" d="M64.8,333.5h72.1l-35.7,49-36.4-49ZM64.8,431.5l36.4-49,35.7,49h-72.1ZM100.5,284.5h72.1l-35.7,49-36.4-49ZM100.5,480.5l36.4-49,35.7,49h-72.1ZM122.2,383.2l35.7-49.7,35,49.7-35,48.3-35.7-48.3ZM136.2,235.5h72.1l-35.7,49-36.4-49ZM136.2,529.5l36.4-49,35.7,49h-72.1ZM171.9,186.5h72.1l-35.7,49-36.4-49ZM171.9,578.5l36.4-49,35.7,49h-72.1ZM264.3,285.2l35.7,48.3-35.7,49.7-35-49.7-36.4-48.3,36.4-49.7,35,49.7ZM229.3,431.5l35-48.3,35.7,48.3-71.4,99.4-35-49.7,35.7-49.7ZM207.6,137.5h72.1l-35.7,49-36.4-49ZM207.6,627.5l36.4-49,35.7,49h-72.1ZM264.3,187.2l35.7-49.7,35,49.7-35,48.3-35.7-48.3ZM300,529.5l35,49.7-35,48.3-35.7-48.3,35.7-49.7ZM335,285.2l35.7-49.7,36.4,49.7-36.4,48.3-35.7,49.7-35-49.7,35-48.3ZM335,481.2l-35-49.7,35-48.3,35.7,48.3,36.4,49.7-36.4,48.3-35.7-48.3ZM320.3,137.5h72.1l-36.4,49-35.7-49ZM392.4,627.5h-72.1l35.7-49,36.4,49ZM356,186.5h72.1l-36.4,49-35.7-49ZM428.1,578.5h-72.1l35.7-49,36.4,49ZM391.7,235.5h72.1l-36.4,49-35.7-49ZM463.8,529.5h-72.1l35.7-49,36.4,49ZM477.8,383.2l-35,48.3-35.7-48.3,35.7-49.7,35,49.7ZM427.4,284.5h72.1l-36.4,49-35.7-49ZM499.5,480.5h-72.1l35.7-49,36.4,49ZM463.1,333.5h72.1l-36.4,49-35.7-49ZM498.8,382.5l36.4,49h-72.1l35.7-49Z"/></svg>