<?xml version="1.0" encoding="UTF-8"?><svg id="Capa_1" xmlns="http://www.w3.org/2000/svg" viewBox="0 0 600 800"><defs><style>.cls-1{fill:#1d1d1b;stroke-width:0px;}</style></defs><path class="cls-1" d="M64.8,333.5h72.1l-35.7,49-36.4-49ZM64.8,431.5l36.4-49,35.7,49h-72.1ZM100.5,284.5h72.1l-35.7,49-36.4-49ZM100.5,480.5l36.4-49,35.7,49h-72.1ZM188.7,341.2v34.3h-60.2l24.5-34.3h35.7ZM188.7,390.2v34.3h-35.7l-24.5-34.3h60.2ZM136.2,235.5h72.1l-35.7,49-36.4-49ZM136.2,529.5l36.4-49,35.7,49h-72.1ZM188.7,291.5v35h-25.2l25.2-35ZM188.7,439.2v35l-25.2-35h25.2ZM171.9,186.5h72.1l-35.7,49-36.4-49ZM171.9,578.5l36.4-49,35.7,49h-72.1ZM340.6,299.9v26.6h19.6l10.5,14.7h-30.8v34.3h56l6.3,9.1-4.9,7v-1.4h-57.4v34.3h33.6l-11.2,14.7h-21.7v30.1l-14,19.6v-.7h-52.5l-14-18.9v-30.1h-22.4l-10.5-14.7h32.9v-34.3h-57.4v1.4l-4.9-7,7-9.1h55.3v-34.3h-30.1l10.5-14.7h19.6v-26.6l16.1-22.4h48.3l16.1,22.4ZM199.2,277.5l25.2-35h35.7v35h-60.9ZM260.1,488.2v35h-35.7l-25.2-35h60.9ZM260.1,291.5v8.4l-19.6,26.6h-37.8v-35h57.4ZM202.7,341.2h27.3l-25.2,34.3h-2.1v-34.3ZM202.7,424.5v-32.9l24.5,32.9h-24.5ZM202.7,439.2h35l22.4,30.1v4.9h-57.4v-35ZM207.6,137.5h72.1l-35.7,49-36.4-49ZM207.6,627.5l36.4-49,35.7,49h-72.1ZM260.1,193.5v35h-25.2l25.2-35ZM260.1,537.2v35l-25.2-35h25.2ZM269.9,179.5l30.8-42,30.1,42h-60.9ZM269.9,586.2h60.9l-30.1,42-30.8-42ZM326.6,193.5v35h-52.5v-35h52.5ZM324.5,277.5l-23.8-32.9-24.5,32.9h-2.1v-35h52.5v35h-2.1ZM326.6,326.5v-35h-52.5v35h52.5ZM326.6,375.5v-34.3h-52.5v34.3h52.5ZM326.6,424.5v-34.3h-52.5v34.3h52.5ZM326.6,474.2v-35h-52.5v35h52.5ZM274.1,523.2v-35l25.9,35h-25.9ZM274.1,572.2v-35h52.5v35h-52.5ZM300.7,524.6l-.7-1.4h1.4l-.7,1.4ZM326.6,523.2h-25.2l25.2-34.3v34.3ZM320.3,137.5h72.1l-36.4,49-35.7-49ZM392.4,627.5h-72.1l35.7-49,36.4,49ZM340.6,228.5v-35l25.2,35h-25.2ZM340.6,277.5v-35h35.7l25.2,35h-60.9ZM340.6,299.9v-8.4l56.7-.7v35l-37.1.7-19.6-26.6ZM340.6,474.2v-4.9l21.7-30.1,35,.7v35l-56.7-.7ZM401.5,488.2l-25.2,35h-35.7v-35h60.9ZM340.6,572.2v-35h25.2l-25.2,35ZM356,186.5h72.1l-36.4,49-35.7-49ZM428.1,578.5h-72.1l35.7-49,36.4,49ZM397.3,375.5h-1.4l-25.2-34.3h26.6v34.3ZM397.3,424.5h-23.8l23.8-32.9v32.9ZM391.7,235.5h72.1l-36.4,49-35.7-49ZM463.8,529.5h-72.1l35.7-49,36.4,49ZM411.3,325.8v-34.3l25.2,34.3h-25.2ZM411.3,375.5v-34.3h35.7l24.5,34.3h-60.2ZM411.3,424.5v-34.3h60.2l-24.5,34.3h-35.7ZM411.3,474.2v-34.3h25.2l-25.2,34.3ZM427.4,284.5h72.1l-36.4,49-35.7-49ZM499.5,480.5h-72.1l35.7-49,36.4,49ZM463.1,333.5h72.1l-36.4,49-35.7-49ZM498.8,382.5l36.4,49h-72.1l35.7-49Z"/></svg>