<?xml version="1.0" encoding="UTF-8"?><svg id="Capa_1" xmlns="http://www.w3.org/2000/svg" viewBox="0 0 600 800"><defs><style>.cls-1{fill:#1d1d1b;stroke-width:0px;}</style></defs><path class="cls-1" d="M27.7,187.2l-36.4-49H63.4l-35.7,49ZM63.4,138.2h72.1l-35.7,49-36.4-49ZM64.8,333.5h72.1l-35.7,49-36.4-49ZM64.8,431.5l36.4-49,35.7,49h-72.1ZM136.9,235.5h71.4l-35.7,49-36.4-49v.7l-36.4-49h72.1l-35,48.3ZM100.5,284.5h72.1l-35.7,49-36.4-49ZM100.5,480.5l36.4-49,35.7,49h-72.1ZM122.2,383.2l35.7-49.7,35,49.7-35,48.3-35.7-48.3ZM136.2,529.5l36.4-49,35.7,49h-72.1ZM171.9,186.5h72.1l-35.7,49-36.4-49ZM171.9,578.5l36.4-49,35.7,49h-72.1ZM370.7,431.5l-35.7,49.7-35,48.3-35.7-48.3-35-49.7-36.4-48.3,36.4-49.7,35-48.3,35.7-49.7,35,49.7,35.7,48.3,36.4,49.7-36.4,48.3ZM207.6,137.5h72.1l-35.7,49-36.4-49ZM207.6,627.5l36.4-49,35.7,49h-72.1ZM300,137.5l35,49.7-35,48.3-35.7-48.3,35.7-49.7ZM264.3,383.2l35.7,48.3,35-48.3-35-49.7-35.7,49.7ZM300,529.5l35,49.7-35,48.3-35.7-48.3,35.7-49.7ZM320.3,137.5h72.1l-36.4,49-35.7-49ZM392.4,627.5h-72.1l35.7-49,36.4,49ZM356,186.5h72.1l-36.4,49-35.7-49ZM428.1,578.5h-72.1l35.7-49,36.4,49ZM463.1,235.5l-35-48.3h72.1l-36.4,49v-.7l-36.4,49-35.7-49h71.4ZM463.8,529.5h-72.1l35.7-49,36.4,49ZM477.8,383.2l-35,48.3-35.7-48.3,35.7-49.7,35,49.7ZM499.5,284.5l-36.4,49-35.7-49h72.1ZM499.5,480.5h-72.1l35.7-49,36.4,49ZM535.2,333.5l-36.4,49-35.7-49h72.1ZM535.2,431.5h-72.1l35.7-49,36.4,49ZM500.2,187.2l-35.7-49h72.1l-36.4,49ZM536.6,138.2h72.1l-36.4,49-35.7-49Z"/></svg>