<?xml version="1.0" encoding="UTF-8"?><svg id="Capa_1" xmlns="http://www.w3.org/2000/svg" viewBox="0 0 600 800"><defs><style>.cls-1{fill:#1d1d1b;stroke-width:0px;}</style></defs><path class="cls-1" d="M27.7,187.2l-36.4-49H63.4l-35.7,49ZM63.4,138.2h72.1l-35.7,49-36.4-49ZM64.8,333.5h72.1l-35.7,49-36.4-49ZM64.8,431.5l36.4-49,35.7,49h-72.1ZM136.9,235.5h-.7v.7l-36.4-49h72.1l-35,48.3ZM100.5,284.5h72.1l-35.7,49-36.4-49ZM100.5,480.5l36.4-49,35.7,49h-72.1ZM335.7,579.2l-35,48.3-35.7-48.3-17.5-24.5,35.7-49-18.2-24.5,17.5-24.5-35.7-49-16.8,23.8-18.2-24.5-35.7,49-53.2-72.8,35.7,48.3,35-48.3-35-49.7,17.5-24.5,35,49.7,18.9-25.2,16.8,24.5,35.7-49-17.5-23.8,18.2-25.2-35.7-48.3,17.5-24.5,35.7-49.7,52.5,74.2-35,48.3,17.5,25.2-17.5,23.8,35.7,48.3,17.5-23.8,18.9,25.9,35.7-50.4,17.5,24.5-35.7,49.7,35.7,48.3-17.5,24.5-35.7-49-18.9,24.5-17.5-23.1-35.7,48.3,17.5,24.5-17.5,23.8,35,49.7-17.5,24.5ZM208.3,235.5l-35.7,49-36.4-49h72.1ZM136.2,529.5l36.4-49,35.7,49h-72.1ZM171.9,186.5h72.1l-35.7,49-36.4-49ZM171.9,578.5l36.4-49,35.7,49h-72.1ZM230,235.5l35,49.7-35,48.3-36.4-48.3,36.4-49.7ZM193.6,481.2l36.4-49.7,35,49.7-35,48.3-36.4-48.3ZM207.6,137.5h72.1l-35.7,49-36.4-49ZM207.6,627.5l36.4-49,35.7,49h-72.1ZM265,383.2l35.7,48.3,35-48.3-35-49.7-35.7,49.7ZM320.3,137.5h72.1l-36.4,49-35.7-49ZM392.4,627.5h-72.1l35.7-49,36.4,49ZM407.8,285.2l-36.4,48.3-35.7-48.3,35.7-49.7,36.4,49.7ZM371.4,529.5l-35.7-48.3,35.7-49.7,36.4,49.7-36.4,48.3ZM356,186.5h72.1l-36.4,49-35.7-49ZM428.1,578.5h-72.1l35.7-49,36.4,49ZM391.7,235.5h72.1l-36.4,49-35.7-49ZM463.8,529.5h-72.1l35.7-49,36.4,49ZM499.5,284.5l-36.4,49-35.7-49h72.1ZM499.5,480.5h-72.1l35.7-49,36.4,49ZM463.1,235.5l-35-48.3h72.1l-36.4,49v-.7h-.7ZM535.2,333.5l-36.4,49-35.7-49h72.1ZM535.2,431.5h-72.1l35.7-49,36.4,49ZM500.2,187.2l-35.7-49h72.1l-36.4,49ZM536.6,138.2h72.1l-36.4,49-35.7-49Z"/></svg>