<?xml version="1.0" encoding="UTF-8"?><svg id="Capa_1" xmlns="http://www.w3.org/2000/svg" viewBox="0 0 600 800"><defs><style>.cls-1{fill:#1d1d1b;stroke-width:0px;}</style></defs><path class="cls-1" d="M64.8,333.5h72.1l-35.7,49-36.4-49ZM101.2,382.5l35.7,49h-72.1l36.4-49ZM100.5,284.5h72.1l-35.7,49-36.4-49ZM136.9,431.5l35.7,49h-72.1l36.4-49ZM153,341.2h294l24.5,34.3H128.5l24.5-34.3ZM128.5,390.2h343l-24.5,34.3H153l-24.5-34.3ZM136.2,235.5h72.1l-35.7,49-36.4-49ZM172.6,480.5l35.7,49h-72.1l36.4-49ZM171.9,186.5h72.1l-35.7,49-36.4-49ZM208.3,529.5l35.7,49h-72.1l36.4-49ZM192.9,285.2l36.4-49.7,35,49.7-35,48.3-36.4-48.3ZM192.9,481.2l36.4-49.7,35,49.7-35,48.3-36.4-48.3ZM207.6,137.5h72.1l-35.7,49-36.4-49ZM244,578.5l35.7,49h-72.1l36.4-49ZM260.1,193.5h80.5l25.2,35h-130.9l25.2-35ZM234.9,537.2h130.9l-25.2,35h-80.5l-25.2-35ZM264.3,285.2l35.7-49.7,35,49.7-35,48.3-35.7-48.3ZM264.3,481.2l35.7-49.7,35,49.7-35,48.3-35.7-48.3ZM300.7,137.5l30.1,42h-60.9l30.8-42ZM269.9,586.2h60.9l-30.1,42-30.8-42ZM320.3,137.5h72.1l-36.4,49-35.7-49ZM356,578.5l36.4,49h-72.1l35.7-49ZM335,285.2l35.7-49.7,36.4,49.7-36.4,48.3-35.7-48.3ZM335,481.2l35.7-49.7,36.4,49.7-36.4,48.3-35.7-48.3ZM356,186.5h72.1l-36.4,49-35.7-49ZM391.7,529.5l36.4,49h-72.1l35.7-49ZM391.7,235.5h72.1l-36.4,49-35.7-49ZM427.4,480.5l36.4,49h-72.1l35.7-49ZM427.4,284.5h72.1l-36.4,49-35.7-49ZM463.1,431.5l36.4,49h-72.1l35.7-49ZM463.1,333.5h72.1l-36.4,49-35.7-49ZM498.8,382.5l36.4,49h-72.1l35.7-49Z"/></svg>