<?xml version="1.0" encoding="UTF-8"?><svg id="Capa_1" xmlns="http://www.w3.org/2000/svg" viewBox="0 0 600 800"><defs><style>.cls-1{fill:#1d1d1b;stroke-width:0px;}</style></defs><path class="cls-1" d="M-4.5,627.5l35.7-49,36.4,49H-4.5ZM66.9,529.5l36.4,49H31.2l35.7-49ZM64.8,333.5h72.1l-35.7,49-36.4-49ZM64.8,431.5l36.4-49,35.7,49h-72.1ZM137.6,624.7l33.6-46.2,36.4,49H67.6l35.7-49,34.3,46.2ZM100.5,284.5h72.1l-35.7,49-36.4-49ZM100.5,480.5l36.4-49,35.7,49h-72.1ZM479.9,386l-126.7,174.3-52.5,67.2-53.2-67.2-126.7-173.6,30.8-44.8,107.8,146.3h81.2l108.5-147,30.8,44.8ZM135.5,137.5h72.1l-35.7,49-36.4-49ZM136.2,235.5h72.1l-35.7,49-36.4-49ZM136.2,529.5l36.4-49,35.7,49h-72.1ZM296.5,437.8l-28.7,37.1-107.1-145.6,28.7-38.5,107.1,147ZM171.9,186.5h72.1l-35.7,49-36.4-49ZM171.9,578.5l36.4-49,35.7,49h-72.1ZM377,243.2l25.9,33.6-71.4,98-25.2-32.9,46.2-64.4h-105l46.9,65.1-25.2,32.9-71.4-98,21-27.3,5.6-7.7h151.9l.7.7ZM279.7,137.5l-35.7,49-36.4-49h72.1ZM207.6,627.5l36.4-49,35.7,49h-72.1ZM260.1,193.5h80.5l25.2,35h-130.9l25.2-35ZM269.9,179.5l30.8-42,30.1,42h-60.9ZM304.2,437.1l107.1-147,28.7,38.5-107.1,145.6-28.7-37.1ZM320.3,137.5h72.1l-36.4,49-35.7-49ZM320.3,627.5l35.7-49,36.4,49h-72.1ZM356,186.5h72.1l-36.4,49-35.7-49ZM391.7,529.5l36.4,49h-72.1l35.7-49ZM391.7,235.5h72.1l-36.4,49-35.7-49ZM427.4,480.5l36.4,49h-72.1l35.7-49ZM464.5,137.5l-35.7,49-36.4-49h72.1ZM392.4,627.5l35.7-49,36.4,49h-72.1ZM427.4,284.5h72.1l-36.4,49-35.7-49ZM463.1,431.5l36.4,49h-72.1l35.7-49ZM463.1,333.5h72.1l-36.4,49-35.7-49ZM498.8,382.5l36.4,49h-72.1l35.7-49ZM568.1,578.5l36.4,49h-140l35.7-49,34.3,46.2,33.6-46.2ZM531.7,529.5l36.4,49h-72.1l35.7-49Z"/></svg>