<?xml version="1.0" encoding="UTF-8"?><svg id="Capa_1" xmlns="http://www.w3.org/2000/svg" viewBox="0 0 600 800"><defs><style>.cls-1{fill:#1d1d1b;stroke-width:0px;}</style></defs><path class="cls-1" d="M64.8,332.1h72.1l-35.7,49-36.4-49ZM64.8,430.1l36.4-49,35.7,49h-72.1ZM100.5,283.1h72.1l-35.7,49-36.4-49ZM100.5,479.1l36.4-49,35.7,49h-72.1ZM348.3,563.8l-33.6-48.3,31.5-42.7-91.7-.7,32.2,43.4-33.6,48.3-132.3-186.9,31.5-43.4,102.9-140.7,31.5,45.5-38.5,51.8,102.9-.7-37.1-50.4,31.5-45.5,134.4,184.1-30.8,44.8-.7-.7-100.1,142.1ZM136.2,234.1h72.1l-35.7,49-36.4-49ZM136.2,528.1l36.4-49,35.7,49h-72.1ZM171.9,185.1h72.1l-35.7,49-36.4-49ZM171.9,577.1l36.4-49,35.7,49h-72.1ZM228.6,437.1l142.8.7,44.1-60.9-38.5-52.5-154.7.7-38.5,51.1,44.8,60.9ZM207.6,136.1h72.1l-35.7,49-36.4-49ZM207.6,626.1l36.4-49,35.7,49h-72.1ZM300,333.5l35,49.7-35,48.3-35.7-48.3,35.7-49.7ZM269.9,178.1l30.8-42,30.1,42h-60.9ZM269.9,585.5h60.9l-30.1,42-30.8-42ZM320.3,136.1h72.1l-36.4,49-35.7-49ZM392.4,626.1h-72.1l35.7-49,36.4,49ZM356,185.1h72.1l-36.4,49-35.7-49ZM428.1,577.1h-72.1l35.7-49,36.4,49ZM391.7,234.1h72.1l-36.4,49-35.7-49ZM463.8,528.1h-72.1l35.7-49,36.4,49ZM427.4,283.1h72.1l-36.4,49-35.7-49ZM499.5,479.1h-72.1l35.7-49,36.4,49ZM463.1,332.1h72.1l-36.4,49-35.7-49ZM498.8,381.1l36.4,49h-72.1l35.7-49Z"/></svg>