<?xml version="1.0" encoding="UTF-8"?><svg id="Capa_1" xmlns="http://www.w3.org/2000/svg" viewBox="0 0 600 800"><defs><style>.cls-1{fill:#1d1d1b;stroke-width:0px;}</style></defs><path class="cls-1" d="M64.8,332.1h72.1l-35.7,49-36.4-49ZM101.2,381.1l35.7,49h-72.1l36.4-49ZM100.5,283.1h72.1l-35.7,49-36.4-49ZM136.9,430.1l35.7,49h-72.1l36.4-49ZM136.2,234.1h72.1l-35.7,49-36.4-49ZM172.6,479.1l35.7,49h-72.1l36.4-49ZM171.9,185.1h72.1l-35.7,49-36.4-49ZM208.3,528.1l35.7,49h-72.1l36.4-49ZM197.8,276.1l25.9-33.6,70.7,98.7-25.2,32.9-71.4-98ZM294.4,421l-70.7,98.7-25.9-33.6,71.4-98,25.2,32.9ZM207.6,136.1h72.1l-35.7,49-36.4-49ZM244,577.1l35.7,49h-72.1l36.4-49ZM232.1,229.9l68.6-93.8,67.2,94.5-67.9,94.5-67.9-95.2ZM367.9,531.6l-67.2,94.5-68.6-93.8,67.9-95.2,67.9,94.5ZM306.3,340.5l70.7-98.7,25.9,33.6-71.4,98-25.2-32.9ZM402.9,486.8l-25.9,33.6-70.7-98.7,25.2-32.9,71.4,98ZM320.3,136.1h72.1l-36.4,49-35.7-49ZM356,577.1l36.4,49h-72.1l35.7-49ZM356,185.1h72.1l-36.4,49-35.7-49ZM391.7,528.1l36.4,49h-72.1l35.7-49ZM391.7,234.1h72.1l-36.4,49-35.7-49ZM427.4,479.1l36.4,49h-72.1l35.7-49ZM427.4,283.1h72.1l-36.4,49-35.7-49ZM463.1,430.1l36.4,49h-72.1l35.7-49ZM463.1,332.1h72.1l-36.4,49-35.7-49ZM498.8,381.1l36.4,49h-72.1l35.7-49Z"/></svg>