<?xml version="1.0" encoding="UTF-8"?><svg xmlns="http://www.w3.org/2000/svg" viewBox="0 0 288.7 413.02"><defs><style>.uuid-f57acb2d-efcb-40f7-b369-ec575b9b2515{isolation:isolate;}.uuid-8d16dde3-3bcb-4892-9830-2d08082688a6{fill:#d5a24a;mix-blend-mode:multiply;}</style></defs><g class="uuid-f57acb2d-efcb-40f7-b369-ec575b9b2515"><g id="uuid-5ab2fbb6-cd5a-4abc-bd39-fd6d9a77ed8f"><g id="uuid-07aacc99-49a6-4abc-9ee3-494fc8b71039"><path class="uuid-8d16dde3-3bcb-4892-9830-2d08082688a6" d="M20.62,171.45h64.22l-21.21,28.87H0l20.62-28.87ZM0,212.69h61.28l21.21,28.87H20.62L0,212.69ZM50.67,129.62h64.81l-21.8,29.46H29.46l21.21-29.46ZM29.46,253.94h62.45l21.21,29.46h-62.45l-21.21-29.46ZM229.78,207.98l-3.53,4.71H61.28l-3.54-4.71,5.89-7.66h160.85l5.3,7.66ZM164.38,117.84l-20.03-27.69-20.62,27.69H59.51l21.21-29.46h127.85l21.21,29.46h-65.4ZM59.51,295.18h62.45l21.8,29.46h-63.04l-21.21-29.46ZM91.91,253.94l-9.43-12.37h123.14l-9.43,12.96-104.29-.59ZM193.84,158.49l9.43,12.96h-118.42l8.84-12.37,100.16-.59ZM178.52,47.13l21.21,29.46h-110.18l21.21-29.46h67.76ZM110.77,365.88l-21.21-29.46h110.18l-21.21,29.46h-67.76ZM121.96,295.18l-8.84-11.78,61.86.59-8.25,11.19h-44.78ZM164.38,117.84l8.25,11.19-57.15.59,8.25-11.78h40.65ZM144.94,0l25.34,35.35h-51.26L144.94,0ZM144.94,413.02l-25.92-35.35h51.26l-25.34,35.35ZM144.35,325.82l-.59-1.18h1.18l-.59,1.18ZM208.57,324.64h-63.63l21.8-29.46h63.04l-21.21,29.46ZM259.24,158.49h-65.4l-21.21-29.46h65.4v.59l21.21,28.87ZM238.03,283.98h-63.04l21.21-29.46h63.04l-21.21,28.87v.59ZM288.7,200.32h-64.22l-21.21-28.87h64.81l20.62,28.87ZM205.62,241.56l20.62-28.87h62.45l-20.62,28.87h-62.45Z"/></g></g></g></svg>