<?xml version="1.0" encoding="UTF-8"?>
<svg xmlns="http://www.w3.org/2000/svg" viewBox="0 0 320 333.33">
  <defs>
    <style>
      .cls-1 {
        isolation: isolate;
      }

      .cls-2 {
      }

      .cls-3 {
        fill: rgb(217, 139, 32);
      }
    </style>
  </defs>
  <g class="cls-1">
    <g id="Layer_2" data-name="Layer 2">
      <g id="Figuras">
        <g class="cls-2">
          <path class="cls-3" d="M0,133.33h49.05l-24.28,33.33L0,133.33ZM24.76,166.66l24.28,33.34H0l24.76-33.34ZM24.29,100h49.05l-24.29,33.34-24.76-33.34ZM49.05,200l24.29,33.33H24.29l24.76-33.33ZM39.04,167.14l24.29-33.81,23.81,33.81-23.81,32.86-24.29-32.86ZM48.57,66.67h49.05l-24.29,33.33-24.76-33.33ZM73.33,233.33l24.29,33.34h-49.05l24.76-33.34ZM72.86,33.33h49.05l-24.28,33.34-24.76-33.34ZM97.62,266.66l24.28,33.33h-49.05l24.76-33.33ZM87.14,100.47l24.76-33.81,24.29,35.23-24.29,30.95-24.76-32.38ZM87.14,233.8l25.71-34.28,23.81,32.85-24.76,34.29-24.76-32.86ZM97.14,0h49.05l-24.29,33.33L97.14,0ZM121.9,299.99l24.29,33.34h-49.05l24.76-33.34ZM135.71,33.81L160,0l23.81,33.81-23.81,32.86-24.29-32.86ZM135.71,300.47l24.29-33.81,23.81,33.81-23.81,32.86-24.29-32.86ZM173.81,0h49.05l-24.76,33.33L173.81,0ZM198.09,299.99l24.76,33.34h-49.05l24.28-33.34ZM182.38,100.95l25.71-34.28,24.76,33.81-24.76,32.86-25.71-32.38ZM182.86,232.37l23.81-33.33,26.19,34.76-24.76,32.86-25.23-34.29ZM198.09,33.33h49.05l-24.76,33.34-24.29-33.34ZM222.38,266.66l24.76,33.33h-49.05l24.29-33.33ZM222.38,66.67h49.05l-24.76,33.33-24.29-33.33ZM246.67,233.33l24.76,33.34h-49.05l24.29-33.34ZM232.86,167.14l24.29-33.81,23.81,33.81-23.81,32.86-24.29-32.86ZM246.67,100h49.05l-24.76,33.34-24.28-33.34ZM270.95,200l24.76,33.33h-49.05l24.28-33.33ZM270.95,133.33h49.05l-24.76,33.33-24.29-33.33ZM295.24,166.66l24.76,33.34h-49.05l24.29-33.34Z"/>
        </g>
      </g>
    </g>
  </g>
</svg>