<svg xmlns="http://www.w3.org/2000/svg" viewBox="0 0 100 100"><defs><style>.cls-1{fill:#fff;}</style></defs><g id="Contenido"><path class="cls-1" d="M29.2,43.75,24.64,50,20,43.75Zm0,12.5H20L24.64,50ZM33.75,37.5,29.2,43.75,24.55,37.5Zm0,25h-9.2l4.65-6.25ZM38.3,31.25,33.75,37.5l-4.64-6.25Zm0,37.5H29.11l4.64-6.25ZM42.86,25,38.3,31.25,33.66,25Zm0,50h-9.2l4.64-6.25Zm4.55-56.25L42.86,25l-4.65-6.25Zm0,62.5h-9.2L42.86,75Zm5.18-62.5h9.2L57.14,25Zm0,62.5L57.14,75l4.65,6.25ZM57.14,25h9.2L61.7,31.25Zm0,50,4.56-6.25L66.34,75ZM61.7,31.25h9.19L66.25,37.5Zm0,37.5,4.55-6.25,4.64,6.25ZM66.25,37.5h9.2L70.8,43.75Zm0,25,4.55-6.25,4.65,6.25ZM70.8,43.75H80L75.36,50Zm0,12.5L75.36,50,80,56.25Z"/></g></svg>