<?xml version="1.0" encoding="UTF-8"?>
<svg xmlns="http://www.w3.org/2000/svg" viewBox="0 0 321.9 333.33">
  <defs>
    <style>
      .cls-1 {
        fill: #ccc;
      }

      .cls-2 {
        isolation: isolate;
      }

      .cls-3 {
        mix-blend-mode: multiply;
      }
    </style>
  </defs>
  <g class="cls-2">
    <g id="Layer_2" data-name="Layer 2">
      <g id="Figuras">
        <g class="cls-3">
          <polygon class="cls-1" points="88.09 233.81 112.86 266.66 136.67 233.81 112.86 200 88.09 233.81"/>
          <polygon class="cls-1" points="112.86 66.67 88.09 100.47 112.86 133.33 136.67 100.47 112.86 66.67"/>
          <polygon class="cls-1" points="209.04 266.66 233.81 233.81 209.04 200 184.76 233.81 209.04 266.66"/>
          <polygon class="cls-1" points="0 0 24.76 34.28 49.05 0 0 0"/>
          <polygon class="cls-1" points="24.76 34.28 49.52 69.05 73.81 34.28 24.76 34.28"/>
          <polygon class="cls-1" points="297.14 34.28 321.9 0 272.85 0 297.14 34.28"/>
          <polygon class="cls-1" points="233.81 100.47 209.04 66.67 184.76 100.47 209.04 133.33 233.81 100.47"/>
          <path class="cls-1" d="M246.19,116.66l-24.29,34.28-12.86-17.62-11.9,16.19-24.29-32.86,11.9-16.19-11.9-17.14,23.81-32.86L160.95,0l-24.29,33.81-11.9,16.67,24.29,32.86-12.38,17.14,11.9,16.19-24.29,33.33-11.43-16.67-12.86,17.14-23.81-33.81-11.9,16.67,23.81,33.81-23.81,32.86,11.9,16.67,24.29-33.33,12.38,16.67,11.43-16.19,24.29,33.33-11.9,16.67,12.38,16.67-24.29,33.33,11.9,16.67,24.29,32.86,23.81-32.86,11.9-16.67-23.81-33.81,11.9-16.19-11.9-16.67,24.29-32.86,11.9,15.71,12.86-16.67,24.29,33.33,11.9-16.67-24.29-32.86,24.29-33.81-11.9-16.67ZM160.95,200l-24.29-32.86,24.29-33.81,23.81,33.81-23.81,32.86Z"/>
          <polygon class="cls-1" points="272.38 69.05 297.14 34.28 248.09 34.28 272.38 69.05"/>
        </g>
      </g>
    </g>
  </g>
</svg>