<?xml version="1.0" encoding="UTF-8"?>
<svg id="Layer_2" data-name="Layer 2" xmlns="http://www.w3.org/2000/svg" viewBox="0 0 320 195.34">
  <defs>
    <style>
      .cls-1 {
        fill: #1a1a1a;
      }
    </style>
  </defs>
  <g id="Contenido">
    <polygon class="cls-1" points="320 121.9 302.21 97.43 302.16 97.49 266.7 48.73 266.62 48.84 231.11 0 195.52 48.94 195.54 48.96 160.13 97.65 159.99 97.46 159.86 97.65 124.28 48.73 124.2 48.84 88.69 0 53.11 48.94 53.12 48.96 17.83 97.49 17.79 97.43 0 121.9 17.72 146.26 0 170.63 17.79 195.1 35.58 170.63 17.87 146.26 35.45 122.08 53.29 146.61 88.78 97.78 124.28 146.61 124.42 146.42 159.99 195.34 195.57 146.42 195.7 146.61 231.2 97.78 266.7 146.61 284.54 122.07 302.13 146.26 284.42 170.63 302.21 195.1 320 170.63 302.28 146.26 320 121.9"/>
  </g>
</svg>