<svg xmlns="http://www.w3.org/2000/svg" viewBox="0 0 578.24 603.2"><defs><style>.cls-1{fill:#345133;opacity:0.3;}</style></defs><g id="Contenido"><path class="cls-1" d="M0,240.93H88.63L44.74,301.17Zm44.74,60.24L88.63,361.4H0ZM43.88,180.7h88.63L88.63,240.93ZM88.63,361.4l43.88,60.23H43.88Zm-.86-240.93H176.4L132.51,180.7Zm44.74,301.16,43.89,60.24H87.77Zm-.86-361.4h88.63L176.4,120.47ZM176.4,481.87l43.88,60.23H131.65Zm19.79-352.8H382.91l31,43H165.21Zm217.7,302-31,43H196.19l-31-43ZM175.54,0h88.63L220.28,60.23Zm44.74,542.1,43.89,60.23H175.54ZM201.35,302,290,180.7,378.61,302,290,421.63ZM240.07,68.84h99l31,43H209.09ZM370,491.33l-31,43h-99l-31-43ZM290,0l37,51.63H252.12Zm37,551.57L290,603.2l-37.86-51.63ZM314.07,0H402.7L358,60.23ZM358,542.1l44.74,60.23H314.07Zm0-481.87h88.63l-44.75,60.24Zm43.88,421.64,44.75,60.23H358Zm0-361.4h88.63L445.73,180.7Zm43.89,301.16,44.74,60.24H401.84Zm0-240.93h88.63l-44.75,60.23Zm43.88,180.7,44.75,60.23H445.73Zm0-120.47h88.63L533.5,301.17Zm43.89,60.24,44.74,60.23H489.61Z"/></g></svg>