<svg xmlns="http://www.w3.org/2000/svg" viewBox="0 0 1495.64 512.88"><defs><style>.cls-1,.cls-3{opacity:0.4;}.cls-2,.cls-3{fill:#b5477d;}</style></defs><g id="Contenido"><g class="cls-1"><polygon class="cls-2" points="810.22 85.6 810.14 85.5 747.82 171.2 809.8 256.44 747.82 341.68 810.14 427.38 810.22 427.28 872.46 512.88 934.78 427.17 872.46 341.46 872.38 341.57 810.48 256.44 872.38 171.31 872.46 171.42 934.78 85.71 872.46 0 810.22 85.6"/><polygon class="cls-2" points="1059.41 85.5 1059.34 85.6 997.1 0 934.78 85.71 997.1 171.42 997.17 171.31 1059.41 256.91 1121.73 171.2 1059.41 85.5"/></g><polygon class="cls-3" points="1121.73 341.68 1059.41 255.97 997.17 341.57 997.1 341.46 934.78 427.17 997.1 512.88 1059.34 427.28 1059.41 427.38 1121.73 341.68"/><g class="cls-1"><polygon class="cls-2" points="1184.13 85.6 1184.05 85.5 1121.73 171.2 1183.71 256.44 1121.73 341.68 1184.05 427.38 1184.13 427.28 1246.37 512.88 1308.69 427.17 1246.37 341.46 1246.29 341.57 1184.39 256.44 1246.29 171.31 1246.37 171.42 1308.69 85.71 1246.37 0 1184.13 85.6"/><polygon class="cls-2" points="1433.32 85.5 1433.25 85.6 1371.01 0 1308.69 85.71 1371.01 171.42 1371.08 171.31 1433.32 256.91 1495.64 171.2 1433.32 85.5"/></g><polygon class="cls-3" points="1495.64 341.68 1433.33 255.97 1371.08 341.57 1371.01 341.46 1308.69 427.17 1371.01 512.88 1433.25 427.28 1433.33 427.38 1495.64 341.68"/><g class="cls-1"><polygon class="cls-2" points="436.31 85.6 436.23 85.5 373.91 171.2 435.89 256.44 373.91 341.68 436.23 427.38 436.31 427.28 498.55 512.88 560.87 427.17 498.55 341.46 498.47 341.57 436.57 256.44 498.47 171.31 498.55 171.42 560.87 85.71 498.55 0 436.31 85.6"/><polygon class="cls-2" points="685.5 85.5 685.42 85.6 623.18 0 560.87 85.71 623.18 171.42 623.26 171.31 685.5 256.91 747.82 171.2 685.5 85.5"/></g><polygon class="cls-3" points="747.82 341.68 685.5 255.97 623.26 341.57 623.18 341.46 560.87 427.17 623.18 512.88 685.43 427.28 685.5 427.38 747.82 341.68"/><g class="cls-1"><polygon class="cls-2" points="62.4 85.6 62.32 85.5 0 171.2 61.98 256.44 0 341.68 62.32 427.38 62.4 427.28 124.64 512.88 186.96 427.17 124.64 341.46 124.56 341.57 62.66 256.44 124.56 171.31 124.64 171.42 186.96 85.71 124.64 0 62.4 85.6"/><polygon class="cls-2" points="311.59 85.5 311.51 85.6 249.27 0 186.96 85.71 249.27 171.42 249.35 171.31 311.59 256.91 373.91 171.2 311.59 85.5"/></g><polygon class="cls-3" points="373.91 341.68 311.59 255.97 249.35 341.57 249.27 341.46 186.96 427.17 249.27 512.88 311.51 427.28 311.59 427.38 373.91 341.68"/></g></svg>