<svg xmlns="http://www.w3.org/2000/svg" viewBox="0 0 1017.91 425.82"><defs><style>.cls-1{fill:#fff;}</style></defs><g id="Contenido"><path class="cls-1" d="M841,29l-5.23,7.18L830.44,29Zm0,14.35H830.44l5.33-7.17Zm3.07-.3L849.2,36l-5.13-7.27L838.85,36ZM865,56.68l-15.06-20.5L865,15.68l14.86,20.5ZM861.91.31l-5.23,7.17L851.35.31Zm0,71.74H851.35l5.33-7.17Zm3-57.7L870,7.28,864.88,0l-5.23,7.28Zm0,57.39L870,64.67l-5.12-7.28-5.23,7.28Zm3-71.43h10.56l-5.33,7.17Zm0,71.74,5.23-7.17,5.33,7.17Zm17.94-29L890.91,36l-5.12-7.27L880.56,36Zm3-14h10.56L894,36.18Zm0,14.35L894,36.18l5.33,7.17Z"/><path class="cls-1" d="M844.07,118.87l5.13-7.07-5.13-7.27-5.22,7.27ZM865,132.5,849.92,112,865,91.51,879.84,112Zm-3.07-56.36-5.23,7.17-5.33-7.17Zm0,71.74H851.35l5.33-7.18Zm3-57.7L870,83.1l-5.12-7.27-5.23,7.27Zm0,57.39L870,140.5l-5.12-7.28-5.23,7.28Zm3-71.43h10.56l-5.33,7.17Zm0,71.74,5.23-7.18,5.33,7.18Zm17.94-29,5.12-7.07-5.12-7.27-5.23,7.27Z"/><path class="cls-1" d="M841,180.66l-5.23,7.18-5.33-7.18ZM841,195H830.44l5.33-7.17Zm3.07-.31,5.13-7.07-5.13-7.28-5.22,7.28ZM865,208.33l-15.06-20.49L865,167.34l14.86,20.5ZM861.91,152l-5.23,7.18L851.35,152Zm0,71.75H851.35l5.33-7.18Zm3-57.71,5.12-7.07-5.12-7.27-5.23,7.27Zm0,57.4,5.12-7.07-5.12-7.28-5.23,7.28Zm3-71.44h10.56l-5.33,7.18Zm0,71.75,5.23-7.18,5.33,7.18Zm17.94-29,5.12-7.07-5.12-7.28-5.23,7.28Zm3-14h10.56L894,187.84Zm0,14.35,5.23-7.17,5.33,7.17Z"/><path class="cls-1" d="M844.07,270.53l5.13-7.07-5.13-7.28-5.22,7.28ZM865,284.16l-15.06-20.5L865,243.17l14.86,20.49Zm-3.07-56.37L856.68,235l-5.33-7.18Zm0,71.74H851.35l5.33-7.17Zm3-57.7,5.12-7.07-5.12-7.28-5.23,7.28Zm0,57.4,5.12-7.07-5.12-7.28-5.23,7.28Zm3-71.44h10.56L873.08,235Zm0,71.74,5.23-7.17,5.33,7.17Zm17.94-29,5.12-7.07-5.12-7.28-5.23,7.28Z"/><path class="cls-1" d="M899.32,29l-5.23,7.18L888.76,29Zm0,14.35H888.76l5.33-7.17Zm3.07-.3L907.52,36l-5.13-7.27L897.17,36ZM923.3,56.68l-15.06-20.5,15.06-20.5,14.86,20.5ZM920.23.31,915,7.48,909.67.31Zm0,71.74H909.67L915,64.88Zm3-57.7,5.12-7.07L923.2,0,918,7.28Zm0,57.39,5.12-7.07-5.12-7.28L918,64.67Zm3-71.43h10.56L931.4,7.48Zm0,71.74,5.23-7.17,5.33,7.17Zm17.94-29L949.23,36l-5.12-7.27L938.88,36Zm3-14h10.56l-5.33,7.18Zm0,14.35,5.23-7.17,5.33,7.17Z"/><path class="cls-1" d="M899.32,180.66l-5.23,7.18-5.33-7.18Zm0,14.35H888.76l5.33-7.17Zm3.07-.31,5.13-7.07-5.13-7.28-5.22,7.28Zm20.91,13.63-15.06-20.49,15.06-20.5,14.86,20.5ZM920.23,152,915,159.14,909.67,152Zm0,71.75H909.67l5.33-7.18Zm3-57.71,5.12-7.07-5.12-7.27L918,158.93Zm0,57.4,5.12-7.07-5.12-7.28L918,216.33Zm3-71.44h10.56l-5.33,7.18Zm0,71.75,5.23-7.18,5.33,7.18Zm17.94-29,5.12-7.07-5.12-7.28-5.23,7.28Zm3-14h10.56l-5.33,7.18Zm0,14.35,5.23-7.17,5.33,7.17Z"/><path class="cls-1" d="M957.64,29l-5.23,7.18L947.08,29Zm0,14.35H947.08l5.33-7.17Zm3.07-.3L965.84,36l-5.13-7.27L955.49,36Zm20.91,13.63-15.06-20.5,15.06-20.5,14.86,20.5ZM978.55.31l-5.23,7.17L968,.31Zm0,71.74H968l5.33-7.17Zm3-57.7,5.12-7.07L981.52,0l-5.23,7.28Zm0,57.39,5.12-7.07-5.12-7.28-5.23,7.28Zm3-71.43h10.56l-5.33,7.17Zm0,71.74,5.23-7.17,5.33,7.17Zm17.94-29,5.12-7.08-5.12-7.27L997.2,36Zm3-14H1016l-5.33,7.18Zm0,14.35,5.23-7.17,5.33,7.17Z"/><path class="cls-1" d="M960.71,118.87l5.13-7.07-5.13-7.27-5.22,7.27Zm20.91,13.63L966.56,112l15.06-20.5L996.48,112Zm-3.07-56.36-5.23,7.17L968,76.14Zm0,71.74H968l5.33-7.18Zm3-57.7,5.12-7.08-5.12-7.27-5.23,7.27Zm0,57.39,5.12-7.07-5.12-7.28-5.23,7.28Zm3-71.43h10.56l-5.33,7.17Zm0,71.74,5.23-7.18,5.33,7.18Zm17.94-29,5.12-7.07-5.12-7.27-5.23,7.27Z"/><path class="cls-1" d="M957.64,180.66l-5.23,7.18-5.33-7.18Zm0,14.35H947.08l5.33-7.17Zm3.07-.31,5.13-7.07-5.13-7.28-5.22,7.28Zm20.91,13.63-15.06-20.49,15.06-20.5,14.86,20.5ZM978.55,152l-5.23,7.18L968,152Zm0,71.75H968l5.33-7.18Zm3-57.71,5.12-7.07-5.12-7.27-5.23,7.27Zm0,57.4,5.12-7.07-5.12-7.28-5.23,7.28Zm3-71.44h10.56l-5.33,7.18Zm0,71.75,5.23-7.18,5.33,7.18Zm17.94-29,5.12-7.07-5.12-7.28-5.23,7.28Zm3-14H1016l-5.33,7.18Zm0,14.35,5.23-7.17L1016,195Z"/><path class="cls-1" d="M960.71,270.53l5.13-7.07-5.13-7.28-5.22,7.28Zm20.91,13.63-15.06-20.5,15.06-20.49,14.86,20.49Zm-3.07-56.37L973.32,235,968,227.79Zm0,71.74H968l5.33-7.17Zm3-57.7,5.12-7.07-5.12-7.28-5.23,7.28Zm0,57.4,5.12-7.07-5.12-7.28-5.23,7.28Zm3-71.44h10.56L989.72,235Zm0,71.74,5.23-7.17,5.33,7.17Zm17.94-29,5.12-7.07-5.12-7.28-5.23,7.28Z"/><path class="cls-1" d="M637.24,29,632,36.18,626.69,29Zm0,14.35H626.69L632,36.18Zm3.08-.3L645.44,36l-5.12-7.27L635.09,36Zm20.91,13.63-15.07-20.5,15.07-20.5,14.86,20.5ZM658.15.31l-5.23,7.17L647.59.31Zm0,71.74H647.59l5.33-7.17Zm3-57.7,5.13-7.07L661.12,0,655.9,7.28Zm0,57.39,5.13-7.07-5.13-7.28-5.22,7.28Zm3-71.43h10.55l-5.33,7.17Zm0,71.74,5.22-7.17,5.33,7.17Zm17.93-29L687.16,36,682,28.7,676.8,36Zm3-14h10.56l-5.33,7.18Zm0,14.35,5.23-7.17,5.33,7.17Z"/><path class="cls-1" d="M722.82,81l5.12-7.08-5.12-7.27-5.23,7.27Zm20.9,13.63-15.06-20.5,15.06-20.5,14.86,20.5Zm-.1-42.33,5.13-7.07-5.13-7.28-5.23,7.28Zm0,57.39,5.13-7.07-5.13-7.28-5.23,7.28ZM764.53,81l5.12-7.08-5.12-7.27-5.23,7.27Z"/><polygon class="cls-1" points="667.9 156.99 673.03 149.92 667.9 142.64 662.68 149.92 667.9 156.99"/><polygon class="cls-1" points="654.67 156.99 659.79 149.92 654.67 142.64 649.44 149.92 654.67 156.99"/><polygon class="cls-1" points="722.76 156.99 727.89 149.92 722.76 142.64 717.54 149.92 722.76 156.99"/><polygon class="cls-1" points="688.81 170.62 673.75 150.13 688.81 129.63 703.67 150.13 688.81 170.62"/><polygon class="cls-1" points="688.71 128.3 693.83 121.22 688.71 113.95 683.48 121.22 688.71 128.3"/><polygon class="cls-1" points="688.71 185.69 693.83 178.62 688.71 171.34 683.48 178.62 688.71 185.69"/><polygon class="cls-1" points="709.62 156.99 714.74 149.92 709.62 142.64 704.39 149.92 709.62 156.99"/><path class="cls-1" d="M750.39,43.05,755.52,36l-5.13-7.27L745.16,36ZM771.3,56.68l-15.07-20.5,15.07-20.5,14.86,20.5ZM768.22.31,763,7.48,757.67.31Zm3,14,5.12-7.07L771.2,0,766,7.28Zm0,57.39,5.12-7.07-5.12-7.28L766,64.67Zm3-71.43h10.55L779.4,7.48ZM792.1,43.05,797.23,36,792.1,28.7,786.88,36Z"/><path class="cls-1" d="M637.24,105,632,112.16,626.69,105Zm0,14.35H626.69l5.33-7.18Zm3.08-.31,5.12-7.07-5.12-7.28L635.09,112Zm20.91,13.63-15.07-20.5,15.07-20.5,14.86,20.5Zm-3.08-56.37-5.23,7.17-5.33-7.17Zm3,14,5.13-7.07L661.12,76l-5.22,7.28Zm0,57.39,5.13-7.07-5.13-7.27-5.22,7.27Zm3-71.43h10.55l-5.33,7.17ZM682,119l5.13-7.07L682,104.68,676.8,112Z"/><path class="cls-1" d="M695.36,119l5.13-7.07-5.13-7.28L690.14,112Zm20.91,13.63-15.06-20.5,15.06-20.5,14.86,20.5Zm-.1-42.33,5.12-7.07L716.17,76l-5.23,7.28Zm0,57.39,5.12-7.07-5.12-7.27-5.23,7.27ZM737.08,119,742.2,112l-5.12-7.28L731.85,112Z"/><path class="cls-1" d="M637.24,181,632,188.14,626.69,181Zm0,14.35H626.69l5.33-7.18Zm3.08-.31,5.12-7.07-5.12-7.28-5.23,7.28Zm20.91,13.63-15.07-20.5,15.07-20.5,14.86,20.5ZM658.15,224H647.59l5.33-7.17Zm3-57.7,5.13-7.07L661.12,152l-5.22,7.28Zm0,57.4,5.13-7.08-5.13-7.27-5.22,7.27Zm3,.3,5.22-7.17,5.33,7.17ZM682,195l5.13-7.07L682,180.66l-5.23,7.28Z"/><path class="cls-1" d="M695.36,195l5.13-7.07-5.13-7.28-5.22,7.28Zm20.91,13.63-15.06-20.5,15.06-20.5,14.86,20.5Zm-.1-42.33,5.12-7.07L716.17,152l-5.23,7.28Zm0,57.4,5.12-7.08-5.12-7.27-5.23,7.27ZM737.08,195l5.12-7.07-5.12-7.28-5.23,7.28Z"/><path class="cls-1" d="M722.76,233l5.13-7.07-5.13-7.28-5.22,7.28Zm20.91,13.63-15.06-20.5,15.06-20.5,14.86,20.5Zm-.1-42.33,5.12-7.07L743.57,190l-5.23,7.28Zm0,57.4,5.12-7.08-5.12-7.27-5.23,7.27ZM764.48,233l5.12-7.07-5.12-7.28-5.23,7.28Z"/><path class="cls-1" d="M637.24,257.05,632,264.23l-5.33-7.18Zm0,14.35H626.69l5.33-7.17Zm3.08-.31,5.12-7.07-5.12-7.28L635.09,264Zm20.91,13.63-15.07-20.49,15.07-20.5,14.86,20.5Zm-3.08-56.37-5.23,7.18-5.33-7.18Zm0,71.75H647.59l5.33-7.18Zm3-57.71,5.13-7.07-5.13-7.27-5.22,7.27Zm0,57.4,5.13-7.07-5.13-7.28-5.22,7.28Zm3-71.44h10.55l-5.33,7.18Zm0,71.75,5.22-7.18,5.33,7.18Zm17.93-29,5.13-7.07L682,256.74,676.8,264Zm3-14h10.56l-5.33,7.18Zm0,14.35,5.23-7.17,5.33,7.17Z"/><path class="cls-1" d="M750.49,271.09l5.12-7.07-5.12-7.28L745.26,264Zm20.91,13.63-15.07-20.49,15.07-20.5,14.86,20.5Zm-3.08,15.38H757.77l5.33-7.18Zm3-57.71,5.13-7.07-5.13-7.27-5.22,7.27Zm0,57.4,5.13-7.07-5.13-7.28-5.22,7.28Zm3,.31,5.22-7.18,5.33,7.18Zm17.93-29,5.13-7.07-5.13-7.28L787,264Z"/><path class="cls-1" d="M216.27,29l-5.22,7.18L205.72,29Zm0,14.35H205.72l5.33-7.17Zm3.08-.3L224.47,36l-5.12-7.27L214.12,36Zm20.9,13.63-15.06-20.5,15.06-20.5,14.87,20.5ZM237.18.31,232,7.48,226.62.31Zm0,71.74H226.62L232,64.88Zm3-57.7,5.13-7.07L240.15,0l-5.22,7.28Zm0,57.39,5.13-7.07-5.13-7.28-5.22,7.28Zm3-71.43h10.56l-5.33,7.17Zm0,71.74,5.23-7.17,5.33,7.17Zm17.94-29L266.18,36l-5.12-7.27L255.83,36Zm3-14h10.56l-5.33,7.18Zm0,14.35,5.23-7.17,5.33,7.17Z"/><path class="cls-1" d="M219.35,118.87l5.12-7.07-5.12-7.27-5.23,7.27Zm20.9,13.63L225.19,112l15.06-20.5L255.12,112Zm-3.07-56.36L232,83.31l-5.33-7.17Zm0,71.74H226.62L232,140.7Zm3-57.7,5.13-7.08-5.13-7.27-5.22,7.27Zm0,57.39,5.13-7.07-5.13-7.28-5.22,7.28Zm3-71.43h10.56l-5.33,7.17Zm0,71.74,5.23-7.18,5.33,7.18Zm17.94-29,5.12-7.07-5.12-7.27-5.23,7.27Z"/><path class="cls-1" d="M216.27,180.66l-5.22,7.18-5.33-7.18Zm0,14.35H205.72l5.33-7.17Zm3.08-.31,5.12-7.07-5.12-7.28-5.23,7.28Zm20.9,13.63-15.06-20.49,15.06-20.5,14.87,20.5ZM237.18,152,232,159.14,226.62,152Zm0,71.75H226.62l5.33-7.18Zm3-57.71,5.13-7.07-5.13-7.27-5.22,7.27Zm0,57.4,5.13-7.07-5.13-7.28-5.22,7.28Zm3-71.44h10.56l-5.33,7.18Zm0,71.75,5.23-7.18,5.33,7.18Zm17.94-29,5.12-7.07-5.12-7.28-5.23,7.28Zm3-14h10.56l-5.33,7.18ZM264,195l5.23-7.17,5.33,7.17Z"/><path class="cls-1" d="M219.35,270.53l5.12-7.07-5.12-7.28-5.23,7.28Zm20.9,13.63-15.06-20.5,15.06-20.49,14.87,20.49Zm-3.07-56.37L232,235l-5.33-7.18Zm0,71.74H226.62l5.33-7.17Zm3-57.7,5.13-7.07-5.13-7.28-5.22,7.28Zm0,57.4,5.13-7.07-5.13-7.28-5.22,7.28Zm3-71.44h10.56L248.35,235Zm0,71.74,5.23-7.17,5.33,7.17Zm17.94-29,5.12-7.07-5.12-7.28-5.23,7.28Z"/><path class="cls-1" d="M274.59,29l-5.23,7.18L264,29Zm0,14.35H264l5.32-7.17Zm3.08-.3L282.79,36l-5.12-7.27L272.44,36Zm20.9,13.63-15.06-20.5,15.06-20.5,14.87,20.5ZM295.5.31l-5.23,7.17L284.94.31Zm0,71.74H284.94l5.33-7.17Zm3-57.7,5.13-7.07L298.47,0l-5.22,7.28Zm0,57.39,5.13-7.07-5.13-7.28-5.22,7.28Zm3-71.43H312l-5.33,7.17Zm0,71.74,5.23-7.17L312,72.05Zm17.94-29L324.5,36l-5.12-7.27L314.15,36Zm3-14h10.56l-5.33,7.18Zm0,14.35,5.23-7.17,5.33,7.17Z"/><path class="cls-1" d="M274.59,180.66l-5.23,7.18L264,180.66Zm0,14.35H264l5.32-7.17Zm3.08-.31,5.12-7.07-5.12-7.28-5.23,7.28Zm20.9,13.63-15.06-20.49,15.06-20.5,14.87,20.5ZM295.5,152l-5.23,7.18L284.94,152Zm0,71.75H284.94l5.33-7.18Zm3-57.71,5.13-7.07-5.13-7.27-5.22,7.27Zm0,57.4,5.13-7.07-5.13-7.28-5.22,7.28Zm3-71.44H312l-5.33,7.18Zm0,71.75,5.23-7.18,5.33,7.18Zm17.94-29,5.12-7.07-5.12-7.28-5.23,7.28Zm3-14h10.56l-5.33,7.18Zm0,14.35,5.23-7.17,5.33,7.17Z"/><path class="cls-1" d="M332.91,29l-5.23,7.18L322.36,29Zm0,14.35H322.36l5.32-7.17Zm3.08-.3L341.11,36,336,28.7,330.76,36Zm20.9,13.63-15.06-20.5,15.06-20.5,14.86,20.5ZM353.82.31l-5.23,7.17L343.26.31Zm0,71.74H343.26l5.33-7.17Zm3-57.7,5.13-7.07L356.79,0l-5.23,7.28Zm0,57.39,5.13-7.07-5.13-7.28-5.23,7.28Zm3-71.43h10.56L365,7.48Zm0,71.74L365,64.88l5.33,7.17Zm17.94-29L382.82,36,377.7,28.7,372.47,36Zm3-14h10.56l-5.33,7.18Zm0,14.35,5.23-7.17,5.33,7.17Z"/><path class="cls-1" d="M336,118.87l5.12-7.07L336,104.53l-5.23,7.27Zm20.9,13.63L341.83,112l15.06-20.5L371.75,112Zm-3.07-56.36-5.23,7.17-5.33-7.17Zm0,71.74H343.26l5.33-7.18Zm3-57.7,5.13-7.08-5.13-7.27-5.23,7.27Zm0,57.39,5.13-7.07-5.13-7.28-5.23,7.28Zm3-71.43h10.56L365,83.31Zm0,71.74L365,140.7l5.33,7.18Zm17.94-29,5.12-7.07-5.12-7.27-5.23,7.27Z"/><path class="cls-1" d="M332.91,180.66l-5.23,7.18-5.32-7.18Zm0,14.35H322.36l5.32-7.17Zm3.08-.31,5.12-7.07L336,180.35l-5.23,7.28Zm20.9,13.63-15.06-20.49,15.06-20.5,14.86,20.5ZM353.82,152l-5.23,7.18L343.26,152Zm0,71.75H343.26l5.33-7.18Zm3-57.71,5.13-7.07-5.13-7.27-5.23,7.27Zm0,57.4,5.13-7.07-5.13-7.28-5.23,7.28Zm3-71.44h10.56L365,159.14Zm0,71.75,5.23-7.18,5.33,7.18Zm17.94-29,5.12-7.07-5.12-7.28-5.23,7.28Zm3-14h10.56l-5.33,7.18Zm0,14.35,5.23-7.17,5.33,7.17Z"/><path class="cls-1" d="M336,270.53l5.12-7.07L336,256.18l-5.23,7.28Zm20.9,13.63-15.06-20.5,15.06-20.49,14.86,20.49Zm-3.07-56.37L348.59,235l-5.33-7.18Zm0,71.74H343.26l5.33-7.17Zm3-57.7,5.13-7.07-5.13-7.28-5.23,7.28Zm0,57.4,5.13-7.07-5.13-7.28-5.23,7.28Zm3-71.44h10.56L365,235Zm0,71.74,5.23-7.17,5.33,7.17Zm17.94-29,5.12-7.07-5.12-7.28-5.23,7.28Z"/><path class="cls-1" d="M429.83,43.05,435,36l-5.13-7.27L424.61,36Zm20.91,13.63-15.07-20.5,15.07-20.5,14.86,20.5ZM447.67.31l-5.23,7.17L437.11.31Zm0,71.74H437.11l5.33-7.17Zm3-57.7,5.12-7.07L450.64,0l-5.23,7.28Zm0,57.39,5.12-7.07-5.12-7.28-5.23,7.28Zm3-71.43h10.56l-5.33,7.17Zm0,71.74,5.23-7.17,5.33,7.17Zm17.94-29L476.67,36l-5.12-7.27L466.32,36Z"/><path class="cls-1" d="M429.83,118.87,435,111.8l-5.13-7.27-5.22,7.27Zm20.91,13.63L435.67,112l15.07-20.5L465.6,112Zm-3.07-56.36-5.23,7.17-5.33-7.17Zm0,71.74H437.11l5.33-7.18Zm3-57.7,5.12-7.08-5.12-7.27-5.23,7.27Zm0,57.39,5.12-7.07-5.12-7.28-5.23,7.28Zm3-71.43h10.56l-5.33,7.17Zm0,71.74,5.23-7.18,5.33,7.18Zm17.94-29,5.12-7.07-5.12-7.27-5.23,7.27Z"/><path class="cls-1" d="M429.83,194.7l5.13-7.07-5.13-7.28-5.22,7.28Zm20.91,13.63-15.07-20.49,15.07-20.5,14.86,20.5ZM447.67,152l-5.23,7.18L437.11,152Zm0,71.75H437.11l5.33-7.18Zm3-57.71,5.12-7.07-5.12-7.27-5.23,7.27Zm0,57.4,5.12-7.07-5.12-7.28-5.23,7.28Zm3-71.44h10.56l-5.33,7.18Zm0,71.75,5.23-7.18,5.33,7.18Zm17.94-29,5.12-7.07-5.12-7.28-5.23,7.28Z"/><path class="cls-1" d="M426.76,256.49l-5.23,7.17-5.33-7.17Zm0,14.35H416.2l5.33-7.18Zm3.07-.31,5.13-7.07-5.13-7.28-5.22,7.28Zm20.91,13.63-15.07-20.5,15.07-20.49,14.86,20.49Zm-3.07-56.37L442.44,235l-5.33-7.18Zm0,71.74H437.11l5.33-7.17Zm3-57.7,5.12-7.07-5.12-7.28-5.23,7.28Zm0,57.4,5.12-7.07-5.12-7.28-5.23,7.28Zm3-71.44h10.56L458.84,235Zm0,71.74,5.23-7.17,5.33,7.17Zm17.94-29,5.12-7.07-5.12-7.28-5.23,7.28Zm3-14h10.55l-5.32,7.17Zm0,14.35,5.23-7.18,5.32,7.18Z"/><path class="cls-1" d="M485.08,256.49l-5.23,7.17-5.33-7.17Zm0,14.35H474.52l5.33-7.18Zm3.07-.31,5.13-7.07-5.13-7.28-5.22,7.28Zm20.91,13.63L494,263.66l15.07-20.49,14.86,20.49ZM506,227.79,500.76,235l-5.33-7.18Zm0,71.74H495.43l5.33-7.17Zm3-57.7,5.12-7.07L509,227.48l-5.23,7.28Zm0,57.4,5.12-7.07L509,284.88l-5.23,7.28Zm3-71.44h10.56L517.16,235Zm0,71.74,5.23-7.17,5.33,7.17Zm17.94-29,5.12-7.07-5.12-7.28-5.23,7.28Zm3-14h10.55l-5.33,7.17Zm0,14.35,5.22-7.18,5.33,7.18Z"/><path class="cls-1" d="M543.4,29l-5.23,7.18L532.84,29Zm24,27.68-15.07-20.5,15.07-20.5,14.86,20.5ZM564.3.31l-5.22,7.17L553.75.31Zm0,71.74H553.75l5.33-7.17Zm3-57.7,5.12-7.07L567.28,0l-5.23,7.28Zm0,57.39,5.12-7.07-5.12-7.28-5.23,7.28Zm3-71.43h10.56l-5.33,7.17Zm0,71.74,5.23-7.17,5.33,7.17Zm17.93-29L593.31,36l-5.13-7.27L583,36Z"/><path class="cls-1" d="M546.47,118.87l5.13-7.07-5.13-7.27-5.23,7.27Zm20.91,13.63L552.31,112l15.07-20.5L582.24,112ZM564.3,76.14l-5.22,7.17-5.33-7.17Zm0,71.74H553.75l5.33-7.18Zm3-57.7,5.12-7.08-5.12-7.27-5.23,7.27Zm0,57.39,5.12-7.07-5.12-7.28-5.23,7.28Zm3-71.43h10.56l-5.33,7.17Zm0,71.74,5.23-7.18,5.33,7.18Zm17.93-29,5.13-7.07-5.13-7.27L583,111.8Z"/><path class="cls-1" d="M546.47,194.7l5.13-7.07-5.13-7.28-5.23,7.28Zm20.91,13.63-15.07-20.49,15.07-20.5,14.86,20.5ZM564.3,152l-5.22,7.18L553.75,152Zm0,71.75H553.75l5.33-7.18Zm3-57.71,5.12-7.07-5.12-7.27-5.23,7.27Zm0,57.4,5.12-7.07-5.12-7.28-5.23,7.28Zm3-71.44h10.56l-5.33,7.18Zm0,71.75,5.23-7.18,5.33,7.18Zm17.93-29,5.13-7.07-5.13-7.28L583,187.63Z"/><path class="cls-1" d="M543.4,256.49l-5.23,7.17-5.33-7.17Zm0,14.35H532.84l5.33-7.18Zm3.07-.31,5.13-7.07-5.13-7.28-5.23,7.28Zm20.91,13.63-15.07-20.5,15.07-20.49,14.86,20.49Zm-3.08-56.37L559.08,235l-5.33-7.18Zm0,71.74H553.75l5.33-7.17Zm3-57.7,5.12-7.07-5.12-7.28-5.23,7.28Zm0,57.4,5.12-7.07-5.12-7.28-5.23,7.28Zm3-71.44h10.56L575.48,235Zm0,71.74,5.23-7.17,5.33,7.17Zm17.93-29,5.13-7.07-5.13-7.28L583,263.46Zm3-14h10.55l-5.33,7.17Zm0,14.35,5.22-7.18,5.33,7.18Z"/><path class="cls-1" d="M12.52,29,7.29,36.18,2,29Zm0,14.35H2l5.33-7.17Zm3.07-.3L20.71,36,15.59,28.7,10.36,36ZM36.5,56.68,21.43,36.18,36.5,15.68l14.86,20.5ZM33.42.31,28.2,7.48,22.87.31Zm0,71.74H22.87l5.33-7.17Zm3-57.7,5.12-7.07L36.4,0,31.17,7.28Zm0,57.39,5.12-7.07L36.4,57.39l-5.23,7.28Zm3-71.43H49.92L44.6,7.48Zm0,71.74,5.23-7.17,5.32,7.17Zm17.93-29L62.43,36,57.3,28.7,52.08,36Zm3-14H70.83L65.5,36.18Zm0,14.35,5.22-7.17,5.33,7.17Z"/><path class="cls-1" d="M98.09,81l5.12-7.08-5.12-7.27-5.23,7.27ZM119,94.62l-15.07-20.5L119,53.62l14.86,20.5Zm-.11-42.33L124,45.22l-5.13-7.28-5.22,7.28Zm0,57.39,5.13-7.07-5.13-7.28-5.22,7.28ZM139.8,81l5.13-7.08-5.13-7.27-5.23,7.27Z"/><polygon class="cls-1" points="43.18 156.99 48.3 149.92 43.18 142.64 37.95 149.92 43.18 156.99"/><polygon class="cls-1" points="29.94 156.99 35.07 149.92 29.94 142.64 24.72 149.92 29.94 156.99"/><polygon class="cls-1" points="98.04 156.99 103.16 149.92 98.04 142.64 92.81 149.92 98.04 156.99"/><polygon class="cls-1" points="64.08 170.62 49.02 150.13 64.08 129.63 78.95 150.13 64.08 170.62"/><polygon class="cls-1" points="63.98 128.3 69.11 121.22 63.98 113.95 58.76 121.22 63.98 128.3"/><polygon class="cls-1" points="63.98 185.69 69.11 178.62 63.98 171.34 58.76 178.62 63.98 185.69"/><polygon class="cls-1" points="84.89 156.99 90.02 149.92 84.89 142.64 79.66 149.92 84.89 156.99"/><path class="cls-1" d="M125.66,43.05,130.79,36l-5.13-7.27L120.44,36Zm20.91,13.63-15.06-20.5,15.06-20.5,14.86,20.5ZM143.5.31l-5.23,7.17L132.94.31Zm3,14,5.12-7.07L146.47,0l-5.23,7.28Zm0,57.39,5.12-7.07-5.12-7.28-5.23,7.28Zm3-71.43H160l-5.33,7.17Zm17.94,42.74L172.5,36l-5.12-7.27L162.15,36Z"/><path class="cls-1" d="M12.52,105l-5.23,7.17L2,105Zm0,14.35H2l5.33-7.18Zm3.07-.31L20.71,112l-5.12-7.28L10.36,112ZM36.5,132.66l-15.07-20.5L36.5,91.66l14.86,20.5ZM33.42,76.29,28.2,83.46l-5.33-7.17Zm3,14,5.12-7.07L36.4,76l-5.23,7.28Zm0,57.39,5.12-7.07-5.12-7.27-5.23,7.27Zm3-71.43H49.92L44.6,83.46ZM57.3,119,62.43,112l-5.13-7.28L52.08,112Z"/><path class="cls-1" d="M70.64,119,75.76,112l-5.12-7.28L65.41,112Zm20.9,13.63-15.06-20.5,15.06-20.5,14.87,20.5Zm-.1-42.33,5.13-7.07L91.44,76l-5.22,7.28Zm0,57.39,5.13-7.07-5.13-7.27-5.22,7.27ZM112.35,119l5.12-7.07-5.12-7.28L107.12,112Z"/><path class="cls-1" d="M12.52,181l-5.23,7.17L2,181Zm0,14.35H2l5.33-7.18Zm3.07-.31,5.12-7.07-5.12-7.28-5.23,7.28ZM36.5,208.64l-15.07-20.5,15.07-20.5,14.86,20.5ZM33.42,224H22.87l5.33-7.17Zm3-57.7,5.12-7.07L36.4,152l-5.23,7.28Zm0,57.4,5.12-7.08-5.12-7.27-5.23,7.27Zm3,.3,5.23-7.17L49.92,224ZM57.3,195l5.13-7.07-5.13-7.28-5.22,7.28Z"/><path class="cls-1" d="M70.64,195l5.12-7.07-5.12-7.28-5.23,7.28Zm20.9,13.63-15.06-20.5,15.06-20.5,14.87,20.5Zm-.1-42.33,5.13-7.07L91.44,152l-5.22,7.28Zm0,57.4,5.13-7.08-5.13-7.27-5.22,7.27ZM112.35,195l5.12-7.07-5.12-7.28-5.23,7.28Z"/><path class="cls-1" d="M98,233l5.12-7.07L98,218.65l-5.23,7.28ZM119,246.63l-15.07-20.5L119,205.63l14.86,20.5Zm-.11-42.33,5.13-7.07L118.84,190l-5.22,7.28Zm0,57.4,5.13-7.08-5.13-7.27-5.22,7.27ZM139.75,233l5.12-7.07-5.12-7.28-5.23,7.28Z"/><path class="cls-1" d="M12.52,257.05l-5.23,7.18L2,257.05Zm0,14.35H2l5.33-7.17Zm3.07-.31L20.71,264l-5.12-7.28L10.36,264ZM36.5,284.72,21.43,264.23l15.07-20.5,14.86,20.5Zm-3.08-56.37-5.22,7.18-5.33-7.18Zm0,71.75H22.87l5.33-7.18Zm3-57.71,5.12-7.07-5.12-7.27-5.23,7.27Zm0,57.4,5.12-7.07-5.12-7.28-5.23,7.28Zm3-71.44H49.92l-5.32,7.18Zm0,71.75,5.23-7.18,5.32,7.18Zm17.93-29L62.43,264l-5.13-7.28L52.08,264Zm3-14H70.83l-5.33,7.18Zm0,14.35,5.22-7.17,5.33,7.17Z"/><path class="cls-1" d="M125.76,271.09l5.13-7.07-5.13-7.28L120.53,264Zm20.91,13.63L131.6,264.23l15.07-20.5,14.86,20.5Zm-3.08,15.38H133l5.33-7.18Zm3-57.71,5.12-7.07-5.12-7.27-5.23,7.27Zm0,57.4,5.12-7.07-5.12-7.28-5.23,7.28Zm3,.31,5.23-7.18,5.33,7.18Zm17.93-29L172.6,264l-5.13-7.28L162.25,264Z"/><path class="cls-1" d="M4.06,359.57v-4.11H0v-8.28H4.06v-4.06H16.3v-4H4.06V335H20.47v4.06h4.06v20.52ZM16.3,347.28H8.23v8.13H16.3Z"/><path class="cls-1" d="M54.74,355.46v4.11H42.45v-4.16h8.13v-4H46.52v-4.06l-4.07-.05v-8.23h4.07V335H58.85v4.16H50.68v4h4.06v4.06l4.11-.05v8.28Z"/><path class="cls-1" d="M80.79,359.57v-4.11H76.73v-8.28h4.06v-4.06H93v-4H80.79V335h16.4v4.06h4.07v20.52ZM93,347.28H85v8.13H93Z"/><path class="cls-1" d="M151.79,359.57V339.15h-4v4.06h-4.11v16.36h-8.23V339.15h-4v4.06H127.4v16.36h-8.22V335h8.22v4.06h4V335h8.22v4.06h8.06V335h8.22v4.06H160v20.52Z"/><path class="cls-1" d="M198.4,355.46v4.11H177.94V326.81h8.22V335H198.4v4.06h4.07v16.41Zm-4.16-16.31h-8.08v16.26h8.08Z"/><path class="cls-1" d="M220.39,359.57V326.81h8.22v32.76Z"/><path class="cls-1" d="M267,355.46v4.11h-16.4v-4.11h-4.06V339.05h4.06V335H267v4.06H271v4.16H267v4.07h-8.17v4.06h-4.07v4.07h12.14v-4.17H271v4.22Zm-4.16-16.31h-8.08v8h4v-4h4.06Z"/><path class="cls-1" d="M293,359.57v-4.11h-4.06v-8.28H293v-4.06h12.24v-4H293V335h16.4v4.06h4.07v20.52Zm12.24-12.29h-8.08v8.13h8.08Z"/><path class="cls-1" d="M357.49,359.57v-4.11h-4.07V339.05h4.07V335h12.24v-8.18H378v32.76Zm12.24-20.42h-8.08v16.26h8.08Z"/><path class="cls-1" d="M416.34,355.46v4.11h-16.4v-4.11h-4.07V339.05h4.07V335h16.4v4.06h4.07v4.16h-4.07v4.07h-8.18v4.06H404.1v4.07h12.14v-4.17h4.17v4.22Zm-4.16-16.31H404.1v8h4v-4h4.06Z"/><path class="cls-1" d="M493,359.57V339.15h-4v4.06h-4.11v16.36h-8.22V339.15h-4v4.06h-4.06v16.36h-8.23V335h8.23v4.06h4V335h8.21v4.06h8.07V335h8.21v4.06h4.11v20.52Z"/><path class="cls-1" d="M539.58,355.46v4.11h-16.4v-4.11h-4.06V335h8.22v20.42h8.08V335h8.23v20.47Z"/><path class="cls-1" d="M577.87,359.57V339.15h-4v4.06H569.8v16.36h-8.23V335h8.23v4.06h4V335H582v4.06h4.06v20.52Z"/><path class="cls-1" d="M608.09,359.57v-4.11H604V339.05h4.07V335h12.24v-8.18h8.22v32.76Zm12.24-20.42h-8.08v16.26h8.08Z"/><path class="cls-1" d="M666.94,355.46v4.11h-16.4v-4.11h-4.07V339.05h4.07V335h16.4v4.06H671v16.41Zm-4.16-16.31H654.7v16.26h8.08Z"/><path class="cls-1" d="M701.22,355.46v4.11H688.93v-4.16h8.12v-4H693v-4.06l-4.06-.05v-8.23H693V335h12.34v4.16h-8.18v4h4.07v4.06l4.11-.05v8.28Z"/><path class="cls-1" d="M765.7,355.46v4.11H753.46v8.18h-8.23V335H765.7v4.06h4.07v16.41Zm-4.16-16.31h-8.08v16.26h8.08Z"/><path class="cls-1" d="M808.15,355.46v4.11h-16.4v-4.11h-4.06V339.05h4.06V335h16.4v4.06h4.07v16.41ZM804,339.15h-8.08v16.26H804Z"/><path class="cls-1" d="M842.43,355.46v4.11H830.14v-4.16h8.13v-4H834.2v-4.06l-4.06-.05v-8.23h4.06V335h12.34v4.16h-8.18v4h4.07v4.06l4.11-.05v8.28Z"/><path class="cls-1" d="M864.41,331v-4.16h8.23V331Zm0,28.6V335h8.23v24.58Z"/><path class="cls-1" d="M911,355.46v4.11H890.51V326.81h8.23V335H911v4.06H915v16.41Zm-4.17-16.31h-8.07v16.26h8.07Z"/><path class="cls-1" d="M933,359.57V326.81h8.23v32.76Z"/><path class="cls-1" d="M979.53,355.46v4.11H963.12v-4.11h-4.06V339.05h4.06V335h16.41v4.06h4.06v4.16h-4.06v4.07h-8.18v4.06h-4.06v4.07h12.14v-4.17h4.16v4.22Zm-4.17-16.31h-8.07v8h4v-4h4.06Z"/><path class="cls-1" d="M1013.8,355.46v4.11h-12.29v-4.16h8.13v-4h-4.06v-4.06l-4.07-.05v-8.23h4.07V335h12.33v4.16h-8.17v4h4.06v4.06l4.11-.05v8.28Z"/><path class="cls-1" d="M130,419.27v6.55h-6.58v-6.55h-9.8v-6.54h3.25v-6.58h3.33v6.62h-3.25v3.17h6.47V399.61H130v16.33h3.25v3.33Z"/><path class="cls-1" d="M157.36,409.48V416h-3.27l0,9.8h-6.59v-9.88h3.26V409.4h3.25v-6.46h-9.8v-3.33h16.42v9.87Z"/><path class="cls-1" d="M202.42,422.53v3.29h-9.83v-3.33h6.5v-3.22h-3.25V416l-3.25,0V409.4h3.25v-3.25h9.87v3.33h-6.54v3.21h3.25v3.25l3.29,0v6.62Z"/><path class="cls-1" d="M223.26,425.82v-3.29H220v-6.62h3.25v-3.26h9.8v-3.17h-9.8v-3.33h13.12v3.25h3.26v16.42Zm9.8-9.84h-6.47v6.51h6.47Z"/><path class="cls-1" d="M254,425.82V399.61h6.58v26.21Z"/><path class="cls-1" d="M291.23,422.53v3.29H278.1v-3.29h-3.25V409.4h3.25v-3.25h13.13v3.25h3.25v13.13Zm-6.55-22.84v3.25h-3.33v-3.33h3.29v-3.25H288v3.33Zm3.22,9.79h-6.47v13h6.47Z"/><path class="cls-1" d="M321.86,425.82V409.48h-3.22v3.25h-3.25v13.09h-6.58V406.15h6.58v3.25h3.22v-3.25h6.58v3.25h3.25v16.42Z"/><path class="cls-1" d="M373.45,425.82V409.48h-3.22v3.25H367v13.09H360.4V406.15H367v3.25h3.21v-3.25h6.59v3.25H380v16.42Z"/><path class="cls-1" d="M397.61,425.82v-3.29h-3.25v-6.62h3.25v-3.26h9.8v-3.17h-9.8v-3.33h13.13v3.25H414v16.42Zm9.8-9.84h-6.47v6.51h6.47Z"/><path class="cls-1" d="M441.45,422.53v3.29h-9.87v-3.29h-3.26V409.4h3.26v-3.25H444.7v6.58h-3.33v-3.25H434.9v13h6.47v-3.33h3.33v3.37Z"/><path class="cls-1" d="M459,402.94v-3.33h6.58v3.33Zm0,22.88V406.15h6.58v19.67Z"/><path class="cls-1" d="M496.25,422.53v3.29H483.12v-3.29h-3.25V409.4h3.25v-3.25h13.13v3.25h3.25v13.13Zm-3.33-13h-6.47v13h6.47Z"/><path class="cls-1" d="M526.88,425.82V409.48h-3.21v3.25h-3.25v13.09h-6.59V406.15h6.59v3.25h3.21v-3.25h6.58v3.25h3.25v16.42Z"/><path class="cls-1" d="M551.05,425.82v-3.29H547.8v-6.62h3.25v-3.26h9.79v-3.17h-9.79v-3.33h13.12v3.25h3.25v16.42Zm9.79-9.84h-6.46v6.51h6.46Z"/><path class="cls-1" d="M581.76,425.82V399.61h6.58v26.21Z"/><path class="cls-1" d="M623.51,425.82v-3.29h-3.25V409.4h3.25v-3.25h9.8v-6.54h6.58v26.21Zm9.8-16.34h-6.47v13h6.47Z"/><path class="cls-1" d="M670.6,422.53v3.29H657.48v-3.29h-3.26V409.4h3.26v-3.25H670.6v3.25h3.25v3.33H670.6V416h-6.54v3.26H660.8v3.25h9.72v-3.33h3.33v3.37Zm-3.33-13H660.8v6.43H664v-3.22h3.25Z"/><path class="cls-1" d="M709.06,425.82v-3.29h-3.25v-6.62h3.25v-3.26h9.8v-3.17h-9.8v-3.33h13.13v3.25h3.25v16.42Zm9.8-9.84h-6.47v6.51h6.47Z"/><path class="cls-1" d="M746.35,412.73v13.09h-6.58V406.15h6.58v3.25h3.22v-3.25h3.33v6.58Z"/><path class="cls-1" d="M773.77,409.48v16.34h-6.58V409.48H763.9v-3.33h3.29v-6.54h6.58v6.54H777v3.33Z"/><path class="cls-1" d="M788.07,402.94v-3.33h6.58v3.33Zm0,22.88V406.15h6.58v19.67Z"/><path class="cls-1" d="M818.78,422.53v3.29H809v-3.33h6.5v-3.22H812.2V416L809,416V409.4h3.25v-3.25h9.87v3.33h-6.54v3.21h3.25v3.25l3.29,0v6.62Z"/><path class="cls-1" d="M843,409.48v16.34h-6.58V409.48h-3.29v-3.33h3.29v-6.54H843v6.54h3.25v3.33Z"/><path class="cls-1" d="M860.5,425.82v-3.29h-3.25v-6.62h3.25v-3.26h9.79v-3.17H860.5v-3.33h13.12v3.25h3.25v16.42Zm9.79-9.84h-6.46v6.51h6.46Z"/><path class="cls-1" d="M901,422.53v3.29h-9.83v-3.33h6.5v-3.22h-3.25V416l-3.25,0V409.4h3.25v-3.25h9.87v3.33h-6.54v3.21H901v3.25l3.29,0v6.62Z"/></g></svg>