<svg xmlns="http://www.w3.org/2000/svg" viewBox="0 0 313.83 326.9"><defs><style>.cls-1{fill:#36120a;}</style></defs><g id="Contenido"><path class="cls-1" d="M0,130.76H48.1L24.28,163.45Zm24.28,32.69L48.1,196.14H0Zm-.46-65.38h48.1L48.1,130.76ZM48.1,196.14l23.82,32.69H23.82Zm-9.34-32.22,35.49-49.5,35,49.5-35,48.57Zm8.87-98.54H95.74L71.92,98.07ZM71.92,228.83l23.82,32.69H47.63ZM71.45,32.69h48.1L95.74,65.38ZM95.74,261.52l23.81,32.69H71.45ZM95.27,0h48.1L119.55,32.69Zm24.28,294.21,23.82,32.69H95.27ZM109.28,163.92l48.1-65.85,48.1,65.85-48.1,64.91ZM121.89,49.5,157.38,0l35,49.5-35,48.57Zm0,228.83,35.49-49.5,35,49.5-35,48.57ZM170.46,0h48.1L194.27,32.69Zm23.81,294.21,24.29,32.69h-48.1Zm0-261.52h48.1L218.09,65.38Zm23.82,228.83,24.28,32.69h-48.1Zm-12.61-97.6L241,114.42l35,49.5-35,48.57Zm12.61-98.54h48.1L241.91,98.07Zm23.82,163.45,24.28,32.69h-48.1Zm0-130.76H290l-24.29,32.69Zm23.81,98.07L290,228.83h-48.1Zm0-65.38h48.11l-24.29,32.69Zm23.82,32.69,24.29,32.69H265.72Z"/></g></svg>