<svg xmlns="http://www.w3.org/2000/svg" viewBox="0 0 320 512.47"><defs><style>.cls-1{opacity:0.6;}.cls-2{fill:#b53426;}</style></defs><g id="Figuras"><g class="cls-1"><path class="cls-2" d="M127.87,44.3l10.92-14.9,10.5,14.9-10.5,14.49Zm0,29.4,10.92-14.91,10.5,14.91-10.5,14.49Zm0,29.4,10.92-14.91,10.5,14.91-10.5,14.49Zm21.42-88.19L160,0l10.5,14.91L160,29.4Zm0,29.39L160,29.4l10.5,14.9L160,58.79Zm0,29.4L160,58.79,170.5,73.7,160,88.19Zm0,29.4L160,88.19l10.5,14.91L160,117.59Zm0,29.39L160,117.59l10.5,14.9L160,147ZM170.5,44.3l10.71-14.9,10.92,14.9L181.21,58.79Zm0,29.4,10.71-14.91L192.13,73.7,181.21,88.19Zm0,29.4,10.71-14.91,10.92,14.91-10.92,14.49Z"/><path class="cls-2" d="M53.23,146.48l10.71-14.91,10.5,14.91L63.94,161Zm21.21-29.4,10.92-14.9,10.5,14.9-10.5,14.49Zm0,29.4,10.92-14.91,10.5,14.91L85.36,161Zm0,29.4L85.36,161l10.5,14.91-10.5,14.48ZM95.86,87.69l10.71-14.91,10.5,14.91-10.5,14.49Zm0,29.39,10.71-14.9,10.5,14.9-10.5,14.49Zm0,29.4,10.71-14.91,10.5,14.91L106.57,161Zm0,29.4L106.57,161l10.5,14.91-10.5,14.48Zm0,29.39,10.71-14.91,10.5,14.91-10.5,14.49Zm21.21-88.19,10.7-14.9,10.92,14.9-10.92,14.49Zm0,29.4,10.7-14.91,10.92,14.91L127.77,161Zm0,29.4L127.77,161l10.92,14.91-10.92,14.48Zm21.62-29.4,10.71-14.91,10.5,14.91L149.4,161Z"/><path class="cls-2" d="M159.9,146.48l10.71-14.91,10.5,14.91L170.61,161Zm21.21-29.4L192,102.18l10.5,14.9L192,131.57Zm0,29.4L192,131.57l10.5,14.91L192,161Zm0,29.4L192,161l10.5,14.91L192,190.36Zm21.42-88.19,10.7-14.91,10.5,14.91-10.5,14.49Zm0,29.39,10.7-14.9,10.5,14.9-10.5,14.49Zm0,29.4,10.7-14.91,10.5,14.91L213.23,161Zm0,29.4L213.23,161l10.5,14.91-10.5,14.48Zm0,29.39,10.7-14.91,10.5,14.91-10.5,14.49Zm21.2-88.19,10.71-14.9,10.92,14.9-10.92,14.49Zm0,29.4,10.71-14.91,10.92,14.91L234.44,161Zm0,29.4L234.44,161l10.92,14.91-10.92,14.48Zm21.63-29.4,10.71-14.91,10.5,14.91L256.07,161Z"/><path class="cls-2" d="M106.67,219.8l10.71-14.91,10.49,14.91-10.49,14.49Zm21.2-29.4,10.92-14.91,10.5,14.91-10.5,14.49Zm0,29.4,10.92-14.91,10.5,14.91-10.5,14.49Zm0,29.4,10.92-14.91,10.5,14.91-10.5,14.48ZM149.29,161,160,146.1,170.5,161,160,175.49Zm0,29.39L160,175.49l10.5,14.91L160,204.89Zm0,29.4L160,204.89l10.5,14.91L160,234.29Zm0,29.4L160,234.29l10.5,14.91L160,263.68Zm0,29.39L160,263.68l10.5,14.91L160,293.08ZM170.5,190.4l10.71-14.91,10.92,14.91-10.92,14.49Zm0,29.4,10.71-14.91,10.92,14.91-10.92,14.49Zm0,29.4,10.71-14.91,10.92,14.91-10.92,14.48Zm21.63-29.4,10.7-14.91,10.5,14.91-10.5,14.49Z"/><path class="cls-2" d="M213.33,219.8,224,204.89l10.5,14.91L224,234.29Zm21.21-29.4,10.92-14.91L256,190.4l-10.5,14.49Zm0,29.4,10.92-14.91L256,219.8l-10.5,14.49Zm0,29.4,10.92-14.91L256,249.2l-10.5,14.48ZM256,161l10.71-14.91L277.17,161l-10.5,14.48Zm0,29.39,10.71-14.91,10.5,14.91-10.5,14.49Zm0,29.4,10.71-14.91,10.5,14.91-10.5,14.49Zm0,29.4,10.71-14.91,10.5,14.91-10.5,14.48Zm0,29.39,10.71-14.91,10.5,14.91-10.5,14.49Zm21.21-88.19,10.7-14.91,10.92,14.91-10.92,14.49Zm0,29.4,10.7-14.91,10.92,14.91-10.92,14.49Zm0,29.4,10.7-14.91,10.92,14.91-10.92,14.48Zm21.62-29.4,10.71-14.91L320,219.8l-10.5,14.49Z"/><path class="cls-2" d="M0,219.8l10.71-14.91,10.5,14.91-10.5,14.49Zm21.21-29.4,10.92-14.91L42.62,190.4,32.13,204.89Zm0,29.4,10.92-14.91L42.62,219.8,32.13,234.29Zm0,29.4,10.92-14.91L42.62,249.2,32.13,263.68ZM42.62,161,53.33,146.1,63.83,161l-10.5,14.48Zm0,29.39,10.71-14.91,10.5,14.91-10.5,14.49Zm0,29.4,10.71-14.91,10.5,14.91-10.5,14.49Zm0,29.4,10.71-14.91,10.5,14.91-10.5,14.48Zm0,29.39,10.71-14.91,10.5,14.91-10.5,14.49ZM63.83,190.4l10.71-14.91L85.46,190.4,74.54,204.89Zm0,29.4,10.71-14.91L85.46,219.8,74.54,234.29Zm0,29.4,10.71-14.91L85.46,249.2,74.54,263.68Zm21.63-29.4,10.71-14.91,10.5,14.91-10.5,14.49Z"/><path class="cls-2" d="M53.23,292.65l10.71-14.9,10.5,14.9-10.5,14.49Zm21.21-29.39,10.92-14.91,10.5,14.91-10.5,14.49Zm0,29.39,10.92-14.9,10.5,14.9-10.5,14.49Zm0,29.4,10.92-14.91,10.5,14.91-10.5,14.49Zm21.42-88.19L106.57,219l10.5,14.91-10.5,14.49Zm0,29.4,10.71-14.91,10.5,14.91-10.5,14.49Zm0,29.39,10.71-14.9,10.5,14.9-10.5,14.49Zm0,29.4,10.71-14.91,10.5,14.91-10.5,14.49Zm0,29.4,10.71-14.91,10.5,14.91-10.5,14.48Zm21.21-88.19,10.7-14.91,10.92,14.91-10.92,14.49Zm0,29.39,10.7-14.9,10.92,14.9-10.92,14.49Zm0,29.4,10.7-14.91,10.92,14.91-10.92,14.49Zm21.62-29.4,10.71-14.9,10.5,14.9-10.5,14.49Z"/><path class="cls-2" d="M159.9,292.65l10.71-14.9,10.5,14.9-10.5,14.49Zm21.21-29.39L192,248.35l10.5,14.91L192,277.75Zm0,29.39L192,277.75l10.5,14.9L192,307.14Zm0,29.4L192,307.14l10.5,14.91L192,336.54Zm21.42-88.19L213.23,219l10.5,14.91-10.5,14.49Zm0,29.4,10.7-14.91,10.5,14.91-10.5,14.49Zm0,29.39,10.7-14.9,10.5,14.9-10.5,14.49Zm0,29.4,10.7-14.91,10.5,14.91-10.5,14.49Zm0,29.4,10.7-14.91,10.5,14.91-10.5,14.48Zm21.2-88.19,10.71-14.91,10.92,14.91-10.92,14.49Zm0,29.39,10.71-14.9,10.92,14.9-10.92,14.49Zm0,29.4,10.71-14.91,10.92,14.91-10.92,14.49Zm21.63-29.4,10.71-14.9,10.5,14.9-10.5,14.49Z"/><path class="cls-2" d="M15.9,292.52l3.75-5.22,3.67,5.22-3.67,5.07Zm7.42-10.29L27.14,277l3.68,5.22-3.68,5.07Zm0,10.29,3.82-5.22,3.68,5.22-3.68,5.07Zm0,10.29,3.82-5.22,3.68,5.22-3.68,5.07Zm7.5-30.87,3.75-5.22,3.67,5.22L34.57,277Zm0,10.29L34.57,277l3.67,5.22-3.67,5.07Zm0,10.29,3.75-5.22,3.67,5.22-3.67,5.07Zm0,10.29,3.75-5.22,3.67,5.22-3.67,5.07Zm0,10.28,3.75-5.21,3.67,5.21-3.67,5.08Zm7.42-30.86L42,277l3.82,5.22L42,287.3Zm0,10.29L42,287.3l3.82,5.22L42,297.59Zm0,10.29L42,297.59l3.82,5.22L42,307.88Zm7.57-10.29,3.75-5.22,3.67,5.22-3.67,5.07Z"/><path class="cls-2" d="M266.57,292.52l3.75-5.22,3.67,5.22-3.67,5.07ZM274,282.23l3.82-5.22,3.68,5.22-3.68,5.07Zm0,10.29,3.82-5.22,3.68,5.22-3.68,5.07Zm0,10.29,3.82-5.22,3.68,5.22-3.68,5.07Zm7.5-30.87,3.74-5.22,3.68,5.22L285.23,277Zm0,10.29,3.74-5.22,3.68,5.22-3.68,5.07Zm0,10.29,3.74-5.22,3.68,5.22-3.68,5.07Zm0,10.29,3.74-5.22,3.68,5.22-3.68,5.07Zm0,10.28,3.74-5.21,3.68,5.21-3.68,5.08Zm7.42-30.86,3.75-5.22,3.82,5.22-3.82,5.07Zm0,10.29,3.75-5.22,3.82,5.22-3.82,5.07Zm0,10.29,3.75-5.22,3.82,5.22-3.82,5.07Zm7.57-10.29,3.75-5.22,3.67,5.22-3.67,5.07Z"/><path class="cls-2" d="M213.33,365.9,224,351l10.5,14.91L224,380.39Zm21.21-29.4,10.92-14.91L256,336.5,245.46,351Zm0,29.4L245.46,351,256,365.9l-10.5,14.49Zm0,29.39,10.92-14.9,10.5,14.9-10.5,14.49ZM256,307.1l10.71-14.9,10.5,14.9-10.5,14.49Zm0,29.4,10.71-14.91,10.5,14.91L266.67,351Zm0,29.4L266.67,351l10.5,14.91-10.5,14.49Zm0,29.39,10.71-14.9,10.5,14.9-10.5,14.49Zm0,29.4,10.71-14.91,10.5,14.91-10.5,14.49Zm21.21-88.19,10.7-14.91,10.92,14.91L287.87,351Zm0,29.4L287.87,351l10.92,14.91-10.92,14.49Zm0,29.39,10.7-14.9,10.92,14.9-10.92,14.49Zm21.62-29.39L309.5,351,320,365.9l-10.5,14.49Z"/><path class="cls-2" d="M0,365.9,10.71,351l10.5,14.91-10.5,14.49Zm21.21-29.4,10.92-14.91L42.62,336.5,32.13,351Zm0,29.4L32.13,351,42.62,365.9,32.13,380.39Zm0,29.39,10.92-14.9,10.49,14.9L32.13,409.78ZM42.62,307.1l10.71-14.9,10.5,14.9-10.5,14.49Zm0,29.4,10.71-14.91,10.5,14.91L53.33,351Zm0,29.4L53.33,351l10.5,14.91-10.5,14.49Zm0,29.39,10.71-14.9,10.5,14.9-10.5,14.49Zm0,29.4,10.71-14.91,10.5,14.91-10.5,14.49ZM63.83,336.5l10.71-14.91L85.46,336.5,74.54,351Zm0,29.4L74.54,351,85.46,365.9,74.54,380.39Zm0,29.39,10.71-14.9,10.92,14.9L74.54,409.78ZM85.46,365.9,96.17,351l10.5,14.91-10.5,14.49Z"/><path class="cls-2" d="M106.67,365.9,117.38,351l10.49,14.91-10.49,14.49Zm21.2-29.4,10.92-14.91,10.5,14.91L138.79,351Zm0,29.4L138.79,351l10.5,14.91-10.5,14.49Zm0,29.39,10.92-14.9,10.5,14.9-10.5,14.49Zm21.42-88.19L160,292.2l10.5,14.9L160,321.59Zm0,29.4L160,321.59l10.5,14.91L160,351Zm0,29.4L160,351l10.5,14.91L160,380.39Zm0,29.39L160,380.39l10.5,14.9L160,409.78Zm0,29.4L160,409.78l10.5,14.91L160,439.18ZM170.5,336.5l10.71-14.91,10.92,14.91L181.21,351Zm0,29.4L181.21,351l10.92,14.91-10.92,14.49Zm0,29.39,10.71-14.9,10.92,14.9-10.92,14.49Zm21.63-29.39L202.83,351l10.5,14.91-10.5,14.49Z"/><polygon class="cls-2" points="106.78 512.48 159.9 439.19 106.78 365.49 53.23 439.19 106.78 512.48"/><polygon class="cls-2" points="213.44 512.48 266.57 439.19 213.44 365.49 159.9 439.19 213.44 512.48"/></g></g></svg>