<svg xmlns="http://www.w3.org/2000/svg" viewBox="0 0 313.38 326.9"><defs><style>.cls-1{fill:#b00903;opacity:0.8;}</style></defs><g id="Contenido"><path class="cls-1" d="M48,131.05,24.25,163.68,0,131.05Zm0,65.27H0l24.25-32.64ZM71.82,98.39,48,131.05,23.78,98.39Zm0,130.58h-48L48,196.32Zm85.34,97.47,118-162.76L157.16,0,38.24,163.68ZM95.6,65.75,71.82,98.39,47.57,65.75Zm0,195.87h-48L71.82,229ZM119.38,33.11,95.6,65.75,71.35,33.11Zm0,261.15h-48L95.6,261.62ZM143.17.46,119.38,33.11,95.13.46Zm0,326.44h-48l24.25-32.64ZM170.21.46h48L194,33.11Zm0,326.44L194,294.26l24.25,32.64ZM194,33.11h48L217.78,65.75Zm0,261.15,23.78-32.64L242,294.26ZM217.78,65.75h48L241.56,98.39Zm0,195.87L241.56,229l24.26,32.65ZM241.56,98.39h48l-24.25,32.66Zm0,130.58,23.79-32.65L289.6,229Zm23.79-97.92h48l-24.25,32.63Zm0,65.27,23.78-32.64,24.25,32.64Z"/></g></svg>