<svg xmlns="http://www.w3.org/2000/svg" viewBox="0 0 870.11 146.38"><defs><style>.cls-1{fill:#fff;}</style></defs><g id="Contenido"><path class="cls-1" d="M83.68,34.71l1.77-2.47,1.74,2.47-1.74,2.4Zm3.51-4.87L89,27.37l1.73,2.47L89,32.24Zm0,4.87L89,32.24l1.73,2.47L89,37.11Zm0,4.87L89,37.11l1.73,2.47L89,42ZM90.73,25l1.78-2.47L94.25,25l-1.74,2.39Zm0,4.86,1.78-2.47,1.74,2.47-1.74,2.4Zm0,4.87,1.78-2.47,1.74,2.47-1.74,2.4Zm0,4.87,1.78-2.47,1.74,2.47L92.51,42Zm0,4.87L92.51,42l1.74,2.47-1.74,2.4Zm3.52-14.61L96,27.37l1.81,2.47L96,32.24Zm0,4.87L96,32.24l1.81,2.47L96,37.11Zm0,4.87L96,37.11l1.81,2.47L96,42Zm3.58-4.87,1.77-2.47,1.74,2.47-1.74,2.4Z"/><path class="cls-1" d="M83.68,60.39l1.77-2.47,1.74,2.47-1.74,2.4Zm3.51-4.86L89,53.06l1.73,2.47L89,57.92Zm0,4.86L89,57.92l1.73,2.47L89,62.79Zm0,4.87L89,62.79l1.73,2.47L89,67.66Zm3.54-14.6,1.78-2.47,1.74,2.47-1.74,2.4Zm0,4.87,1.78-2.47,1.74,2.47-1.74,2.39Zm0,4.86,1.78-2.47,1.74,2.47-1.74,2.4Zm0,4.87,1.78-2.47,1.74,2.47-1.74,2.4Zm0,4.87,1.78-2.47,1.74,2.47-1.74,2.4Zm3.52-14.6L96,53.06l1.81,2.47L96,57.92Zm0,4.86L96,57.92l1.81,2.47L96,62.79Zm0,4.87L96,62.79l1.81,2.47L96,67.66Zm3.58-4.87,1.77-2.47,1.74,2.47-1.74,2.4Z"/><path class="cls-1" d="M83.68,86.08l1.77-2.47,1.74,2.47-1.74,2.39Zm3.51-4.87L89,78.74l1.73,2.47L89,83.61Zm0,4.87L89,83.61l1.73,2.47L89,88.47Zm0,4.86L89,88.47l1.73,2.47L89,93.34Zm3.54-14.6,1.78-2.47,1.74,2.47-1.74,2.4Zm0,4.87,1.78-2.47,1.74,2.47-1.74,2.4Zm0,4.87,1.78-2.47,1.74,2.47-1.74,2.39Zm0,4.86,1.78-2.47,1.74,2.47-1.74,2.4Zm0,4.87,1.78-2.47,1.74,2.47-1.74,2.4Zm3.52-14.6L96,78.74l1.81,2.47L96,83.61Zm0,4.87L96,83.61l1.81,2.47L96,88.47Zm0,4.86L96,88.47l1.81,2.47L96,93.34Zm3.58-4.86,1.77-2.47,1.74,2.47L99.6,88.47Z"/><path class="cls-1" d="M83.68,111.76l1.77-2.47,1.74,2.47-1.74,2.4Zm3.51-4.87L89,104.42l1.73,2.47L89,109.29Zm0,4.87L89,109.29l1.73,2.47L89,114.16Zm0,4.87L89,114.16l1.73,2.47L89,119ZM90.73,102l1.78-2.47L94.25,102l-1.74,2.4Zm0,4.87,1.78-2.47,1.74,2.47-1.74,2.4Zm0,4.87,1.78-2.47,1.74,2.47-1.74,2.4Zm0,4.87,1.78-2.47,1.74,2.47L92.51,119Zm0,4.86L92.51,119l1.74,2.47-1.74,2.4Zm3.52-14.6L96,104.42l1.81,2.47L96,109.29Zm0,4.87L96,109.29l1.81,2.47L96,114.16Zm0,4.87L96,114.16l1.81,2.47L96,119Zm3.58-4.87,1.77-2.47,1.74,2.47-1.74,2.4Z"/><path class="cls-1" d="M103.42,34.71l1.77-2.47,1.74,2.47-1.74,2.4Zm3.51-4.87,1.81-2.47,1.74,2.47-1.74,2.4Zm0,4.87,1.81-2.47,1.74,2.47-1.74,2.4Zm0,4.87,1.81-2.47,1.74,2.47L108.74,42ZM110.48,25l1.77-2.47L114,25l-1.74,2.39Zm0,4.86,1.77-2.47L114,29.84l-1.74,2.4Zm0,4.87,1.77-2.47L114,34.71l-1.74,2.4Zm0,4.87,1.77-2.47L114,39.58,112.25,42Zm0,4.87L112.25,42,114,44.45l-1.74,2.4ZM114,29.84l1.77-2.47,1.81,2.47-1.81,2.4Zm0,4.87,1.77-2.47,1.81,2.47-1.81,2.4Zm0,4.87,1.77-2.47,1.81,2.47L115.76,42Zm3.58-4.87,1.77-2.47,1.74,2.47-1.74,2.4Z"/><path class="cls-1" d="M103.42,86.08l1.77-2.47,1.74,2.47-1.74,2.39Zm3.51-4.87,1.81-2.47,1.74,2.47-1.74,2.4Zm0,4.87,1.81-2.47,1.74,2.47-1.74,2.39Zm0,4.86,1.81-2.47,1.74,2.47-1.74,2.4Zm3.55-14.6,1.77-2.47L114,76.34l-1.74,2.4Zm0,4.87,1.77-2.47L114,81.21l-1.74,2.4Zm0,4.87,1.77-2.47L114,86.08l-1.74,2.39Zm0,4.86,1.77-2.47L114,90.94l-1.74,2.4Zm0,4.87,1.77-2.47L114,95.81l-1.74,2.4ZM114,81.21l1.77-2.47,1.81,2.47-1.81,2.4Zm0,4.87,1.77-2.47,1.81,2.47-1.81,2.39Zm0,4.86,1.77-2.47,1.81,2.47-1.81,2.4Zm3.58-4.86,1.77-2.47,1.74,2.47-1.74,2.39Z"/><path class="cls-1" d="M123.16,34.71l1.77-2.47,1.74,2.47-1.74,2.4Zm3.51-4.87,1.81-2.47,1.74,2.47-1.74,2.4Zm0,4.87,1.81-2.47,1.74,2.47-1.74,2.4Zm0,4.87,1.81-2.47,1.74,2.47L128.48,42ZM130.22,25,132,22.51,133.73,25,132,27.37Zm0,4.86L132,27.37l1.74,2.47L132,32.24Zm0,4.87L132,32.24l1.74,2.47L132,37.11Zm0,4.87L132,37.11l1.74,2.47L132,42Zm0,4.87L132,42l1.74,2.47L132,46.85Zm3.51-14.61,1.77-2.47,1.81,2.47-1.81,2.4Zm0,4.87,1.77-2.47,1.81,2.47-1.81,2.4Zm0,4.87,1.77-2.47,1.81,2.47L135.5,42Zm3.58-4.87,1.77-2.47,1.74,2.47-1.74,2.4Z"/><path class="cls-1" d="M123.16,60.39l1.77-2.47,1.74,2.47-1.74,2.4Zm3.51-4.86,1.81-2.47,1.74,2.47-1.74,2.39Zm0,4.86,1.81-2.47,1.74,2.47-1.74,2.4Zm0,4.87,1.81-2.47,1.74,2.47-1.74,2.4Zm3.55-14.6L132,48.19l1.74,2.47L132,53.06Zm0,4.87L132,53.06l1.74,2.47L132,57.92Zm0,4.86L132,57.92l1.74,2.47L132,62.79Zm0,4.87L132,62.79l1.74,2.47L132,67.66Zm0,4.87L132,67.66l1.74,2.47L132,72.53Zm3.51-14.6,1.77-2.47,1.81,2.47-1.81,2.39Zm0,4.86,1.77-2.47,1.81,2.47-1.81,2.4Zm0,4.87,1.77-2.47,1.81,2.47-1.81,2.4Zm3.58-4.87,1.77-2.47,1.74,2.47-1.74,2.4Z"/><path class="cls-1" d="M123.16,86.08l1.77-2.47,1.74,2.47-1.74,2.39Zm3.51-4.87,1.81-2.47,1.74,2.47-1.74,2.4Zm0,4.87,1.81-2.47,1.74,2.47-1.74,2.39Zm0,4.86,1.81-2.47,1.74,2.47-1.74,2.4Zm3.55-14.6L132,73.87l1.74,2.47L132,78.74Zm0,4.87L132,78.74l1.74,2.47L132,83.61Zm0,4.87L132,83.61l1.74,2.47L132,88.47Zm0,4.86L132,88.47l1.74,2.47L132,93.34Zm0,4.87L132,93.34l1.74,2.47L132,98.21Zm3.51-14.6,1.77-2.47,1.81,2.47-1.81,2.4Zm0,4.87,1.77-2.47,1.81,2.47-1.81,2.39Zm0,4.86,1.77-2.47,1.81,2.47-1.81,2.4Zm3.58-4.86,1.77-2.47,1.74,2.47-1.74,2.39Z"/><path class="cls-1" d="M123.16,111.76l1.77-2.47,1.74,2.47-1.74,2.4Zm3.51-4.87,1.81-2.47,1.74,2.47-1.74,2.4Zm0,4.87,1.81-2.47,1.74,2.47-1.74,2.4Zm0,4.87,1.81-2.47,1.74,2.47L128.48,119ZM130.22,102,132,99.55l1.74,2.47-1.74,2.4Zm0,4.87,1.77-2.47,1.74,2.47-1.74,2.4Zm0,4.87,1.77-2.47,1.74,2.47-1.74,2.4Zm0,4.87,1.77-2.47,1.74,2.47L132,119Zm0,4.86L132,119l1.74,2.47-1.74,2.4Zm3.51-14.6,1.77-2.47,1.81,2.47-1.81,2.4Zm0,4.87,1.77-2.47,1.81,2.47-1.81,2.4Zm0,4.87,1.77-2.47,1.81,2.47L135.5,119Zm3.58-4.87,1.77-2.47,1.74,2.47-1.74,2.4Z"/><path class="cls-1" d="M154.79,34.71l1.77-2.47,1.74,2.47-1.74,2.4Zm3.51-4.87,1.81-2.47,1.74,2.47-1.74,2.4Zm0,4.87,1.81-2.47,1.74,2.47-1.74,2.4Zm0,4.87,1.81-2.47,1.74,2.47L160.11,42ZM161.85,25l1.77-2.47L165.36,25l-1.74,2.39Zm0,4.86,1.77-2.47,1.74,2.47-1.74,2.4Zm0,4.87,1.77-2.47,1.74,2.47-1.74,2.4Zm0,4.87,1.77-2.47,1.74,2.47L163.62,42Zm0,4.87L163.62,42l1.74,2.47-1.74,2.4Zm3.51-14.61,1.77-2.47,1.81,2.47-1.81,2.4Zm0,4.87,1.77-2.47,1.81,2.47-1.81,2.4Zm0,4.87,1.77-2.47,1.81,2.47L167.13,42Zm3.58-4.87,1.77-2.47,1.74,2.47-1.74,2.4Z"/><path class="cls-1" d="M154.79,60.39l1.77-2.47,1.74,2.47-1.74,2.4Zm3.51-4.86,1.81-2.47,1.74,2.47-1.74,2.39Zm0,4.86,1.81-2.47,1.74,2.47-1.74,2.4Zm0,4.87,1.81-2.47,1.74,2.47-1.74,2.4Zm3.55-14.6,1.77-2.47,1.74,2.47-1.74,2.4Zm0,4.87,1.77-2.47,1.74,2.47-1.74,2.39Zm0,4.86,1.77-2.47,1.74,2.47-1.74,2.4Zm0,4.87,1.77-2.47,1.74,2.47-1.74,2.4Zm0,4.87,1.77-2.47,1.74,2.47-1.74,2.4Zm3.51-14.6,1.77-2.47,1.81,2.47-1.81,2.39Zm0,4.86,1.77-2.47,1.81,2.47-1.81,2.4Zm0,4.87,1.77-2.47,1.81,2.47-1.81,2.4Zm3.58-4.87,1.77-2.47,1.74,2.47-1.74,2.4Z"/><path class="cls-1" d="M154.79,86.08l1.77-2.47,1.74,2.47-1.74,2.39Zm3.51-4.87,1.81-2.47,1.74,2.47-1.74,2.4Zm0,4.87,1.81-2.47,1.74,2.47-1.74,2.39Zm0,4.86,1.81-2.47,1.74,2.47-1.74,2.4Zm3.55-14.6,1.77-2.47,1.74,2.47-1.74,2.4Zm0,4.87,1.77-2.47,1.74,2.47-1.74,2.4Zm0,4.87,1.77-2.47,1.74,2.47-1.74,2.39Zm0,4.86,1.77-2.47,1.74,2.47-1.74,2.4Zm0,4.87,1.77-2.47,1.74,2.47-1.74,2.4Zm3.51-14.6,1.77-2.47,1.81,2.47-1.81,2.4Zm0,4.87,1.77-2.47,1.81,2.47-1.81,2.39Zm0,4.86,1.77-2.47,1.81,2.47-1.81,2.4Zm3.58-4.86,1.77-2.47,1.74,2.47-1.74,2.39Z"/><path class="cls-1" d="M154.79,111.76l1.77-2.47,1.74,2.47-1.74,2.4Zm3.51-4.87,1.81-2.47,1.74,2.47-1.74,2.4Zm0,4.87,1.81-2.47,1.74,2.47-1.74,2.4Zm0,4.87,1.81-2.47,1.74,2.47L160.11,119ZM161.85,102l1.77-2.47,1.74,2.47-1.74,2.4Zm0,4.87,1.77-2.47,1.74,2.47-1.74,2.4Zm0,4.87,1.77-2.47,1.74,2.47-1.74,2.4Zm0,4.87,1.77-2.47,1.74,2.47L163.62,119Zm0,4.86,1.77-2.47,1.74,2.47-1.74,2.4Zm3.51-14.6,1.77-2.47,1.81,2.47-1.81,2.4Zm0,4.87,1.77-2.47,1.81,2.47-1.81,2.4Zm0,4.87,1.77-2.47,1.81,2.47L167.13,119Zm3.58-4.87,1.77-2.47,1.74,2.47-1.74,2.4Z"/><path class="cls-1" d="M194.3,34.71l1.78-2.47,1.74,2.47-1.74,2.4Zm3.52-4.87,1.8-2.47,1.74,2.47-1.74,2.4Zm0,4.87,1.8-2.47,1.74,2.47-1.74,2.4Zm0,4.87,1.8-2.47,1.74,2.47L199.62,42ZM201.36,25l1.78-2.47L204.88,25l-1.74,2.39Zm0,4.86,1.78-2.47,1.74,2.47-1.74,2.4Zm0,4.87,1.78-2.47,1.74,2.47-1.74,2.4Zm0,4.87,1.78-2.47,1.74,2.47L203.14,42Zm0,4.87L203.14,42l1.74,2.47-1.74,2.4Zm3.52-14.61,1.77-2.47,1.81,2.47-1.81,2.4Zm0,4.87,1.77-2.47,1.81,2.47-1.81,2.4Zm0,4.87,1.77-2.47,1.81,2.47L206.65,42Zm3.58-4.87,1.77-2.47L212,34.71l-1.74,2.4Z"/><path class="cls-1" d="M194.3,60.39l1.78-2.47,1.74,2.47-1.74,2.4Zm3.52-4.86,1.8-2.47,1.74,2.47-1.74,2.39Zm0,4.86,1.8-2.47,1.74,2.47-1.74,2.4Zm0,4.87,1.8-2.47,1.74,2.47-1.74,2.4Zm3.54-14.6,1.78-2.47,1.74,2.47-1.74,2.4Zm0,4.87,1.78-2.47,1.74,2.47-1.74,2.39Zm0,4.86,1.78-2.47,1.74,2.47-1.74,2.4Zm0,4.87,1.78-2.47,1.74,2.47-1.74,2.4Zm0,4.87,1.78-2.47,1.74,2.47-1.74,2.4Zm3.52-14.6,1.77-2.47,1.81,2.47-1.81,2.39Zm0,4.86,1.77-2.47,1.81,2.47-1.81,2.4Zm0,4.87,1.77-2.47,1.81,2.47-1.81,2.4Zm3.58-4.87,1.77-2.47L212,60.39l-1.74,2.4Z"/><path class="cls-1" d="M194.3,86.08l1.78-2.47,1.74,2.47-1.74,2.39Zm3.52-4.87,1.8-2.47,1.74,2.47-1.74,2.4Zm0,4.87,1.8-2.47,1.74,2.47-1.74,2.39Zm0,4.86,1.8-2.47,1.74,2.47-1.74,2.4Zm3.54-14.6,1.78-2.47,1.74,2.47-1.74,2.4Zm0,4.87,1.78-2.47,1.74,2.47-1.74,2.4Zm0,4.87,1.78-2.47,1.74,2.47-1.74,2.39Zm0,4.86,1.78-2.47,1.74,2.47-1.74,2.4Zm0,4.87,1.78-2.47,1.74,2.47-1.74,2.4Zm3.52-14.6,1.77-2.47,1.81,2.47-1.81,2.4Zm0,4.87,1.77-2.47,1.81,2.47-1.81,2.39Zm0,4.86,1.77-2.47,1.81,2.47-1.81,2.4Zm3.58-4.86,1.77-2.47L212,86.08l-1.74,2.39Z"/><path class="cls-1" d="M194.3,111.76l1.78-2.47,1.74,2.47-1.74,2.4Zm3.52-4.87,1.8-2.47,1.74,2.47-1.74,2.4Zm0,4.87,1.8-2.47,1.74,2.47-1.74,2.4Zm0,4.87,1.8-2.47,1.74,2.47L199.62,119ZM201.36,102l1.78-2.47,1.74,2.47-1.74,2.4Zm0,4.87,1.78-2.47,1.74,2.47-1.74,2.4Zm0,4.87,1.78-2.47,1.74,2.47-1.74,2.4Zm0,4.87,1.78-2.47,1.74,2.47L203.14,119Zm0,4.86,1.78-2.47,1.74,2.47-1.74,2.4Zm3.52-14.6,1.77-2.47,1.81,2.47-1.81,2.4Zm0,4.87,1.77-2.47,1.81,2.47-1.81,2.4Zm0,4.87,1.77-2.47,1.81,2.47L206.65,119Zm3.58-4.87,1.77-2.47,1.74,2.47-1.74,2.4Z"/><path class="cls-1" d="M174.53,111.76l1.77-2.47,1.74,2.47-1.74,2.4Zm3.51-4.87,1.81-2.47,1.74,2.47-1.74,2.4Zm0,4.87,1.81-2.47,1.74,2.47-1.74,2.4Zm0,4.87,1.81-2.47,1.74,2.47L179.85,119ZM181.59,102l1.77-2.47L185.1,102l-1.74,2.4Zm0,4.87,1.77-2.47,1.74,2.47-1.74,2.4Zm0,4.87,1.77-2.47,1.74,2.47-1.74,2.4Zm0,4.87,1.77-2.47,1.74,2.47L183.36,119Zm0,4.86,1.77-2.47,1.74,2.47-1.74,2.4Zm3.51-14.6,1.77-2.47,1.81,2.47-1.81,2.4Zm0,4.87,1.77-2.47,1.81,2.47-1.81,2.4Zm0,4.87,1.77-2.47,1.81,2.47L186.87,119Zm3.58-4.87,1.77-2.47,1.74,2.47-1.74,2.4Z"/><path class="cls-1" d="M14.86,34.7l1.77-2.47,1.74,2.47-1.74,2.39Zm3.51-4.87,1.81-2.47,1.74,2.47-1.74,2.4Zm0,4.87,1.81-2.47,1.74,2.47-1.74,2.39Zm0,4.86,1.81-2.47,1.74,2.47L20.18,42ZM21.92,25l1.77-2.47L25.43,25l-1.74,2.4Zm0,4.87,1.77-2.47,1.74,2.47-1.74,2.4Zm0,4.87,1.77-2.47,1.74,2.47-1.74,2.39Zm0,4.86,1.77-2.47,1.74,2.47L23.69,42Zm0,4.87L23.69,42l1.74,2.47-1.74,2.4Zm3.51-14.6,1.77-2.47L29,29.83l-1.81,2.4Zm0,4.87,1.77-2.47L29,34.7,27.2,37.09Zm0,4.86,1.77-2.47L29,39.56,27.2,42ZM29,34.7l1.77-2.47,1.74,2.47-1.74,2.39Z"/><path class="cls-1" d="M52.08,34.71l1.77-2.47,1.74,2.47-1.74,2.4Zm3.51-4.87,1.81-2.47,1.74,2.47-1.74,2.4Zm0,4.87,1.81-2.47,1.74,2.47-1.74,2.4Zm0,4.87,1.81-2.47,1.74,2.47L57.4,42ZM59.14,25l1.77-2.47L62.65,25l-1.74,2.39Zm0,4.86,1.77-2.47,1.74,2.47-1.74,2.4Zm0,4.87,1.77-2.47,1.74,2.47-1.74,2.4Zm0,4.87,1.77-2.47,1.74,2.47L60.91,42Zm0,4.87L60.91,42l1.74,2.47-1.74,2.4Zm3.51-14.61,1.77-2.47,1.81,2.47-1.81,2.4Zm0,4.87,1.77-2.47,1.81,2.47-1.81,2.4Zm0,4.87,1.77-2.47,1.81,2.47L64.42,42Zm3.58-4.87L68,32.24l1.73,2.47L68,37.11Z"/><path class="cls-1" d="M14.87,60.37l1.78-2.47,1.74,2.47-1.74,2.39Zm3.52-4.87L20.19,53l1.74,2.47-1.74,2.4Zm0,4.87,1.8-2.47,1.74,2.47-1.74,2.39Zm0,4.86,1.8-2.47,1.74,2.47-1.74,2.4Zm3.54-14.6,1.78-2.47,1.74,2.47L23.71,53Zm0,4.87L23.71,53l1.74,2.47-1.74,2.4Zm0,4.87,1.78-2.47,1.74,2.47-1.74,2.39Zm0,4.86,1.78-2.47,1.74,2.47-1.74,2.4Zm0,4.87,1.78-2.47,1.74,2.47-1.74,2.4Zm3.52-14.6L27.22,53,29,55.5l-1.81,2.4Zm0,4.87,1.77-2.47L29,60.37l-1.81,2.39Zm0,4.86,1.77-2.47L29,65.23l-1.81,2.4ZM29,60.37,30.8,57.9l1.74,2.47L30.8,62.76Z"/><path class="cls-1" d="M33.47,60.39l1.77-2.47L37,60.39l-1.74,2.4ZM37,55.53l1.81-2.47,1.74,2.47-1.74,2.39Zm0,4.86,1.81-2.47,1.74,2.47-1.74,2.4Zm0,4.87,1.81-2.47,1.74,2.47-1.74,2.4Zm3.55-14.6,1.77-2.47L44,50.66l-1.74,2.4Zm0,4.87,1.77-2.47L44,55.53,42.3,57.92Zm0,4.86,1.77-2.47L44,60.39l-1.74,2.4Zm0,4.87,1.77-2.47L44,65.26l-1.74,2.4Zm0,4.87,1.77-2.47L44,70.13l-1.74,2.4ZM44,55.53l1.78-2.47,1.8,2.47-1.8,2.39Zm0,4.86,1.78-2.47,1.8,2.47-1.8,2.4Zm0,4.87,1.78-2.47,1.8,2.47-1.8,2.4Zm3.58-4.87,1.78-2.47,1.74,2.47-1.74,2.4Z"/><path class="cls-1" d="M42.73,47.55l1.77-2.47,1.74,2.47L44.5,50Zm3.51-4.87,1.81-2.47,1.74,2.47-1.74,2.4Zm0,4.87,1.81-2.47,1.74,2.47L48.05,50Zm0,4.87L48.05,50l1.74,2.47-1.74,2.4Zm3.55-14.61,1.77-2.47,1.74,2.47-1.74,2.4Zm0,4.87,1.77-2.47,1.74,2.47-1.74,2.4Zm0,4.87,1.77-2.47,1.74,2.47L51.56,50Zm0,4.87L51.56,50l1.74,2.47-1.74,2.4Zm0,4.86,1.77-2.46,1.74,2.46-1.74,2.4Zm3.51-14.6,1.77-2.47,1.81,2.47-1.81,2.4Zm0,4.87,1.77-2.47,1.81,2.47L55.07,50Zm0,4.87L55.07,50l1.81,2.47-1.81,2.4Zm3.58-4.87,1.78-2.47,1.73,2.47L58.66,50Z"/><path class="cls-1" d="M14.84,86.08l1.77-2.47,1.74,2.47-1.74,2.39Zm3.51-4.87,1.81-2.47,1.74,2.47-1.74,2.4Zm0,4.87,1.81-2.47,1.74,2.47-1.74,2.39Zm0,4.86,1.81-2.47,1.74,2.47-1.74,2.4Zm3.55-14.6,1.77-2.47,1.74,2.47-1.74,2.4Zm0,4.87,1.77-2.47,1.74,2.47-1.74,2.4Zm0,4.87,1.77-2.47,1.74,2.47-1.74,2.39Zm0,4.86,1.77-2.47,1.74,2.47-1.74,2.4Zm0,4.87,1.77-2.47,1.74,2.47-1.74,2.4Zm3.51-14.6,1.77-2.47L29,81.21l-1.81,2.4Zm0,4.87,1.77-2.47L29,86.08l-1.81,2.39Zm0,4.86,1.77-2.47L29,90.94l-1.81,2.4ZM29,86.08l1.78-2.47,1.74,2.47-1.74,2.39Z"/><path class="cls-1" d="M33.47,86.08l1.77-2.47L37,86.08l-1.74,2.39ZM37,81.21l1.81-2.47,1.74,2.47-1.74,2.4Zm0,4.87,1.81-2.47,1.74,2.47-1.74,2.39Zm0,4.86,1.81-2.47,1.74,2.47-1.74,2.4Zm3.55-14.6,1.77-2.47L44,76.34l-1.74,2.4Zm0,4.87,1.77-2.47L44,81.21l-1.74,2.4Zm0,4.87,1.77-2.47L44,86.08,42.3,88.47Zm0,4.86,1.77-2.47L44,90.94l-1.74,2.4Zm0,4.87,1.77-2.47L44,95.81l-1.74,2.4ZM44,81.21l1.78-2.47,1.8,2.47-1.8,2.4Zm0,4.87,1.78-2.47,1.8,2.47-1.8,2.39Zm0,4.86,1.78-2.47,1.8,2.47-1.8,2.4Zm3.58-4.86,1.78-2.47,1.74,2.47L49.4,88.47Z"/><path class="cls-1" d="M42.75,98.89l1.77-2.47,1.74,2.47-1.74,2.4ZM46.26,94l1.81-2.47L49.8,94l-1.73,2.4Zm0,4.87,1.81-2.47,1.73,2.47-1.73,2.4Zm0,4.87,1.81-2.47,1.73,2.47-1.73,2.4ZM49.8,89.15l1.78-2.47,1.74,2.47-1.74,2.4Zm0,4.87,1.78-2.47L53.32,94l-1.74,2.4Zm0,4.87,1.78-2.47,1.74,2.47-1.74,2.4Zm0,4.87,1.78-2.47,1.74,2.47-1.74,2.4Zm0,4.86,1.78-2.46,1.74,2.46L51.58,111ZM53.32,94l1.77-2.47L56.9,94l-1.81,2.4Zm0,4.87,1.77-2.47,1.81,2.47-1.81,2.4Zm0,4.87,1.77-2.47,1.81,2.47-1.81,2.4Zm3.58-4.87,1.77-2.47,1.74,2.47-1.74,2.4Z"/><path class="cls-1" d="M24.16,73.23l1.77-2.46,1.74,2.46-1.74,2.4Zm3.51-4.86,1.81-2.47,1.73,2.47-1.73,2.4Zm0,4.86,1.81-2.46,1.73,2.46-1.73,2.4Zm0,4.87,1.81-2.47,1.73,2.47-1.73,2.4Zm3.54-14.6L33,61l1.74,2.47L33,65.9Zm0,4.87L33,65.9l1.74,2.47L33,70.77Zm0,4.86L33,70.77l1.74,2.46L33,75.63Zm0,4.87L33,75.63l1.74,2.47L33,80.5Zm0,4.87L33,80.5,34.73,83,33,85.37Zm3.52-14.6L36.5,65.9l1.81,2.47-1.81,2.4Zm0,4.86,1.77-2.46,1.81,2.46-1.81,2.4Zm0,4.87,1.77-2.47,1.81,2.47L36.5,80.5Zm3.58-4.87,1.77-2.46,1.74,2.46-1.74,2.4Z"/><path class="cls-1" d="M14.84,111.76l1.77-2.47,1.74,2.47-1.74,2.4Zm3.51-4.87,1.81-2.47,1.74,2.47-1.74,2.4Zm0,4.87,1.81-2.47,1.74,2.47-1.74,2.4Zm0,4.87,1.81-2.47,1.74,2.47L20.16,119ZM21.9,102l1.77-2.47L25.41,102l-1.74,2.4Zm0,4.87,1.77-2.47,1.74,2.47-1.74,2.4Zm0,4.87,1.77-2.47,1.74,2.47-1.74,2.4Zm0,4.87,1.77-2.47,1.74,2.47L23.67,119Zm0,4.86L23.67,119l1.74,2.47-1.74,2.4Zm3.51-14.6,1.77-2.47L29,106.89l-1.81,2.4Zm0,4.87,1.77-2.47L29,111.76l-1.81,2.4Zm0,4.87,1.77-2.47L29,116.63,27.18,119ZM29,111.76l1.78-2.47,1.74,2.47-1.74,2.4Z"/><path class="cls-1" d="M52.06,111.76l1.78-2.47,1.73,2.47-1.73,2.4Zm3.51-4.87,1.81-2.47,1.74,2.47-1.74,2.4Zm0,4.87,1.81-2.47,1.74,2.47-1.74,2.4Zm0,4.87,1.81-2.47,1.74,2.47L57.38,119ZM59.12,102l1.77-2.47L62.63,102l-1.74,2.4Zm0,4.87,1.77-2.47,1.74,2.47-1.74,2.4Zm0,4.87,1.77-2.47,1.74,2.47-1.74,2.4Zm0,4.87,1.77-2.47,1.74,2.47L60.89,119Zm0,4.86L60.89,119l1.74,2.47-1.74,2.4Zm3.51-14.6,1.78-2.47,1.81,2.47-1.81,2.4Zm0,4.87,1.78-2.47,1.81,2.47-1.81,2.4Zm0,4.87,1.78-2.47,1.81,2.47L64.41,119Zm3.59-4.87L68,109.29l1.74,2.47L68,114.16Z"/><path class="cls-1" d="M294.77,34.71l1.77-2.47,1.74,2.47-1.74,2.4Zm3.51-4.87,1.81-2.47,1.74,2.47-1.74,2.4Zm0,4.87,1.81-2.47,1.74,2.47-1.74,2.4Zm0,4.87,1.81-2.47,1.74,2.47L300.09,42ZM301.83,25l1.77-2.47L305.34,25l-1.74,2.39Zm0,4.86,1.77-2.47,1.74,2.47-1.74,2.4Zm0,4.87,1.77-2.47,1.74,2.47-1.74,2.4Zm0,4.87,1.77-2.47,1.74,2.47L303.6,42Zm0,4.87L303.6,42l1.74,2.47-1.74,2.4Zm3.51-14.61,1.77-2.47,1.81,2.47-1.81,2.4Zm0,4.87,1.77-2.47,1.81,2.47-1.81,2.4Zm0,4.87,1.77-2.47,1.81,2.47L307.11,42Zm3.58-4.87,1.78-2.47,1.74,2.47-1.74,2.4Z"/><path class="cls-1" d="M294.77,60.39l1.77-2.47,1.74,2.47-1.74,2.4Zm3.51-4.86,1.81-2.47,1.74,2.47-1.74,2.39Zm0,4.86,1.81-2.47,1.74,2.47-1.74,2.4Zm0,4.87,1.81-2.47,1.74,2.47-1.74,2.4Zm3.55-14.6,1.77-2.47,1.74,2.47-1.74,2.4Zm0,4.87,1.77-2.47,1.74,2.47-1.74,2.39Zm0,4.86,1.77-2.47,1.74,2.47-1.74,2.4Zm0,4.87,1.77-2.47,1.74,2.47-1.74,2.4Zm0,4.87,1.77-2.47,1.74,2.47-1.74,2.4Zm3.51-14.6,1.77-2.47,1.81,2.47-1.81,2.39Zm0,4.86,1.77-2.47,1.81,2.47-1.81,2.4Zm0,4.87,1.77-2.47,1.81,2.47-1.81,2.4Zm3.58-4.87,1.78-2.47,1.74,2.47-1.74,2.4Z"/><path class="cls-1" d="M294.77,86.08l1.77-2.47,1.74,2.47-1.74,2.39Zm3.51-4.87,1.81-2.47,1.74,2.47-1.74,2.4Zm0,4.87,1.81-2.47,1.74,2.47-1.74,2.39Zm0,4.86,1.81-2.47,1.74,2.47-1.74,2.4Zm3.55-14.6,1.77-2.47,1.74,2.47-1.74,2.4Zm0,4.87,1.77-2.47,1.74,2.47-1.74,2.4Zm0,4.87,1.77-2.47,1.74,2.47-1.74,2.39Zm0,4.86,1.77-2.47,1.74,2.47-1.74,2.4Zm0,4.87,1.77-2.47,1.74,2.47-1.74,2.4Zm3.51-14.6,1.77-2.47,1.81,2.47-1.81,2.4Zm0,4.87,1.77-2.47,1.81,2.47-1.81,2.39Zm0,4.86,1.77-2.47,1.81,2.47-1.81,2.4Zm3.58-4.86,1.78-2.47,1.74,2.47-1.74,2.39Z"/><path class="cls-1" d="M294.77,111.76l1.77-2.47,1.74,2.47-1.74,2.4Zm3.51-4.87,1.81-2.47,1.74,2.47-1.74,2.4Zm0,4.87,1.81-2.47,1.74,2.47-1.74,2.4Zm0,4.87,1.81-2.47,1.74,2.47L300.09,119ZM301.83,102l1.77-2.47,1.74,2.47-1.74,2.4Zm0,4.87,1.77-2.47,1.74,2.47-1.74,2.4Zm0,4.87,1.77-2.47,1.74,2.47-1.74,2.4Zm0,4.87,1.77-2.47,1.74,2.47L303.6,119Zm0,4.86L303.6,119l1.74,2.47-1.74,2.4Zm3.51-14.6,1.77-2.47,1.81,2.47-1.81,2.4Zm0,4.87,1.77-2.47,1.81,2.47-1.81,2.4Zm0,4.87,1.77-2.47,1.81,2.47L307.11,119Zm3.58-4.87,1.78-2.47,1.74,2.47-1.74,2.4Z"/><path class="cls-1" d="M314.51,34.71l1.77-2.47L318,34.71l-1.74,2.4ZM318,29.84l1.81-2.47,1.74,2.47-1.74,2.4Zm0,4.87,1.81-2.47,1.74,2.47-1.74,2.4Zm0,4.87,1.81-2.47,1.74,2.47L319.83,42ZM321.57,25l1.77-2.47L325.08,25l-1.74,2.39Zm0,4.86,1.77-2.47,1.74,2.47-1.74,2.4Zm0,4.87,1.77-2.47,1.74,2.47-1.74,2.4Zm0,4.87,1.77-2.47,1.74,2.47L323.34,42Zm0,4.87L323.34,42l1.74,2.47-1.74,2.4Zm3.51-14.61,1.78-2.47,1.8,2.47-1.8,2.4Zm0,4.87,1.78-2.47,1.8,2.47-1.8,2.4Zm0,4.87,1.78-2.47,1.8,2.47-1.8,2.4Zm3.58-4.87,1.78-2.47,1.74,2.47-1.74,2.4Z"/><path class="cls-1" d="M314.51,86.08l1.77-2.47L318,86.08l-1.74,2.39ZM318,81.21l1.81-2.47,1.74,2.47-1.74,2.4Zm0,4.87,1.81-2.47,1.74,2.47-1.74,2.39Zm0,4.86,1.81-2.47,1.74,2.47-1.74,2.4Zm3.55-14.6,1.77-2.47,1.74,2.47-1.74,2.4Zm0,4.87,1.77-2.47,1.74,2.47-1.74,2.4Zm0,4.87,1.77-2.47,1.74,2.47-1.74,2.39Zm0,4.86,1.77-2.47,1.74,2.47-1.74,2.4Zm0,4.87,1.77-2.47,1.74,2.47-1.74,2.4Zm3.51-14.6,1.78-2.47,1.8,2.47-1.8,2.4Zm0,4.87,1.78-2.47,1.8,2.47-1.8,2.39Zm0,4.86,1.78-2.47,1.8,2.47-1.8,2.4Zm3.58-4.86,1.78-2.47,1.74,2.47-1.74,2.39Z"/><path class="cls-1" d="M334.25,34.71,336,32.24l1.73,2.47L336,37.11Zm3.51-4.87,1.81-2.47,1.74,2.47-1.74,2.4Zm0,4.87,1.81-2.47,1.74,2.47-1.74,2.4Zm0,4.87,1.81-2.47,1.74,2.47L339.57,42ZM341.31,25l1.77-2.47L344.82,25l-1.74,2.39Zm0,4.86,1.77-2.47,1.74,2.47-1.74,2.4Zm0,4.87,1.77-2.47,1.74,2.47-1.74,2.4Zm0,4.87,1.77-2.47,1.74,2.47L343.08,42Zm0,4.87L343.08,42l1.74,2.47-1.74,2.4Zm3.51-14.61,1.78-2.47,1.8,2.47-1.8,2.4Zm0,4.87,1.78-2.47,1.8,2.47-1.8,2.4Zm0,4.87,1.78-2.47,1.8,2.47L346.6,42Zm3.58-4.87,1.78-2.47,1.74,2.47-1.74,2.4Z"/><path class="cls-1" d="M334.25,60.39,336,57.92l1.73,2.47L336,62.79Zm3.51-4.86,1.81-2.47,1.74,2.47-1.74,2.39Zm0,4.86,1.81-2.47,1.74,2.47-1.74,2.4Zm0,4.87,1.81-2.47,1.74,2.47-1.74,2.4Zm3.55-14.6,1.77-2.47,1.74,2.47-1.74,2.4Zm0,4.87,1.77-2.47,1.74,2.47-1.74,2.39Zm0,4.86,1.77-2.47,1.74,2.47-1.74,2.4Zm0,4.87,1.77-2.47,1.74,2.47-1.74,2.4Zm0,4.87,1.77-2.47,1.74,2.47-1.74,2.4Zm3.51-14.6,1.78-2.47,1.8,2.47-1.8,2.39Zm0,4.86,1.78-2.47,1.8,2.47-1.8,2.4Zm0,4.87,1.78-2.47,1.8,2.47-1.8,2.4Zm3.58-4.87,1.78-2.47,1.74,2.47-1.74,2.4Z"/><path class="cls-1" d="M334.25,86.08,336,83.61l1.73,2.47L336,88.47Zm3.51-4.87,1.81-2.47,1.74,2.47-1.74,2.4Zm0,4.87,1.81-2.47,1.74,2.47-1.74,2.39Zm0,4.86,1.81-2.47,1.74,2.47-1.74,2.4Zm3.55-14.6,1.77-2.47,1.74,2.47-1.74,2.4Zm0,4.87,1.77-2.47,1.74,2.47-1.74,2.4Zm0,4.87,1.77-2.47,1.74,2.47-1.74,2.39Zm0,4.86,1.77-2.47,1.74,2.47-1.74,2.4Zm0,4.87,1.77-2.47,1.74,2.47-1.74,2.4Zm3.51-14.6,1.78-2.47,1.8,2.47-1.8,2.4Zm0,4.87,1.78-2.47,1.8,2.47-1.8,2.39Zm0,4.86,1.78-2.47,1.8,2.47-1.8,2.4Zm3.58-4.86,1.78-2.47,1.74,2.47-1.74,2.39Z"/><path class="cls-1" d="M334.25,111.76l1.78-2.47,1.73,2.47-1.73,2.4Zm3.51-4.87,1.81-2.47,1.74,2.47-1.74,2.4Zm0,4.87,1.81-2.47,1.74,2.47-1.74,2.4Zm0,4.87,1.81-2.47,1.74,2.47L339.57,119ZM341.31,102l1.77-2.47,1.74,2.47-1.74,2.4Zm0,4.87,1.77-2.47,1.74,2.47-1.74,2.4Zm0,4.87,1.77-2.47,1.74,2.47-1.74,2.4Zm0,4.87,1.77-2.47,1.74,2.47L343.08,119Zm0,4.86,1.77-2.47,1.74,2.47-1.74,2.4Zm3.51-14.6,1.78-2.47,1.8,2.47-1.8,2.4Zm0,4.87,1.78-2.47,1.8,2.47-1.8,2.4Zm0,4.87,1.78-2.47,1.8,2.47L346.6,119Zm3.58-4.87,1.78-2.47,1.74,2.47-1.74,2.4Z"/><path class="cls-1" d="M226,34.7l1.77-2.47,1.74,2.47-1.74,2.39Zm3.51-4.87,1.81-2.47L233,29.83l-1.74,2.4Zm0,4.87,1.81-2.47L233,34.7l-1.74,2.39Zm0,4.86,1.81-2.47L233,39.56,231.27,42ZM233,25l1.77-2.47L236.52,25l-1.74,2.4Zm0,4.87,1.77-2.47,1.74,2.47-1.74,2.4Zm0,4.87,1.77-2.47,1.74,2.47-1.74,2.39Zm0,4.86,1.77-2.47,1.74,2.47L234.78,42Zm0,4.87L234.78,42l1.74,2.47-1.74,2.4Zm3.51-14.6,1.78-2.47,1.8,2.47-1.8,2.4Zm0,4.87,1.78-2.47,1.8,2.47-1.8,2.39Zm0,4.86,1.78-2.47,1.8,2.47L238.3,42Zm3.58-4.86,1.78-2.47,1.74,2.47-1.74,2.39Z"/><path class="cls-1" d="M263.17,34.71,265,32.24l1.74,2.47L265,37.11Zm3.52-4.87,1.8-2.47,1.74,2.47-1.74,2.4Zm0,4.87,1.8-2.47,1.74,2.47-1.74,2.4Zm0,4.87,1.8-2.47,1.74,2.47L268.49,42ZM270.23,25,272,22.51,273.75,25,272,27.37Zm0,4.86L272,27.37l1.74,2.47L272,32.24Zm0,4.87L272,32.24l1.74,2.47L272,37.11Zm0,4.87L272,37.11l1.74,2.47L272,42Zm0,4.87L272,42l1.74,2.47L272,46.85Zm3.52-14.61,1.77-2.47,1.81,2.47-1.81,2.4Zm0,4.87,1.77-2.47,1.81,2.47-1.81,2.4Zm0,4.87,1.77-2.47,1.81,2.47L275.52,42Zm3.58-4.87,1.77-2.47,1.74,2.47-1.74,2.4Z"/><path class="cls-1" d="M226,60.37l1.77-2.47,1.74,2.47-1.74,2.39Zm3.51-4.87L231.29,53,233,55.5l-1.74,2.4Zm0,4.87,1.81-2.47L233,60.37l-1.74,2.39Zm0,4.86,1.81-2.47L233,65.23l-1.74,2.4ZM233,50.63l1.77-2.47,1.74,2.47L234.8,53Zm0,4.87L234.8,53l1.74,2.47-1.74,2.4Zm0,4.87,1.77-2.47,1.74,2.47-1.74,2.39Zm0,4.86,1.77-2.47,1.74,2.47-1.74,2.4Zm0,4.87,1.77-2.47,1.74,2.47-1.74,2.4Zm3.51-14.6L238.31,53l1.81,2.47-1.81,2.4Zm0,4.87,1.77-2.47,1.81,2.47-1.81,2.39Zm0,4.86,1.77-2.47,1.81,2.47-1.81,2.4Zm3.58-4.86,1.78-2.47,1.73,2.47-1.73,2.39Z"/><path class="cls-1" d="M244.57,60.39l1.77-2.47,1.74,2.47-1.74,2.4Zm3.51-4.86,1.81-2.47,1.74,2.47-1.74,2.39Zm0,4.86,1.81-2.47,1.74,2.47-1.74,2.4Zm0,4.87,1.81-2.47,1.74,2.47-1.74,2.4Zm3.55-14.6,1.77-2.47,1.74,2.47-1.74,2.4Zm0,4.87,1.77-2.47,1.74,2.47-1.74,2.39Zm0,4.86,1.77-2.47,1.74,2.47-1.74,2.4Zm0,4.87,1.77-2.47,1.74,2.47-1.74,2.4Zm0,4.87,1.77-2.47,1.74,2.47-1.74,2.4Zm3.51-14.6,1.77-2.47,1.81,2.47-1.81,2.39Zm0,4.86,1.77-2.47,1.81,2.47-1.81,2.4Zm0,4.87,1.77-2.47,1.81,2.47-1.81,2.4Zm3.58-4.87,1.77-2.47,1.74,2.47-1.74,2.4Z"/><path class="cls-1" d="M253.82,47.55l1.78-2.47,1.74,2.47L255.6,50Zm3.52-4.87,1.8-2.47,1.74,2.47-1.74,2.4Zm0,4.87,1.8-2.47,1.74,2.47L259.14,50Zm0,4.87,1.8-2.47,1.74,2.47-1.74,2.4Zm3.54-14.61,1.78-2.47,1.73,2.47-1.73,2.4Zm0,4.87,1.78-2.47,1.73,2.47-1.73,2.4Zm0,4.87,1.78-2.47,1.73,2.47L262.66,50Zm0,4.87L262.66,50l1.73,2.47-1.73,2.4Zm0,4.86,1.78-2.46,1.73,2.46-1.73,2.4Zm3.51-14.6,1.78-2.47L268,42.68l-1.81,2.4Zm0,4.87,1.78-2.47L268,47.55,266.17,50Zm0,4.87L266.17,50,268,52.42l-1.81,2.4ZM268,47.55l1.77-2.47,1.74,2.47L269.75,50Z"/><path class="cls-1" d="M225.93,86.08l1.78-2.47,1.74,2.47-1.74,2.39Zm3.52-4.87,1.8-2.47L233,81.21l-1.74,2.4Zm0,4.87,1.8-2.47L233,86.08l-1.74,2.39Zm0,4.86,1.8-2.47L233,90.94l-1.74,2.4ZM233,76.34l1.78-2.47,1.74,2.47-1.74,2.4Zm0,4.87,1.78-2.47,1.74,2.47-1.74,2.4Zm0,4.87,1.78-2.47,1.74,2.47-1.74,2.39Zm0,4.86,1.78-2.47,1.74,2.47-1.74,2.4Zm0,4.87,1.78-2.47,1.74,2.47-1.74,2.4Zm3.52-14.6,1.77-2.47,1.81,2.47-1.81,2.4Zm0,4.87,1.77-2.47,1.81,2.47-1.81,2.39Zm0,4.86,1.77-2.47,1.81,2.47-1.81,2.4Zm3.58-4.86,1.77-2.47,1.74,2.47-1.74,2.39Z"/><path class="cls-1" d="M244.57,86.08l1.77-2.47,1.74,2.47-1.74,2.39Zm3.51-4.87,1.81-2.47,1.74,2.47-1.74,2.4Zm0,4.87,1.81-2.47,1.74,2.47-1.74,2.39Zm0,4.86,1.81-2.47,1.74,2.47-1.74,2.4Zm3.55-14.6,1.77-2.47,1.74,2.47-1.74,2.4Zm0,4.87,1.77-2.47,1.74,2.47-1.74,2.4Zm0,4.87,1.77-2.47,1.74,2.47-1.74,2.39Zm0,4.86,1.77-2.47,1.74,2.47-1.74,2.4Zm0,4.87,1.77-2.47,1.74,2.47-1.74,2.4Zm3.51-14.6,1.77-2.47,1.81,2.47-1.81,2.4Zm0,4.87,1.77-2.47,1.81,2.47-1.81,2.39Zm0,4.86,1.77-2.47,1.81,2.47-1.81,2.4Zm3.58-4.86,1.77-2.47,1.74,2.47-1.74,2.39Z"/><path class="cls-1" d="M253.84,98.89l1.77-2.47,1.74,2.47-1.74,2.4ZM257.35,94l1.81-2.47L260.9,94l-1.74,2.4Zm0,4.87,1.81-2.47,1.74,2.47-1.74,2.4Zm0,4.87,1.81-2.47,1.74,2.47-1.74,2.4Zm3.55-14.61,1.77-2.47,1.74,2.47-1.74,2.4Zm0,4.87,1.77-2.47L264.41,94l-1.74,2.4Zm0,4.87,1.77-2.47,1.74,2.47-1.74,2.4Zm0,4.87,1.77-2.47,1.74,2.47-1.74,2.4Zm0,4.86,1.77-2.46,1.74,2.46-1.74,2.4ZM264.41,94l1.78-2.47L268,94l-1.8,2.4Zm0,4.87,1.78-2.47,1.8,2.47-1.8,2.4Zm0,4.87,1.78-2.47,1.8,2.47-1.8,2.4ZM268,98.89l1.78-2.47,1.74,2.47-1.74,2.4Z"/><path class="cls-1" d="M235.25,73.23,237,70.77l1.74,2.46L237,75.63Zm3.51-4.86,1.81-2.47,1.74,2.47-1.74,2.4Zm0,4.86,1.81-2.46,1.74,2.46-1.74,2.4Zm0,4.87,1.81-2.47,1.74,2.47-1.74,2.4Zm3.55-14.6L244.08,61l1.74,2.47-1.74,2.4Zm0,4.87,1.77-2.47,1.74,2.47-1.74,2.4Zm0,4.86,1.77-2.46,1.74,2.46-1.74,2.4Zm0,4.87,1.77-2.47,1.74,2.47-1.74,2.4Zm0,4.87,1.77-2.47L245.82,83l-1.74,2.4Zm3.51-14.6,1.77-2.47,1.81,2.47-1.81,2.4Zm0,4.86,1.77-2.46,1.81,2.46-1.81,2.4Zm0,4.87,1.77-2.47,1.81,2.47-1.81,2.4Zm3.58-4.87,1.78-2.46,1.74,2.46-1.74,2.4Z"/><path class="cls-1" d="M225.93,111.76l1.78-2.47,1.74,2.47-1.74,2.4Zm3.52-4.87,1.8-2.47,1.74,2.47-1.74,2.4Zm0,4.87,1.8-2.47,1.74,2.47-1.74,2.4Zm0,4.87,1.8-2.47,1.74,2.47L231.25,119ZM233,102l1.78-2.47,1.74,2.47-1.74,2.4Zm0,4.87,1.78-2.47,1.74,2.47-1.74,2.4Zm0,4.87,1.78-2.47,1.74,2.47-1.74,2.4Zm0,4.87,1.78-2.47,1.74,2.47L234.77,119Zm0,4.86,1.78-2.47,1.74,2.47-1.74,2.4Zm3.52-14.6,1.77-2.47,1.81,2.47-1.81,2.4Zm0,4.87,1.77-2.47,1.81,2.47-1.81,2.4Zm0,4.87,1.77-2.47,1.81,2.47L238.28,119Zm3.58-4.87,1.77-2.47,1.74,2.47-1.74,2.4Z"/><path class="cls-1" d="M263.16,111.76l1.77-2.47,1.74,2.47-1.74,2.4Zm3.51-4.87,1.81-2.47,1.74,2.47-1.74,2.4Zm0,4.87,1.81-2.47,1.74,2.47-1.74,2.4Zm0,4.87,1.81-2.47,1.74,2.47L268.48,119ZM270.22,102,272,99.55l1.74,2.47-1.74,2.4Zm0,4.87,1.77-2.47,1.74,2.47-1.74,2.4Zm0,4.87,1.77-2.47,1.74,2.47-1.74,2.4Zm0,4.87,1.77-2.47,1.74,2.47L272,119Zm0,4.86L272,119l1.74,2.47-1.74,2.4Zm3.51-14.6,1.77-2.47,1.81,2.47-1.81,2.4Zm0,4.87,1.77-2.47,1.81,2.47-1.81,2.4Zm0,4.87,1.77-2.47,1.81,2.47L275.5,119Zm3.58-4.87,1.77-2.47,1.74,2.47-1.74,2.4Z"/><path class="cls-1" d="M379.28,92.8V90.87h-1.91V87h1.91V85.08H385V83.22h-5.74v-2H387v1.91h1.91V92.8ZM385,87h-3.79v3.81H385Z"/><path class="cls-1" d="M403.06,90.87V92.8h-5.77v-2h3.81V89h-1.9V87.06l-1.91,0V83.18h1.91V81.27H405v2h-3.84v1.89h1.91V87L405,87v3.88Z"/><path class="cls-1" d="M415.28,92.8V90.87h-1.9V87h1.9V85.08H421V83.22h-5.75v-2H423v1.91h1.91V92.8ZM421,87h-3.79v3.81H421Z"/><path class="cls-1" d="M448.6,92.8V83.22h-1.86v1.91h-1.93V92.8H441V83.22h-1.88v1.91h-1.91V92.8H433.3V81.27h3.86v1.91H439V81.27h3.86v1.91h3.78V81.27h3.86v1.91h1.92V92.8Z"/><path class="cls-1" d="M470.48,90.87V92.8h-9.61V77.43h3.86v3.84h5.75v1.91h1.91v7.69Zm-2-7.65h-3.8v7.63h3.8Z"/><path class="cls-1" d="M480.79,92.8V77.43h3.86V92.8Z"/><path class="cls-1" d="M502.65,90.87V92.8H495V90.87H493V83.18H495V81.27h7.7v1.91h1.91v1.95h-1.91V87h-3.84v1.9H496.9v1.91h5.7V88.9h2v2Zm-1.95-7.65h-3.8V87h1.89V85.11h1.91Z"/><path class="cls-1" d="M514.87,92.8V90.87H513V87h1.9V85.08h5.75V83.22h-5.75v-2h7.7v1.91h1.91V92.8ZM520.62,87h-3.79v3.81h3.79Z"/><path class="cls-1" d="M545.14,92.8V90.87h-1.91V83.18h1.91V81.27h5.74V77.43h3.86V92.8Zm5.74-9.58h-3.79v7.63h3.79Z"/><path class="cls-1" d="M572.76,90.87V92.8h-7.7V90.87h-1.91V83.18h1.91V81.27h7.7v1.91h1.9v1.95h-1.9V87h-3.84v1.9H567v1.91h5.7V88.9h1.95v2Zm-2-7.65H567V87h1.89V85.11h1.9Z"/><path class="cls-1" d="M608.72,92.8V83.22h-1.86v1.91h-1.93V92.8h-3.86V83.22h-1.89v1.91h-1.91V92.8h-3.86V81.27h3.86v1.91h1.89V81.27H603v1.91h3.79V81.27h3.85v1.91h1.93V92.8Z"/><path class="cls-1" d="M630.59,90.87V92.8H622.9V90.87H621v-9.6h3.86v9.58h3.79V81.27h3.86v9.6Z"/><path class="cls-1" d="M648.56,92.8V83.22h-1.88v1.91h-1.91V92.8h-3.86V81.27h3.86v1.91h1.89V81.27h3.86v1.91h1.9V92.8Z"/><path class="cls-1" d="M662.74,92.8V90.87h-1.91V83.18h1.91V81.27h5.75V77.43h3.86V92.8Zm5.75-9.58h-3.8v7.63h3.8Z"/><path class="cls-1" d="M690.36,90.87V92.8h-7.69V90.87h-1.91V83.18h1.91V81.27h7.69v1.91h1.91v7.69Zm-2-7.65h-3.79v7.63h3.79Z"/><path class="cls-1" d="M706.45,90.87V92.8h-5.77v-2h3.81V89h-1.9V87.06l-1.91,0V83.18h1.91V81.27h5.79v2h-3.84v1.89h1.91V87l1.93,0v3.88Z"/><path class="cls-1" d="M736.71,90.87V92.8H731v3.84h-3.86V81.27h9.6v1.91h1.91v7.69Zm-2-7.65H731v7.63h3.79Z"/><path class="cls-1" d="M756.63,90.87V92.8h-7.7V90.87H747V83.18h1.9V81.27h7.7v1.91h1.91v7.69Zm-2-7.65h-3.79v7.63h3.79Z"/><path class="cls-1" d="M772.72,90.87V92.8H767v-2h3.81V89h-1.9V87.06L767,87V83.18h1.91V81.27h5.79v2h-3.84v1.89h1.91V87l1.93,0v3.88Z"/><path class="cls-1" d="M783,79.38V77.43h3.86v1.95Zm0,13.42V81.27h3.86V92.8Z"/><path class="cls-1" d="M804.89,90.87V92.8h-9.61V77.43h3.86v3.84h5.75v1.91h1.91v7.69Zm-1.95-7.65h-3.8v7.63h3.8Z"/><path class="cls-1" d="M815.21,92.8V77.43h3.86V92.8Z"/><path class="cls-1" d="M837.06,90.87V92.8h-7.7V90.87h-1.91V83.18h1.91V81.27h7.7v1.91H839v1.95h-1.91V87h-3.84v1.9h-1.91v1.91H837V88.9h2v2Zm-1.95-7.65h-3.8V87h1.89V85.11h1.91Z"/><path class="cls-1" d="M853.14,90.87V92.8h-5.76v-2h3.81V89h-1.91V87.06l-1.9,0V83.18h1.9V81.27h5.79v2h-3.83v1.89h1.9V87l1.93,0v3.88Z"/><path class="cls-1" d="M384.67,120.82v3.07h-3.09v-3.07H377v-3.07h1.52v-3.08h1.56v3.1h-1.52v1.49h3V111.6h3.09v7.66h1.53v1.56Z"/><path class="cls-1" d="M397.53,116.23v3.07H396l0,4.59h-3.09v-4.63h1.53v-3.07H396v-3h-4.6V111.6h7.7v4.63Z"/><path class="cls-1" d="M418.68,122.35v1.54h-4.61v-1.56h3.05v-1.51h-1.53V119.3l-1.52,0v-3.09h1.52v-1.52h4.63v1.56h-3.07v1.51h1.53v1.52l1.54,0v3.11Z"/><path class="cls-1" d="M428.46,123.89v-1.54h-1.53v-3.11h1.53v-1.52h4.6v-1.49h-4.6v-1.56h6.16v1.52h1.52v7.7Zm4.6-4.61h-3v3h3Z"/><path class="cls-1" d="M442.87,123.89V111.6H446v12.29Z"/><path class="cls-1" d="M460.35,122.35v1.54H454.2v-1.54h-1.53v-6.16h1.53v-1.52h6.15v1.52h1.53v6.16Zm-3.07-10.72v1.53h-1.56V111.6h1.55v-1.53h1.56v1.56Zm1.51,4.6h-3v6.1h3Z"/><path class="cls-1" d="M474.73,123.89v-7.66h-1.51v1.52H471.7v6.14h-3.09v-9.22h3.09v1.52h1.5v-1.52h3.09v1.52h1.53v7.7Z"/><path class="cls-1" d="M498.94,123.89v-7.66h-1.51v1.52h-1.52v6.14h-3.09v-9.22h3.09v1.52h1.5v-1.52h3.09v1.52H502v7.7Z"/><path class="cls-1" d="M510.28,123.89v-1.54h-1.52v-3.11h1.52v-1.52h4.6v-1.49h-4.6v-1.56h6.16v1.52H518v7.7Zm4.6-4.61h-3v3h3Z"/><path class="cls-1" d="M530.85,122.35v1.54h-4.63v-1.54h-1.53v-6.16h1.53v-1.52h6.16v3.08h-1.56v-1.52h-3v6.1h3v-1.56h1.56v1.58Z"/><path class="cls-1" d="M539.09,113.16V111.6h3.09v1.56Zm0,10.73v-9.22h3.09v9.22Z"/><path class="cls-1" d="M556.57,122.35v1.54h-6.16v-1.54h-1.52v-6.16h1.52v-1.52h6.16v1.52h1.53v6.16ZM555,116.23h-3v6.1h3Z"/><path class="cls-1" d="M571,123.89v-7.66h-1.51v1.52h-1.53v6.14h-3.09v-9.22h3.09v1.52h1.51v-1.52h3.09v1.52H574v7.7Z"/><path class="cls-1" d="M582.29,123.89v-1.54h-1.53v-3.11h1.53v-1.52h4.59v-1.49h-4.59v-1.56h6.16v1.52H590v7.7Zm4.59-4.61h-3v3h3Z"/><path class="cls-1" d="M596.7,123.89V111.6h3.09v12.29Z"/><path class="cls-1" d="M616.3,123.89v-1.54h-1.53v-6.16h1.53v-1.52h4.59V111.6H624v12.29Zm4.59-7.66h-3v6.1h3Z"/><path class="cls-1" d="M638.39,122.35v1.54h-6.16v-1.54h-1.52v-6.16h1.52v-1.52h6.16v1.52h1.53v1.56h-1.53v1.53h-3.07v1.53H633.8v1.52h4.56v-1.56h1.56v1.58Zm-1.56-6.12h-3v3h1.5v-1.5h1.53Z"/><path class="cls-1" d="M656.44,123.89v-1.54h-1.52v-3.11h1.52v-1.52H661v-1.49h-4.6v-1.56h6.16v1.52h1.53v7.7Zm4.6-4.61h-3v3h3Z"/><path class="cls-1" d="M674,117.75v6.14h-3.09v-9.22H674v1.52h1.5v-1.52H677v3.08Z"/><path class="cls-1" d="M686.81,116.23v7.66h-3.09v-7.66h-1.54v-1.56h1.54V111.6h3.09v3.07h1.53v1.56Z"/><path class="cls-1" d="M693.52,113.16V111.6h3.09v1.56Zm0,10.73v-9.22h3.09v9.22Z"/><path class="cls-1" d="M707.94,122.35v1.54h-4.62v-1.56h3v-1.51h-1.52V119.3l-1.53,0v-3.09h1.53v-1.52h4.63v1.56h-3.07v1.51h1.53v1.52l1.54,0v3.11Z"/><path class="cls-1" d="M719.28,116.23v7.66h-3.09v-7.66h-1.54v-1.56h1.54V111.6h3.09v3.07h1.52v1.56Z"/><path class="cls-1" d="M727.51,123.89v-1.54H726v-3.11h1.52v-1.52h4.6v-1.49h-4.6v-1.56h6.16v1.52h1.53v7.7Zm4.6-4.61h-3v3h3Z"/><path class="cls-1" d="M746.54,122.35v1.54h-4.61v-1.56H745v-1.51h-1.53V119.3l-1.52,0v-3.09h1.52v-1.52h4.63v1.56H745v1.51h1.53v1.52l1.54,0v3.11Z"/></g></svg>