<svg xmlns="http://www.w3.org/2000/svg" viewBox="0 0 395.04 669.85"><defs><style>.cls-1{opacity:0.6;}.cls-2{fill:#b53426;}</style></defs><g id="Contenido"><g class="cls-1"><path class="cls-2" d="M197.49,532.56l19.19,13.78-19.19,13.51-18.65-13.51Zm37.84,27.29,19.19,14.06-20,13.78L217,573.91Zm-75.68,0,19.46,14.6L160.46,588,141,573.91Zm113.52,27.57,19.18,13.78-19.18,13.52L254.52,601.2Zm-151.35,0L141,601.2l-19.18,13.52L103.17,601.2Zm113.24,26.49,19.46,14.59-19.19,14-18.65-14Zm-74.6.27,18.92,13.51-19.73,14.86L141,628.5Zm37,28.37,19.19,13.79-19.19,13.51-18.65-13.51Z"/><path class="cls-2" d="M197.49,395.26,216.68,409l-19.19,13.52L178.84,409Zm37.84,27.3,19.19,14.05-20,13.78L217,436.61Zm-75.68,0,19.46,14.59-18.65,13.51L141,436.61Zm113.52,27.56,19.18,13.79-19.18,13.51-18.65-13.51Zm-151.35,0L141,463.91l-19.18,13.51-18.65-13.51Zm113.24,26.49,19.46,14.59-19.19,14.06L216.68,491.2Zm-74.6.27,18.92,13.51-19.73,14.87L141,491.2Zm37,28.38L216.68,519l-19.19,13.52L178.84,519Z"/><path class="cls-2" d="M197.49,258.53l19.19,13.79-19.19,13.51-18.65-13.51Zm37.84,27.3,19.19,14.05-20,13.79L217,299.88Zm-75.68,0,19.46,14.59-18.65,13.52L141,299.88ZM273.17,313.4l19.18,13.78-19.18,13.51-18.65-13.51Zm-151.35,0L141,327.18l-19.18,13.51-18.65-13.51Zm113.24,26.48,19.46,14.6-19.19,14-18.65-14Zm-74.6.27,18.92,13.52-19.73,14.86-18.65-14Zm37,28.38,19.19,13.78-19.19,13.52-18.65-13.52Z"/><path class="cls-2" d="M291.52,463.91l19.18,13.78L291.52,491.2l-18.65-13.51Zm37.83,27.29,19.19,14.06-20,13.78L311,505.26Zm-75.67,0,19.46,14.6-18.65,13.51-19.46-14Zm113.51,27.57,19.19,13.79-19.19,13.51-18.65-13.51Zm-151.35,0L235,532.56l-19.19,13.51-18.65-13.51Zm113.24,26.49,19.46,14.59-19.19,14.06L310.7,559.85Zm-74.59.27L273.41,559l-19.73,14.87L235,559.85Zm37,28.38,19.18,13.78L291.52,601.2l-18.65-13.51Z"/><path class="cls-2" d="M103.47,463.91l19.18,13.78L103.47,491.2,84.82,477.69ZM141.3,491.2l19.19,14.06-20,13.78-17.57-13.78Zm-75.67,0,19.46,14.6L66.44,519.31,47,505.26Zm113.51,27.57,19.19,13.79-19.19,13.51-18.65-13.51Zm-151.35,0L47,532.56,27.79,546.07,9.14,532.56ZM141,545.26l19.46,14.59L141.3,573.91l-18.65-14.06Zm-74.59.27L85.36,559,65.63,573.91,47,559.85Zm37,28.38,19.18,13.78L103.47,601.2,84.82,587.69Z"/><path class="cls-2" d="M291.52,326.92,310.7,340.7l-19.18,13.51L272.87,340.7Zm37.83,27.29,19.19,14.06-20,13.78L311,368.27Zm-75.67,0,19.46,14.6-18.65,13.51L235,368.27Zm113.51,27.57,19.19,13.78-19.19,13.52-18.65-13.52Zm-151.35,0L235,395.56l-19.19,13.52-18.65-13.52Zm113.24,26.49,19.46,14.59-19.19,14.06L310.7,422.86Zm-74.59.27,18.92,13.51-19.73,14.87L235,422.86Zm37,28.38L310.7,450.7l-19.18,13.51L272.87,450.7Z"/><path class="cls-2" d="M103.47,326.92l19.18,13.78-19.18,13.51L84.82,340.7Zm37.83,27.29,19.19,14.06-20,13.78-17.57-13.78Zm-75.67,0,19.46,14.6L66.44,382.32,47,368.27Zm113.51,27.57,19.19,13.78-19.19,13.52-18.65-13.52Zm-151.35,0L47,395.56,27.79,409.08,9.14,395.56ZM141,408.27l19.46,14.59L141.3,436.92l-18.65-14.06Zm-74.59.27,18.92,13.51L65.63,436.92,47,422.86Zm37,28.38,19.18,13.78-19.18,13.51L84.82,450.7Z"/><path class="cls-2" d="M263.27,210.46l13.43,9.65-13.43,9.46-13-9.46Zm26.49,19.11,13.43,9.84-14,9.64-12.3-9.64Zm-53,0,13.62,10.21-13.05,9.46-13.62-9.83Zm79.46,19.29,13.43,9.65L316.24,268l-13.05-9.46Zm-105.94,0,13.43,9.65L210.3,268l-13.06-9.46Zm79.27,18.55,13.62,10.21-13.43,9.84-13.06-9.84Zm-52.22.18,13.24,9.46-13.81,10.41-13.05-9.84Zm25.92,19.87,13.43,9.65-13.43,9.46-13-9.46Z"/><path class="cls-2" d="M328.64,258.21l13.43,9.65-13.43,9.46-13.06-9.46Zm26.48,19.11,13.44,9.83-14,9.65-12.3-9.65Zm-53,0,13.62,10.21-13,9.46-13.62-9.84Zm79.46,19.29L395,306.26l-13.43,9.46-13.05-9.46Zm-105.94,0,13.43,9.65-13.43,9.46-13.06-9.46Zm79.27,18.54,13.62,10.22-13.44,9.84-13.05-9.84Zm-52.22.19L316,324.8l-13.81,10.41-13-9.84Zm25.92,19.87,13.43,9.65-13.43,9.45-13.06-9.45Z"/><path class="cls-2" d="M132,210.46l13.44,9.65L132,229.57l-13.05-9.46Zm26.49,19.11,13.43,9.84-14,9.64-12.3-9.64Zm-53,0,13.62,10.21L106,249.24l-13.62-9.83Zm79.46,19.29,13.43,9.65L184.94,268l-13.06-9.46ZM79,248.86l13.43,9.65L79,268l-13-9.46Zm79.27,18.55,13.62,10.21-13.43,9.84-13-9.84Zm-52.22.18,13.25,9.46-13.81,10.41-13.06-9.84ZM132,287.46l13.44,9.65L132,306.57l-13.05-9.46Z"/><path class="cls-2" d="M66,258.21l13.43,9.65L66,277.32,53,267.86Zm26.48,19.11,13.43,9.83-14,9.65-12.29-9.65Zm-53,0,13.62,10.21-13,9.46-13.62-9.84ZM119,296.61l13.43,9.65L119,315.72l-13.06-9.46Zm-105.95,0,13.44,9.65-13.44,9.46L0,306.26Zm79.27,18.54,13.62,10.22-13.43,9.84-13.05-9.84Zm-52.21.19,13.24,9.46L39.54,335.21l-13-9.84ZM66,335.21l13.43,9.65L66,354.31,53,344.86Z"/><path class="cls-2" d="M275.78,124.06l13.43,9.65-13.43,9.46-13.06-9.46Zm26.48,19.11L315.69,153l-14,9.64L289.4,153Zm-53,0,13.62,10.21-13.05,9.46L236.23,153Zm79.46,19.29,13.43,9.65-13.43,9.46-13.06-9.46Zm-105.95,0,13.43,9.65-13.43,9.46-13.05-9.46ZM302.07,181l13.62,10.22-13.43,9.84-13.05-9.84Zm-52.21.19,13.24,9.46-13.81,10.41-13.06-9.84Zm25.92,19.87,13.43,9.65-13.43,9.46-13.06-9.46Z"/><path class="cls-2" d="M118.89,124.06l13.43,9.65-13.43,9.46-13-9.46Zm26.49,19.11L158.81,153l-14,9.64L132.51,153Zm-53,0L106,153.38l-13,9.46L79.35,153Zm79.46,19.29,13.43,9.65-13.43,9.46-13.05-9.46Zm-105.94,0,13.43,9.65-13.43,9.46-13.06-9.46ZM145.19,181l13.62,10.22-13.43,9.84-13.06-9.84ZM93,181.19l13.24,9.46L92.4,201.06l-13.05-9.84Zm25.92,19.87,13.43,9.65-13.43,9.46-13-9.46Z"/><path class="cls-2" d="M250.43,47.45l13.44,9.65-13.44,9.46L237.38,57.1Zm26.49,19.11,13.43,9.84-14,9.64L264.06,76.4Zm-53,0,13.62,10.21-13,9.46L210.89,76.4Zm79.46,19.29,13.43,9.65L303.41,105,290.35,95.5Zm-106,0,13.43,9.65L197.46,105,184.41,95.5Zm79.27,18.54,13.62,10.22-13.43,9.84-13.05-9.84Zm-52.21.19L237.76,114,224,124.45l-13.06-9.84Zm25.91,19.87,13.44,9.65-13.44,9.46-13.05-9.46Z"/><path class="cls-2" d="M144.71,47.45l13.43,9.65-13.43,9.46L131.65,57.1Zm26.48,19.11,13.44,9.84-14,9.64-12.3-9.64Zm-53,0,13.62,10.21-13,9.46L105.17,76.4Zm79.46,19.29,13.43,9.65L197.68,105,184.63,95.5Zm-105.94,0,13.43,9.65L91.74,105,78.68,95.5ZM171,104.39l13.63,10.22-13.44,9.84-13.05-9.84Zm-52.21.19L132,114l-13.81,10.41-13-9.84Zm25.92,19.87,13.43,9.65-13.43,9.46-13.06-9.46Z"/><path class="cls-2" d="M315.34,0l13.43,9.65-13.43,9.46-13-9.46Zm26.49,19.11L355.26,29l-14,9.64L329,29Zm-53,0,13.62,10.21-13.05,9.46L275.8,29Zm79.46,19.3,13.43,9.64-13.43,9.46-13.05-9.46Zm-105.94,0,13.43,9.64-13.43,9.46-13.06-9.46ZM341.64,57l13.62,10.21L341.83,77l-13.06-9.84Zm-52.22.18,13.24,9.46L288.85,77,275.8,67.16ZM315.34,77l13.43,9.65-13.43,9.46-13-9.46Z"/><path class="cls-2" d="M79.44,0,92.88,9.65,79.44,19.11l-13-9.46Zm26.49,19.11L119.36,29l-14,9.64L93.06,29Zm-53,0L66.58,29.32,53.52,38.78,39.9,29Zm79.46,19.3,13.43,9.64-13.43,9.46-13.06-9.46Zm-105.95,0L39.9,48.05,26.47,57.51l-13-9.46ZM105.74,57l13.62,10.21L105.93,77,92.88,67.16Zm-52.22.18,13.25,9.46L53,77,39.9,67.16ZM79.44,77l13.44,9.65L79.44,96.11l-13-9.46Z"/></g></g></svg>