<svg xmlns="http://www.w3.org/2000/svg" viewBox="0 0 400.08 416.75"><defs><style>.cls-1{fill:#d94e30;}</style></defs><g id="Contenido"><path class="cls-1" d="M0,166.7H61.32L31,208.37Zm0,83.35,31-41.68,30.36,41.68ZM30.36,125H91.68L61.32,166.7Zm0,166.7,31-41.67,30.36,41.67ZM48.82,209,79.18,166.7,109,209,79.18,250.05ZM60.73,83.35h61.32L91.68,125Zm0,250.05,31-41.68,30.37,41.68ZM91.09,41.67h61.32L122.05,83.35Zm0,333.4,31-41.67,30.36,41.67ZM260.17,333.4l-30.36-41.08L200,333.4l-30.36-41.08L139.91,333.4l-31-41.08,31-42.27L109,209l31-42.27-31-41.08,31-42.27,29.77,42.27L200,83.35l29.77,42.27,30.36-42.27,31,42.27-31,41.08,31,42.27-31,41.08,31,42.27ZM121.45,0h61.32L152.41,41.67Zm0,416.75,31-41.68,30.36,41.68ZM200,0l29.77,42.27L200,83.35,169.68,42.27Zm0,333.4,29.77,42.27L200,416.75l-30.36-41.08ZM217.3,0h61.33l-31,41.67Zm61.33,416.75H217.3l30.37-41.68Zm-31-375.08H309L278,83.35ZM309,375.07H247.67L278,333.4ZM278,83.35h61.32l-31,41.67ZM339.35,333.4H278l30.36-41.68ZM351.26,209l-29.77,41.08L291.13,209l30.36-42.27ZM308.39,125h61.33l-31,41.68Zm61.33,166.7H308.39l30.37-41.67Zm-31-125h61.32l-31,41.67Zm30.36,41.67,31,41.68H338.76Z"/></g></svg>