<?xml version="1.0" encoding="UTF-8"?>
<svg id="Layer_2" data-name="Layer 2" xmlns="http://www.w3.org/2000/svg" viewBox="0 0 1017.91 425.82">
  <defs>
    <style>
      .cls-1 {
        fill: #fff;
      }
    </style>
  </defs>
  <g id="Contenido">
    <g>
      <g>
        <g>
          <path class="cls-1" d="M841,29l-5.23,7.17-5.33-7.17h10.56ZM841,43.35h-10.56l5.33-7.17,5.23,7.17ZM844.07,43.05l5.12-7.07-5.12-7.28-5.23,7.28,5.23,7.07ZM864.98,56.68l-15.07-20.5,15.07-20.5,14.86,20.5-14.86,20.5ZM861.91.31l-5.23,7.17-5.33-7.17h10.56ZM861.91,72.05h-10.56l5.33-7.17,5.23,7.17ZM864.88,14.35l5.12-7.07-5.12-7.28-5.23,7.28,5.23,7.07ZM864.88,71.74l5.12-7.07-5.12-7.28-5.23,7.28,5.23,7.07ZM867.85.31h10.56l-5.33,7.17-5.23-7.17ZM867.85,72.05l5.23-7.17,5.33,7.17h-10.56ZM885.79,43.05l5.12-7.07-5.12-7.28-5.23,7.28,5.23,7.07ZM888.76,29h10.56l-5.33,7.17-5.23-7.17ZM888.76,43.35l5.23-7.17,5.33,7.17h-10.56Z"/>
          <path class="cls-1" d="M844.07,118.87l5.12-7.07-5.12-7.28-5.23,7.28,5.23,7.07ZM864.98,132.5l-15.07-20.5,15.07-20.5,14.86,20.5-14.86,20.5ZM861.91,76.14l-5.23,7.17-5.33-7.17h10.56ZM861.91,147.88h-10.56l5.33-7.17,5.23,7.17ZM864.88,90.18l5.12-7.07-5.12-7.28-5.23,7.28,5.23,7.07ZM864.88,147.57l5.12-7.07-5.12-7.28-5.23,7.28,5.23,7.07ZM867.85,76.14h10.56l-5.33,7.17-5.23-7.17ZM867.85,147.88l5.23-7.17,5.33,7.17h-10.56ZM885.79,118.87l5.12-7.07-5.12-7.28-5.23,7.28,5.23,7.07Z"/>
          <path class="cls-1" d="M841,180.66l-5.23,7.17-5.33-7.17h10.56ZM841,195.01h-10.56l5.33-7.17,5.23,7.17ZM844.07,194.7l5.12-7.07-5.12-7.28-5.23,7.28,5.23,7.07ZM864.98,208.33l-15.07-20.5,15.07-20.5,14.86,20.5-14.86,20.5ZM861.91,151.96l-5.23,7.17-5.33-7.17h10.56ZM861.91,223.71h-10.56l5.33-7.17,5.23,7.17ZM864.88,166l5.12-7.07-5.12-7.28-5.23,7.28,5.23,7.07ZM864.88,223.4l5.12-7.07-5.12-7.28-5.23,7.28,5.23,7.07ZM867.85,151.96h10.56l-5.33,7.17-5.23-7.17ZM867.85,223.71l5.23-7.17,5.33,7.17h-10.56ZM885.79,194.7l5.12-7.07-5.12-7.28-5.23,7.28,5.23,7.07ZM888.76,180.66h10.56l-5.33,7.17-5.23-7.17ZM888.76,195.01l5.23-7.17,5.33,7.17h-10.56Z"/>
          <path class="cls-1" d="M844.07,270.53l5.12-7.07-5.12-7.28-5.23,7.28,5.23,7.07ZM864.98,284.16l-15.07-20.5,15.07-20.5,14.86,20.5-14.86,20.5ZM861.91,227.79l-5.23,7.17-5.33-7.17h10.56ZM861.91,299.53h-10.56l5.33-7.17,5.23,7.17ZM864.88,241.83l5.12-7.07-5.12-7.28-5.23,7.28,5.23,7.07ZM864.88,299.23l5.12-7.07-5.12-7.28-5.23,7.28,5.23,7.07ZM867.85,227.79h10.56l-5.33,7.17-5.23-7.17ZM867.85,299.53l5.23-7.17,5.33,7.17h-10.56ZM885.79,270.53l5.12-7.07-5.12-7.28-5.23,7.28,5.23,7.07Z"/>
          <path class="cls-1" d="M899.32,29l-5.23,7.17-5.33-7.17h10.56ZM899.32,43.35h-10.56l5.33-7.17,5.23,7.17ZM902.39,43.05l5.12-7.07-5.12-7.28-5.23,7.28,5.23,7.07ZM923.3,56.68l-15.07-20.5,15.07-20.5,14.86,20.5-14.86,20.5ZM920.23.31l-5.23,7.17-5.33-7.17h10.56ZM920.23,72.05h-10.56l5.33-7.17,5.23,7.17ZM923.2,14.35l5.12-7.07-5.12-7.28-5.23,7.28,5.23,7.07ZM923.2,71.74l5.12-7.07-5.12-7.28-5.23,7.28,5.23,7.07ZM926.17.31h10.56l-5.33,7.17-5.23-7.17ZM926.17,72.05l5.23-7.17,5.33,7.17h-10.56ZM944.11,43.05l5.12-7.07-5.12-7.28-5.23,7.28,5.23,7.07ZM947.08,29h10.56l-5.33,7.17-5.23-7.17ZM947.08,43.35l5.23-7.17,5.33,7.17h-10.56Z"/>
          <path class="cls-1" d="M899.32,180.66l-5.23,7.17-5.33-7.17h10.56ZM899.32,195.01h-10.56l5.33-7.17,5.23,7.17ZM902.39,194.7l5.12-7.07-5.12-7.28-5.23,7.28,5.23,7.07ZM923.3,208.33l-15.07-20.5,15.07-20.5,14.86,20.5-14.86,20.5ZM920.23,151.96l-5.23,7.17-5.33-7.17h10.56ZM920.23,223.71h-10.56l5.33-7.17,5.23,7.17ZM923.2,166l5.12-7.07-5.12-7.28-5.23,7.28,5.23,7.07ZM923.2,223.4l5.12-7.07-5.12-7.28-5.23,7.28,5.23,7.07ZM926.17,151.96h10.56l-5.33,7.17-5.23-7.17ZM926.17,223.71l5.23-7.17,5.33,7.17h-10.56ZM944.11,194.7l5.12-7.07-5.12-7.28-5.23,7.28,5.23,7.07ZM947.08,180.66h10.56l-5.33,7.17-5.23-7.17ZM947.08,195.01l5.23-7.17,5.33,7.17h-10.56Z"/>
          <path class="cls-1" d="M957.64,29l-5.23,7.17-5.33-7.17h10.56ZM957.64,43.35h-10.56l5.33-7.17,5.23,7.17ZM960.71,43.05l5.12-7.07-5.12-7.28-5.23,7.28,5.23,7.07ZM981.62,56.68l-15.07-20.5,15.07-20.5,14.86,20.5-14.86,20.5ZM978.55.31l-5.23,7.17-5.33-7.17h10.56ZM978.55,72.05h-10.56l5.33-7.17,5.23,7.17ZM981.52,14.35l5.12-7.07-5.12-7.28-5.23,7.28,5.23,7.07ZM981.52,71.74l5.12-7.07-5.12-7.28-5.23,7.28,5.23,7.07ZM984.49.31h10.56l-5.33,7.17-5.23-7.17ZM984.49,72.05l5.23-7.17,5.33,7.17h-10.56ZM1002.43,43.05l5.12-7.07-5.12-7.28-5.23,7.28,5.23,7.07ZM1005.4,29h10.56l-5.33,7.17-5.23-7.17ZM1005.4,43.35l5.23-7.17,5.33,7.17h-10.56Z"/>
          <path class="cls-1" d="M960.71,118.87l5.12-7.07-5.12-7.28-5.23,7.28,5.23,7.07ZM981.62,132.5l-15.07-20.5,15.07-20.5,14.86,20.5-14.86,20.5ZM978.55,76.14l-5.23,7.17-5.33-7.17h10.56ZM978.55,147.88h-10.56l5.33-7.17,5.23,7.17ZM981.52,90.18l5.12-7.07-5.12-7.28-5.23,7.28,5.23,7.07ZM981.52,147.57l5.12-7.07-5.12-7.28-5.23,7.28,5.23,7.07ZM984.49,76.14h10.56l-5.33,7.17-5.23-7.17ZM984.49,147.88l5.23-7.17,5.33,7.17h-10.56ZM1002.43,118.87l5.12-7.07-5.12-7.28-5.23,7.28,5.23,7.07Z"/>
          <path class="cls-1" d="M957.64,180.66l-5.23,7.17-5.33-7.17h10.56ZM957.64,195.01h-10.56l5.33-7.17,5.23,7.17ZM960.71,194.7l5.12-7.07-5.12-7.28-5.23,7.28,5.23,7.07ZM981.62,208.33l-15.07-20.5,15.07-20.5,14.86,20.5-14.86,20.5ZM978.55,151.96l-5.23,7.17-5.33-7.17h10.56ZM978.55,223.71h-10.56l5.33-7.17,5.23,7.17ZM981.52,166l5.12-7.07-5.12-7.28-5.23,7.28,5.23,7.07ZM981.52,223.4l5.12-7.07-5.12-7.28-5.23,7.28,5.23,7.07ZM984.49,151.96h10.56l-5.33,7.17-5.23-7.17ZM984.49,223.71l5.23-7.17,5.33,7.17h-10.56ZM1002.43,194.7l5.12-7.07-5.12-7.28-5.23,7.28,5.23,7.07ZM1005.4,180.66h10.56l-5.33,7.17-5.23-7.17ZM1005.4,195.01l5.23-7.17,5.33,7.17h-10.56Z"/>
          <path class="cls-1" d="M960.71,270.53l5.12-7.07-5.12-7.28-5.23,7.28,5.23,7.07ZM981.62,284.16l-15.07-20.5,15.07-20.5,14.86,20.5-14.86,20.5ZM978.55,227.79l-5.23,7.17-5.33-7.17h10.56ZM978.55,299.53h-10.56l5.33-7.17,5.23,7.17ZM981.52,241.83l5.12-7.07-5.12-7.28-5.23,7.28,5.23,7.07ZM981.52,299.23l5.12-7.07-5.12-7.28-5.23,7.28,5.23,7.07ZM984.49,227.79h10.56l-5.33,7.17-5.23-7.17ZM984.49,299.53l5.23-7.17,5.33,7.17h-10.56ZM1002.43,270.53l5.12-7.07-5.12-7.28-5.23,7.28,5.23,7.07Z"/>
        </g>
        <g>
          <path class="cls-1" d="M637.24,29l-5.23,7.17-5.33-7.17h10.56ZM637.24,43.35h-10.56l5.33-7.17,5.23,7.17ZM640.32,43.05l5.12-7.07-5.12-7.28-5.23,7.28,5.23,7.07ZM661.23,56.68l-15.07-20.5,15.07-20.5,14.86,20.5-14.86,20.5ZM658.15.31l-5.23,7.17-5.33-7.17h10.56ZM658.15,72.05h-10.56l5.33-7.17,5.23,7.17ZM661.12,14.35l5.12-7.07-5.12-7.28-5.23,7.28,5.23,7.07ZM661.12,71.74l5.12-7.07-5.12-7.28-5.23,7.28,5.23,7.07ZM664.1.31h10.56l-5.33,7.17-5.23-7.17ZM664.1,72.05l5.23-7.17,5.33,7.17h-10.56ZM682.03,43.05l5.12-7.07-5.12-7.28-5.23,7.28,5.23,7.07ZM685,29h10.56l-5.33,7.17-5.23-7.17ZM685,43.35l5.23-7.17,5.33,7.17h-10.56Z"/>
          <path class="cls-1" d="M722.82,80.99l5.12-7.07-5.12-7.28-5.23,7.28,5.23,7.07ZM743.72,94.62l-15.07-20.5,15.07-20.5,14.86,20.5-14.86,20.5ZM743.62,52.29l5.12-7.07-5.12-7.28-5.23,7.28,5.23,7.07ZM743.62,109.68l5.12-7.07-5.12-7.28-5.23,7.28,5.23,7.07ZM764.53,80.99l5.12-7.07-5.12-7.28-5.23,7.28,5.23,7.07Z"/>
          <polygon class="cls-1" points="667.9 156.99 673.03 149.92 667.9 142.64 662.68 149.92 667.9 156.99"/>
          <polygon class="cls-1" points="654.67 156.99 659.8 149.92 654.67 142.64 649.44 149.92 654.67 156.99"/>
          <polygon class="cls-1" points="722.76 156.99 727.89 149.92 722.76 142.64 717.54 149.92 722.76 156.99"/>
          <polygon class="cls-1" points="688.81 170.62 673.75 150.13 688.81 129.63 703.67 150.13 688.81 170.62"/>
          <polygon class="cls-1" points="688.71 128.3 693.83 121.22 688.71 113.95 683.48 121.22 688.71 128.3"/>
          <polygon class="cls-1" points="688.71 185.69 693.83 178.62 688.71 171.34 683.48 178.62 688.71 185.69"/>
          <polygon class="cls-1" points="709.62 156.99 714.74 149.92 709.62 142.64 704.39 149.92 709.62 156.99"/>
          <path class="cls-1" d="M750.39,43.05l5.12-7.07-5.12-7.28-5.23,7.28,5.23,7.07ZM771.3,56.68l-15.07-20.5,15.07-20.5,14.86,20.5-14.86,20.5ZM768.22.31l-5.23,7.17-5.33-7.17h10.56ZM771.2,14.35l5.12-7.07-5.12-7.28-5.23,7.28,5.23,7.07ZM771.2,71.74l5.12-7.07-5.12-7.28-5.23,7.28,5.23,7.07ZM774.17.31h10.56l-5.33,7.17-5.23-7.17ZM792.1,43.05l5.12-7.07-5.12-7.28-5.23,7.28,5.23,7.07Z"/>
          <path class="cls-1" d="M637.24,104.99l-5.23,7.17-5.33-7.17h10.56ZM637.24,119.34h-10.56l5.33-7.17,5.23,7.17ZM640.32,119.03l5.12-7.07-5.12-7.28-5.23,7.28,5.23,7.07ZM661.23,132.66l-15.07-20.5,15.07-20.5,14.86,20.5-14.86,20.5ZM658.15,76.29l-5.23,7.17-5.33-7.17h10.56ZM661.12,90.33l5.12-7.07-5.12-7.28-5.23,7.28,5.23,7.07ZM661.12,147.72l5.12-7.07-5.12-7.28-5.23,7.28,5.23,7.07ZM664.1,76.29h10.56l-5.33,7.17-5.23-7.17ZM682.03,119.03l5.12-7.07-5.12-7.28-5.23,7.28,5.23,7.07Z"/>
          <path class="cls-1" d="M695.36,119.03l5.12-7.07-5.12-7.28-5.23,7.28,5.23,7.07ZM716.27,132.66l-15.07-20.5,15.07-20.5,14.86,20.5-14.86,20.5ZM716.17,90.33l5.12-7.07-5.12-7.28-5.23,7.28,5.23,7.07ZM716.17,147.72l5.12-7.07-5.12-7.28-5.23,7.28,5.23,7.07ZM737.08,119.03l5.12-7.07-5.12-7.28-5.23,7.28,5.23,7.07Z"/>
          <path class="cls-1" d="M637.24,180.97l-5.23,7.17-5.33-7.17h10.56ZM637.24,195.32h-10.56l5.33-7.17,5.23,7.17ZM640.32,195.01l5.12-7.07-5.12-7.28-5.23,7.28,5.23,7.07ZM661.23,208.64l-15.07-20.5,15.07-20.5,14.86,20.5-14.86,20.5ZM658.15,224.01h-10.56l5.33-7.17,5.23,7.17ZM661.12,166.31l5.12-7.07-5.12-7.28-5.23,7.28,5.23,7.07ZM661.12,223.71l5.12-7.07-5.12-7.28-5.23,7.28,5.23,7.07ZM664.1,224.01l5.23-7.17,5.33,7.17h-10.56ZM682.03,195.01l5.12-7.07-5.12-7.28-5.23,7.28,5.23,7.07Z"/>
          <path class="cls-1" d="M695.36,195.01l5.12-7.07-5.12-7.28-5.23,7.28,5.23,7.07ZM716.27,208.64l-15.07-20.5,15.07-20.5,14.86,20.5-14.86,20.5ZM716.17,166.31l5.12-7.07-5.12-7.28-5.23,7.28,5.23,7.07ZM716.17,223.71l5.12-7.07-5.12-7.28-5.23,7.28,5.23,7.07ZM737.08,195.01l5.12-7.07-5.12-7.28-5.23,7.28,5.23,7.07Z"/>
          <path class="cls-1" d="M722.76,233l5.12-7.07-5.12-7.28-5.23,7.28,5.23,7.07ZM743.67,246.63l-15.07-20.5,15.07-20.5,14.86,20.5-14.86,20.5ZM743.57,204.3l5.12-7.07-5.12-7.28-5.23,7.28,5.23,7.07ZM743.57,261.7l5.12-7.07-5.12-7.28-5.23,7.28,5.23,7.07ZM764.48,233l5.12-7.07-5.12-7.28-5.23,7.28,5.23,7.07Z"/>
          <path class="cls-1" d="M637.24,257.05l-5.23,7.17-5.33-7.17h10.56ZM637.24,271.4h-10.56l5.33-7.17,5.23,7.17ZM640.32,271.09l5.12-7.07-5.12-7.28-5.23,7.28,5.23,7.07ZM661.23,284.72l-15.07-20.5,15.07-20.5,14.86,20.5-14.86,20.5ZM658.15,228.35l-5.23,7.17-5.33-7.17h10.56ZM658.15,300.1h-10.56l5.33-7.17,5.23,7.17ZM661.12,242.39l5.12-7.07-5.12-7.28-5.23,7.28,5.23,7.07ZM661.12,299.79l5.12-7.07-5.12-7.28-5.23,7.28,5.23,7.07ZM664.1,228.35h10.56l-5.33,7.17-5.23-7.17ZM664.1,300.1l5.23-7.17,5.33,7.17h-10.56ZM682.03,271.09l5.12-7.07-5.12-7.28-5.23,7.28,5.23,7.07ZM685,257.05h10.56l-5.33,7.17-5.23-7.17ZM685,271.4l5.23-7.17,5.33,7.17h-10.56Z"/>
          <path class="cls-1" d="M750.49,271.09l5.12-7.07-5.12-7.28-5.23,7.28,5.23,7.07ZM771.4,284.72l-15.07-20.5,15.07-20.5,14.86,20.5-14.86,20.5ZM768.32,300.1h-10.56l5.33-7.17,5.23,7.17ZM771.29,242.39l5.12-7.07-5.12-7.28-5.23,7.28,5.23,7.07ZM771.29,299.79l5.12-7.07-5.12-7.28-5.23,7.28,5.23,7.07ZM774.27,300.1l5.23-7.17,5.33,7.17h-10.56ZM792.2,271.09l5.12-7.07-5.12-7.28-5.23,7.28,5.23,7.07Z"/>
        </g>
        <g>
          <path class="cls-1" d="M216.27,29l-5.23,7.17-5.33-7.17h10.56ZM216.27,43.35h-10.56l5.33-7.17,5.23,7.17ZM219.35,43.05l5.12-7.07-5.12-7.28-5.23,7.28,5.23,7.07ZM240.25,56.68l-15.07-20.5,15.07-20.5,14.86,20.5-14.86,20.5ZM237.18.31l-5.23,7.17-5.33-7.17h10.56ZM237.18,72.05h-10.56l5.33-7.17,5.23,7.17ZM240.15,14.35l5.12-7.07-5.12-7.28-5.23,7.28,5.23,7.07ZM240.15,71.74l5.12-7.07-5.12-7.28-5.23,7.28,5.23,7.07ZM243.12.31h10.56l-5.33,7.17-5.23-7.17ZM243.12,72.05l5.23-7.17,5.33,7.17h-10.56ZM261.06,43.05l5.12-7.07-5.12-7.28-5.23,7.28,5.23,7.07ZM264.03,29h10.56l-5.33,7.17-5.23-7.17ZM264.03,43.35l5.23-7.17,5.33,7.17h-10.56Z"/>
          <path class="cls-1" d="M219.35,118.87l5.12-7.07-5.12-7.28-5.23,7.28,5.23,7.07ZM240.25,132.5l-15.07-20.5,15.07-20.5,14.86,20.5-14.86,20.5ZM237.18,76.14l-5.23,7.17-5.33-7.17h10.56ZM237.18,147.88h-10.56l5.33-7.17,5.23,7.17ZM240.15,90.18l5.12-7.07-5.12-7.28-5.23,7.28,5.23,7.07ZM240.15,147.57l5.12-7.07-5.12-7.28-5.23,7.28,5.23,7.07ZM243.12,76.14h10.56l-5.33,7.17-5.23-7.17ZM243.12,147.88l5.23-7.17,5.33,7.17h-10.56ZM261.06,118.87l5.12-7.07-5.12-7.28-5.23,7.28,5.23,7.07Z"/>
          <path class="cls-1" d="M216.27,180.66l-5.23,7.17-5.33-7.17h10.56ZM216.27,195.01h-10.56l5.33-7.17,5.23,7.17ZM219.35,194.7l5.12-7.07-5.12-7.28-5.23,7.28,5.23,7.07ZM240.25,208.33l-15.07-20.5,15.07-20.5,14.86,20.5-14.86,20.5ZM237.18,151.96l-5.23,7.17-5.33-7.17h10.56ZM237.18,223.71h-10.56l5.33-7.17,5.23,7.17ZM240.15,166l5.12-7.07-5.12-7.28-5.23,7.28,5.23,7.07ZM240.15,223.4l5.12-7.07-5.12-7.28-5.23,7.28,5.23,7.07ZM243.12,151.96h10.56l-5.33,7.17-5.23-7.17ZM243.12,223.71l5.23-7.17,5.33,7.17h-10.56ZM261.06,194.7l5.12-7.07-5.12-7.28-5.23,7.28,5.23,7.07ZM264.03,180.66h10.56l-5.33,7.17-5.23-7.17ZM264.03,195.01l5.23-7.17,5.33,7.17h-10.56Z"/>
          <path class="cls-1" d="M219.35,270.53l5.12-7.07-5.12-7.28-5.23,7.28,5.23,7.07ZM240.25,284.16l-15.07-20.5,15.07-20.5,14.86,20.5-14.86,20.5ZM237.18,227.79l-5.23,7.17-5.33-7.17h10.56ZM237.18,299.53h-10.56l5.33-7.17,5.23,7.17ZM240.15,241.83l5.12-7.07-5.12-7.28-5.23,7.28,5.23,7.07ZM240.15,299.23l5.12-7.07-5.12-7.28-5.23,7.28,5.23,7.07ZM243.12,227.79h10.56l-5.33,7.17-5.23-7.17ZM243.12,299.53l5.23-7.17,5.33,7.17h-10.56ZM261.06,270.53l5.12-7.07-5.12-7.28-5.23,7.28,5.23,7.07Z"/>
          <path class="cls-1" d="M274.59,29l-5.23,7.17-5.33-7.17h10.56ZM274.59,43.35h-10.56l5.33-7.17,5.23,7.17ZM277.67,43.05l5.12-7.07-5.12-7.28-5.23,7.28,5.23,7.07ZM298.57,56.68l-15.07-20.5,15.07-20.5,14.86,20.5-14.86,20.5ZM295.5.31l-5.23,7.17-5.33-7.17h10.56ZM295.5,72.05h-10.56l5.33-7.17,5.23,7.17ZM298.47,14.35l5.12-7.07-5.12-7.28-5.23,7.28,5.23,7.07ZM298.47,71.74l5.12-7.07-5.12-7.28-5.23,7.28,5.23,7.07ZM301.44.31h10.56l-5.33,7.17-5.23-7.17ZM301.44,72.05l5.23-7.17,5.33,7.17h-10.56ZM319.38,43.05l5.12-7.07-5.12-7.28-5.23,7.28,5.23,7.07ZM322.35,29h10.56l-5.33,7.17-5.23-7.17ZM322.35,43.35l5.23-7.17,5.33,7.17h-10.56Z"/>
          <path class="cls-1" d="M274.59,180.66l-5.23,7.17-5.33-7.17h10.56ZM274.59,195.01h-10.56l5.33-7.17,5.23,7.17ZM277.67,194.7l5.12-7.07-5.12-7.28-5.23,7.28,5.23,7.07ZM298.57,208.33l-15.07-20.5,15.07-20.5,14.86,20.5-14.86,20.5ZM295.5,151.96l-5.23,7.17-5.33-7.17h10.56ZM295.5,223.71h-10.56l5.33-7.17,5.23,7.17ZM298.47,166l5.12-7.07-5.12-7.28-5.23,7.28,5.23,7.07ZM298.47,223.4l5.12-7.07-5.12-7.28-5.23,7.28,5.23,7.07ZM301.44,151.96h10.56l-5.33,7.17-5.23-7.17ZM301.44,223.71l5.23-7.17,5.33,7.17h-10.56ZM319.38,194.7l5.12-7.07-5.12-7.28-5.23,7.28,5.23,7.07ZM322.35,180.66h10.56l-5.33,7.17-5.23-7.17ZM322.35,195.01l5.23-7.17,5.33,7.17h-10.56Z"/>
          <path class="cls-1" d="M332.91,29l-5.23,7.17-5.33-7.17h10.56ZM332.91,43.35h-10.56l5.33-7.17,5.23,7.17ZM335.99,43.05l5.12-7.07-5.12-7.28-5.23,7.28,5.23,7.07ZM356.89,56.68l-15.07-20.5,15.07-20.5,14.86,20.5-14.86,20.5ZM353.82.31l-5.23,7.17-5.33-7.17h10.56ZM353.82,72.05h-10.56l5.33-7.17,5.23,7.17ZM356.79,14.35l5.12-7.07-5.12-7.28-5.23,7.28,5.23,7.07ZM356.79,71.74l5.12-7.07-5.12-7.28-5.23,7.28,5.23,7.07ZM359.76.31h10.56l-5.33,7.17-5.23-7.17ZM359.76,72.05l5.23-7.17,5.33,7.17h-10.56ZM377.7,43.05l5.12-7.07-5.12-7.28-5.23,7.28,5.23,7.07ZM380.67,29h10.56l-5.33,7.17-5.23-7.17ZM380.67,43.35l5.23-7.17,5.33,7.17h-10.56Z"/>
          <path class="cls-1" d="M335.99,118.87l5.12-7.07-5.12-7.28-5.23,7.28,5.23,7.07ZM356.89,132.5l-15.07-20.5,15.07-20.5,14.86,20.5-14.86,20.5ZM353.82,76.14l-5.23,7.17-5.33-7.17h10.56ZM353.82,147.88h-10.56l5.33-7.17,5.23,7.17ZM356.79,90.18l5.12-7.07-5.12-7.28-5.23,7.28,5.23,7.07ZM356.79,147.57l5.12-7.07-5.12-7.28-5.23,7.28,5.23,7.07ZM359.76,76.14h10.56l-5.33,7.17-5.23-7.17ZM359.76,147.88l5.23-7.17,5.33,7.17h-10.56ZM377.7,118.87l5.12-7.07-5.12-7.28-5.23,7.28,5.23,7.07Z"/>
          <path class="cls-1" d="M332.91,180.66l-5.23,7.17-5.33-7.17h10.56ZM332.91,195.01h-10.56l5.33-7.17,5.23,7.17ZM335.99,194.7l5.12-7.07-5.12-7.28-5.23,7.28,5.23,7.07ZM356.89,208.33l-15.07-20.5,15.07-20.5,14.86,20.5-14.86,20.5ZM353.82,151.96l-5.23,7.17-5.33-7.17h10.56ZM353.82,223.71h-10.56l5.33-7.17,5.23,7.17ZM356.79,166l5.12-7.07-5.12-7.28-5.23,7.28,5.23,7.07ZM356.79,223.4l5.12-7.07-5.12-7.28-5.23,7.28,5.23,7.07ZM359.76,151.96h10.56l-5.33,7.17-5.23-7.17ZM359.76,223.71l5.23-7.17,5.33,7.17h-10.56ZM377.7,194.7l5.12-7.07-5.12-7.28-5.23,7.28,5.23,7.07ZM380.67,180.66h10.56l-5.33,7.17-5.23-7.17ZM380.67,195.01l5.23-7.17,5.33,7.17h-10.56Z"/>
          <path class="cls-1" d="M335.99,270.53l5.12-7.07-5.12-7.28-5.23,7.28,5.23,7.07ZM356.89,284.16l-15.07-20.5,15.07-20.5,14.86,20.5-14.86,20.5ZM353.82,227.79l-5.23,7.17-5.33-7.17h10.56ZM353.82,299.53h-10.56l5.33-7.17,5.23,7.17ZM356.79,241.83l5.12-7.07-5.12-7.28-5.23,7.28,5.23,7.07ZM356.79,299.23l5.12-7.07-5.12-7.28-5.23,7.28,5.23,7.07ZM359.76,227.79h10.56l-5.33,7.17-5.23-7.17ZM359.76,299.53l5.23-7.17,5.33,7.17h-10.56ZM377.7,270.53l5.12-7.07-5.12-7.28-5.23,7.28,5.23,7.07Z"/>
        </g>
        <g>
          <path class="cls-1" d="M429.83,43.05l5.12-7.07-5.12-7.28-5.23,7.28,5.23,7.07ZM450.74,56.68l-15.07-20.5,15.07-20.5,14.86,20.5-14.86,20.5ZM447.67.31l-5.23,7.17-5.33-7.17h10.56ZM447.67,72.05h-10.56l5.33-7.17,5.23,7.17ZM450.64,14.35l5.12-7.07-5.12-7.28-5.23,7.28,5.23,7.07ZM450.64,71.74l5.12-7.07-5.12-7.28-5.23,7.28,5.23,7.07ZM453.61.31h10.56l-5.33,7.17-5.23-7.17ZM453.61,72.05l5.23-7.17,5.33,7.17h-10.56ZM471.55,43.05l5.12-7.07-5.12-7.28-5.23,7.28,5.23,7.07Z"/>
          <path class="cls-1" d="M429.83,118.87l5.12-7.07-5.12-7.28-5.23,7.28,5.23,7.07ZM450.74,132.5l-15.07-20.5,15.07-20.5,14.86,20.5-14.86,20.5ZM447.67,76.14l-5.23,7.17-5.33-7.17h10.56ZM447.67,147.88h-10.56l5.33-7.17,5.23,7.17ZM450.64,90.18l5.12-7.07-5.12-7.28-5.23,7.28,5.23,7.07ZM450.64,147.57l5.12-7.07-5.12-7.28-5.23,7.28,5.23,7.07ZM453.61,76.14h10.56l-5.33,7.17-5.23-7.17ZM453.61,147.88l5.23-7.17,5.33,7.17h-10.56ZM471.55,118.87l5.12-7.07-5.12-7.28-5.23,7.28,5.23,7.07Z"/>
          <path class="cls-1" d="M429.83,194.7l5.12-7.07-5.12-7.28-5.23,7.28,5.23,7.07ZM450.74,208.33l-15.07-20.5,15.07-20.5,14.86,20.5-14.86,20.5ZM447.67,151.96l-5.23,7.17-5.33-7.17h10.56ZM447.67,223.71h-10.56l5.33-7.17,5.23,7.17ZM450.64,166l5.12-7.07-5.12-7.28-5.23,7.28,5.23,7.07ZM450.64,223.4l5.12-7.07-5.12-7.28-5.23,7.28,5.23,7.07ZM453.61,151.96h10.56l-5.33,7.17-5.23-7.17ZM453.61,223.71l5.23-7.17,5.33,7.17h-10.56ZM471.55,194.7l5.12-7.07-5.12-7.28-5.23,7.28,5.23,7.07Z"/>
          <path class="cls-1" d="M426.76,256.49l-5.23,7.17-5.33-7.17h10.56ZM426.76,270.84h-10.56l5.33-7.17,5.23,7.17ZM429.83,270.53l5.12-7.07-5.12-7.28-5.23,7.28,5.23,7.07ZM450.74,284.16l-15.07-20.5,15.07-20.5,14.86,20.5-14.86,20.5ZM447.67,227.79l-5.23,7.17-5.33-7.17h10.56ZM447.67,299.53h-10.56l5.33-7.17,5.23,7.17ZM450.64,241.83l5.12-7.07-5.12-7.28-5.23,7.28,5.23,7.07ZM450.64,299.23l5.12-7.07-5.12-7.28-5.23,7.28,5.23,7.07ZM453.61,227.79h10.56l-5.33,7.17-5.23-7.17ZM453.61,299.53l5.23-7.17,5.33,7.17h-10.56ZM471.55,270.53l5.12-7.07-5.12-7.28-5.23,7.28,5.23,7.07ZM474.52,256.49h10.56l-5.33,7.17-5.23-7.17ZM474.52,270.84l5.23-7.17,5.33,7.17h-10.56Z"/>
          <path class="cls-1" d="M485.08,256.49l-5.23,7.17-5.33-7.17h10.56ZM485.08,270.84h-10.56l5.33-7.17,5.23,7.17ZM488.15,270.53l5.12-7.07-5.12-7.28-5.23,7.28,5.23,7.07ZM509.06,284.16l-15.07-20.5,15.07-20.5,14.86,20.5-14.86,20.5ZM505.99,227.79l-5.23,7.17-5.33-7.17h10.56ZM505.99,299.53h-10.56l5.33-7.17,5.23,7.17ZM508.96,241.83l5.12-7.07-5.12-7.28-5.23,7.28,5.23,7.07ZM508.96,299.23l5.12-7.07-5.12-7.28-5.23,7.28,5.23,7.07ZM511.93,227.79h10.56l-5.33,7.17-5.23-7.17ZM511.93,299.53l5.23-7.17,5.33,7.17h-10.56ZM529.87,270.53l5.12-7.07-5.12-7.28-5.23,7.28,5.23,7.07ZM532.84,256.49h10.56l-5.33,7.17-5.23-7.17ZM532.84,270.84l5.23-7.17,5.33,7.17h-10.56Z"/>
          <path class="cls-1" d="M543.4,29l-5.23,7.17-5.33-7.17h10.56ZM567.38,56.68l-15.07-20.5,15.07-20.5,14.86,20.5-14.86,20.5ZM564.3.31l-5.23,7.17-5.33-7.17h10.56ZM564.3,72.05h-10.56l5.33-7.17,5.23,7.17ZM567.28,14.35l5.12-7.07-5.12-7.28-5.23,7.28,5.23,7.07ZM567.28,71.74l5.12-7.07-5.12-7.28-5.23,7.28,5.23,7.07ZM570.25.31h10.56l-5.33,7.17-5.23-7.17ZM570.25,72.05l5.23-7.17,5.33,7.17h-10.56ZM588.18,43.05l5.12-7.07-5.12-7.28-5.23,7.28,5.23,7.07Z"/>
          <path class="cls-1" d="M546.47,118.87l5.12-7.07-5.12-7.28-5.23,7.28,5.23,7.07ZM567.38,132.5l-15.07-20.5,15.07-20.5,14.86,20.5-14.86,20.5ZM564.3,76.14l-5.23,7.17-5.33-7.17h10.56ZM564.3,147.88h-10.56l5.33-7.17,5.23,7.17ZM567.28,90.18l5.12-7.07-5.12-7.28-5.23,7.28,5.23,7.07ZM567.28,147.57l5.12-7.07-5.12-7.28-5.23,7.28,5.23,7.07ZM570.25,76.14h10.56l-5.33,7.17-5.23-7.17ZM570.25,147.88l5.23-7.17,5.33,7.17h-10.56ZM588.18,118.87l5.12-7.07-5.12-7.28-5.23,7.28,5.23,7.07Z"/>
          <path class="cls-1" d="M546.47,194.7l5.12-7.07-5.12-7.28-5.23,7.28,5.23,7.07ZM567.38,208.33l-15.07-20.5,15.07-20.5,14.86,20.5-14.86,20.5ZM564.3,151.96l-5.23,7.17-5.33-7.17h10.56ZM564.3,223.71h-10.56l5.33-7.17,5.23,7.17ZM567.28,166l5.12-7.07-5.12-7.28-5.23,7.28,5.23,7.07ZM567.28,223.4l5.12-7.07-5.12-7.28-5.23,7.28,5.23,7.07ZM570.25,151.96h10.56l-5.33,7.17-5.23-7.17ZM570.25,223.71l5.23-7.17,5.33,7.17h-10.56ZM588.18,194.7l5.12-7.07-5.12-7.28-5.23,7.28,5.23,7.07Z"/>
          <path class="cls-1" d="M543.4,256.49l-5.23,7.17-5.33-7.17h10.56ZM543.4,270.84h-10.56l5.33-7.17,5.23,7.17ZM546.47,270.53l5.12-7.07-5.12-7.28-5.23,7.28,5.23,7.07ZM567.38,284.16l-15.07-20.5,15.07-20.5,14.86,20.5-14.86,20.5ZM564.3,227.79l-5.23,7.17-5.33-7.17h10.56ZM564.3,299.53h-10.56l5.33-7.17,5.23,7.17ZM567.28,241.83l5.12-7.07-5.12-7.28-5.23,7.28,5.23,7.07ZM567.28,299.23l5.12-7.07-5.12-7.28-5.23,7.28,5.23,7.07ZM570.25,227.79h10.56l-5.33,7.17-5.23-7.17ZM570.25,299.53l5.23-7.17,5.33,7.17h-10.56ZM588.18,270.53l5.12-7.07-5.12-7.28-5.23,7.28,5.23,7.07ZM591.16,256.49h10.56l-5.33,7.17-5.23-7.17ZM591.16,270.84l5.23-7.17,5.33,7.17h-10.56Z"/>
        </g>
        <g>
          <path class="cls-1" d="M12.52,29l-5.23,7.17-5.33-7.17h10.56ZM12.52,43.35H1.96l5.33-7.17,5.23,7.17ZM15.59,43.05l5.12-7.07-5.12-7.28-5.23,7.28,5.23,7.07ZM36.5,56.68l-15.07-20.5,15.07-20.5,14.86,20.5-14.86,20.5ZM33.42.31l-5.23,7.17L22.87.31h10.56ZM33.42,72.05h-10.56l5.33-7.17,5.23,7.17ZM36.4,14.35l5.12-7.07-5.12-7.28-5.23,7.28,5.23,7.07ZM36.4,71.74l5.12-7.07-5.12-7.28-5.23,7.28,5.23,7.07ZM39.37.31h10.56l-5.33,7.17L39.37.31ZM39.37,72.05l5.23-7.17,5.33,7.17h-10.56ZM57.3,43.05l5.12-7.07-5.12-7.28-5.23,7.28,5.23,7.07ZM60.28,29h10.56l-5.33,7.17-5.23-7.17ZM60.28,43.35l5.23-7.17,5.33,7.17h-10.56Z"/>
          <path class="cls-1" d="M98.09,80.99l5.12-7.07-5.12-7.28-5.23,7.28,5.23,7.07ZM119,94.62l-15.07-20.5,15.07-20.5,14.86,20.5-14.86,20.5ZM118.89,52.29l5.12-7.07-5.12-7.28-5.23,7.28,5.23,7.07ZM118.89,109.68l5.12-7.07-5.12-7.28-5.23,7.28,5.23,7.07ZM139.8,80.99l5.12-7.07-5.12-7.28-5.23,7.28,5.23,7.07Z"/>
          <polygon class="cls-1" points="43.18 156.99 48.3 149.92 43.18 142.64 37.95 149.92 43.18 156.99"/>
          <polygon class="cls-1" points="29.94 156.99 35.07 149.92 29.94 142.64 24.72 149.92 29.94 156.99"/>
          <polygon class="cls-1" points="98.04 156.99 103.16 149.92 98.04 142.64 92.81 149.92 98.04 156.99"/>
          <polygon class="cls-1" points="64.08 170.62 49.02 150.13 64.08 129.63 78.95 150.13 64.08 170.62"/>
          <polygon class="cls-1" points="63.98 128.3 69.11 121.22 63.98 113.95 58.76 121.22 63.98 128.3"/>
          <polygon class="cls-1" points="63.98 185.69 69.11 178.62 63.98 171.34 58.76 178.62 63.98 185.69"/>
          <polygon class="cls-1" points="84.89 156.99 90.01 149.92 84.89 142.64 79.66 149.92 84.89 156.99"/>
          <path class="cls-1" d="M125.66,43.05l5.12-7.07-5.12-7.28-5.23,7.28,5.23,7.07ZM146.57,56.68l-15.07-20.5,15.07-20.5,14.86,20.5-14.86,20.5ZM143.5.31l-5.23,7.17-5.33-7.17h10.56ZM146.47,14.35l5.12-7.07-5.12-7.28-5.23,7.28,5.23,7.07ZM146.47,71.74l5.12-7.07-5.12-7.28-5.23,7.28,5.23,7.07ZM149.44.31h10.56l-5.33,7.17-5.23-7.17ZM167.38,43.05l5.12-7.07-5.12-7.28-5.23,7.28,5.23,7.07Z"/>
          <path class="cls-1" d="M12.52,104.99l-5.23,7.17-5.33-7.17h10.56ZM12.52,119.34H1.96l5.33-7.17,5.23,7.17ZM15.59,119.03l5.12-7.07-5.12-7.28-5.23,7.28,5.23,7.07ZM36.5,132.66l-15.07-20.5,15.07-20.5,14.86,20.5-14.86,20.5ZM33.42,76.29l-5.23,7.17-5.33-7.17h10.56ZM36.4,90.33l5.12-7.07-5.12-7.28-5.23,7.28,5.23,7.07ZM36.4,147.72l5.12-7.07-5.12-7.28-5.23,7.28,5.23,7.07ZM39.37,76.29h10.56l-5.33,7.17-5.23-7.17ZM57.3,119.03l5.12-7.07-5.12-7.28-5.23,7.28,5.23,7.07Z"/>
          <path class="cls-1" d="M70.64,119.03l5.12-7.07-5.12-7.28-5.23,7.28,5.23,7.07ZM91.54,132.66l-15.07-20.5,15.07-20.5,14.86,20.5-14.86,20.5ZM91.44,90.33l5.12-7.07-5.12-7.28-5.23,7.28,5.23,7.07ZM91.44,147.72l5.12-7.07-5.12-7.28-5.23,7.28,5.23,7.07ZM112.35,119.03l5.12-7.07-5.12-7.28-5.23,7.28,5.23,7.07Z"/>
          <path class="cls-1" d="M12.52,180.97l-5.23,7.17-5.33-7.17h10.56ZM12.52,195.32H1.96l5.33-7.17,5.23,7.17ZM15.59,195.01l5.12-7.07-5.12-7.28-5.23,7.28,5.23,7.07ZM36.5,208.64l-15.07-20.5,15.07-20.5,14.86,20.5-14.86,20.5ZM33.42,224.01h-10.56l5.33-7.17,5.23,7.17ZM36.4,166.31l5.12-7.07-5.12-7.28-5.23,7.28,5.23,7.07ZM36.4,223.71l5.12-7.07-5.12-7.28-5.23,7.28,5.23,7.07ZM39.37,224.01l5.23-7.17,5.33,7.17h-10.56ZM57.3,195.01l5.12-7.07-5.12-7.28-5.23,7.28,5.23,7.07Z"/>
          <path class="cls-1" d="M70.64,195.01l5.12-7.07-5.12-7.28-5.23,7.28,5.23,7.07ZM91.54,208.64l-15.07-20.5,15.07-20.5,14.86,20.5-14.86,20.5ZM91.44,166.31l5.12-7.07-5.12-7.28-5.23,7.28,5.23,7.07ZM91.44,223.71l5.12-7.07-5.12-7.28-5.23,7.28,5.23,7.07ZM112.35,195.01l5.12-7.07-5.12-7.28-5.23,7.28,5.23,7.07Z"/>
          <path class="cls-1" d="M98.04,233l5.12-7.07-5.12-7.28-5.23,7.28,5.23,7.07ZM118.95,246.63l-15.07-20.5,15.07-20.5,14.86,20.5-14.86,20.5ZM118.84,204.3l5.12-7.07-5.12-7.28-5.23,7.28,5.23,7.07ZM118.84,261.7l5.12-7.07-5.12-7.28-5.23,7.28,5.23,7.07ZM139.75,233l5.12-7.07-5.12-7.28-5.23,7.28,5.23,7.07Z"/>
          <path class="cls-1" d="M12.52,257.05l-5.23,7.17-5.33-7.17h10.56ZM12.52,271.4H1.96l5.33-7.17,5.23,7.17ZM15.59,271.09l5.12-7.07-5.12-7.28-5.23,7.28,5.23,7.07ZM36.5,284.72l-15.07-20.5,15.07-20.5,14.86,20.5-14.86,20.5ZM33.42,228.35l-5.23,7.17-5.33-7.17h10.56ZM33.42,300.1h-10.56l5.33-7.17,5.23,7.17ZM36.4,242.39l5.12-7.07-5.12-7.28-5.23,7.28,5.23,7.07ZM36.4,299.79l5.12-7.07-5.12-7.28-5.23,7.28,5.23,7.07ZM39.37,228.35h10.56l-5.33,7.17-5.23-7.17ZM39.37,300.1l5.23-7.17,5.33,7.17h-10.56ZM57.3,271.09l5.12-7.07-5.12-7.28-5.23,7.28,5.23,7.07ZM60.28,257.05h10.56l-5.33,7.17-5.23-7.17ZM60.28,271.4l5.23-7.17,5.33,7.17h-10.56Z"/>
          <path class="cls-1" d="M125.76,271.09l5.12-7.07-5.12-7.28-5.23,7.28,5.23,7.07ZM146.67,284.72l-15.07-20.5,15.07-20.5,14.86,20.5-14.86,20.5ZM143.59,300.1h-10.56l5.33-7.17,5.23,7.17ZM146.57,242.39l5.12-7.07-5.12-7.28-5.23,7.28,5.23,7.07ZM146.57,299.79l5.12-7.07-5.12-7.28-5.23,7.28,5.23,7.07ZM149.54,300.1l5.23-7.17,5.33,7.17h-10.56ZM167.47,271.09l5.12-7.07-5.12-7.28-5.23,7.28,5.23,7.07Z"/>
        </g>
      </g>
      <g>
        <path class="cls-1" d="M4.06,359.57v-4.11H0v-8.28h4.06v-4.06h12.24v-3.97H4.06v-4.16h16.4v4.06h4.06v20.52H4.06ZM16.3,347.28h-8.08v8.13h8.08v-8.13Z"/>
        <path class="cls-1" d="M54.74,355.46v4.11h-12.29v-4.16h8.13v-4.01h-4.06v-4.06l-4.06-.05v-8.23h4.06v-4.06h12.34v4.16h-8.18v4.02h4.06v4.06l4.11-.05v8.28h-4.11Z"/>
        <path class="cls-1" d="M80.79,359.57v-4.11h-4.06v-8.28h4.06v-4.06h12.24v-3.97h-12.24v-4.16h16.4v4.06h4.06v20.52h-20.47ZM93.03,347.28h-8.08v8.13h8.08v-8.13Z"/>
        <path class="cls-1" d="M151.79,359.57v-20.42h-3.97v4.06h-4.11v16.35h-8.23v-20.42h-4.01v4.06h-4.06v16.35h-8.23v-24.58h8.23v4.06h4.01v-4.06h8.21v4.06h8.07v-4.06h8.21v4.06h4.11v20.52h-8.23Z"/>
        <path class="cls-1" d="M198.4,355.46v4.11h-20.47v-32.76h8.23v8.18h12.24v4.06h4.06v16.4h-4.06ZM194.24,339.15h-8.08v16.26h8.08v-16.26Z"/>
        <path class="cls-1" d="M220.39,359.57v-32.76h8.23v32.76h-8.23Z"/>
        <path class="cls-1" d="M266.95,355.46v4.11h-16.4v-4.11h-4.06v-16.4h4.06v-4.06h16.4v4.06h4.06v4.16h-4.06v4.06h-8.18v4.06h-4.06v4.06h12.14v-4.16h4.16v4.21h-4.06ZM262.79,339.15h-8.08v8.03h4.02v-4.01h4.06v-4.02Z"/>
        <path class="cls-1" d="M293,359.57v-4.11h-4.06v-8.28h4.06v-4.06h12.24v-3.97h-12.24v-4.16h16.4v4.06h4.06v20.52h-20.47ZM305.24,347.28h-8.08v8.13h8.08v-8.13Z"/>
        <path class="cls-1" d="M357.49,359.57v-4.11h-4.06v-16.4h4.06v-4.06h12.24v-8.18h8.23v32.76h-20.47ZM369.73,339.15h-8.08v16.26h8.08v-16.26Z"/>
        <path class="cls-1" d="M416.34,355.46v4.11h-16.4v-4.11h-4.06v-16.4h4.06v-4.06h16.4v4.06h4.06v4.16h-4.06v4.06h-8.18v4.06h-4.06v4.06h12.14v-4.16h4.16v4.21h-4.06ZM412.18,339.15h-8.08v8.03h4.02v-4.01h4.06v-4.02Z"/>
        <path class="cls-1" d="M492.97,359.57v-20.42h-3.97v4.06h-4.11v16.35h-8.23v-20.42h-4.01v4.06h-4.06v16.35h-8.23v-24.58h8.23v4.06h4.01v-4.06h8.21v4.06h8.07v-4.06h8.21v4.06h4.11v20.52h-8.23Z"/>
        <path class="cls-1" d="M539.58,355.46v4.11h-16.4v-4.11h-4.06v-20.47h8.23v20.42h8.08v-20.42h8.23v20.47h-4.06Z"/>
        <path class="cls-1" d="M577.87,359.57v-20.42h-4.01v4.06h-4.06v16.35h-8.23v-24.58h8.23v4.06h4.02v-4.06h8.23v4.06h4.06v20.52h-8.23Z"/>
        <path class="cls-1" d="M608.09,359.57v-4.11h-4.06v-16.4h4.06v-4.06h12.24v-8.18h8.23v32.76h-20.47ZM620.33,339.15h-8.08v16.26h8.08v-16.26Z"/>
        <path class="cls-1" d="M666.94,355.46v4.11h-16.4v-4.11h-4.06v-16.4h4.06v-4.06h16.4v4.06h4.06v16.4h-4.06ZM662.78,339.15h-8.08v16.26h8.08v-16.26Z"/>
        <path class="cls-1" d="M701.22,355.46v4.11h-12.29v-4.16h8.13v-4.01h-4.06v-4.06l-4.06-.05v-8.23h4.06v-4.06h12.34v4.16h-8.18v4.02h4.06v4.06l4.11-.05v8.28h-4.11Z"/>
        <path class="cls-1" d="M765.7,355.46v4.11h-12.24v8.18h-8.23v-32.76h20.47v4.06h4.06v16.4h-4.06ZM761.54,339.15h-8.08v16.26h8.08v-16.26Z"/>
        <path class="cls-1" d="M808.15,355.46v4.11h-16.4v-4.11h-4.06v-16.4h4.06v-4.06h16.4v4.06h4.06v16.4h-4.06ZM803.99,339.15h-8.08v16.26h8.08v-16.26Z"/>
        <path class="cls-1" d="M842.43,355.46v4.11h-12.29v-4.16h8.13v-4.01h-4.06v-4.06l-4.06-.05v-8.23h4.06v-4.06h12.34v4.16h-8.18v4.02h4.06v4.06l4.11-.05v8.28h-4.11Z"/>
        <path class="cls-1" d="M864.41,330.97v-4.16h8.23v4.16h-8.23ZM864.41,359.57v-24.58h8.23v24.58h-8.23Z"/>
        <path class="cls-1" d="M910.98,355.46v4.11h-20.47v-32.76h8.23v8.18h12.24v4.06h4.06v16.4h-4.06ZM906.81,339.15h-8.08v16.26h8.08v-16.26Z"/>
        <path class="cls-1" d="M932.96,359.57v-32.76h8.23v32.76h-8.23Z"/>
        <path class="cls-1" d="M979.53,355.46v4.11h-16.4v-4.11h-4.06v-16.4h4.06v-4.06h16.4v4.06h4.06v4.16h-4.06v4.06h-8.18v4.06h-4.06v4.06h12.14v-4.16h4.16v4.21h-4.06ZM975.36,339.15h-8.08v8.03h4.02v-4.01h4.06v-4.02Z"/>
        <path class="cls-1" d="M1013.8,355.46v4.11h-12.29v-4.16h8.13v-4.01h-4.06v-4.06l-4.06-.05v-8.23h4.06v-4.06h12.34v4.16h-8.18v4.02h4.06v4.06l4.11-.05v8.28h-4.11Z"/>
      </g>
      <g>
        <path class="cls-1" d="M129.96,419.27v6.54h-6.58v-6.54h-9.79v-6.54h3.25v-6.58h3.33v6.62h-3.25v3.17h6.46v-16.33h6.58v16.33h3.25v3.33h-3.25Z"/>
        <path class="cls-1" d="M157.36,409.48v6.54h-3.27l.04,9.79h-6.58v-9.87h3.25v-6.54h3.25v-6.46h-9.79v-3.33h16.41v9.87h-3.31Z"/>
        <path class="cls-1" d="M202.42,422.53v3.29h-9.83v-3.33h6.5v-3.21h-3.25v-3.25l-3.25-.04v-6.58h3.25v-3.25h9.87v3.33h-6.54v3.21h3.25v3.25l3.29-.04v6.62h-3.29Z"/>
        <path class="cls-1" d="M223.26,425.82v-3.29h-3.25v-6.62h3.25v-3.25h9.79v-3.17h-9.79v-3.33h13.12v3.25h3.25v16.41h-16.37ZM233.06,415.98h-6.46v6.5h6.46v-6.5Z"/>
        <path class="cls-1" d="M253.97,425.82v-26.21h6.58v26.21h-6.58Z"/>
        <path class="cls-1" d="M291.23,422.53v3.29h-13.12v-3.29h-3.25v-13.12h3.25v-3.25h13.12v3.25h3.25v13.12h-3.25ZM284.68,399.69v3.25h-3.33v-3.33h3.29v-3.25h3.33v3.33h-3.29ZM287.9,409.48h-6.46v13.01h6.46v-13.01Z"/>
        <path class="cls-1" d="M321.86,425.82v-16.33h-3.21v3.25h-3.25v13.08h-6.58v-19.66h6.58v3.25h3.21v-3.25h6.58v3.25h3.25v16.41h-6.58Z"/>
        <path class="cls-1" d="M373.45,425.82v-16.33h-3.21v3.25h-3.25v13.08h-6.58v-19.66h6.58v3.25h3.21v-3.25h6.58v3.25h3.25v16.41h-6.58Z"/>
        <path class="cls-1" d="M397.61,425.82v-3.29h-3.25v-6.62h3.25v-3.25h9.79v-3.17h-9.79v-3.33h13.12v3.25h3.25v16.41h-16.37ZM407.41,415.98h-6.46v6.5h6.46v-6.5Z"/>
        <path class="cls-1" d="M441.45,422.53v3.29h-9.87v-3.29h-3.25v-13.12h3.25v-3.25h13.12v6.58h-3.33v-3.25h-6.46v13.01h6.46v-3.33h3.33v3.37h-3.25Z"/>
        <path class="cls-1" d="M459,402.94v-3.33h6.58v3.33h-6.58ZM459,425.82v-19.66h6.58v19.66h-6.58Z"/>
        <path class="cls-1" d="M496.25,422.53v3.29h-13.12v-3.29h-3.25v-13.12h3.25v-3.25h13.12v3.25h3.25v13.12h-3.25ZM492.92,409.48h-6.46v13.01h6.46v-13.01Z"/>
        <path class="cls-1" d="M526.88,425.82v-16.33h-3.21v3.25h-3.25v13.08h-6.58v-19.66h6.58v3.25h3.21v-3.25h6.58v3.25h3.25v16.41h-6.58Z"/>
        <path class="cls-1" d="M551.05,425.82v-3.29h-3.25v-6.62h3.25v-3.25h9.79v-3.17h-9.79v-3.33h13.12v3.25h3.25v16.41h-16.37ZM560.84,415.98h-6.46v6.5h6.46v-6.5Z"/>
        <path class="cls-1" d="M581.76,425.82v-26.21h6.58v26.21h-6.58Z"/>
        <path class="cls-1" d="M623.51,425.82v-3.29h-3.25v-13.12h3.25v-3.25h9.79v-6.54h6.58v26.21h-16.37ZM633.31,409.48h-6.46v13.01h6.46v-13.01Z"/>
        <path class="cls-1" d="M670.6,422.53v3.29h-13.12v-3.29h-3.25v-13.12h3.25v-3.25h13.12v3.25h3.25v3.33h-3.25v3.25h-6.54v3.25h-3.25v3.25h9.71v-3.33h3.33v3.37h-3.25ZM667.27,409.48h-6.46v6.42h3.21v-3.21h3.25v-3.21Z"/>
        <path class="cls-1" d="M709.06,425.82v-3.29h-3.25v-6.62h3.25v-3.25h9.79v-3.17h-9.79v-3.33h13.12v3.25h3.25v16.41h-16.37ZM718.86,415.98h-6.46v6.5h6.46v-6.5Z"/>
        <path class="cls-1" d="M746.35,412.73v13.08h-6.58v-19.66h6.58v3.25h3.21v-3.25h3.33v6.58h-6.54Z"/>
        <path class="cls-1" d="M773.77,409.48v16.33h-6.58v-16.33h-3.29v-3.33h3.29v-6.54h6.58v6.54h3.25v3.33h-3.25Z"/>
        <path class="cls-1" d="M788.07,402.94v-3.33h6.58v3.33h-6.58ZM788.07,425.82v-19.66h6.58v19.66h-6.58Z"/>
        <path class="cls-1" d="M818.78,422.53v3.29h-9.83v-3.33h6.5v-3.21h-3.25v-3.25l-3.25-.04v-6.58h3.25v-3.25h9.87v3.33h-6.54v3.21h3.25v3.25l3.29-.04v6.62h-3.29Z"/>
        <path class="cls-1" d="M842.95,409.48v16.33h-6.58v-16.33h-3.29v-3.33h3.29v-6.54h6.58v6.54h3.25v3.33h-3.25Z"/>
        <path class="cls-1" d="M860.5,425.82v-3.29h-3.25v-6.62h3.25v-3.25h9.79v-3.17h-9.79v-3.33h13.12v3.25h3.25v16.41h-16.37ZM870.29,415.98h-6.46v6.5h6.46v-6.5Z"/>
        <path class="cls-1" d="M901.04,422.53v3.29h-9.83v-3.33h6.5v-3.21h-3.25v-3.25l-3.25-.04v-6.58h3.25v-3.25h9.87v3.33h-6.54v3.21h3.25v3.25l3.29-.04v6.62h-3.29Z"/>
      </g>
    </g>
  </g>
</svg>