<svg xmlns="http://www.w3.org/2000/svg" viewBox="0 0 544.93 567.64"><defs><style>.cls-1{fill:#d5a24a;opacity:0.5;}</style></defs><g id="Contenido"><path class="cls-1" d="M0,227.06H83.52L42.17,283.82ZM0,340.58l42.17-56.76,41.35,56.76ZM41.36,170.29h83.52L83.52,227.06Zm0,227.06,42.16-56.77,41.36,56.77ZM66.49,284.63l41.36-57.57,40.55,57.57-40.55,55.95Zm16.22-171.1h83.53l-41.36,56.76Zm0,340.58,42.17-56.76,41.36,56.76ZM124.07,56.76h83.52l-41.35,56.77Zm0,454.11,42.17-56.76,41.35,56.76Zm107-339.77,41.36,56-41.36,57.57-40.55-57.57-42.16-56,42.16-57.57ZM190.56,340.58l40.55-55.95,41.36,55.95L189.75,455.73l-40.54-57.57ZM165.42,0H249L207.59,56.76Zm0,567.64,42.17-56.77L249,567.64ZM231.11,57.57,272.47,0,313,57.57l-40.54,56Zm41.36,396.54L313,511.68l-40.54,56-41.36-56ZM313,171.1l41.36-57.57,42.16,57.57-42.16,56L313,284.63l-40.54-57.57Zm0,227.06-40.54-57.58L313,284.63l41.36,55.95,42.16,57.58-42.16,55.95ZM296,0H379.5L337.34,56.76ZM379.5,567.64H296l41.36-56.77ZM337.34,56.76h83.52l-42.17,56.77Zm83.52,454.11H337.34l41.35-56.76ZM378.69,113.53h83.53l-42.17,56.76Zm83.53,340.58H378.69l41.36-56.76Zm16.22-169.48-40.55,55.95-41.36-55.95,41.36-57.57ZM420.05,170.29h83.53l-42.17,56.77Zm83.53,227.06H420.05l41.36-56.77ZM461.41,227.06h83.52l-42.17,56.76Zm41.35,56.76,42.17,56.76H461.41Z"/></g></svg>