<svg xmlns="http://www.w3.org/2000/svg" viewBox="0 0 625.16 652.15"><defs><style>.cls-1{fill:#345133;opacity:0.3;}</style></defs><g id="Contenido"><path class="cls-1" d="M0,260.49H95.82L48.37,325.61ZM0,390.73l48.37-65.12,47.45,65.12ZM47.44,195.36h95.82L95.82,260.49Zm0,260.49,48.38-65.12,47.44,65.12ZM164.66,270.72V316.3h-80l32.56-45.58Zm0,65.12v45.59H117.22L84.66,335.84ZM94.89,130.24h95.82l-47.45,65.12Zm0,390.73,48.37-65.12L190.71,521Zm69.77-316.3v46.51H131.17Zm0,196.29v46.52L131.17,401ZM142.33,65.12h95.83l-47.45,65.12Zm0,521L190.71,521l47.45,65.12ZM366.54,215.83v35.35h26l14,19.54H365.61V316.3H440l8.38,12.1-6.51,9.3v-1.86H365.61v45.59h44.65L395.38,401H366.54v40l-18.61,26v-.93H278.16L259.55,441V401H229.78l-13.95-19.53h43.72V335.84H183.27v1.86l-6.51-9.3,9.3-12.1h73.49V270.72h-40l14-19.54h26V215.83L281,186.06h64.19ZM178.62,186.06l33.49-46.51h47.44v46.51Zm80.93,280V512.6H212.11l-33.49-46.51Zm0-261.42v11.16l-26,35.35H183.27V204.67Zm-76.28,66.05h36.28L186.06,316.3h-2.79Zm0,110.71V337.7l32.56,43.73Zm0,19.53h46.51l29.77,40v6.51H183.27ZM189.78,0H285.6L238.16,65.12Zm0,651.21,48.38-65.12,47.44,65.12ZM259.55,74.42v46.52H226.06Zm0,456.79v46.51l-33.49-46.51Zm13-475.39L313.51,0l40,55.82Zm0,540.51h80.94l-40,55.82ZM347.93,74.42v46.52H278.16V74.42Zm-2.79,111.64-31.63-43.72L281,186.06h-2.79V139.55h69.77v46.51Zm2.79,65.12V204.67H278.16v46.51Zm0,65.12V270.72H278.16V316.3Zm0,65.13V335.84H278.16v45.59Zm0,66.05V401H278.16v46.52ZM278.16,512.6V466.09l34.42,46.51Zm0,65.12V531.21h69.77v46.51Zm35.35-63.26-.93-1.86h1.86Zm34.42-1.86H314.44L347.93,467ZM339.56,0h95.82L387,65.12Zm95.82,651.21H339.56L387,586.09ZM366.54,120.94V74.42L400,120.94Zm0,65.12V139.55H414l33.49,46.51Zm0,29.77V204.67l75.36-.93v46.52l-49.31.92Zm0,231.65V441l28.84-40,46.52.93v46.52Zm80.94,18.61L414,512.6H366.54V466.09ZM366.54,577.72V531.21H400ZM387,65.12h95.82l-48.38,65.12Zm95.82,521H387L434.45,521ZM441.9,316.3H440l-33.49-45.58H441.9Zm0,65.13H410.26L441.9,337.7Zm-7.45-251.19h95.82L481.9,195.36ZM530.27,521H434.45l47.45-65.12ZM460.5,250.26V204.67L494,250.26Zm0,66V270.72H508l32.56,45.58Zm0,65.13V335.84h80L508,381.43Zm0,66.05V401.89H494Zm21.4-252.12h95.82l-48.38,65.13Zm95.82,260.49H481.9l47.44-65.12ZM529.34,260.49h95.82l-48.37,65.12Zm47.45,65.12,48.37,65.12H529.34Z"/></g></svg>