<svg xmlns="http://www.w3.org/2000/svg" xmlns:xlink="http://www.w3.org/1999/xlink" viewBox="0 0 460.25 479.43"><defs><style>.cls-1{fill:none;}.cls-2{clip-path:url(#clip-path);}.cls-3{clip-path:url(#clip-path-2);}.cls-4{fill:#fff;}</style><clipPath id="clip-path"><rect class="cls-1" x="-544.37" y="269.63" width="503.42" height="512.02"/></clipPath><clipPath id="clip-path-2"><rect class="cls-1" x="580.33" y="-69.63" width="320" height="320"/></clipPath></defs><g id="Fotos"><g class="cls-2"><image width="899" height="600" transform="translate(-569.66 84.83) scale(1.18)" xlink:href="../../Secciones/wireframe_KAUKA_HomeLanzamiento/Links/HomeLanzamiento_1.jpg"/></g></g><g id="Contenido"><g class="cls-3"><image width="1156" height="650" transform="translate(444.4 -76.03) scale(0.51)" xlink:href="../../Secciones/wireframe_KAUKA_HomeLanzamiento/Links/HomeLanzamiento_Expositivo.jpg"/></g><path class="cls-4" d="M0,191.77H70.54L35.61,239.71Zm0,95.89,35.61-48,34.93,48ZM34.93,143.83h70.54L70.54,191.77Zm0,191.77,35.61-47.94,34.93,47.94Zm21.23-95.2,34.93-48.63,34.25,48.63L91.09,287.66ZM69.86,95.89H140.4l-34.93,47.94Zm0,287.65,35.61-47.94,34.93,47.94Zm34.93-335.6h70.54l-34.93,48Zm0,383.55,35.61-47.95,34.93,47.95ZM299.3,383.54l-34.93-47.25-34.24,47.25L195.2,336.29,161,383.54l-35.61-47.25L161,287.66,125.34,240.4,161,191.77l-35.61-47.25L161,95.89l34.25,48.63,34.93-48.63,34.24,48.63L299.3,95.89l35.61,48.63L299.3,191.77l35.61,48.63L299.3,287.66l35.61,48.63ZM139.72,0h70.54L175.33,47.94Zm0,479.43,35.61-47.94,34.93,47.94ZM230.13,0l34.24,48.63L230.13,95.89,195.2,48.63Zm0,383.54,34.24,48.63-34.24,47.26L195.2,432.17ZM250,0h70.54L284.92,47.94Zm70.54,479.43H250l34.93-47.94ZM284.92,47.94h70.54l-35.61,48Zm70.54,383.55H284.92l34.93-47.95ZM319.85,95.89h70.54l-35.61,47.94Zm70.54,287.65H319.85l34.93-47.94Zm13.7-143.14-34.24,47.26L334.91,240.4l34.94-48.63Zm-49.31-96.57h70.54l-35.61,47.94ZM425.32,335.6H354.78l34.93-47.94ZM389.71,191.77h70.54l-35.61,47.94Zm34.93,47.94,35.61,48H389.71Z"/></g></svg>