<svg xmlns="http://www.w3.org/2000/svg" viewBox="0 0 403.24 555.64"><defs><style>.cls-1{fill:#345133;opacity:0.4;}</style></defs><g id="Contenido"><path class="cls-1" d="M0,278.61l40.48-56.35,39.69,56.35L40.48,333.39ZM323.07,167.49l-41.28,54.77,41.28,56.35-41.28,54.78,41.28,56.35-41.28,54.77-40.48-54.77-39.69,54.77-40.48-54.77-39.69,54.77L80.17,389.74l41.28-56.35L80.17,278.61l41.28-56.35L80.17,167.49l41.28-56.36,39.69,56.36,40.48-56.36,39.69,56.36,40.48-56.36ZM201.62,0l39.69,56.36-39.69,54.77L161.14,56.36Zm0,555.64-40.48-54.77,40.48-56.36,39.69,56.36ZM363.55,222.26l39.69,56.35-39.69,54.78-40.48-54.78Z"/></g></svg>