<?xml version="1.0" encoding="UTF-8"?><svg id="Capa_1" xmlns="http://www.w3.org/2000/svg" viewBox="0 0 600 800"><defs><style>.cls-1{fill:#1d1d1b;stroke-width:0px;}</style></defs><path class="cls-1" d="M352.85,560.3l-52.5,67.2-53.2-67.2-126.7-173.6,30.8-44.8,129.5,175.7,19.6-25.2,52.5,67.9ZM296.15,437.8l-28.7,37.1-107.1-145.6,28.7-38.5,107.1,147ZM294.05,342.6l-25.2,32.9-71.4-98,25.9-33.6,70.7,98.7ZM367.55,232l-67.9,94.5-67.9-95.2,68.6-93.8,67.2,94.5ZM299.65,179.5l-35.7,49.7,35.7,48.3,35-48.3-35-49.7ZM332.55,474.2l-28.7-37.1,107.1-147,28.7,38.5-107.1,145.6ZM331.15,374.8l-25.2-32.9,70.7-98.7,25.9,33.6-71.4,98ZM448.75,341.2l30.8,44.8-126.7,174.3-33.6-43.4,129.5-175.7Z"/></svg>