<?xml version="1.0" encoding="UTF-8"?><svg id="Capa_1" xmlns="http://www.w3.org/2000/svg" viewBox="0 0 600 800"><defs><style>.cls-1{fill:#1d1d1b;stroke-width:0px;}</style></defs><path class="cls-1" d="M153,341.2h294l24.5,34.3H128.5l24.5-34.3ZM471.5,390.2l-24.5,34.3H153l-24.5-34.3h343ZM188.7,291.5l222.6-.7v.7l25.2,34.3-273,.7,25.2-35ZM436.5,439.9l-25.2,34.3v.7l-222.6-.7-25.2-35,273,.7ZM224.4,242.5h151.9l25.2,35h-202.3l25.2-35ZM401.5,488.2l-25.2,35h-151.9l-25.2-35h202.3ZM260.1,193.5h80.5l25.2,35h-130.9l25.2-35ZM365.8,537.2l-25.2,35h-80.5l-25.2-35h130.9ZM300.7,137.5l30.1,42h-60.9l30.8-42ZM330.8,586.2l-30.1,42-30.8-42h60.9Z"/></svg>