<?xml version="1.0" encoding="UTF-8"?><svg id="Capa_1" xmlns="http://www.w3.org/2000/svg" viewBox="0 0 600 800"><defs><style>.cls-1{fill:#1d1d1b;stroke-width:0px;}</style></defs><path class="cls-1" d="M136.9,333.5l-35.7,49-36.4-49h72.1ZM136.9,431.5h-72.1l36.4-49,35.7,49ZM172.6,284.5l-35.7,49-36.4-49h72.1ZM172.6,480.5h-72.1l36.4-49,35.7,49ZM208.3,235.5l-35.7,49-36.4-49h72.1ZM208.3,529.5h-72.1l36.4-49,35.7,49ZM244,186.5l-35.7,49-36.4-49h72.1ZM244,578.5h-72.1l36.4-49,35.7,49ZM300.7,522.5l-102.9-140,102.9-140,101.5,140-101.5,140ZM279.7,137.5l-35.7,49-36.4-49h72.1ZM279.7,627.5h-72.1l36.4-49,35.7,49ZM320.3,137.5h72.1l-36.4,49-35.7-49ZM320.3,627.5l35.7-49,36.4,49h-72.1ZM356,186.5h72.1l-36.4,49-35.7-49ZM356,578.5l35.7-49,36.4,49h-72.1ZM391.7,235.5h72.1l-36.4,49-35.7-49ZM391.7,529.5l35.7-49,36.4,49h-72.1ZM427.4,284.5h72.1l-36.4,49-35.7-49ZM427.4,480.5l35.7-49,36.4,49h-72.1ZM463.1,333.5h72.1l-36.4,49-35.7-49ZM463.1,431.5l35.7-49,36.4,49h-72.1Z"/></svg>