<?xml version="1.0" encoding="UTF-8"?><svg id="Capa_1" xmlns="http://www.w3.org/2000/svg" viewBox="0 0 600 800"><defs><style>.cls-1{fill:#1d1d1b;stroke-width:0px;}</style></defs><path class="cls-1" d="M122.2,383.2l35.7-49.7,35,49.7-35,48.3-35.7-48.3ZM192.9,285.2l36.4-49.7,35,49.7-35,48.3-36.4-48.3ZM192.9,383.2l36.4-49.7,35,49.7-35,48.3-36.4-48.3ZM192.9,481.2l36.4-49.7,35,49.7-35,48.3-36.4-48.3ZM264.3,187.2l35.7-49.7,35,49.7-35,48.3-35.7-48.3ZM264.3,285.2l35.7-49.7,35,49.7-35,48.3-35.7-48.3ZM264.3,383.2l35.7-49.7,35,49.7-35,48.3-35.7-48.3ZM264.3,481.2l35.7-49.7,35,49.7-35,48.3-35.7-48.3ZM264.3,579.2l35.7-49.7,35,49.7-35,48.3-35.7-48.3ZM335,285.2l35.7-49.7,36.4,49.7-36.4,48.3-35.7-48.3ZM335,383.2l35.7-49.7,36.4,49.7-36.4,48.3-35.7-48.3ZM335,481.2l35.7-49.7,36.4,49.7-36.4,48.3-35.7-48.3ZM407.1,383.2l35.7-49.7,35,49.7-35,48.3-35.7-48.3Z"/></svg>