<?xml version="1.0" encoding="UTF-8"?><svg id="Capa_1" xmlns="http://www.w3.org/2000/svg" viewBox="0 0 600 800"><defs><style>.cls-1{fill:#1d1d1b;stroke-width:0px;}</style></defs><path class="cls-1" d="M120.45,386.7l30.8-44.8,135.1,183.4-31.5,45.5-134.4-184.1ZM160.35,329.3l28.7-38.5,107.1,147-28.7,37.1-107.1-145.6ZM197.45,277.5l25.9-33.6,70.7,98.7-25.2,32.9-71.4-98ZM243.65,578.5l-36.4,49h72.1l-35.7-49ZM231.75,231.3l68.6-93.8,67.2,94.5-67.9,94.5-67.9-95.2ZM303.85,437.1l107.1-147,28.7,38.5-107.1,145.6-28.7-37.1ZM305.95,341.9l70.7-98.7,25.9,33.6-71.4,98-25.2-32.9ZM313.65,524.6l135.1-183.4,30.8,44.8-134.4,184.1-31.5-45.5ZM392.05,627.5l-36.4-49-35.7,49h72.1Z"/></svg>