<?xml version="1.0" encoding="UTF-8"?><svg id="Capa_1" xmlns="http://www.w3.org/2000/svg" viewBox="0 0 600 800"><defs><style>.cls-1{fill:#1d1d1b;stroke-width:0px;}</style></defs><path class="cls-1" d="M153,341.2h76.3l-25.2,34.3h-75.6l24.5-34.3ZM128.5,390.2h72.8l25.2,34.3h-73.5l-24.5-34.3ZM188.7,291.5h77l-25.9,35h-76.3l25.2-35ZM163.5,439.2h74.2l25.2,35h-74.2l-25.2-35ZM401.5,384.6l-4.2,5.6h-196l-4.2-5.6,7-9.1h191.1l6.3,9.1ZM323.8,277.5l-23.8-32.9-24.5,32.9h-76.3l25.2-35h151.9l25.2,35h-77.7ZM199.2,488.2h74.2l25.9,35h-74.9l-25.2-35ZM237.7,439.2l-11.2-14.7h146.3l-11.2,15.4-123.9-.7ZM358.8,325.8l11.2,15.4h-140.7l10.5-14.7,119-.7ZM340.6,193.5l25.2,35h-130.9l25.2-35h80.5ZM260.1,572.2l-25.2-35h130.9l-25.2,35h-80.5ZM273.4,488.2l-10.5-14,73.5.7-9.8,13.3h-53.2ZM323.8,277.5l9.8,13.3-67.9.7,9.8-14h48.3ZM300.7,137.5l30.1,42h-60.9l30.8-42ZM300.7,628.2l-30.8-42h60.9l-30.1,42ZM300,524.6l-.7-1.4h1.4l-.7,1.4ZM376.3,523.2h-75.6l25.9-35h74.9l-25.2,35ZM436.5,325.8h-77.7l-25.2-35h77.7v.7l25.2,34.3ZM411.3,474.9h-74.9l25.2-35h74.9l-25.2,34.3v.7ZM471.5,375.5h-76.3l-25.2-34.3h77l24.5,34.3ZM372.8,424.5l24.5-34.3h74.2l-24.5,34.3h-74.2Z"/></svg>