<?xml version="1.0" encoding="UTF-8"?><svg id="Capa_1" xmlns="http://www.w3.org/2000/svg" viewBox="0 0 600 800"><defs><style>.cls-1{fill:#1d1d1b;stroke-width:0px;}</style></defs><path class="cls-1" d="M122.2,383.2l35.7-49.7,35,49.7-35,48.3-35.7-48.3ZM407.1,285.2l-36.4,48.3,36.4,49.7-36.4,48.3,36.4,49.7-36.4,48.3-35.7-48.3-35,48.3-35.7-48.3-35,48.3-36.4-48.3,36.4-49.7-36.4-48.3,36.4-49.7-36.4-48.3,36.4-49.7,35,49.7,35.7-49.7,35,49.7,35.7-49.7,36.4,49.7ZM300,137.5l35,49.7-35,48.3-35.7-48.3,35.7-49.7ZM300,627.5l-35.7-48.3,35.7-49.7,35,49.7-35,48.3ZM442.8,333.5l35,49.7-35,48.3-35.7-48.3,35.7-49.7Z"/></svg>