<?xml version="1.0" encoding="UTF-8"?><svg id="Capa_1" xmlns="http://www.w3.org/2000/svg" viewBox="0 0 600 800"><defs><style>.cls-1{fill:#1d1d1b;stroke-width:0px;}</style></defs><path class="cls-1" d="M-4.5,627.5l35.7-49,36.4,49H-4.5ZM66.9,529.5l36.4,49H31.2l35.7-49ZM137.6,624.7l33.6-46.2,36.4,49H67.6l35.7-49,34.3,46.2ZM192.9,383.2l-35,48.3-35.7-48.3,35.7-49.7,35,49.7ZM171.9,578.5l36.4-49,35.7,49h-72.1ZM279.7,137.5l-35.7,49-36.4-49h72.1ZM207.6,627.5l36.4-49,35.7,49h-72.1ZM264.3,285.2l35.7,48.3-35.7,49.7-35-49.7,35-48.3ZM229.3,431.5l35-48.3,35.7,48.3-35.7,49.7-35-49.7ZM300,235.5l-35.7-48.3,35.7-49.7,35,49.7-35,48.3ZM300,529.5l35,49.7-35,48.3-35.7-48.3,35.7-49.7ZM335,285.2l35.7,48.3-35.7,49.7-35-49.7,35-48.3ZM335,481.2l-35-49.7,35-48.3,35.7,48.3-35.7,49.7ZM392.4,137.5l-36.4,49-35.7-49h72.1ZM320.3,627.5l35.7-49,36.4,49h-72.1ZM391.7,529.5l36.4,49h-72.1l35.7-49ZM392.4,627.5l35.7-49,36.4,49h-72.1ZM477.8,383.2l-35,48.3-35.7-48.3,35.7-49.7,35,49.7ZM568.1,578.5l36.4,49h-140l35.7-49,34.3,46.2,33.6-46.2ZM531.7,529.5l36.4,49h-72.1l35.7-49Z"/></svg>