<?xml version="1.0" encoding="UTF-8"?><svg id="Capa_1" xmlns="http://www.w3.org/2000/svg" viewBox="0 0 600 800"><defs><style>.cls-1{fill:#1d1d1b;stroke-width:0px;}</style></defs><path class="cls-1" d="M27.7,187.2l-36.4-49H63.4l-35.7,49ZM63.4,138.2h72.1l-35.7,49-36.4-49ZM136.2,235.5v.7l-36.4-49h72.1l-35,48.3h71.4l-35.7,49-36.4-49ZM122.2,383.2l35.7-49.7,35,49.7-35,48.3-35.7-48.3ZM171.9,186.5h72.1l-35.7,49-36.4-49ZM335,285.2l35.7,48.3,36.4,49.7-36.4,48.3-35.7,49.7-35,48.3-35.7-48.3-35-49.7-36.4-48.3,36.4-49.7,35-48.3,35.7-49.7,35,49.7ZM207.6,137.5h72.1l-35.7,49-36.4-49ZM207.6,627.5l36.4-49,35.7,49h-72.1ZM300,137.5l35,49.7-35,48.3-35.7-48.3,35.7-49.7ZM300,431.5l35-48.3-35-49.7-35.7,49.7,35.7,48.3ZM300,627.5l-35.7-48.3,35.7-49.7,35,49.7-35,48.3ZM320.3,137.5h72.1l-36.4,49-35.7-49ZM320.3,627.5l35.7-49,36.4,49h-72.1ZM356,186.5h72.1l-36.4,49-35.7-49ZM463.1,235.5l-35-48.3h72.1l-36.4,49v-.7l-36.4,49-35.7-49h71.4ZM407.1,383.2l35.7-49.7,35,49.7-35,48.3-35.7-48.3ZM500.2,187.2l-35.7-49h72.1l-36.4,49ZM536.6,138.2h72.1l-36.4,49-35.7-49Z"/></svg>