<?xml version="1.0" encoding="UTF-8"?><svg id="Capa_1" xmlns="http://www.w3.org/2000/svg" viewBox="0 0 600 800"><defs><style>.cls-1{fill:#1d1d1b;stroke-width:0px;}</style></defs><path class="cls-1" d="M64.8,333.5h72.1l-35.7,49-36.4-49ZM101.2,382.5l35.7,49h-72.1l36.4-49ZM224.4,242.5h151.9l25.2,35h-202.3l25.2-35ZM401.5,488.2l-25.2,35h-151.9l-25.2-35h202.3ZM228.6,383.2l72.1-98.7,72.1,98.7-72.1,97.3-72.1-97.3ZM260.1,193.5h80.5l25.2,35h-130.9l25.2-35ZM365.8,537.2l-25.2,35h-80.5l-25.2-35h130.9ZM300.7,137.5l30.1,42h-60.9l30.8-42ZM330.8,586.2l-30.1,42-30.8-42h60.9ZM463.1,333.5h72.1l-36.4,49-35.7-49ZM498.8,382.5l36.4,49h-72.1l35.7-49Z"/></svg>