<?xml version="1.0" encoding="UTF-8"?><svg id="Capa_1" xmlns="http://www.w3.org/2000/svg" viewBox="0 0 600 800"><defs><style>.cls-1{fill:#1d1d1b;stroke-width:0px;}</style></defs><path class="cls-1" d="M27.7,187.9l-36.4-50.4H63.4l-35.7,50.4ZM63.4,137.5h72.1l-35.7,50.4-36.4-50.4ZM171.9,187.9l-35.7,51.1-36.4-51.1h72.1ZM407.1,383.2l35.7,48.3-17.5,24.5-35.7-49-18.9,24.5-17.5-23.1-35.7,48.3,17.5,24.5-17.5,23.8,35,49.7-17.5,24.5-35,48.3-35.7-48.3-17.5-24.5,35.7-49-18.2-24.5,17.5-24.5-35.7-49-16.8,23.8-18.2-24.5-35.7,49-53.2-72.8,35.7,48.3,35-48.3-35-49.7,17.5-24.5,35,49.7,18.9-25.2,16.8,24.5,35.7-49-17.5-23.8,18.2-25.2-35.7-48.3,17.5-24.5,35.7-49.7,52.5,74.2-35,48.3,17.5,25.2-17.5,23.8,35.7,48.3,17.5-23.8,18.9,25.9,35.7-50.4,17.5,24.5-35.7,49.7ZM229.3,235.5l35,49.7-35,48.3-36.4-48.3,36.4-49.7ZM192.9,481.2l36.4-49.7,35,49.7-35,48.3-36.4-48.3ZM300,431.5l35-48.3-35-49.7-35.7,49.7,35.7,48.3ZM407.1,285.2l-36.4,48.3-35.7-48.3,35.7-49.7,36.4,49.7ZM370.7,529.5l-35.7-48.3,35.7-49.7,36.4,49.7-36.4,48.3ZM463.8,239l-35.7-51.1h72.1l-36.4,51.1ZM500.2,187.9l-35.7-50.4h72.1l-36.4,50.4ZM536.6,137.5h72.1l-36.4,50.4-35.7-50.4Z"/></svg>