<?xml version="1.0" encoding="UTF-8"?><svg id="Capa_1" xmlns="http://www.w3.org/2000/svg" viewBox="0 0 600 800"><defs><style>.cls-1{fill:#1d1d1b;stroke-width:0px;}</style></defs><path class="cls-1" d="M153,341.2h294l24.5,34.3H128.5l24.5-34.3ZM128.5,390.2h343l-24.5,34.3H153l-24.5-34.3ZM192.9,285.2l36.4-49.7,35,49.7-35,48.3-36.4-48.3ZM192.9,481.2l36.4-49.7,35,49.7-35,48.3-36.4-48.3ZM260.1,193.5h80.5l25.2,35h-130.9l25.2-35ZM234.9,537.2h130.9l-25.2,35h-80.5l-25.2-35ZM264.3,285.2l35.7-49.7,35,49.7-35,48.3-35.7-48.3ZM264.3,481.2l35.7-49.7,35,49.7-35,48.3-35.7-48.3ZM300.7,137.5l30.1,42h-60.9l30.8-42ZM269.9,586.2h60.9l-30.1,42-30.8-42ZM335,285.2l35.7-49.7,36.4,49.7-36.4,48.3-35.7-48.3ZM335,481.2l35.7-49.7,36.4,49.7-36.4,48.3-35.7-48.3Z"/></svg>