<?xml version="1.0" encoding="UTF-8"?><svg id="Capa_1" xmlns="http://www.w3.org/2000/svg" viewBox="0 0 600 800"><defs><style>.cls-1{fill:#1d1d1b;stroke-width:0px;}</style></defs><path class="cls-1" d="M479.55,377.6l-30.8,44.8-.7-.7-100.1,142.1-33.6-48.3,31.5-42.7-91.7-.7,32.2,43.4-33.6,48.3-132.3-186.9,31.5-43.4,102.9-140.7,31.5,45.5-38.5,51.8,102.9-.7-37.1-50.4,31.5-45.5,134.4,184.1ZM371.05,437.8l44.1-60.9-38.5-52.5-154.7.7-38.5,51.1,44.8,60.9,142.8.7ZM299.65,333.5l35,49.7-35,48.3-35.7-48.3,35.7-49.7ZM300.35,136.1l30.1,42h-60.9l30.8-42ZM300.35,627.5l-30.8-42h60.9l-30.1,42Z"/></svg>