<?xml version="1.0" encoding="UTF-8"?><svg id="Capa_1" xmlns="http://www.w3.org/2000/svg" viewBox="0 0 600 800"><defs><style>.cls-1{fill:#1d1d1b;stroke-width:0px;}</style></defs><path class="cls-1" d="M197.45,276.1l25.9-33.6,70.7,98.7-25.2,32.9-71.4-98ZM294.05,421l-70.7,98.7-25.9-33.6,71.4-98,25.2,32.9ZM231.75,229.9l68.6-93.8,67.2,94.5-67.9,94.5-67.9-95.2ZM367.55,531.6l-67.2,94.5-68.6-93.8,67.9-95.2,67.9,94.5ZM305.95,340.5l70.7-98.7,25.9,33.6-71.4,98-25.2-32.9ZM402.55,486.8l-25.9,33.6-70.7-98.7,25.2-32.9,71.4,98Z"/></svg>