<svg xmlns="http://www.w3.org/2000/svg" viewBox="0 0 943.3577 700.0389" preserveAspectRatio="xMidYMax meet"><path d="M110.1659,0l-54.549,70.0039L0,0h110.1659ZM220.331,0l-54.5481,70.0039L110.1659,0h110.1651ZM222.4705,280.0156l-54.549,70.0039-55.617-70.0039h110.1659ZM222.4705,420.0233h-110.1659l55.617-70.0039,54.549,70.0039ZM275.9488,70.0039l-54.549,70.0039-55.617-70.0039h110.1659ZM277.0177,210.0117l-54.5472,70.0039-55.6178-70.0039h110.1651ZM277.0177,490.0272h-110.1651l55.6178-70.0039,54.5472,70.0039ZM331.5658,140.0078l-54.5481,70.0039-55.6178-70.0039h110.1659ZM331.5658,560.0311h-110.1659l55.6178-70.0039,54.5481,70.0039ZM386.1139,70.0039l-54.5481,70.0039-55.617-70.0039h110.1651ZM386.1139,630.035h-110.1651l55.617-70.0039,54.5481,70.0039ZM440.6611,0l-54.5472,70.0039L330.4961,0h110.1651ZM440.6611,700.0389h-110.1651l55.6178-70.0039,54.5472,70.0039ZM502.6966,0h110.1659l-55.6178,70.0039L502.6966,0ZM502.6966,700.0389l54.5481-70.0039,55.6178,70.0039h-110.1659ZM557.2447,70.0039h110.1651l-55.6178,70.0039-54.5472-70.0039ZM557.2447,630.035l54.5472-70.0039,55.6178,70.0039h-110.1651ZM611.7919,140.0078h110.1659l-55.617,70.0039-54.549-70.0039ZM611.7919,560.0311l54.549-70.0039,55.617,70.0039h-110.1659ZM666.3409,210.0117h110.1651l-55.6178,70.0039-54.5472-70.0039ZM666.3409,490.0272l54.5472-70.0039,55.6178,70.0039h-110.1651ZM667.4097,70.0039h110.1651l-55.617,70.0039-54.5481-70.0039ZM720.8881,280.0156h110.1651l-55.617,70.0039-54.5481-70.0039ZM720.8881,420.0233l54.5481-70.0039,55.617,70.0039h-110.1651ZM723.0276,0h110.1651l-55.6178,70.0039L723.0276,0ZM833.1926,0h110.1651l-55.617,70.0039L833.1926,0Z" fill="rgb(0,119,150)"/></svg>
