<?xml version="1.0" encoding="UTF-8"?>
<svg  data-name="Layer 2" xmlns="http://www.w3.org/2000/svg" viewBox="0 0 320 542.6">
  <defs>
    <style>
      .cls-1 {
        fill: #8e110b;
      }

      .cls-2 {
        opacity: .3;
      }
    </style>
  </defs>
  <g id="Contenido">
    <g class="cls-2">
      <path class="cls-1" d="M159.97,431.39l15.54,11.17-15.54,10.95-15.11-10.95,15.11-11.17ZM190.62,453.5l15.54,11.38-16.2,11.17-14.23-11.17,14.89-11.38ZM129.32,453.5l15.76,11.82-15.11,10.95-15.76-11.38,15.11-11.38ZM221.27,475.83l15.54,11.17-15.54,10.95-15.11-10.95,15.11-11.17ZM98.68,475.83l15.54,11.17-15.54,10.95-15.11-10.95,15.11-11.17ZM190.41,497.29l15.76,11.82-15.54,11.38-15.11-11.38,14.89-11.82ZM129.98,497.51l15.32,10.95-15.98,12.04-15.11-11.38,15.76-11.6ZM159.97,520.49l15.54,11.17-15.54,10.95-15.11-10.95,15.11-11.17Z"/>
      <path class="cls-1" d="M159.97,320.18l15.54,11.17-15.54,10.95-15.11-10.95,15.11-11.17ZM190.62,342.29l15.54,11.38-16.2,11.17-14.23-11.17,14.89-11.38ZM129.32,342.29l15.76,11.82-15.11,10.95-15.76-11.38,15.11-11.38ZM221.27,364.62l15.54,11.17-15.54,10.95-15.11-10.95,15.11-11.17ZM98.68,364.62l15.54,11.17-15.54,10.95-15.11-10.95,15.11-11.17ZM190.41,386.07l15.76,11.82-15.54,11.38-15.11-11.38,14.89-11.82ZM129.98,386.29l15.32,10.95-15.98,12.04-15.11-11.38,15.76-11.6ZM159.97,409.28l15.54,11.17-15.54,10.95-15.11-10.95,15.11-11.17Z"/>
      <path class="cls-1" d="M159.97,209.42l15.54,11.17-15.54,10.95-15.11-10.95,15.11-11.17ZM190.62,231.53l15.54,11.38-16.2,11.17-14.23-11.17,14.89-11.38ZM129.32,231.53l15.76,11.82-15.11,10.95-15.76-11.38,15.11-11.38ZM221.27,253.86l15.54,11.17-15.54,10.95-15.11-10.95,15.11-11.17ZM98.68,253.86l15.54,11.17-15.54,10.95-15.11-10.95,15.11-11.17ZM190.41,275.32l15.76,11.82-15.54,11.38-15.11-11.38,14.89-11.82ZM129.98,275.54l15.32,10.95-15.98,12.04-15.11-11.38,15.76-11.6ZM159.97,298.52l15.54,11.17-15.54,10.95-15.11-10.95,15.11-11.17Z"/>
      <path class="cls-1" d="M236.14,375.78l15.54,11.17-15.54,10.95-15.11-10.95,15.11-11.17ZM266.79,397.89l15.54,11.38-16.2,11.17-14.23-11.17,14.89-11.38ZM205.49,397.89l15.76,11.82-15.11,10.95-15.76-11.38,15.11-11.38ZM297.44,420.22l15.54,11.17-15.54,10.95-15.11-10.95,15.11-11.17ZM174.84,420.22l15.54,11.17-15.54,10.95-15.11-10.95,15.11-11.17ZM266.57,441.68l15.76,11.82-15.54,11.38-15.11-11.38,14.89-11.82ZM206.15,441.9l15.32,10.95-15.98,12.04-15.11-11.38,15.76-11.6ZM236.14,464.89l15.54,11.17-15.54,10.95-15.11-10.95,15.11-11.17Z"/>
      <path class="cls-1" d="M83.81,375.78l15.54,11.17-15.54,10.95-15.11-10.95,15.11-11.17ZM114.46,397.89l15.54,11.38-16.2,11.17-14.23-11.17,14.89-11.38ZM53.16,397.89l15.76,11.82-15.11,10.95-15.76-11.38,15.11-11.38ZM145.11,420.22l15.54,11.17-15.54,10.95-15.11-10.95,15.11-11.17ZM22.51,420.22l15.54,11.17-15.54,10.95-15.11-10.95,15.11-11.17ZM114.24,441.68l15.76,11.82-15.54,11.38-15.11-11.38,14.89-11.82ZM53.82,441.9l15.32,10.95-15.98,12.04-15.11-11.38,15.76-11.6ZM83.81,464.89l15.54,11.17-15.54,10.95-15.11-10.95,15.11-11.17Z"/>
      <path class="cls-1" d="M236.14,264.82l15.54,11.17-15.54,10.95-15.11-10.95,15.11-11.17ZM266.79,286.93l15.54,11.38-16.2,11.17-14.23-11.17,14.89-11.38ZM205.49,286.93l15.76,11.82-15.11,10.95-15.76-11.38,15.11-11.38ZM297.44,309.26l15.54,11.17-15.54,10.95-15.11-10.95,15.11-11.17ZM174.84,309.26l15.54,11.17-15.54,10.95-15.11-10.95,15.11-11.17ZM266.57,330.71l15.76,11.82-15.54,11.38-15.11-11.38,14.89-11.82ZM206.15,330.93l15.32,10.95-15.98,12.04-15.11-11.38,15.76-11.6ZM236.14,353.92l15.54,11.17-15.54,10.95-15.11-10.95,15.11-11.17Z"/>
      <path class="cls-1" d="M83.81,264.82l15.54,11.17-15.54,10.95-15.11-10.95,15.11-11.17ZM114.46,286.93l15.54,11.38-16.2,11.17-14.23-11.17,14.89-11.38ZM53.16,286.93l15.76,11.82-15.11,10.95-15.76-11.38,15.11-11.38ZM145.11,309.26l15.54,11.17-15.54,10.95-15.11-10.95,15.11-11.17ZM22.51,309.26l15.54,11.17-15.54,10.95-15.11-10.95,15.11-11.17ZM114.24,330.71l15.76,11.82-15.54,11.38-15.11-11.38,14.89-11.82ZM53.82,330.93l15.32,10.95-15.98,12.04-15.11-11.38,15.76-11.6ZM83.81,353.92l15.54,11.17-15.54,10.95-15.11-10.95,15.11-11.17Z"/>
      <path class="cls-1" d="M213.26,170.48l10.88,7.82-10.88,7.66-10.57-7.66,10.57-7.82ZM234.71,185.96l10.88,7.97-11.34,7.82-9.96-7.82,10.42-7.97ZM191.8,185.96l11.03,8.28-10.57,7.66-11.03-7.97,10.57-7.97ZM256.17,201.59l10.88,7.82-10.88,7.66-10.57-7.66,10.57-7.82ZM170.35,201.59l10.88,7.82-10.88,7.66-10.57-7.66,10.57-7.82ZM234.56,216.61l11.03,8.28-10.88,7.97-10.57-7.97,10.42-8.28ZM192.26,216.76l10.73,7.66-11.19,8.43-10.57-7.97,11.03-8.12ZM213.26,232.85l10.88,7.82-10.88,7.66-10.57-7.66,10.57-7.82Z"/>
      <path class="cls-1" d="M266.21,209.16l10.88,7.82-10.88,7.66-10.57-7.66,10.57-7.82ZM287.66,224.64l10.88,7.97-11.34,7.82-9.96-7.82,10.42-7.97ZM244.75,224.64l11.03,8.28-10.57,7.66-11.03-7.97,10.57-7.97ZM309.12,240.27l10.88,7.82-10.88,7.66-10.57-7.66,10.57-7.82ZM223.3,240.27l10.88,7.82-10.88,7.66-10.57-7.66,10.57-7.82ZM287.51,255.29l11.03,8.28-10.88,7.97-10.57-7.97,10.42-8.28ZM245.21,255.44l10.73,7.66-11.19,8.43-10.57-7.97,11.03-8.12ZM266.21,271.53l10.88,7.82-10.88,7.66-10.57-7.66,10.57-7.82Z"/>
      <path class="cls-1" d="M106.9,170.48l10.88,7.82-10.88,7.66-10.57-7.66,10.57-7.82ZM128.35,185.96l10.88,7.97-11.34,7.82-9.96-7.82,10.42-7.97ZM85.44,185.96l11.03,8.28-10.57,7.66-11.03-7.97,10.57-7.97ZM149.81,201.59l10.88,7.82-10.88,7.66-10.57-7.66,10.57-7.82ZM63.99,201.59l10.88,7.82-10.88,7.66-10.57-7.66,10.57-7.82ZM128.2,216.61l11.03,8.28-10.88,7.97-10.57-7.97,10.42-8.28ZM85.9,216.76l10.73,7.66-11.19,8.43-10.57-7.97,11.03-8.12ZM106.9,232.85l10.88,7.82-10.88,7.66-10.57-7.66,10.57-7.82Z"/>
      <path class="cls-1" d="M53.48,209.16l10.88,7.82-10.88,7.66-10.57-7.66,10.57-7.82ZM74.94,224.64l10.88,7.97-11.34,7.82-9.96-7.82,10.42-7.97ZM32.03,224.64l11.03,8.28-10.57,7.66-11.03-7.97,10.57-7.97ZM96.39,240.27l10.88,7.82-10.88,7.66-10.57-7.66,10.57-7.82ZM10.57,240.27l10.88,7.82-10.88,7.66-10.57-7.66,10.57-7.82ZM74.79,255.29l11.03,8.28-10.88,7.97-10.57-7.97,10.42-8.28ZM32.49,255.44l10.73,7.66-11.19,8.43-10.57-7.97,11.03-8.12ZM53.48,271.53l10.88,7.82-10.88,7.66-10.57-7.66,10.57-7.82Z"/>
      <path class="cls-1" d="M223.39,100.49l10.88,7.82-10.88,7.66-10.57-7.66,10.57-7.82ZM244.84,115.97l10.88,7.97-11.34,7.82-9.96-7.82,10.42-7.97ZM201.93,115.97l11.03,8.28-10.57,7.66-11.03-7.97,10.57-7.97ZM266.3,131.6l10.88,7.82-10.88,7.66-10.57-7.66,10.57-7.82ZM180.48,131.6l10.88,7.82-10.88,7.66-10.57-7.66,10.57-7.82ZM244.69,146.62l11.03,8.28-10.88,7.97-10.57-7.97,10.42-8.28ZM202.39,146.77l10.73,7.66-11.19,8.43-10.57-7.97,11.03-8.12ZM223.39,162.86l10.88,7.82-10.88,7.66-10.57-7.66,10.57-7.82Z"/>
      <path class="cls-1" d="M96.31,100.49l10.88,7.82-10.88,7.66-10.57-7.66,10.57-7.82ZM117.76,115.97l10.88,7.97-11.34,7.82-9.96-7.82,10.42-7.97ZM74.85,115.97l11.03,8.28-10.57,7.66-11.03-7.97,10.57-7.97ZM139.22,131.6l10.88,7.82-10.88,7.66-10.57-7.66,10.57-7.82ZM53.4,131.6l10.88,7.82-10.88,7.66-10.57-7.66,10.57-7.82ZM117.61,146.62l11.03,8.28-10.88,7.97-10.57-7.97,10.42-8.28ZM75.31,146.77l10.73,7.66-11.19,8.43-10.57-7.97,11.03-8.12ZM96.31,162.86l10.88,7.82-10.88,7.66-10.57-7.66,10.57-7.82Z"/>
      <path class="cls-1" d="M202.86,38.44l10.88,7.82-10.88,7.66-10.57-7.66,10.57-7.82ZM224.32,53.91l10.88,7.97-11.34,7.82-9.96-7.82,10.42-7.97ZM181.41,53.91l11.03,8.28-10.57,7.66-11.03-7.97,10.57-7.97ZM245.77,69.55l10.88,7.82-10.88,7.66-10.57-7.66,10.57-7.82ZM159.95,69.55l10.88,7.82-10.88,7.66-10.57-7.66,10.57-7.82ZM224.16,84.56l11.03,8.28-10.88,7.97-10.57-7.97,10.42-8.28ZM181.87,84.72l10.73,7.66-11.19,8.43-10.57-7.97,11.03-8.12ZM202.86,100.81l10.88,7.82-10.88,7.66-10.57-7.66,10.57-7.82Z"/>
      <path class="cls-1" d="M117.22,38.44l10.88,7.82-10.88,7.66-10.57-7.66,10.57-7.82ZM138.67,53.91l10.88,7.97-11.34,7.82-9.96-7.82,10.42-7.97ZM95.76,53.91l11.03,8.28-10.57,7.66-11.03-7.97,10.57-7.97ZM160.13,69.55l10.88,7.82-10.88,7.66-10.57-7.66,10.57-7.82ZM74.31,69.55l10.88,7.82-10.88,7.66-10.57-7.66,10.57-7.82ZM138.52,84.56l11.03,8.28-10.88,7.97-10.57-7.97,10.42-8.28ZM96.22,84.72l10.73,7.66-11.19,8.43-10.57-7.97,11.03-8.12ZM117.22,100.81l10.88,7.82-10.88,7.66-10.57-7.66,10.57-7.82Z"/>
      <path class="cls-1" d="M255.44,0l10.88,7.82-10.88,7.66-10.57-7.66,10.57-7.82ZM276.89,15.48l10.88,7.97-11.34,7.82-9.96-7.82,10.42-7.97ZM233.98,15.48l11.03,8.28-10.57,7.66-11.03-7.97,10.57-7.97ZM298.35,31.11l10.88,7.82-10.88,7.66-10.57-7.66,10.57-7.82ZM212.53,31.11l10.88,7.82-10.88,7.66-10.57-7.66,10.57-7.82ZM276.74,46.13l11.03,8.28-10.88,7.97-10.57-7.97,10.42-8.28ZM234.44,46.28l10.73,7.66-11.19,8.43-10.57-7.97,11.03-8.12ZM255.44,62.37l10.88,7.82-10.88,7.66-10.57-7.66,10.57-7.82Z"/>
      <path class="cls-1" d="M64.35,0l10.88,7.82-10.88,7.66-10.57-7.66,10.57-7.82ZM85.81,15.48l10.88,7.97-11.34,7.82-9.96-7.82,10.42-7.97ZM42.9,15.48l11.03,8.28-10.57,7.66-11.03-7.97,10.57-7.97ZM107.26,31.11l10.88,7.82-10.88,7.66-10.57-7.66,10.57-7.82ZM21.44,31.11l10.88,7.82-10.88,7.66-10.57-7.66,10.57-7.82ZM85.65,46.13l11.03,8.28-10.88,7.97-10.57-7.97,10.42-8.28ZM43.36,46.28l10.73,7.66-11.19,8.43-10.57-7.97,11.03-8.12ZM64.35,62.37l10.88,7.82-10.88,7.66-10.57-7.66,10.57-7.82Z"/>
    </g>
  </g>
</svg>