<?xml version="1.0" encoding="UTF-8"?>
<svg xmlns="http://www.w3.org/2000/svg" viewBox="0 0 313.38 326.9">
  <defs>
    <style>
      .cls-1 {
        isolation: isolate;
      }

      .cls-2 {
        fill:rgb(52, 4, 0);
        mix-blend-mode: multiply;
      }
    </style>
  </defs>
  <g class="cls-1">
    <g id="Layer_2" data-name="Layer 2">
      <g id="Contenido">
        <path class="cls-2" d="M48.03,131.05l-23.78,32.64L0,131.05h48.03ZM48.03,196.32H0l24.25-32.64,23.78,32.64ZM71.82,98.39l-23.78,32.66-24.25-32.66h48.03ZM71.82,228.97H23.78l24.25-32.65,23.78,32.65ZM157.16,326.44l117.99-162.75L157.16,0,38.24,163.68l118.92,162.75ZM95.6,65.75l-23.78,32.64-24.25-32.64h48.03ZM95.6,261.62h-48.03l24.25-32.65,23.78,32.65ZM119.38,33.11l-23.78,32.64-24.25-32.64h48.03ZM119.38,294.26h-48.03l24.25-32.64,23.78,32.64ZM143.17.46l-23.78,32.65L95.13.46h48.03ZM143.17,326.9h-48.03l24.25-32.65,23.78,32.65ZM170.21.46h48.03l-24.25,32.65L170.21.46ZM170.21,326.9l23.78-32.65,24.25,32.65h-48.03ZM194,33.11h48.03l-24.25,32.64-23.79-32.64ZM194,294.26l23.79-32.64,24.25,32.64h-48.03ZM217.78,65.75h48.03l-24.25,32.64-23.78-32.64ZM217.78,261.62l23.78-32.65,24.25,32.65h-48.03ZM241.56,98.39h48.03l-24.25,32.66-23.79-32.66ZM241.56,228.97l23.79-32.65,24.25,32.65h-48.03ZM265.35,131.05h48.03l-24.25,32.64-23.78-32.64ZM265.35,196.32l23.78-32.64,24.25,32.64h-48.03Z"/>
      </g>
    </g>
  </g>
</svg>