<?xml version="1.0" encoding="UTF-8"?>
<svg id="Layer_2" data-name="Layer 2" xmlns="http://www.w3.org/2000/svg" viewBox="0 0 313.83 326.9">
  <defs>
    <style>
      .cls-1 {
        opacity: .8;
      }

      .cls-2 {
        fill: #140401;
      }
    </style>
  </defs>
  <g id="Contenido">
    <g class="cls-1">
      <path class="cls-2" d="M0,130.76h48.1l-23.82,32.69L0,130.76ZM24.28,163.45l23.82,32.69H0l24.28-32.69ZM23.82,98.07h48.1l-23.82,32.69-24.28-32.69ZM48.1,196.14l23.82,32.69H23.82l24.28-32.69ZM38.76,163.92l35.49-49.5,35.03,49.5-35.03,48.57-35.49-48.57ZM47.63,65.38h48.1l-23.82,32.69-24.28-32.69ZM71.92,228.83l23.82,32.69h-48.1l24.28-32.69ZM71.45,32.69h48.1l-23.82,32.69-24.28-32.69ZM95.74,261.52l23.82,32.69h-48.1l24.28-32.69ZM95.27,0h48.1l-23.82,32.69L95.27,0ZM119.55,294.21l23.82,32.69h-48.1l24.28-32.69ZM109.28,163.92l48.1-65.85,48.1,65.85-48.1,64.91-48.1-64.91ZM121.89,49.5L157.38,0l35.03,49.5-35.03,48.57-35.49-48.57ZM121.89,278.33l35.49-49.5,35.03,49.5-35.03,48.57-35.49-48.57ZM170.46,0h48.1l-24.28,32.69L170.46,0ZM194.27,294.21l24.28,32.69h-48.1l23.82-32.69ZM194.27,32.69h48.1l-24.28,32.69-23.82-32.69ZM218.09,261.52l24.28,32.69h-48.1l23.82-32.69ZM205.48,163.92l35.49-49.5,35.03,49.5-35.03,48.57-35.49-48.57ZM218.09,65.38h48.1l-24.28,32.69-23.82-32.69ZM241.91,228.83l24.28,32.69h-48.1l23.82-32.69ZM241.91,98.07h48.1l-24.28,32.69-23.82-32.69ZM265.72,196.14l24.28,32.69h-48.1l23.82-32.69ZM265.72,130.76h48.1l-24.28,32.69-23.82-32.69ZM289.54,163.45l24.28,32.69h-48.1l23.82-32.69Z"/>
    </g>
  </g>
</svg>