<?xml version="1.0" encoding="UTF-8"?>
<svg id="Layer_2" data-name="Layer 2" xmlns="http://www.w3.org/2000/svg" viewBox="0 0 424.88 51.28">
  <defs>
    <style>
      .cls-1 {
        fill: #fff;
      }
    </style>
  </defs>
  <g id="Contenido">
    <g>
      <g>
        <g>
          <path class="cls-1" d="M34.81,6.18l.9-1.25.88,1.25-.88,1.21-.9-1.21ZM36.58,3.72l.91-1.25.88,1.25-.88,1.21-.91-1.21ZM36.58,6.18l.91-1.25.88,1.25-.88,1.21-.91-1.21ZM36.58,8.64l.91-1.25.88,1.25-.88,1.21-.91-1.21ZM38.38,1.26L39.27,0l.88,1.25-.88,1.21-.9-1.21ZM38.38,3.72l.9-1.25.88,1.25-.88,1.21-.9-1.21ZM38.38,6.18l.9-1.25.88,1.25-.88,1.21-.9-1.21ZM38.38,8.64l.9-1.25.88,1.25-.88,1.21-.9-1.21ZM38.38,11.1l.9-1.25.88,1.25-.88,1.21-.9-1.21ZM40.15,3.72l.9-1.25.91,1.25-.91,1.21-.9-1.21ZM40.15,6.18l.9-1.25.91,1.25-.91,1.21-.9-1.21ZM40.15,8.64l.9-1.25.91,1.25-.91,1.21-.9-1.21ZM41.96,6.18l.9-1.25.88,1.25-.88,1.21-.9-1.21Z"/>
          <path class="cls-1" d="M34.81,19.17l.9-1.25.88,1.25-.88,1.21-.9-1.21ZM36.58,16.71l.91-1.25.88,1.25-.88,1.21-.91-1.21ZM36.58,19.17l.91-1.25.88,1.25-.88,1.21-.91-1.21ZM36.58,21.63l.91-1.25.88,1.25-.88,1.21-.91-1.21ZM38.38,14.24l.9-1.25.88,1.25-.88,1.21-.9-1.21ZM38.38,16.71l.9-1.25.88,1.25-.88,1.21-.9-1.21ZM38.38,19.17l.9-1.25.88,1.25-.88,1.21-.9-1.21ZM38.38,21.63l.9-1.25.88,1.25-.88,1.21-.9-1.21ZM38.38,24.09l.9-1.25.88,1.25-.88,1.21-.9-1.21ZM40.15,16.71l.9-1.25.91,1.25-.91,1.21-.9-1.21ZM40.15,19.17l.9-1.25.91,1.25-.91,1.21-.9-1.21ZM40.15,21.63l.9-1.25.91,1.25-.91,1.21-.9-1.21ZM41.96,19.17l.9-1.25.88,1.25-.88,1.21-.9-1.21Z"/>
          <path class="cls-1" d="M34.81,32.15l.9-1.25.88,1.25-.88,1.21-.9-1.21ZM36.58,29.69l.91-1.25.88,1.25-.88,1.21-.91-1.21ZM36.58,32.15l.91-1.25.88,1.25-.88,1.21-.91-1.21ZM36.58,34.62l.91-1.25.88,1.25-.88,1.21-.91-1.21ZM38.38,27.23l.9-1.25.88,1.25-.88,1.21-.9-1.21ZM38.38,29.69l.9-1.25.88,1.25-.88,1.21-.9-1.21ZM38.38,32.15l.9-1.25.88,1.25-.88,1.21-.9-1.21ZM38.38,34.62l.9-1.25.88,1.25-.88,1.21-.9-1.21ZM38.38,37.08l.9-1.25.88,1.25-.88,1.21-.9-1.21ZM40.15,29.69l.9-1.25.91,1.25-.91,1.21-.9-1.21ZM40.15,32.15l.9-1.25.91,1.25-.91,1.21-.9-1.21ZM40.15,34.62l.9-1.25.91,1.25-.91,1.21-.9-1.21ZM41.96,32.15l.9-1.25.88,1.25-.88,1.21-.9-1.21Z"/>
          <path class="cls-1" d="M34.81,45.14l.9-1.25.88,1.25-.88,1.21-.9-1.21ZM36.58,42.68l.91-1.25.88,1.25-.88,1.21-.91-1.21ZM36.58,45.14l.91-1.25.88,1.25-.88,1.21-.91-1.21ZM36.58,47.6l.91-1.25.88,1.25-.88,1.21-.91-1.21ZM38.38,40.22l.9-1.25.88,1.25-.88,1.21-.9-1.21ZM38.38,42.68l.9-1.25.88,1.25-.88,1.21-.9-1.21ZM38.38,45.14l.9-1.25.88,1.25-.88,1.21-.9-1.21ZM38.38,47.6l.9-1.25.88,1.25-.88,1.21-.9-1.21ZM38.38,50.06l.9-1.25.88,1.25-.88,1.21-.9-1.21ZM40.15,42.68l.9-1.25.91,1.25-.91,1.21-.9-1.21ZM40.15,45.14l.9-1.25.91,1.25-.91,1.21-.9-1.21ZM40.15,47.6l.9-1.25.91,1.25-.91,1.21-.9-1.21ZM41.96,45.14l.9-1.25.88,1.25-.88,1.21-.9-1.21Z"/>
          <path class="cls-1" d="M44.79,6.18l.9-1.25.88,1.25-.88,1.21-.9-1.21ZM46.57,3.72l.91-1.25.88,1.25-.88,1.21-.91-1.21ZM46.57,6.18l.91-1.25.88,1.25-.88,1.21-.91-1.21ZM46.57,8.64l.91-1.25.88,1.25-.88,1.21-.91-1.21ZM48.36,1.26L49.26,0l.88,1.25-.88,1.21-.9-1.21ZM48.36,3.72l.9-1.25.88,1.25-.88,1.21-.9-1.21ZM48.36,6.18l.9-1.25.88,1.25-.88,1.21-.9-1.21ZM48.36,8.64l.9-1.25.88,1.25-.88,1.21-.9-1.21ZM48.36,11.1l.9-1.25.88,1.25-.88,1.21-.9-1.21ZM50.14,3.72l.9-1.25.91,1.25-.91,1.21-.9-1.21ZM50.14,6.18l.9-1.25.91,1.25-.91,1.21-.9-1.21ZM50.14,8.64l.9-1.25.91,1.25-.91,1.21-.9-1.21ZM51.95,6.18l.9-1.25.88,1.25-.88,1.21-.9-1.21Z"/>
          <path class="cls-1" d="M44.79,32.15l.9-1.25.88,1.25-.88,1.21-.9-1.21ZM46.57,29.69l.91-1.25.88,1.25-.88,1.21-.91-1.21ZM46.57,32.15l.91-1.25.88,1.25-.88,1.21-.91-1.21ZM46.57,34.62l.91-1.25.88,1.25-.88,1.21-.91-1.21ZM48.36,27.23l.9-1.25.88,1.25-.88,1.21-.9-1.21ZM48.36,29.69l.9-1.25.88,1.25-.88,1.21-.9-1.21ZM48.36,32.15l.9-1.25.88,1.25-.88,1.21-.9-1.21ZM48.36,34.62l.9-1.25.88,1.25-.88,1.21-.9-1.21ZM48.36,37.08l.9-1.25.88,1.25-.88,1.21-.9-1.21ZM50.14,29.69l.9-1.25.91,1.25-.91,1.21-.9-1.21ZM50.14,32.15l.9-1.25.91,1.25-.91,1.21-.9-1.21ZM50.14,34.62l.9-1.25.91,1.25-.91,1.21-.9-1.21ZM51.95,32.15l.9-1.25.88,1.25-.88,1.21-.9-1.21Z"/>
          <path class="cls-1" d="M54.77,6.18l.9-1.25.88,1.25-.88,1.21-.9-1.21ZM56.55,3.72l.91-1.25.88,1.25-.88,1.21-.91-1.21ZM56.55,6.18l.91-1.25.88,1.25-.88,1.21-.91-1.21ZM56.55,8.64l.91-1.25.88,1.25-.88,1.21-.91-1.21ZM58.34,1.26L59.24,0l.88,1.25-.88,1.21-.9-1.21ZM58.34,3.72l.9-1.25.88,1.25-.88,1.21-.9-1.21ZM58.34,6.18l.9-1.25.88,1.25-.88,1.21-.9-1.21ZM58.34,8.64l.9-1.25.88,1.25-.88,1.21-.9-1.21ZM58.34,11.1l.9-1.25.88,1.25-.88,1.21-.9-1.21ZM60.12,3.72l.9-1.25.91,1.25-.91,1.21-.9-1.21ZM60.12,6.18l.9-1.25.91,1.25-.91,1.21-.9-1.21ZM60.12,8.64l.9-1.25.91,1.25-.91,1.21-.9-1.21ZM61.93,6.18l.9-1.25.88,1.25-.88,1.21-.9-1.21Z"/>
          <path class="cls-1" d="M54.77,19.17l.9-1.25.88,1.25-.88,1.21-.9-1.21ZM56.55,16.71l.91-1.25.88,1.25-.88,1.21-.91-1.21ZM56.55,19.17l.91-1.25.88,1.25-.88,1.21-.91-1.21ZM56.55,21.63l.91-1.25.88,1.25-.88,1.21-.91-1.21ZM58.34,14.24l.9-1.25.88,1.25-.88,1.21-.9-1.21ZM58.34,16.71l.9-1.25.88,1.25-.88,1.21-.9-1.21ZM58.34,19.17l.9-1.25.88,1.25-.88,1.21-.9-1.21ZM58.34,21.63l.9-1.25.88,1.25-.88,1.21-.9-1.21ZM58.34,24.09l.9-1.25.88,1.25-.88,1.21-.9-1.21ZM60.12,16.71l.9-1.25.91,1.25-.91,1.21-.9-1.21ZM60.12,19.17l.9-1.25.91,1.25-.91,1.21-.9-1.21ZM60.12,21.63l.9-1.25.91,1.25-.91,1.21-.9-1.21ZM61.93,19.17l.9-1.25.88,1.25-.88,1.21-.9-1.21Z"/>
          <path class="cls-1" d="M54.77,32.15l.9-1.25.88,1.25-.88,1.21-.9-1.21ZM56.55,29.69l.91-1.25.88,1.25-.88,1.21-.91-1.21ZM56.55,32.15l.91-1.25.88,1.25-.88,1.21-.91-1.21ZM56.55,34.62l.91-1.25.88,1.25-.88,1.21-.91-1.21ZM58.34,27.23l.9-1.25.88,1.25-.88,1.21-.9-1.21ZM58.34,29.69l.9-1.25.88,1.25-.88,1.21-.9-1.21ZM58.34,32.15l.9-1.25.88,1.25-.88,1.21-.9-1.21ZM58.34,34.62l.9-1.25.88,1.25-.88,1.21-.9-1.21ZM58.34,37.08l.9-1.25.88,1.25-.88,1.21-.9-1.21ZM60.12,29.69l.9-1.25.91,1.25-.91,1.21-.9-1.21ZM60.12,32.15l.9-1.25.91,1.25-.91,1.21-.9-1.21ZM60.12,34.62l.9-1.25.91,1.25-.91,1.21-.9-1.21ZM61.93,32.15l.9-1.25.88,1.25-.88,1.21-.9-1.21Z"/>
          <path class="cls-1" d="M54.77,45.14l.9-1.25.88,1.25-.88,1.21-.9-1.21ZM56.55,42.68l.91-1.25.88,1.25-.88,1.21-.91-1.21ZM56.55,45.14l.91-1.25.88,1.25-.88,1.21-.91-1.21ZM56.55,47.6l.91-1.25.88,1.25-.88,1.21-.91-1.21ZM58.34,40.22l.9-1.25.88,1.25-.88,1.21-.9-1.21ZM58.34,42.68l.9-1.25.88,1.25-.88,1.21-.9-1.21ZM58.34,45.14l.9-1.25.88,1.25-.88,1.21-.9-1.21ZM58.34,47.6l.9-1.25.88,1.25-.88,1.21-.9-1.21ZM58.34,50.06l.9-1.25.88,1.25-.88,1.21-.9-1.21ZM60.12,42.68l.9-1.25.91,1.25-.91,1.21-.9-1.21ZM60.12,45.14l.9-1.25.91,1.25-.91,1.21-.9-1.21ZM60.12,47.6l.9-1.25.91,1.25-.91,1.21-.9-1.21ZM61.93,45.14l.9-1.25.88,1.25-.88,1.21-.9-1.21Z"/>
        </g>
        <g>
          <path class="cls-1" d="M70.77,6.18l.9-1.25.88,1.25-.88,1.21-.9-1.21ZM72.54,3.72l.91-1.25.88,1.25-.88,1.21-.91-1.21ZM72.54,6.18l.91-1.25.88,1.25-.88,1.21-.91-1.21ZM72.54,8.64l.91-1.25.88,1.25-.88,1.21-.91-1.21ZM74.34,1.26l.9-1.25.88,1.25-.88,1.21-.9-1.21ZM74.34,3.72l.9-1.25.88,1.25-.88,1.21-.9-1.21ZM74.34,6.18l.9-1.25.88,1.25-.88,1.21-.9-1.21ZM74.34,8.64l.9-1.25.88,1.25-.88,1.21-.9-1.21ZM74.34,11.1l.9-1.25.88,1.25-.88,1.21-.9-1.21ZM76.11,3.72l.9-1.25.91,1.25-.91,1.21-.9-1.21ZM76.11,6.18l.9-1.25.91,1.25-.91,1.21-.9-1.21ZM76.11,8.64l.9-1.25.91,1.25-.91,1.21-.9-1.21ZM77.92,6.18l.9-1.25.88,1.25-.88,1.21-.9-1.21Z"/>
          <path class="cls-1" d="M70.77,19.17l.9-1.25.88,1.25-.88,1.21-.9-1.21ZM72.54,16.71l.91-1.25.88,1.25-.88,1.21-.91-1.21ZM72.54,19.17l.91-1.25.88,1.25-.88,1.21-.91-1.21ZM72.54,21.63l.91-1.25.88,1.25-.88,1.21-.91-1.21ZM74.34,14.24l.9-1.25.88,1.25-.88,1.21-.9-1.21ZM74.34,16.71l.9-1.25.88,1.25-.88,1.21-.9-1.21ZM74.34,19.17l.9-1.25.88,1.25-.88,1.21-.9-1.21ZM74.34,21.63l.9-1.25.88,1.25-.88,1.21-.9-1.21ZM74.34,24.09l.9-1.25.88,1.25-.88,1.21-.9-1.21ZM76.11,16.71l.9-1.25.91,1.25-.91,1.21-.9-1.21ZM76.11,19.17l.9-1.25.91,1.25-.91,1.21-.9-1.21ZM76.11,21.63l.9-1.25.91,1.25-.91,1.21-.9-1.21ZM77.92,19.17l.9-1.25.88,1.25-.88,1.21-.9-1.21Z"/>
          <path class="cls-1" d="M70.77,32.15l.9-1.25.88,1.25-.88,1.21-.9-1.21ZM72.54,29.69l.91-1.25.88,1.25-.88,1.21-.91-1.21ZM72.54,32.15l.91-1.25.88,1.25-.88,1.21-.91-1.21ZM72.54,34.62l.91-1.25.88,1.25-.88,1.21-.91-1.21ZM74.34,27.23l.9-1.25.88,1.25-.88,1.21-.9-1.21ZM74.34,29.69l.9-1.25.88,1.25-.88,1.21-.9-1.21ZM74.34,32.15l.9-1.25.88,1.25-.88,1.21-.9-1.21ZM74.34,34.62l.9-1.25.88,1.25-.88,1.21-.9-1.21ZM74.34,37.08l.9-1.25.88,1.25-.88,1.21-.9-1.21ZM76.11,29.69l.9-1.25.91,1.25-.91,1.21-.9-1.21ZM76.11,32.15l.9-1.25.91,1.25-.91,1.21-.9-1.21ZM76.11,34.62l.9-1.25.91,1.25-.91,1.21-.9-1.21ZM77.92,32.15l.9-1.25.88,1.25-.88,1.21-.9-1.21Z"/>
          <path class="cls-1" d="M70.77,45.14l.9-1.25.88,1.25-.88,1.21-.9-1.21ZM72.54,42.68l.91-1.25.88,1.25-.88,1.21-.91-1.21ZM72.54,45.14l.91-1.25.88,1.25-.88,1.21-.91-1.21ZM72.54,47.6l.91-1.25.88,1.25-.88,1.21-.91-1.21ZM74.34,40.22l.9-1.25.88,1.25-.88,1.21-.9-1.21ZM74.34,42.68l.9-1.25.88,1.25-.88,1.21-.9-1.21ZM74.34,45.14l.9-1.25.88,1.25-.88,1.21-.9-1.21ZM74.34,47.6l.9-1.25.88,1.25-.88,1.21-.9-1.21ZM74.34,50.06l.9-1.25.88,1.25-.88,1.21-.9-1.21ZM76.11,42.68l.9-1.25.91,1.25-.91,1.21-.9-1.21ZM76.11,45.14l.9-1.25.91,1.25-.91,1.21-.9-1.21ZM76.11,47.6l.9-1.25.91,1.25-.91,1.21-.9-1.21ZM77.92,45.14l.9-1.25.88,1.25-.88,1.21-.9-1.21Z"/>
          <path class="cls-1" d="M90.75,6.18l.9-1.25.88,1.25-.88,1.21-.9-1.21ZM92.52,3.72l.91-1.25.88,1.25-.88,1.21-.91-1.21ZM92.52,6.18l.91-1.25.88,1.25-.88,1.21-.91-1.21ZM92.52,8.64l.91-1.25.88,1.25-.88,1.21-.91-1.21ZM94.32,1.26l.9-1.25.88,1.25-.88,1.21-.9-1.21ZM94.32,3.72l.9-1.25.88,1.25-.88,1.21-.9-1.21ZM94.32,6.18l.9-1.25.88,1.25-.88,1.21-.9-1.21ZM94.32,8.64l.9-1.25.88,1.25-.88,1.21-.9-1.21ZM94.32,11.1l.9-1.25.88,1.25-.88,1.21-.9-1.21ZM96.09,3.72l.9-1.25.91,1.25-.91,1.21-.9-1.21ZM96.09,6.18l.9-1.25.91,1.25-.91,1.21-.9-1.21ZM96.09,8.64l.9-1.25.91,1.25-.91,1.21-.9-1.21ZM97.91,6.18l.9-1.25.88,1.25-.88,1.21-.9-1.21Z"/>
          <path class="cls-1" d="M90.75,19.17l.9-1.25.88,1.25-.88,1.21-.9-1.21ZM92.52,16.71l.91-1.25.88,1.25-.88,1.21-.91-1.21ZM92.52,19.17l.91-1.25.88,1.25-.88,1.21-.91-1.21ZM92.52,21.63l.91-1.25.88,1.25-.88,1.21-.91-1.21ZM94.32,14.24l.9-1.25.88,1.25-.88,1.21-.9-1.21ZM94.32,16.71l.9-1.25.88,1.25-.88,1.21-.9-1.21ZM94.32,19.17l.9-1.25.88,1.25-.88,1.21-.9-1.21ZM94.32,21.63l.9-1.25.88,1.25-.88,1.21-.9-1.21ZM94.32,24.09l.9-1.25.88,1.25-.88,1.21-.9-1.21ZM96.09,16.71l.9-1.25.91,1.25-.91,1.21-.9-1.21ZM96.09,19.17l.9-1.25.91,1.25-.91,1.21-.9-1.21ZM96.09,21.63l.9-1.25.91,1.25-.91,1.21-.9-1.21ZM97.91,19.17l.9-1.25.88,1.25-.88,1.21-.9-1.21Z"/>
          <path class="cls-1" d="M90.75,32.15l.9-1.25.88,1.25-.88,1.21-.9-1.21ZM92.52,29.69l.91-1.25.88,1.25-.88,1.21-.91-1.21ZM92.52,32.15l.91-1.25.88,1.25-.88,1.21-.91-1.21ZM92.52,34.62l.91-1.25.88,1.25-.88,1.21-.91-1.21ZM94.32,27.23l.9-1.25.88,1.25-.88,1.21-.9-1.21ZM94.32,29.69l.9-1.25.88,1.25-.88,1.21-.9-1.21ZM94.32,32.15l.9-1.25.88,1.25-.88,1.21-.9-1.21ZM94.32,34.62l.9-1.25.88,1.25-.88,1.21-.9-1.21ZM94.32,37.08l.9-1.25.88,1.25-.88,1.21-.9-1.21ZM96.09,29.69l.9-1.25.91,1.25-.91,1.21-.9-1.21ZM96.09,32.15l.9-1.25.91,1.25-.91,1.21-.9-1.21ZM96.09,34.62l.9-1.25.91,1.25-.91,1.21-.9-1.21ZM97.91,32.15l.9-1.25.88,1.25-.88,1.21-.9-1.21Z"/>
          <path class="cls-1" d="M90.75,45.14l.9-1.25.88,1.25-.88,1.21-.9-1.21ZM92.52,42.68l.91-1.25.88,1.25-.88,1.21-.91-1.21ZM92.52,45.14l.91-1.25.88,1.25-.88,1.21-.91-1.21ZM92.52,47.6l.91-1.25.88,1.25-.88,1.21-.91-1.21ZM94.32,40.22l.9-1.25.88,1.25-.88,1.21-.9-1.21ZM94.32,42.68l.9-1.25.88,1.25-.88,1.21-.9-1.21ZM94.32,45.14l.9-1.25.88,1.25-.88,1.21-.9-1.21ZM94.32,47.6l.9-1.25.88,1.25-.88,1.21-.9-1.21ZM94.32,50.06l.9-1.25.88,1.25-.88,1.21-.9-1.21ZM96.09,42.68l.9-1.25.91,1.25-.91,1.21-.9-1.21ZM96.09,45.14l.9-1.25.91,1.25-.91,1.21-.9-1.21ZM96.09,47.6l.9-1.25.91,1.25-.91,1.21-.9-1.21ZM97.91,45.14l.9-1.25.88,1.25-.88,1.21-.9-1.21Z"/>
          <path class="cls-1" d="M80.75,45.14l.9-1.25.88,1.25-.88,1.21-.9-1.21ZM82.52,42.68l.91-1.25.88,1.25-.88,1.21-.91-1.21ZM82.52,45.14l.91-1.25.88,1.25-.88,1.21-.91-1.21ZM82.52,47.6l.91-1.25.88,1.25-.88,1.21-.91-1.21ZM84.32,40.22l.9-1.25.88,1.25-.88,1.21-.9-1.21ZM84.32,42.68l.9-1.25.88,1.25-.88,1.21-.9-1.21ZM84.32,45.14l.9-1.25.88,1.25-.88,1.21-.9-1.21ZM84.32,47.6l.9-1.25.88,1.25-.88,1.21-.9-1.21ZM84.32,50.06l.9-1.25.88,1.25-.88,1.21-.9-1.21ZM86.09,42.68l.9-1.25.91,1.25-.91,1.21-.9-1.21ZM86.09,45.14l.9-1.25.91,1.25-.91,1.21-.9-1.21ZM86.09,47.6l.9-1.25.91,1.25-.91,1.21-.9-1.21ZM87.91,45.14l.9-1.25.88,1.25-.88,1.21-.9-1.21Z"/>
        </g>
        <g>
          <path class="cls-1" d="M0,6.17l.9-1.25.88,1.25-.88,1.21L0,6.17ZM1.78,3.71l.91-1.25.88,1.25-.88,1.21-.91-1.21ZM1.78,6.17l.91-1.25.88,1.25-.88,1.21-.91-1.21ZM1.78,8.63l.91-1.25.88,1.25-.88,1.21-.91-1.21ZM3.58,1.25l.9-1.25.88,1.25-.88,1.21-.9-1.21ZM3.58,3.71l.9-1.25.88,1.25-.88,1.21-.9-1.21ZM3.58,6.17l.9-1.25.88,1.25-.88,1.21-.9-1.21ZM3.58,8.63l.9-1.25.88,1.25-.88,1.21-.9-1.21ZM3.58,11.1l.9-1.25.88,1.25-.88,1.21-.9-1.21ZM5.35,3.71l.9-1.25.91,1.25-.91,1.21-.9-1.21ZM5.35,6.17l.9-1.25.91,1.25-.91,1.21-.9-1.21ZM5.35,8.63l.9-1.25.91,1.25-.91,1.21-.9-1.21ZM7.17,6.17l.9-1.25.88,1.25-.88,1.21-.9-1.21Z"/>
          <path class="cls-1" d="M18.83,6.18l.9-1.25.88,1.25-.88,1.21-.9-1.21ZM20.61,3.72l.91-1.25.88,1.25-.88,1.21-.91-1.21ZM20.61,6.18l.91-1.25.88,1.25-.88,1.21-.91-1.21ZM20.61,8.64l.91-1.25.88,1.25-.88,1.21-.91-1.21ZM22.4,1.26L23.3,0l.88,1.25-.88,1.21-.9-1.21ZM22.4,3.72l.9-1.25.88,1.25-.88,1.21-.9-1.21ZM22.4,6.18l.9-1.25.88,1.25-.88,1.21-.9-1.21ZM22.4,8.64l.9-1.25.88,1.25-.88,1.21-.9-1.21ZM22.4,11.1l.9-1.25.88,1.25-.88,1.21-.9-1.21ZM24.18,3.72l.9-1.25.91,1.25-.91,1.21-.9-1.21ZM24.18,6.18l.9-1.25.91,1.25-.91,1.21-.9-1.21ZM24.18,8.64l.9-1.25.91,1.25-.91,1.21-.9-1.21ZM25.99,6.18l.9-1.25.88,1.25-.88,1.21-.9-1.21Z"/>
          <path class="cls-1" d="M.02,19.15l.9-1.25.88,1.25-.88,1.21L.02,19.15ZM1.79,16.69l.91-1.25.88,1.25-.88,1.21-.91-1.21ZM1.79,19.15l.91-1.25.88,1.25-.88,1.21-.91-1.21ZM1.79,21.61l.91-1.25.88,1.25-.88,1.21-.91-1.21ZM3.59,14.23l.9-1.25.88,1.25-.88,1.21-.9-1.21ZM3.59,16.69l.9-1.25.88,1.25-.88,1.21-.9-1.21ZM3.59,19.15l.9-1.25.88,1.25-.88,1.21-.9-1.21ZM3.59,21.61l.9-1.25.88,1.25-.88,1.21-.9-1.21ZM3.59,24.08l.9-1.25.88,1.25-.88,1.21-.9-1.21ZM5.36,16.69l.9-1.25.91,1.25-.91,1.21-.9-1.21ZM5.36,19.15l.9-1.25.91,1.25-.91,1.21-.9-1.21ZM5.36,21.61l.9-1.25.91,1.25-.91,1.21-.9-1.21ZM7.17,19.15l.9-1.25.88,1.25-.88,1.21-.9-1.21Z"/>
          <path class="cls-1" d="M9.42,19.17l.9-1.25.88,1.25-.88,1.21-.9-1.21ZM11.2,16.71l.91-1.25.88,1.25-.88,1.21-.91-1.21ZM11.2,19.17l.91-1.25.88,1.25-.88,1.21-.91-1.21ZM11.2,21.63l.91-1.25.88,1.25-.88,1.21-.91-1.21ZM12.99,14.24l.9-1.25.88,1.25-.88,1.21-.9-1.21ZM12.99,16.71l.9-1.25.88,1.25-.88,1.21-.9-1.21ZM12.99,19.17l.9-1.25.88,1.25-.88,1.21-.9-1.21ZM12.99,21.63l.9-1.25.88,1.25-.88,1.21-.9-1.21ZM12.99,24.09l.9-1.25.88,1.25-.88,1.21-.9-1.21ZM14.77,16.71l.9-1.25.91,1.25-.91,1.21-.9-1.21ZM14.77,19.17l.9-1.25.91,1.25-.91,1.21-.9-1.21ZM14.77,21.63l.9-1.25.91,1.25-.91,1.21-.9-1.21ZM16.58,19.17l.9-1.25.88,1.25-.88,1.21-.9-1.21Z"/>
          <path class="cls-1" d="M14.1,12.67l.9-1.25.88,1.25-.88,1.21-.9-1.21ZM15.88,10.21l.91-1.25.88,1.25-.88,1.21-.91-1.21ZM15.88,12.67l.91-1.25.88,1.25-.88,1.21-.91-1.21ZM15.88,15.13l.91-1.25.88,1.25-.88,1.21-.91-1.21ZM17.67,7.75l.9-1.25.88,1.25-.88,1.21-.9-1.21ZM17.67,10.21l.9-1.25.88,1.25-.88,1.21-.9-1.21ZM17.67,12.67l.9-1.25.88,1.25-.88,1.21-.9-1.21ZM17.67,15.13l.9-1.25.88,1.25-.88,1.21-.9-1.21ZM17.67,17.59l.9-1.25.88,1.25-.88,1.21-.9-1.21ZM19.45,10.21l.9-1.25.91,1.25-.91,1.21-.9-1.21ZM19.45,12.67l.9-1.25.91,1.25-.91,1.21-.9-1.21ZM19.45,15.13l.9-1.25.91,1.25-.91,1.21-.9-1.21ZM21.26,12.67l.9-1.25.88,1.25-.88,1.21-.9-1.21Z"/>
          <path class="cls-1" d="M0,32.15l.9-1.25.88,1.25-.88,1.21-.9-1.21ZM1.78,29.69l.91-1.25.88,1.25-.88,1.21-.91-1.21ZM1.78,32.15l.91-1.25.88,1.25-.88,1.21-.91-1.21ZM1.78,34.62l.91-1.25.88,1.25-.88,1.21-.91-1.21ZM3.57,27.23l.9-1.25.88,1.25-.88,1.21-.9-1.21ZM3.57,29.69l.9-1.25.88,1.25-.88,1.21-.9-1.21ZM3.57,32.15l.9-1.25.88,1.25-.88,1.21-.9-1.21ZM3.57,34.62l.9-1.25.88,1.25-.88,1.21-.9-1.21ZM3.57,37.08l.9-1.25.88,1.25-.88,1.21-.9-1.21ZM5.35,29.69l.9-1.25.91,1.25-.91,1.21-.9-1.21ZM5.35,32.15l.9-1.25.91,1.25-.91,1.21-.9-1.21ZM5.35,34.62l.9-1.25.91,1.25-.91,1.21-.9-1.21ZM7.16,32.15l.9-1.25.88,1.25-.88,1.21-.9-1.21Z"/>
          <path class="cls-1" d="M9.42,32.15l.9-1.25.88,1.25-.88,1.21-.9-1.21ZM11.2,29.69l.91-1.25.88,1.25-.88,1.21-.91-1.21ZM11.2,32.15l.91-1.25.88,1.25-.88,1.21-.91-1.21ZM11.2,34.62l.91-1.25.88,1.25-.88,1.21-.91-1.21ZM12.99,27.23l.9-1.25.88,1.25-.88,1.21-.9-1.21ZM12.99,29.69l.9-1.25.88,1.25-.88,1.21-.9-1.21ZM12.99,32.15l.9-1.25.88,1.25-.88,1.21-.9-1.21ZM12.99,34.62l.9-1.25.88,1.25-.88,1.21-.9-1.21ZM12.99,37.08l.9-1.25.88,1.25-.88,1.21-.9-1.21ZM14.77,29.69l.9-1.25.91,1.25-.91,1.21-.9-1.21ZM14.77,32.15l.9-1.25.91,1.25-.91,1.21-.9-1.21ZM14.77,34.62l.9-1.25.91,1.25-.91,1.21-.9-1.21ZM16.58,32.15l.9-1.25.88,1.25-.88,1.21-.9-1.21Z"/>
          <path class="cls-1" d="M14.11,38.63l.9-1.25.88,1.25-.88,1.21-.9-1.21ZM15.89,36.17l.91-1.25.88,1.25-.88,1.21-.91-1.21ZM15.89,38.63l.91-1.25.88,1.25-.88,1.21-.91-1.21ZM15.89,41.09l.91-1.25.88,1.25-.88,1.21-.91-1.21ZM17.68,33.71l.9-1.25.88,1.25-.88,1.21-.9-1.21ZM17.68,36.17l.9-1.25.88,1.25-.88,1.21-.9-1.21ZM17.68,38.63l.9-1.25.88,1.25-.88,1.21-.9-1.21ZM17.68,41.09l.9-1.25.88,1.25-.88,1.21-.9-1.21ZM17.68,43.56l.9-1.25.88,1.25-.88,1.21-.9-1.21ZM19.46,36.17l.9-1.25.91,1.25-.91,1.21-.9-1.21ZM19.46,38.63l.9-1.25.91,1.25-.91,1.21-.9-1.21ZM19.46,41.09l.9-1.25.91,1.25-.91,1.21-.9-1.21ZM21.27,38.63l.9-1.25.88,1.25-.88,1.21-.9-1.21Z"/>
          <path class="cls-1" d="M4.71,25.66l.9-1.25.88,1.25-.88,1.21-.9-1.21ZM6.49,23.2l.91-1.25.88,1.25-.88,1.21-.91-1.21ZM6.49,25.66l.91-1.25.88,1.25-.88,1.21-.91-1.21ZM6.49,28.12l.91-1.25.88,1.25-.88,1.21-.91-1.21ZM8.28,20.74l.9-1.25.88,1.25-.88,1.21-.9-1.21ZM8.28,23.2l.9-1.25.88,1.25-.88,1.21-.9-1.21ZM8.28,25.66l.9-1.25.88,1.25-.88,1.21-.9-1.21ZM8.28,28.12l.9-1.25.88,1.25-.88,1.21-.9-1.21ZM8.28,30.58l.9-1.25.88,1.25-.88,1.21-.9-1.21ZM10.06,23.2l.9-1.25.91,1.25-.91,1.21-.9-1.21ZM10.06,25.66l.9-1.25.91,1.25-.91,1.21-.9-1.21ZM10.06,28.12l.9-1.25.91,1.25-.91,1.21-.9-1.21ZM11.87,25.66l.9-1.25.88,1.25-.88,1.21-.9-1.21Z"/>
          <path class="cls-1" d="M0,45.14l.9-1.25.88,1.25-.88,1.21-.9-1.21ZM1.78,42.68l.91-1.25.88,1.25-.88,1.21-.91-1.21ZM1.78,45.14l.91-1.25.88,1.25-.88,1.21-.91-1.21ZM1.78,47.6l.91-1.25.88,1.25-.88,1.21-.91-1.21ZM3.57,40.22l.9-1.25.88,1.25-.88,1.21-.9-1.21ZM3.57,42.68l.9-1.25.88,1.25-.88,1.21-.9-1.21ZM3.57,45.14l.9-1.25.88,1.25-.88,1.21-.9-1.21ZM3.57,47.6l.9-1.25.88,1.25-.88,1.21-.9-1.21ZM3.57,50.06l.9-1.25.88,1.25-.88,1.21-.9-1.21ZM5.35,42.68l.9-1.25.91,1.25-.91,1.21-.9-1.21ZM5.35,45.14l.9-1.25.91,1.25-.91,1.21-.9-1.21ZM5.35,47.6l.9-1.25.91,1.25-.91,1.21-.9-1.21ZM7.16,45.14l.9-1.25.88,1.25-.88,1.21-.9-1.21Z"/>
          <path class="cls-1" d="M18.82,45.14l.9-1.25.88,1.25-.88,1.21-.9-1.21ZM20.6,42.68l.91-1.25.88,1.25-.88,1.21-.91-1.21ZM20.6,45.14l.91-1.25.88,1.25-.88,1.21-.91-1.21ZM20.6,47.6l.91-1.25.88,1.25-.88,1.21-.91-1.21ZM22.39,40.22l.9-1.25.88,1.25-.88,1.21-.9-1.21ZM22.39,42.68l.9-1.25.88,1.25-.88,1.21-.9-1.21ZM22.39,45.14l.9-1.25.88,1.25-.88,1.21-.9-1.21ZM22.39,47.6l.9-1.25.88,1.25-.88,1.21-.9-1.21ZM22.39,50.06l.9-1.25.88,1.25-.88,1.21-.9-1.21ZM24.17,42.68l.9-1.25.91,1.25-.91,1.21-.9-1.21ZM24.17,45.14l.9-1.25.91,1.25-.91,1.21-.9-1.21ZM24.17,47.6l.9-1.25.91,1.25-.91,1.21-.9-1.21ZM25.98,45.14l.9-1.25.88,1.25-.88,1.21-.9-1.21Z"/>
        </g>
        <g>
          <path class="cls-1" d="M141.55,6.18l.9-1.25.88,1.25-.88,1.21-.9-1.21ZM143.33,3.72l.91-1.25.88,1.25-.88,1.21-.91-1.21ZM143.33,6.18l.91-1.25.88,1.25-.88,1.21-.91-1.21ZM143.33,8.64l.91-1.25.88,1.25-.88,1.21-.91-1.21ZM145.12,1.26l.9-1.25.88,1.25-.88,1.21-.9-1.21ZM145.12,3.72l.9-1.25.88,1.25-.88,1.21-.9-1.21ZM145.12,6.18l.9-1.25.88,1.25-.88,1.21-.9-1.21ZM145.12,8.64l.9-1.25.88,1.25-.88,1.21-.9-1.21ZM145.12,11.1l.9-1.25.88,1.25-.88,1.21-.9-1.21ZM146.9,3.72l.9-1.25.91,1.25-.91,1.21-.9-1.21ZM146.9,6.18l.9-1.25.91,1.25-.91,1.21-.9-1.21ZM146.9,8.64l.9-1.25.91,1.25-.91,1.21-.9-1.21ZM148.71,6.18l.9-1.25.88,1.25-.88,1.21-.9-1.21Z"/>
          <path class="cls-1" d="M141.55,19.17l.9-1.25.88,1.25-.88,1.21-.9-1.21ZM143.33,16.71l.91-1.25.88,1.25-.88,1.21-.91-1.21ZM143.33,19.17l.91-1.25.88,1.25-.88,1.21-.91-1.21ZM143.33,21.63l.91-1.25.88,1.25-.88,1.21-.91-1.21ZM145.12,14.24l.9-1.25.88,1.25-.88,1.21-.9-1.21ZM145.12,16.71l.9-1.25.88,1.25-.88,1.21-.9-1.21ZM145.12,19.17l.9-1.25.88,1.25-.88,1.21-.9-1.21ZM145.12,21.63l.9-1.25.88,1.25-.88,1.21-.9-1.21ZM145.12,24.09l.9-1.25.88,1.25-.88,1.21-.9-1.21ZM146.9,16.71l.9-1.25.91,1.25-.91,1.21-.9-1.21ZM146.9,19.17l.9-1.25.91,1.25-.91,1.21-.9-1.21ZM146.9,21.63l.9-1.25.91,1.25-.91,1.21-.9-1.21ZM148.71,19.17l.9-1.25.88,1.25-.88,1.21-.9-1.21Z"/>
          <path class="cls-1" d="M141.55,32.15l.9-1.25.88,1.25-.88,1.21-.9-1.21ZM143.33,29.69l.91-1.25.88,1.25-.88,1.21-.91-1.21ZM143.33,32.15l.91-1.25.88,1.25-.88,1.21-.91-1.21ZM143.33,34.62l.91-1.25.88,1.25-.88,1.21-.91-1.21ZM145.12,27.23l.9-1.25.88,1.25-.88,1.21-.9-1.21ZM145.12,29.69l.9-1.25.88,1.25-.88,1.21-.9-1.21ZM145.12,32.15l.9-1.25.88,1.25-.88,1.21-.9-1.21ZM145.12,34.62l.9-1.25.88,1.25-.88,1.21-.9-1.21ZM145.12,37.08l.9-1.25.88,1.25-.88,1.21-.9-1.21ZM146.9,29.69l.9-1.25.91,1.25-.91,1.21-.9-1.21ZM146.9,32.15l.9-1.25.91,1.25-.91,1.21-.9-1.21ZM146.9,34.62l.9-1.25.91,1.25-.91,1.21-.9-1.21ZM148.71,32.15l.9-1.25.88,1.25-.88,1.21-.9-1.21Z"/>
          <path class="cls-1" d="M141.55,45.14l.9-1.25.88,1.25-.88,1.21-.9-1.21ZM143.33,42.68l.91-1.25.88,1.25-.88,1.21-.91-1.21ZM143.33,45.14l.91-1.25.88,1.25-.88,1.21-.91-1.21ZM143.33,47.6l.91-1.25.88,1.25-.88,1.21-.91-1.21ZM145.12,40.22l.9-1.25.88,1.25-.88,1.21-.9-1.21ZM145.12,42.68l.9-1.25.88,1.25-.88,1.21-.9-1.21ZM145.12,45.14l.9-1.25.88,1.25-.88,1.21-.9-1.21ZM145.12,47.6l.9-1.25.88,1.25-.88,1.21-.9-1.21ZM145.12,50.06l.9-1.25.88,1.25-.88,1.21-.9-1.21ZM146.9,42.68l.9-1.25.91,1.25-.91,1.21-.9-1.21ZM146.9,45.14l.9-1.25.91,1.25-.91,1.21-.9-1.21ZM146.9,47.6l.9-1.25.91,1.25-.91,1.21-.9-1.21ZM148.71,45.14l.9-1.25.88,1.25-.88,1.21-.9-1.21Z"/>
          <path class="cls-1" d="M151.53,6.18l.9-1.25.88,1.25-.88,1.21-.9-1.21ZM153.31,3.72l.91-1.25.88,1.25-.88,1.21-.91-1.21ZM153.31,6.18l.91-1.25.88,1.25-.88,1.21-.91-1.21ZM153.31,8.64l.91-1.25.88,1.25-.88,1.21-.91-1.21ZM155.1,1.26l.9-1.25.88,1.25-.88,1.21-.9-1.21ZM155.1,3.72l.9-1.25.88,1.25-.88,1.21-.9-1.21ZM155.1,6.18l.9-1.25.88,1.25-.88,1.21-.9-1.21ZM155.1,8.64l.9-1.25.88,1.25-.88,1.21-.9-1.21ZM155.1,11.1l.9-1.25.88,1.25-.88,1.21-.9-1.21ZM156.88,3.72l.9-1.25.91,1.25-.91,1.21-.9-1.21ZM156.88,6.18l.9-1.25.91,1.25-.91,1.21-.9-1.21ZM156.88,8.64l.9-1.25.91,1.25-.91,1.21-.9-1.21ZM158.69,6.18l.9-1.25.88,1.25-.88,1.21-.9-1.21Z"/>
          <path class="cls-1" d="M151.53,32.15l.9-1.25.88,1.25-.88,1.21-.9-1.21ZM153.31,29.69l.91-1.25.88,1.25-.88,1.21-.91-1.21ZM153.31,32.15l.91-1.25.88,1.25-.88,1.21-.91-1.21ZM153.31,34.62l.91-1.25.88,1.25-.88,1.21-.91-1.21ZM155.1,27.23l.9-1.25.88,1.25-.88,1.21-.9-1.21ZM155.1,29.69l.9-1.25.88,1.25-.88,1.21-.9-1.21ZM155.1,32.15l.9-1.25.88,1.25-.88,1.21-.9-1.21ZM155.1,34.62l.9-1.25.88,1.25-.88,1.21-.9-1.21ZM155.1,37.08l.9-1.25.88,1.25-.88,1.21-.9-1.21ZM156.88,29.69l.9-1.25.91,1.25-.91,1.21-.9-1.21ZM156.88,32.15l.9-1.25.91,1.25-.91,1.21-.9-1.21ZM156.88,34.62l.9-1.25.91,1.25-.91,1.21-.9-1.21ZM158.69,32.15l.9-1.25.88,1.25-.88,1.21-.9-1.21Z"/>
          <path class="cls-1" d="M161.52,6.18l.9-1.25.88,1.25-.88,1.21-.9-1.21ZM163.29,3.72l.91-1.25.88,1.25-.88,1.21-.91-1.21ZM163.29,6.18l.91-1.25.88,1.25-.88,1.21-.91-1.21ZM163.29,8.64l.91-1.25.88,1.25-.88,1.21-.91-1.21ZM165.09,1.26l.9-1.25.88,1.25-.88,1.21-.9-1.21ZM165.09,3.72l.9-1.25.88,1.25-.88,1.21-.9-1.21ZM165.09,6.18l.9-1.25.88,1.25-.88,1.21-.9-1.21ZM165.09,8.64l.9-1.25.88,1.25-.88,1.21-.9-1.21ZM165.09,11.1l.9-1.25.88,1.25-.88,1.21-.9-1.21ZM166.86,3.72l.9-1.25.91,1.25-.91,1.21-.9-1.21ZM166.86,6.18l.9-1.25.91,1.25-.91,1.21-.9-1.21ZM166.86,8.64l.9-1.25.91,1.25-.91,1.21-.9-1.21ZM168.67,6.18l.9-1.25.88,1.25-.88,1.21-.9-1.21Z"/>
          <path class="cls-1" d="M161.52,19.17l.9-1.25.88,1.25-.88,1.21-.9-1.21ZM163.29,16.71l.91-1.25.88,1.25-.88,1.21-.91-1.21ZM163.29,19.17l.91-1.25.88,1.25-.88,1.21-.91-1.21ZM163.29,21.63l.91-1.25.88,1.25-.88,1.21-.91-1.21ZM165.09,14.24l.9-1.25.88,1.25-.88,1.21-.9-1.21ZM165.09,16.71l.9-1.25.88,1.25-.88,1.21-.9-1.21ZM165.09,19.17l.9-1.25.88,1.25-.88,1.21-.9-1.21ZM165.09,21.63l.9-1.25.88,1.25-.88,1.21-.9-1.21ZM165.09,24.09l.9-1.25.88,1.25-.88,1.21-.9-1.21ZM166.86,16.71l.9-1.25.91,1.25-.91,1.21-.9-1.21ZM166.86,19.17l.9-1.25.91,1.25-.91,1.21-.9-1.21ZM166.86,21.63l.9-1.25.91,1.25-.91,1.21-.9-1.21ZM168.67,19.17l.9-1.25.88,1.25-.88,1.21-.9-1.21Z"/>
          <path class="cls-1" d="M161.52,32.15l.9-1.25.88,1.25-.88,1.21-.9-1.21ZM163.29,29.69l.91-1.25.88,1.25-.88,1.21-.91-1.21ZM163.29,32.15l.91-1.25.88,1.25-.88,1.21-.91-1.21ZM163.29,34.62l.91-1.25.88,1.25-.88,1.21-.91-1.21ZM165.09,27.23l.9-1.25.88,1.25-.88,1.21-.9-1.21ZM165.09,29.69l.9-1.25.88,1.25-.88,1.21-.9-1.21ZM165.09,32.15l.9-1.25.88,1.25-.88,1.21-.9-1.21ZM165.09,34.62l.9-1.25.88,1.25-.88,1.21-.9-1.21ZM165.09,37.08l.9-1.25.88,1.25-.88,1.21-.9-1.21ZM166.86,29.69l.9-1.25.91,1.25-.91,1.21-.9-1.21ZM166.86,32.15l.9-1.25.91,1.25-.91,1.21-.9-1.21ZM166.86,34.62l.9-1.25.91,1.25-.91,1.21-.9-1.21ZM168.67,32.15l.9-1.25.88,1.25-.88,1.21-.9-1.21Z"/>
          <path class="cls-1" d="M161.52,45.14l.9-1.25.88,1.25-.88,1.21-.9-1.21ZM163.29,42.68l.91-1.25.88,1.25-.88,1.21-.91-1.21ZM163.29,45.14l.91-1.25.88,1.25-.88,1.21-.91-1.21ZM163.29,47.6l.91-1.25.88,1.25-.88,1.21-.91-1.21ZM165.09,40.22l.9-1.25.88,1.25-.88,1.21-.9-1.21ZM165.09,42.68l.9-1.25.88,1.25-.88,1.21-.9-1.21ZM165.09,45.14l.9-1.25.88,1.25-.88,1.21-.9-1.21ZM165.09,47.6l.9-1.25.88,1.25-.88,1.21-.9-1.21ZM165.09,50.06l.9-1.25.88,1.25-.88,1.21-.9-1.21ZM166.86,42.68l.9-1.25.91,1.25-.91,1.21-.9-1.21ZM166.86,45.14l.9-1.25.91,1.25-.91,1.21-.9-1.21ZM166.86,47.6l.9-1.25.91,1.25-.91,1.21-.9-1.21ZM168.67,45.14l.9-1.25.88,1.25-.88,1.21-.9-1.21Z"/>
        </g>
        <g>
          <path class="cls-1" d="M106.75,6.17l.9-1.25.88,1.25-.88,1.21-.9-1.21ZM108.53,3.71l.91-1.25.88,1.25-.88,1.21-.91-1.21ZM108.53,6.17l.91-1.25.88,1.25-.88,1.21-.91-1.21ZM108.53,8.63l.91-1.25.88,1.25-.88,1.21-.91-1.21ZM110.32,1.25l.9-1.25.88,1.25-.88,1.21-.9-1.21ZM110.32,3.71l.9-1.25.88,1.25-.88,1.21-.9-1.21ZM110.32,6.17l.9-1.25.88,1.25-.88,1.21-.9-1.21ZM110.32,8.63l.9-1.25.88,1.25-.88,1.21-.9-1.21ZM110.32,11.1l.9-1.25.88,1.25-.88,1.21-.9-1.21ZM112.1,3.71l.9-1.25.91,1.25-.91,1.21-.9-1.21ZM112.1,6.17l.9-1.25.91,1.25-.91,1.21-.9-1.21ZM112.1,8.63l.9-1.25.91,1.25-.91,1.21-.9-1.21ZM113.91,6.17l.9-1.25.88,1.25-.88,1.21-.9-1.21Z"/>
          <path class="cls-1" d="M125.57,6.18l.9-1.25.88,1.25-.88,1.21-.9-1.21ZM127.35,3.72l.91-1.25.88,1.25-.88,1.21-.91-1.21ZM127.35,6.18l.91-1.25.88,1.25-.88,1.21-.91-1.21ZM127.35,8.64l.91-1.25.88,1.25-.88,1.21-.91-1.21ZM129.14,1.26l.9-1.25.88,1.25-.88,1.21-.9-1.21ZM129.14,3.72l.9-1.25.88,1.25-.88,1.21-.9-1.21ZM129.14,6.18l.9-1.25.88,1.25-.88,1.21-.9-1.21ZM129.14,8.64l.9-1.25.88,1.25-.88,1.21-.9-1.21ZM129.14,11.1l.9-1.25.88,1.25-.88,1.21-.9-1.21ZM130.92,3.72l.9-1.25.91,1.25-.91,1.21-.9-1.21ZM130.92,6.18l.9-1.25.91,1.25-.91,1.21-.9-1.21ZM130.92,8.64l.9-1.25.91,1.25-.91,1.21-.9-1.21ZM132.73,6.18l.9-1.25.88,1.25-.88,1.21-.9-1.21Z"/>
          <path class="cls-1" d="M106.76,19.15l.9-1.25.88,1.25-.88,1.21-.9-1.21ZM108.54,16.69l.91-1.25.88,1.25-.88,1.21-.91-1.21ZM108.54,19.15l.91-1.25.88,1.25-.88,1.21-.91-1.21ZM108.54,21.61l.91-1.25.88,1.25-.88,1.21-.91-1.21ZM110.33,14.23l.9-1.25.88,1.25-.88,1.21-.9-1.21ZM110.33,16.69l.9-1.25.88,1.25-.88,1.21-.9-1.21ZM110.33,19.15l.9-1.25.88,1.25-.88,1.21-.9-1.21ZM110.33,21.61l.9-1.25.88,1.25-.88,1.21-.9-1.21ZM110.33,24.08l.9-1.25.88,1.25-.88,1.21-.9-1.21ZM112.11,16.69l.9-1.25.91,1.25-.91,1.21-.9-1.21ZM112.11,19.15l.9-1.25.91,1.25-.91,1.21-.9-1.21ZM112.11,21.61l.9-1.25.91,1.25-.91,1.21-.9-1.21ZM113.92,19.15l.9-1.25.88,1.25-.88,1.21-.9-1.21Z"/>
          <path class="cls-1" d="M116.16,19.17l.9-1.25.88,1.25-.88,1.21-.9-1.21ZM117.94,16.71l.91-1.25.88,1.25-.88,1.21-.91-1.21ZM117.94,19.17l.91-1.25.88,1.25-.88,1.21-.91-1.21ZM117.94,21.63l.91-1.25.88,1.25-.88,1.21-.91-1.21ZM119.73,14.24l.9-1.25.88,1.25-.88,1.21-.9-1.21ZM119.73,16.71l.9-1.25.88,1.25-.88,1.21-.9-1.21ZM119.73,19.17l.9-1.25.88,1.25-.88,1.21-.9-1.21ZM119.73,21.63l.9-1.25.88,1.25-.88,1.21-.9-1.21ZM119.73,24.09l.9-1.25.88,1.25-.88,1.21-.9-1.21ZM121.51,16.71l.9-1.25.91,1.25-.91,1.21-.9-1.21ZM121.51,19.17l.9-1.25.91,1.25-.91,1.21-.9-1.21ZM121.51,21.63l.9-1.25.91,1.25-.91,1.21-.9-1.21ZM123.32,19.17l.9-1.25.88,1.25-.88,1.21-.9-1.21Z"/>
          <path class="cls-1" d="M120.85,12.67l.9-1.25.88,1.25-.88,1.21-.9-1.21ZM122.62,10.21l.91-1.25.88,1.25-.88,1.21-.91-1.21ZM122.62,12.67l.91-1.25.88,1.25-.88,1.21-.91-1.21ZM122.62,15.13l.91-1.25.88,1.25-.88,1.21-.91-1.21ZM124.42,7.75l.9-1.25.88,1.25-.88,1.21-.9-1.21ZM124.42,10.21l.9-1.25.88,1.25-.88,1.21-.9-1.21ZM124.42,12.67l.9-1.25.88,1.25-.88,1.21-.9-1.21ZM124.42,15.13l.9-1.25.88,1.25-.88,1.21-.9-1.21ZM124.42,17.59l.9-1.25.88,1.25-.88,1.21-.9-1.21ZM126.19,10.21l.9-1.25.91,1.25-.91,1.21-.9-1.21ZM126.19,12.67l.9-1.25.91,1.25-.91,1.21-.9-1.21ZM126.19,15.13l.9-1.25.91,1.25-.91,1.21-.9-1.21ZM128,12.67l.9-1.25.88,1.25-.88,1.21-.9-1.21Z"/>
          <path class="cls-1" d="M106.74,32.15l.9-1.25.88,1.25-.88,1.21-.9-1.21ZM108.52,29.69l.91-1.25.88,1.25-.88,1.21-.91-1.21ZM108.52,32.15l.91-1.25.88,1.25-.88,1.21-.91-1.21ZM108.52,34.62l.91-1.25.88,1.25-.88,1.21-.91-1.21ZM110.31,27.23l.9-1.25.88,1.25-.88,1.21-.9-1.21ZM110.31,29.69l.9-1.25.88,1.25-.88,1.21-.9-1.21ZM110.31,32.15l.9-1.25.88,1.25-.88,1.21-.9-1.21ZM110.31,34.62l.9-1.25.88,1.25-.88,1.21-.9-1.21ZM110.31,37.08l.9-1.25.88,1.25-.88,1.21-.9-1.21ZM112.09,29.69l.9-1.25.91,1.25-.91,1.21-.9-1.21ZM112.09,32.15l.9-1.25.91,1.25-.91,1.21-.9-1.21ZM112.09,34.62l.9-1.25.91,1.25-.91,1.21-.9-1.21ZM113.9,32.15l.9-1.25.88,1.25-.88,1.21-.9-1.21Z"/>
          <path class="cls-1" d="M116.16,32.15l.9-1.25.88,1.25-.88,1.21-.9-1.21ZM117.94,29.69l.91-1.25.88,1.25-.88,1.21-.91-1.21ZM117.94,32.15l.91-1.25.88,1.25-.88,1.21-.91-1.21ZM117.94,34.62l.91-1.25.88,1.25-.88,1.21-.91-1.21ZM119.73,27.23l.9-1.25.88,1.25-.88,1.21-.9-1.21ZM119.73,29.69l.9-1.25.88,1.25-.88,1.21-.9-1.21ZM119.73,32.15l.9-1.25.88,1.25-.88,1.21-.9-1.21ZM119.73,34.62l.9-1.25.88,1.25-.88,1.21-.9-1.21ZM119.73,37.08l.9-1.25.88,1.25-.88,1.21-.9-1.21ZM121.51,29.69l.9-1.25.91,1.25-.91,1.21-.9-1.21ZM121.51,32.15l.9-1.25.91,1.25-.91,1.21-.9-1.21ZM121.51,34.62l.9-1.25.91,1.25-.91,1.21-.9-1.21ZM123.32,32.15l.9-1.25.88,1.25-.88,1.21-.9-1.21Z"/>
          <path class="cls-1" d="M120.85,38.63l.9-1.25.88,1.25-.88,1.21-.9-1.21ZM122.63,36.17l.91-1.25.88,1.25-.88,1.21-.91-1.21ZM122.63,38.63l.91-1.25.88,1.25-.88,1.21-.91-1.21ZM122.63,41.09l.91-1.25.88,1.25-.88,1.21-.91-1.21ZM124.42,33.71l.9-1.25.88,1.25-.88,1.21-.9-1.21ZM124.42,36.17l.9-1.25.88,1.25-.88,1.21-.9-1.21ZM124.42,38.63l.9-1.25.88,1.25-.88,1.21-.9-1.21ZM124.42,41.09l.9-1.25.88,1.25-.88,1.21-.9-1.21ZM124.42,43.56l.9-1.25.88,1.25-.88,1.21-.9-1.21ZM126.2,36.17l.9-1.25.91,1.25-.91,1.21-.9-1.21ZM126.2,38.63l.9-1.25.91,1.25-.91,1.21-.9-1.21ZM126.2,41.09l.9-1.25.91,1.25-.91,1.21-.9-1.21ZM128.01,38.63l.9-1.25.88,1.25-.88,1.21-.9-1.21Z"/>
          <path class="cls-1" d="M111.45,25.66l.9-1.25.88,1.25-.88,1.21-.9-1.21ZM113.23,23.2l.91-1.25.88,1.25-.88,1.21-.91-1.21ZM113.23,25.66l.91-1.25.88,1.25-.88,1.21-.91-1.21ZM113.23,28.12l.91-1.25.88,1.25-.88,1.21-.91-1.21ZM115.02,20.74l.9-1.25.88,1.25-.88,1.21-.9-1.21ZM115.02,23.2l.9-1.25.88,1.25-.88,1.21-.9-1.21ZM115.02,25.66l.9-1.25.88,1.25-.88,1.21-.9-1.21ZM115.02,28.12l.9-1.25.88,1.25-.88,1.21-.9-1.21ZM115.02,30.58l.9-1.25.88,1.25-.88,1.21-.9-1.21ZM116.8,23.2l.9-1.25.91,1.25-.91,1.21-.9-1.21ZM116.8,25.66l.9-1.25.91,1.25-.91,1.21-.9-1.21ZM116.8,28.12l.9-1.25.91,1.25-.91,1.21-.9-1.21ZM118.61,25.66l.9-1.25.88,1.25-.88,1.21-.9-1.21Z"/>
          <path class="cls-1" d="M106.74,45.14l.9-1.25.88,1.25-.88,1.21-.9-1.21ZM108.52,42.68l.91-1.25.88,1.25-.88,1.21-.91-1.21ZM108.52,45.14l.91-1.25.88,1.25-.88,1.21-.91-1.21ZM108.52,47.6l.91-1.25.88,1.25-.88,1.21-.91-1.21ZM110.31,40.22l.9-1.25.88,1.25-.88,1.21-.9-1.21ZM110.31,42.68l.9-1.25.88,1.25-.88,1.21-.9-1.21ZM110.31,45.14l.9-1.25.88,1.25-.88,1.21-.9-1.21ZM110.31,47.6l.9-1.25.88,1.25-.88,1.21-.9-1.21ZM110.31,50.06l.9-1.25.88,1.25-.88,1.21-.9-1.21ZM112.09,42.68l.9-1.25.91,1.25-.91,1.21-.9-1.21ZM112.09,45.14l.9-1.25.91,1.25-.91,1.21-.9-1.21ZM112.09,47.6l.9-1.25.91,1.25-.91,1.21-.9-1.21ZM113.9,45.14l.9-1.25.88,1.25-.88,1.21-.9-1.21Z"/>
          <path class="cls-1" d="M125.57,45.14l.9-1.25.88,1.25-.88,1.21-.9-1.21ZM127.34,42.68l.91-1.25.88,1.25-.88,1.21-.91-1.21ZM127.34,45.14l.91-1.25.88,1.25-.88,1.21-.91-1.21ZM127.34,47.6l.91-1.25.88,1.25-.88,1.21-.91-1.21ZM129.13,40.22l.9-1.25.88,1.25-.88,1.21-.9-1.21ZM129.13,42.68l.9-1.25.88,1.25-.88,1.21-.9-1.21ZM129.13,45.14l.9-1.25.88,1.25-.88,1.21-.9-1.21ZM129.13,47.6l.9-1.25.88,1.25-.88,1.21-.9-1.21ZM129.13,50.06l.9-1.25.88,1.25-.88,1.21-.9-1.21ZM130.91,42.68l.9-1.25.91,1.25-.91,1.21-.9-1.21ZM130.91,45.14l.9-1.25.91,1.25-.91,1.21-.9-1.21ZM130.91,47.6l.9-1.25.91,1.25-.91,1.21-.9-1.21ZM132.72,45.14l.9-1.25.88,1.25-.88,1.21-.9-1.21Z"/>
        </g>
      </g>
      <g>
        <g>
          <path class="cls-1" d="M184.28,35.56v-.98h-.96v-1.96h.96v-.96h2.9v-.94h-2.9v-.99h3.89v.96h.96v4.87h-4.86ZM187.19,32.64h-1.92v1.93h1.92v-1.93Z"/>
          <path class="cls-1" d="M196.31,34.58v.98h-2.92v-.99h1.93v-.95h-.96v-.96h-.96v-1.96h.96v-.96h2.93v.99h-1.94v.95h.96v.96h.98s0,1.95,0,1.95h-.98Z"/>
          <path class="cls-1" d="M202.49,35.56v-.98h-.96v-1.96h.96v-.96h2.9v-.94h-2.9v-.99h3.89v.96h.96v4.87h-4.86ZM205.4,32.64h-1.92v1.93h1.92v-1.93Z"/>
          <path class="cls-1" d="M219.34,35.56v-4.85h-.94v.96h-.98v3.88h-1.95v-4.85h-.95v.96h-.96v3.88h-1.95v-5.83h1.95v.96h.95v-.96h1.95v.96h1.91v-.96h1.95v.96h.97v4.87h-1.95Z"/>
          <path class="cls-1" d="M230.4,34.58v.98h-4.86v-7.77h1.95v1.94h2.9v.96h.96v3.89h-.96ZM229.41,30.71h-1.92v3.86h1.92v-3.86Z"/>
          <path class="cls-1" d="M235.62,35.56v-7.77h1.95v7.77h-1.95Z"/>
          <path class="cls-1" d="M246.67,34.58v.98h-3.89v-.98h-.96v-3.89h.96v-.96h3.89v.96h.96v.99h-.96v.96h-1.94v.96h-.96v.96h2.88v-.99h.99v1h-.96ZM245.68,30.71h-1.92v1.91h.95v-.95h.96v-.95Z"/>
          <path class="cls-1" d="M252.85,35.56v-.98h-.96v-1.96h.96v-.96h2.9v-.94h-2.9v-.99h3.89v.96h.96v4.87h-4.86ZM255.75,32.64h-1.92v1.93h1.92v-1.93Z"/>
          <path class="cls-1" d="M268.15,35.56v-.98h-.96v-3.89h.96v-.96h2.9v-1.94h1.95v7.77h-4.86ZM271.06,30.71h-1.92v3.86h1.92v-3.86Z"/>
          <path class="cls-1" d="M282.12,34.58v.98h-3.89v-.98h-.96v-3.89h.96v-.96h3.89v.96h.96v.99h-.96v.96h-1.94v.96h-.96v.96h2.88v-.99h.99v1h-.96ZM281.13,30.71h-1.92v1.91h.95v-.95h.96v-.95Z"/>
          <path class="cls-1" d="M300.3,35.56v-4.85h-.94v.96h-.98v3.88h-1.95v-4.85h-.95v.96h-.96v3.88h-1.95v-5.83h1.95v.96h.95v-.96h1.95v.96h1.91v-.96h1.95v.96h.97v4.87h-1.95Z"/>
          <path class="cls-1" d="M311.37,34.58v.98h-3.89v-.98h-.96v-4.86h1.95v4.85h1.92v-4.85h1.95v4.86h-.96Z"/>
          <path class="cls-1" d="M320.45,35.56v-4.85h-.95v.96h-.96v3.88h-1.95v-5.83h1.95v.96h.95v-.96h1.95v.96h.96v4.87h-1.95Z"/>
          <path class="cls-1" d="M327.62,35.56v-.98h-.96v-3.89h.96v-.96h2.9v-1.94h1.95v7.77h-4.86ZM330.53,30.71h-1.92v3.86h1.92v-3.86Z"/>
          <path class="cls-1" d="M341.59,34.58v.98h-3.89v-.98h-.96v-3.89h.96v-.96h3.89v.96h.96v3.89h-.96ZM340.6,30.71h-1.92v3.86h1.92v-3.86Z"/>
          <path class="cls-1" d="M349.72,34.58v.98h-2.92v-.99h1.93v-.95h-.96v-.96h-.96v-1.96h.96v-.96h2.93v.99h-1.94v.95h.96v.96h.98s0,1.95,0,1.95h-.98Z"/>
          <path class="cls-1" d="M365.02,34.58v.98h-2.9v1.94h-1.95v-7.77h4.86v.96h.96v3.89h-.96ZM364.04,30.71h-1.92v3.86h1.92v-3.86Z"/>
          <path class="cls-1" d="M375.1,34.58v.98h-3.89v-.98h-.96v-3.89h.96v-.96h3.89v.96h.96v3.89h-.96ZM374.11,30.71h-1.92v3.86h1.92v-3.86Z"/>
          <path class="cls-1" d="M383.23,34.58v.98h-2.92v-.99h1.93v-.95h-.96v-.96h-.96v-1.96h.96v-.96h2.93v.99h-1.94v.95h.96v.96h.98s0,1.95,0,1.95h-.98Z"/>
          <path class="cls-1" d="M388.45,28.77v-.99h1.95v.99h-1.95ZM388.45,35.56v-5.83h1.95v5.83h-1.95Z"/>
          <path class="cls-1" d="M399.5,34.58v.98h-4.86v-7.77h1.95v1.94h2.9v.96h.96v3.89h-.96ZM398.51,30.71h-1.92v3.86h1.92v-3.86Z"/>
          <path class="cls-1" d="M404.72,35.56v-7.77h1.95v7.77h-1.95Z"/>
          <path class="cls-1" d="M415.77,34.58v.98h-3.89v-.98h-.96v-3.89h.96v-.96h3.89v.96h.96v.99h-.96v.96h-1.94v.96h-.96v.96h2.88v-.99h.99v1h-.96ZM414.78,30.71h-1.92v1.91h.95v-.95h.96v-.95Z"/>
          <path class="cls-1" d="M423.9,34.58v.98h-2.92v-.99h1.93v-.95h-.96v-.96h-.96v-1.96h.96v-.96h2.93v.99h-1.94v.95h.96v.96h.98s0,1.95,0,1.95h-.98Z"/>
        </g>
        <g>
          <path class="cls-1" d="M187.01,49.72v1.55h-1.56v-1.55h-2.32v-1.55h.77v-1.56h.79v1.57h-.77v.75h1.53v-3.88h1.56v3.88h.77v.79h-.77Z"/>
          <path class="cls-1" d="M193.51,47.4v1.55h-.78v2.32s-1.55,0-1.55,0v-2.34h.77v-1.55h.77v-1.53h-2.32v-.79h3.9v2.34h-.79Z"/>
          <path class="cls-1" d="M204.21,50.5v.78h-2.33v-.79h1.54v-.76h-.77v-.77h-.77v-1.57h.77v-.77h2.34v.79h-1.55v.76h.77v.77h.78s0,1.56,0,1.56h-.78Z"/>
          <path class="cls-1" d="M209.15,51.28v-.78h-.77v-1.57h.77v-.77h2.32v-.75h-2.32v-.79h3.11v.77h.77v3.89h-3.89ZM211.48,48.94h-1.53v1.54h1.53v-1.54Z"/>
          <path class="cls-1" d="M216.44,51.28v-6.22h1.56v6.22h-1.56Z"/>
          <path class="cls-1" d="M225.28,50.5v.78h-3.11v-.78h-.77v-3.11h.77v-.77h3.11v.77h.77v3.11h-.77ZM223.73,45.08v.77h-.79v-.79h.78v-.77h.79v.79h-.78ZM224.49,47.4h-1.53v3.09h1.53v-3.09Z"/>
          <path class="cls-1" d="M232.55,51.28v-3.88h-.76v.77h-.77v3.1h-1.56v-4.67h1.56v.77h.76v-.77h1.56v.77h.77v3.89h-1.56Z"/>
          <path class="cls-1" d="M244.79,51.28v-3.88h-.76v.77h-.77v3.1h-1.56v-4.67h1.56v.77h.76v-.77h1.56v.77h.77v3.89h-1.56Z"/>
          <path class="cls-1" d="M250.53,51.28v-.78h-.77v-1.57h.77v-.77h2.32v-.75h-2.32v-.79h3.11v.77h.77v3.89h-3.89ZM252.85,48.94h-1.53v1.54h1.53v-1.54Z"/>
          <path class="cls-1" d="M260.93,50.5v.78h-2.34v-.78h-.77v-3.11h.77v-.77h3.11v1.56h-.79v-.77h-1.53v3.09h1.53v-.79h.79v.8h-.77Z"/>
          <path class="cls-1" d="M265.09,45.85v-.79h1.56v.79h-1.56ZM265.09,51.28v-4.67h1.56v4.67h-1.56Z"/>
          <path class="cls-1" d="M273.93,50.5v.78h-3.11v-.78h-.77v-3.11h.77v-.77h3.11v.77h.77v3.11h-.77ZM273.14,47.4h-1.53v3.09h1.53v-3.09Z"/>
          <path class="cls-1" d="M281.2,51.28v-3.88h-.76v.77h-.77v3.1h-1.56v-4.67h1.56v.77h.76v-.77h1.56v.77h.77v3.89h-1.56Z"/>
          <path class="cls-1" d="M286.94,51.28v-.78h-.77v-1.57h.77v-.77h2.32v-.75h-2.32v-.79h3.11v.77h.77v3.89h-3.89ZM289.26,48.94h-1.53v1.54h1.53v-1.54Z"/>
          <path class="cls-1" d="M294.23,51.28v-6.22h1.56v6.22h-1.56Z"/>
          <path class="cls-1" d="M304.14,51.28v-.78h-.77v-3.11h.77v-.77h2.32v-1.55h1.56v6.22h-3.89ZM306.46,47.4h-1.53v3.09h1.53v-3.09Z"/>
          <path class="cls-1" d="M315.31,50.5v.78h-3.11v-.78h-.77v-3.11h.77v-.77h3.11v.77h.77v.79h-.77v.77h-1.55v.77h-.77v.77h2.31v-.79h.79v.8h-.77ZM314.52,47.4h-1.53v1.52h.76v-.76h.77v-.76Z"/>
          <path class="cls-1" d="M324.44,51.28v-.78h-.77v-1.57h.77v-.77h2.32v-.75h-2.32v-.79h3.11v.77h.77v3.89h-3.89ZM326.76,48.94h-1.53v1.54h1.53v-1.54Z"/>
          <path class="cls-1" d="M333.29,48.17v3.1h-1.56v-4.67h1.56v.77h.76v-.77h.79v1.56h-1.55Z"/>
          <path class="cls-1" d="M339.79,47.4v3.88h-1.56v-3.88h-.78v-.79h.78v-1.55h1.56v1.55h.77v.79h-.77Z"/>
          <path class="cls-1" d="M343.19,45.85v-.79h1.56v.79h-1.56ZM343.19,51.28v-4.67h1.56v4.67h-1.56Z"/>
          <path class="cls-1" d="M350.47,50.5v.78h-2.33v-.79h1.54v-.76h-.77v-.77h-.77v-1.57h.77v-.77h2.34v.79h-1.55v.76h.77v.77h.78s0,1.56,0,1.56h-.78Z"/>
          <path class="cls-1" d="M356.21,47.4v3.88h-1.56v-3.88h-.78v-.79h.78v-1.55h1.56v1.55h.77v.79h-.77Z"/>
          <path class="cls-1" d="M360.37,51.28v-.78h-.77v-1.57h.77v-.77h2.32v-.75h-2.32v-.79h3.11v.77h.77v3.89h-3.89ZM362.7,48.94h-1.53v1.54h1.53v-1.54Z"/>
          <path class="cls-1" d="M370,50.5v.78h-2.33v-.79h1.54v-.76h-.77v-.77h-.77v-1.57h.77v-.77h2.34v.79h-1.55v.76h.77v.77h.78s0,1.56,0,1.56h-.78Z"/>
        </g>
      </g>
    </g>
  </g>
</svg>