<?xml version="1.0" encoding="UTF-8"?>
<svg id="Layer_2" data-name="Layer 2" xmlns="http://www.w3.org/2000/svg" viewBox="0 0 209.01 25.14">
  <defs>
    <style>
      .cls-1 {
        fill: #fff;
      }
    </style>
  </defs>
  <g id="Contenido">
    <g>
      <g>
        <path class="cls-1" d="M17.51,3.02l.44.6h-.89l.45-.6ZM17.06,2.42h.89l-.44.6-.45-.6ZM17.95,3.62l.44.6h-.89l.45-.6ZM17.5,1.82h.89l-.44.6-.45-.6ZM17.84,3.11h4.22l-.3.42h-3.62l-.3-.42ZM17.84,2.93l.3-.42h3.62l.3.42h-4.22ZM18.39,4.23l.44.6h-.89l.45-.6ZM17.94,1.21h.89l-.44.6-.45-.6ZM18.28,3.71h3.36s-.31.43-.31.43h0s-2.74,0-2.74,0l-.31-.43ZM18.28,2.32l.31-.43h2.74s0,0,0,0l.31.42h-3.36ZM18.83,4.83l.44.6h-.89l.45-.6ZM18.38.61h.89l-.44.6-.45-.6ZM18.71,4.31h2.49l-.31.43h-1.87l-.31-.43ZM18.71,1.72l.31-.43h1.87l.31.43h-2.49ZM19.27,5.43l.44.6h-.89l.45-.6ZM18.82,0h.89l-.44.6-.45-.6ZM19.15,4.92h1.61l-.31.43h-.99l-.31-.43ZM19.15,1.12l.31-.43h.99l.31.43h-1.61ZM19.58,5.52h.75l-.37.52-.38-.52ZM19.58.52l.38-.52.37.52h-.75ZM20.64,5.43l.45.6h-.89l.44-.6ZM20.2,0h.89l-.45.6-.44-.6ZM21.08,4.83l.45.6h-.89l.44-.6ZM20.64.61h.89l-.45.6-.44-.6ZM21.52,4.23l.45.6h-.89l.44-.6ZM21.08,1.21h.89l-.45.6-.44-.6ZM21.96,3.62l.45.6h-.89l.44-.6ZM21.52,1.82h.89l-.45.6-.44-.6ZM22.4,3.02l.45.6h-.89l.44-.6ZM21.96,2.42h.89l-.45.6-.44-.6Z"/>
        <path class="cls-1" d="M17.51,9.39l.44.6h-.89l.45-.6ZM17.06,8.79h.89l-.44.6-.45-.6ZM17.95,9.99l.44.6h-.89l.45-.6ZM17.5,8.18h.89l-.44.6-.45-.6ZM17.84,9.47h4.22l-.3.42h-3.62l-.3-.42ZM17.84,9.29l.3-.42h3.62l.3.42h-4.22ZM18.39,10.59l.44.6h-.89l.45-.6ZM17.94,7.58h.89l-.44.6-.45-.6ZM18.28,10.08h3.36s-.31.43-.31.43h0s-2.74,0-2.74,0l-.31-.43ZM18.28,8.69l.31-.43h2.74s0,0,0,0l.31.42h-3.36ZM18.83,11.2l.44.6h-.89l.45-.6ZM18.38,6.98h.89l-.44.6-.45-.6ZM18.71,10.68h2.49l-.31.43h-1.87l-.31-.43ZM18.71,8.09l.31-.43h1.87l.31.43h-2.49ZM19.27,11.8l.44.6h-.89l.45-.6ZM18.82,6.38h.89l-.44.6-.45-.6ZM19.15,11.28h1.61l-.31.43h-.99l-.31-.43ZM19.15,7.49l.31-.43h.99l.31.43h-1.61ZM19.58,11.89h.75l-.37.52-.38-.52ZM19.58,6.88l.38-.52.37.52h-.75ZM20.64,11.8l.45.6h-.89l.44-.6ZM20.2,6.38h.89l-.45.6-.44-.6ZM21.08,11.2l.45.6h-.89l.44-.6ZM20.64,6.98h.89l-.45.6-.44-.6ZM21.52,10.59l.45.6h-.89l.44-.6ZM21.08,7.58h.89l-.45.6-.44-.6ZM21.96,9.99l.45.6h-.89l.44-.6ZM21.52,8.18h.89l-.45.6-.44-.6ZM22.4,9.39l.45.6h-.89l.44-.6ZM21.96,8.79h.89l-.45.6-.44-.6Z"/>
        <path class="cls-1" d="M17.51,15.76l.44.6h-.89l.45-.6ZM17.06,15.15h.89l-.44.6-.45-.6ZM17.95,16.36l.44.6h-.89l.45-.6ZM17.5,14.55h.89l-.44.6-.45-.6ZM17.84,15.84h4.22l-.3.42h-3.62l-.3-.42ZM17.84,15.66l.3-.42h3.62l.3.42h-4.22ZM18.39,16.96l.44.6h-.89l.45-.6ZM17.94,13.95h.89l-.44.6-.45-.6ZM18.28,16.44h3.36s-.31.43-.31.43h0s-2.74,0-2.74,0l-.31-.43ZM18.28,15.06l.31-.43h2.74s0,0,0,0l.31.42h-3.36ZM18.83,17.56l.44.6h-.89l.45-.6ZM18.38,13.35h.89l-.44.6-.45-.6ZM18.71,17.05h2.49l-.31.43h-1.87l-.31-.43ZM18.71,14.46l.31-.43h1.87l.31.43h-2.49ZM19.27,18.17l.44.6h-.89l.45-.6ZM18.82,12.74h.89l-.44.6-.45-.6ZM19.15,17.65h1.61l-.31.43h-.99l-.31-.43ZM19.15,13.85l.31-.43h.99l.31.43h-1.61ZM19.58,18.25h.75l-.37.52-.38-.52ZM19.58,13.25l.38-.52.37.52h-.75ZM20.64,18.17l.45.6h-.89l.44-.6ZM20.2,12.74h.89l-.45.6-.44-.6ZM21.08,17.56l.45.6h-.89l.44-.6ZM20.64,13.35h.89l-.45.6-.44-.6ZM21.52,16.96l.45.6h-.89l.44-.6ZM21.08,13.95h.89l-.45.6-.44-.6ZM21.96,16.36l.45.6h-.89l.44-.6ZM21.52,14.55h.89l-.45.6-.44-.6ZM22.4,15.76l.45.6h-.89l.44-.6ZM21.96,15.15h.89l-.45.6-.44-.6Z"/>
        <path class="cls-1" d="M17.51,22.12l.44.6h-.89l.45-.6ZM17.06,21.52h.89l-.44.6-.45-.6ZM17.95,22.73l.44.6h-.89l.45-.6ZM17.5,20.92h.89l-.44.6-.45-.6ZM17.84,22.21h4.22l-.3.42h-3.62l-.3-.42ZM17.84,22.03l.3-.42h3.62l.3.42h-4.22ZM18.39,23.33l.44.6h-.89l.45-.6ZM17.94,20.31h.89l-.44.6-.45-.6ZM18.28,22.81h3.36s-.31.43-.31.43h0s-2.74,0-2.74,0l-.31-.43ZM18.28,21.43l.31-.43h2.74s0,0,0,0l.31.42h-3.36ZM18.83,23.93l.44.6h-.89l.45-.6ZM18.38,19.71h.89l-.44.6-.45-.6ZM18.71,23.41h2.49l-.31.43h-1.87l-.31-.43ZM18.71,20.82l.31-.43h1.87l.31.43h-2.49ZM19.27,24.53l.44.6h-.89l.45-.6ZM18.82,19.11h.89l-.44.6-.45-.6ZM19.15,24.02h1.61l-.31.43h-.99l-.31-.43ZM19.15,20.22l.31-.43h.99l.31.43h-1.61ZM19.58,24.62h.75l-.37.52-.38-.52ZM19.58,19.62l.38-.52.37.52h-.75ZM20.64,24.53l.45.6h-.89l.44-.6ZM20.2,19.11h.89l-.45.6-.44-.6ZM21.08,23.93l.45.6h-.89l.44-.6ZM20.64,19.71h.89l-.45.6-.44-.6ZM21.52,23.33l.45.6h-.89l.44-.6ZM21.08,20.31h.89l-.45.6-.44-.6ZM21.96,22.73l.45.6h-.89l.44-.6ZM21.52,20.92h.89l-.45.6-.44-.6ZM22.4,22.12l.45.6h-.89l.44-.6ZM21.96,21.52h.89l-.45.6-.44-.6Z"/>
        <path class="cls-1" d="M22.41,3.02l.44.6h-.89l.45-.6ZM21.96,2.42h.89l-.44.6-.45-.6ZM22.85,3.62l.44.6h-.89l.45-.6ZM22.4,1.82h.89l-.44.6-.45-.6ZM22.74,3.11h4.22l-.3.42h-3.62l-.3-.42ZM22.74,2.93l.3-.42h3.62l.3.42h-4.22ZM23.29,4.23l.44.6h-.89l.45-.6ZM22.84,1.21h.89l-.44.6-.45-.6ZM23.17,3.71h3.36s-.31.43-.31.43h0s-2.74,0-2.74,0l-.31-.43ZM23.17,2.32l.31-.43h2.74s0,0,0,0l.31.42h-3.36ZM23.72,4.83l.44.6h-.89l.45-.6ZM23.28.61h.89l-.44.6-.45-.6ZM23.61,4.31h2.49l-.31.43h-1.87l-.31-.43ZM23.61,1.72l.31-.43h1.87l.31.43h-2.49ZM24.16,5.43l.44.6h-.89l.45-.6ZM23.72,0h.89l-.44.6-.45-.6ZM24.05,4.92h1.61l-.31.43h-.99l-.31-.43ZM24.05,1.12l.31-.43h.99l.31.43h-1.61ZM24.48,5.52h.75l-.37.52-.38-.52ZM24.48.52l.38-.52.37.52h-.75ZM25.54,5.43l.45.6h-.89l.44-.6ZM25.1,0h.89l-.45.6-.44-.6ZM25.98,4.83l.45.6h-.89l.44-.6ZM25.54.61h.89l-.45.6-.44-.6ZM26.42,4.23l.45.6h-.89l.44-.6ZM25.98,1.21h.89l-.45.6-.44-.6ZM26.86,3.62l.45.6h-.89l.44-.6ZM26.42,1.82h.89l-.45.6-.44-.6ZM27.3,3.02l.45.6h-.89l.44-.6ZM26.86,2.42h.89l-.45.6-.44-.6Z"/>
        <path class="cls-1" d="M22.41,15.76l.44.6h-.89l.45-.6ZM21.96,15.15h.89l-.44.6-.45-.6ZM22.85,16.36l.44.6h-.89l.45-.6ZM22.4,14.55h.89l-.44.6-.45-.6ZM22.74,15.84h4.22l-.3.42h-3.62l-.3-.42ZM22.74,15.66l.3-.42h3.62l.3.42h-4.22ZM23.29,16.96l.44.6h-.89l.45-.6ZM22.84,13.95h.89l-.44.6-.45-.6ZM23.17,16.44h3.36s-.31.43-.31.43h0s-2.74,0-2.74,0l-.31-.43ZM23.17,15.06l.31-.43h2.74s0,0,0,0l.31.42h-3.36ZM23.72,17.56l.44.6h-.89l.45-.6ZM23.28,13.35h.89l-.44.6-.45-.6ZM23.61,17.05h2.49l-.31.43h-1.87l-.31-.43ZM23.61,14.46l.31-.43h1.87l.31.43h-2.49ZM24.16,18.17l.44.6h-.89l.45-.6ZM23.72,12.74h.89l-.44.6-.45-.6ZM24.05,17.65h1.61l-.31.43h-.99l-.31-.43ZM24.05,13.85l.31-.43h.99l.31.43h-1.61ZM24.48,18.25h.75l-.37.52-.38-.52ZM24.48,13.25l.38-.52.37.52h-.75ZM25.54,18.17l.45.6h-.89l.44-.6ZM25.1,12.74h.89l-.45.6-.44-.6ZM25.98,17.56l.45.6h-.89l.44-.6ZM25.54,13.35h.89l-.45.6-.44-.6ZM26.42,16.96l.45.6h-.89l.44-.6ZM25.98,13.95h.89l-.45.6-.44-.6ZM26.86,16.36l.45.6h-.89l.44-.6ZM26.42,14.55h.89l-.45.6-.44-.6ZM27.3,15.76l.45.6h-.89l.44-.6ZM26.86,15.15h.89l-.45.6-.44-.6Z"/>
        <path class="cls-1" d="M27.31,3.02l.44.6h-.89l.45-.6ZM26.86,2.42h.89l-.44.6-.45-.6ZM27.74,3.62l.44.6h-.89l.45-.6ZM27.3,1.82h.89l-.44.6-.45-.6ZM27.64,3.11h4.22l-.3.42h-3.62l-.3-.42ZM27.64,2.93l.3-.42h3.62l.3.42h-4.22ZM28.18,4.23l.44.6h-.89l.45-.6ZM27.74,1.21h.89l-.44.6-.45-.6ZM28.07,3.71h3.36s-.31.43-.31.43h0s-2.74,0-2.74,0l-.31-.43ZM28.07,2.32l.31-.43h2.74s0,0,0,0l.31.42h-3.36ZM28.62,4.83l.44.6h-.89l.45-.6ZM28.18.61h.89l-.44.6-.45-.6ZM28.51,4.31h2.49l-.31.43h-1.87l-.31-.43ZM28.51,1.72l.31-.43h1.87l.31.43h-2.49ZM29.06,5.43l.44.6h-.89l.45-.6ZM28.61,0h.89l-.44.6-.45-.6ZM28.95,4.92h1.61l-.31.43h-.99l-.31-.43ZM28.95,1.12l.31-.43h.99l.31.43h-1.61ZM29.38,5.52h.75l-.37.52-.38-.52ZM29.38.52l.38-.52.37.52h-.75ZM30.44,5.43l.45.6h-.89l.44-.6ZM30,0h.89l-.45.6-.44-.6ZM30.88,4.83l.45.6h-.89l.44-.6ZM30.44.61h.89l-.45.6-.44-.6ZM31.32,4.23l.45.6h-.89l.44-.6ZM30.88,1.21h.89l-.45.6-.44-.6ZM31.76,3.62l.45.6h-.89l.44-.6ZM31.32,1.82h.89l-.45.6-.44-.6ZM32.2,3.02l.45.6h-.89l.44-.6ZM31.76,2.42h.89l-.45.6-.44-.6Z"/>
        <path class="cls-1" d="M27.31,9.39l.44.6h-.89l.45-.6ZM26.86,8.79h.89l-.44.6-.45-.6ZM27.74,9.99l.44.6h-.89l.45-.6ZM27.3,8.18h.89l-.44.6-.45-.6ZM27.64,9.47h4.22l-.3.42h-3.62l-.3-.42ZM27.64,9.29l.3-.42h3.62l.3.42h-4.22ZM28.18,10.59l.44.6h-.89l.45-.6ZM27.74,7.58h.89l-.44.6-.45-.6ZM28.07,10.08h3.36s-.31.43-.31.43h0s-2.74,0-2.74,0l-.31-.43ZM28.07,8.69l.31-.43h2.74s0,0,0,0l.31.42h-3.36ZM28.62,11.2l.44.6h-.89l.45-.6ZM28.18,6.98h.89l-.44.6-.45-.6ZM28.51,10.68h2.49l-.31.43h-1.87l-.31-.43ZM28.51,8.09l.31-.43h1.87l.31.43h-2.49ZM29.06,11.8l.44.6h-.89l.45-.6ZM28.61,6.38h.89l-.44.6-.45-.6ZM28.95,11.28h1.61l-.31.43h-.99l-.31-.43ZM28.95,7.49l.31-.43h.99l.31.43h-1.61ZM29.38,11.89h.75l-.37.52-.38-.52ZM29.38,6.88l.38-.52.37.52h-.75ZM30.44,11.8l.45.6h-.89l.44-.6ZM30,6.38h.89l-.45.6-.44-.6ZM30.88,11.2l.45.6h-.89l.44-.6ZM30.44,6.98h.89l-.45.6-.44-.6ZM31.32,10.59l.45.6h-.89l.44-.6ZM30.88,7.58h.89l-.45.6-.44-.6ZM31.76,9.99l.45.6h-.89l.44-.6ZM31.32,8.18h.89l-.45.6-.44-.6ZM32.2,9.39l.45.6h-.89l.44-.6ZM31.76,8.79h.89l-.45.6-.44-.6Z"/>
        <path class="cls-1" d="M27.31,15.76l.44.6h-.89l.45-.6ZM26.86,15.15h.89l-.44.6-.45-.6ZM27.74,16.36l.44.6h-.89l.45-.6ZM27.3,14.55h.89l-.44.6-.45-.6ZM27.64,15.84h4.22l-.3.42h-3.62l-.3-.42ZM27.64,15.66l.3-.42h3.62l.3.42h-4.22ZM28.18,16.96l.44.6h-.89l.45-.6ZM27.74,13.95h.89l-.44.6-.45-.6ZM28.07,16.44h3.36s-.31.43-.31.43h0s-2.74,0-2.74,0l-.31-.43ZM28.07,15.06l.31-.43h2.74s0,0,0,0l.31.42h-3.36ZM28.62,17.56l.44.6h-.89l.45-.6ZM28.18,13.35h.89l-.44.6-.45-.6ZM28.51,17.05h2.49l-.31.43h-1.87l-.31-.43ZM28.51,14.46l.31-.43h1.87l.31.43h-2.49ZM29.06,18.17l.44.6h-.89l.45-.6ZM28.61,12.74h.89l-.44.6-.45-.6ZM28.95,17.65h1.61l-.31.43h-.99l-.31-.43ZM28.95,13.85l.31-.43h.99l.31.43h-1.61ZM29.38,18.25h.75l-.37.52-.38-.52ZM29.38,13.25l.38-.52.37.52h-.75ZM30.44,18.17l.45.6h-.89l.44-.6ZM30,12.74h.89l-.45.6-.44-.6ZM30.88,17.56l.45.6h-.89l.44-.6ZM30.44,13.35h.89l-.45.6-.44-.6ZM31.32,16.96l.45.6h-.89l.44-.6ZM30.88,13.95h.89l-.45.6-.44-.6ZM31.76,16.36l.45.6h-.89l.44-.6ZM31.32,14.55h.89l-.45.6-.44-.6ZM32.2,15.76l.45.6h-.89l.44-.6ZM31.76,15.15h.89l-.45.6-.44-.6Z"/>
        <path class="cls-1" d="M27.31,22.12l.44.6h-.89l.45-.6ZM26.86,21.52h.89l-.44.6-.45-.6ZM27.74,22.73l.44.6h-.89l.45-.6ZM27.3,20.92h.89l-.44.6-.45-.6ZM27.64,22.21h4.22l-.3.42h-3.62l-.3-.42ZM27.64,22.03l.3-.42h3.62l.3.42h-4.22ZM28.18,23.33l.44.6h-.89l.45-.6ZM27.74,20.31h.89l-.44.6-.45-.6ZM28.07,22.81h3.36s-.31.43-.31.43h0s-2.74,0-2.74,0l-.31-.43ZM28.07,21.43l.31-.43h2.74s0,0,0,0l.31.42h-3.36ZM28.62,23.93l.44.6h-.89l.45-.6ZM28.18,19.71h.89l-.44.6-.45-.6ZM28.51,23.41h2.49l-.31.43h-1.87l-.31-.43ZM28.51,20.82l.31-.43h1.87l.31.43h-2.49ZM29.06,24.53l.44.6h-.89l.45-.6ZM28.61,19.11h.89l-.44.6-.45-.6ZM28.95,24.02h1.61l-.31.43h-.99l-.31-.43ZM28.95,20.22l.31-.43h.99l.31.43h-1.61ZM29.38,24.62h.75l-.37.52-.38-.52ZM29.38,19.62l.38-.52.37.52h-.75ZM30.44,24.53l.45.6h-.89l.44-.6ZM30,19.11h.89l-.45.6-.44-.6ZM30.88,23.93l.45.6h-.89l.44-.6ZM30.44,19.71h.89l-.45.6-.44-.6ZM31.32,23.33l.45.6h-.89l.44-.6ZM30.88,20.31h.89l-.45.6-.44-.6ZM31.76,22.73l.45.6h-.89l.44-.6ZM31.32,20.92h.89l-.45.6-.44-.6ZM32.2,22.12l.45.6h-.89l.44-.6ZM31.76,21.52h.89l-.45.6-.44-.6Z"/>
        <path class="cls-1" d="M35.14,3.02l.44.6h-.89l.45-.6ZM34.69,2.42h.89l-.44.6-.45-.6ZM35.58,3.62l.44.6h-.89l.45-.6ZM35.13,1.82h.89l-.44.6-.45-.6ZM35.47,3.11h4.22l-.3.42h-3.62l-.3-.42ZM35.47,2.93l.3-.42h3.62l.3.42h-4.22ZM36.02,4.23l.44.6h-.89l.45-.6ZM35.57,1.21h.89l-.44.6-.45-.6ZM35.91,3.71h3.36s-.31.43-.31.43h0s-2.74,0-2.74,0l-.31-.43ZM35.91,2.32l.31-.43h2.74s0,0,0,0l.31.42h-3.36ZM36.46,4.83l.44.6h-.89l.45-.6ZM36.01.61h.89l-.44.6-.45-.6ZM36.34,4.31h2.49l-.31.43h-1.87l-.31-.43ZM36.34,1.72l.31-.43h1.87l.31.43h-2.49ZM36.9,5.43l.44.6h-.89l.45-.6ZM36.45,0h.89l-.44.6-.45-.6ZM36.78,4.92h1.61l-.31.43h-.99l-.31-.43ZM36.78,1.12l.31-.43h.99l.31.43h-1.61ZM37.21,5.52h.75l-.37.52-.38-.52ZM37.21.52l.38-.52.37.52h-.75ZM38.27,5.43l.45.6h-.89l.44-.6ZM37.83,0h.89l-.45.6-.44-.6ZM38.71,4.83l.45.6h-.89l.44-.6ZM38.27.61h.89l-.45.6-.44-.6ZM39.15,4.23l.45.6h-.89l.44-.6ZM38.71,1.21h.89l-.45.6-.44-.6ZM39.59,3.62l.45.6h-.89l.44-.6ZM39.15,1.82h.89l-.45.6-.44-.6ZM40.03,3.02l.45.6h-.89l.44-.6ZM39.59,2.42h.89l-.45.6-.44-.6Z"/>
        <path class="cls-1" d="M35.14,9.39l.44.6h-.89l.45-.6ZM34.69,8.79h.89l-.44.6-.45-.6ZM35.58,9.99l.44.6h-.89l.45-.6ZM35.13,8.18h.89l-.44.6-.45-.6ZM35.47,9.47h4.22l-.3.42h-3.62l-.3-.42ZM35.47,9.29l.3-.42h3.62l.3.42h-4.22ZM36.02,10.59l.44.6h-.89l.45-.6ZM35.57,7.58h.89l-.44.6-.45-.6ZM35.91,10.08h3.36s-.31.43-.31.43h0s-2.74,0-2.74,0l-.31-.43ZM35.91,8.69l.31-.43h2.74s0,0,0,0l.31.42h-3.36ZM36.46,11.2l.44.6h-.89l.45-.6ZM36.01,6.98h.89l-.44.6-.45-.6ZM36.34,10.68h2.49l-.31.43h-1.87l-.31-.43ZM36.34,8.09l.31-.43h1.87l.31.43h-2.49ZM36.9,11.8l.44.6h-.89l.45-.6ZM36.45,6.38h.89l-.44.6-.45-.6ZM36.78,11.28h1.61l-.31.43h-.99l-.31-.43ZM36.78,7.49l.31-.43h.99l.31.43h-1.61ZM37.21,11.89h.75l-.37.52-.38-.52ZM37.21,6.88l.38-.52.37.52h-.75ZM38.27,11.8l.45.6h-.89l.44-.6ZM37.83,6.38h.89l-.45.6-.44-.6ZM38.71,11.2l.45.6h-.89l.44-.6ZM38.27,6.98h.89l-.45.6-.44-.6ZM39.15,10.59l.45.6h-.89l.44-.6ZM38.71,7.58h.89l-.45.6-.44-.6ZM39.59,9.99l.45.6h-.89l.44-.6ZM39.15,8.18h.89l-.45.6-.44-.6ZM40.03,9.39l.45.6h-.89l.44-.6ZM39.59,8.79h.89l-.45.6-.44-.6Z"/>
        <path class="cls-1" d="M35.14,15.76l.44.6h-.89l.45-.6ZM34.69,15.15h.89l-.44.6-.45-.6ZM35.58,16.36l.44.6h-.89l.45-.6ZM35.13,14.55h.89l-.44.6-.45-.6ZM35.47,15.84h4.22l-.3.42h-3.62l-.3-.42ZM35.47,15.66l.3-.42h3.62l.3.42h-4.22ZM36.02,16.96l.44.6h-.89l.45-.6ZM35.57,13.95h.89l-.44.6-.45-.6ZM35.91,16.44h3.36s-.31.43-.31.43h0s-2.74,0-2.74,0l-.31-.43ZM35.91,15.06l.31-.43h2.74s0,0,0,0l.31.42h-3.36ZM36.46,17.56l.44.6h-.89l.45-.6ZM36.01,13.35h.89l-.44.6-.45-.6ZM36.34,17.05h2.49l-.31.43h-1.87l-.31-.43ZM36.34,14.46l.31-.43h1.87l.31.43h-2.49ZM36.9,18.17l.44.6h-.89l.45-.6ZM36.45,12.74h.89l-.44.6-.45-.6ZM36.78,17.65h1.61l-.31.43h-.99l-.31-.43ZM36.78,13.85l.31-.43h.99l.31.43h-1.61ZM37.21,18.25h.75l-.37.52-.38-.52ZM37.21,13.25l.38-.52.37.52h-.75ZM38.27,18.17l.45.6h-.89l.44-.6ZM37.83,12.74h.89l-.45.6-.44-.6ZM38.71,17.56l.45.6h-.89l.44-.6ZM38.27,13.35h.89l-.45.6-.44-.6ZM39.15,16.96l.45.6h-.89l.44-.6ZM38.71,13.95h.89l-.45.6-.44-.6ZM39.59,16.36l.45.6h-.89l.44-.6ZM39.15,14.55h.89l-.45.6-.44-.6ZM40.03,15.76l.45.6h-.89l.44-.6ZM39.59,15.15h.89l-.45.6-.44-.6Z"/>
        <path class="cls-1" d="M35.14,22.12l.44.6h-.89l.45-.6ZM34.69,21.52h.89l-.44.6-.45-.6ZM35.58,22.73l.44.6h-.89l.45-.6ZM35.13,20.92h.89l-.44.6-.45-.6ZM35.47,22.21h4.22l-.3.42h-3.62l-.3-.42ZM35.47,22.03l.3-.42h3.62l.3.42h-4.22ZM36.02,23.33l.44.6h-.89l.45-.6ZM35.57,20.31h.89l-.44.6-.45-.6ZM35.91,22.81h3.36s-.31.43-.31.43h0s-2.74,0-2.74,0l-.31-.43ZM35.91,21.43l.31-.43h2.74s0,0,0,0l.31.42h-3.36ZM36.46,23.93l.44.6h-.89l.45-.6ZM36.01,19.71h.89l-.44.6-.45-.6ZM36.34,23.41h2.49l-.31.43h-1.87l-.31-.43ZM36.34,20.82l.31-.43h1.87l.31.43h-2.49ZM36.9,24.53l.44.6h-.89l.45-.6ZM36.45,19.11h.89l-.44.6-.45-.6ZM36.78,24.02h1.61l-.31.43h-.99l-.31-.43ZM36.78,20.22l.31-.43h.99l.31.43h-1.61ZM37.21,24.62h.75l-.37.52-.38-.52ZM37.21,19.62l.38-.52.37.52h-.75ZM38.27,24.53l.45.6h-.89l.44-.6ZM37.83,19.11h.89l-.45.6-.44-.6ZM38.71,23.93l.45.6h-.89l.44-.6ZM38.27,19.71h.89l-.45.6-.44-.6ZM39.15,23.33l.45.6h-.89l.44-.6ZM38.71,20.31h.89l-.45.6-.44-.6ZM39.59,22.73l.45.6h-.89l.44-.6ZM39.15,20.92h.89l-.45.6-.44-.6ZM40.03,22.12l.45.6h-.89l.44-.6ZM39.59,21.52h.89l-.45.6-.44-.6Z"/>
        <path class="cls-1" d="M40.04,22.12l.44.6h-.89l.45-.6ZM39.59,21.52h.89l-.44.6-.45-.6ZM40.48,22.73l.44.6h-.89l.45-.6ZM40.03,20.92h.89l-.44.6-.45-.6ZM40.37,22.21h4.22l-.3.42h-3.62l-.3-.42ZM40.37,22.03l.3-.42h3.62l.3.42h-4.22ZM40.92,23.33l.44.6h-.89l.45-.6ZM40.47,20.31h.89l-.44.6-.45-.6ZM40.8,22.81h3.36s-.31.43-.31.43h0s-2.74,0-2.74,0l-.31-.43ZM40.8,21.43l.31-.43h2.74s0,0,0,0l.31.42h-3.36ZM41.35,23.93l.44.6h-.89l.45-.6ZM40.91,19.71h.89l-.44.6-.45-.6ZM41.24,23.41h2.49l-.31.43h-1.87l-.31-.43ZM41.24,20.82l.31-.43h1.87l.31.43h-2.49ZM41.79,24.53l.44.6h-.89l.45-.6ZM41.35,19.11h.89l-.44.6-.45-.6ZM41.68,24.02h1.61l-.31.43h-.99l-.31-.43ZM41.68,20.22l.31-.43h.99l.31.43h-1.61ZM42.11,24.62h.75l-.37.52-.38-.52ZM42.11,19.62l.38-.52.37.52h-.75ZM43.17,24.53l.45.6h-.89l.44-.6ZM42.73,19.11h.89l-.45.6-.44-.6ZM43.61,23.93l.45.6h-.89l.44-.6ZM43.17,19.71h.89l-.45.6-.44-.6ZM44.05,23.33l.45.6h-.89l.44-.6ZM43.61,20.31h.89l-.45.6-.44-.6ZM44.49,22.73l.45.6h-.89l.44-.6ZM44.05,20.92h.89l-.45.6-.44-.6ZM44.93,22.12l.45.6h-.89l.44-.6ZM44.49,21.52h.89l-.45.6-.44-.6Z"/>
        <path class="cls-1" d="M44.94,3.02l.44.6h-.89l.45-.6ZM44.49,2.42h.89l-.44.6-.45-.6ZM45.37,3.62l.44.6h-.89l.45-.6ZM44.93,1.82h.89l-.44.6-.45-.6ZM45.27,3.11h4.22l-.3.42h-3.62l-.3-.42ZM45.27,2.93l.3-.42h3.62l.3.42h-4.22ZM45.81,4.23l.44.6h-.89l.45-.6ZM45.37,1.21h.89l-.44.6-.45-.6ZM45.7,3.71h3.36s-.31.43-.31.43h0s-2.74,0-2.74,0l-.31-.43ZM45.7,2.32l.31-.43h2.74s0,0,0,0l.31.42h-3.36ZM46.25,4.83l.44.6h-.89l.45-.6ZM45.81.61h.89l-.44.6-.45-.6ZM46.14,4.31h2.49l-.31.43h-1.87l-.31-.43ZM46.14,1.72l.31-.43h1.87l.31.43h-2.49ZM46.69,5.43l.44.6h-.89l.45-.6ZM46.24,0h.89l-.44.6-.45-.6ZM46.58,4.92h1.61l-.31.43h-.99l-.31-.43ZM46.58,1.12l.31-.43h.99l.31.43h-1.61ZM47.01,5.52h.75l-.37.52-.38-.52ZM47.01.52l.38-.52.37.52h-.75ZM48.07,5.43l.45.6h-.89l.44-.6ZM47.63,0h.89l-.45.6-.44-.6ZM48.51,4.83l.45.6h-.89l.44-.6ZM48.07.61h.89l-.45.6-.44-.6ZM48.95,4.23l.45.6h-.89l.44-.6ZM48.51,1.21h.89l-.45.6-.44-.6ZM49.39,3.62l.45.6h-.89l.44-.6ZM48.95,1.82h.89l-.45.6-.44-.6ZM49.83,3.02l.45.6h-.89l.44-.6ZM49.39,2.42h.89l-.45.6-.44-.6Z"/>
        <path class="cls-1" d="M44.94,9.39l.44.6h-.89l.45-.6ZM44.49,8.79h.89l-.44.6-.45-.6ZM45.37,9.99l.44.6h-.89l.45-.6ZM44.93,8.18h.89l-.44.6-.45-.6ZM45.27,9.47h4.22l-.3.42h-3.62l-.3-.42ZM45.27,9.29l.3-.42h3.62l.3.42h-4.22ZM45.81,10.59l.44.6h-.89l.45-.6ZM45.37,7.58h.89l-.44.6-.45-.6ZM45.7,10.08h3.36s-.31.43-.31.43h0s-2.74,0-2.74,0l-.31-.43ZM45.7,8.69l.31-.43h2.74s0,0,0,0l.31.42h-3.36ZM46.25,11.2l.44.6h-.89l.45-.6ZM45.81,6.98h.89l-.44.6-.45-.6ZM46.14,10.68h2.49l-.31.43h-1.87l-.31-.43ZM46.14,8.09l.31-.43h1.87l.31.43h-2.49ZM46.69,11.8l.44.6h-.89l.45-.6ZM46.24,6.38h.89l-.44.6-.45-.6ZM46.58,11.28h1.61l-.31.43h-.99l-.31-.43ZM46.58,7.49l.31-.43h.99l.31.43h-1.61ZM47.01,11.89h.75l-.37.52-.38-.52ZM47.01,6.88l.38-.52.37.52h-.75ZM48.07,11.8l.45.6h-.89l.44-.6ZM47.63,6.38h.89l-.45.6-.44-.6ZM48.51,11.2l.45.6h-.89l.44-.6ZM48.07,6.98h.89l-.45.6-.44-.6ZM48.95,10.59l.45.6h-.89l.44-.6ZM48.51,7.58h.89l-.45.6-.44-.6ZM49.39,9.99l.45.6h-.89l.44-.6ZM48.95,8.18h.89l-.45.6-.44-.6ZM49.83,9.39l.45.6h-.89l.44-.6ZM49.39,8.79h.89l-.45.6-.44-.6Z"/>
        <path class="cls-1" d="M44.94,15.76l.44.6h-.89l.45-.6ZM44.49,15.15h.89l-.44.6-.45-.6ZM45.37,16.36l.44.6h-.89l.45-.6ZM44.93,14.55h.89l-.44.6-.45-.6ZM45.27,15.84h4.22l-.3.42h-3.62l-.3-.42ZM45.27,15.66l.3-.42h3.62l.3.42h-4.22ZM45.81,16.96l.44.6h-.89l.45-.6ZM45.37,13.95h.89l-.44.6-.45-.6ZM45.7,16.44h3.36s-.31.43-.31.43h0s-2.74,0-2.74,0l-.31-.43ZM45.7,15.06l.31-.43h2.74s0,0,0,0l.31.42h-3.36ZM46.25,17.56l.44.6h-.89l.45-.6ZM45.81,13.35h.89l-.44.6-.45-.6ZM46.14,17.05h2.49l-.31.43h-1.87l-.31-.43ZM46.14,14.46l.31-.43h1.87l.31.43h-2.49ZM46.69,18.17l.44.6h-.89l.45-.6ZM46.24,12.74h.89l-.44.6-.45-.6ZM46.58,17.65h1.61l-.31.43h-.99l-.31-.43ZM46.58,13.85l.31-.43h.99l.31.43h-1.61ZM47.01,18.25h.75l-.37.52-.38-.52ZM47.01,13.25l.38-.52.37.52h-.75ZM48.07,18.17l.45.6h-.89l.44-.6ZM47.63,12.74h.89l-.45.6-.44-.6ZM48.51,17.56l.45.6h-.89l.44-.6ZM48.07,13.35h.89l-.45.6-.44-.6ZM48.95,16.96l.45.6h-.89l.44-.6ZM48.51,13.95h.89l-.45.6-.44-.6ZM49.39,16.36l.45.6h-.89l.44-.6ZM48.95,14.55h.89l-.45.6-.44-.6ZM49.83,15.76l.45.6h-.89l.44-.6ZM49.39,15.15h.89l-.45.6-.44-.6Z"/>
        <path class="cls-1" d="M44.94,22.12l.44.6h-.89l.45-.6ZM44.49,21.52h.89l-.44.6-.45-.6ZM45.37,22.73l.44.6h-.89l.45-.6ZM44.93,20.92h.89l-.44.6-.45-.6ZM45.27,22.21h4.22l-.3.42h-3.62l-.3-.42ZM45.27,22.03l.3-.42h3.62l.3.42h-4.22ZM45.81,23.33l.44.6h-.89l.45-.6ZM45.37,20.31h.89l-.44.6-.45-.6ZM45.7,22.81h3.36s-.31.43-.31.43h0s-2.74,0-2.74,0l-.31-.43ZM45.7,21.43l.31-.43h2.74s0,0,0,0l.31.42h-3.36ZM46.25,23.93l.44.6h-.89l.45-.6ZM45.81,19.71h.89l-.44.6-.45-.6ZM46.14,23.41h2.49l-.31.43h-1.87l-.31-.43ZM46.14,20.82l.31-.43h1.87l.31.43h-2.49ZM46.69,24.53l.44.6h-.89l.45-.6ZM46.24,19.11h.89l-.44.6-.45-.6ZM46.58,24.02h1.61l-.31.43h-.99l-.31-.43ZM46.58,20.22l.31-.43h.99l.31.43h-1.61ZM47.01,24.62h.75l-.37.52-.38-.52ZM47.01,19.62l.38-.52.37.52h-.75ZM48.07,24.53l.45.6h-.89l.44-.6ZM47.63,19.11h.89l-.45.6-.44-.6ZM48.51,23.93l.45.6h-.89l.44-.6ZM48.07,19.71h.89l-.45.6-.44-.6ZM48.95,23.33l.45.6h-.89l.44-.6ZM48.51,20.31h.89l-.45.6-.44-.6ZM49.39,22.73l.45.6h-.89l.44-.6ZM48.95,20.92h.89l-.45.6-.44-.6ZM49.83,22.12l.45.6h-.89l.44-.6ZM49.39,21.52h.89l-.45.6-.44-.6Z"/>
        <path class="cls-1" d="M0,15.15h.89l-.44.6-.45-.6ZM.45,15.75l.44.6h-.89l.45-.6ZM.44,14.54h.89l-.44.6-.45-.6ZM.89,16.35l.44.6H.44l.45-.6ZM1.08,15.24h3.62l.3.42H.78l.3-.42ZM5,15.84l-.3.42H1.08l-.3-.42h4.22ZM.88,13.94h.89l-.44.6-.45-.6ZM1.33,16.96l.44.6h-.89l.45-.6ZM1.52,14.63h2.74s0,0,0,0l.31.42H1.21s.31-.42.31-.42ZM4.57,16.46l-.31.42h0s-2.74,0-2.74,0l-.31-.43h3.36ZM1.32,13.34h.89l-.44.6-.45-.6ZM1.76,17.56l.44.6h-.89l.45-.6ZM1.96,14.03h1.87l.31.43H1.65l.31-.43ZM4.14,17.05l-.31.43h-1.87l-.31-.43h2.49ZM1.76,12.74h.89l-.44.6-.45-.6ZM2.2,18.16l.44.6h-.89l.45-.6ZM2.4,13.43h.99l.31.43h-1.61l.31-.43ZM3.7,17.65l-.31.43h-.99l-.31-.43h1.61ZM2.9,12.74l.37.52h-.75l.38-.52ZM3.27,18.26l-.37.52-.38-.52h.75ZM3.58,18.16l.45.6h-.89l.44-.6ZM4.02,17.56l.45.6h-.89l.44-.6ZM4.46,16.96l.45.6h-.89l.44-.6ZM4.9,16.35l.45.6h-.89l.44-.6Z"/>
        <path class="cls-1" d="M0,21.51h.89l-.44.6-.45-.6ZM.45,22.11l.44.6h-.89l.45-.6ZM.44,20.91h.89l-.44.6-.45-.6ZM.89,22.72l.44.6H.44l.45-.6ZM1.08,21.61h3.62l.3.42H.78l.3-.42ZM5,22.21l-.3.42H1.08l-.3-.42h4.22ZM.88,20.31h.89l-.44.6-.45-.6ZM1.33,23.32l.44.6h-.89l.45-.6ZM1.52,20.99h2.74s0,0,0,0l.31.42H1.21s.31-.42.31-.42ZM4.57,22.82l-.31.42h0s-2.74,0-2.74,0l-.31-.43h3.36ZM1.32,19.7h.89l-.44.6-.45-.6ZM1.76,23.92l.44.6h-.89l.45-.6ZM1.96,20.39h1.87l.31.43H1.65l.31-.43ZM4.14,23.41l-.31.43h-1.87l-.31-.43h2.49ZM1.76,19.1h.89l-.44.6-.45-.6ZM2.2,24.52l.44.6h-.89l.45-.6ZM2.4,19.79h.99l.31.43h-1.61l.31-.43ZM3.7,24.02l-.31.43h-.99l-.31-.43h1.61ZM2.9,19.1l.37.52h-.75l.38-.52ZM3.27,24.62l-.37.52-.38-.52h.75ZM3.14,19.1h.89l-.45.6-.44-.6ZM3.58,24.52l.45.6h-.89l.44-.6ZM3.58,19.7h.89l-.45.6-.44-.6ZM4.02,23.92l.45.6h-.89l.44-.6ZM4.02,20.31h.89l-.45.6-.44-.6ZM4.46,23.32l.45.6h-.89l.44-.6ZM4.46,20.91h.89l-.45.6-.44-.6ZM4.9,22.72l.45.6h-.89l.44-.6ZM4.9,21.51h.89l-.45.6-.44-.6ZM5.34,22.11l.45.6h-.89l.44-.6Z"/>
        <path class="cls-1" d="M3.4,12.06h3.62l.3.42H3.1l.3-.42ZM7.32,12.66l-.3.42h-3.62l-.3-.42h4.22ZM3.84,11.44h2.74s0,0,0,0l.31.42h-3.36s.31-.42.31-.42ZM6.89,13.27l-.31.42h0s-2.74,0-2.74,0l-.31-.43h3.36ZM4.28,10.84h1.87l.31.43h-2.49l.31-.43ZM6.46,13.86l-.31.43h-1.87l-.31-.43h2.49ZM4.72,10.24h.99l.31.43h-1.61l.31-.43ZM6.02,14.47l-.31.43h-.99l-.31-.43h1.61ZM5.22,9.55l.37.52h-.75l.38-.52ZM5.59,15.07l-.37.52-.38-.52h.75Z"/>
        <path class="cls-1" d="M.45,3.02l.44.6H0l.45-.6ZM0,2.42h.89l-.44.6L0,2.42ZM.89,3.62l.44.6H.44l.45-.6ZM.44,1.82h.89l-.44.6-.45-.6ZM.79,3.11h4.22l-.3.42H1.09l-.3-.42ZM.79,2.93l.3-.42h3.62l.3.42H.79ZM1.33,4.23l.44.6h-.89l.45-.6ZM.88,1.21h.89l-.44.6-.45-.6ZM1.22,3.71h3.36s-.31.43-.31.43h0s-2.74,0-2.74,0l-.31-.43ZM1.22,2.32l.31-.43h2.74s0,0,0,0l.31.42H1.22ZM1.77,4.83l.44.6h-.89l.45-.6ZM1.32.61h.89l-.44.6-.45-.6ZM1.66,4.31h2.49l-.31.43h-1.87l-.31-.43ZM1.66,1.72l.31-.43h1.87l.31.43H1.66ZM2.21,5.43l.44.6h-.89l.45-.6ZM1.76,0h.89l-.44.6L1.76,0ZM2.1,4.92h1.61l-.31.43h-.99l-.31-.43ZM2.1,1.12l.31-.43h.99l.31.43h-1.61ZM2.53,5.52h.75l-.37.52-.38-.52ZM2.53.52L2.91,0l.37.52h-.75ZM3.59,5.43l.45.6h-.89l.44-.6ZM3.15,0h.89l-.45.6L3.15,0ZM4.02,4.83l.45.6h-.89l.44-.6ZM3.59.61h.89l-.45.6-.44-.6ZM4.46,4.23l.45.6h-.89l.44-.6ZM4.02,1.21h.89l-.45.6-.44-.6ZM4.9,3.62l.45.6h-.89l.44-.6ZM4.46,1.82h.89l-.45.6-.44-.6ZM5.34,3.02l.45.6h-.89l.44-.6ZM4.9,2.42h.89l-.45.6-.44-.6Z"/>
        <path class="cls-1" d="M6.91,5.6h.89l-.44.6-.45-.6ZM7.35,5h.89l-.44.6-.45-.6ZM7.7,6.29h4.22l-.3.42h-3.62l-.3-.42ZM7.7,6.11l.3-.42h3.62l.3.42h-4.22ZM7.79,4.4h.89l-.44.6-.45-.6ZM8.13,6.89h3.36s-.31.43-.31.43h0s-2.74,0-2.74,0l-.31-.43ZM8.13,5.51l.31-.43h2.74s0,0,0,0l.31.42h-3.36ZM8.23,3.79h.89l-.44.6-.45-.6ZM8.57,7.5h2.49l-.31.43h-1.87l-.31-.43ZM8.57,4.9l.31-.43h1.87l.31.43h-2.49ZM8.67,3.19h.89l-.44.6-.45-.6ZM9.01,8.1h1.61l-.31.43h-.99l-.31-.43ZM9.01,4.3l.31-.43h.99l.31.43h-1.61ZM9.44,8.7h.75l-.37.52-.38-.52ZM9.44,3.7l.38-.52.37.52h-.75ZM10.5,8.61l.45.6h-.89l.44-.6ZM10.93,8.01l.45.6h-.89l.44-.6ZM11.37,7.41l.45.6h-.89l.44-.6ZM11.81,6.81l.45.6h-.89l.44-.6ZM12.25,6.2l.45.6h-.89l.44-.6Z"/>
        <path class="cls-1" d="M.45,9.39l.44.6H0l.45-.6ZM0,8.78h.89l-.44.6L0,8.78ZM.89,9.99l.44.6H.44l.45-.6ZM.44,8.18h.89l-.44.6-.45-.6ZM.79,9.47h4.22l-.3.42H1.09l-.3-.42ZM.79,9.29l.3-.42h3.62l.3.42H.79ZM1.33,10.59l.44.6h-.89l.45-.6ZM.88,7.58h.89l-.44.6-.45-.6ZM1.22,10.07h3.36s-.31.43-.31.43h0s-2.74,0-2.74,0l-.31-.43ZM1.22,8.69l.31-.43h2.74s0,0,0,0l.31.42H1.22ZM1.77,11.19l.44.6h-.89l.45-.6ZM1.32,6.98h.89l-.44.6-.45-.6ZM1.66,10.68h2.49l-.31.43h-1.87l-.31-.43ZM1.66,8.09l.31-.43h1.87l.31.43H1.66ZM2.21,11.8l.44.6h-.89l.45-.6ZM1.76,6.37h.89l-.44.6-.45-.6ZM2.1,11.28h1.61l-.31.43h-.99l-.31-.43ZM2.1,7.48l.31-.43h.99l.31.43h-1.61ZM2.53,11.88h.75l-.37.52-.38-.52ZM2.53,6.88l.38-.52.37.52h-.75ZM3.15,6.37h.89l-.45.6-.44-.6ZM3.59,6.98h.89l-.45.6-.44-.6ZM4.02,7.58h.89l-.45.6-.44-.6ZM4.46,8.18h.89l-.45.6-.44-.6Z"/>
        <path class="cls-1" d="M4.9,8.78h.6l-.29.41-.31-.41ZM5.05,8.18h.89l-.44.6-.45-.6ZM5.4,9.47h4.22l-.3.42h-3.62l-.3-.42ZM5.4,9.29l.3-.42h3.62l.3.42h-4.22ZM5.49,7.58h.89l-.44.6-.45-.6ZM5.83,10.07h3.36s-.31.43-.31.43h0s-2.74,0-2.74,0l-.31-.43ZM5.83,8.69l.31-.43h2.74s0,0,0,0l.31.42h-3.36ZM5.93,6.98h.89l-.44.6-.45-.6ZM6.27,10.68h2.49l-.31.43h-1.87l-.31-.43ZM6.27,8.09l.31-.43h1.87l.31.43h-2.49ZM6.37,6.37h.89l-.44.6-.45-.6ZM6.71,11.28h1.61l-.31.43h-.99l-.31-.43ZM6.71,7.48l.31-.43h.99l.31.43h-1.61ZM7.14,11.88h.75l-.37.52-.38-.52ZM7.14,6.88l.38-.52.37.52h-.75ZM8.2,11.8l.45.6h-.89l.44-.6ZM8.64,11.19l.45.6h-.89l.44-.6ZM9.07,10.59l.45.6h-.89l.44-.6ZM9.51,9.99l.45.6h-.89l.44-.6ZM9.95,9.39l.45.6h-.89l.44-.6Z"/>
        <path class="cls-1" d="M9.23,2.42h.89l-.44.6-.45-.6ZM9.67,1.82h.89l-.44.6-.45-.6ZM10.01,3.11h4.22l-.3.42h-3.62l-.3-.42ZM10.01,2.93l.3-.42h3.62l.3.42h-4.22ZM10.11,1.21h.89l-.44.6-.45-.6ZM10.44,3.71h3.36s-.31.43-.31.43h0s-2.74,0-2.74,0l-.31-.43ZM10.44,2.32l.31-.43h2.74s0,0,0,0l.31.42h-3.36ZM10.55.61h.89l-.44.6-.45-.6ZM10.88,4.31h2.49l-.31.43h-1.87l-.31-.43ZM10.88,1.72l.31-.43h1.87l.31.43h-2.49ZM10.98,0h.89l-.44.6L10.98,0ZM11.32,4.92h1.61l-.31.43h-.99l-.31-.43ZM11.32,1.12l.31-.43h.99l.31.43h-1.61ZM11.75,5.52h.75l-.37.52-.38-.52ZM11.75.52L12.13,0l.37.52h-.75ZM12.81,5.43l.45.6h-.89l.44-.6ZM12.37,0h.89l-.45.6L12.37,0ZM13.25,4.83l.45.6h-.89l.44-.6ZM12.81.61h.89l-.45.6-.44-.6ZM13.69,4.23l.45.6h-.89l.44-.6ZM13.25,1.21h.89l-.45.6-.44-.6ZM14.13,3.62l.45.6h-.89l.44-.6ZM13.69,1.82h.89l-.45.6-.44-.6ZM14.57,3.02l.45.6h-.89l.44-.6ZM14.13,2.42h.89l-.45.6-.44-.6Z"/>
        <g>
          <path class="cls-1" d="M7.36,18.93l.44.6h-.89l.45-.6ZM7.8,19.53l.44.6h-.89l.45-.6ZM8,18.42h3.62l.3.42h-4.22l.3-.42ZM11.92,19.03l-.3.42h-3.62l-.3-.42h4.22ZM8.24,20.14l.44.6h-.89l.45-.6ZM8.44,17.81h2.74s0,0,0,0l.31.42h-3.36s.31-.42.31-.42ZM11.49,19.64l-.31.42h0s-2.74,0-2.74,0l-.31-.43h3.36ZM8.68,20.74l.44.6h-.89l.45-.6ZM8.88,17.21h1.87l.31.43h-2.49l.31-.43ZM11.05,20.23l-.31.43h-1.87l-.31-.43h2.49ZM9.12,21.34l.44.6h-.89l.45-.6ZM9.32,16.61h.99l.31.43h-1.61l.31-.43ZM10.62,20.83l-.31.43h-.99l-.31-.43h1.61ZM9.82,15.92l.37.52h-.75l.38-.52ZM10.19,21.44l-.37.52-.38-.52h.75ZM10.06,15.92h.89l-.45.6-.44-.6ZM10.5,16.52h.89l-.45.6-.44-.6ZM10.93,17.12h.89l-.45.6-.44-.6ZM11.37,17.73h.89l-.45.6-.44-.6ZM11.81,18.33h.89l-.45.6-.44-.6Z"/>
          <path class="cls-1" d="M5.21,15.95l.29.41h-.6l.31-.41ZM5.5,16.35l.44.6h-.89l.45-.6ZM5.7,15.24h3.62l.3.42h-4.22l.3-.42ZM9.62,15.84l-.3.42h-3.62l-.3-.42h4.22ZM5.94,16.96l.44.6h-.89l.45-.6ZM6.14,14.63h2.74s0,0,0,0l.31.42h-3.36s.31-.42.31-.42ZM9.19,16.46l-.31.42h0s-2.74,0-2.74,0l-.31-.43h3.36ZM6.38,17.56l.44.6h-.89l.45-.6ZM6.58,14.03h1.87l.31.43h-2.49l.31-.43ZM8.76,17.05l-.31.43h-1.87l-.31-.43h2.49ZM6.82,18.16l.44.6h-.89l.45-.6ZM7.02,13.43h.99l.31.43h-1.61l.31-.43ZM8.32,17.65l-.31.43h-.99l-.31-.43h1.61ZM7.52,12.74l.37.52h-.75l.38-.52ZM7.89,18.26l-.37.52-.38-.52h.75ZM7.76,12.74h.89l-.45.6-.44-.6ZM8.2,13.34h.89l-.45.6-.44-.6ZM8.64,13.94h.89l-.45.6-.44-.6ZM9.07,14.54h.89l-.45.6-.44-.6ZM9.51,15.15h.89l-.45.6-.44-.6Z"/>
          <path class="cls-1" d="M9.68,22.11l.44.6h-.89l.45-.6ZM10.11,22.72l.44.6h-.89l.45-.6ZM10.31,21.61h3.62l.3.42h-4.22l.3-.42ZM14.23,22.21l-.3.42h-3.62l-.3-.42h4.22ZM10.55,23.32l.44.6h-.89l.45-.6ZM10.75,20.99h2.74s0,0,0,0l.31.42h-3.36s.31-.42.31-.42ZM13.8,22.82l-.31.42h0s-2.74,0-2.74,0l-.31-.43h3.36ZM10.99,23.92l.44.6h-.89l.45-.6ZM11.19,20.39h1.87l.31.43h-2.49l.31-.43ZM13.37,23.41l-.31.43h-1.87l-.31-.43h2.49ZM11.43,24.52l.44.6h-.89l.45-.6ZM11.63,19.79h.99l.31.43h-1.61l.31-.43ZM12.93,24.02l-.31.43h-.99l-.31-.43h1.61ZM12.13,19.1l.37.52h-.75l.38-.52ZM12.5,24.62l-.37.52-.38-.52h.75ZM12.37,19.1h.89l-.45.6-.44-.6ZM12.81,24.52l.45.6h-.89l.44-.6ZM12.81,19.7h.89l-.45.6-.44-.6ZM13.25,23.92l.45.6h-.89l.44-.6ZM13.25,20.31h.89l-.45.6-.44-.6ZM13.69,23.32l.45.6h-.89l.44-.6ZM13.69,20.91h.89l-.45.6-.44-.6ZM14.13,22.72l.45.6h-.89l.44-.6ZM14.13,21.51h.89l-.45.6-.44-.6ZM14.57,22.11l.45.6h-.89l.44-.6Z"/>
        </g>
        <path class="cls-1" d="M69.83,3.02l.44.6h-.89l.45-.6ZM69.38,2.42h.89l-.44.6-.45-.6ZM70.27,3.62l.44.6h-.89l.45-.6ZM69.82,1.82h.89l-.44.6-.45-.6ZM70.17,3.11h4.22l-.3.42h-3.62l-.3-.42ZM70.17,2.93l.3-.42h3.62l.3.42h-4.22ZM70.71,4.23l.44.6h-.89l.45-.6ZM70.26,1.21h.89l-.44.6-.45-.6ZM70.6,3.71h3.36s-.31.43-.31.43h0s-2.74,0-2.74,0l-.31-.43ZM70.6,2.32l.31-.43h2.74s0,0,0,0l.31.42h-3.36ZM71.15,4.83l.44.6h-.89l.45-.6ZM70.7.61h.89l-.44.6-.45-.6ZM71.04,4.31h2.49l-.31.43h-1.87l-.31-.43ZM71.04,1.72l.31-.43h1.87l.31.43h-2.49ZM71.59,5.43l.44.6h-.89l.45-.6ZM71.14,0h.89l-.44.6-.45-.6ZM71.47,4.92h1.61l-.31.43h-.99l-.31-.43ZM71.47,1.12l.31-.43h.99l.31.43h-1.61ZM71.9,5.52h.75l-.37.52-.38-.52ZM71.9.52l.38-.52.37.52h-.75ZM72.96,5.43l.45.6h-.89l.44-.6ZM72.52,0h.89l-.45.6-.44-.6ZM73.4,4.83l.45.6h-.89l.44-.6ZM72.96.61h.89l-.45.6-.44-.6ZM73.84,4.23l.45.6h-.89l.44-.6ZM73.4,1.21h.89l-.45.6-.44-.6ZM74.28,3.62l.45.6h-.89l.44-.6ZM73.84,1.82h.89l-.45.6-.44-.6ZM74.72,3.02l.45.6h-.89l.44-.6ZM74.28,2.42h.89l-.45.6-.44-.6Z"/>
        <path class="cls-1" d="M69.83,9.39l.44.6h-.89l.45-.6ZM69.38,8.79h.89l-.44.6-.45-.6ZM70.27,9.99l.44.6h-.89l.45-.6ZM69.82,8.18h.89l-.44.6-.45-.6ZM70.17,9.47h4.22l-.3.42h-3.62l-.3-.42ZM70.17,9.29l.3-.42h3.62l.3.42h-4.22ZM70.71,10.59l.44.6h-.89l.45-.6ZM70.26,7.58h.89l-.44.6-.45-.6ZM70.6,10.08h3.36s-.31.43-.31.43h0s-2.74,0-2.74,0l-.31-.43ZM70.6,8.69l.31-.43h2.74s0,0,0,0l.31.42h-3.36ZM71.15,11.2l.44.6h-.89l.45-.6ZM70.7,6.98h.89l-.44.6-.45-.6ZM71.04,10.68h2.49l-.31.43h-1.87l-.31-.43ZM71.04,8.09l.31-.43h1.87l.31.43h-2.49ZM71.59,11.8l.44.6h-.89l.45-.6ZM71.14,6.38h.89l-.44.6-.45-.6ZM71.47,11.28h1.61l-.31.43h-.99l-.31-.43ZM71.47,7.49l.31-.43h.99l.31.43h-1.61ZM71.9,11.89h.75l-.37.52-.38-.52ZM71.9,6.88l.38-.52.37.52h-.75ZM72.96,11.8l.45.6h-.89l.44-.6ZM72.52,6.38h.89l-.45.6-.44-.6ZM73.4,11.2l.45.6h-.89l.44-.6ZM72.96,6.98h.89l-.45.6-.44-.6ZM73.84,10.59l.45.6h-.89l.44-.6ZM73.4,7.58h.89l-.45.6-.44-.6ZM74.28,9.99l.45.6h-.89l.44-.6ZM73.84,8.18h.89l-.45.6-.44-.6ZM74.72,9.39l.45.6h-.89l.44-.6ZM74.28,8.79h.89l-.45.6-.44-.6Z"/>
        <path class="cls-1" d="M69.83,15.76l.44.6h-.89l.45-.6ZM69.38,15.15h.89l-.44.6-.45-.6ZM70.27,16.36l.44.6h-.89l.45-.6ZM69.82,14.55h.89l-.44.6-.45-.6ZM70.17,15.84h4.22l-.3.42h-3.62l-.3-.42ZM70.17,15.66l.3-.42h3.62l.3.42h-4.22ZM70.71,16.96l.44.6h-.89l.45-.6ZM70.26,13.95h.89l-.44.6-.45-.6ZM70.6,16.44h3.36s-.31.43-.31.43h0s-2.74,0-2.74,0l-.31-.43ZM70.6,15.06l.31-.43h2.74s0,0,0,0l.31.42h-3.36ZM71.15,17.56l.44.6h-.89l.45-.6ZM70.7,13.35h.89l-.44.6-.45-.6ZM71.04,17.05h2.49l-.31.43h-1.87l-.31-.43ZM71.04,14.46l.31-.43h1.87l.31.43h-2.49ZM71.59,18.17l.44.6h-.89l.45-.6ZM71.14,12.74h.89l-.44.6-.45-.6ZM71.47,17.65h1.61l-.31.43h-.99l-.31-.43ZM71.47,13.85l.31-.43h.99l.31.43h-1.61ZM71.9,18.25h.75l-.37.52-.38-.52ZM71.9,13.25l.38-.52.37.52h-.75ZM72.96,18.17l.45.6h-.89l.44-.6ZM72.52,12.74h.89l-.45.6-.44-.6ZM73.4,17.56l.45.6h-.89l.44-.6ZM72.96,13.35h.89l-.45.6-.44-.6ZM73.84,16.96l.45.6h-.89l.44-.6ZM73.4,13.95h.89l-.45.6-.44-.6ZM74.28,16.36l.45.6h-.89l.44-.6ZM73.84,14.55h.89l-.45.6-.44-.6ZM74.72,15.76l.45.6h-.89l.44-.6ZM74.28,15.15h.89l-.45.6-.44-.6Z"/>
        <path class="cls-1" d="M69.83,22.12l.44.6h-.89l.45-.6ZM69.38,21.52h.89l-.44.6-.45-.6ZM70.27,22.73l.44.6h-.89l.45-.6ZM69.82,20.92h.89l-.44.6-.45-.6ZM70.17,22.21h4.22l-.3.42h-3.62l-.3-.42ZM70.17,22.03l.3-.42h3.62l.3.42h-4.22ZM70.71,23.33l.44.6h-.89l.45-.6ZM70.26,20.31h.89l-.44.6-.45-.6ZM70.6,22.81h3.36s-.31.43-.31.43h0s-2.74,0-2.74,0l-.31-.43ZM70.6,21.43l.31-.43h2.74s0,0,0,0l.31.42h-3.36ZM71.15,23.93l.44.6h-.89l.45-.6ZM70.7,19.71h.89l-.44.6-.45-.6ZM71.04,23.41h2.49l-.31.43h-1.87l-.31-.43ZM71.04,20.82l.31-.43h1.87l.31.43h-2.49ZM71.59,24.53l.44.6h-.89l.45-.6ZM71.14,19.11h.89l-.44.6-.45-.6ZM71.47,24.02h1.61l-.31.43h-.99l-.31-.43ZM71.47,20.22l.31-.43h.99l.31.43h-1.61ZM71.9,24.62h.75l-.37.52-.38-.52ZM71.9,19.62l.38-.52.37.52h-.75ZM72.96,24.53l.45.6h-.89l.44-.6ZM72.52,19.11h.89l-.45.6-.44-.6ZM73.4,23.93l.45.6h-.89l.44-.6ZM72.96,19.71h.89l-.45.6-.44-.6ZM73.84,23.33l.45.6h-.89l.44-.6ZM73.4,20.31h.89l-.45.6-.44-.6ZM74.28,22.73l.45.6h-.89l.44-.6ZM73.84,20.92h.89l-.45.6-.44-.6ZM74.72,22.12l.45.6h-.89l.44-.6ZM74.28,21.52h.89l-.45.6-.44-.6Z"/>
        <path class="cls-1" d="M74.73,3.02l.44.6h-.89l.45-.6ZM74.28,2.42h.89l-.44.6-.45-.6ZM75.17,3.62l.44.6h-.89l.45-.6ZM74.72,1.82h.89l-.44.6-.45-.6ZM75.06,3.11h4.22l-.3.42h-3.62l-.3-.42ZM75.06,2.93l.3-.42h3.62l.3.42h-4.22ZM75.61,4.23l.44.6h-.89l.45-.6ZM75.16,1.21h.89l-.44.6-.45-.6ZM75.49,3.71h3.36s-.31.43-.31.43h0s-2.74,0-2.74,0l-.31-.43ZM75.49,2.32l.31-.43h2.74s0,0,0,0l.31.42h-3.36ZM76.05,4.83l.44.6h-.89l.45-.6ZM75.6.61h.89l-.44.6-.45-.6ZM75.93,4.31h2.49l-.31.43h-1.87l-.31-.43ZM75.93,1.72l.31-.43h1.87l.31.43h-2.49ZM76.48,5.43l.44.6h-.89l.45-.6ZM76.04,0h.89l-.44.6-.45-.6ZM76.37,4.92h1.61l-.31.43h-.99l-.31-.43ZM76.37,1.12l.31-.43h.99l.31.43h-1.61ZM76.8,5.52h.75l-.37.52-.38-.52ZM76.8.52l.38-.52.37.52h-.75ZM77.86,5.43l.45.6h-.89l.44-.6ZM77.42,0h.89l-.45.6-.44-.6ZM78.3,4.83l.45.6h-.89l.44-.6ZM77.86.61h.89l-.45.6-.44-.6ZM78.74,4.23l.45.6h-.89l.44-.6ZM78.3,1.21h.89l-.45.6-.44-.6ZM79.18,3.62l.45.6h-.89l.44-.6ZM78.74,1.82h.89l-.45.6-.44-.6ZM79.62,3.02l.45.6h-.89l.44-.6ZM79.18,2.42h.89l-.45.6-.44-.6Z"/>
        <path class="cls-1" d="M74.73,15.76l.44.6h-.89l.45-.6ZM74.28,15.15h.89l-.44.6-.45-.6ZM75.17,16.36l.44.6h-.89l.45-.6ZM74.72,14.55h.89l-.44.6-.45-.6ZM75.06,15.84h4.22l-.3.42h-3.62l-.3-.42ZM75.06,15.66l.3-.42h3.62l.3.42h-4.22ZM75.61,16.96l.44.6h-.89l.45-.6ZM75.16,13.95h.89l-.44.6-.45-.6ZM75.49,16.44h3.36s-.31.43-.31.43h0s-2.74,0-2.74,0l-.31-.43ZM75.49,15.06l.31-.43h2.74s0,0,0,0l.31.42h-3.36ZM76.05,17.56l.44.6h-.89l.45-.6ZM75.6,13.35h.89l-.44.6-.45-.6ZM75.93,17.05h2.49l-.31.43h-1.87l-.31-.43ZM75.93,14.46l.31-.43h1.87l.31.43h-2.49ZM76.48,18.17l.44.6h-.89l.45-.6ZM76.04,12.74h.89l-.44.6-.45-.6ZM76.37,17.65h1.61l-.31.43h-.99l-.31-.43ZM76.37,13.85l.31-.43h.99l.31.43h-1.61ZM76.8,18.25h.75l-.37.52-.38-.52ZM76.8,13.25l.38-.52.37.52h-.75ZM77.86,18.17l.45.6h-.89l.44-.6ZM77.42,12.74h.89l-.45.6-.44-.6ZM78.3,17.56l.45.6h-.89l.44-.6ZM77.86,13.35h.89l-.45.6-.44-.6ZM78.74,16.96l.45.6h-.89l.44-.6ZM78.3,13.95h.89l-.45.6-.44-.6ZM79.18,16.36l.45.6h-.89l.44-.6ZM78.74,14.55h.89l-.45.6-.44-.6ZM79.62,15.76l.45.6h-.89l.44-.6ZM79.18,15.15h.89l-.45.6-.44-.6Z"/>
        <path class="cls-1" d="M79.63,3.02l.44.6h-.89l.45-.6ZM79.18,2.42h.89l-.44.6-.45-.6ZM80.07,3.62l.44.6h-.89l.45-.6ZM79.62,1.82h.89l-.44.6-.45-.6ZM79.96,3.11h4.22l-.3.42h-3.62l-.3-.42ZM79.96,2.93l.3-.42h3.62l.3.42h-4.22ZM80.5,4.23l.44.6h-.89l.45-.6ZM80.06,1.21h.89l-.44.6-.45-.6ZM80.39,3.71h3.36s-.31.43-.31.43h0s-2.74,0-2.74,0l-.31-.43ZM80.39,2.32l.31-.43h2.74s0,0,0,0l.31.42h-3.36ZM80.94,4.83l.44.6h-.89l.45-.6ZM80.5.61h.89l-.44.6-.45-.6ZM80.83,4.31h2.49l-.31.43h-1.87l-.31-.43ZM80.83,1.72l.31-.43h1.87l.31.43h-2.49ZM81.38,5.43l.44.6h-.89l.45-.6ZM80.94,0h.89l-.44.6-.45-.6ZM81.27,4.92h1.61l-.31.43h-.99l-.31-.43ZM81.27,1.12l.31-.43h.99l.31.43h-1.61ZM81.7,5.52h.75l-.37.52-.38-.52ZM81.7.52l.38-.52.37.52h-.75ZM82.76,5.43l.45.6h-.89l.44-.6ZM82.32,0h.89l-.45.6-.44-.6ZM83.2,4.83l.45.6h-.89l.44-.6ZM82.76.61h.89l-.45.6-.44-.6ZM83.64,4.23l.45.6h-.89l.44-.6ZM83.2,1.21h.89l-.45.6-.44-.6ZM84.08,3.62l.45.6h-.89l.44-.6ZM83.64,1.82h.89l-.45.6-.44-.6ZM84.52,3.02l.45.6h-.89l.44-.6ZM84.08,2.42h.89l-.45.6-.44-.6Z"/>
        <path class="cls-1" d="M79.63,9.39l.44.6h-.89l.45-.6ZM79.18,8.79h.89l-.44.6-.45-.6ZM80.07,9.99l.44.6h-.89l.45-.6ZM79.62,8.18h.89l-.44.6-.45-.6ZM79.96,9.47h4.22l-.3.42h-3.62l-.3-.42ZM79.96,9.29l.3-.42h3.62l.3.42h-4.22ZM80.5,10.59l.44.6h-.89l.45-.6ZM80.06,7.58h.89l-.44.6-.45-.6ZM80.39,10.08h3.36s-.31.43-.31.43h0s-2.74,0-2.74,0l-.31-.43ZM80.39,8.69l.31-.43h2.74s0,0,0,0l.31.42h-3.36ZM80.94,11.2l.44.6h-.89l.45-.6ZM80.5,6.98h.89l-.44.6-.45-.6ZM80.83,10.68h2.49l-.31.43h-1.87l-.31-.43ZM80.83,8.09l.31-.43h1.87l.31.43h-2.49ZM81.38,11.8l.44.6h-.89l.45-.6ZM80.94,6.38h.89l-.44.6-.45-.6ZM81.27,11.28h1.61l-.31.43h-.99l-.31-.43ZM81.27,7.49l.31-.43h.99l.31.43h-1.61ZM81.7,11.89h.75l-.37.52-.38-.52ZM81.7,6.88l.38-.52.37.52h-.75ZM82.76,11.8l.45.6h-.89l.44-.6ZM82.32,6.38h.89l-.45.6-.44-.6ZM83.2,11.2l.45.6h-.89l.44-.6ZM82.76,6.98h.89l-.45.6-.44-.6ZM83.64,10.59l.45.6h-.89l.44-.6ZM83.2,7.58h.89l-.45.6-.44-.6ZM84.08,9.99l.45.6h-.89l.44-.6ZM83.64,8.18h.89l-.45.6-.44-.6ZM84.52,9.39l.45.6h-.89l.44-.6ZM84.08,8.79h.89l-.45.6-.44-.6Z"/>
        <path class="cls-1" d="M79.63,15.76l.44.6h-.89l.45-.6ZM79.18,15.15h.89l-.44.6-.45-.6ZM80.07,16.36l.44.6h-.89l.45-.6ZM79.62,14.55h.89l-.44.6-.45-.6ZM79.96,15.84h4.22l-.3.42h-3.62l-.3-.42ZM79.96,15.66l.3-.42h3.62l.3.42h-4.22ZM80.5,16.96l.44.6h-.89l.45-.6ZM80.06,13.95h.89l-.44.6-.45-.6ZM80.39,16.44h3.36s-.31.43-.31.43h0s-2.74,0-2.74,0l-.31-.43ZM80.39,15.06l.31-.43h2.74s0,0,0,0l.31.42h-3.36ZM80.94,17.56l.44.6h-.89l.45-.6ZM80.5,13.35h.89l-.44.6-.45-.6ZM80.83,17.05h2.49l-.31.43h-1.87l-.31-.43ZM80.83,14.46l.31-.43h1.87l.31.43h-2.49ZM81.38,18.17l.44.6h-.89l.45-.6ZM80.94,12.74h.89l-.44.6-.45-.6ZM81.27,17.65h1.61l-.31.43h-.99l-.31-.43ZM81.27,13.85l.31-.43h.99l.31.43h-1.61ZM81.7,18.25h.75l-.37.52-.38-.52ZM81.7,13.25l.38-.52.37.52h-.75ZM82.76,18.17l.45.6h-.89l.44-.6ZM82.32,12.74h.89l-.45.6-.44-.6ZM83.2,17.56l.45.6h-.89l.44-.6ZM82.76,13.35h.89l-.45.6-.44-.6ZM83.64,16.96l.45.6h-.89l.44-.6ZM83.2,13.95h.89l-.45.6-.44-.6ZM84.08,16.36l.45.6h-.89l.44-.6ZM83.64,14.55h.89l-.45.6-.44-.6ZM84.52,15.76l.45.6h-.89l.44-.6ZM84.08,15.15h.89l-.45.6-.44-.6Z"/>
        <path class="cls-1" d="M79.63,22.12l.44.6h-.89l.45-.6ZM79.18,21.52h.89l-.44.6-.45-.6ZM80.07,22.73l.44.6h-.89l.45-.6ZM79.62,20.92h.89l-.44.6-.45-.6ZM79.96,22.21h4.22l-.3.42h-3.62l-.3-.42ZM79.96,22.03l.3-.42h3.62l.3.42h-4.22ZM80.5,23.33l.44.6h-.89l.45-.6ZM80.06,20.31h.89l-.44.6-.45-.6ZM80.39,22.81h3.36s-.31.43-.31.43h0s-2.74,0-2.74,0l-.31-.43ZM80.39,21.43l.31-.43h2.74s0,0,0,0l.31.42h-3.36ZM80.94,23.93l.44.6h-.89l.45-.6ZM80.5,19.71h.89l-.44.6-.45-.6ZM80.83,23.41h2.49l-.31.43h-1.87l-.31-.43ZM80.83,20.82l.31-.43h1.87l.31.43h-2.49ZM81.38,24.53l.44.6h-.89l.45-.6ZM80.94,19.11h.89l-.44.6-.45-.6ZM81.27,24.02h1.61l-.31.43h-.99l-.31-.43ZM81.27,20.22l.31-.43h.99l.31.43h-1.61ZM81.7,24.62h.75l-.37.52-.38-.52ZM81.7,19.62l.38-.52.37.52h-.75ZM82.76,24.53l.45.6h-.89l.44-.6ZM82.32,19.11h.89l-.45.6-.44-.6ZM83.2,23.93l.45.6h-.89l.44-.6ZM82.76,19.71h.89l-.45.6-.44-.6ZM83.64,23.33l.45.6h-.89l.44-.6ZM83.2,20.31h.89l-.45.6-.44-.6ZM84.08,22.73l.45.6h-.89l.44-.6ZM83.64,20.92h.89l-.45.6-.44-.6ZM84.52,22.12l.45.6h-.89l.44-.6ZM84.08,21.52h.89l-.45.6-.44-.6Z"/>
        <path class="cls-1" d="M52.32,15.15h.89l-.44.6-.45-.6ZM52.77,15.75l.44.6h-.89l.45-.6ZM52.76,14.54h.89l-.44.6-.45-.6ZM53.21,16.35l.44.6h-.89l.45-.6ZM53.41,15.24h3.62l.3.42h-4.22l.3-.42ZM57.32,15.84l-.3.42h-3.62l-.3-.42h4.22ZM53.2,13.94h.89l-.44.6-.45-.6ZM53.65,16.96l.44.6h-.89l.45-.6ZM53.84,14.63h2.74s0,0,0,0l.31.42h-3.36s.31-.42.31-.42ZM56.89,16.46l-.31.42h0s-2.74,0-2.74,0l-.31-.43h3.36ZM53.64,13.34h.89l-.44.6-.45-.6ZM54.09,17.56l.44.6h-.89l.45-.6ZM54.28,14.03h1.87l.31.43h-2.49l.31-.43ZM56.46,17.05l-.31.43h-1.87l-.31-.43h2.49ZM54.08,12.74h.89l-.44.6-.45-.6ZM54.53,18.16l.44.6h-.89l.45-.6ZM54.72,13.43h.99l.31.43h-1.61l.31-.43ZM56.02,17.65l-.31.43h-.99l-.31-.43h1.61ZM55.22,12.74l.37.52h-.75l.38-.52ZM55.59,18.26l-.37.52-.38-.52h.75ZM55.9,18.16l.45.6h-.89l.44-.6ZM56.34,17.56l.45.6h-.89l.44-.6ZM56.78,16.96l.45.6h-.89l.44-.6ZM57.22,16.35l.45.6h-.89l.44-.6Z"/>
        <path class="cls-1" d="M52.32,21.51h.89l-.44.6-.45-.6ZM52.77,22.11l.44.6h-.89l.45-.6ZM52.76,20.91h.89l-.44.6-.45-.6ZM53.21,22.72l.44.6h-.89l.45-.6ZM53.41,21.61h3.62l.3.42h-4.22l.3-.42ZM57.32,22.21l-.3.42h-3.62l-.3-.42h4.22ZM53.2,20.31h.89l-.44.6-.45-.6ZM53.65,23.32l.44.6h-.89l.45-.6ZM53.84,20.99h2.74s0,0,0,0l.31.42h-3.36s.31-.42.31-.42ZM56.89,22.82l-.31.42h0s-2.74,0-2.74,0l-.31-.43h3.36ZM53.64,19.7h.89l-.44.6-.45-.6ZM54.09,23.92l.44.6h-.89l.45-.6ZM54.28,20.39h1.87l.31.43h-2.49l.31-.43ZM56.46,23.41l-.31.43h-1.87l-.31-.43h2.49ZM54.08,19.1h.89l-.44.6-.45-.6ZM54.53,24.52l.44.6h-.89l.45-.6ZM54.72,19.79h.99l.31.43h-1.61l.31-.43ZM56.02,24.02l-.31.43h-.99l-.31-.43h1.61ZM55.22,19.1l.37.52h-.75l.38-.52ZM55.59,24.62l-.37.52-.38-.52h.75ZM55.46,19.1h.89l-.45.6-.44-.6ZM55.9,24.52l.45.6h-.89l.44-.6ZM55.9,19.7h.89l-.45.6-.44-.6ZM56.34,23.92l.45.6h-.89l.44-.6ZM56.34,20.31h.89l-.45.6-.44-.6ZM56.78,23.32l.45.6h-.89l.44-.6ZM56.78,20.91h.89l-.45.6-.44-.6ZM57.22,22.72l.45.6h-.89l.44-.6ZM57.22,21.51h.89l-.45.6-.44-.6ZM57.66,22.11l.45.6h-.89l.44-.6Z"/>
        <path class="cls-1" d="M55.72,12.06h3.62l.3.42h-4.22l.3-.42ZM59.64,12.66l-.3.42h-3.62l-.3-.42h4.22ZM56.16,11.44h2.74s0,0,0,0l.31.42h-3.36s.31-.42.31-.42ZM59.21,13.27l-.31.42h0s-2.74,0-2.74,0l-.31-.43h3.36ZM56.6,10.84h1.87l.31.43h-2.49l.31-.43ZM58.78,13.86l-.31.43h-1.87l-.31-.43h2.49ZM57.04,10.24h.99l.31.43h-1.61l.31-.43ZM58.34,14.47l-.31.43h-.99l-.31-.43h1.61ZM57.54,9.55l.37.52h-.75l.38-.52ZM57.91,15.07l-.37.52-.38-.52h.75Z"/>
        <path class="cls-1" d="M52.77,3.02l.44.6h-.89l.45-.6ZM52.33,2.42h.89l-.44.6-.45-.6ZM53.21,3.62l.44.6h-.89l.45-.6ZM52.76,1.82h.89l-.44.6-.45-.6ZM53.11,3.11h4.22l-.3.42h-3.62l-.3-.42ZM53.11,2.93l.3-.42h3.62l.3.42h-4.22ZM53.65,4.23l.44.6h-.89l.45-.6ZM53.2,1.21h.89l-.44.6-.45-.6ZM53.54,3.71h3.36s-.31.43-.31.43h0s-2.74,0-2.74,0l-.31-.43ZM53.54,2.32l.31-.43h2.74s0,0,0,0l.31.42h-3.36ZM54.09,4.83l.44.6h-.89l.45-.6ZM53.64.61h.89l-.44.6-.45-.6ZM53.98,4.31h2.49l-.31.43h-1.87l-.31-.43ZM53.98,1.72l.31-.43h1.87l.31.43h-2.49ZM54.53,5.43l.44.6h-.89l.45-.6ZM54.08,0h.89l-.44.6-.45-.6ZM54.42,4.92h1.61l-.31.43h-.99l-.31-.43ZM54.42,1.12l.31-.43h.99l.31.43h-1.61ZM54.85,5.52h.75l-.37.52-.38-.52ZM54.85.52L55.23,0l.37.52h-.75ZM55.91,5.43l.45.6h-.89l.44-.6ZM55.47,0h.89l-.45.6-.44-.6ZM56.35,4.83l.45.6h-.89l.44-.6ZM55.91.61h.89l-.45.6-.44-.6ZM56.78,4.23l.45.6h-.89l.44-.6ZM56.35,1.21h.89l-.45.6-.44-.6ZM57.22,3.62l.45.6h-.89l.44-.6ZM56.78,1.82h.89l-.45.6-.44-.6ZM57.66,3.02l.45.6h-.89l.44-.6ZM57.22,2.42h.89l-.45.6-.44-.6Z"/>
        <path class="cls-1" d="M59.24,5.6h.89l-.44.6-.45-.6ZM59.67,5h.89l-.44.6-.45-.6ZM60.02,6.29h4.22l-.3.42h-3.62l-.3-.42ZM60.02,6.11l.3-.42h3.62l.3.42h-4.22ZM60.11,4.4h.89l-.44.6-.45-.6ZM60.45,6.89h3.36s-.31.43-.31.43h0s-2.74,0-2.74,0l-.31-.43ZM60.45,5.51l.31-.43h2.74s0,0,0,0l.31.42h-3.36ZM60.55,3.79h.89l-.44.6-.45-.6ZM60.89,7.5h2.49l-.31.43h-1.87l-.31-.43ZM60.89,4.9l.31-.43h1.87l.31.43h-2.49ZM60.99,3.19h.89l-.44.6-.45-.6ZM61.33,8.1h1.61l-.31.43h-.99l-.31-.43ZM61.33,4.3l.31-.43h.99l.31.43h-1.61ZM61.76,8.7h.75l-.37.52-.38-.52ZM61.76,3.7l.38-.52.37.52h-.75ZM62.82,8.61l.45.6h-.89l.44-.6ZM63.26,8.01l.45.6h-.89l.44-.6ZM63.69,7.41l.45.6h-.89l.44-.6ZM64.13,6.81l.45.6h-.89l.44-.6ZM64.57,6.2l.45.6h-.89l.44-.6Z"/>
        <path class="cls-1" d="M52.77,9.39l.44.6h-.89l.45-.6ZM52.33,8.78h.89l-.44.6-.45-.6ZM53.21,9.99l.44.6h-.89l.45-.6ZM52.76,8.18h.89l-.44.6-.45-.6ZM53.11,9.47h4.22l-.3.42h-3.62l-.3-.42ZM53.11,9.29l.3-.42h3.62l.3.42h-4.22ZM53.65,10.59l.44.6h-.89l.45-.6ZM53.2,7.58h.89l-.44.6-.45-.6ZM53.54,10.07h3.36s-.31.43-.31.43h0s-2.74,0-2.74,0l-.31-.43ZM53.54,8.69l.31-.43h2.74s0,0,0,0l.31.42h-3.36ZM54.09,11.19l.44.6h-.89l.45-.6ZM53.64,6.98h.89l-.44.6-.45-.6ZM53.98,10.68h2.49l-.31.43h-1.87l-.31-.43ZM53.98,8.09l.31-.43h1.87l.31.43h-2.49ZM54.53,11.8l.44.6h-.89l.45-.6ZM54.08,6.37h.89l-.44.6-.45-.6ZM54.42,11.28h1.61l-.31.43h-.99l-.31-.43ZM54.42,7.48l.31-.43h.99l.31.43h-1.61ZM54.85,11.88h.75l-.37.52-.38-.52ZM54.85,6.88l.38-.52.37.52h-.75ZM55.47,6.37h.89l-.45.6-.44-.6ZM55.91,6.98h.89l-.45.6-.44-.6ZM56.35,7.58h.89l-.45.6-.44-.6ZM56.78,8.18h.89l-.45.6-.44-.6Z"/>
        <path class="cls-1" d="M57.22,8.78h.6l-.29.41-.31-.41ZM57.38,8.18h.89l-.44.6-.45-.6ZM57.72,9.47h4.22l-.3.42h-3.62l-.3-.42ZM57.72,9.29l.3-.42h3.62l.3.42h-4.22ZM57.81,7.58h.89l-.44.6-.45-.6ZM58.15,10.07h3.36s-.31.43-.31.43h0s-2.74,0-2.74,0l-.31-.43ZM58.15,8.69l.31-.43h2.74s0,0,0,0l.31.42h-3.36ZM58.25,6.98h.89l-.44.6-.45-.6ZM58.59,10.68h2.49l-.31.43h-1.87l-.31-.43ZM58.59,8.09l.31-.43h1.87l.31.43h-2.49ZM58.69,6.37h.89l-.44.6-.45-.6ZM59.03,11.28h1.61l-.31.43h-.99l-.31-.43ZM59.03,7.48l.31-.43h.99l.31.43h-1.61ZM59.46,11.88h.75l-.37.52-.38-.52ZM59.46,6.88l.38-.52.37.52h-.75ZM60.52,11.8l.45.6h-.89l.44-.6ZM60.96,11.19l.45.6h-.89l.44-.6ZM61.4,10.59l.45.6h-.89l.44-.6ZM61.83,9.99l.45.6h-.89l.44-.6ZM62.27,9.39l.45.6h-.89l.44-.6Z"/>
        <path class="cls-1" d="M61.55,2.42h.89l-.44.6-.45-.6ZM61.99,1.82h.89l-.44.6-.45-.6ZM62.33,3.11h4.22l-.3.42h-3.62l-.3-.42ZM62.33,2.93l.3-.42h3.62l.3.42h-4.22ZM62.43,1.21h.89l-.44.6-.45-.6ZM62.76,3.71h3.36s-.31.43-.31.43h0s-2.74,0-2.74,0l-.31-.43ZM62.76,2.32l.31-.43h2.74s0,0,0,0l.31.42h-3.36ZM62.87.61h.89l-.44.6-.45-.6ZM63.2,4.31h2.49l-.31.43h-1.87l-.31-.43ZM63.2,1.72l.31-.43h1.87l.31.43h-2.49ZM63.31,0h.89l-.44.6-.45-.6ZM63.64,4.92h1.61l-.31.43h-.99l-.31-.43ZM63.64,1.12l.31-.43h.99l.31.43h-1.61ZM64.07,5.52h.75l-.37.52-.38-.52ZM64.07.52L64.45,0l.37.52h-.75ZM65.13,5.43l.45.6h-.89l.44-.6ZM64.69,0h.89l-.45.6-.44-.6ZM65.57,4.83l.45.6h-.89l.44-.6ZM65.13.61h.89l-.45.6-.44-.6ZM66.01,4.23l.45.6h-.89l.44-.6ZM65.57,1.21h.89l-.45.6-.44-.6ZM66.45,3.62l.45.6h-.89l.44-.6ZM66.01,1.82h.89l-.45.6-.44-.6ZM66.89,3.02l.45.6h-.89l.44-.6ZM66.45,2.42h.89l-.45.6-.44-.6Z"/>
        <g>
          <path class="cls-1" d="M59.68,18.93l.44.6h-.89l.45-.6ZM60.12,19.53l.44.6h-.89l.45-.6ZM60.32,18.42h3.62l.3.42h-4.22l.3-.42ZM64.24,19.03l-.3.42h-3.62l-.3-.42h4.22ZM60.56,20.14l.44.6h-.89l.45-.6ZM60.76,17.81h2.74s0,0,0,0l.31.42h-3.36s.31-.42.31-.42ZM63.81,19.64l-.31.42h0s-2.74,0-2.74,0l-.31-.43h3.36ZM61,20.74l.44.6h-.89l.45-.6ZM61.2,17.21h1.87l.31.43h-2.49l.31-.43ZM63.38,20.23l-.31.43h-1.87l-.31-.43h2.49ZM61.44,21.34l.44.6h-.89l.45-.6ZM61.64,16.61h.99l.31.43h-1.61l.31-.43ZM62.94,20.83l-.31.43h-.99l-.31-.43h1.61ZM62.14,15.92l.37.52h-.75l.38-.52ZM62.51,21.44l-.37.52-.38-.52h.75ZM62.38,15.92h.89l-.45.6-.44-.6ZM62.82,16.52h.89l-.45.6-.44-.6ZM63.26,17.12h.89l-.45.6-.44-.6ZM63.69,17.73h.89l-.45.6-.44-.6ZM64.13,18.33h.89l-.45.6-.44-.6Z"/>
          <path class="cls-1" d="M57.53,15.95l.29.41h-.6l.31-.41ZM57.82,16.35l.44.6h-.89l.45-.6ZM58.02,15.24h3.62l.3.42h-4.22l.3-.42ZM61.94,15.84l-.3.42h-3.62l-.3-.42h4.22ZM58.26,16.96l.44.6h-.89l.45-.6ZM58.46,14.63h2.74s0,0,0,0l.31.42h-3.36s.31-.42.31-.42ZM61.51,16.46l-.31.42h0s-2.74,0-2.74,0l-.31-.43h3.36ZM58.7,17.56l.44.6h-.89l.45-.6ZM58.9,14.03h1.87l.31.43h-2.49l.31-.43ZM61.08,17.05l-.31.43h-1.87l-.31-.43h2.49ZM59.14,18.16l.44.6h-.89l.45-.6ZM59.34,13.43h.99l.31.43h-1.61l.31-.43ZM60.64,17.65l-.31.43h-.99l-.31-.43h1.61ZM59.84,12.74l.37.52h-.75l.38-.52ZM60.21,18.26l-.37.52-.38-.52h.75ZM60.08,12.74h.89l-.45.6-.44-.6ZM60.52,13.34h.89l-.45.6-.44-.6ZM60.96,13.94h.89l-.45.6-.44-.6ZM61.4,14.54h.89l-.45.6-.44-.6ZM61.83,15.15h.89l-.45.6-.44-.6Z"/>
          <path class="cls-1" d="M62,22.11l.44.6h-.89l.45-.6ZM62.44,22.72l.44.6h-.89l.45-.6ZM62.63,21.61h3.62l.3.42h-4.22l.3-.42ZM66.55,22.21l-.3.42h-3.62l-.3-.42h4.22ZM62.87,23.32l.44.6h-.89l.45-.6ZM63.07,20.99h2.74s0,0,0,0l.31.42h-3.36s.31-.42.31-.42ZM66.12,22.82l-.31.42h0s-2.74,0-2.74,0l-.31-.43h3.36ZM63.31,23.92l.44.6h-.89l.45-.6ZM63.51,20.39h1.87l.31.43h-2.49l.31-.43ZM65.69,23.41l-.31.43h-1.87l-.31-.43h2.49ZM63.75,24.52l.44.6h-.89l.45-.6ZM63.95,19.79h.99l.31.43h-1.61l.31-.43ZM65.25,24.02l-.31.43h-.99l-.31-.43h1.61ZM64.45,19.1l.37.52h-.75l.38-.52ZM64.82,24.62l-.37.52-.38-.52h.75ZM64.69,19.1h.89l-.45.6-.44-.6ZM65.13,24.52l.45.6h-.89l.44-.6ZM65.13,19.7h.89l-.45.6-.44-.6ZM65.57,23.92l.45.6h-.89l.44-.6ZM65.57,20.31h.89l-.45.6-.44-.6ZM66.01,23.32l.45.6h-.89l.44-.6ZM66.01,20.91h.89l-.45.6-.44-.6ZM66.45,22.72l.45.6h-.89l.44-.6ZM66.45,21.51h.89l-.45.6-.44-.6ZM66.89,22.11l.45.6h-.89l.44-.6Z"/>
        </g>
      </g>
      <g>
        <g>
          <path class="cls-1" d="M91.05,17.43v-.48h-.47v-.96h.47v-.47h1.42v-.46h-1.42v-.48h1.91v.47h.47v2.39h-2.38ZM92.47,16h-.94v.95h.94v-.95Z"/>
          <path class="cls-1" d="M96.94,16.95v.48h-1.43v-.48h.95v-.47h-.47v-.47h-.47v-.96h.47v-.47h1.44v.48h-.95v.47h.47v.47h.48s0,.96,0,.96h-.48Z"/>
          <path class="cls-1" d="M99.98,17.43v-.48h-.47v-.96h.47v-.47h1.42v-.46h-1.42v-.48h1.91v.47h.47v2.39h-2.38ZM101.4,16h-.94v.95h.94v-.95Z"/>
          <path class="cls-1" d="M108.24,17.43v-2.38h-.46v.47h-.48v1.9h-.96v-2.38h-.47v.47h-.47v1.9h-.96v-2.86h.96v.47h.47v-.47h.96v.47h.94v-.47h.96v.47h.48v2.39h-.96Z"/>
          <path class="cls-1" d="M113.66,16.95v.48h-2.38v-3.81h.96v.95h1.42v.47h.47v1.91h-.47ZM113.18,15.05h-.94v1.89h.94v-1.89Z"/>
          <path class="cls-1" d="M116.22,17.43v-3.81h.96v3.81h-.96Z"/>
          <path class="cls-1" d="M121.63,16.95v.48h-1.91v-.48h-.47v-1.91h.47v-.47h1.91v.47h.47v.48h-.47v.47h-.95v.47h-.47v.47h1.41v-.48h.48v.49h-.47ZM121.15,15.05h-.94v.93h.47v-.47h.47v-.47Z"/>
          <path class="cls-1" d="M124.67,17.43v-.48h-.47v-.96h.47v-.47h1.42v-.46h-1.42v-.48h1.91v.47h.47v2.39h-2.38ZM126.09,16h-.94v.95h.94v-.95Z"/>
          <path class="cls-1" d="M132.17,17.43v-.48h-.47v-1.91h.47v-.47h1.42v-.95h.96v3.81h-2.38ZM133.59,15.05h-.94v1.89h.94v-1.89Z"/>
          <path class="cls-1" d="M139.02,16.95v.48h-1.91v-.48h-.47v-1.91h.47v-.47h1.91v.47h.47v.48h-.47v.47h-.95v.47h-.47v.47h1.41v-.48h.48v.49h-.47ZM138.53,15.05h-.94v.93h.47v-.47h.47v-.47Z"/>
          <path class="cls-1" d="M147.93,17.43v-2.38h-.46v.47h-.48v1.9h-.96v-2.38h-.47v.47h-.47v1.9h-.96v-2.86h.96v.47h.47v-.47h.96v.47h.94v-.47h.96v.47h.48v2.39h-.96Z"/>
          <path class="cls-1" d="M153.35,16.95v.48h-1.91v-.48h-.47v-2.38h.96v2.38h.94v-2.38h.96v2.38h-.47Z"/>
          <path class="cls-1" d="M157.81,17.43v-2.38h-.47v.47h-.47v1.9h-.96v-2.86h.96v.47h.47v-.47h.96v.47h.47v2.39h-.96Z"/>
          <path class="cls-1" d="M161.32,17.43v-.48h-.47v-1.91h.47v-.47h1.42v-.95h.96v3.81h-2.38ZM162.75,15.05h-.94v1.89h.94v-1.89Z"/>
          <path class="cls-1" d="M168.17,16.95v.48h-1.91v-.48h-.47v-1.91h.47v-.47h1.91v.47h.47v1.91h-.47ZM167.69,15.05h-.94v1.89h.94v-1.89Z"/>
          <path class="cls-1" d="M172.16,16.95v.48h-1.43v-.48h.95v-.47h-.47v-.47h-.47v-.96h.47v-.47h1.44v.48h-.95v.47h.47v.47h.48s0,.96,0,.96h-.48Z"/>
          <path class="cls-1" d="M179.66,16.95v.48h-1.42v.95h-.96v-3.81h2.38v.47h.47v1.91h-.47ZM179.18,15.05h-.94v1.89h.94v-1.89Z"/>
          <path class="cls-1" d="M184.6,16.95v.48h-1.91v-.48h-.47v-1.91h.47v-.47h1.91v.47h.47v1.91h-.47ZM184.12,15.05h-.94v1.89h.94v-1.89Z"/>
          <path class="cls-1" d="M188.59,16.95v.48h-1.43v-.48h.95v-.47h-.47v-.47h-.47v-.96h.47v-.47h1.44v.48h-.95v.47h.47v.47h.48s0,.96,0,.96h-.48Z"/>
          <path class="cls-1" d="M191.15,14.1v-.48h.96v.48h-.96ZM191.15,17.43v-2.86h.96v2.86h-.96Z"/>
          <path class="cls-1" d="M196.57,16.95v.48h-2.38v-3.81h.96v.95h1.42v.47h.47v1.91h-.47ZM196.08,15.05h-.94v1.89h.94v-1.89Z"/>
          <path class="cls-1" d="M199.12,17.43v-3.81h.96v3.81h-.96Z"/>
          <path class="cls-1" d="M204.54,16.95v.48h-1.91v-.48h-.47v-1.91h.47v-.47h1.91v.47h.47v.48h-.47v.47h-.95v.47h-.47v.47h1.41v-.48h.48v.49h-.47ZM204.06,15.05h-.94v.93h.47v-.47h.47v-.47Z"/>
          <path class="cls-1" d="M208.53,16.95v.48h-1.43v-.48h.95v-.47h-.47v-.47h-.47v-.96h.47v-.47h1.44v.48h-.95v.47h.47v.47h.48s0,.96,0,.96h-.48Z"/>
        </g>
        <g>
          <path class="cls-1" d="M92.39,24.37v.76h-.77v-.76h-1.14v-.76h.38v-.77h.39v.77h-.38v.37h.75v-1.9h.77v1.9h.38v.39h-.38Z"/>
          <path class="cls-1" d="M95.57,23.24v.76h-.38v1.14s-.76,0-.76,0v-1.15h.38v-.76h.38v-.75h-1.14v-.39h1.91v1.15h-.39Z"/>
          <path class="cls-1" d="M100.82,24.75v.38h-1.14v-.39h.76v-.37h-.38v-.38h-.38v-.77h.38v-.38h1.15v.39h-.76v.37h.38v.38h.38s0,.77,0,.77h-.38Z"/>
          <path class="cls-1" d="M103.24,25.14v-.38h-.38v-.77h.38v-.38h1.14v-.37h-1.14v-.39h1.53v.38h.38v1.91h-1.91ZM104.38,23.99h-.75v.76h.75v-.76Z"/>
          <path class="cls-1" d="M106.82,25.14v-3.05h.77v3.05h-.77Z"/>
          <path class="cls-1" d="M111.15,24.75v.38h-1.53v-.38h-.38v-1.53h.38v-.38h1.53v.38h.38v1.53h-.38ZM110.39,22.1v.38h-.39v-.39h.38v-.38h.39v.39h-.38ZM110.76,23.24h-.75v1.51h.75v-1.51Z"/>
          <path class="cls-1" d="M114.71,25.14v-1.9h-.37v.38h-.38v1.52h-.77v-2.29h.77v.38h.37v-.38h.77v.38h.38v1.91h-.77Z"/>
          <path class="cls-1" d="M120.72,25.14v-1.9h-.37v.38h-.38v1.52h-.77v-2.29h.77v.38h.37v-.38h.77v.38h.38v1.91h-.77Z"/>
          <path class="cls-1" d="M123.53,25.14v-.38h-.38v-.77h.38v-.38h1.14v-.37h-1.14v-.39h1.53v.38h.38v1.91h-1.91ZM124.67,23.99h-.75v.76h.75v-.76Z"/>
          <path class="cls-1" d="M128.63,24.75v.38h-1.15v-.38h-.38v-1.53h.38v-.38h1.53v.77h-.39v-.38h-.75v1.51h.75v-.39h.39v.39h-.38Z"/>
          <path class="cls-1" d="M130.67,22.47v-.39h.77v.39h-.77ZM130.67,25.14v-2.29h.77v2.29h-.77Z"/>
          <path class="cls-1" d="M135,24.75v.38h-1.53v-.38h-.38v-1.53h.38v-.38h1.53v.38h.38v1.53h-.38ZM134.62,23.24h-.75v1.51h.75v-1.51Z"/>
          <path class="cls-1" d="M138.57,25.14v-1.9h-.37v.38h-.38v1.52h-.77v-2.29h.77v.38h.37v-.38h.77v.38h.38v1.91h-.77Z"/>
          <path class="cls-1" d="M141.38,25.14v-.38h-.38v-.77h.38v-.38h1.14v-.37h-1.14v-.39h1.53v.38h.38v1.91h-1.91ZM142.52,23.99h-.75v.76h.75v-.76Z"/>
          <path class="cls-1" d="M144.95,25.14v-3.05h.77v3.05h-.77Z"/>
          <path class="cls-1" d="M149.81,25.14v-.38h-.38v-1.53h.38v-.38h1.14v-.76h.77v3.05h-1.91ZM150.95,23.24h-.75v1.51h.75v-1.51Z"/>
          <path class="cls-1" d="M155.29,24.75v.38h-1.53v-.38h-.38v-1.53h.38v-.38h1.53v.38h.38v.39h-.38v.38h-.76v.38h-.38v.38h1.13v-.39h.39v.39h-.38ZM154.9,23.24h-.75v.75h.37v-.37h.38v-.37Z"/>
          <path class="cls-1" d="M159.76,25.14v-.38h-.38v-.77h.38v-.38h1.14v-.37h-1.14v-.39h1.53v.38h.38v1.91h-1.91ZM160.9,23.99h-.75v.76h.75v-.76Z"/>
          <path class="cls-1" d="M164.1,23.61v1.52h-.77v-2.29h.77v.38h.37v-.38h.39v.77h-.76Z"/>
          <path class="cls-1" d="M167.29,23.24v1.9h-.77v-1.9h-.38v-.39h.38v-.76h.77v.76h.38v.39h-.38Z"/>
          <path class="cls-1" d="M168.96,22.47v-.39h.77v.39h-.77ZM168.96,25.14v-2.29h.77v2.29h-.77Z"/>
          <path class="cls-1" d="M172.53,24.75v.38h-1.14v-.39h.76v-.37h-.38v-.38h-.38v-.77h.38v-.38h1.15v.39h-.76v.37h.38v.38h.38s0,.77,0,.77h-.38Z"/>
          <path class="cls-1" d="M175.34,23.24v1.9h-.77v-1.9h-.38v-.39h.38v-.76h.77v.76h.38v.39h-.38Z"/>
          <path class="cls-1" d="M177.38,25.14v-.38h-.38v-.77h.38v-.38h1.14v-.37h-1.14v-.39h1.53v.38h.38v1.91h-1.91ZM178.52,23.99h-.75v.76h.75v-.76Z"/>
          <path class="cls-1" d="M182.1,24.75v.38h-1.14v-.39h.76v-.37h-.38v-.38h-.38v-.77h.38v-.38h1.15v.39h-.76v.37h.38v.38h.38s0,.77,0,.77h-.38Z"/>
        </g>
      </g>
    </g>
  </g>
</svg>