<?xml version="1.0" encoding="UTF-8"?>
<svg id="Layer_2" data-name="Layer 2" xmlns="http://www.w3.org/2000/svg" viewBox="0 0 209.03 25.14">
  <defs>
    <style>
      .cls-1 {
        fill: #fff;
      }
    </style>
  </defs>
  <g id="Contenido">
    <g>
      <g>
        <g>
          <path class="cls-1" d="M17.51,3.02l.44.6h-.89l.45-.6ZM17.06,2.42h.89l-.44.6-.45-.6ZM17.95,3.62l.44.6h-.89l.45-.6ZM17.5,1.82h.89l-.44.6-.45-.6ZM18.38,4.23l.44.6h-.89l.45-.6ZM17.94,1.21h.89l-.44.6-.45-.6ZM18.82,4.83l.44.6h-.89l.45-.6ZM18.38.61h.89l-.44.6-.45-.6ZM19.26,5.43l.44.6h-.89l.45-.6ZM18.82,0h.89l-.44.6-.45-.6ZM20.64,5.43l.45.6h-.89l.44-.6ZM20.2,0h.89l-.45.6-.44-.6ZM21.08,4.83l.45.6h-.89l.44-.6ZM20.64.61h.89l-.45.6-.44-.6ZM21.52,4.23l.45.6h-.89l.44-.6ZM21.08,1.21h.89l-.45.6-.44-.6ZM21.96,3.62l.45.6h-.89l.44-.6ZM21.52,1.82h.89l-.45.6-.44-.6ZM22.4,3.02l.45.6h-.89l.44-.6ZM21.96,2.42h.89l-.45.6-.44-.6Z"/>
          <path class="cls-1" d="M17.51,9.39l.44.6h-.89l.45-.6ZM17.06,8.79h.89l-.44.6-.45-.6ZM17.95,9.99l.44.6h-.89l.45-.6ZM17.5,8.18h.89l-.44.6-.45-.6ZM18.38,10.6l.44.6h-.89l.45-.6ZM17.94,7.58h.89l-.44.6-.45-.6ZM18.82,11.2l.44.6h-.89l.45-.6ZM18.38,6.98h.89l-.44.6-.45-.6ZM19.26,11.8l.44.6h-.89l.45-.6ZM18.82,6.38h.89l-.44.6-.45-.6ZM20.64,11.8l.45.6h-.89l.44-.6ZM20.2,6.38h.89l-.45.6-.44-.6ZM21.08,11.2l.45.6h-.89l.44-.6ZM20.64,6.98h.89l-.45.6-.44-.6ZM21.52,10.6l.45.6h-.89l.44-.6ZM21.08,7.58h.89l-.45.6-.44-.6ZM21.96,9.99l.45.6h-.89l.44-.6ZM21.52,8.18h.89l-.45.6-.44-.6ZM22.4,9.39l.45.6h-.89l.44-.6ZM21.96,8.79h.89l-.45.6-.44-.6Z"/>
          <path class="cls-1" d="M17.51,15.76l.44.6h-.89l.45-.6ZM17.06,15.15h.89l-.44.6-.45-.6ZM17.95,16.36l.44.6h-.89l.45-.6ZM17.5,14.55h.89l-.44.6-.45-.6ZM18.38,16.96l.44.6h-.89l.45-.6ZM17.94,13.95h.89l-.44.6-.45-.6ZM18.82,17.57l.44.6h-.89l.45-.6ZM18.38,13.35h.89l-.44.6-.45-.6ZM19.26,18.17l.44.6h-.89l.45-.6ZM18.82,12.74h.89l-.44.6-.45-.6ZM20.64,18.17l.45.6h-.89l.44-.6ZM20.2,12.74h.89l-.45.6-.44-.6ZM21.08,17.57l.45.6h-.89l.44-.6ZM20.64,13.35h.89l-.45.6-.44-.6ZM21.52,16.96l.45.6h-.89l.44-.6ZM21.08,13.95h.89l-.45.6-.44-.6ZM21.96,16.36l.45.6h-.89l.44-.6ZM21.52,14.55h.89l-.45.6-.44-.6ZM22.4,15.76l.45.6h-.89l.44-.6ZM21.96,15.15h.89l-.45.6-.44-.6Z"/>
          <path class="cls-1" d="M17.51,22.12l.44.6h-.89l.45-.6ZM17.06,21.51h.89l-.44.6-.45-.6ZM17.95,22.72l.44.6h-.89l.45-.6ZM17.5,20.91h.89l-.44.6-.45-.6ZM18.38,23.32l.44.6h-.89l.45-.6ZM17.94,20.31h.89l-.44.6-.45-.6ZM18.82,23.92l.44.6h-.89l.45-.6ZM18.38,19.71h.89l-.44.6-.45-.6ZM19.26,24.53l.44.6h-.89l.45-.6ZM18.82,19.1h.89l-.44.6-.45-.6ZM20.64,24.53l.45.6h-.89l.44-.6ZM20.2,19.1h.89l-.45.6-.44-.6ZM21.08,23.92l.45.6h-.89l.44-.6ZM20.64,19.71h.89l-.45.6-.44-.6ZM21.52,23.32l.45.6h-.89l.44-.6ZM21.08,20.31h.89l-.45.6-.44-.6ZM21.96,22.72l.45.6h-.89l.44-.6ZM21.52,20.91h.89l-.45.6-.44-.6ZM22.4,22.12l.45.6h-.89l.44-.6ZM21.96,21.51h.89l-.45.6-.44-.6Z"/>
          <path class="cls-1" d="M22.41,3.02l.44.6h-.89l.45-.6ZM21.96,2.42h.89l-.44.6-.45-.6ZM22.85,3.62l.44.6h-.89l.45-.6ZM22.4,1.82h.89l-.44.6-.45-.6ZM23.29,4.23l.44.6h-.89l.45-.6ZM22.84,1.21h.89l-.44.6-.45-.6ZM23.73,4.83l.44.6h-.89l.45-.6ZM23.28.61h.89l-.44.6-.45-.6ZM24.17,5.43l.44.6h-.89l.45-.6ZM23.72,0h.89l-.44.6-.45-.6ZM25.54,5.43l.45.6h-.89l.44-.6ZM25.1,0h.89l-.45.6-.44-.6ZM25.98,4.83l.45.6h-.89l.44-.6ZM25.54.61h.89l-.45.6-.44-.6ZM26.42,4.23l.45.6h-.89l.44-.6ZM25.98,1.21h.89l-.45.6-.44-.6ZM26.86,3.62l.45.6h-.89l.44-.6ZM26.42,1.82h.89l-.45.6-.44-.6ZM27.3,3.02l.45.6h-.89l.44-.6ZM26.86,2.42h.89l-.45.6-.44-.6Z"/>
          <path class="cls-1" d="M22.41,15.76l.44.6h-.89l.45-.6ZM21.96,15.15h.89l-.44.6-.45-.6ZM22.85,16.36l.44.6h-.89l.45-.6ZM22.4,14.55h.89l-.44.6-.45-.6ZM23.29,16.96l.44.6h-.89l.45-.6ZM22.84,13.95h.89l-.44.6-.45-.6ZM23.73,17.57l.44.6h-.89l.45-.6ZM23.28,13.35h.89l-.44.6-.45-.6ZM24.17,18.17l.44.6h-.89l.45-.6ZM23.72,12.74h.89l-.44.6-.45-.6ZM25.54,18.17l.45.6h-.89l.44-.6ZM25.1,12.74h.89l-.45.6-.44-.6ZM25.98,17.57l.45.6h-.89l.44-.6ZM25.54,13.35h.89l-.45.6-.44-.6ZM26.42,16.96l.45.6h-.89l.44-.6ZM25.98,13.95h.89l-.45.6-.44-.6ZM26.86,16.36l.45.6h-.89l.44-.6ZM26.42,14.55h.89l-.45.6-.44-.6ZM27.3,15.76l.45.6h-.89l.44-.6ZM26.86,15.15h.89l-.45.6-.44-.6Z"/>
          <path class="cls-1" d="M27.31,3.02l.44.6h-.89l.45-.6ZM26.87,2.42h.89l-.44.6-.45-.6ZM27.75,3.62l.44.6h-.89l.45-.6ZM27.3,1.82h.89l-.44.6-.45-.6ZM28.19,4.23l.44.6h-.89l.45-.6ZM27.74,1.21h.89l-.44.6-.45-.6ZM28.63,4.83l.44.6h-.89l.45-.6ZM28.18.61h.89l-.44.6-.45-.6ZM29.07,5.43l.44.6h-.89l.45-.6ZM28.62,0h.89l-.44.6-.45-.6ZM30.45,5.43l.45.6h-.89l.44-.6ZM30.01,0h.89l-.45.6-.44-.6ZM30.89,4.83l.45.6h-.89l.44-.6ZM30.45.61h.89l-.45.6-.44-.6ZM31.33,4.23l.45.6h-.89l.44-.6ZM30.89,1.21h.89l-.45.6-.44-.6ZM31.76,3.62l.45.6h-.89l.44-.6ZM31.33,1.82h.89l-.45.6-.44-.6ZM32.2,3.02l.45.6h-.89l.44-.6ZM31.76,2.42h.89l-.45.6-.44-.6Z"/>
          <path class="cls-1" d="M27.31,9.39l.44.6h-.89l.45-.6ZM26.87,8.79h.89l-.44.6-.45-.6ZM27.75,9.99l.44.6h-.89l.45-.6ZM27.3,8.18h.89l-.44.6-.45-.6ZM28.19,10.6l.44.6h-.89l.45-.6ZM27.74,7.58h.89l-.44.6-.45-.6ZM28.63,11.2l.44.6h-.89l.45-.6ZM28.18,6.98h.89l-.44.6-.45-.6ZM29.07,11.8l.44.6h-.89l.45-.6ZM28.62,6.38h.89l-.44.6-.45-.6ZM30.45,11.8l.45.6h-.89l.44-.6ZM30.01,6.38h.89l-.45.6-.44-.6ZM30.89,11.2l.45.6h-.89l.44-.6ZM30.45,6.98h.89l-.45.6-.44-.6ZM31.33,10.6l.45.6h-.89l.44-.6ZM30.89,7.58h.89l-.45.6-.44-.6ZM31.76,9.99l.45.6h-.89l.44-.6ZM31.33,8.18h.89l-.45.6-.44-.6ZM32.2,9.39l.45.6h-.89l.44-.6ZM31.76,8.79h.89l-.45.6-.44-.6Z"/>
          <path class="cls-1" d="M27.31,15.76l.44.6h-.89l.45-.6ZM26.87,15.15h.89l-.44.6-.45-.6ZM27.75,16.36l.44.6h-.89l.45-.6ZM27.3,14.55h.89l-.44.6-.45-.6ZM28.19,16.96l.44.6h-.89l.45-.6ZM27.74,13.95h.89l-.44.6-.45-.6ZM28.63,17.57l.44.6h-.89l.45-.6ZM28.18,13.35h.89l-.44.6-.45-.6ZM29.07,18.17l.44.6h-.89l.45-.6ZM28.62,12.74h.89l-.44.6-.45-.6ZM30.45,18.17l.45.6h-.89l.44-.6ZM30.01,12.74h.89l-.45.6-.44-.6ZM30.89,17.57l.45.6h-.89l.44-.6ZM30.45,13.35h.89l-.45.6-.44-.6ZM31.33,16.96l.45.6h-.89l.44-.6ZM30.89,13.95h.89l-.45.6-.44-.6ZM31.76,16.36l.45.6h-.89l.44-.6ZM31.33,14.55h.89l-.45.6-.44-.6ZM32.2,15.76l.45.6h-.89l.44-.6ZM31.76,15.15h.89l-.45.6-.44-.6Z"/>
          <path class="cls-1" d="M27.31,22.12l.44.6h-.89l.45-.6ZM26.87,21.51h.89l-.44.6-.45-.6ZM27.75,22.72l.44.6h-.89l.45-.6ZM27.3,20.91h.89l-.44.6-.45-.6ZM28.19,23.32l.44.6h-.89l.45-.6ZM27.74,20.31h.89l-.44.6-.45-.6ZM28.63,23.92l.44.6h-.89l.45-.6ZM28.18,19.71h.89l-.44.6-.45-.6ZM29.07,24.53l.44.6h-.89l.45-.6ZM28.62,19.1h.89l-.44.6-.45-.6ZM30.45,24.53l.45.6h-.89l.44-.6ZM30.01,19.1h.89l-.45.6-.44-.6ZM30.89,23.92l.45.6h-.89l.44-.6ZM30.45,19.71h.89l-.45.6-.44-.6ZM31.33,23.32l.45.6h-.89l.44-.6ZM30.89,20.31h.89l-.45.6-.44-.6ZM31.76,22.72l.45.6h-.89l.44-.6ZM31.33,20.91h.89l-.45.6-.44-.6ZM32.2,22.12l.45.6h-.89l.44-.6ZM31.76,21.51h.89l-.45.6-.44-.6Z"/>
        </g>
        <g>
          <path class="cls-1" d="M35.14,3.02l.44.6h-.89l.45-.6ZM34.69,2.42h.89l-.44.6-.45-.6ZM35.58,3.62l.44.6h-.89l.45-.6ZM35.13,1.82h.89l-.44.6-.45-.6ZM36.02,4.23l.44.6h-.89l.45-.6ZM35.57,1.21h.89l-.44.6-.45-.6ZM36.46,4.83l.44.6h-.89l.45-.6ZM36.01.61h.89l-.44.6-.45-.6ZM36.89,5.43l.44.6h-.89l.45-.6ZM36.45,0h.89l-.44.6-.45-.6ZM38.27,5.43l.45.6h-.89l.44-.6ZM37.83,0h.89l-.45.6-.44-.6ZM38.71,4.83l.45.6h-.89l.44-.6ZM38.27.61h.89l-.45.6-.44-.6ZM39.15,4.23l.45.6h-.89l.44-.6ZM38.71,1.21h.89l-.45.6-.44-.6ZM39.59,3.62l.45.6h-.89l.44-.6ZM39.15,1.82h.89l-.45.6-.44-.6ZM40.03,3.02l.45.6h-.89l.44-.6ZM39.59,2.42h.89l-.45.6-.44-.6Z"/>
          <path class="cls-1" d="M35.14,9.39l.44.6h-.89l.45-.6ZM34.69,8.79h.89l-.44.6-.45-.6ZM35.58,9.99l.44.6h-.89l.45-.6ZM35.13,8.18h.89l-.44.6-.45-.6ZM36.02,10.6l.44.6h-.89l.45-.6ZM35.57,7.58h.89l-.44.6-.45-.6ZM36.46,11.2l.44.6h-.89l.45-.6ZM36.01,6.98h.89l-.44.6-.45-.6ZM36.89,11.8l.44.6h-.89l.45-.6ZM36.45,6.38h.89l-.44.6-.45-.6ZM38.27,11.8l.45.6h-.89l.44-.6ZM37.83,6.38h.89l-.45.6-.44-.6ZM38.71,11.2l.45.6h-.89l.44-.6ZM38.27,6.98h.89l-.45.6-.44-.6ZM39.15,10.6l.45.6h-.89l.44-.6ZM38.71,7.58h.89l-.45.6-.44-.6ZM39.59,9.99l.45.6h-.89l.44-.6ZM39.15,8.18h.89l-.45.6-.44-.6ZM40.03,9.39l.45.6h-.89l.44-.6ZM39.59,8.79h.89l-.45.6-.44-.6Z"/>
          <path class="cls-1" d="M35.14,15.76l.44.6h-.89l.45-.6ZM34.69,15.15h.89l-.44.6-.45-.6ZM35.58,16.36l.44.6h-.89l.45-.6ZM35.13,14.55h.89l-.44.6-.45-.6ZM36.02,16.96l.44.6h-.89l.45-.6ZM35.57,13.95h.89l-.44.6-.45-.6ZM36.46,17.57l.44.6h-.89l.45-.6ZM36.01,13.35h.89l-.44.6-.45-.6ZM36.89,18.17l.44.6h-.89l.45-.6ZM36.45,12.74h.89l-.44.6-.45-.6ZM38.27,18.17l.45.6h-.89l.44-.6ZM37.83,12.74h.89l-.45.6-.44-.6ZM38.71,17.57l.45.6h-.89l.44-.6ZM38.27,13.35h.89l-.45.6-.44-.6ZM39.15,16.96l.45.6h-.89l.44-.6ZM38.71,13.95h.89l-.45.6-.44-.6ZM39.59,16.36l.45.6h-.89l.44-.6ZM39.15,14.55h.89l-.45.6-.44-.6ZM40.03,15.76l.45.6h-.89l.44-.6ZM39.59,15.15h.89l-.45.6-.44-.6Z"/>
          <path class="cls-1" d="M35.14,22.12l.44.6h-.89l.45-.6ZM34.69,21.51h.89l-.44.6-.45-.6ZM35.58,22.72l.44.6h-.89l.45-.6ZM35.13,20.91h.89l-.44.6-.45-.6ZM36.02,23.32l.44.6h-.89l.45-.6ZM35.57,20.31h.89l-.44.6-.45-.6ZM36.46,23.92l.44.6h-.89l.45-.6ZM36.01,19.71h.89l-.44.6-.45-.6ZM36.89,24.53l.44.6h-.89l.45-.6ZM36.45,19.1h.89l-.44.6-.45-.6ZM38.27,24.53l.45.6h-.89l.44-.6ZM37.83,19.1h.89l-.45.6-.44-.6ZM38.71,23.92l.45.6h-.89l.44-.6ZM38.27,19.71h.89l-.45.6-.44-.6ZM39.15,23.32l.45.6h-.89l.44-.6ZM38.71,20.31h.89l-.45.6-.44-.6ZM39.59,22.72l.45.6h-.89l.44-.6ZM39.15,20.91h.89l-.45.6-.44-.6ZM40.03,22.12l.45.6h-.89l.44-.6ZM39.59,21.51h.89l-.45.6-.44-.6Z"/>
          <path class="cls-1" d="M40.04,22.12l.44.6h-.89l.45-.6ZM39.59,21.51h.89l-.44.6-.45-.6ZM40.48,22.72l.44.6h-.89l.45-.6ZM40.03,20.91h.89l-.44.6-.45-.6ZM40.92,23.32l.44.6h-.89l.45-.6ZM40.47,20.31h.89l-.44.6-.45-.6ZM41.35,23.92l.44.6h-.89l.45-.6ZM40.91,19.71h.89l-.44.6-.45-.6ZM41.79,24.53l.44.6h-.89l.45-.6ZM41.35,19.1h.89l-.44.6-.45-.6ZM43.17,24.53l.45.6h-.89l.44-.6ZM42.73,19.1h.89l-.45.6-.44-.6ZM43.61,23.92l.45.6h-.89l.44-.6ZM43.17,19.71h.89l-.45.6-.44-.6ZM44.05,23.32l.45.6h-.89l.44-.6ZM43.61,20.31h.89l-.45.6-.44-.6ZM44.49,22.72l.45.6h-.89l.44-.6ZM44.05,20.91h.89l-.45.6-.44-.6ZM44.93,22.12l.45.6h-.89l.44-.6ZM44.49,21.51h.89l-.45.6-.44-.6Z"/>
          <path class="cls-1" d="M44.94,3.02l.44.6h-.89l.45-.6ZM44.49,2.42h.89l-.44.6-.45-.6ZM45.38,3.62l.44.6h-.89l.45-.6ZM44.93,1.82h.89l-.44.6-.45-.6ZM45.81,4.23l.44.6h-.89l.45-.6ZM45.37,1.21h.89l-.44.6-.45-.6ZM46.25,4.83l.44.6h-.89l.45-.6ZM45.81.61h.89l-.44.6-.45-.6ZM46.69,5.43l.44.6h-.89l.45-.6ZM46.25,0h.89l-.44.6-.45-.6ZM48.07,5.43l.45.6h-.89l.44-.6ZM47.63,0h.89l-.45.6-.44-.6ZM48.51,4.83l.45.6h-.89l.44-.6ZM48.07.61h.89l-.45.6-.44-.6ZM48.95,4.23l.45.6h-.89l.44-.6ZM48.51,1.21h.89l-.45.6-.44-.6ZM49.39,3.62l.45.6h-.89l.44-.6ZM48.95,1.82h.89l-.45.6-.44-.6ZM49.83,3.02l.45.6h-.89l.44-.6ZM49.39,2.42h.89l-.45.6-.44-.6Z"/>
          <path class="cls-1" d="M44.94,9.39l.44.6h-.89l.45-.6ZM44.49,8.79h.89l-.44.6-.45-.6ZM45.38,9.99l.44.6h-.89l.45-.6ZM44.93,8.18h.89l-.44.6-.45-.6ZM45.81,10.6l.44.6h-.89l.45-.6ZM45.37,7.58h.89l-.44.6-.45-.6ZM46.25,11.2l.44.6h-.89l.45-.6ZM45.81,6.98h.89l-.44.6-.45-.6ZM46.69,11.8l.44.6h-.89l.45-.6ZM46.25,6.38h.89l-.44.6-.45-.6ZM48.07,11.8l.45.6h-.89l.44-.6ZM47.63,6.38h.89l-.45.6-.44-.6ZM48.51,11.2l.45.6h-.89l.44-.6ZM48.07,6.98h.89l-.45.6-.44-.6ZM48.95,10.6l.45.6h-.89l.44-.6ZM48.51,7.58h.89l-.45.6-.44-.6ZM49.39,9.99l.45.6h-.89l.44-.6ZM48.95,8.18h.89l-.45.6-.44-.6ZM49.83,9.39l.45.6h-.89l.44-.6ZM49.39,8.79h.89l-.45.6-.44-.6Z"/>
          <path class="cls-1" d="M44.94,15.76l.44.6h-.89l.45-.6ZM44.49,15.15h.89l-.44.6-.45-.6ZM45.38,16.36l.44.6h-.89l.45-.6ZM44.93,14.55h.89l-.44.6-.45-.6ZM45.81,16.96l.44.6h-.89l.45-.6ZM45.37,13.95h.89l-.44.6-.45-.6ZM46.25,17.57l.44.6h-.89l.45-.6ZM45.81,13.35h.89l-.44.6-.45-.6ZM46.69,18.17l.44.6h-.89l.45-.6ZM46.25,12.74h.89l-.44.6-.45-.6ZM48.07,18.17l.45.6h-.89l.44-.6ZM47.63,12.74h.89l-.45.6-.44-.6ZM48.51,17.57l.45.6h-.89l.44-.6ZM48.07,13.35h.89l-.45.6-.44-.6ZM48.95,16.96l.45.6h-.89l.44-.6ZM48.51,13.95h.89l-.45.6-.44-.6ZM49.39,16.36l.45.6h-.89l.44-.6ZM48.95,14.55h.89l-.45.6-.44-.6ZM49.83,15.76l.45.6h-.89l.44-.6ZM49.39,15.15h.89l-.45.6-.44-.6Z"/>
          <path class="cls-1" d="M44.94,22.12l.44.6h-.89l.45-.6ZM44.49,21.51h.89l-.44.6-.45-.6ZM45.38,22.72l.44.6h-.89l.45-.6ZM44.93,20.91h.89l-.44.6-.45-.6ZM45.81,23.32l.44.6h-.89l.45-.6ZM45.37,20.31h.89l-.44.6-.45-.6ZM46.25,23.92l.44.6h-.89l.45-.6ZM45.81,19.71h.89l-.44.6-.45-.6ZM46.69,24.53l.44.6h-.89l.45-.6ZM46.25,19.1h.89l-.44.6-.45-.6ZM48.07,24.53l.45.6h-.89l.44-.6ZM47.63,19.1h.89l-.45.6-.44-.6ZM48.51,23.92l.45.6h-.89l.44-.6ZM48.07,19.71h.89l-.45.6-.44-.6ZM48.95,23.32l.45.6h-.89l.44-.6ZM48.51,20.31h.89l-.45.6-.44-.6ZM49.39,22.72l.45.6h-.89l.44-.6ZM48.95,20.91h.89l-.45.6-.44-.6ZM49.83,22.12l.45.6h-.89l.44-.6ZM49.39,21.51h.89l-.45.6-.44-.6Z"/>
        </g>
        <g>
          <path class="cls-1" d="M.45,3.02l.44.6h-.89l.45-.6ZM0,2.42h.89l-.44.6-.45-.6ZM.89,3.62l.44.6H.44l.45-.6ZM.44,1.82h.89l-.44.6-.45-.6ZM1.33,4.23l.44.6h-.89l.45-.6ZM.88,1.21h.89l-.44.6-.45-.6ZM1.76,4.83l.44.6h-.89l.45-.6ZM1.32.61h.89l-.44.6-.45-.6ZM2.2,5.43l.44.6h-.89l.45-.6ZM1.76,0h.89l-.44.6L1.76,0ZM3.58,5.43l.45.6h-.89l.44-.6ZM3.14,0h.89l-.45.6L3.14,0ZM4.02,4.83l.45.6h-.89l.44-.6ZM3.58.61h.89l-.45.6-.44-.6ZM4.46,4.23l.45.6h-.89l.44-.6ZM4.02,1.21h.89l-.45.6-.44-.6ZM4.9,3.62l.45.6h-.89l.44-.6ZM4.46,1.82h.89l-.45.6-.44-.6ZM5.34,3.02l.45.6h-.89l.44-.6ZM4.9,2.42h.89l-.45.6-.44-.6Z"/>
          <path class="cls-1" d="M.45,9.39l.44.6h-.89l.45-.6ZM0,8.79h.89l-.44.6-.45-.6ZM.89,9.99l.44.6H.44l.45-.6ZM.44,8.18h.89l-.44.6-.45-.6ZM1.33,10.6l.44.6h-.89l.45-.6ZM.88,7.58h.89l-.44.6-.45-.6ZM1.76,11.2l.44.6h-.89l.45-.6ZM1.32,6.98h.89l-.44.6-.45-.6ZM2.2,11.8l.44.6h-.89l.45-.6ZM1.76,6.38h.89l-.44.6-.45-.6ZM3.58,11.8l.45.6h-.89l.44-.6ZM3.14,6.38h.89l-.45.6-.44-.6ZM4.02,11.2l.45.6h-.89l.44-.6ZM3.58,6.98h.89l-.45.6-.44-.6ZM4.46,10.6l.45.6h-.89l.44-.6ZM4.02,7.58h.89l-.45.6-.44-.6ZM4.9,9.99l.45.6h-.89l.44-.6ZM4.46,8.18h.89l-.45.6-.44-.6Z"/>
          <path class="cls-1" d="M.45,15.76l.44.6h-.89l.45-.6ZM0,15.15h.89l-.44.6-.45-.6ZM.89,16.36l.44.6H.44l.45-.6ZM.44,14.55h.89l-.44.6-.45-.6ZM1.33,16.96l.44.6h-.89l.45-.6ZM.88,13.95h.89l-.44.6-.45-.6ZM1.76,17.57l.44.6h-.89l.45-.6ZM1.32,13.35h.89l-.44.6-.45-.6ZM2.2,18.17l.44.6h-.89l.45-.6ZM1.76,12.74h.89l-.44.6-.45-.6ZM3.58,18.17l.45.6h-.89l.44-.6ZM3.14,12.74h.89l-.45.6-.44-.6ZM4.02,17.57l.45.6h-.89l.44-.6ZM3.58,13.35h.89l-.45.6-.44-.6ZM4.46,16.96l.45.6h-.89l.44-.6ZM4.02,13.95h.89l-.45.6-.44-.6ZM4.9,16.36l.45.6h-.89l.44-.6ZM4.46,14.55h.89l-.45.6-.44-.6Z"/>
          <path class="cls-1" d="M.45,22.12l.44.6h-.89l.45-.6ZM0,21.51h.89l-.44.6-.45-.6ZM.89,22.72l.44.6H.44l.45-.6ZM.44,20.91h.89l-.44.6-.45-.6ZM1.33,23.32l.44.6h-.89l.45-.6ZM.88,20.31h.89l-.44.6-.45-.6ZM1.76,23.92l.44.6h-.89l.45-.6ZM1.32,19.71h.89l-.44.6-.45-.6ZM2.2,24.53l.44.6h-.89l.45-.6ZM1.76,19.1h.89l-.44.6-.45-.6ZM3.58,24.53l.45.6h-.89l.44-.6ZM3.14,19.1h.89l-.45.6-.44-.6ZM4.02,23.92l.45.6h-.89l.44-.6ZM3.58,19.71h.89l-.45.6-.44-.6ZM4.46,23.32l.45.6h-.89l.44-.6ZM4.02,20.31h.89l-.45.6-.44-.6ZM4.9,22.72l.45.6h-.89l.44-.6ZM4.46,20.91h.89l-.45.6-.44-.6ZM5.34,22.12l.45.6h-.89l.44-.6ZM4.9,21.51h.89l-.45.6-.44-.6Z"/>
          <g>
            <path class="cls-1" d="M5.5,9.99l.44.6h-.89l.45-.6ZM5.05,8.18h.89l-.44.6-.45-.6ZM5.94,10.6l.44.6h-.89l.45-.6ZM5.49,7.58h.89l-.44.6-.45-.6ZM6.38,11.2l.44.6h-.89l.45-.6ZM5.93,6.98h.89l-.44.6-.45-.6ZM6.82,11.8l.44.6h-.89l.45-.6ZM6.37,6.38h.89l-.44.6-.45-.6ZM8.2,11.8l.45.6h-.89l.44-.6ZM8.64,11.2l.45.6h-.89l.44-.6ZM9.08,10.6l.45.6h-.89l.44-.6ZM9.51,9.99l.45.6h-.89l.44-.6ZM9.95,9.39l.45.6h-.89l.44-.6Z"/>
            <g>
              <polygon class="cls-1" points="6.91 5.6 7.8 5.6 7.36 6.2 6.91 5.6"/>
              <polygon class="cls-1" points="7.35 5 8.24 5 7.8 5.6 7.35 5"/>
              <polygon class="cls-1" points="7.79 4.4 8.68 4.4 8.24 5 7.79 4.4"/>
              <polygon class="cls-1" points="8.23 3.79 9.11 3.79 8.68 4.4 8.23 3.79"/>
              <g>
                <polygon class="cls-1" points="7.63 6.2 8.07 6.81 7.19 6.81 7.63 6.2"/>
                <polygon class="cls-1" points="8.07 6.81 8.51 7.41 7.62 7.41 8.07 6.81"/>
                <polygon class="cls-1" points="8.51 7.41 8.95 8.01 8.06 8.01 8.51 7.41"/>
                <polygon class="cls-1" points="8.95 8.01 9.39 8.62 8.5 8.62 8.95 8.01"/>
                <polygon class="cls-1" points="9.39 8.62 9.83 9.22 8.94 9.22 9.39 8.62"/>
              </g>
              <polygon class="cls-1" points="8.67 3.19 9.55 3.19 9.11 3.79 8.67 3.19"/>
              <polygon class="cls-1" points="10.49 8.62 10.94 9.22 10.05 9.22 10.49 8.62"/>
              <polygon class="cls-1" points="10.93 8.01 11.38 8.62 10.49 8.62 10.93 8.01"/>
              <polygon class="cls-1" points="11.37 7.41 11.82 8.01 10.93 8.01 11.37 7.41"/>
              <polygon class="cls-1" points="11.81 6.81 12.26 7.41 11.37 7.41 11.81 6.81"/>
              <polygon class="cls-1" points="12.25 6.2 12.7 6.81 11.81 6.81 12.25 6.2"/>
            </g>
            <g>
              <polygon class="cls-1" points="9.23 2.41 10.12 2.41 9.68 3.01 9.23 2.41"/>
              <polygon class="cls-1" points="9.67 1.81 10.56 1.81 10.12 2.41 9.67 1.81"/>
              <polygon class="cls-1" points="10.11 1.21 10.99 1.21 10.56 1.81 10.11 1.21"/>
              <polygon class="cls-1" points="10.55 .6 11.43 .6 10.99 1.21 10.55 .6"/>
              <g>
                <polygon class="cls-1" points="9.95 3.01 10.39 3.62 9.5 3.62 9.95 3.01"/>
                <polygon class="cls-1" points="10.39 3.62 10.83 4.22 9.94 4.22 10.39 3.62"/>
                <polygon class="cls-1" points="10.83 4.22 11.27 4.82 10.38 4.82 10.83 4.22"/>
                <polygon class="cls-1" points="11.27 4.82 11.71 5.42 10.82 5.42 11.27 4.82"/>
                <polygon class="cls-1" points="11.71 5.42 12.15 6.03 11.26 6.03 11.71 5.42"/>
              </g>
              <polygon class="cls-1" points="10.99 0 11.87 0 11.43 .6 10.99 0"/>
              <polygon class="cls-1" points="12.81 5.42 13.26 6.03 12.37 6.03 12.81 5.42"/>
              <polygon class="cls-1" points="12.37 0 13.26 0 12.81 .6 12.37 0"/>
              <polygon class="cls-1" points="13.25 4.82 13.7 5.42 12.81 5.42 13.25 4.82"/>
              <polygon class="cls-1" points="12.81 .6 13.7 .6 13.25 1.21 12.81 .6"/>
              <polygon class="cls-1" points="13.69 4.22 14.14 4.82 13.25 4.82 13.69 4.22"/>
              <polygon class="cls-1" points="13.25 1.21 14.14 1.21 13.69 1.81 13.25 1.21"/>
              <polygon class="cls-1" points="14.13 3.62 14.58 4.22 13.69 4.22 14.13 3.62"/>
              <polygon class="cls-1" points="13.69 1.81 14.58 1.81 14.13 2.41 13.69 1.81"/>
              <polygon class="cls-1" points="14.57 3.01 15.01 3.62 14.13 3.62 14.57 3.01"/>
              <polygon class="cls-1" points="14.13 2.41 15.01 2.41 14.57 3.01 14.13 2.41"/>
            </g>
          </g>
          <g>
            <path class="cls-1" d="M5.05,14.54h.89l-.44.6-.45-.6ZM5.5,16.35l.44.6h-.89l.45-.6ZM5.49,13.94h.89l-.44.6-.45-.6ZM5.94,16.95l.44.6h-.89l.45-.6ZM5.93,13.34h.89l-.44.6-.45-.6ZM6.38,17.55l.44.6h-.89l.45-.6ZM6.37,12.73h.89l-.44.6-.45-.6ZM6.82,18.16l.44.6h-.89l.45-.6ZM7.76,12.73h.89l-.45.6-.44-.6ZM8.2,13.34h.89l-.45.6-.44-.6ZM8.64,13.94h.89l-.45.6-.44-.6ZM9.08,14.54h.89l-.45.6-.44-.6ZM9.51,15.14h.89l-.45.6-.44-.6Z"/>
            <g>
              <polygon class="cls-1" points="7.36 18.93 7.8 19.53 6.91 19.53 7.36 18.93"/>
              <polygon class="cls-1" points="7.8 19.53 8.24 20.14 7.35 20.14 7.8 19.53"/>
              <polygon class="cls-1" points="8.24 20.14 8.68 20.74 7.79 20.74 8.24 20.14"/>
              <polygon class="cls-1" points="8.68 20.74 9.11 21.34 8.23 21.34 8.68 20.74"/>
              <g>
                <polygon class="cls-1" points="7.19 18.33 8.07 18.33 7.63 18.93 7.19 18.33"/>
                <polygon class="cls-1" points="7.62 17.73 8.51 17.73 8.07 18.33 7.62 17.73"/>
                <polygon class="cls-1" points="8.06 17.12 8.95 17.12 8.51 17.73 8.06 17.12"/>
                <polygon class="cls-1" points="8.5 16.52 9.39 16.52 8.95 17.12 8.5 16.52"/>
                <polygon class="cls-1" points="8.94 15.92 9.83 15.92 9.39 16.52 8.94 15.92"/>
              </g>
              <polygon class="cls-1" points="9.11 21.34 9.55 21.94 8.67 21.94 9.11 21.34"/>
              <polygon class="cls-1" points="10.05 15.92 10.94 15.92 10.49 16.52 10.05 15.92"/>
              <polygon class="cls-1" points="10.49 16.52 11.38 16.52 10.93 17.12 10.49 16.52"/>
              <polygon class="cls-1" points="10.93 17.12 11.82 17.12 11.37 17.73 10.93 17.12"/>
              <polygon class="cls-1" points="11.37 17.73 12.26 17.73 11.81 18.33 11.37 17.73"/>
              <polygon class="cls-1" points="11.81 18.33 12.7 18.33 12.25 18.93 11.81 18.33"/>
            </g>
            <g>
              <polygon class="cls-1" points="9.68 22.12 10.12 22.72 9.23 22.72 9.68 22.12"/>
              <polygon class="cls-1" points="10.12 22.72 10.56 23.33 9.67 23.33 10.12 22.72"/>
              <polygon class="cls-1" points="10.56 23.33 10.99 23.93 10.11 23.93 10.56 23.33"/>
              <polygon class="cls-1" points="10.99 23.93 11.43 24.53 10.55 24.53 10.99 23.93"/>
              <g>
                <polygon class="cls-1" points="9.5 21.52 10.39 21.52 9.95 22.12 9.5 21.52"/>
                <polygon class="cls-1" points="9.94 20.92 10.83 20.92 10.39 21.52 9.94 20.92"/>
                <polygon class="cls-1" points="10.38 20.31 11.27 20.31 10.83 20.92 10.38 20.31"/>
                <polygon class="cls-1" points="10.82 19.71 11.71 19.71 11.27 20.31 10.82 19.71"/>
                <polygon class="cls-1" points="11.26 19.11 12.15 19.11 11.71 19.71 11.26 19.11"/>
              </g>
              <polygon class="cls-1" points="11.43 24.53 11.87 25.14 10.99 25.14 11.43 24.53"/>
              <polygon class="cls-1" points="12.37 19.11 13.26 19.11 12.81 19.71 12.37 19.11"/>
              <polygon class="cls-1" points="12.81 24.53 13.26 25.14 12.37 25.14 12.81 24.53"/>
              <polygon class="cls-1" points="12.81 19.71 13.7 19.71 13.25 20.31 12.81 19.71"/>
              <polygon class="cls-1" points="13.25 23.93 13.7 24.53 12.81 24.53 13.25 23.93"/>
              <polygon class="cls-1" points="13.25 20.31 14.14 20.31 13.69 20.92 13.25 20.31"/>
              <polygon class="cls-1" points="13.69 23.33 14.14 23.93 13.25 23.93 13.69 23.33"/>
              <polygon class="cls-1" points="13.69 20.92 14.58 20.92 14.13 21.52 13.69 20.92"/>
              <polygon class="cls-1" points="14.13 22.72 14.58 23.33 13.69 23.33 14.13 22.72"/>
              <polygon class="cls-1" points="14.13 21.52 15.01 21.52 14.57 22.12 14.13 21.52"/>
              <polygon class="cls-1" points="14.57 22.12 15.01 22.72 14.13 22.72 14.57 22.12"/>
            </g>
          </g>
        </g>
        <g>
          <path class="cls-1" d="M69.82,3.02l.44.6h-.89l.45-.6ZM69.37,2.42h.89l-.44.6-.45-.6ZM70.26,3.62l.44.6h-.89l.45-.6ZM69.81,1.82h.89l-.44.6-.45-.6ZM70.7,4.23l.44.6h-.89l.45-.6ZM70.25,1.21h.89l-.44.6-.45-.6ZM71.14,4.83l.44.6h-.89l.45-.6ZM70.69.61h.89l-.44.6-.45-.6ZM71.58,5.43l.44.6h-.89l.45-.6ZM71.13,0h.89l-.44.6-.45-.6ZM72.95,5.43l.45.6h-.89l.44-.6ZM72.52,0h.89l-.45.6-.44-.6ZM73.39,4.83l.45.6h-.89l.44-.6ZM72.95.61h.89l-.45.6-.44-.6ZM73.83,4.23l.45.6h-.89l.44-.6ZM73.39,1.21h.89l-.45.6-.44-.6ZM74.27,3.62l.45.6h-.89l.44-.6ZM73.83,1.82h.89l-.45.6-.44-.6ZM74.71,3.02l.45.6h-.89l.44-.6ZM74.27,2.42h.89l-.45.6-.44-.6Z"/>
          <path class="cls-1" d="M69.82,9.39l.44.6h-.89l.45-.6ZM69.37,8.79h.89l-.44.6-.45-.6ZM70.26,9.99l.44.6h-.89l.45-.6ZM69.81,8.18h.89l-.44.6-.45-.6ZM70.7,10.6l.44.6h-.89l.45-.6ZM70.25,7.58h.89l-.44.6-.45-.6ZM71.14,11.2l.44.6h-.89l.45-.6ZM70.69,6.98h.89l-.44.6-.45-.6ZM71.58,11.8l.44.6h-.89l.45-.6ZM71.13,6.38h.89l-.44.6-.45-.6ZM72.95,11.8l.45.6h-.89l.44-.6ZM72.52,6.38h.89l-.45.6-.44-.6ZM73.39,11.2l.45.6h-.89l.44-.6ZM72.95,6.98h.89l-.45.6-.44-.6ZM73.83,10.6l.45.6h-.89l.44-.6ZM73.39,7.58h.89l-.45.6-.44-.6ZM74.27,9.99l.45.6h-.89l.44-.6ZM73.83,8.18h.89l-.45.6-.44-.6ZM74.71,9.39l.45.6h-.89l.44-.6ZM74.27,8.79h.89l-.45.6-.44-.6Z"/>
          <path class="cls-1" d="M69.82,15.76l.44.6h-.89l.45-.6ZM69.37,15.15h.89l-.44.6-.45-.6ZM70.26,16.36l.44.6h-.89l.45-.6ZM69.81,14.55h.89l-.44.6-.45-.6ZM70.7,16.96l.44.6h-.89l.45-.6ZM70.25,13.95h.89l-.44.6-.45-.6ZM71.14,17.57l.44.6h-.89l.45-.6ZM70.69,13.35h.89l-.44.6-.45-.6ZM71.58,18.17l.44.6h-.89l.45-.6ZM71.13,12.74h.89l-.44.6-.45-.6ZM72.95,18.17l.45.6h-.89l.44-.6ZM72.52,12.74h.89l-.45.6-.44-.6ZM73.39,17.57l.45.6h-.89l.44-.6ZM72.95,13.35h.89l-.45.6-.44-.6ZM73.83,16.96l.45.6h-.89l.44-.6ZM73.39,13.95h.89l-.45.6-.44-.6ZM74.27,16.36l.45.6h-.89l.44-.6ZM73.83,14.55h.89l-.45.6-.44-.6ZM74.71,15.76l.45.6h-.89l.44-.6ZM74.27,15.15h.89l-.45.6-.44-.6Z"/>
          <path class="cls-1" d="M69.82,22.12l.44.6h-.89l.45-.6ZM69.37,21.51h.89l-.44.6-.45-.6ZM70.26,22.72l.44.6h-.89l.45-.6ZM69.81,20.91h.89l-.44.6-.45-.6ZM70.7,23.32l.44.6h-.89l.45-.6ZM70.25,20.31h.89l-.44.6-.45-.6ZM71.14,23.92l.44.6h-.89l.45-.6ZM70.69,19.71h.89l-.44.6-.45-.6ZM71.58,24.53l.44.6h-.89l.45-.6ZM71.13,19.1h.89l-.44.6-.45-.6ZM72.95,24.53l.45.6h-.89l.44-.6ZM72.52,19.1h.89l-.45.6-.44-.6ZM73.39,23.92l.45.6h-.89l.44-.6ZM72.95,19.71h.89l-.45.6-.44-.6ZM73.83,23.32l.45.6h-.89l.44-.6ZM73.39,20.31h.89l-.45.6-.44-.6ZM74.27,22.72l.45.6h-.89l.44-.6ZM73.83,20.91h.89l-.45.6-.44-.6ZM74.71,22.12l.45.6h-.89l.44-.6ZM74.27,21.51h.89l-.45.6-.44-.6Z"/>
          <path class="cls-1" d="M74.72,3.02l.44.6h-.89l.45-.6ZM74.28,2.42h.89l-.44.6-.45-.6ZM75.16,3.62l.44.6h-.89l.45-.6ZM74.72,1.82h.89l-.44.6-.45-.6ZM75.6,4.23l.44.6h-.89l.45-.6ZM75.15,1.21h.89l-.44.6-.45-.6ZM76.04,4.83l.44.6h-.89l.45-.6ZM75.59.61h.89l-.44.6-.45-.6ZM76.48,5.43l.44.6h-.89l.45-.6ZM76.03,0h.89l-.44.6-.45-.6ZM77.86,5.43l.45.6h-.89l.44-.6ZM77.42,0h.89l-.45.6-.44-.6ZM78.3,4.83l.45.6h-.89l.44-.6ZM77.86.61h.89l-.45.6-.44-.6ZM78.74,4.23l.45.6h-.89l.44-.6ZM78.3,1.21h.89l-.45.6-.44-.6ZM79.18,3.62l.45.6h-.89l.44-.6ZM78.74,1.82h.89l-.45.6-.44-.6ZM79.61,3.02l.45.6h-.89l.44-.6ZM79.18,2.42h.89l-.45.6-.44-.6Z"/>
          <path class="cls-1" d="M74.72,15.76l.44.6h-.89l.45-.6ZM74.28,15.15h.89l-.44.6-.45-.6ZM75.16,16.36l.44.6h-.89l.45-.6ZM74.72,14.55h.89l-.44.6-.45-.6ZM75.6,16.96l.44.6h-.89l.45-.6ZM75.15,13.95h.89l-.44.6-.45-.6ZM76.04,17.57l.44.6h-.89l.45-.6ZM75.59,13.35h.89l-.44.6-.45-.6ZM76.48,18.17l.44.6h-.89l.45-.6ZM76.03,12.74h.89l-.44.6-.45-.6ZM77.86,18.17l.45.6h-.89l.44-.6ZM77.42,12.74h.89l-.45.6-.44-.6ZM78.3,17.57l.45.6h-.89l.44-.6ZM77.86,13.35h.89l-.45.6-.44-.6ZM78.74,16.96l.45.6h-.89l.44-.6ZM78.3,13.95h.89l-.45.6-.44-.6ZM79.18,16.36l.45.6h-.89l.44-.6ZM78.74,14.55h.89l-.45.6-.44-.6ZM79.61,15.76l.45.6h-.89l.44-.6ZM79.18,15.15h.89l-.45.6-.44-.6Z"/>
          <path class="cls-1" d="M79.63,3.02l.44.6h-.89l.45-.6ZM79.18,2.42h.89l-.44.6-.45-.6ZM80.07,3.62l.44.6h-.89l.45-.6ZM79.62,1.82h.89l-.44.6-.45-.6ZM80.51,4.23l.44.6h-.89l.45-.6ZM80.06,1.21h.89l-.44.6-.45-.6ZM80.94,4.83l.44.6h-.89l.45-.6ZM80.5.61h.89l-.44.6-.45-.6ZM81.38,5.43l.44.6h-.89l.45-.6ZM80.94,0h.89l-.44.6-.45-.6ZM82.76,5.43l.45.6h-.89l.44-.6ZM82.32,0h.89l-.45.6-.44-.6ZM83.2,4.83l.45.6h-.89l.44-.6ZM82.76.61h.89l-.45.6-.44-.6ZM83.64,4.23l.45.6h-.89l.44-.6ZM83.2,1.21h.89l-.45.6-.44-.6ZM84.08,3.62l.45.6h-.89l.44-.6ZM83.64,1.82h.89l-.45.6-.44-.6ZM84.52,3.02l.45.6h-.89l.44-.6ZM84.08,2.42h.89l-.45.6-.44-.6Z"/>
          <path class="cls-1" d="M79.63,9.39l.44.6h-.89l.45-.6ZM79.18,8.79h.89l-.44.6-.45-.6ZM80.07,9.99l.44.6h-.89l.45-.6ZM79.62,8.18h.89l-.44.6-.45-.6ZM80.51,10.6l.44.6h-.89l.45-.6ZM80.06,7.58h.89l-.44.6-.45-.6ZM80.94,11.2l.44.6h-.89l.45-.6ZM80.5,6.98h.89l-.44.6-.45-.6ZM81.38,11.8l.44.6h-.89l.45-.6ZM80.94,6.38h.89l-.44.6-.45-.6ZM82.76,11.8l.45.6h-.89l.44-.6ZM82.32,6.38h.89l-.45.6-.44-.6ZM83.2,11.2l.45.6h-.89l.44-.6ZM82.76,6.98h.89l-.45.6-.44-.6ZM83.64,10.6l.45.6h-.89l.44-.6ZM83.2,7.58h.89l-.45.6-.44-.6ZM84.08,9.99l.45.6h-.89l.44-.6ZM83.64,8.18h.89l-.45.6-.44-.6ZM84.52,9.39l.45.6h-.89l.44-.6ZM84.08,8.79h.89l-.45.6-.44-.6Z"/>
          <path class="cls-1" d="M79.63,15.76l.44.6h-.89l.45-.6ZM79.18,15.15h.89l-.44.6-.45-.6ZM80.07,16.36l.44.6h-.89l.45-.6ZM79.62,14.55h.89l-.44.6-.45-.6ZM80.51,16.96l.44.6h-.89l.45-.6ZM80.06,13.95h.89l-.44.6-.45-.6ZM80.94,17.57l.44.6h-.89l.45-.6ZM80.5,13.35h.89l-.44.6-.45-.6ZM81.38,18.17l.44.6h-.89l.45-.6ZM80.94,12.74h.89l-.44.6-.45-.6ZM82.76,18.17l.45.6h-.89l.44-.6ZM82.32,12.74h.89l-.45.6-.44-.6ZM83.2,17.57l.45.6h-.89l.44-.6ZM82.76,13.35h.89l-.45.6-.44-.6ZM83.64,16.96l.45.6h-.89l.44-.6ZM83.2,13.95h.89l-.45.6-.44-.6ZM84.08,16.36l.45.6h-.89l.44-.6ZM83.64,14.55h.89l-.45.6-.44-.6ZM84.52,15.76l.45.6h-.89l.44-.6ZM84.08,15.15h.89l-.45.6-.44-.6Z"/>
          <path class="cls-1" d="M79.63,22.12l.44.6h-.89l.45-.6ZM79.18,21.51h.89l-.44.6-.45-.6ZM80.07,22.72l.44.6h-.89l.45-.6ZM79.62,20.91h.89l-.44.6-.45-.6ZM80.51,23.32l.44.6h-.89l.45-.6ZM80.06,20.31h.89l-.44.6-.45-.6ZM80.94,23.92l.44.6h-.89l.45-.6ZM80.5,19.71h.89l-.44.6-.45-.6ZM81.38,24.53l.44.6h-.89l.45-.6ZM80.94,19.1h.89l-.44.6-.45-.6ZM82.76,24.53l.45.6h-.89l.44-.6ZM82.32,19.1h.89l-.45.6-.44-.6ZM83.2,23.92l.45.6h-.89l.44-.6ZM82.76,19.71h.89l-.45.6-.44-.6ZM83.64,23.32l.45.6h-.89l.44-.6ZM83.2,20.31h.89l-.45.6-.44-.6ZM84.08,22.72l.45.6h-.89l.44-.6ZM83.64,20.91h.89l-.45.6-.44-.6ZM84.52,22.12l.45.6h-.89l.44-.6ZM84.08,21.51h.89l-.45.6-.44-.6Z"/>
        </g>
        <g>
          <path class="cls-1" d="M52.76,3.02l.44.6h-.89l.45-.6ZM52.31,2.42h.89l-.44.6-.45-.6ZM53.2,3.62l.44.6h-.89l.45-.6ZM52.75,1.82h.89l-.44.6-.45-.6ZM53.64,4.23l.44.6h-.89l.45-.6ZM53.19,1.21h.89l-.44.6-.45-.6ZM54.08,4.83l.44.6h-.89l.45-.6ZM53.63.61h.89l-.44.6-.45-.6ZM54.52,5.43l.44.6h-.89l.45-.6ZM54.07,0h.89l-.44.6-.45-.6ZM55.9,5.43l.45.6h-.89l.44-.6ZM55.46,0h.89l-.45.6-.44-.6ZM56.33,4.83l.45.6h-.89l.44-.6ZM55.9.61h.89l-.45.6-.44-.6ZM56.77,4.23l.45.6h-.89l.44-.6ZM56.33,1.21h.89l-.45.6-.44-.6ZM57.21,3.62l.45.6h-.89l.44-.6ZM56.77,1.82h.89l-.45.6-.44-.6ZM57.65,3.02l.45.6h-.89l.44-.6ZM57.21,2.42h.89l-.45.6-.44-.6Z"/>
          <path class="cls-1" d="M52.76,9.39l.44.6h-.89l.45-.6ZM52.31,8.79h.89l-.44.6-.45-.6ZM53.2,9.99l.44.6h-.89l.45-.6ZM52.75,8.18h.89l-.44.6-.45-.6ZM53.64,10.6l.44.6h-.89l.45-.6ZM53.19,7.58h.89l-.44.6-.45-.6ZM54.08,11.2l.44.6h-.89l.45-.6ZM53.63,6.98h.89l-.44.6-.45-.6ZM54.52,11.8l.44.6h-.89l.45-.6ZM54.07,6.38h.89l-.44.6-.45-.6ZM55.9,11.8l.45.6h-.89l.44-.6ZM55.46,6.38h.89l-.45.6-.44-.6ZM56.33,11.2l.45.6h-.89l.44-.6ZM55.9,6.98h.89l-.45.6-.44-.6ZM56.77,10.6l.45.6h-.89l.44-.6ZM56.33,7.58h.89l-.45.6-.44-.6ZM57.21,9.99l.45.6h-.89l.44-.6ZM56.77,8.18h.89l-.45.6-.44-.6Z"/>
          <path class="cls-1" d="M52.76,15.76l.44.6h-.89l.45-.6ZM52.31,15.15h.89l-.44.6-.45-.6ZM53.2,16.36l.44.6h-.89l.45-.6ZM52.75,14.55h.89l-.44.6-.45-.6ZM53.64,16.96l.44.6h-.89l.45-.6ZM53.19,13.95h.89l-.44.6-.45-.6ZM54.08,17.57l.44.6h-.89l.45-.6ZM53.63,13.35h.89l-.44.6-.45-.6ZM54.52,18.17l.44.6h-.89l.45-.6ZM54.07,12.74h.89l-.44.6-.45-.6ZM55.9,18.17l.45.6h-.89l.44-.6ZM55.46,12.74h.89l-.45.6-.44-.6ZM56.33,17.57l.45.6h-.89l.44-.6ZM55.9,13.35h.89l-.45.6-.44-.6ZM56.77,16.96l.45.6h-.89l.44-.6ZM56.33,13.95h.89l-.45.6-.44-.6ZM57.21,16.36l.45.6h-.89l.44-.6ZM56.77,14.55h.89l-.45.6-.44-.6Z"/>
          <path class="cls-1" d="M52.76,22.12l.44.6h-.89l.45-.6ZM52.31,21.51h.89l-.44.6-.45-.6ZM53.2,22.72l.44.6h-.89l.45-.6ZM52.75,20.91h.89l-.44.6-.45-.6ZM53.64,23.32l.44.6h-.89l.45-.6ZM53.19,20.31h.89l-.44.6-.45-.6ZM54.08,23.92l.44.6h-.89l.45-.6ZM53.63,19.71h.89l-.44.6-.45-.6ZM54.52,24.53l.44.6h-.89l.45-.6ZM54.07,19.1h.89l-.44.6-.45-.6ZM55.9,24.53l.45.6h-.89l.44-.6ZM55.46,19.1h.89l-.45.6-.44-.6ZM56.33,23.92l.45.6h-.89l.44-.6ZM55.9,19.71h.89l-.45.6-.44-.6ZM56.77,23.32l.45.6h-.89l.44-.6ZM56.33,20.31h.89l-.45.6-.44-.6ZM57.21,22.72l.45.6h-.89l.44-.6ZM56.77,20.91h.89l-.45.6-.44-.6ZM57.65,22.12l.45.6h-.89l.44-.6ZM57.21,21.51h.89l-.45.6-.44-.6Z"/>
          <g>
            <path class="cls-1" d="M57.82,9.99l.44.6h-.89l.45-.6ZM57.37,8.18h.89l-.44.6-.45-.6ZM58.26,10.6l.44.6h-.89l.45-.6ZM57.81,7.58h.89l-.44.6-.45-.6ZM58.69,11.2l.44.6h-.89l.45-.6ZM58.25,6.98h.89l-.44.6-.45-.6ZM59.13,11.8l.44.6h-.89l.45-.6ZM58.69,6.38h.89l-.44.6-.45-.6ZM60.51,11.8l.45.6h-.89l.44-.6ZM60.95,11.2l.45.6h-.89l.44-.6ZM61.39,10.6l.45.6h-.89l.44-.6ZM61.83,9.99l.45.6h-.89l.44-.6ZM62.27,9.39l.45.6h-.89l.44-.6Z"/>
            <g>
              <polygon class="cls-1" points="59.22 5.6 60.11 5.6 59.67 6.2 59.22 5.6"/>
              <polygon class="cls-1" points="59.66 5 60.55 5 60.11 5.6 59.66 5"/>
              <polygon class="cls-1" points="60.1 4.4 60.99 4.4 60.55 5 60.1 4.4"/>
              <polygon class="cls-1" points="60.54 3.79 61.43 3.79 60.99 4.4 60.54 3.79"/>
              <g>
                <polygon class="cls-1" points="59.95 6.2 60.39 6.81 59.5 6.81 59.95 6.2"/>
                <polygon class="cls-1" points="60.39 6.81 60.83 7.41 59.94 7.41 60.39 6.81"/>
                <polygon class="cls-1" points="60.83 7.41 61.26 8.01 60.38 8.01 60.83 7.41"/>
                <polygon class="cls-1" points="61.26 8.01 61.7 8.62 60.82 8.62 61.26 8.01"/>
                <polygon class="cls-1" points="61.7 8.62 62.14 9.22 61.26 9.22 61.7 8.62"/>
              </g>
              <polygon class="cls-1" points="60.98 3.19 61.87 3.19 61.43 3.79 60.98 3.19"/>
              <polygon class="cls-1" points="62.81 8.62 63.25 9.22 62.37 9.22 62.81 8.62"/>
              <polygon class="cls-1" points="63.25 8.01 63.69 8.62 62.81 8.62 63.25 8.01"/>
              <polygon class="cls-1" points="63.68 7.41 64.13 8.01 63.25 8.01 63.68 7.41"/>
              <polygon class="cls-1" points="64.12 6.81 64.57 7.41 63.68 7.41 64.12 6.81"/>
              <polygon class="cls-1" points="64.56 6.2 65.01 6.81 64.12 6.81 64.56 6.2"/>
            </g>
            <g>
              <polygon class="cls-1" points="61.54 2.41 62.43 2.41 61.99 3.01 61.54 2.41"/>
              <polygon class="cls-1" points="61.98 1.81 62.87 1.81 62.43 2.41 61.98 1.81"/>
              <polygon class="cls-1" points="62.42 1.21 63.31 1.21 62.87 1.81 62.42 1.21"/>
              <polygon class="cls-1" points="62.86 .6 63.75 .6 63.31 1.21 62.86 .6"/>
              <g>
                <polygon class="cls-1" points="62.27 3.01 62.7 3.62 61.82 3.62 62.27 3.01"/>
                <polygon class="cls-1" points="62.7 3.62 63.14 4.22 62.26 4.22 62.7 3.62"/>
                <polygon class="cls-1" points="63.14 4.22 63.58 4.82 62.7 4.82 63.14 4.22"/>
                <polygon class="cls-1" points="63.58 4.82 64.02 5.42 63.14 5.42 63.58 4.82"/>
                <polygon class="cls-1" points="64.02 5.42 64.46 6.03 63.57 6.03 64.02 5.42"/>
              </g>
              <polygon class="cls-1" points="63.3 0 64.19 0 63.75 .6 63.3 0"/>
              <polygon class="cls-1" points="65.13 5.42 65.57 6.03 64.69 6.03 65.13 5.42"/>
              <polygon class="cls-1" points="64.69 0 65.57 0 65.13 .6 64.69 0"/>
              <polygon class="cls-1" points="65.56 4.82 66.01 5.42 65.13 5.42 65.56 4.82"/>
              <polygon class="cls-1" points="65.13 .6 66.01 .6 65.56 1.21 65.13 .6"/>
              <polygon class="cls-1" points="66 4.22 66.45 4.82 65.56 4.82 66 4.22"/>
              <polygon class="cls-1" points="65.56 1.21 66.45 1.21 66 1.81 65.56 1.21"/>
              <polygon class="cls-1" points="66.44 3.62 66.89 4.22 66 4.22 66.44 3.62"/>
              <polygon class="cls-1" points="66 1.81 66.89 1.81 66.44 2.41 66 1.81"/>
              <polygon class="cls-1" points="66.88 3.01 67.33 3.62 66.44 3.62 66.88 3.01"/>
              <polygon class="cls-1" points="66.44 2.41 67.33 2.41 66.88 3.01 66.44 2.41"/>
            </g>
          </g>
          <g>
            <path class="cls-1" d="M57.37,14.54h.89l-.44.6-.45-.6ZM57.82,16.35l.44.6h-.89l.45-.6ZM57.81,13.94h.89l-.44.6-.45-.6ZM58.26,16.95l.44.6h-.89l.45-.6ZM58.25,13.34h.89l-.44.6-.45-.6ZM58.69,17.55l.44.6h-.89l.45-.6ZM58.69,12.73h.89l-.44.6-.45-.6ZM59.13,18.16l.44.6h-.89l.45-.6ZM60.07,12.73h.89l-.45.6-.44-.6ZM60.51,13.34h.89l-.45.6-.44-.6ZM60.95,13.94h.89l-.45.6-.44-.6ZM61.39,14.54h.89l-.45.6-.44-.6ZM61.83,15.14h.89l-.45.6-.44-.6Z"/>
            <g>
              <polygon class="cls-1" points="59.67 18.93 60.11 19.53 59.22 19.53 59.67 18.93"/>
              <polygon class="cls-1" points="60.11 19.53 60.55 20.14 59.66 20.14 60.11 19.53"/>
              <polygon class="cls-1" points="60.55 20.14 60.99 20.74 60.1 20.74 60.55 20.14"/>
              <polygon class="cls-1" points="60.99 20.74 61.43 21.34 60.54 21.34 60.99 20.74"/>
              <g>
                <polygon class="cls-1" points="59.5 18.33 60.39 18.33 59.95 18.93 59.5 18.33"/>
                <polygon class="cls-1" points="59.94 17.73 60.83 17.73 60.39 18.33 59.94 17.73"/>
                <polygon class="cls-1" points="60.38 17.12 61.26 17.12 60.83 17.73 60.38 17.12"/>
                <polygon class="cls-1" points="60.82 16.52 61.7 16.52 61.26 17.12 60.82 16.52"/>
                <polygon class="cls-1" points="61.26 15.92 62.14 15.92 61.7 16.52 61.26 15.92"/>
              </g>
              <polygon class="cls-1" points="61.43 21.34 61.87 21.94 60.98 21.94 61.43 21.34"/>
              <polygon class="cls-1" points="62.37 15.92 63.25 15.92 62.81 16.52 62.37 15.92"/>
              <polygon class="cls-1" points="62.81 16.52 63.69 16.52 63.25 17.12 62.81 16.52"/>
              <polygon class="cls-1" points="63.25 17.12 64.13 17.12 63.68 17.73 63.25 17.12"/>
              <polygon class="cls-1" points="63.68 17.73 64.57 17.73 64.12 18.33 63.68 17.73"/>
              <polygon class="cls-1" points="64.12 18.33 65.01 18.33 64.56 18.93 64.12 18.33"/>
            </g>
            <g>
              <polygon class="cls-1" points="61.99 22.12 62.43 22.72 61.54 22.72 61.99 22.12"/>
              <polygon class="cls-1" points="62.43 22.72 62.87 23.33 61.98 23.33 62.43 22.72"/>
              <polygon class="cls-1" points="62.87 23.33 63.31 23.93 62.42 23.93 62.87 23.33"/>
              <polygon class="cls-1" points="63.31 23.93 63.75 24.53 62.86 24.53 63.31 23.93"/>
              <g>
                <polygon class="cls-1" points="61.82 21.52 62.7 21.52 62.27 22.12 61.82 21.52"/>
                <polygon class="cls-1" points="62.26 20.92 63.14 20.92 62.7 21.52 62.26 20.92"/>
                <polygon class="cls-1" points="62.7 20.31 63.58 20.31 63.14 20.92 62.7 20.31"/>
                <polygon class="cls-1" points="63.14 19.71 64.02 19.71 63.58 20.31 63.14 19.71"/>
                <polygon class="cls-1" points="63.57 19.11 64.46 19.11 64.02 19.71 63.57 19.11"/>
              </g>
              <polygon class="cls-1" points="63.75 24.53 64.19 25.14 63.3 25.14 63.75 24.53"/>
              <polygon class="cls-1" points="64.69 19.11 65.57 19.11 65.13 19.71 64.69 19.11"/>
              <polygon class="cls-1" points="65.13 24.53 65.57 25.14 64.69 25.14 65.13 24.53"/>
              <polygon class="cls-1" points="65.13 19.71 66.01 19.71 65.56 20.31 65.13 19.71"/>
              <polygon class="cls-1" points="65.56 23.93 66.01 24.53 65.13 24.53 65.56 23.93"/>
              <polygon class="cls-1" points="65.56 20.31 66.45 20.31 66 20.92 65.56 20.31"/>
              <polygon class="cls-1" points="66 23.33 66.45 23.93 65.56 23.93 66 23.33"/>
              <polygon class="cls-1" points="66 20.92 66.89 20.92 66.44 21.52 66 20.92"/>
              <polygon class="cls-1" points="66.44 22.72 66.89 23.33 66 23.33 66.44 22.72"/>
              <polygon class="cls-1" points="66.44 21.52 67.33 21.52 66.88 22.12 66.44 21.52"/>
              <polygon class="cls-1" points="66.88 22.12 67.33 22.72 66.44 22.72 66.88 22.12"/>
            </g>
          </g>
        </g>
      </g>
      <g>
        <g>
          <path class="cls-1" d="M91.05,17.43v-.48h-.47v-.96h.47v-.47h1.42v-.46h-1.42v-.48h1.91v.47h.47v2.39h-2.38ZM92.48,16h-.94v.95h.94v-.95Z"/>
          <path class="cls-1" d="M96.95,16.95v.48h-1.43v-.48h.95v-.47h-.47v-.47h-.47v-.96h.47v-.47h1.44v.48h-.95v.47h.47v.47h.48s0,.96,0,.96h-.48Z"/>
          <path class="cls-1" d="M99.98,17.43v-.48h-.47v-.96h.47v-.47h1.42v-.46h-1.42v-.48h1.91v.47h.47v2.39h-2.38ZM101.41,16h-.94v.95h.94v-.95Z"/>
          <path class="cls-1" d="M108.24,17.43v-2.38h-.46v.47h-.48v1.9h-.96v-2.38h-.47v.47h-.47v1.9h-.96v-2.86h.96v.47h.47v-.47h.96v.47h.94v-.47h.96v.47h.48v2.39h-.96Z"/>
          <path class="cls-1" d="M113.67,16.95v.48h-2.38v-3.81h.96v.95h1.42v.47h.47v1.91h-.47ZM113.18,15.05h-.94v1.89h.94v-1.89Z"/>
          <path class="cls-1" d="M116.23,17.43v-3.81h.96v3.81h-.96Z"/>
          <path class="cls-1" d="M121.64,16.95v.48h-1.91v-.48h-.47v-1.91h.47v-.47h1.91v.47h.47v.48h-.47v.47h-.95v.47h-.47v.47h1.41v-.48h.48v.49h-.47ZM121.16,15.05h-.94v.93h.47v-.47h.47v-.47Z"/>
          <path class="cls-1" d="M124.68,17.43v-.48h-.47v-.96h.47v-.47h1.42v-.46h-1.42v-.48h1.91v.47h.47v2.39h-2.38ZM126.1,16h-.94v.95h.94v-.95Z"/>
          <path class="cls-1" d="M132.18,17.43v-.48h-.47v-1.91h.47v-.47h1.42v-.95h.96v3.81h-2.38ZM133.6,15.05h-.94v1.89h.94v-1.89Z"/>
          <path class="cls-1" d="M139.03,16.95v.48h-1.91v-.48h-.47v-1.91h.47v-.47h1.91v.47h.47v.48h-.47v.47h-.95v.47h-.47v.47h1.41v-.48h.48v.49h-.47ZM138.54,15.05h-.94v.93h.47v-.47h.47v-.47Z"/>
          <path class="cls-1" d="M147.94,17.43v-2.38h-.46v.47h-.48v1.9h-.96v-2.38h-.47v.47h-.47v1.9h-.96v-2.86h.96v.47h.47v-.47h.96v.47h.94v-.47h.96v.47h.48v2.39h-.96Z"/>
          <path class="cls-1" d="M153.37,16.95v.48h-1.91v-.48h-.47v-2.38h.96v2.38h.94v-2.38h.96v2.38h-.47Z"/>
          <path class="cls-1" d="M157.82,17.43v-2.38h-.47v.47h-.47v1.9h-.96v-2.86h.96v.47h.47v-.47h.96v.47h.47v2.39h-.96Z"/>
          <path class="cls-1" d="M161.34,17.43v-.48h-.47v-1.91h.47v-.47h1.42v-.95h.96v3.81h-2.38ZM162.76,15.05h-.94v1.89h.94v-1.89Z"/>
          <path class="cls-1" d="M168.19,16.95v.48h-1.91v-.48h-.47v-1.91h.47v-.47h1.91v.47h.47v1.91h-.47ZM167.7,15.05h-.94v1.89h.94v-1.89Z"/>
          <path class="cls-1" d="M172.17,16.95v.48h-1.43v-.48h.95v-.47h-.47v-.47h-.47v-.96h.47v-.47h1.44v.48h-.95v.47h.47v.47h.48s0,.96,0,.96h-.48Z"/>
          <path class="cls-1" d="M179.68,16.95v.48h-1.42v.95h-.96v-3.81h2.38v.47h.47v1.91h-.47ZM179.19,15.05h-.94v1.89h.94v-1.89Z"/>
          <path class="cls-1" d="M184.62,16.95v.48h-1.91v-.48h-.47v-1.91h.47v-.47h1.91v.47h.47v1.91h-.47ZM184.13,15.05h-.94v1.89h.94v-1.89Z"/>
          <path class="cls-1" d="M188.61,16.95v.48h-1.43v-.48h.95v-.47h-.47v-.47h-.47v-.96h.47v-.47h1.44v.48h-.95v.47h.47v.47h.48s0,.96,0,.96h-.48Z"/>
          <path class="cls-1" d="M191.16,14.1v-.48h.96v.48h-.96ZM191.16,17.43v-2.86h.96v2.86h-.96Z"/>
          <path class="cls-1" d="M196.58,16.95v.48h-2.38v-3.81h.96v.95h1.42v.47h.47v1.91h-.47ZM196.1,15.05h-.94v1.89h.94v-1.89Z"/>
          <path class="cls-1" d="M199.14,17.43v-3.81h.96v3.81h-.96Z"/>
          <path class="cls-1" d="M204.56,16.95v.48h-1.91v-.48h-.47v-1.91h.47v-.47h1.91v.47h.47v.48h-.47v.47h-.95v.47h-.47v.47h1.41v-.48h.48v.49h-.47ZM204.08,15.05h-.94v.93h.47v-.47h.47v-.47Z"/>
          <path class="cls-1" d="M208.55,16.95v.48h-1.43v-.48h.95v-.47h-.47v-.47h-.47v-.96h.47v-.47h1.44v.48h-.95v.47h.47v.47h.48s0,.96,0,.96h-.48Z"/>
        </g>
        <g>
          <path class="cls-1" d="M92.39,24.37v.76h-.77v-.76h-1.14v-.76h.38v-.77h.39v.77h-.38v.37h.75v-1.9h.77v1.9h.38v.39h-.38Z"/>
          <path class="cls-1" d="M95.58,23.23v.76h-.38v1.14s-.76,0-.76,0v-1.15h.38v-.76h.38v-.75h-1.14v-.39h1.91v1.15h-.39Z"/>
          <path class="cls-1" d="M100.82,24.75v.38h-1.14v-.39h.76v-.37h-.38v-.38h-.38v-.77h.38v-.38h1.15v.39h-.76v.37h.38v.38h.38s0,.77,0,.77h-.38Z"/>
          <path class="cls-1" d="M103.25,25.14v-.38h-.38v-.77h.38v-.38h1.14v-.37h-1.14v-.39h1.53v.38h.38v1.91h-1.91ZM104.39,23.99h-.75v.76h.75v-.76Z"/>
          <path class="cls-1" d="M106.82,25.14v-3.05h.77v3.05h-.77Z"/>
          <path class="cls-1" d="M111.16,24.75v.38h-1.53v-.38h-.38v-1.53h.38v-.38h1.53v.38h.38v1.53h-.38ZM110.4,22.1v.38h-.39v-.39h.38v-.38h.39v.39h-.38ZM110.77,23.23h-.75v1.51h.75v-1.51Z"/>
          <path class="cls-1" d="M114.72,25.14v-1.9h-.37v.38h-.38v1.52h-.77v-2.29h.77v.38h.37v-.38h.77v.38h.38v1.91h-.77Z"/>
          <path class="cls-1" d="M120.72,25.14v-1.9h-.37v.38h-.38v1.52h-.77v-2.29h.77v.38h.37v-.38h.77v.38h.38v1.91h-.77Z"/>
          <path class="cls-1" d="M123.54,25.14v-.38h-.38v-.77h.38v-.38h1.14v-.37h-1.14v-.39h1.53v.38h.38v1.91h-1.91ZM124.68,23.99h-.75v.76h.75v-.76Z"/>
          <path class="cls-1" d="M128.64,24.75v.38h-1.15v-.38h-.38v-1.53h.38v-.38h1.53v.77h-.39v-.38h-.75v1.51h.75v-.39h.39v.39h-.38Z"/>
          <path class="cls-1" d="M130.68,22.47v-.39h.77v.39h-.77ZM130.68,25.14v-2.29h.77v2.29h-.77Z"/>
          <path class="cls-1" d="M135.01,24.75v.38h-1.53v-.38h-.38v-1.53h.38v-.38h1.53v.38h.38v1.53h-.38ZM134.63,23.23h-.75v1.51h.75v-1.51Z"/>
          <path class="cls-1" d="M138.58,25.14v-1.9h-.37v.38h-.38v1.52h-.77v-2.29h.77v.38h.37v-.38h.77v.38h.38v1.91h-.77Z"/>
          <path class="cls-1" d="M141.39,25.14v-.38h-.38v-.77h.38v-.38h1.14v-.37h-1.14v-.39h1.53v.38h.38v1.91h-1.91ZM142.53,23.99h-.75v.76h.75v-.76Z"/>
          <path class="cls-1" d="M144.96,25.14v-3.05h.77v3.05h-.77Z"/>
          <path class="cls-1" d="M149.82,25.14v-.38h-.38v-1.53h.38v-.38h1.14v-.76h.77v3.05h-1.91ZM150.96,23.23h-.75v1.51h.75v-1.51Z"/>
          <path class="cls-1" d="M155.3,24.75v.38h-1.53v-.38h-.38v-1.53h.38v-.38h1.53v.38h.38v.39h-.38v.38h-.76v.38h-.38v.38h1.13v-.39h.39v.39h-.38ZM154.91,23.23h-.75v.75h.37v-.37h.38v-.37Z"/>
          <path class="cls-1" d="M159.78,25.14v-.38h-.38v-.77h.38v-.38h1.14v-.37h-1.14v-.39h1.53v.38h.38v1.91h-1.91ZM160.92,23.99h-.75v.76h.75v-.76Z"/>
          <path class="cls-1" d="M164.12,23.61v1.52h-.77v-2.29h.77v.38h.37v-.38h.39v.77h-.76Z"/>
          <path class="cls-1" d="M167.31,23.23v1.9h-.77v-1.9h-.38v-.39h.38v-.76h.77v.76h.38v.39h-.38Z"/>
          <path class="cls-1" d="M168.97,22.47v-.39h.77v.39h-.77ZM168.97,25.14v-2.29h.77v2.29h-.77Z"/>
          <path class="cls-1" d="M172.54,24.75v.38h-1.14v-.39h.76v-.37h-.38v-.38h-.38v-.77h.38v-.38h1.15v.39h-.76v.37h.38v.38h.38s0,.77,0,.77h-.38Z"/>
          <path class="cls-1" d="M175.36,23.23v1.9h-.77v-1.9h-.38v-.39h.38v-.76h.77v.76h.38v.39h-.38Z"/>
          <path class="cls-1" d="M177.4,25.14v-.38h-.38v-.77h.38v-.38h1.14v-.37h-1.14v-.39h1.53v.38h.38v1.91h-1.91ZM178.54,23.99h-.75v.76h.75v-.76Z"/>
          <path class="cls-1" d="M182.12,24.75v.38h-1.14v-.39h.76v-.37h-.38v-.38h-.38v-.77h.38v-.38h1.15v.39h-.76v.37h.38v.38h.38s0,.77,0,.77h-.38Z"/>
        </g>
      </g>
    </g>
  </g>
</svg>