<?xml version="1.0" encoding="UTF-8"?>
<svg id="Layer_2" data-name="Layer 2" xmlns="http://www.w3.org/2000/svg" viewBox="0 0 417.15 50.94">
  <defs>
    <style>
      .cls-1 {
        fill: #fff;
      }
    </style>
  </defs>
  <g id="Contenido">
    <g>
      <g>
        <g>
          <path class="cls-1" d="M182.42,34.68v-.95h-.94v-1.92h.94v-.94h2.83v-.92h-2.83v-.96h3.8v.94h.94v4.75h-4.74ZM185.26,31.83h-1.87v1.88h1.87v-1.88Z"/>
          <path class="cls-1" d="M194.16,33.73v.95h-2.85v-.96h1.88v-.93h-.94v-.94h-.94v-1.92h.94v-.94h2.86v.96h-1.89v.93h.94v.94h.95s0,1.9,0,1.9h-.95Z"/>
          <path class="cls-1" d="M200.19,34.68v-.95h-.94v-1.92h.94v-.94h2.83v-.92h-2.83v-.96h3.8v.94h.94v4.75h-4.74ZM203.02,31.83h-1.87v1.88h1.87v-1.88Z"/>
          <path class="cls-1" d="M216.62,34.68v-4.73h-.92v.94h-.95v3.79h-1.9v-4.73h-.93v.94h-.94v3.79h-1.9v-5.69h1.9v.94h.93v-.94h1.9v.94h1.87v-.94h1.9v.94h.95v4.75h-1.9Z"/>
          <path class="cls-1" d="M227.42,33.73v.95h-4.74v-7.58h1.9v1.89h2.83v.94h.94v3.8h-.94ZM226.45,29.95h-1.87v3.76h1.87v-3.76Z"/>
          <path class="cls-1" d="M232.51,34.68v-7.58h1.9v7.58h-1.9Z"/>
          <path class="cls-1" d="M243.29,33.73v.95h-3.8v-.95h-.94v-3.8h.94v-.94h3.8v.94h.94v.96h-.94v.94h-1.89v.94h-.94v.94h2.81v-.96h.96v.97h-.94ZM242.32,29.95h-1.87v1.86h.93v-.93h.94v-.93Z"/>
          <path class="cls-1" d="M249.32,34.68v-.95h-.94v-1.92h.94v-.94h2.83v-.92h-2.83v-.96h3.8v.94h.94v4.75h-4.74ZM252.15,31.83h-1.87v1.88h1.87v-1.88Z"/>
          <path class="cls-1" d="M264.25,34.68v-.95h-.94v-3.8h.94v-.94h2.83v-1.89h1.9v7.58h-4.74ZM267.08,29.95h-1.87v3.76h1.87v-3.76Z"/>
          <path class="cls-1" d="M277.87,33.73v.95h-3.8v-.95h-.94v-3.8h.94v-.94h3.8v.94h.94v.96h-.94v.94h-1.89v.94h-.94v.94h2.81v-.96h.96v.97h-.94ZM276.91,29.95h-1.87v1.86h.93v-.93h.94v-.93Z"/>
          <path class="cls-1" d="M295.61,34.68v-4.73h-.92v.94h-.95v3.79h-1.9v-4.73h-.93v.94h-.94v3.79h-1.9v-5.69h1.9v.94h.93v-.94h1.9v.94h1.87v-.94h1.9v.94h.95v4.75h-1.9Z"/>
          <path class="cls-1" d="M306.41,33.73v.95h-3.8v-.95h-.94v-4.74h1.9v4.73h1.87v-4.73h1.9v4.74h-.94Z"/>
          <path class="cls-1" d="M315.27,34.68v-4.73h-.93v.94h-.94v3.79h-1.9v-5.69h1.9v.94h.93v-.94h1.9v.94h.94v4.75h-1.9Z"/>
          <path class="cls-1" d="M322.27,34.68v-.95h-.94v-3.8h.94v-.94h2.83v-1.89h1.9v7.58h-4.74ZM325.1,29.95h-1.87v3.76h1.87v-3.76Z"/>
          <path class="cls-1" d="M335.89,33.73v.95h-3.8v-.95h-.94v-3.8h.94v-.94h3.8v.94h.94v3.8h-.94ZM334.93,29.95h-1.87v3.76h1.87v-3.76Z"/>
          <path class="cls-1" d="M343.83,33.73v.95h-2.85v-.96h1.88v-.93h-.94v-.94h-.94v-1.92h.94v-.94h2.86v.96h-1.89v.93h.94v.94h.95s0,1.9,0,1.9h-.95Z"/>
          <path class="cls-1" d="M358.76,33.73v.95h-2.83v1.89h-1.9v-7.58h4.74v.94h.94v3.8h-.94ZM357.79,29.95h-1.87v3.76h1.87v-3.76Z"/>
          <path class="cls-1" d="M368.58,33.73v.95h-3.8v-.95h-.94v-3.8h.94v-.94h3.8v.94h.94v3.8h-.94ZM367.62,29.95h-1.87v3.76h1.87v-3.76Z"/>
          <path class="cls-1" d="M376.52,33.73v.95h-2.85v-.96h1.88v-.93h-.94v-.94h-.94v-1.92h.94v-.94h2.86v.96h-1.89v.93h.94v.94h.95s0,1.9,0,1.9h-.95Z"/>
          <path class="cls-1" d="M381.61,28.06v-.96h1.9v.96h-1.9ZM381.61,34.68v-5.69h1.9v5.69h-1.9Z"/>
          <path class="cls-1" d="M392.39,33.73v.95h-4.74v-7.58h1.9v1.89h2.83v.94h.94v3.8h-.94ZM391.43,29.95h-1.87v3.76h1.87v-3.76Z"/>
          <path class="cls-1" d="M397.48,34.68v-7.58h1.9v7.58h-1.9Z"/>
          <path class="cls-1" d="M408.26,33.73v.95h-3.8v-.95h-.94v-3.8h.94v-.94h3.8v.94h.94v.96h-.94v.94h-1.89v.94h-.94v.94h2.81v-.96h.96v.97h-.94ZM407.3,29.95h-1.87v1.86h.93v-.93h.94v-.93Z"/>
          <path class="cls-1" d="M416.2,33.73v.95h-2.85v-.96h1.88v-.93h-.94v-.94h-.94v-1.92h.94v-.94h2.86v.96h-1.89v.93h.94v.94h.95s0,1.9,0,1.9h-.95Z"/>
        </g>
        <g>
          <path class="cls-1" d="M185.09,48.5v1.51h-1.52v-1.51h-2.27v-1.51h.75v-1.52h.77v1.53h-.75v.73h1.5v-3.78h1.52v3.78h.75v.77h-.75Z"/>
          <path class="cls-1" d="M191.43,46.24v1.51h-.76v2.27s-1.51,0-1.51,0v-2.29h.75v-1.51h.75v-1.5h-2.27v-.77h3.8v2.29h-.77Z"/>
          <path class="cls-1" d="M201.86,49.26v.76h-2.28v-.77h1.51v-.74h-.75v-.75h-.75v-1.53h.75v-.75h2.29v.77h-1.51v.74h.75v.75h.76s0,1.52,0,1.52h-.76Z"/>
          <path class="cls-1" d="M206.69,50.02v-.76h-.75v-1.53h.75v-.75h2.27v-.73h-2.27v-.77h3.04v.75h.75v3.8h-3.79ZM208.96,47.74h-1.5v1.51h1.5v-1.51Z"/>
          <path class="cls-1" d="M213.8,50.02v-6.07h1.52v6.07h-1.52Z"/>
          <path class="cls-1" d="M222.42,49.26v.76h-3.04v-.76h-.75v-3.04h.75v-.75h3.04v.75h.75v3.04h-.75ZM220.91,43.97v.75h-.77v-.77h.76v-.75h.77v.77h-.76ZM221.65,46.24h-1.5v3.01h1.5v-3.01Z"/>
          <path class="cls-1" d="M229.51,50.02v-3.78h-.74v.75h-.75v3.03h-1.52v-4.55h1.52v.75h.74v-.75h1.52v.75h.75v3.8h-1.52Z"/>
          <path class="cls-1" d="M241.46,50.02v-3.78h-.74v.75h-.75v3.03h-1.52v-4.55h1.52v.75h.74v-.75h1.52v.75h.75v3.8h-1.52Z"/>
          <path class="cls-1" d="M247.05,50.02v-.76h-.75v-1.53h.75v-.75h2.27v-.73h-2.27v-.77h3.04v.75h.75v3.8h-3.79ZM249.32,47.74h-1.5v1.51h1.5v-1.51Z"/>
          <path class="cls-1" d="M257.2,49.26v.76h-2.29v-.76h-.75v-3.04h.75v-.75h3.04v1.52h-.77v-.75h-1.5v3.01h1.5v-.77h.77v.78h-.75Z"/>
          <path class="cls-1" d="M261.26,44.72v-.77h1.52v.77h-1.52ZM261.26,50.02v-4.55h1.52v4.55h-1.52Z"/>
          <path class="cls-1" d="M269.89,49.26v.76h-3.04v-.76h-.75v-3.04h.75v-.75h3.04v.75h.75v3.04h-.75ZM269.12,46.24h-1.5v3.01h1.5v-3.01Z"/>
          <path class="cls-1" d="M276.98,50.02v-3.78h-.74v.75h-.75v3.03h-1.52v-4.55h1.52v.75h.74v-.75h1.52v.75h.75v3.8h-1.52Z"/>
          <path class="cls-1" d="M282.58,50.02v-.76h-.75v-1.53h.75v-.75h2.27v-.73h-2.27v-.77h3.04v.75h.75v3.8h-3.79ZM284.84,47.74h-1.5v1.51h1.5v-1.51Z"/>
          <path class="cls-1" d="M289.69,50.02v-6.07h1.52v6.07h-1.52Z"/>
          <path class="cls-1" d="M299.35,50.02v-.76h-.75v-3.04h.75v-.75h2.27v-1.51h1.52v6.07h-3.79ZM301.62,46.24h-1.5v3.01h1.5v-3.01Z"/>
          <path class="cls-1" d="M310.25,49.26v.76h-3.04v-.76h-.75v-3.04h.75v-.75h3.04v.75h.75v.77h-.75v.75h-1.51v.75h-.75v.75h2.25v-.77h.77v.78h-.75ZM309.48,46.24h-1.5v1.49h.74v-.74h.75v-.74Z"/>
          <path class="cls-1" d="M319.16,50.02v-.76h-.75v-1.53h.75v-.75h2.27v-.73h-2.27v-.77h3.04v.75h.75v3.8h-3.79ZM321.43,47.74h-1.5v1.51h1.5v-1.51Z"/>
          <path class="cls-1" d="M327.79,46.99v3.03h-1.52v-4.55h1.52v.75h.74v-.75h.77v1.52h-1.51Z"/>
          <path class="cls-1" d="M334.14,46.24v3.78h-1.52v-3.78h-.76v-.77h.76v-1.51h1.52v1.51h.75v.77h-.75Z"/>
          <path class="cls-1" d="M337.45,44.72v-.77h1.52v.77h-1.52ZM337.45,50.02v-4.55h1.52v4.55h-1.52Z"/>
          <path class="cls-1" d="M344.56,49.26v.76h-2.28v-.77h1.51v-.74h-.75v-.75h-.75v-1.53h.75v-.75h2.29v.77h-1.51v.74h.75v.75h.76s0,1.52,0,1.52h-.76Z"/>
          <path class="cls-1" d="M350.16,46.24v3.78h-1.52v-3.78h-.76v-.77h.76v-1.51h1.52v1.51h.75v.77h-.75Z"/>
          <path class="cls-1" d="M354.22,50.02v-.76h-.75v-1.53h.75v-.75h2.27v-.73h-2.27v-.77h3.04v.75h.75v3.8h-3.79ZM356.49,47.74h-1.5v1.51h1.5v-1.51Z"/>
          <path class="cls-1" d="M363.61,49.26v.76h-2.28v-.77h1.51v-.74h-.75v-.75h-.75v-1.53h.75v-.75h2.29v.77h-1.51v.74h.75v.75h.76s0,1.52,0,1.52h-.76Z"/>
        </g>
      </g>
      <g>
        <g>
          <path class="cls-1" d="M34.58,6.34l.89-1.23.87,1.23-.87,1.2-.89-1.2ZM41.67,3.91l-.91,1.2.91,1.23-.91,1.2.91,1.23-.91,1.2-.89-1.2-.87,1.2-.89-1.2-.87,1.2-.91-1.2.91-1.23-.91-1.2.91-1.23-.91-1.2.91-1.23.87,1.23.89-1.23.87,1.23.89-1.23.91,1.23ZM39.01.24l.87,1.23-.87,1.2-.89-1.2.89-1.23ZM39.01,12.41l-.89-1.2.89-1.23.87,1.23-.87,1.2ZM42.56,5.11l.87,1.23-.87,1.2-.89-1.2.89-1.23Z"/>
          <path class="cls-1" d="M34.58,19l.89-1.23.87,1.23-.87,1.2-.89-1.2ZM41.67,16.57l-.91,1.2.91,1.23-.91,1.2.91,1.23-.91,1.2-.89-1.2-.87,1.2-.89-1.2-.87,1.2-.91-1.2.91-1.23-.91-1.2.91-1.23-.91-1.2.91-1.23.87,1.23.89-1.23.87,1.23.89-1.23.91,1.23ZM39.01,12.9l.87,1.23-.87,1.2-.89-1.2.89-1.23ZM39.01,25.07l-.89-1.2.89-1.23.87,1.23-.87,1.2ZM42.56,17.77l.87,1.23-.87,1.2-.89-1.2.89-1.23Z"/>
          <path class="cls-1" d="M34.58,31.84l.89-1.23.87,1.23-.87,1.2-.89-1.2ZM41.67,29.4l-.91,1.2.91,1.23-.91,1.2.91,1.23-.91,1.2-.89-1.2-.87,1.2-.89-1.2-.87,1.2-.91-1.2.91-1.23-.91-1.2.91-1.23-.91-1.2.91-1.23.87,1.23.89-1.23.87,1.23.89-1.23.91,1.23ZM39.01,25.73l.87,1.23-.87,1.2-.89-1.2.89-1.23ZM39.01,37.9l-.89-1.2.89-1.23.87,1.23-.87,1.2ZM42.56,30.6l.87,1.23-.87,1.2-.89-1.2.89-1.23Z"/>
          <path class="cls-1" d="M34.58,44.67l.89-1.23.87,1.23-.87,1.2-.89-1.2ZM41.67,42.23l-.91,1.2.91,1.23-.91,1.2.91,1.23-.91,1.2-.89-1.2-.87,1.2-.89-1.2-.87,1.2-.91-1.2.91-1.23-.91-1.2.91-1.23-.91-1.2.91-1.23.87,1.23.89-1.23.87,1.23.89-1.23.91,1.23ZM39.01,38.56l.87,1.23-.87,1.2-.89-1.2.89-1.23ZM39.01,50.74l-.89-1.2.89-1.23.87,1.23-.87,1.2ZM42.56,43.43l.87,1.23-.87,1.2-.89-1.2.89-1.23Z"/>
          <path class="cls-1" d="M44.48,6.16l.89-1.23.87,1.23-.87,1.2-.89-1.2ZM51.58,3.73l-.91,1.2.91,1.23-.91,1.2.91,1.23-.91,1.2-.89-1.2-.87,1.2-.89-1.2-.87,1.2-.91-1.2.91-1.23-.91-1.2.91-1.23-.91-1.2.91-1.23.87,1.23.89-1.23.87,1.23.89-1.23.91,1.23ZM48.91.06l.87,1.23-.87,1.2-.89-1.2.89-1.23ZM48.91,12.23l-.89-1.2.89-1.23.87,1.23-.87,1.2ZM52.47,4.93l.87,1.23-.87,1.2-.89-1.2.89-1.23Z"/>
          <path class="cls-1" d="M44.48,31.84l.89-1.23.87,1.23-.87,1.2-.89-1.2ZM51.58,29.4l-.91,1.2.91,1.23-.91,1.2.91,1.23-.91,1.2-.89-1.2-.87,1.2-.89-1.2-.87,1.2-.91-1.2.91-1.23-.91-1.2.91-1.23-.91-1.2.91-1.23.87,1.23.89-1.23.87,1.23.89-1.23.91,1.23ZM48.91,25.73l.87,1.23-.87,1.2-.89-1.2.89-1.23ZM48.91,37.9l-.89-1.2.89-1.23.87,1.23-.87,1.2ZM52.47,30.6l.87,1.23-.87,1.2-.89-1.2.89-1.23Z"/>
          <path class="cls-1" d="M54.39,6.16l.89-1.23.87,1.23-.87,1.2-.89-1.2ZM61.48,3.73l-.91,1.2.91,1.23-.91,1.2.91,1.23-.91,1.2-.89-1.2-.87,1.2-.89-1.2-.87,1.2-.91-1.2.91-1.23-.91-1.2.91-1.23-.91-1.2.91-1.23.87,1.23.89-1.23.87,1.23.89-1.23.91,1.23ZM58.82.06l.87,1.23-.87,1.2-.89-1.2.89-1.23ZM58.82,12.23l-.89-1.2.89-1.23.87,1.23-.87,1.2ZM62.37,4.93l.87,1.23-.87,1.2-.89-1.2.89-1.23Z"/>
          <path class="cls-1" d="M54.39,19l.89-1.23.87,1.23-.87,1.2-.89-1.2ZM61.48,16.57l-.91,1.2.91,1.23-.91,1.2.91,1.23-.91,1.2-.89-1.2-.87,1.2-.89-1.2-.87,1.2-.91-1.2.91-1.23-.91-1.2.91-1.23-.91-1.2.91-1.23.87,1.23.89-1.23.87,1.23.89-1.23.91,1.23ZM58.82,12.9l.87,1.23-.87,1.2-.89-1.2.89-1.23ZM58.82,25.07l-.89-1.2.89-1.23.87,1.23-.87,1.2ZM62.37,17.77l.87,1.23-.87,1.2-.89-1.2.89-1.23Z"/>
          <path class="cls-1" d="M54.39,31.84l.89-1.23.87,1.23-.87,1.2-.89-1.2ZM61.48,29.4l-.91,1.2.91,1.23-.91,1.2.91,1.23-.91,1.2-.89-1.2-.87,1.2-.89-1.2-.87,1.2-.91-1.2.91-1.23-.91-1.2.91-1.23-.91-1.2.91-1.23.87,1.23.89-1.23.87,1.23.89-1.23.91,1.23ZM58.82,25.73l.87,1.23-.87,1.2-.89-1.2.89-1.23ZM58.82,37.9l-.89-1.2.89-1.23.87,1.23-.87,1.2ZM62.37,30.6l.87,1.23-.87,1.2-.89-1.2.89-1.23Z"/>
          <path class="cls-1" d="M54.39,44.67l.89-1.23.87,1.23-.87,1.2-.89-1.2ZM61.48,42.23l-.91,1.2.91,1.23-.91,1.2.91,1.23-.91,1.2-.89-1.2-.87,1.2-.89-1.2-.87,1.2-.91-1.2.91-1.23-.91-1.2.91-1.23-.91-1.2.91-1.23.87,1.23.89-1.23.87,1.23.89-1.23.91,1.23ZM58.82,38.56l.87,1.23-.87,1.2-.89-1.2.89-1.23ZM58.82,50.74l-.89-1.2.89-1.23.87,1.23-.87,1.2ZM62.37,43.43l.87,1.23-.87,1.2-.89-1.2.89-1.23Z"/>
        </g>
        <g>
          <path class="cls-1" d="M70.22,6.34l.89-1.23.87,1.23-.87,1.2-.89-1.2ZM77.32,3.91l-.91,1.2.91,1.23-.91,1.2.91,1.23-.91,1.2-.89-1.2-.87,1.2-.89-1.2-.87,1.2-.91-1.2.91-1.23-.91-1.2.91-1.23-.91-1.2.91-1.23.87,1.23.89-1.23.87,1.23.89-1.23.91,1.23ZM74.65.24l.87,1.23-.87,1.2-.89-1.2.89-1.23ZM74.65,12.41l-.89-1.2.89-1.23.87,1.23-.87,1.2ZM78.2,5.11l.87,1.23-.87,1.2-.89-1.2.89-1.23Z"/>
          <path class="cls-1" d="M70.22,19l.89-1.23.87,1.23-.87,1.2-.89-1.2ZM77.32,16.57l-.91,1.2.91,1.23-.91,1.2.91,1.23-.91,1.2-.89-1.2-.87,1.2-.89-1.2-.87,1.2-.91-1.2.91-1.23-.91-1.2.91-1.23-.91-1.2.91-1.23.87,1.23.89-1.23.87,1.23.89-1.23.91,1.23ZM74.65,12.9l.87,1.23-.87,1.2-.89-1.2.89-1.23ZM74.65,25.07l-.89-1.2.89-1.23.87,1.23-.87,1.2ZM78.2,17.77l.87,1.23-.87,1.2-.89-1.2.89-1.23Z"/>
          <path class="cls-1" d="M70.22,31.84l.89-1.23.87,1.23-.87,1.2-.89-1.2ZM77.32,29.4l-.91,1.2.91,1.23-.91,1.2.91,1.23-.91,1.2-.89-1.2-.87,1.2-.89-1.2-.87,1.2-.91-1.2.91-1.23-.91-1.2.91-1.23-.91-1.2.91-1.23.87,1.23.89-1.23.87,1.23.89-1.23.91,1.23ZM74.65,25.73l.87,1.23-.87,1.2-.89-1.2.89-1.23ZM74.65,37.9l-.89-1.2.89-1.23.87,1.23-.87,1.2ZM78.2,30.6l.87,1.23-.87,1.2-.89-1.2.89-1.23Z"/>
          <path class="cls-1" d="M70.22,44.67l.89-1.23.87,1.23-.87,1.2-.89-1.2ZM77.32,42.23l-.91,1.2.91,1.23-.91,1.2.91,1.23-.91,1.2-.89-1.2-.87,1.2-.89-1.2-.87,1.2-.91-1.2.91-1.23-.91-1.2.91-1.23-.91-1.2.91-1.23.87,1.23.89-1.23.87,1.23.89-1.23.91,1.23ZM74.65,38.56l.87,1.23-.87,1.2-.89-1.2.89-1.23ZM74.65,50.74l-.89-1.2.89-1.23.87,1.23-.87,1.2ZM78.2,43.43l.87,1.23-.87,1.2-.89-1.2.89-1.23Z"/>
          <path class="cls-1" d="M80.13,44.67l.89-1.23.87,1.23-.87,1.2-.89-1.2ZM87.22,42.23l-.91,1.2.91,1.23-.91,1.2.91,1.23-.91,1.2-.89-1.2-.87,1.2-.89-1.2-.87,1.2-.91-1.2.91-1.23-.91-1.2.91-1.23-.91-1.2.91-1.23.87,1.23.89-1.23.87,1.23.89-1.23.91,1.23ZM84.55,38.56l.87,1.23-.87,1.2-.89-1.2.89-1.23ZM84.55,50.74l-.89-1.2.89-1.23.87,1.23-.87,1.2ZM88.11,43.43l.87,1.23-.87,1.2-.89-1.2.89-1.23Z"/>
          <path class="cls-1" d="M90.03,6.16l.89-1.23.87,1.23-.87,1.2-.89-1.2ZM97.13,3.73l-.91,1.2.91,1.23-.91,1.2.91,1.23-.91,1.2-.89-1.2-.87,1.2-.89-1.2-.87,1.2-.91-1.2.91-1.23-.91-1.2.91-1.23-.91-1.2.91-1.23.87,1.23.89-1.23.87,1.23.89-1.23.91,1.23ZM94.46.06l.87,1.23-.87,1.2-.89-1.2.89-1.23ZM94.46,12.23l-.89-1.2.89-1.23.87,1.23-.87,1.2ZM98.02,4.93l.87,1.23-.87,1.2-.89-1.2.89-1.23Z"/>
          <path class="cls-1" d="M90.03,19l.89-1.23.87,1.23-.87,1.2-.89-1.2ZM97.13,16.57l-.91,1.2.91,1.23-.91,1.2.91,1.23-.91,1.2-.89-1.2-.87,1.2-.89-1.2-.87,1.2-.91-1.2.91-1.23-.91-1.2.91-1.23-.91-1.2.91-1.23.87,1.23.89-1.23.87,1.23.89-1.23.91,1.23ZM94.46,12.9l.87,1.23-.87,1.2-.89-1.2.89-1.23ZM94.46,25.07l-.89-1.2.89-1.23.87,1.23-.87,1.2ZM98.02,17.77l.87,1.23-.87,1.2-.89-1.2.89-1.23Z"/>
          <path class="cls-1" d="M90.03,31.84l.89-1.23.87,1.23-.87,1.2-.89-1.2ZM97.13,29.4l-.91,1.2.91,1.23-.91,1.2.91,1.23-.91,1.2-.89-1.2-.87,1.2-.89-1.2-.87,1.2-.91-1.2.91-1.23-.91-1.2.91-1.23-.91-1.2.91-1.23.87,1.23.89-1.23.87,1.23.89-1.23.91,1.23ZM94.46,25.73l.87,1.23-.87,1.2-.89-1.2.89-1.23ZM94.46,37.9l-.89-1.2.89-1.23.87,1.23-.87,1.2ZM98.02,30.6l.87,1.23-.87,1.2-.89-1.2.89-1.23Z"/>
          <path class="cls-1" d="M90.03,44.67l.89-1.23.87,1.23-.87,1.2-.89-1.2ZM97.13,42.23l-.91,1.2.91,1.23-.91,1.2.91,1.23-.91,1.2-.89-1.2-.87,1.2-.89-1.2-.87,1.2-.91-1.2.91-1.23-.91-1.2.91-1.23-.91-1.2.91-1.23.87,1.23.89-1.23.87,1.23.89-1.23.91,1.23ZM94.46,38.56l.87,1.23-.87,1.2-.89-1.2.89-1.23ZM94.46,50.74l-.89-1.2.89-1.23.87,1.23-.87,1.2ZM98.02,43.43l.87,1.23-.87,1.2-.89-1.2.89-1.23Z"/>
        </g>
        <g>
          <path class="cls-1" d="M.09,6.34l.89-1.23.87,1.23-.87,1.2L.09,6.34ZM7.18,3.91l-.91,1.2.91,1.23-.91,1.2.91,1.23-.91,1.2-.89-1.2-.87,1.2-.89-1.2-.87,1.2-.91-1.2.91-1.23-.91-1.2.91-1.23-.91-1.2.91-1.23.87,1.23.89-1.23.87,1.23.89-1.23.91,1.23ZM4.51.24l.87,1.23-.87,1.2-.89-1.2.89-1.23ZM4.51,12.41l-.89-1.2.89-1.23.87,1.23-.87,1.2ZM8.07,5.11l.87,1.23-.87,1.2-.89-1.2.89-1.23Z"/>
          <path class="cls-1" d="M0,19l.89-1.23.87,1.23-.87,1.2-.89-1.2ZM7.1,16.57l-.91,1.2.91,1.23-.91,1.2.91,1.23-.91,1.2-.89-1.2-.87,1.2-.89-1.2-.87,1.2-.91-1.2.91-1.23-.91-1.2.91-1.23-.91-1.2.91-1.23.87,1.23.89-1.23.87,1.23.89-1.23.91,1.23ZM4.43,12.9l.87,1.23-.87,1.2-.89-1.2.89-1.23ZM4.43,25.07l-.89-1.2.89-1.23.87,1.23-.87,1.2ZM7.98,17.77l.87,1.23-.87,1.2-.89-1.2.89-1.23Z"/>
          <path class="cls-1" d="M0,31.84l.89-1.23.87,1.23-.87,1.2-.89-1.2ZM7.1,29.4l-.91,1.2.91,1.23-.91,1.2.91,1.23-.91,1.2-.89-1.2-.87,1.2-.89-1.2-.87,1.2-.91-1.2.91-1.23-.91-1.2.91-1.23-.91-1.2.91-1.23.87,1.23.89-1.23.87,1.23.89-1.23.91,1.23ZM4.43,25.73l.87,1.23-.87,1.2-.89-1.2.89-1.23ZM4.43,37.9l-.89-1.2.89-1.23.87,1.23-.87,1.2ZM7.98,30.6l.87,1.23-.87,1.2-.89-1.2.89-1.23Z"/>
          <path class="cls-1" d="M0,44.67l.89-1.23.87,1.23-.87,1.2-.89-1.2ZM7.1,42.23l-.91,1.2.91,1.23-.91,1.2.91,1.23-.91,1.2-.89-1.2-.87,1.2-.89-1.2-.87,1.2-.91-1.2.91-1.23-.91-1.2.91-1.23-.91-1.2.91-1.23.87,1.23.89-1.23.87,1.23.89-1.23.91,1.23ZM4.43,38.56l.87,1.23-.87,1.2-.89-1.2.89-1.23ZM4.43,50.74l-.89-1.2.89-1.23.87,1.23-.87,1.2ZM7.98,43.43l.87,1.23-.87,1.2-.89-1.2.89-1.23Z"/>
          <path class="cls-1" d="M14.06,12.76l.89-1.23.87,1.23-.87,1.2-.89-1.2ZM21.15,10.32l-.91,1.2.91,1.23-.91,1.2.91,1.23-.91,1.2-.89-1.2-.87,1.2-.89-1.2-.87,1.2-.91-1.2.91-1.23-.91-1.2.91-1.23-.91-1.2.91-1.23.87,1.23.89-1.23.87,1.23.89-1.23.91,1.23ZM18.49,6.65l.87,1.23-.87,1.2-.89-1.2.89-1.23ZM18.49,18.83l-.89-1.2.89-1.23.87,1.23-.87,1.2ZM22.04,11.52l.87,1.23-.87,1.2-.89-1.2.89-1.23Z"/>
          <path class="cls-1" d="M9.41,19.18l.89-1.23.87,1.23-.87,1.2-.89-1.2ZM16.5,16.74l-.91,1.2.91,1.23-.91,1.2.91,1.23-.91,1.2-.89-1.2-.87,1.2-.89-1.2-.87,1.2-.91-1.2.91-1.23-.91-1.2.91-1.23-.91-1.2.91-1.23.87,1.23.89-1.23.87,1.23.89-1.23.91,1.23ZM13.84,13.07l.87,1.23-.87,1.2-.89-1.2.89-1.23ZM13.84,25.25l-.89-1.2.89-1.23.87,1.23-.87,1.2ZM17.39,17.94l.87,1.23-.87,1.2-.89-1.2.89-1.23Z"/>
          <path class="cls-1" d="M9.4,32.03l.89-1.23.87,1.23-.87,1.2-.89-1.2ZM16.5,29.59l-.91,1.2.91,1.23-.91,1.2.91,1.23-.91,1.2-.89-1.2-.87,1.2-.89-1.2-.87,1.2-.91-1.2.91-1.23-.91-1.2.91-1.23-.91-1.2.91-1.23.87,1.23.89-1.23.87,1.23.89-1.23.91,1.23ZM13.83,25.92l.87,1.23-.87,1.2-.89-1.2.89-1.23ZM13.83,38.1l-.89-1.2.89-1.23.87,1.23-.87,1.2ZM17.39,30.79l.87,1.23-.87,1.2-.89-1.2.89-1.23Z"/>
          <path class="cls-1" d="M18.73,6.34l.89-1.23.87,1.23-.87,1.2-.89-1.2ZM25.82,3.91l-.91,1.2.91,1.23-.91,1.2.91,1.23-.91,1.2-.89-1.2-.87,1.2-.89-1.2-.87,1.2-.91-1.2.91-1.23-.91-1.2.91-1.23-.91-1.2.91-1.23.87,1.23.89-1.23.87,1.23.89-1.23.91,1.23ZM23.16.24l.87,1.23-.87,1.2-.89-1.2.89-1.23ZM23.16,12.41l-.89-1.2.89-1.23.87,1.23-.87,1.2ZM26.71,5.11l.87,1.23-.87,1.2-.89-1.2.89-1.23Z"/>
          <path class="cls-1" d="M4.74,25.5l.89-1.23.87,1.23-.87,1.2-.89-1.2ZM11.83,23.07l-.91,1.2.91,1.23-.91,1.2.91,1.23-.91,1.2-.89-1.2-.87,1.2-.89-1.2-.87,1.2-.91-1.2.91-1.23-.91-1.2.91-1.23-.91-1.2.91-1.23.87,1.23.89-1.23.87,1.23.89-1.23.91,1.23ZM9.17,19.4l.87,1.23-.87,1.2-.89-1.2.89-1.23ZM9.17,31.57l-.89-1.2.89-1.23.87,1.23-.87,1.2ZM12.72,24.27l.87,1.23-.87,1.2-.89-1.2.89-1.23Z"/>
          <path class="cls-1" d="M14.05,38.43l.89-1.23.87,1.23-.87,1.2-.89-1.2ZM21.15,36l-.91,1.2.91,1.23-.91,1.2.91,1.23-.91,1.2-.89-1.2-.87,1.2-.89-1.2-.87,1.2-.91-1.2.91-1.23-.91-1.2.91-1.23-.91-1.2.91-1.23.87,1.23.89-1.23.87,1.23.89-1.23.91,1.23ZM18.48,32.33l.87,1.23-.87,1.2-.89-1.2.89-1.23ZM18.48,44.5l-.89-1.2.89-1.23.87,1.23-.87,1.2ZM22.03,37.2l.87,1.23-.87,1.2-.89-1.2.89-1.23Z"/>
          <path class="cls-1" d="M18.72,44.87l.89-1.23.87,1.23-.87,1.2-.89-1.2ZM25.82,42.43l-.91,1.2.91,1.23-.91,1.2.91,1.23-.91,1.2-.89-1.2-.87,1.2-.89-1.2-.87,1.2-.91-1.2.91-1.23-.91-1.2.91-1.23-.91-1.2.91-1.23.87,1.23.89-1.23.87,1.23.89-1.23.91,1.23ZM23.15,38.77l.87,1.23-.87,1.2-.89-1.2.89-1.23ZM23.15,50.94l-.89-1.2.89-1.23.87,1.23-.87,1.2ZM26.71,43.63l.87,1.23-.87,1.2-.89-1.2.89-1.23Z"/>
        </g>
        <g>
          <path class="cls-1" d="M140.4,6.28l.89-1.23.87,1.23-.87,1.2-.89-1.2ZM147.5,3.85l-.91,1.2.91,1.23-.91,1.2.91,1.23-.91,1.2-.89-1.2-.87,1.2-.89-1.2-.87,1.2-.91-1.2.91-1.23-.91-1.2.91-1.23-.91-1.2.91-1.23.87,1.23.89-1.23.87,1.23.89-1.23.91,1.23ZM144.83.18l.87,1.23-.87,1.2-.89-1.2.89-1.23ZM144.83,12.35l-.89-1.2.89-1.23.87,1.23-.87,1.2ZM148.39,5.05l.87,1.23-.87,1.2-.89-1.2.89-1.23Z"/>
          <path class="cls-1" d="M140.4,18.95l.89-1.23.87,1.23-.87,1.2-.89-1.2ZM147.5,16.51l-.91,1.2.91,1.23-.91,1.2.91,1.23-.91,1.2-.89-1.2-.87,1.2-.89-1.2-.87,1.2-.91-1.2.91-1.23-.91-1.2.91-1.23-.91-1.2.91-1.23.87,1.23.89-1.23.87,1.23.89-1.23.91,1.23ZM144.83,12.84l.87,1.23-.87,1.2-.89-1.2.89-1.23ZM144.83,25.02l-.89-1.2.89-1.23.87,1.23-.87,1.2ZM148.39,17.71l.87,1.23-.87,1.2-.89-1.2.89-1.23Z"/>
          <path class="cls-1" d="M140.4,31.78l.89-1.23.87,1.23-.87,1.2-.89-1.2ZM147.5,29.34l-.91,1.2.91,1.23-.91,1.2.91,1.23-.91,1.2-.89-1.2-.87,1.2-.89-1.2-.87,1.2-.91-1.2.91-1.23-.91-1.2.91-1.23-.91-1.2.91-1.23.87,1.23.89-1.23.87,1.23.89-1.23.91,1.23ZM144.83,25.67l.87,1.23-.87,1.2-.89-1.2.89-1.23ZM144.83,37.85l-.89-1.2.89-1.23.87,1.23-.87,1.2ZM148.39,30.54l.87,1.23-.87,1.2-.89-1.2.89-1.23Z"/>
          <path class="cls-1" d="M140.4,44.61l.89-1.23.87,1.23-.87,1.2-.89-1.2ZM147.5,42.18l-.91,1.2.91,1.23-.91,1.2.91,1.23-.91,1.2-.89-1.2-.87,1.2-.89-1.2-.87,1.2-.91-1.2.91-1.23-.91-1.2.91-1.23-.91-1.2.91-1.23.87,1.23.89-1.23.87,1.23.89-1.23.91,1.23ZM144.83,38.51l.87,1.23-.87,1.2-.89-1.2.89-1.23ZM144.83,50.68l-.89-1.2.89-1.23.87,1.23-.87,1.2ZM148.39,43.38l.87,1.23-.87,1.2-.89-1.2.89-1.23Z"/>
          <path class="cls-1" d="M150.31,6.1l.89-1.23.87,1.23-.87,1.2-.89-1.2ZM157.4,3.67l-.91,1.2.91,1.23-.91,1.2.91,1.23-.91,1.2-.89-1.2-.87,1.2-.89-1.2-.87,1.2-.91-1.2.91-1.23-.91-1.2.91-1.23-.91-1.2.91-1.23.87,1.23.89-1.23.87,1.23.89-1.23.91,1.23ZM154.74,0l.87,1.23-.87,1.2-.89-1.2.89-1.23ZM154.74,12.17l-.89-1.2.89-1.23.87,1.23-.87,1.2ZM158.29,4.87l.87,1.23-.87,1.2-.89-1.2.89-1.23Z"/>
          <path class="cls-1" d="M150.31,31.78l.89-1.23.87,1.23-.87,1.2-.89-1.2ZM157.4,29.34l-.91,1.2.91,1.23-.91,1.2.91,1.23-.91,1.2-.89-1.2-.87,1.2-.89-1.2-.87,1.2-.91-1.2.91-1.23-.91-1.2.91-1.23-.91-1.2.91-1.23.87,1.23.89-1.23.87,1.23.89-1.23.91,1.23ZM154.74,25.67l.87,1.23-.87,1.2-.89-1.2.89-1.23ZM154.74,37.85l-.89-1.2.89-1.23.87,1.23-.87,1.2ZM158.29,30.54l.87,1.23-.87,1.2-.89-1.2.89-1.23Z"/>
          <path class="cls-1" d="M160.21,6.1l.89-1.23.87,1.23-.87,1.2-.89-1.2ZM167.31,3.67l-.91,1.2.91,1.23-.91,1.2.91,1.23-.91,1.2-.89-1.2-.87,1.2-.89-1.2-.87,1.2-.91-1.2.91-1.23-.91-1.2.91-1.23-.91-1.2.91-1.23.87,1.23.89-1.23.87,1.23.89-1.23.91,1.23ZM164.64,0l.87,1.23-.87,1.2-.89-1.2.89-1.23ZM164.64,12.17l-.89-1.2.89-1.23.87,1.23-.87,1.2ZM168.2,4.87l.87,1.23-.87,1.2-.89-1.2.89-1.23Z"/>
          <path class="cls-1" d="M160.21,18.95l.89-1.23.87,1.23-.87,1.2-.89-1.2ZM167.31,16.51l-.91,1.2.91,1.23-.91,1.2.91,1.23-.91,1.2-.89-1.2-.87,1.2-.89-1.2-.87,1.2-.91-1.2.91-1.23-.91-1.2.91-1.23-.91-1.2.91-1.23.87,1.23.89-1.23.87,1.23.89-1.23.91,1.23ZM164.64,12.84l.87,1.23-.87,1.2-.89-1.2.89-1.23ZM164.64,25.02l-.89-1.2.89-1.23.87,1.23-.87,1.2ZM168.2,17.71l.87,1.23-.87,1.2-.89-1.2.89-1.23Z"/>
          <path class="cls-1" d="M160.21,31.78l.89-1.23.87,1.23-.87,1.2-.89-1.2ZM167.31,29.34l-.91,1.2.91,1.23-.91,1.2.91,1.23-.91,1.2-.89-1.2-.87,1.2-.89-1.2-.87,1.2-.91-1.2.91-1.23-.91-1.2.91-1.23-.91-1.2.91-1.23.87,1.23.89-1.23.87,1.23.89-1.23.91,1.23ZM164.64,25.67l.87,1.23-.87,1.2-.89-1.2.89-1.23ZM164.64,37.85l-.89-1.2.89-1.23.87,1.23-.87,1.2ZM168.2,30.54l.87,1.23-.87,1.2-.89-1.2.89-1.23Z"/>
          <path class="cls-1" d="M160.21,44.61l.89-1.23.87,1.23-.87,1.2-.89-1.2ZM167.31,42.18l-.91,1.2.91,1.23-.91,1.2.91,1.23-.91,1.2-.89-1.2-.87,1.2-.89-1.2-.87,1.2-.91-1.2.91-1.23-.91-1.2.91-1.23-.91-1.2.91-1.23.87,1.23.89-1.23.87,1.23.89-1.23.91,1.23ZM164.64,38.51l.87,1.23-.87,1.2-.89-1.2.89-1.23ZM164.64,50.68l-.89-1.2.89-1.23.87,1.23-.87,1.2ZM168.2,43.38l.87,1.23-.87,1.2-.89-1.2.89-1.23Z"/>
        </g>
        <g>
          <path class="cls-1" d="M105.91,6.28l.89-1.23.87,1.23-.87,1.2-.89-1.2ZM113.01,3.85l-.91,1.2.91,1.23-.91,1.2.91,1.23-.91,1.2-.89-1.2-.87,1.2-.89-1.2-.87,1.2-.91-1.2.91-1.23-.91-1.2.91-1.23-.91-1.2.91-1.23.87,1.23.89-1.23.87,1.23.89-1.23.91,1.23ZM110.34.18l.87,1.23-.87,1.2-.89-1.2.89-1.23ZM110.34,12.35l-.89-1.2.89-1.23.87,1.23-.87,1.2ZM113.89,5.05l.87,1.23-.87,1.2-.89-1.2.89-1.23Z"/>
          <path class="cls-1" d="M105.82,18.95l.89-1.23.87,1.23-.87,1.2-.89-1.2ZM112.92,16.51l-.91,1.2.91,1.23-.91,1.2.91,1.23-.91,1.2-.89-1.2-.87,1.2-.89-1.2-.87,1.2-.91-1.2.91-1.23-.91-1.2.91-1.23-.91-1.2.91-1.23.87,1.23.89-1.23.87,1.23.89-1.23.91,1.23ZM110.25,12.84l.87,1.23-.87,1.2-.89-1.2.89-1.23ZM110.25,25.02l-.89-1.2.89-1.23.87,1.23-.87,1.2ZM113.81,17.71l.87,1.23-.87,1.2-.89-1.2.89-1.23Z"/>
          <path class="cls-1" d="M105.82,31.78l.89-1.23.87,1.23-.87,1.2-.89-1.2ZM112.92,29.34l-.91,1.2.91,1.23-.91,1.2.91,1.23-.91,1.2-.89-1.2-.87,1.2-.89-1.2-.87,1.2-.91-1.2.91-1.23-.91-1.2.91-1.23-.91-1.2.91-1.23.87,1.23.89-1.23.87,1.23.89-1.23.91,1.23ZM110.25,25.67l.87,1.23-.87,1.2-.89-1.2.89-1.23ZM110.25,37.85l-.89-1.2.89-1.23.87,1.23-.87,1.2ZM113.81,30.54l.87,1.23-.87,1.2-.89-1.2.89-1.23Z"/>
          <path class="cls-1" d="M105.82,44.61l.89-1.23.87,1.23-.87,1.2-.89-1.2ZM112.92,42.18l-.91,1.2.91,1.23-.91,1.2.91,1.23-.91,1.2-.89-1.2-.87,1.2-.89-1.2-.87,1.2-.91-1.2.91-1.23-.91-1.2.91-1.23-.91-1.2.91-1.23.87,1.23.89-1.23.87,1.23.89-1.23.91,1.23ZM110.25,38.51l.87,1.23-.87,1.2-.89-1.2.89-1.23ZM110.25,50.68l-.89-1.2.89-1.23.87,1.23-.87,1.2ZM113.81,43.38l.87,1.23-.87,1.2-.89-1.2.89-1.23Z"/>
          <path class="cls-1" d="M119.88,12.7l.89-1.23.87,1.23-.87,1.2-.89-1.2ZM126.98,10.27l-.91,1.2.91,1.23-.91,1.2.91,1.23-.91,1.2-.89-1.2-.87,1.2-.89-1.2-.87,1.2-.91-1.2.91-1.23-.91-1.2.91-1.23-.91-1.2.91-1.23.87,1.23.89-1.23.87,1.23.89-1.23.91,1.23ZM124.31,6.6l.87,1.23-.87,1.2-.89-1.2.89-1.23ZM124.31,18.77l-.89-1.2.89-1.23.87,1.23-.87,1.2ZM127.87,11.47l.87,1.23-.87,1.2-.89-1.2.89-1.23Z"/>
          <path class="cls-1" d="M115.23,19.12l.89-1.23.87,1.23-.87,1.2-.89-1.2ZM122.33,16.69l-.91,1.2.91,1.23-.91,1.2.91,1.23-.91,1.2-.89-1.2-.87,1.2-.89-1.2-.87,1.2-.91-1.2.91-1.23-.91-1.2.91-1.23-.91-1.2.91-1.23.87,1.23.89-1.23.87,1.23.89-1.23.91,1.23ZM119.66,13.02l.87,1.23-.87,1.2-.89-1.2.89-1.23ZM119.66,25.19l-.89-1.2.89-1.23.87,1.23-.87,1.2ZM123.22,17.89l.87,1.23-.87,1.2-.89-1.2.89-1.23Z"/>
          <path class="cls-1" d="M115.22,31.97l.89-1.23.87,1.23-.87,1.2-.89-1.2ZM122.32,29.53l-.91,1.2.91,1.23-.91,1.2.91,1.23-.91,1.2-.89-1.2-.87,1.2-.89-1.2-.87,1.2-.91-1.2.91-1.23-.91-1.2.91-1.23-.91-1.2.91-1.23.87,1.23.89-1.23.87,1.23.89-1.23.91,1.23ZM119.65,25.87l.87,1.23-.87,1.2-.89-1.2.89-1.23ZM119.65,38.04l-.89-1.2.89-1.23.87,1.23-.87,1.2ZM123.21,30.73l.87,1.23-.87,1.2-.89-1.2.89-1.23Z"/>
          <path class="cls-1" d="M124.55,6.28l.89-1.23.87,1.23-.87,1.2-.89-1.2ZM131.65,3.85l-.91,1.2.91,1.23-.91,1.2.91,1.23-.91,1.2-.89-1.2-.87,1.2-.89-1.2-.87,1.2-.91-1.2.91-1.23-.91-1.2.91-1.23-.91-1.2.91-1.23.87,1.23.89-1.23.87,1.23.89-1.23.91,1.23ZM128.98.18l.87,1.23-.87,1.2-.89-1.2.89-1.23ZM128.98,12.35l-.89-1.2.89-1.23.87,1.23-.87,1.2ZM132.54,5.05l.87,1.23-.87,1.2-.89-1.2.89-1.23Z"/>
          <path class="cls-1" d="M110.56,25.45l.89-1.23.87,1.23-.87,1.2-.89-1.2ZM117.66,23.01l-.91,1.2.91,1.23-.91,1.2.91,1.23-.91,1.2-.89-1.2-.87,1.2-.89-1.2-.87,1.2-.91-1.2.91-1.23-.91-1.2.91-1.23-.91-1.2.91-1.23.87,1.23.89-1.23.87,1.23.89-1.23.91,1.23ZM114.99,19.34l.87,1.23-.87,1.2-.89-1.2.89-1.23ZM114.99,31.52l-.89-1.2.89-1.23.87,1.23-.87,1.2ZM118.55,24.21l.87,1.23-.87,1.2-.89-1.2.89-1.23Z"/>
          <path class="cls-1" d="M119.87,38.38l.89-1.23.87,1.23-.87,1.2-.89-1.2ZM126.97,35.94l-.91,1.2.91,1.23-.91,1.2.91,1.23-.91,1.2-.89-1.2-.87,1.2-.89-1.2-.87,1.2-.91-1.2.91-1.23-.91-1.2.91-1.23-.91-1.2.91-1.23.87,1.23.89-1.23.87,1.23.89-1.23.91,1.23ZM124.3,32.27l.87,1.23-.87,1.2-.89-1.2.89-1.23ZM124.3,44.45l-.89-1.2.89-1.23.87,1.23-.87,1.2ZM127.86,37.14l.87,1.23-.87,1.2-.89-1.2.89-1.23Z"/>
          <path class="cls-1" d="M124.54,44.81l.89-1.23.87,1.23-.87,1.2-.89-1.2ZM131.64,42.38l-.91,1.2.91,1.23-.91,1.2.91,1.23-.91,1.2-.89-1.2-.87,1.2-.89-1.2-.87,1.2-.91-1.2.91-1.23-.91-1.2.91-1.23-.91-1.2.91-1.23.87,1.23.89-1.23.87,1.23.89-1.23.91,1.23ZM128.97,38.71l.87,1.23-.87,1.2-.89-1.2.89-1.23ZM128.97,50.88l-.89-1.2.89-1.23.87,1.23-.87,1.2ZM132.53,43.58l.87,1.23-.87,1.2-.89-1.2.89-1.23Z"/>
        </g>
      </g>
    </g>
  </g>
</svg>