<?xml version="1.0" encoding="UTF-8"?>
<svg id="Layer_2" data-name="Layer 2" xmlns="http://www.w3.org/2000/svg" viewBox="0 0 418.67 50.94">
  <defs>
    <style>
      .cls-1 {
        fill: #fff;
      }
    </style>
  </defs>
  <g id="Contenido">
    <g>
      <g>
        <g>
          <path class="cls-1" d="M183.95,34.68v-.95h-.94v-1.92h.94v-.94h2.83v-.92h-2.83v-.96h3.8v.94h.94v4.75h-4.74ZM186.78,31.83h-1.87v1.88h1.87v-1.88Z"/>
          <path class="cls-1" d="M195.68,33.73v.95h-2.85v-.96h1.88v-.93h-.94v-.94h-.94v-1.92h.94v-.94h2.86v.96h-1.89v.93h.94v.94h.95s0,1.9,0,1.9h-.95Z"/>
          <path class="cls-1" d="M201.71,34.68v-.95h-.94v-1.92h.94v-.94h2.83v-.92h-2.83v-.96h3.8v.94h.94v4.75h-4.74ZM204.54,31.83h-1.87v1.88h1.87v-1.88Z"/>
          <path class="cls-1" d="M218.15,34.68v-4.73h-.92v.94h-.95v3.79h-1.9v-4.73h-.93v.94h-.94v3.79h-1.9v-5.69h1.9v.94h.93v-.94h1.9v.94h1.87v-.94h1.9v.94h.95v4.75h-1.9Z"/>
          <path class="cls-1" d="M228.94,33.73v.95h-4.74v-7.58h1.9v1.89h2.83v.94h.94v3.8h-.94ZM227.98,29.95h-1.87v3.76h1.87v-3.76Z"/>
          <path class="cls-1" d="M234.03,34.68v-7.58h1.9v7.58h-1.9Z"/>
          <path class="cls-1" d="M244.81,33.73v.95h-3.8v-.95h-.94v-3.8h.94v-.94h3.8v.94h.94v.96h-.94v.94h-1.89v.94h-.94v.94h2.81v-.96h.96v.97h-.94ZM243.85,29.95h-1.87v1.86h.93v-.93h.94v-.93Z"/>
          <path class="cls-1" d="M250.84,34.68v-.95h-.94v-1.92h.94v-.94h2.83v-.92h-2.83v-.96h3.8v.94h.94v4.75h-4.74ZM253.68,31.83h-1.87v1.88h1.87v-1.88Z"/>
          <path class="cls-1" d="M265.77,34.68v-.95h-.94v-3.8h.94v-.94h2.83v-1.89h1.9v7.58h-4.74ZM268.6,29.95h-1.87v3.76h1.87v-3.76Z"/>
          <path class="cls-1" d="M279.4,33.73v.95h-3.8v-.95h-.94v-3.8h.94v-.94h3.8v.94h.94v.96h-.94v.94h-1.89v.94h-.94v.94h2.81v-.96h.96v.97h-.94ZM278.43,29.95h-1.87v1.86h.93v-.93h.94v-.93Z"/>
          <path class="cls-1" d="M297.14,34.68v-4.73h-.92v.94h-.95v3.79h-1.9v-4.73h-.93v.94h-.94v3.79h-1.9v-5.69h1.9v.94h.93v-.94h1.9v.94h1.87v-.94h1.9v.94h.95v4.75h-1.9Z"/>
          <path class="cls-1" d="M307.93,33.73v.95h-3.8v-.95h-.94v-4.74h1.9v4.73h1.87v-4.73h1.9v4.74h-.94Z"/>
          <path class="cls-1" d="M316.79,34.68v-4.73h-.93v.94h-.94v3.79h-1.9v-5.69h1.9v.94h.93v-.94h1.9v.94h.94v4.75h-1.9Z"/>
          <path class="cls-1" d="M323.79,34.68v-.95h-.94v-3.8h.94v-.94h2.83v-1.89h1.9v7.58h-4.74ZM326.62,29.95h-1.87v3.76h1.87v-3.76Z"/>
          <path class="cls-1" d="M337.41,33.73v.95h-3.8v-.95h-.94v-3.8h.94v-.94h3.8v.94h.94v3.8h-.94ZM336.45,29.95h-1.87v3.76h1.87v-3.76Z"/>
          <path class="cls-1" d="M345.35,33.73v.95h-2.85v-.96h1.88v-.93h-.94v-.94h-.94v-1.92h.94v-.94h2.86v.96h-1.89v.93h.94v.94h.95s0,1.9,0,1.9h-.95Z"/>
          <path class="cls-1" d="M360.28,33.73v.95h-2.83v1.89h-1.9v-7.58h4.74v.94h.94v3.8h-.94ZM359.32,29.95h-1.87v3.76h1.87v-3.76Z"/>
          <path class="cls-1" d="M370.11,33.73v.95h-3.8v-.95h-.94v-3.8h.94v-.94h3.8v.94h.94v3.8h-.94ZM369.14,29.95h-1.87v3.76h1.87v-3.76Z"/>
          <path class="cls-1" d="M378.04,33.73v.95h-2.85v-.96h1.88v-.93h-.94v-.94h-.94v-1.92h.94v-.94h2.86v.96h-1.89v.93h.94v.94h.95s0,1.9,0,1.9h-.95Z"/>
          <path class="cls-1" d="M383.13,28.06v-.96h1.9v.96h-1.9ZM383.13,34.68v-5.69h1.9v5.69h-1.9Z"/>
          <path class="cls-1" d="M393.91,33.73v.95h-4.74v-7.58h1.9v1.89h2.83v.94h.94v3.8h-.94ZM392.95,29.95h-1.87v3.76h1.87v-3.76Z"/>
          <path class="cls-1" d="M399,34.68v-7.58h1.9v7.58h-1.9Z"/>
          <path class="cls-1" d="M409.78,33.73v.95h-3.8v-.95h-.94v-3.8h.94v-.94h3.8v.94h.94v.96h-.94v.94h-1.89v.94h-.94v.94h2.81v-.96h.96v.97h-.94ZM408.82,29.95h-1.87v1.86h.93v-.93h.94v-.93Z"/>
          <path class="cls-1" d="M417.72,33.73v.95h-2.85v-.96h1.88v-.93h-.94v-.94h-.94v-1.92h.94v-.94h2.86v.96h-1.89v.93h.94v.94h.95s0,1.9,0,1.9h-.95Z"/>
        </g>
        <g>
          <path class="cls-1" d="M186.61,48.5v1.51h-1.52v-1.51h-2.27v-1.51h.75v-1.52h.77v1.53h-.75v.73h1.5v-3.78h1.52v3.78h.75v.77h-.75Z"/>
          <path class="cls-1" d="M192.95,46.24v1.51h-.76v2.27s-1.51,0-1.51,0v-2.29h.75v-1.51h.75v-1.5h-2.27v-.77h3.8v2.29h-.77Z"/>
          <path class="cls-1" d="M203.39,49.26v.76h-2.28v-.77h1.51v-.74h-.75v-.75h-.75v-1.53h.75v-.75h2.29v.77h-1.51v.74h.75v.75h.76s0,1.52,0,1.52h-.76Z"/>
          <path class="cls-1" d="M208.21,50.02v-.76h-.75v-1.53h.75v-.75h2.27v-.73h-2.27v-.77h3.04v.75h.75v3.8h-3.79ZM210.48,47.74h-1.5v1.51h1.5v-1.51Z"/>
          <path class="cls-1" d="M215.32,50.02v-6.07h1.52v6.07h-1.52Z"/>
          <path class="cls-1" d="M223.94,49.26v.76h-3.04v-.76h-.75v-3.04h.75v-.75h3.04v.75h.75v3.04h-.75ZM222.43,43.97v.75h-.77v-.77h.76v-.75h.77v.77h-.76ZM223.17,46.24h-1.5v3.01h1.5v-3.01Z"/>
          <path class="cls-1" d="M231.04,50.02v-3.78h-.74v.75h-.75v3.03h-1.52v-4.55h1.52v.75h.74v-.75h1.52v.75h.75v3.8h-1.52Z"/>
          <path class="cls-1" d="M242.98,50.02v-3.78h-.74v.75h-.75v3.03h-1.52v-4.55h1.52v.75h.74v-.75h1.52v.75h.75v3.8h-1.52Z"/>
          <path class="cls-1" d="M248.58,50.02v-.76h-.75v-1.53h.75v-.75h2.27v-.73h-2.27v-.77h3.04v.75h.75v3.8h-3.79ZM250.84,47.74h-1.5v1.51h1.5v-1.51Z"/>
          <path class="cls-1" d="M258.72,49.26v.76h-2.29v-.76h-.75v-3.04h.75v-.75h3.04v1.52h-.77v-.75h-1.5v3.01h1.5v-.77h.77v.78h-.75Z"/>
          <path class="cls-1" d="M262.79,44.72v-.77h1.52v.77h-1.52ZM262.79,50.02v-4.55h1.52v4.55h-1.52Z"/>
          <path class="cls-1" d="M271.41,49.26v.76h-3.04v-.76h-.75v-3.04h.75v-.75h3.04v.75h.75v3.04h-.75ZM270.64,46.24h-1.5v3.01h1.5v-3.01Z"/>
          <path class="cls-1" d="M278.5,50.02v-3.78h-.74v.75h-.75v3.03h-1.52v-4.55h1.52v.75h.74v-.75h1.52v.75h.75v3.8h-1.52Z"/>
          <path class="cls-1" d="M284.1,50.02v-.76h-.75v-1.53h.75v-.75h2.27v-.73h-2.27v-.77h3.04v.75h.75v3.8h-3.79ZM286.37,47.74h-1.5v1.51h1.5v-1.51Z"/>
          <path class="cls-1" d="M291.21,50.02v-6.07h1.52v6.07h-1.52Z"/>
          <path class="cls-1" d="M300.88,50.02v-.76h-.75v-3.04h.75v-.75h2.27v-1.51h1.52v6.07h-3.79ZM303.14,46.24h-1.5v3.01h1.5v-3.01Z"/>
          <path class="cls-1" d="M311.78,49.26v.76h-3.04v-.76h-.75v-3.04h.75v-.75h3.04v.75h.75v.77h-.75v.75h-1.51v.75h-.75v.75h2.25v-.77h.77v.78h-.75ZM311.01,46.24h-1.5v1.49h.74v-.74h.75v-.74Z"/>
          <path class="cls-1" d="M320.68,50.02v-.76h-.75v-1.53h.75v-.75h2.27v-.73h-2.27v-.77h3.04v.75h.75v3.8h-3.79ZM322.95,47.74h-1.5v1.51h1.5v-1.51Z"/>
          <path class="cls-1" d="M329.32,46.99v3.03h-1.52v-4.55h1.52v.75h.74v-.75h.77v1.52h-1.51Z"/>
          <path class="cls-1" d="M335.66,46.24v3.78h-1.52v-3.78h-.76v-.77h.76v-1.51h1.52v1.51h.75v.77h-.75Z"/>
          <path class="cls-1" d="M338.97,44.72v-.77h1.52v.77h-1.52ZM338.97,50.02v-4.55h1.52v4.55h-1.52Z"/>
          <path class="cls-1" d="M346.08,49.26v.76h-2.28v-.77h1.51v-.74h-.75v-.75h-.75v-1.53h.75v-.75h2.29v.77h-1.51v.74h.75v.75h.76s0,1.52,0,1.52h-.76Z"/>
          <path class="cls-1" d="M351.68,46.24v3.78h-1.52v-3.78h-.76v-.77h.76v-1.51h1.52v1.51h.75v.77h-.75Z"/>
          <path class="cls-1" d="M355.74,50.02v-.76h-.75v-1.53h.75v-.75h2.27v-.73h-2.27v-.77h3.04v.75h.75v3.8h-3.79ZM358.01,47.74h-1.5v1.51h1.5v-1.51Z"/>
          <path class="cls-1" d="M365.13,49.26v.76h-2.28v-.77h1.51v-.74h-.75v-.75h-.75v-1.53h.75v-.75h2.29v.77h-1.51v.74h.75v.75h.76s0,1.52,0,1.52h-.76Z"/>
        </g>
      </g>
      <g>
        <g>
          <path class="cls-1" d="M142.42,4.92l-.89,1.22-.9-1.22h1.79ZM142.42,7.36h-1.79l.9-1.22.89,1.22ZM142.94,7.31l.87-1.2-.87-1.24-.89,1.24.89,1.2ZM146.49,9.62l-2.56-3.48,2.56-3.48,2.52,3.48-2.52,3.48ZM145.97.05l-.89,1.22-.9-1.22h1.79ZM145.97,12.23h-1.79l.9-1.22.89,1.22ZM146.47,2.44l.87-1.2-.87-1.24-.89,1.24.89,1.2ZM146.47,12.18l.87-1.2-.87-1.24-.89,1.24.89,1.2ZM146.98.05h1.79l-.9,1.22-.89-1.22ZM146.98,12.23l.89-1.22.9,1.22h-1.79ZM150.02,7.31l.87-1.2-.87-1.24-.89,1.24.89,1.2ZM150.53,4.92h1.79l-.9,1.22-.89-1.22ZM150.53,7.36l.89-1.22.9,1.22h-1.79Z"/>
          <path class="cls-1" d="M142.94,20.18l.87-1.2-.87-1.24-.89,1.24.89,1.2ZM146.49,22.49l-2.56-3.48,2.56-3.48,2.52,3.48-2.52,3.48ZM145.97,12.92l-.89,1.22-.9-1.22h1.79ZM145.97,25.1h-1.79l.9-1.22.89,1.22ZM146.47,15.31l.87-1.2-.87-1.24-.89,1.24.89,1.2ZM146.47,25.05l.87-1.2-.87-1.24-.89,1.24.89,1.2ZM146.98,12.92h1.79l-.9,1.22-.89-1.22ZM146.98,25.1l.89-1.22.9,1.22h-1.79ZM150.02,20.18l.87-1.2-.87-1.24-.89,1.24.89,1.2Z"/>
          <path class="cls-1" d="M142.42,30.67l-.89,1.22-.9-1.22h1.79ZM142.42,33.1h-1.79l.9-1.22.89,1.22ZM142.94,33.05l.87-1.2-.87-1.24-.89,1.24.89,1.2ZM146.49,35.36l-2.56-3.48,2.56-3.48,2.52,3.48-2.52,3.48ZM145.97,25.79l-.89,1.22-.9-1.22h1.79ZM145.97,37.97h-1.79l.9-1.22.89,1.22ZM146.47,28.18l.87-1.2-.87-1.24-.89,1.24.89,1.2ZM146.47,37.92l.87-1.2-.87-1.24-.89,1.24.89,1.2ZM146.98,25.79h1.79l-.9,1.22-.89-1.22ZM146.98,37.97l.89-1.22.9,1.22h-1.79ZM150.02,33.05l.87-1.2-.87-1.24-.89,1.24.89,1.2ZM150.53,30.67h1.79l-.9,1.22-.89-1.22ZM150.53,33.1l.89-1.22.9,1.22h-1.79Z"/>
          <path class="cls-1" d="M142.94,45.92l.87-1.2-.87-1.24-.89,1.24.89,1.2ZM146.49,48.23l-2.56-3.48,2.56-3.48,2.52,3.48-2.52,3.48ZM145.97,38.67l-.89,1.22-.9-1.22h1.79ZM145.97,50.84h-1.79l.9-1.22.89,1.22ZM146.47,41.05l.87-1.2-.87-1.24-.89,1.24.89,1.2ZM146.47,50.79l.87-1.2-.87-1.24-.89,1.24.89,1.2ZM146.98,38.67h1.79l-.9,1.22-.89-1.22ZM146.98,50.84l.89-1.22.9,1.22h-1.79ZM150.02,45.92l.87-1.2-.87-1.24-.89,1.24.89,1.2Z"/>
          <path class="cls-1" d="M152.32,4.92l-.89,1.22-.9-1.22h1.79ZM152.32,7.36h-1.79l.9-1.22.89,1.22ZM152.84,7.31l.87-1.2-.87-1.24-.89,1.24.89,1.2ZM156.39,9.62l-2.56-3.48,2.56-3.48,2.52,3.48-2.52,3.48ZM155.87.05l-.89,1.22-.9-1.22h1.79ZM155.87,12.23h-1.79l.9-1.22.89,1.22ZM156.37,2.44l.87-1.2-.87-1.24-.89,1.24.89,1.2ZM156.37,12.18l.87-1.2-.87-1.24-.89,1.24.89,1.2ZM156.88.05h1.79l-.9,1.22-.89-1.22ZM156.88,12.23l.89-1.22.9,1.22h-1.79ZM159.92,7.31l.87-1.2-.87-1.24-.89,1.24.89,1.2ZM160.42,4.92h1.79l-.9,1.22-.89-1.22ZM160.42,7.36l.89-1.22.9,1.22h-1.79Z"/>
          <path class="cls-1" d="M152.32,30.67l-.89,1.22-.9-1.22h1.79ZM152.32,33.1h-1.79l.9-1.22.89,1.22ZM152.84,33.05l.87-1.2-.87-1.24-.89,1.24.89,1.2ZM156.39,35.36l-2.56-3.48,2.56-3.48,2.52,3.48-2.52,3.48ZM155.87,25.79l-.89,1.22-.9-1.22h1.79ZM155.87,37.97h-1.79l.9-1.22.89,1.22ZM156.37,28.18l.87-1.2-.87-1.24-.89,1.24.89,1.2ZM156.37,37.92l.87-1.2-.87-1.24-.89,1.24.89,1.2ZM156.88,25.79h1.79l-.9,1.22-.89-1.22ZM156.88,37.97l.89-1.22.9,1.22h-1.79ZM159.92,33.05l.87-1.2-.87-1.24-.89,1.24.89,1.2ZM160.42,30.67h1.79l-.9,1.22-.89-1.22ZM160.42,33.1l.89-1.22.9,1.22h-1.79Z"/>
          <path class="cls-1" d="M162.22,4.92l-.89,1.22-.9-1.22h1.79ZM162.22,7.36h-1.79l.9-1.22.89,1.22ZM162.74,7.31l.87-1.2-.87-1.24-.89,1.24.89,1.2ZM166.29,9.62l-2.56-3.48,2.56-3.48,2.52,3.48-2.52,3.48ZM165.77.05l-.89,1.22-.9-1.22h1.79ZM165.77,12.23h-1.79l.9-1.22.89,1.22ZM166.27,2.44l.87-1.2-.87-1.24-.89,1.24.89,1.2ZM166.27,12.18l.87-1.2-.87-1.24-.89,1.24.89,1.2ZM166.77.05h1.79l-.9,1.22-.89-1.22ZM166.77,12.23l.89-1.22.9,1.22h-1.79ZM169.82,7.31l.87-1.2-.87-1.24-.89,1.24.89,1.2ZM170.32,4.92h1.79l-.9,1.22-.89-1.22ZM170.32,7.36l.89-1.22.9,1.22h-1.79Z"/>
          <path class="cls-1" d="M162.74,20.18l.87-1.2-.87-1.24-.89,1.24.89,1.2ZM166.29,22.49l-2.56-3.48,2.56-3.48,2.52,3.48-2.52,3.48ZM165.77,12.92l-.89,1.22-.9-1.22h1.79ZM165.77,25.1h-1.79l.9-1.22.89,1.22ZM166.27,15.31l.87-1.2-.87-1.24-.89,1.24.89,1.2ZM166.27,25.05l.87-1.2-.87-1.24-.89,1.24.89,1.2ZM166.77,12.92h1.79l-.9,1.22-.89-1.22ZM166.77,25.1l.89-1.22.9,1.22h-1.79ZM169.82,20.18l.87-1.2-.87-1.24-.89,1.24.89,1.2Z"/>
          <path class="cls-1" d="M162.22,30.67l-.89,1.22-.9-1.22h1.79ZM162.22,33.1h-1.79l.9-1.22.89,1.22ZM162.74,33.05l.87-1.2-.87-1.24-.89,1.24.89,1.2ZM166.29,35.36l-2.56-3.48,2.56-3.48,2.52,3.48-2.52,3.48ZM165.77,25.79l-.89,1.22-.9-1.22h1.79ZM165.77,37.97h-1.79l.9-1.22.89,1.22ZM166.27,28.18l.87-1.2-.87-1.24-.89,1.24.89,1.2ZM166.27,37.92l.87-1.2-.87-1.24-.89,1.24.89,1.2ZM166.77,25.79h1.79l-.9,1.22-.89-1.22ZM166.77,37.97l.89-1.22.9,1.22h-1.79ZM169.82,33.05l.87-1.2-.87-1.24-.89,1.24.89,1.2ZM170.32,30.67h1.79l-.9,1.22-.89-1.22ZM170.32,33.1l.89-1.22.9,1.22h-1.79Z"/>
          <path class="cls-1" d="M162.74,45.92l.87-1.2-.87-1.24-.89,1.24.89,1.2ZM166.29,48.23l-2.56-3.48,2.56-3.48,2.52,3.48-2.52,3.48ZM165.77,38.67l-.89,1.22-.9-1.22h1.79ZM165.77,50.84h-1.79l.9-1.22.89,1.22ZM166.27,41.05l.87-1.2-.87-1.24-.89,1.24.89,1.2ZM166.27,50.79l.87-1.2-.87-1.24-.89,1.24.89,1.2ZM166.77,38.67h1.79l-.9,1.22-.89-1.22ZM166.77,50.84l.89-1.22.9,1.22h-1.79ZM169.82,45.92l.87-1.2-.87-1.24-.89,1.24.89,1.2Z"/>
        </g>
        <g>
          <path class="cls-1" d="M107.83,4.92l-.89,1.22-.9-1.22h1.79ZM107.83,7.36h-1.79l.9-1.22.89,1.22ZM108.35,7.31l.87-1.2-.87-1.24-.89,1.24.89,1.2ZM111.9,9.62l-2.56-3.48,2.56-3.48,2.52,3.48-2.52,3.48ZM111.38.05l-.89,1.22-.9-1.22h1.79ZM111.38,12.23h-1.79l.9-1.22.89,1.22ZM111.89,2.44l.87-1.2-.87-1.24-.89,1.24.89,1.2ZM111.89,12.18l.87-1.2-.87-1.24-.89,1.24.89,1.2ZM112.39.05h1.79l-.9,1.22-.89-1.22ZM112.39,12.23l.89-1.22.9,1.22h-1.79ZM115.44,7.31l.87-1.2-.87-1.24-.89,1.24.89,1.2ZM115.94,4.92h1.79l-.9,1.22-.89-1.22ZM115.94,7.36l.89-1.22.9,1.22h-1.79Z"/>
          <path class="cls-1" d="M122.36,13.75l.87-1.2-.87-1.24-.89,1.24.89,1.2ZM125.91,16.06l-2.56-3.48,2.56-3.48,2.52,3.48-2.52,3.48ZM125.89,8.88l.87-1.2-.87-1.24-.89,1.24.89,1.2ZM125.89,18.62l.87-1.2-.87-1.24-.89,1.24.89,1.2ZM129.44,13.75l.87-1.2-.87-1.24-.89,1.24.89,1.2Z"/>
          <polygon class="cls-1" points="113.04 26.65 113.91 25.45 113.04 24.21 112.15 25.45 113.04 26.65"/>
          <polygon class="cls-1" points="110.79 26.65 111.66 25.45 110.79 24.21 109.9 25.45 110.79 26.65"/>
          <polygon class="cls-1" points="122.35 26.65 123.22 25.45 122.35 24.21 121.46 25.45 122.35 26.65"/>
          <polygon class="cls-1" points="116.59 28.96 114.03 25.48 116.59 22 119.11 25.48 116.59 28.96"/>
          <polygon class="cls-1" points="116.57 21.78 117.44 20.58 116.57 19.34 115.68 20.58 116.57 21.78"/>
          <polygon class="cls-1" points="116.57 31.52 117.44 30.32 116.57 29.08 115.68 30.32 116.57 31.52"/>
          <polygon class="cls-1" points="120.12 26.65 120.99 25.45 120.12 24.21 119.23 25.45 120.12 26.65"/>
          <path class="cls-1" d="M127.04,7.31l.87-1.2-.87-1.24-.89,1.24.89,1.2ZM130.59,9.62l-2.56-3.48,2.56-3.48,2.52,3.48-2.52,3.48ZM130.07.05l-.89,1.22-.9-1.22h1.79ZM130.57,2.44l.87-1.2-.87-1.24-.89,1.24.89,1.2ZM130.57,12.18l.87-1.2-.87-1.24-.89,1.24.89,1.2ZM131.07.05h1.79l-.9,1.22-.89-1.22ZM134.12,7.31l.87-1.2-.87-1.24-.89,1.24.89,1.2Z"/>
          <path class="cls-1" d="M107.83,17.82l-.89,1.22-.9-1.22h1.79ZM107.83,20.26h-1.79l.9-1.22.89,1.22ZM108.35,20.2l.87-1.2-.87-1.24-.89,1.24.89,1.2ZM111.9,22.52l-2.56-3.48,2.56-3.48,2.52,3.48-2.52,3.48ZM111.38,12.95l-.89,1.22-.9-1.22h1.79ZM111.89,15.33l.87-1.2-.87-1.24-.89,1.24.89,1.2ZM111.89,25.07l.87-1.2-.87-1.24-.89,1.24.89,1.2ZM112.39,12.95h1.79l-.9,1.22-.89-1.22ZM115.44,20.2l.87-1.2-.87-1.24-.89,1.24.89,1.2Z"/>
          <path class="cls-1" d="M117.7,20.2l.87-1.2-.87-1.24-.89,1.24.89,1.2ZM121.25,22.52l-2.56-3.48,2.56-3.48,2.52,3.48-2.52,3.48ZM121.23,15.33l.87-1.2-.87-1.24-.89,1.24.89,1.2ZM121.23,25.07l.87-1.2-.87-1.24-.89,1.24.89,1.2ZM124.78,20.2l.87-1.2-.87-1.24-.89,1.24.89,1.2Z"/>
          <path class="cls-1" d="M107.83,30.72l-.89,1.22-.9-1.22h1.79ZM107.83,33.15h-1.79l.9-1.22.89,1.22ZM108.35,33.1l.87-1.2-.87-1.24-.89,1.24.89,1.2ZM111.9,35.41l-2.56-3.48,2.56-3.48,2.52,3.48-2.52,3.48ZM111.38,38.02h-1.79l.9-1.22.89,1.22ZM111.89,28.23l.87-1.2-.87-1.24-.89,1.24.89,1.2ZM111.89,37.97l.87-1.2-.87-1.24-.89,1.24.89,1.2ZM112.39,38.02l.89-1.22.9,1.22h-1.79ZM115.44,33.1l.87-1.2-.87-1.24-.89,1.24.89,1.2Z"/>
          <path class="cls-1" d="M117.7,33.1l.87-1.2-.87-1.24-.89,1.24.89,1.2ZM121.25,35.41l-2.56-3.48,2.56-3.48,2.52,3.48-2.52,3.48ZM121.23,28.23l.87-1.2-.87-1.24-.89,1.24.89,1.2ZM121.23,37.97l.87-1.2-.87-1.24-.89,1.24.89,1.2ZM124.78,33.1l.87-1.2-.87-1.24-.89,1.24.89,1.2Z"/>
          <path class="cls-1" d="M122.35,39.55l.87-1.2-.87-1.24-.89,1.24.89,1.2ZM125.9,41.86l-2.56-3.48,2.56-3.48,2.52,3.48-2.52,3.48ZM125.88,34.68l.87-1.2-.87-1.24-.89,1.24.89,1.2ZM125.88,44.42l.87-1.2-.87-1.24-.89,1.24.89,1.2ZM129.43,39.55l.87-1.2-.87-1.24-.89,1.24.89,1.2Z"/>
          <path class="cls-1" d="M107.83,43.63l-.89,1.22-.9-1.22h1.79ZM107.83,46.07h-1.79l.9-1.22.89,1.22ZM108.35,46.02l.87-1.2-.87-1.24-.89,1.24.89,1.2ZM111.9,48.33l-2.56-3.48,2.56-3.48,2.52,3.48-2.52,3.48ZM111.38,38.76l-.89,1.22-.9-1.22h1.79ZM111.38,50.94h-1.79l.9-1.22.89,1.22ZM111.89,41.14l.87-1.2-.87-1.24-.89,1.24.89,1.2ZM111.89,50.89l.87-1.2-.87-1.24-.89,1.24.89,1.2ZM112.39,38.76h1.79l-.9,1.22-.89-1.22ZM112.39,50.94l.89-1.22.9,1.22h-1.79ZM115.44,46.02l.87-1.2-.87-1.24-.89,1.24.89,1.2ZM115.94,43.63h1.79l-.9,1.22-.89-1.22ZM115.94,46.07l.89-1.22.9,1.22h-1.79Z"/>
          <path class="cls-1" d="M127.06,46.02l.87-1.2-.87-1.24-.89,1.24.89,1.2ZM130.6,48.33l-2.56-3.48,2.56-3.48,2.52,3.48-2.52,3.48ZM130.08,50.94h-1.79l.9-1.22.89,1.22ZM130.59,41.14l.87-1.2-.87-1.24-.89,1.24.89,1.2ZM130.59,50.89l.87-1.2-.87-1.24-.89,1.24.89,1.2ZM131.09,50.94l.89-1.22.9,1.22h-1.79ZM134.14,46.02l.87-1.2-.87-1.24-.89,1.24.89,1.2Z"/>
        </g>
        <g>
          <path class="cls-1" d="M36.38,4.92l-.89,1.22-.9-1.22h1.79ZM36.38,7.36h-1.79l.9-1.22.89,1.22ZM36.9,7.31l.87-1.2-.87-1.24-.89,1.24.89,1.2ZM40.45,9.62l-2.56-3.48,2.56-3.48,2.52,3.48-2.52,3.48ZM39.93.05l-.89,1.22-.9-1.22h1.79ZM39.93,12.23h-1.79l.9-1.22.89,1.22ZM40.43,2.44l.87-1.2-.87-1.24-.89,1.24.89,1.2ZM40.43,12.18l.87-1.2-.87-1.24-.89,1.24.89,1.2ZM40.94.05h1.79l-.9,1.22-.89-1.22ZM40.94,12.23l.89-1.22.9,1.22h-1.79ZM43.98,7.31l.87-1.2-.87-1.24-.89,1.24.89,1.2ZM44.48,4.92h1.79l-.9,1.22-.89-1.22ZM44.48,7.36l.89-1.22.9,1.22h-1.79Z"/>
          <path class="cls-1" d="M36.9,20.18l.87-1.2-.87-1.24-.89,1.24.89,1.2ZM40.45,22.49l-2.56-3.48,2.56-3.48,2.52,3.48-2.52,3.48ZM39.93,12.92l-.89,1.22-.9-1.22h1.79ZM39.93,25.1h-1.79l.9-1.22.89,1.22ZM40.43,15.31l.87-1.2-.87-1.24-.89,1.24.89,1.2ZM40.43,25.05l.87-1.2-.87-1.24-.89,1.24.89,1.2ZM40.94,12.92h1.79l-.9,1.22-.89-1.22ZM40.94,25.1l.89-1.22.9,1.22h-1.79ZM43.98,20.18l.87-1.2-.87-1.24-.89,1.24.89,1.2Z"/>
          <path class="cls-1" d="M36.38,30.67l-.89,1.22-.9-1.22h1.79ZM36.38,33.1h-1.79l.9-1.22.89,1.22ZM36.9,33.05l.87-1.2-.87-1.24-.89,1.24.89,1.2ZM40.45,35.36l-2.56-3.48,2.56-3.48,2.52,3.48-2.52,3.48ZM39.93,25.79l-.89,1.22-.9-1.22h1.79ZM39.93,37.97h-1.79l.9-1.22.89,1.22ZM40.43,28.18l.87-1.2-.87-1.24-.89,1.24.89,1.2ZM40.43,37.92l.87-1.2-.87-1.24-.89,1.24.89,1.2ZM40.94,25.79h1.79l-.9,1.22-.89-1.22ZM40.94,37.97l.89-1.22.9,1.22h-1.79ZM43.98,33.05l.87-1.2-.87-1.24-.89,1.24.89,1.2ZM44.48,30.67h1.79l-.9,1.22-.89-1.22ZM44.48,33.1l.89-1.22.9,1.22h-1.79Z"/>
          <path class="cls-1" d="M36.9,45.92l.87-1.2-.87-1.24-.89,1.24.89,1.2ZM40.45,48.23l-2.56-3.48,2.56-3.48,2.52,3.48-2.52,3.48ZM39.93,38.67l-.89,1.22-.9-1.22h1.79ZM39.93,50.84h-1.79l.9-1.22.89,1.22ZM40.43,41.05l.87-1.2-.87-1.24-.89,1.24.89,1.2ZM40.43,50.79l.87-1.2-.87-1.24-.89,1.24.89,1.2ZM40.94,38.67h1.79l-.9,1.22-.89-1.22ZM40.94,50.84l.89-1.22.9,1.22h-1.79ZM43.98,45.92l.87-1.2-.87-1.24-.89,1.24.89,1.2Z"/>
          <path class="cls-1" d="M46.28,4.92l-.89,1.22-.9-1.22h1.79ZM46.28,7.36h-1.79l.9-1.22.89,1.22ZM46.8,7.31l.87-1.2-.87-1.24-.89,1.24.89,1.2ZM50.35,9.62l-2.56-3.48,2.56-3.48,2.52,3.48-2.52,3.48ZM49.83.05l-.89,1.22-.9-1.22h1.79ZM49.83,12.23h-1.79l.9-1.22.89,1.22ZM50.33,2.44l.87-1.2-.87-1.24-.89,1.24.89,1.2ZM50.33,12.18l.87-1.2-.87-1.24-.89,1.24.89,1.2ZM50.83.05h1.79l-.9,1.22-.89-1.22ZM50.83,12.23l.89-1.22.9,1.22h-1.79ZM53.88,7.31l.87-1.2-.87-1.24-.89,1.24.89,1.2ZM54.38,4.92h1.79l-.9,1.22-.89-1.22ZM54.38,7.36l.89-1.22.9,1.22h-1.79Z"/>
          <path class="cls-1" d="M46.28,30.67l-.89,1.22-.9-1.22h1.79ZM46.28,33.1h-1.79l.9-1.22.89,1.22ZM46.8,33.05l.87-1.2-.87-1.24-.89,1.24.89,1.2ZM50.35,35.36l-2.56-3.48,2.56-3.48,2.52,3.48-2.52,3.48ZM49.83,25.79l-.89,1.22-.9-1.22h1.79ZM49.83,37.97h-1.79l.9-1.22.89,1.22ZM50.33,28.18l.87-1.2-.87-1.24-.89,1.24.89,1.2ZM50.33,37.92l.87-1.2-.87-1.24-.89,1.24.89,1.2ZM50.83,25.79h1.79l-.9,1.22-.89-1.22ZM50.83,37.97l.89-1.22.9,1.22h-1.79ZM53.88,33.05l.87-1.2-.87-1.24-.89,1.24.89,1.2ZM54.38,30.67h1.79l-.9,1.22-.89-1.22ZM54.38,33.1l.89-1.22.9,1.22h-1.79Z"/>
          <path class="cls-1" d="M56.18,4.92l-.89,1.22-.9-1.22h1.79ZM56.18,7.36h-1.79l.9-1.22.89,1.22ZM56.7,7.31l.87-1.2-.87-1.24-.89,1.24.89,1.2ZM60.25,9.62l-2.56-3.48,2.56-3.48,2.52,3.48-2.52,3.48ZM59.72.05l-.89,1.22-.9-1.22h1.79ZM59.72,12.23h-1.79l.9-1.22.89,1.22ZM60.23,2.44l.87-1.2-.87-1.24-.89,1.24.89,1.2ZM60.23,12.18l.87-1.2-.87-1.24-.89,1.24.89,1.2ZM60.73.05h1.79l-.9,1.22-.89-1.22ZM60.73,12.23l.89-1.22.9,1.22h-1.79ZM63.78,7.31l.87-1.2-.87-1.24-.89,1.24.89,1.2ZM64.28,4.92h1.79l-.9,1.22-.89-1.22ZM64.28,7.36l.89-1.22.9,1.22h-1.79Z"/>
          <path class="cls-1" d="M56.7,20.18l.87-1.2-.87-1.24-.89,1.24.89,1.2ZM60.25,22.49l-2.56-3.48,2.56-3.48,2.52,3.48-2.52,3.48ZM59.72,12.92l-.89,1.22-.9-1.22h1.79ZM59.72,25.1h-1.79l.9-1.22.89,1.22ZM60.23,15.31l.87-1.2-.87-1.24-.89,1.24.89,1.2ZM60.23,25.05l.87-1.2-.87-1.24-.89,1.24.89,1.2ZM60.73,12.92h1.79l-.9,1.22-.89-1.22ZM60.73,25.1l.89-1.22.9,1.22h-1.79ZM63.78,20.18l.87-1.2-.87-1.24-.89,1.24.89,1.2Z"/>
          <path class="cls-1" d="M56.18,30.67l-.89,1.22-.9-1.22h1.79ZM56.18,33.1h-1.79l.9-1.22.89,1.22ZM56.7,33.05l.87-1.2-.87-1.24-.89,1.24.89,1.2ZM60.25,35.36l-2.56-3.48,2.56-3.48,2.52,3.48-2.52,3.48ZM59.72,25.79l-.89,1.22-.9-1.22h1.79ZM59.72,37.97h-1.79l.9-1.22.89,1.22ZM60.23,28.18l.87-1.2-.87-1.24-.89,1.24.89,1.2ZM60.23,37.92l.87-1.2-.87-1.24-.89,1.24.89,1.2ZM60.73,25.79h1.79l-.9,1.22-.89-1.22ZM60.73,37.97l.89-1.22.9,1.22h-1.79ZM63.78,33.05l.87-1.2-.87-1.24-.89,1.24.89,1.2ZM64.28,30.67h1.79l-.9,1.22-.89-1.22ZM64.28,33.1l.89-1.22.9,1.22h-1.79Z"/>
          <path class="cls-1" d="M56.7,45.92l.87-1.2-.87-1.24-.89,1.24.89,1.2ZM60.25,48.23l-2.56-3.48,2.56-3.48,2.52,3.48-2.52,3.48ZM59.72,38.67l-.89,1.22-.9-1.22h1.79ZM59.72,50.84h-1.79l.9-1.22.89,1.22ZM60.23,41.05l.87-1.2-.87-1.24-.89,1.24.89,1.2ZM60.23,50.79l.87-1.2-.87-1.24-.89,1.24.89,1.2ZM60.73,38.67h1.79l-.9,1.22-.89-1.22ZM60.73,50.84l.89-1.22.9,1.22h-1.79ZM63.78,45.92l.87-1.2-.87-1.24-.89,1.24.89,1.2Z"/>
        </g>
        <g>
          <path class="cls-1" d="M72.63,7.31l.87-1.2-.87-1.24-.89,1.24.89,1.2ZM76.18,9.62l-2.56-3.48,2.56-3.48,2.52,3.48-2.52,3.48ZM75.65.05l-.89,1.22-.9-1.22h1.79ZM75.65,12.23h-1.79l.9-1.22.89,1.22ZM76.16,2.44l.87-1.2-.87-1.24-.89,1.24.89,1.2ZM76.16,12.18l.87-1.2-.87-1.24-.89,1.24.89,1.2ZM76.66.05h1.79l-.9,1.22-.89-1.22ZM76.66,12.23l.89-1.22.9,1.22h-1.79ZM79.71,7.31l.87-1.2-.87-1.24-.89,1.24.89,1.2Z"/>
          <path class="cls-1" d="M72.63,20.18l.87-1.2-.87-1.24-.89,1.24.89,1.2ZM76.18,22.49l-2.56-3.48,2.56-3.48,2.52,3.48-2.52,3.48ZM75.65,12.92l-.89,1.22-.9-1.22h1.79ZM75.65,25.1h-1.79l.9-1.22.89,1.22ZM76.16,15.31l.87-1.2-.87-1.24-.89,1.24.89,1.2ZM76.16,25.05l.87-1.2-.87-1.24-.89,1.24.89,1.2ZM76.66,12.92h1.79l-.9,1.22-.89-1.22ZM76.66,25.1l.89-1.22.9,1.22h-1.79ZM79.71,20.18l.87-1.2-.87-1.24-.89,1.24.89,1.2Z"/>
          <path class="cls-1" d="M72.63,33.05l.87-1.2-.87-1.24-.89,1.24.89,1.2ZM76.18,35.36l-2.56-3.48,2.56-3.48,2.52,3.48-2.52,3.48ZM75.65,25.79l-.89,1.22-.9-1.22h1.79ZM75.65,37.97h-1.79l.9-1.22.89,1.22ZM76.16,28.18l.87-1.2-.87-1.24-.89,1.24.89,1.2ZM76.16,37.92l.87-1.2-.87-1.24-.89,1.24.89,1.2ZM76.66,25.79h1.79l-.9,1.22-.89-1.22ZM76.66,37.97l.89-1.22.9,1.22h-1.79ZM79.71,33.05l.87-1.2-.87-1.24-.89,1.24.89,1.2Z"/>
          <path class="cls-1" d="M72.11,43.54l-.89,1.22-.9-1.22h1.79ZM72.11,45.97h-1.79l.9-1.22.89,1.22ZM72.63,45.92l.87-1.2-.87-1.24-.89,1.24.89,1.2ZM76.18,48.23l-2.56-3.48,2.56-3.48,2.52,3.48-2.52,3.48ZM75.65,38.67l-.89,1.22-.9-1.22h1.79ZM75.65,50.84h-1.79l.9-1.22.89,1.22ZM76.16,41.05l.87-1.2-.87-1.24-.89,1.24.89,1.2ZM76.16,50.79l.87-1.2-.87-1.24-.89,1.24.89,1.2ZM76.66,38.67h1.79l-.9,1.22-.89-1.22ZM76.66,50.84l.89-1.22.9,1.22h-1.79ZM79.71,45.92l.87-1.2-.87-1.24-.89,1.24.89,1.2ZM80.21,43.54h1.79l-.9,1.22-.89-1.22ZM80.21,45.97l.89-1.22.9,1.22h-1.79Z"/>
          <path class="cls-1" d="M82,43.54l-.89,1.22-.9-1.22h1.79ZM82,45.97h-1.79l.9-1.22.89,1.22ZM82.53,45.92l.87-1.2-.87-1.24-.89,1.24.89,1.2ZM86.08,48.23l-2.56-3.48,2.56-3.48,2.52,3.48-2.52,3.48ZM85.55,38.67l-.89,1.22-.9-1.22h1.79ZM85.55,50.84h-1.79l.9-1.22.89,1.22ZM86.06,41.05l.87-1.2-.87-1.24-.89,1.24.89,1.2ZM86.06,50.79l.87-1.2-.87-1.24-.89,1.24.89,1.2ZM86.56,38.67h1.79l-.9,1.22-.89-1.22ZM86.56,50.84l.89-1.22.9,1.22h-1.79ZM89.61,45.92l.87-1.2-.87-1.24-.89,1.24.89,1.2ZM90.11,43.54h1.79l-.9,1.22-.89-1.22ZM90.11,45.97l.89-1.22.9,1.22h-1.79Z"/>
          <path class="cls-1" d="M91.9,4.92l-.89,1.22-.9-1.22h1.79ZM95.97,9.62l-2.56-3.48,2.56-3.48,2.52,3.48-2.52,3.48ZM95.45.05l-.89,1.22-.9-1.22h1.79ZM95.45,12.23h-1.79l.9-1.22.89,1.22ZM95.96,2.44l.87-1.2-.87-1.24-.89,1.24.89,1.2ZM95.96,12.18l.87-1.2-.87-1.24-.89,1.24.89,1.2ZM96.46.05h1.79l-.9,1.22-.89-1.22ZM96.46,12.23l.89-1.22.9,1.22h-1.79ZM99.51,7.31l.87-1.2-.87-1.24-.89,1.24.89,1.2Z"/>
          <path class="cls-1" d="M92.43,20.18l.87-1.2-.87-1.24-.89,1.24.89,1.2ZM95.97,22.49l-2.56-3.48,2.56-3.48,2.52,3.48-2.52,3.48ZM95.45,12.92l-.89,1.22-.9-1.22h1.79ZM95.45,25.1h-1.79l.9-1.22.89,1.22ZM95.96,15.31l.87-1.2-.87-1.24-.89,1.24.89,1.2ZM95.96,25.05l.87-1.2-.87-1.24-.89,1.24.89,1.2ZM96.46,12.92h1.79l-.9,1.22-.89-1.22ZM96.46,25.1l.89-1.22.9,1.22h-1.79ZM99.51,20.18l.87-1.2-.87-1.24-.89,1.24.89,1.2Z"/>
          <path class="cls-1" d="M92.43,33.05l.87-1.2-.87-1.24-.89,1.24.89,1.2ZM95.97,35.36l-2.56-3.48,2.56-3.48,2.52,3.48-2.52,3.48ZM95.45,25.79l-.89,1.22-.9-1.22h1.79ZM95.45,37.97h-1.79l.9-1.22.89,1.22ZM95.96,28.18l.87-1.2-.87-1.24-.89,1.24.89,1.2ZM95.96,37.92l.87-1.2-.87-1.24-.89,1.24.89,1.2ZM96.46,25.79h1.79l-.9,1.22-.89-1.22ZM96.46,37.97l.89-1.22.9,1.22h-1.79ZM99.51,33.05l.87-1.2-.87-1.24-.89,1.24.89,1.2Z"/>
          <path class="cls-1" d="M91.9,43.54l-.89,1.22-.9-1.22h1.79ZM91.9,45.97h-1.79l.9-1.22.89,1.22ZM92.43,45.92l.87-1.2-.87-1.24-.89,1.24.89,1.2ZM95.97,48.23l-2.56-3.48,2.56-3.48,2.52,3.48-2.52,3.48ZM95.45,38.67l-.89,1.22-.9-1.22h1.79ZM95.45,50.84h-1.79l.9-1.22.89,1.22ZM95.96,41.05l.87-1.2-.87-1.24-.89,1.24.89,1.2ZM95.96,50.79l.87-1.2-.87-1.24-.89,1.24.89,1.2ZM96.46,38.67h1.79l-.9,1.22-.89-1.22ZM96.46,50.84l.89-1.22.9,1.22h-1.79ZM99.51,45.92l.87-1.2-.87-1.24-.89,1.24.89,1.2ZM100.01,43.54h1.79l-.9,1.22-.89-1.22ZM100.01,45.97l.89-1.22.9,1.22h-1.79Z"/>
        </g>
        <g>
          <path class="cls-1" d="M1.79,4.92l-.89,1.22-.9-1.22h1.79ZM1.79,7.36H0l.9-1.22.89,1.22ZM2.31,7.31l.87-1.2-.87-1.24-.89,1.24.89,1.2ZM5.86,9.62l-2.56-3.48,2.56-3.48,2.52,3.48-2.52,3.48ZM5.34.05l-.89,1.22L3.55.05h1.79ZM5.34,12.23h-1.79l.9-1.22.89,1.22ZM5.85,2.44l.87-1.2-.87-1.24-.89,1.24.89,1.2ZM5.85,12.18l.87-1.2-.87-1.24-.89,1.24.89,1.2ZM6.35.05h1.79l-.9,1.22L6.35.05ZM6.35,12.23l.89-1.22.9,1.22h-1.79ZM9.39,7.31l.87-1.2-.87-1.24-.89,1.24.89,1.2ZM9.9,4.92h1.79l-.9,1.22-.89-1.22ZM9.9,7.36l.89-1.22.9,1.22h-1.79Z"/>
          <path class="cls-1" d="M16.32,13.75l.87-1.2-.87-1.24-.89,1.24.89,1.2ZM19.87,16.06l-2.56-3.48,2.56-3.48,2.52,3.48-2.52,3.48ZM19.85,8.88l.87-1.2-.87-1.24-.89,1.24.89,1.2ZM19.85,18.62l.87-1.2-.87-1.24-.89,1.24.89,1.2ZM23.4,13.75l.87-1.2-.87-1.24-.89,1.24.89,1.2Z"/>
          <polygon class="cls-1" points="7 26.65 7.87 25.45 7 24.21 6.11 25.45 7 26.65"/>
          <polygon class="cls-1" points="4.75 26.65 5.62 25.45 4.75 24.21 3.86 25.45 4.75 26.65"/>
          <polygon class="cls-1" points="16.31 26.65 17.18 25.45 16.31 24.21 15.42 25.45 16.31 26.65"/>
          <polygon class="cls-1" points="10.55 28.96 7.99 25.48 10.55 22 13.07 25.48 10.55 28.96"/>
          <polygon class="cls-1" points="10.53 21.78 11.4 20.58 10.53 19.34 9.64 20.58 10.53 21.78"/>
          <polygon class="cls-1" points="10.53 31.52 11.4 30.32 10.53 29.08 9.64 30.32 10.53 31.52"/>
          <polygon class="cls-1" points="14.08 26.65 14.95 25.45 14.08 24.21 13.19 25.45 14.08 26.65"/>
          <path class="cls-1" d="M21,7.31l.87-1.2-.87-1.24-.89,1.24.89,1.2ZM24.55,9.62l-2.56-3.48,2.56-3.48,2.52,3.48-2.52,3.48ZM24.02.05l-.89,1.22-.9-1.22h1.79ZM24.53,2.44l.87-1.2-.87-1.24-.89,1.24.89,1.2ZM24.53,12.18l.87-1.2-.87-1.24-.89,1.24.89,1.2ZM25.03.05h1.79l-.9,1.22-.89-1.22ZM28.08,7.31l.87-1.2-.87-1.24-.89,1.24.89,1.2Z"/>
          <path class="cls-1" d="M1.79,17.82l-.89,1.22-.9-1.22h1.79ZM1.79,20.26H0l.9-1.22.89,1.22ZM2.31,20.2l.87-1.2-.87-1.24-.89,1.24.89,1.2ZM5.86,22.52l-2.56-3.48,2.56-3.48,2.52,3.48-2.52,3.48ZM5.34,12.95l-.89,1.22-.9-1.22h1.79ZM5.85,15.33l.87-1.2-.87-1.24-.89,1.24.89,1.2ZM5.85,25.07l.87-1.2-.87-1.24-.89,1.24.89,1.2ZM6.35,12.95h1.79l-.9,1.22-.89-1.22ZM9.39,20.2l.87-1.2-.87-1.24-.89,1.24.89,1.2Z"/>
          <path class="cls-1" d="M11.66,20.2l.87-1.2-.87-1.24-.89,1.24.89,1.2ZM15.21,22.52l-2.56-3.48,2.56-3.48,2.52,3.48-2.52,3.48ZM15.19,15.33l.87-1.2-.87-1.24-.89,1.24.89,1.2ZM15.19,25.07l.87-1.2-.87-1.24-.89,1.24.89,1.2ZM18.74,20.2l.87-1.2-.87-1.24-.89,1.24.89,1.2Z"/>
          <path class="cls-1" d="M1.79,30.72l-.89,1.22-.9-1.22h1.79ZM1.79,33.15H0l.9-1.22.89,1.22ZM2.31,33.1l.87-1.2-.87-1.24-.89,1.24.89,1.2ZM5.86,35.41l-2.56-3.48,2.56-3.48,2.52,3.48-2.52,3.48ZM5.34,38.02h-1.79l.9-1.22.89,1.22ZM5.85,28.23l.87-1.2-.87-1.24-.89,1.24.89,1.2ZM5.85,37.97l.87-1.2-.87-1.24-.89,1.24.89,1.2ZM6.35,38.02l.89-1.22.9,1.22h-1.79ZM9.39,33.1l.87-1.2-.87-1.24-.89,1.24.89,1.2Z"/>
          <path class="cls-1" d="M11.66,33.1l.87-1.2-.87-1.24-.89,1.24.89,1.2ZM15.21,35.41l-2.56-3.48,2.56-3.48,2.52,3.48-2.52,3.48ZM15.19,28.23l.87-1.2-.87-1.24-.89,1.24.89,1.2ZM15.19,37.97l.87-1.2-.87-1.24-.89,1.24.89,1.2ZM18.74,33.1l.87-1.2-.87-1.24-.89,1.24.89,1.2Z"/>
          <path class="cls-1" d="M16.31,39.55l.87-1.2-.87-1.24-.89,1.24.89,1.2ZM19.86,41.86l-2.56-3.48,2.56-3.48,2.52,3.48-2.52,3.48ZM19.84,34.68l.87-1.2-.87-1.24-.89,1.24.89,1.2ZM19.84,44.42l.87-1.2-.87-1.24-.89,1.24.89,1.2ZM23.39,39.55l.87-1.2-.87-1.24-.89,1.24.89,1.2Z"/>
          <path class="cls-1" d="M1.79,43.63l-.89,1.22-.9-1.22h1.79ZM1.79,46.07H0l.9-1.22.89,1.22ZM2.31,46.02l.87-1.2-.87-1.24-.89,1.24.89,1.2ZM5.86,48.33l-2.56-3.48,2.56-3.48,2.52,3.48-2.52,3.48ZM5.34,38.76l-.89,1.22-.9-1.22h1.79ZM5.34,50.94h-1.79l.9-1.22.89,1.22ZM5.85,41.14l.87-1.2-.87-1.24-.89,1.24.89,1.2ZM5.85,50.89l.87-1.2-.87-1.24-.89,1.24.89,1.2ZM6.35,38.76h1.79l-.9,1.22-.89-1.22ZM6.35,50.94l.89-1.22.9,1.22h-1.79ZM9.39,46.02l.87-1.2-.87-1.24-.89,1.24.89,1.2ZM9.9,43.63h1.79l-.9,1.22-.89-1.22ZM9.9,46.07l.89-1.22.9,1.22h-1.79Z"/>
          <path class="cls-1" d="M21.01,46.02l.87-1.2-.87-1.24-.89,1.24.89,1.2ZM24.56,48.33l-2.56-3.48,2.56-3.48,2.52,3.48-2.52,3.48ZM24.04,50.94h-1.79l.9-1.22.89,1.22ZM24.55,41.14l.87-1.2-.87-1.24-.89,1.24.89,1.2ZM24.55,50.89l.87-1.2-.87-1.24-.89,1.24.89,1.2ZM25.05,50.94l.89-1.22.9,1.22h-1.79ZM28.09,46.02l.87-1.2-.87-1.24-.89,1.24.89,1.2Z"/>
        </g>
      </g>
    </g>
  </g>
</svg>