<?xml version="1.0" encoding="UTF-8"?>
<svg id="Layer_2" data-name="Layer 2" xmlns="http://www.w3.org/2000/svg" viewBox="0 0 334.39 40.75">
  <defs>
    <style>
      .cls-1 {
        fill: #fff;
      }
    </style>
  </defs>
  <g id="Contenido">
    <g>
      <g>
        <path class="cls-1" d="M35.21,4.9l.71.98h-1.44l.73-.98ZM34.49,3.92h1.44l-.71.98-.73-.98ZM43.14,4.9l.73.98h-1.44l.71-.98ZM42.43,3.92h1.44l-.73.98-.71-.98Z"/>
        <path class="cls-1" d="M35.21,25.54l.71.98h-1.44l.73-.98ZM34.49,24.56h1.44l-.71.98-.73-.98ZM43.14,25.54l.73.98h-1.44l.71-.98ZM42.43,24.56h1.44l-.73.98-.71-.98Z"/>
        <path class="cls-1" d="M45.28,10.34h1.44l-.71.98-.73-.98ZM47.52,10.34h1.44l-.73.98-.71-.98Z"/>
        <path class="cls-1" d="M45.28,20.66h1.44l-.71.98-.73-.98ZM47.52,20.66h1.44l-.73.98-.71-.98Z"/>
        <path class="cls-1" d="M45.28,30.98h1.44l-.71.98-.73-.98ZM47.52,30.98h1.44l-.73.98-.71-.98Z"/>
        <path class="cls-1" d="M35.6,4.98l.61-.89,2.7,3.66-.63.91-2.68-3.68ZM36.4,3.83l.57-.77,2.14,2.93-.57.74-2.14-2.91ZM37.14,2.8l.52-.67,1.41,1.97-.5.66-1.43-1.96ZM38.06,8.8l-.73.98h1.44l-.71-.98ZM37.82,1.87l1.37-1.87,1.34,1.89-1.36,1.89-1.36-1.9ZM39.26,5.98l2.14-2.93.57.77-2.14,2.91-.57-.74ZM39.3,4.08l1.41-1.97.52.67-1.43,1.96-.5-.66ZM39.46,7.73l2.7-3.66.61.89-2.68,3.68-.63-.91ZM41.02,9.78l-.73-.98-.71.98h1.44Z"/>
        <path class="cls-1" d="M43.55,4.98l.61-.89,2.7,3.66-.63.91-2.68-3.68ZM44.34,3.83l.57-.77,2.14,2.93-.57.74-2.14-2.91ZM45.08,2.8l.52-.67,1.41,1.97-.5.66-1.43-1.96ZM46.01,8.8l-.73.98h1.44l-.71-.98ZM45.77,1.87l1.37-1.87,1.34,1.89-1.36,1.89-1.36-1.9ZM47.21,5.98l2.14-2.93.57.77-2.14,2.91-.57-.74ZM47.25,4.08l1.41-1.97.52.67-1.43,1.96-.5-.66ZM47.4,7.73l2.7-3.66.61.89-2.68,3.68-.63-.91ZM48.97,9.78l-.73-.98-.71.98h1.44Z"/>
        <path class="cls-1" d="M43.55,15.3l.61-.89,2.7,3.66-.63.91-2.68-3.68ZM44.34,14.15l.57-.77,2.14,2.93-.57.74-2.14-2.91ZM45.08,13.12l.52-.67,1.41,1.97-.5.66-1.43-1.96ZM46.01,19.13l-.73.98h1.44l-.71-.98ZM45.77,12.19l1.37-1.87,1.34,1.89-1.36,1.89-1.36-1.9ZM47.21,16.3l2.14-2.93.57.77-2.14,2.91-.57-.74ZM47.25,14.4l1.41-1.97.52.67-1.43,1.96-.5-.66ZM47.4,18.05l2.7-3.66.61.89-2.68,3.68-.63-.91ZM48.97,20.1l-.73-.98-.71.98h1.44Z"/>
        <path class="cls-1" d="M35.6,25.62l.61-.89,2.7,3.66-.63.91-2.68-3.68ZM36.4,24.47l.57-.77,2.14,2.93-.57.74-2.14-2.91ZM37.14,23.44l.52-.67,1.41,1.97-.5.66-1.43-1.96ZM38.06,29.45l-.73.98h1.44l-.71-.98ZM37.82,22.52l1.37-1.87,1.34,1.89-1.36,1.89-1.36-1.9ZM39.26,26.62l2.14-2.93.57.77-2.14,2.91-.57-.74ZM39.3,24.72l1.41-1.97.52.67-1.43,1.96-.5-.66ZM39.46,28.37l2.7-3.66.61.89-2.68,3.68-.63-.91ZM41.02,30.43l-.73-.98-.71.98h1.44Z"/>
        <path class="cls-1" d="M43.55,25.62l.61-.89,2.7,3.66-.63.91-2.68-3.68ZM44.34,24.47l.57-.77,2.14,2.93-.57.74-2.14-2.91ZM45.08,23.44l.52-.67,1.41,1.97-.5.66-1.43-1.96ZM46.01,29.45l-.73.98h1.44l-.71-.98ZM45.77,22.52l1.37-1.87,1.34,1.89-1.36,1.89-1.36-1.9ZM47.21,26.62l2.14-2.93.57.77-2.14,2.91-.57-.74ZM47.25,24.72l1.41-1.97.52.67-1.43,1.96-.5-.66ZM47.4,28.37l2.7-3.66.61.89-2.68,3.68-.63-.91ZM48.97,30.43l-.73-.98-.71.98h1.44Z"/>
        <g>
          <path class="cls-1" d="M29.39,10.34h1.44l-.71.98-.73-.98ZM31.64,10.34h1.44l-.73.98-.71-.98Z"/>
          <path class="cls-1" d="M29.39,20.66h1.44l-.71.98-.73-.98ZM31.64,20.66h1.44l-.73.98-.71-.98Z"/>
          <path class="cls-1" d="M29.39,30.98h1.44l-.71.98-.73-.98ZM31.64,30.98h1.44l-.73.98-.71-.98Z"/>
          <path class="cls-1" d="M27.65,4.98l.61-.89,2.7,3.66-.63.91-2.68-3.68ZM28.45,3.83l.57-.77,2.14,2.93-.57.74-2.14-2.91ZM29.19,2.8l.52-.67,1.41,1.97-.5.66-1.43-1.96ZM30.11,8.8l-.73.98h1.44l-.71-.98ZM29.87,1.87l1.37-1.87,1.34,1.89-1.36,1.89-1.36-1.9ZM31.31,5.98l2.14-2.93.57.77-2.14,2.91-.57-.74ZM31.36,4.08l1.41-1.97.52.67-1.43,1.96-.5-.66ZM31.51,7.73l2.7-3.66.61.89-2.68,3.68-.63-.91ZM33.07,9.78l-.73-.98-.71.98h1.44Z"/>
          <path class="cls-1" d="M27.65,15.3l.61-.89,2.7,3.66-.63.91-2.68-3.68ZM28.45,14.15l.57-.77,2.14,2.93-.57.74-2.14-2.91ZM29.19,13.12l.52-.67,1.41,1.97-.5.66-1.43-1.96ZM30.11,19.13l-.73.98h1.44l-.71-.98ZM29.87,12.19l1.37-1.87,1.34,1.89-1.36,1.89-1.36-1.9ZM31.31,16.3l2.14-2.93.57.77-2.14,2.91-.57-.74ZM31.36,14.4l1.41-1.97.52.67-1.43,1.96-.5-.66ZM31.51,18.05l2.7-3.66.61.89-2.68,3.68-.63-.91ZM33.07,20.1l-.73-.98-.71.98h1.44Z"/>
          <path class="cls-1" d="M27.65,25.62l.61-.89,2.7,3.66-.63.91-2.68-3.68ZM28.45,24.47l.57-.77,2.14,2.93-.57.74-2.14-2.91ZM29.19,23.44l.52-.67,1.41,1.97-.5.66-1.43-1.96ZM30.11,29.45l-.73.98h1.44l-.71-.98ZM29.87,22.52l1.37-1.87,1.34,1.89-1.36,1.89-1.36-1.9ZM31.31,26.62l2.14-2.93.57.77-2.14,2.91-.57-.74ZM31.36,24.72l1.41-1.97.52.67-1.43,1.96-.5-.66ZM31.51,28.37l2.7-3.66.61.89-2.68,3.68-.63-.91ZM33.07,30.43l-.73-.98-.71.98h1.44Z"/>
          <path class="cls-1" d="M27.65,35.94l.61-.89,2.7,3.66-.63.91-2.68-3.68ZM28.45,34.79l.57-.77,2.14,2.93-.57.74-2.14-2.91ZM29.19,33.76l.52-.67,1.41,1.97-.5.66-1.43-1.96ZM30.11,39.77l-.73.98h1.44l-.71-.98ZM29.87,32.84l1.37-1.87,1.34,1.89-1.36,1.89-1.36-1.9ZM31.31,36.95l2.14-2.93.57.77-2.14,2.91-.57-.74ZM31.36,35.05l1.41-1.97.52.67-1.43,1.96-.5-.66ZM31.51,38.69l2.7-3.66.61.89-2.68,3.68-.63-.91ZM33.07,40.75l-.73-.98-.71.98h1.44Z"/>
        </g>
        <g>
          <path class="cls-1" d="M10.1,9.08h1.44l-.71.98-.73-.98Z"/>
          <path class="cls-1" d="M6.6,13.92h1.44l-.71.98-.73-.98Z"/>
          <path class="cls-1" d="M13.85,3.92h1.44l-.71.98-.73-.98Z"/>
          <path class="cls-1" d="M15.19,25.81h1.44l-.73.98-.71-.98Z"/>
          <path class="cls-1" d="M7.33,25.85l.71.98h-1.44l.73-.98ZM11.46,20.65h1.44l-.73.98-.71-.98Z"/>
          <path class="cls-1" d="M18.94,30.96h1.44l-.73.98-.71-.98Z"/>
          <path class="cls-1" d="M14.95,4.98l.61-.89,2.7,3.66-.63.91-2.68-3.68ZM15.75,3.83l.57-.77,2.14,2.93-.57.74-2.14-2.91ZM16.49,2.8l.52-.67,1.41,1.97-.5.66-1.43-1.96ZM17.18,1.87L18.54,0l1.34,1.89-1.36,1.89-1.36-1.9ZM18.61,5.98l2.14-2.93.57.77-2.14,2.91-.57-.74ZM18.66,4.08l1.41-1.97.52.67-1.43,1.96-.5-.66ZM18.81,7.73l2.7-3.66.61.89-2.68,3.68-.63-.91ZM20.38,9.78l-.73-.98-.71.98h1.44Z"/>
          <path class="cls-1" d="M11.2,10.13l.61-.89,2.7,3.66-.63.91-2.68-3.68ZM12,8.99l.57-.77,2.14,2.93-.57.74-2.14-2.91ZM12.74,7.95l.52-.67,1.41,1.97-.5.66-1.43-1.96ZM13.42,7.03l1.37-1.87,1.34,1.89-1.36,1.89-1.36-1.9ZM14.86,11.14l2.14-2.93.57.77-2.14,2.91-.57-.74ZM14.91,9.24l1.41-1.97.52.67-1.43,1.96-.5-.66ZM15.06,12.89l2.7-3.66.61.89-2.68,3.68-.63-.91ZM16.62,14.94l-.73-.98-.71.98h1.44Z"/>
          <path class="cls-1" d="M7.48,15.29l.61-.89,2.7,3.66-.63.91-2.68-3.68ZM8.28,14.15l.57-.77,2.14,2.93-.57.74-2.14-2.91ZM9.02,13.11l.52-.67,1.41,1.97-.5.66-1.43-1.96ZM9.7,12.19l1.37-1.87,1.34,1.89-1.36,1.89-1.36-1.9ZM11.14,16.3l2.14-2.93.57.77-2.14,2.91-.57-.74ZM11.18,14.4l1.41-1.97.52.67-1.43,1.96-.5-.66ZM11.34,18.05l2.7-3.66.61.89-2.68,3.68-.63-.91ZM12.9,20.1l-.73-.98-.71.98h1.44Z"/>
          <path class="cls-1" d="M3.75,20.46l.61-.89,2.7,3.66-.63.91-2.68-3.68ZM4.54,19.31l.57-.77,2.14,2.93-.57.74-2.14-2.91ZM5.28,18.28l.52-.67,1.41,1.97-.5.66-1.43-1.96ZM5.97,17.36l1.37-1.87,1.34,1.89-1.36,1.89-1.36-1.9ZM7.41,21.46l2.14-2.93.57.77-2.14,2.91-.57-.74ZM7.45,19.56l1.41-1.97.52.67-1.43,1.96-.5-.66ZM7.6,23.21l2.7-3.66.61.89-2.68,3.68-.63-.91Z"/>
          <path class="cls-1" d="M7.48,25.62l.61-.89,2.7,3.66-.63.91-2.68-3.68ZM8.28,24.48l.57-.77,2.14,2.93-.57.74-2.14-2.91ZM9.02,23.44l.52-.67,1.41,1.97-.5.66-1.43-1.96ZM9.94,29.45l-.73.98h1.44l-.71-.98ZM9.7,22.52l1.37-1.87,1.34,1.89-1.36,1.89-1.36-1.9ZM11.14,26.63l2.14-2.93.57.77-2.14,2.91-.57-.74ZM11.18,24.73l1.41-1.97.52.67-1.43,1.96-.5-.66ZM11.34,28.38l2.7-3.66.61.89-2.68,3.68-.63-.91Z"/>
          <path class="cls-1" d="M11.21,30.77l.61-.89,2.7,3.66-.63.91-2.68-3.68ZM12.01,29.63l.57-.77,2.14,2.93-.57.74-2.14-2.91ZM12.75,28.59l.52-.67,1.41,1.97-.5.66-1.43-1.96ZM13.67,34.6l-.73.98h1.44l-.71-.98ZM13.43,27.67l1.37-1.87,1.34,1.89-1.36,1.89-1.36-1.9ZM14.87,31.78l2.14-2.93.57.77-2.14,2.91-.57-.74ZM14.91,29.88l1.41-1.97.52.67-1.43,1.96-.5-.66ZM15.07,33.53l2.7-3.66.61.89-2.68,3.68-.63-.91Z"/>
          <path class="cls-1" d="M14.96,35.95l.61-.89,2.7,3.66-.63.91-2.68-3.68ZM15.76,34.8l.57-.77,2.14,2.93-.57.74-2.14-2.91ZM16.5,33.77l.52-.67,1.41,1.97-.5.66-1.43-1.96ZM17.42,39.78l-.73.98h1.44l-.71-.98ZM17.18,32.84l1.37-1.87,1.34,1.89-1.36,1.89-1.36-1.9ZM18.62,36.95l2.14-2.93.57.77-2.14,2.91-.57-.74ZM18.66,35.05l1.41-1.97.52.67-1.43,1.96-.5-.66ZM18.82,38.7l2.7-3.66.61.89-2.68,3.68-.63-.91ZM20.38,40.75l-.73-.98-.71.98h1.44Z"/>
          <g>
            <path class="cls-1" d="M1.74,10.34h1.44l-.71.98-.73-.98ZM3.99,10.34h1.44l-.73.98-.71-.98Z"/>
            <path class="cls-1" d="M1.74,20.66h1.44l-.71.98-.73-.98Z"/>
            <path class="cls-1" d="M1.74,30.98h1.44l-.71.98-.73-.98ZM3.99,30.98h1.44l-.73.98-.71-.98Z"/>
            <path class="cls-1" d="M0,4.98l.61-.89,2.7,3.66-.63.91L0,4.98ZM.8,3.83l.57-.77,2.14,2.93-.57.74L.8,3.83ZM1.54,2.8l.52-.67,1.41,1.97-.5.66-1.43-1.96ZM2.46,8.8l-.73.98h1.44l-.71-.98ZM2.22,1.87l1.37-1.87,1.34,1.89-1.36,1.89-1.36-1.9ZM3.66,5.98l2.14-2.93.57.77-2.14,2.91-.57-.74ZM3.7,4.08l1.41-1.97.52.67-1.43,1.96-.5-.66ZM3.86,7.73l2.7-3.66.61.89-2.68,3.68-.63-.91ZM5.42,9.78l-.73-.98-.71.98h1.44Z"/>
            <path class="cls-1" d="M0,15.3l.61-.89,2.7,3.66-.63.91-2.68-3.68ZM.8,14.15l.57-.77,2.14,2.93-.57.74-2.14-2.91ZM1.54,13.12l.52-.67,1.41,1.97-.5.66-1.43-1.96ZM2.46,19.13l-.73.98h1.44l-.71-.98ZM2.22,12.19l1.37-1.87,1.34,1.89-1.36,1.89-1.36-1.9ZM3.66,16.3l2.14-2.93.57.77-2.14,2.91-.57-.74ZM3.7,14.4l1.41-1.97.52.67-1.43,1.96-.5-.66ZM3.86,18.05l2.7-3.66.61.89-2.68,3.68-.63-.91Z"/>
            <path class="cls-1" d="M0,25.62l.61-.89,2.7,3.66-.63.91-2.68-3.68ZM.8,24.47l.57-.77,2.14,2.93-.57.74-2.14-2.91ZM1.54,23.44l.52-.67,1.41,1.97-.5.66-1.43-1.96ZM2.46,29.45l-.73.98h1.44l-.71-.98ZM2.22,22.52l1.37-1.87,1.34,1.89-1.36,1.89-1.36-1.9ZM3.66,26.62l2.14-2.93.57.77-2.14,2.91-.57-.74ZM3.7,24.72l1.41-1.97.52.67-1.43,1.96-.5-.66ZM3.86,28.37l2.7-3.66.61.89-2.68,3.68-.63-.91ZM5.42,30.43l-.73-.98-.71.98h1.44Z"/>
            <path class="cls-1" d="M0,35.94l.61-.89,2.7,3.66-.63.91-2.68-3.68ZM.8,34.79l.57-.77,2.14,2.93-.57.74-2.14-2.91ZM1.54,33.76l.52-.67,1.41,1.97-.5.66-1.43-1.96ZM2.46,39.77l-.73.98h1.44l-.71-.98ZM2.22,32.84l1.37-1.87,1.34,1.89-1.36,1.89-1.36-1.9ZM3.66,36.95l2.14-2.93.57.77-2.14,2.91-.57-.74ZM3.7,35.05l1.41-1.97.52.67-1.43,1.96-.5-.66ZM3.86,38.69l2.7-3.66.61.89-2.68,3.68-.63-.91ZM5.42,40.75l-.73-.98-.71.98h1.44Z"/>
          </g>
        </g>
        <g>
          <path class="cls-1" d="M94.92,9.08h1.44l-.71.98-.73-.98Z"/>
          <path class="cls-1" d="M91.42,13.92h1.44l-.71.98-.73-.98Z"/>
          <path class="cls-1" d="M98.67,3.92h1.44l-.71.98-.73-.98Z"/>
          <path class="cls-1" d="M100.01,25.81h1.44l-.73.98-.71-.98Z"/>
          <path class="cls-1" d="M92.15,25.85l.71.98h-1.44l.73-.98ZM96.28,20.65h1.44l-.73.98-.71-.98Z"/>
          <path class="cls-1" d="M103.76,30.96h1.44l-.73.98-.71-.98Z"/>
          <path class="cls-1" d="M99.77,4.98l.61-.89,2.7,3.66-.63.91-2.68-3.68ZM100.57,3.83l.57-.77,2.14,2.93-.57.74-2.14-2.91ZM101.31,2.8l.52-.67,1.41,1.97-.5.66-1.43-1.96ZM102,1.87L103.36,0l1.34,1.89-1.36,1.89-1.36-1.9ZM103.43,5.98l2.14-2.93.57.77-2.14,2.91-.57-.74ZM103.48,4.08l1.41-1.97.52.67-1.43,1.96-.5-.66ZM103.63,7.73l2.7-3.66.61.89-2.68,3.68-.63-.91ZM105.2,9.78l-.73-.98-.71.98h1.44Z"/>
          <path class="cls-1" d="M96.02,10.13l.61-.89,2.7,3.66-.63.91-2.68-3.68ZM96.82,8.99l.57-.77,2.14,2.93-.57.74-2.14-2.91ZM97.56,7.95l.52-.67,1.41,1.97-.5.66-1.43-1.96ZM98.24,7.03l1.37-1.87,1.34,1.89-1.36,1.89-1.36-1.9ZM99.68,11.14l2.14-2.93.57.77-2.14,2.91-.57-.74ZM99.73,9.24l1.41-1.97.52.67-1.43,1.96-.5-.66ZM99.88,12.89l2.7-3.66.61.89-2.68,3.68-.63-.91ZM101.44,14.94l-.73-.98-.71.98h1.44Z"/>
          <path class="cls-1" d="M92.3,15.29l.61-.89,2.7,3.66-.63.91-2.68-3.68ZM93.1,14.15l.57-.77,2.14,2.93-.57.74-2.14-2.91ZM93.84,13.11l.52-.67,1.41,1.97-.5.66-1.43-1.96ZM94.52,12.19l1.37-1.87,1.34,1.89-1.36,1.89-1.36-1.9ZM95.96,16.3l2.14-2.93.57.77-2.14,2.91-.57-.74ZM96,14.4l1.41-1.97.52.67-1.43,1.96-.5-.66ZM96.16,18.05l2.7-3.66.61.89-2.68,3.68-.63-.91ZM97.72,20.1l-.73-.98-.71.98h1.44Z"/>
          <path class="cls-1" d="M88.57,20.46l.61-.89,2.7,3.66-.63.91-2.68-3.68ZM89.36,19.31l.57-.77,2.14,2.93-.57.74-2.14-2.91ZM90.1,18.28l.52-.67,1.41,1.97-.5.66-1.43-1.96ZM90.79,17.36l1.37-1.87,1.34,1.89-1.36,1.89-1.36-1.9ZM92.23,21.46l2.14-2.93.57.77-2.14,2.91-.57-.74ZM92.27,19.56l1.41-1.97.52.67-1.43,1.96-.5-.66ZM92.42,23.21l2.7-3.66.61.89-2.68,3.68-.63-.91Z"/>
          <path class="cls-1" d="M92.3,25.62l.61-.89,2.7,3.66-.63.91-2.68-3.68ZM93.1,24.48l.57-.77,2.14,2.93-.57.74-2.14-2.91ZM93.84,23.44l.52-.67,1.41,1.97-.5.66-1.43-1.96ZM94.76,29.45l-.73.98h1.44l-.71-.98ZM94.52,22.52l1.37-1.87,1.34,1.89-1.36,1.89-1.36-1.9ZM95.96,26.63l2.14-2.93.57.77-2.14,2.91-.57-.74ZM96,24.73l1.41-1.97.52.67-1.43,1.96-.5-.66ZM96.16,28.38l2.7-3.66.61.89-2.68,3.68-.63-.91Z"/>
          <path class="cls-1" d="M96.03,30.77l.61-.89,2.7,3.66-.63.91-2.68-3.68ZM96.83,29.63l.57-.77,2.14,2.93-.57.74-2.14-2.91ZM97.57,28.59l.52-.67,1.41,1.97-.5.66-1.43-1.96ZM98.49,34.6l-.73.98h1.44l-.71-.98ZM98.25,27.67l1.37-1.87,1.34,1.89-1.36,1.89-1.36-1.9ZM99.69,31.78l2.14-2.93.57.77-2.14,2.91-.57-.74ZM99.73,29.88l1.41-1.97.52.67-1.43,1.96-.5-.66ZM99.89,33.53l2.7-3.66.61.89-2.68,3.68-.63-.91Z"/>
          <path class="cls-1" d="M99.78,35.95l.61-.89,2.7,3.66-.63.91-2.68-3.68ZM100.58,34.8l.57-.77,2.14,2.93-.57.74-2.14-2.91ZM101.32,33.77l.52-.67,1.41,1.97-.5.66-1.43-1.96ZM102.24,39.78l-.73.98h1.44l-.71-.98ZM102,32.84l1.37-1.87,1.34,1.89-1.36,1.89-1.36-1.9ZM103.44,36.95l2.14-2.93.57.77-2.14,2.91-.57-.74ZM103.48,35.05l1.41-1.97.52.67-1.43,1.96-.5-.66ZM103.64,38.7l2.7-3.66.61.89-2.68,3.68-.63-.91ZM105.2,40.75l-.73-.98-.71.98h1.44Z"/>
          <g>
            <path class="cls-1" d="M86.56,10.34h1.44l-.71.98-.73-.98ZM88.81,10.34h1.44l-.73.98-.71-.98Z"/>
            <path class="cls-1" d="M86.56,20.66h1.44l-.71.98-.73-.98Z"/>
            <path class="cls-1" d="M86.56,30.98h1.44l-.71.98-.73-.98ZM88.81,30.98h1.44l-.73.98-.71-.98Z"/>
            <path class="cls-1" d="M84.82,4.98l.61-.89,2.7,3.66-.63.91-2.68-3.68ZM85.62,3.83l.57-.77,2.14,2.93-.57.74-2.14-2.91ZM86.36,2.8l.52-.67,1.41,1.97-.5.66-1.43-1.96ZM87.28,8.8l-.73.98h1.44l-.71-.98ZM87.04,1.87l1.37-1.87,1.34,1.89-1.36,1.89-1.36-1.9ZM88.48,5.98l2.14-2.93.57.77-2.14,2.91-.57-.74ZM88.52,4.08l1.41-1.97.52.67-1.43,1.96-.5-.66ZM88.68,7.73l2.7-3.66.61.89-2.68,3.68-.63-.91ZM90.24,9.78l-.73-.98-.71.98h1.44Z"/>
            <path class="cls-1" d="M84.82,15.3l.61-.89,2.7,3.66-.63.91-2.68-3.68ZM85.62,14.15l.57-.77,2.14,2.93-.57.74-2.14-2.91ZM86.36,13.12l.52-.67,1.41,1.97-.5.66-1.43-1.96ZM87.28,19.13l-.73.98h1.44l-.71-.98ZM87.04,12.19l1.37-1.87,1.34,1.89-1.36,1.89-1.36-1.9ZM88.48,16.3l2.14-2.93.57.77-2.14,2.91-.57-.74ZM88.52,14.4l1.41-1.97.52.67-1.43,1.96-.5-.66ZM88.68,18.05l2.7-3.66.61.89-2.68,3.68-.63-.91Z"/>
            <path class="cls-1" d="M84.82,25.62l.61-.89,2.7,3.66-.63.91-2.68-3.68ZM85.62,24.47l.57-.77,2.14,2.93-.57.74-2.14-2.91ZM86.36,23.44l.52-.67,1.41,1.97-.5.66-1.43-1.96ZM87.28,29.45l-.73.98h1.44l-.71-.98ZM87.04,22.52l1.37-1.87,1.34,1.89-1.36,1.89-1.36-1.9ZM88.48,26.62l2.14-2.93.57.77-2.14,2.91-.57-.74ZM88.52,24.72l1.41-1.97.52.67-1.43,1.96-.5-.66ZM88.68,28.37l2.7-3.66.61.89-2.68,3.68-.63-.91ZM90.24,30.43l-.73-.98-.71.98h1.44Z"/>
            <path class="cls-1" d="M84.82,35.94l.61-.89,2.7,3.66-.63.91-2.68-3.68ZM85.62,34.79l.57-.77,2.14,2.93-.57.74-2.14-2.91ZM86.36,33.76l.52-.67,1.41,1.97-.5.66-1.43-1.96ZM87.28,39.77l-.73.98h1.44l-.71-.98ZM87.04,32.84l1.37-1.87,1.34,1.89-1.36,1.89-1.36-1.9ZM88.48,36.95l2.14-2.93.57.77-2.14,2.91-.57-.74ZM88.52,35.05l1.41-1.97.52.67-1.43,1.96-.5-.66ZM88.68,38.69l2.7-3.66.61.89-2.68,3.68-.63-.91ZM90.24,40.75l-.73-.98-.71.98h1.44Z"/>
          </g>
        </g>
        <path class="cls-1" d="M43.55,35.94l.61-.89,2.7,3.66-.63.91-2.68-3.68ZM44.34,34.79l.57-.77,2.14,2.93-.57.74-2.14-2.91ZM45.08,33.76l.52-.67,1.41,1.97-.5.66-1.43-1.96ZM46.01,39.77l-.73.98h1.44l-.71-.98ZM45.77,32.84l1.37-1.87,1.34,1.89-1.36,1.89-1.36-1.9ZM47.21,36.95l2.14-2.93.57.77-2.14,2.91-.57-.74ZM47.25,35.05l1.41-1.97.52.67-1.43,1.96-.5-.66ZM47.4,38.69l2.7-3.66.61.89-2.68,3.68-.63-.91ZM48.97,40.75l-.73-.98-.71.98h1.44Z"/>
        <g>
          <path class="cls-1" d="M114.21,10.34h1.44l-.71.98-.73-.98ZM116.45,10.34h1.44l-.73.98-.71-.98Z"/>
          <path class="cls-1" d="M114.21,20.66h1.44l-.71.98-.73-.98ZM116.45,20.66h1.44l-.73.98-.71-.98Z"/>
          <path class="cls-1" d="M114.21,30.98h1.44l-.71.98-.73-.98ZM116.45,30.98h1.44l-.73.98-.71-.98Z"/>
          <path class="cls-1" d="M120.03,4.9l.71.98h-1.44l.73-.98ZM119.3,3.92h1.44l-.71.98-.73-.98ZM127.95,4.9l.73.98h-1.44l.71-.98ZM127.24,3.92h1.44l-.73.98-.71-.98Z"/>
          <path class="cls-1" d="M120.03,25.54l.71.98h-1.44l.73-.98ZM119.3,24.56h1.44l-.71.98-.73-.98ZM127.95,25.54l.73.98h-1.44l.71-.98ZM127.24,24.56h1.44l-.73.98-.71-.98Z"/>
          <path class="cls-1" d="M130.09,10.34h1.44l-.71.98-.73-.98ZM132.33,10.34h1.44l-.73.98-.71-.98Z"/>
          <path class="cls-1" d="M130.09,20.66h1.44l-.71.98-.73-.98ZM132.33,20.66h1.44l-.73.98-.71-.98Z"/>
          <path class="cls-1" d="M130.09,30.98h1.44l-.71.98-.73-.98ZM132.33,30.98h1.44l-.73.98-.71-.98Z"/>
          <g>
            <path class="cls-1" d="M112.46,4.98l.61-.89,2.7,3.66-.63.91-2.68-3.68ZM113.26,3.83l.57-.77,2.14,2.93-.57.74-2.14-2.91ZM114,2.8l.52-.67,1.41,1.97-.5.66-1.43-1.96ZM114.92,8.8l-.73.98h1.44l-.71-.98ZM114.69,1.87l1.37-1.87,1.34,1.89-1.36,1.89-1.36-1.9ZM116.12,5.98l2.14-2.93.57.77-2.14,2.91-.57-.74ZM116.17,4.08l1.41-1.97.52.67-1.43,1.96-.5-.66ZM116.32,7.73l2.7-3.66.61.89-2.68,3.68-.63-.91ZM117.89,9.78l-.73-.98-.71.98h1.44Z"/>
            <path class="cls-1" d="M120.41,4.98l.61-.89,2.7,3.66-.63.91-2.68-3.68ZM121.21,3.83l.57-.77,2.14,2.93-.57.74-2.14-2.91ZM121.95,2.8l.52-.67,1.41,1.97-.5.66-1.43-1.96ZM122.87,8.8l-.73.98h1.44l-.71-.98ZM122.63,1.87l1.37-1.87,1.34,1.89-1.36,1.89-1.36-1.9ZM124.07,5.98l2.14-2.93.57.77-2.14,2.91-.57-.74ZM124.11,4.08l1.41-1.97.52.67-1.43,1.96-.5-.66ZM124.27,7.73l2.7-3.66.61.89-2.68,3.68-.63-.91ZM125.83,9.78l-.73-.98-.71.98h1.44Z"/>
            <path class="cls-1" d="M128.36,4.98l.61-.89,2.7,3.66-.63.91-2.68-3.68ZM129.16,3.83l.57-.77,2.14,2.93-.57.74-2.14-2.91ZM129.9,2.8l.52-.67,1.41,1.97-.5.66-1.43-1.96ZM130.82,8.8l-.73.98h1.44l-.71-.98ZM130.58,1.87l1.37-1.87,1.34,1.89-1.36,1.89-1.36-1.9ZM132.02,5.98l2.14-2.93.57.77-2.14,2.91-.57-.74ZM132.06,4.08l1.41-1.97.52.67-1.43,1.96-.5-.66ZM132.22,7.73l2.7-3.66.61.89-2.68,3.68-.63-.91ZM133.78,9.78l-.73-.98-.71.98h1.44Z"/>
          </g>
          <path class="cls-1" d="M112.46,15.3l.61-.89,2.7,3.66-.63.91-2.68-3.68ZM113.26,14.15l.57-.77,2.14,2.93-.57.74-2.14-2.91ZM114,13.12l.52-.67,1.41,1.97-.5.66-1.43-1.96ZM114.92,19.13l-.73.98h1.44l-.71-.98ZM114.69,12.19l1.37-1.87,1.34,1.89-1.36,1.89-1.36-1.9ZM116.12,16.3l2.14-2.93.57.77-2.14,2.91-.57-.74ZM116.17,14.4l1.41-1.97.52.67-1.43,1.96-.5-.66ZM116.32,18.05l2.7-3.66.61.89-2.68,3.68-.63-.91ZM117.89,20.1l-.73-.98-.71.98h1.44Z"/>
          <path class="cls-1" d="M128.36,15.3l.61-.89,2.7,3.66-.63.91-2.68-3.68ZM129.16,14.15l.57-.77,2.14,2.93-.57.74-2.14-2.91ZM129.9,13.12l.52-.67,1.41,1.97-.5.66-1.43-1.96ZM130.82,19.13l-.73.98h1.44l-.71-.98ZM130.58,12.19l1.37-1.87,1.34,1.89-1.36,1.89-1.36-1.9ZM132.02,16.3l2.14-2.93.57.77-2.14,2.91-.57-.74ZM132.06,14.4l1.41-1.97.52.67-1.43,1.96-.5-.66ZM132.22,18.05l2.7-3.66.61.89-2.68,3.68-.63-.91ZM133.78,20.1l-.73-.98-.71.98h1.44Z"/>
          <path class="cls-1" d="M112.46,25.62l.61-.89,2.7,3.66-.63.91-2.68-3.68ZM113.26,24.47l.57-.77,2.14,2.93-.57.74-2.14-2.91ZM114,23.44l.52-.67,1.41,1.97-.5.66-1.43-1.96ZM114.92,29.45l-.73.98h1.44l-.71-.98ZM114.69,22.52l1.37-1.87,1.34,1.89-1.36,1.89-1.36-1.9ZM116.12,26.62l2.14-2.93.57.77-2.14,2.91-.57-.74ZM116.17,24.72l1.41-1.97.52.67-1.43,1.96-.5-.66ZM116.32,28.37l2.7-3.66.61.89-2.68,3.68-.63-.91ZM117.89,30.43l-.73-.98-.71.98h1.44Z"/>
          <path class="cls-1" d="M120.41,25.62l.61-.89,2.7,3.66-.63.91-2.68-3.68ZM121.21,24.47l.57-.77,2.14,2.93-.57.74-2.14-2.91ZM121.95,23.44l.52-.67,1.41,1.97-.5.66-1.43-1.96ZM122.87,29.45l-.73.98h1.44l-.71-.98ZM122.63,22.52l1.37-1.87,1.34,1.89-1.36,1.89-1.36-1.9ZM124.07,26.62l2.14-2.93.57.77-2.14,2.91-.57-.74ZM124.11,24.72l1.41-1.97.52.67-1.43,1.96-.5-.66ZM124.27,28.37l2.7-3.66.61.89-2.68,3.68-.63-.91ZM125.83,30.43l-.73-.98-.71.98h1.44Z"/>
          <path class="cls-1" d="M128.36,25.62l.61-.89,2.7,3.66-.63.91-2.68-3.68ZM129.16,24.47l.57-.77,2.14,2.93-.57.74-2.14-2.91ZM129.9,23.44l.52-.67,1.41,1.97-.5.66-1.43-1.96ZM130.82,29.45l-.73.98h1.44l-.71-.98ZM130.58,22.52l1.37-1.87,1.34,1.89-1.36,1.89-1.36-1.9ZM132.02,26.62l2.14-2.93.57.77-2.14,2.91-.57-.74ZM132.06,24.72l1.41-1.97.52.67-1.43,1.96-.5-.66ZM132.22,28.37l2.7-3.66.61.89-2.68,3.68-.63-.91ZM133.78,30.43l-.73-.98-.71.98h1.44Z"/>
          <path class="cls-1" d="M112.46,35.94l.61-.89,2.7,3.66-.63.91-2.68-3.68ZM113.26,34.79l.57-.77,2.14,2.93-.57.74-2.14-2.91ZM114,33.76l.52-.67,1.41,1.97-.5.66-1.43-1.96ZM114.92,39.77l-.73.98h1.44l-.71-.98ZM114.69,32.84l1.37-1.87,1.34,1.89-1.36,1.89-1.36-1.9ZM116.12,36.95l2.14-2.93.57.77-2.14,2.91-.57-.74ZM116.17,35.05l1.41-1.97.52.67-1.43,1.96-.5-.66ZM116.32,38.69l2.7-3.66.61.89-2.68,3.68-.63-.91ZM117.89,40.75l-.73-.98-.71.98h1.44Z"/>
          <path class="cls-1" d="M128.36,35.94l.61-.89,2.7,3.66-.63.91-2.68-3.68ZM129.16,34.79l.57-.77,2.14,2.93-.57.74-2.14-2.91ZM129.9,33.76l.52-.67,1.41,1.97-.5.66-1.43-1.96ZM130.82,39.77l-.73.98h1.44l-.71-.98ZM130.58,32.84l1.37-1.87,1.34,1.89-1.36,1.89-1.36-1.9ZM132.02,36.95l2.14-2.93.57.77-2.14,2.91-.57-.74ZM132.06,35.05l1.41-1.97.52.67-1.43,1.96-.5-.66ZM132.22,38.69l2.7-3.66.61.89-2.68,3.68-.63-.91ZM133.78,40.75l-.73-.98-.71.98h1.44Z"/>
        </g>
        <g>
          <g>
            <path class="cls-1" d="M57.97,10.34h1.44l-.71.98-.73-.98ZM60.22,10.34h1.44l-.73.98-.71-.98Z"/>
            <path class="cls-1" d="M57.97,20.66h1.44l-.71.98-.73-.98ZM60.22,20.66h1.44l-.73.98-.71-.98Z"/>
            <path class="cls-1" d="M57.97,30.98h1.44l-.71.98-.73-.98ZM60.22,30.98h1.44l-.73.98-.71-.98ZM63.78,35.86l.73.98h-1.44l.71-.98ZM63.07,34.89h1.44l-.73.98-.71-.98Z"/>
            <path class="cls-1" d="M73.86,10.34h1.44l-.71.98-.73-.98ZM76.1,10.34h1.44l-.73.98-.71-.98Z"/>
            <path class="cls-1" d="M73.86,20.66h1.44l-.71.98-.73-.98ZM76.1,20.66h1.44l-.73.98-.71-.98Z"/>
            <path class="cls-1" d="M71.73,35.86l.71.98h-1.44l.73-.98ZM71.01,34.89h1.44l-.71.98-.73-.98ZM73.86,30.98h1.44l-.71.98-.73-.98ZM76.1,30.98h1.44l-.73.98-.71-.98Z"/>
          </g>
          <path class="cls-1" d="M56.23,4.98l.61-.89,2.7,3.66-.63.91-2.68-3.68ZM57.03,3.83l.57-.77,2.14,2.93-.57.74-2.14-2.91ZM57.77,2.8l.52-.67,1.41,1.97-.5.66-1.43-1.96ZM58.69,8.8l-.73.98h1.44l-.71-.98ZM58.45,1.87l1.37-1.87,1.34,1.89-1.36,1.89-1.36-1.9ZM59.89,5.98l2.14-2.93.57.77-2.14,2.91-.57-.74ZM59.94,4.08l1.41-1.97.52.67-1.43,1.96-.5-.66ZM60.09,7.73l2.7-3.66.61.89-2.68,3.68-.63-.91ZM61.65,9.78l-.73-.98-.71.98h1.44Z"/>
          <path class="cls-1" d="M72.13,4.98l.61-.89,2.7,3.66-.63.91-2.68-3.68ZM72.92,3.83l.57-.77,2.14,2.93-.57.74-2.14-2.91ZM73.66,2.8l.52-.67,1.41,1.97-.5.66-1.43-1.96ZM74.59,8.8l-.73.98h1.44l-.71-.98ZM74.35,1.87l1.37-1.87,1.34,1.89-1.36,1.89-1.36-1.9ZM75.79,5.98l2.14-2.93.57.77-2.14,2.91-.57-.74ZM75.83,4.08l1.41-1.97.52.67-1.43,1.96-.5-.66ZM75.98,7.73l2.7-3.66.61.89-2.68,3.68-.63-.91ZM77.55,9.78l-.73-.98-.71.98h1.44Z"/>
          <path class="cls-1" d="M56.23,15.3l.61-.89,2.7,3.66-.63.91-2.68-3.68ZM57.03,14.15l.57-.77,2.14,2.93-.57.74-2.14-2.91ZM57.77,13.12l.52-.67,1.41,1.97-.5.66-1.43-1.96ZM58.69,19.13l-.73.98h1.44l-.71-.98ZM58.45,12.19l1.37-1.87,1.34,1.89-1.36,1.89-1.36-1.9ZM59.89,16.3l2.14-2.93.57.77-2.14,2.91-.57-.74ZM59.94,14.4l1.41-1.97.52.67-1.43,1.96-.5-.66ZM60.09,18.05l2.7-3.66.61.89-2.68,3.68-.63-.91ZM61.65,20.1l-.73-.98-.71.98h1.44Z"/>
          <path class="cls-1" d="M72.13,15.3l.61-.89,2.7,3.66-.63.91-2.68-3.68ZM72.92,14.15l.57-.77,2.14,2.93-.57.74-2.14-2.91ZM73.66,13.12l.52-.67,1.41,1.97-.5.66-1.43-1.96ZM74.59,19.13l-.73.98h1.44l-.71-.98ZM74.35,12.19l1.37-1.87,1.34,1.89-1.36,1.89-1.36-1.9ZM75.79,16.3l2.14-2.93.57.77-2.14,2.91-.57-.74ZM75.83,14.4l1.41-1.97.52.67-1.43,1.96-.5-.66ZM75.98,18.05l2.7-3.66.61.89-2.68,3.68-.63-.91ZM77.55,20.1l-.73-.98-.71.98h1.44Z"/>
          <path class="cls-1" d="M56.23,25.62l.61-.89,2.7,3.66-.63.91-2.68-3.68ZM57.03,24.47l.57-.77,2.14,2.93-.57.74-2.14-2.91ZM57.77,23.44l.52-.67,1.41,1.97-.5.66-1.43-1.96ZM58.69,29.45l-.73.98h1.44l-.71-.98ZM58.45,22.52l1.37-1.87,1.34,1.89-1.36,1.89-1.36-1.9ZM59.89,26.62l2.14-2.93.57.77-2.14,2.91-.57-.74ZM59.94,24.72l1.41-1.97.52.67-1.43,1.96-.5-.66ZM60.09,28.37l2.7-3.66.61.89-2.68,3.68-.63-.91ZM61.65,30.43l-.73-.98-.71.98h1.44Z"/>
          <path class="cls-1" d="M72.13,25.62l.61-.89,2.7,3.66-.63.91-2.68-3.68ZM72.92,24.47l.57-.77,2.14,2.93-.57.74-2.14-2.91ZM73.66,23.44l.52-.67,1.41,1.97-.5.66-1.43-1.96ZM74.59,29.45l-.73.98h1.44l-.71-.98ZM74.35,22.52l1.37-1.87,1.34,1.89-1.36,1.89-1.36-1.9ZM75.79,26.62l2.14-2.93.57.77-2.14,2.91-.57-.74ZM75.83,24.72l1.41-1.97.52.67-1.43,1.96-.5-.66ZM75.98,28.37l2.7-3.66.61.89-2.68,3.68-.63-.91ZM77.55,30.43l-.73-.98-.71.98h1.44Z"/>
          <path class="cls-1" d="M56.23,35.94l.61-.89,2.7,3.66-.63.91-2.68-3.68ZM57.03,34.79l.57-.77,2.14,2.93-.57.74-2.14-2.91ZM57.77,33.76l.52-.67,1.41,1.97-.5.66-1.43-1.96ZM58.69,39.77l-.73.98h1.44l-.71-.98ZM58.45,32.84l1.37-1.87,1.34,1.89-1.36,1.89-1.36-1.9ZM59.89,36.95l2.14-2.93.57.77-2.14,2.91-.57-.74ZM59.94,35.05l1.41-1.97.52.67-1.43,1.96-.5-.66ZM60.09,38.69l2.7-3.66.61.89-2.68,3.68-.63-.91ZM61.65,40.75l-.73-.98-.71.98h1.44Z"/>
          <path class="cls-1" d="M64.18,35.94l.61-.89,2.7,3.66-.63.91-2.68-3.68ZM64.98,34.79l.57-.77,2.14,2.93-.57.74-2.14-2.91ZM65.72,33.76l.52-.67,1.41,1.97-.5.66-1.43-1.96ZM66.64,39.77l-.73.98h1.44l-.71-.98ZM66.4,32.84l1.37-1.87,1.34,1.89-1.36,1.89-1.36-1.9ZM67.84,36.95l2.14-2.93.57.77-2.14,2.91-.57-.74ZM67.88,35.05l1.41-1.97.52.67-1.43,1.96-.5-.66ZM68.04,38.69l2.7-3.66.61.89-2.68,3.68-.63-.91ZM69.6,40.75l-.73-.98-.71.98h1.44Z"/>
          <path class="cls-1" d="M72.13,35.94l.61-.89,2.7,3.66-.63.91-2.68-3.68ZM72.92,34.79l.57-.77,2.14,2.93-.57.74-2.14-2.91ZM73.66,33.76l.52-.67,1.41,1.97-.5.66-1.43-1.96ZM74.59,39.77l-.73.98h1.44l-.71-.98ZM74.35,32.84l1.37-1.87,1.34,1.89-1.36,1.89-1.36-1.9ZM75.79,36.95l2.14-2.93.57.77-2.14,2.91-.57-.74ZM75.83,35.05l1.41-1.97.52.67-1.43,1.96-.5-.66ZM75.98,38.69l2.7-3.66.61.89-2.68,3.68-.63-.91ZM77.55,40.75l-.73-.98-.71.98h1.44Z"/>
        </g>
      </g>
      <g>
        <g>
          <path class="cls-1" d="M146.23,27.8v-.76h-.75v-1.54h.75v-.75h2.27v-.74h-2.27v-.77h3.04v.75h.75v3.81h-3.8ZM148.51,25.52h-1.5v1.51h1.5v-1.51Z"/>
          <path class="cls-1" d="M155.64,27.04v.76h-2.28v-.77h1.51v-.75h-.75v-.75h-.75v-1.54h.75v-.75h2.29v.77h-1.52v.75h.75v.75h.76s0,1.53,0,1.53h-.76Z"/>
          <path class="cls-1" d="M160.47,27.8v-.76h-.75v-1.54h.75v-.75h2.27v-.74h-2.27v-.77h3.04v.75h.75v3.81h-3.8ZM162.74,25.52h-1.5v1.51h1.5v-1.51Z"/>
          <path class="cls-1" d="M173.65,27.8v-3.79h-.74v.75h-.76v3.04h-1.53v-3.79h-.75v.75h-.75v3.04h-1.53v-4.56h1.53v.75h.74v-.75h1.52v.75h1.5v-.75h1.52v.75h.76v3.81h-1.53Z"/>
          <path class="cls-1" d="M182.3,27.04v.76h-3.8v-6.08h1.53v1.52h2.27v.75h.75v3.04h-.75ZM181.53,24.01h-1.5v3.02h1.5v-3.02Z"/>
          <path class="cls-1" d="M186.38,27.8v-6.08h1.53v6.08h-1.53Z"/>
          <path class="cls-1" d="M195.02,27.04v.76h-3.04v-.76h-.75v-3.04h.75v-.75h3.04v.75h.75v.77h-.75v.75h-1.52v.75h-.75v.75h2.25v-.77h.77v.78h-.75ZM194.25,24.01h-1.5v1.49h.75v-.75h.75v-.75Z"/>
          <path class="cls-1" d="M199.86,27.8v-.76h-.75v-1.54h.75v-.75h2.27v-.74h-2.27v-.77h3.04v.75h.75v3.81h-3.8ZM202.13,25.52h-1.5v1.51h1.5v-1.51Z"/>
          <path class="cls-1" d="M211.82,27.8v-.76h-.75v-3.04h.75v-.75h2.27v-1.52h1.53v6.08h-3.8ZM214.1,24.01h-1.5v3.02h1.5v-3.02Z"/>
          <path class="cls-1" d="M222.75,27.04v.76h-3.04v-.76h-.75v-3.04h.75v-.75h3.04v.75h.75v.77h-.75v.75h-1.52v.75h-.75v.75h2.25v-.77h.77v.78h-.75ZM221.97,24.01h-1.5v1.49h.75v-.75h.75v-.75Z"/>
          <path class="cls-1" d="M236.97,27.8v-3.79h-.74v.75h-.76v3.04h-1.53v-3.79h-.75v.75h-.75v3.04h-1.53v-4.56h1.53v.75h.74v-.75h1.52v.75h1.5v-.75h1.52v.75h.76v3.81h-1.53Z"/>
          <path class="cls-1" d="M245.62,27.04v.76h-3.04v-.76h-.75v-3.8h1.53v3.79h1.5v-3.79h1.53v3.8h-.75Z"/>
          <path class="cls-1" d="M252.73,27.8v-3.79h-.75v.75h-.75v3.04h-1.53v-4.56h1.53v.75h.75v-.75h1.53v.75h.75v3.81h-1.53Z"/>
          <path class="cls-1" d="M258.33,27.8v-.76h-.75v-3.04h.75v-.75h2.27v-1.52h1.53v6.08h-3.8ZM260.6,24.01h-1.5v3.02h1.5v-3.02Z"/>
          <path class="cls-1" d="M269.26,27.04v.76h-3.04v-.76h-.75v-3.04h.75v-.75h3.04v.75h.75v3.04h-.75ZM268.48,24.01h-1.5v3.02h1.5v-3.02Z"/>
          <path class="cls-1" d="M275.62,27.04v.76h-2.28v-.77h1.51v-.75h-.75v-.75h-.75v-1.54h.75v-.75h2.29v.77h-1.52v.75h.75v.75h.76s0,1.53,0,1.53h-.76Z"/>
          <path class="cls-1" d="M287.58,27.04v.76h-2.27v1.52h-1.53v-6.08h3.8v.75h.75v3.04h-.75ZM286.81,24.01h-1.5v3.02h1.5v-3.02Z"/>
          <path class="cls-1" d="M295.46,27.04v.76h-3.04v-.76h-.75v-3.04h.75v-.75h3.04v.75h.75v3.04h-.75ZM294.69,24.01h-1.5v3.02h1.5v-3.02Z"/>
          <path class="cls-1" d="M301.82,27.04v.76h-2.28v-.77h1.51v-.75h-.75v-.75h-.75v-1.54h.75v-.75h2.29v.77h-1.52v.75h.75v.75h.76s0,1.53,0,1.53h-.76Z"/>
          <path class="cls-1" d="M305.9,22.49v-.77h1.53v.77h-1.53ZM305.9,27.8v-4.56h1.53v4.56h-1.53Z"/>
          <path class="cls-1" d="M314.55,27.04v.76h-3.8v-6.08h1.53v1.52h2.27v.75h.75v3.04h-.75ZM313.77,24.01h-1.5v3.02h1.5v-3.02Z"/>
          <path class="cls-1" d="M318.63,27.8v-6.08h1.53v6.08h-1.53Z"/>
          <path class="cls-1" d="M327.27,27.04v.76h-3.04v-.76h-.75v-3.04h.75v-.75h3.04v.75h.75v.77h-.75v.75h-1.52v.75h-.75v.75h2.25v-.77h.77v.78h-.75ZM326.5,24.01h-1.5v1.49h.75v-.75h.75v-.75Z"/>
          <path class="cls-1" d="M333.63,27.04v.76h-2.28v-.77h1.51v-.75h-.75v-.75h-.75v-1.54h.75v-.75h2.29v.77h-1.52v.75h.75v.75h.76s0,1.53,0,1.53h-.76Z"/>
        </g>
        <g>
          <path class="cls-1" d="M148.37,38.88v1.21h-1.22v-1.21h-1.82v-1.21h.6v-1.22h.62v1.23h-.6v.59h1.2v-3.03h1.22v3.03h.6v.62h-.6Z"/>
          <path class="cls-1" d="M153.45,37.06v1.21h-.61v1.82s-1.21,0-1.21,0v-1.83h.6v-1.21h.6v-1.2h-1.82v-.62h3.05v1.83h-.61Z"/>
          <path class="cls-1" d="M161.82,39.48v.61h-1.82v-.62h1.21v-.6h-.6v-.6h-.6v-1.23h.6v-.6h1.83v.62h-1.21v.6h.6v.6h.61s0,1.22,0,1.22h-.61Z"/>
          <path class="cls-1" d="M165.68,40.09v-.61h-.6v-1.23h.6v-.6h1.82v-.59h-1.82v-.62h2.44v.6h.6v3.05h-3.04ZM167.5,38.27h-1.2v1.21h1.2v-1.21Z"/>
          <path class="cls-1" d="M171.38,40.09v-4.86h1.22v4.86h-1.22Z"/>
          <path class="cls-1" d="M178.3,39.48v.61h-2.44v-.61h-.6v-2.44h.6v-.6h2.44v.6h.6v2.44h-.6ZM177.08,35.25v.6h-.62v-.62h.61v-.6h.62v.62h-.61ZM177.68,37.06h-1.2v2.41h1.2v-2.41Z"/>
          <path class="cls-1" d="M183.98,40.09v-3.03h-.6v.6h-.6v2.43h-1.22v-3.65h1.22v.6h.6v-.6h1.22v.6h.6v3.05h-1.22Z"/>
          <path class="cls-1" d="M193.56,40.09v-3.03h-.6v.6h-.6v2.43h-1.22v-3.65h1.22v.6h.6v-.6h1.22v.6h.6v3.05h-1.22Z"/>
          <path class="cls-1" d="M198.04,40.09v-.61h-.6v-1.23h.6v-.6h1.82v-.59h-1.82v-.62h2.44v.6h.6v3.05h-3.04ZM199.86,38.27h-1.2v1.21h1.2v-1.21Z"/>
          <path class="cls-1" d="M206.18,39.48v.61h-1.83v-.61h-.6v-2.44h.6v-.6h2.44v1.22h-.62v-.6h-1.2v2.41h1.2v-.62h.62v.63h-.6Z"/>
          <path class="cls-1" d="M209.43,35.85v-.62h1.22v.62h-1.22ZM209.43,40.09v-3.65h1.22v3.65h-1.22Z"/>
          <path class="cls-1" d="M216.35,39.48v.61h-2.44v-.61h-.6v-2.44h.6v-.6h2.44v.6h.6v2.44h-.6ZM215.73,37.06h-1.2v2.41h1.2v-2.41Z"/>
          <path class="cls-1" d="M222.03,40.09v-3.03h-.6v.6h-.6v2.43h-1.22v-3.65h1.22v.6h.6v-.6h1.22v.6h.6v3.05h-1.22Z"/>
          <path class="cls-1" d="M226.52,40.09v-.61h-.6v-1.23h.6v-.6h1.82v-.59h-1.82v-.62h2.44v.6h.6v3.05h-3.04ZM228.33,38.27h-1.2v1.21h1.2v-1.21Z"/>
          <path class="cls-1" d="M232.22,40.09v-4.86h1.22v4.86h-1.22Z"/>
          <path class="cls-1" d="M239.97,40.09v-.61h-.6v-2.44h.6v-.6h1.82v-1.21h1.22v4.86h-3.04ZM241.78,37.06h-1.2v2.41h1.2v-2.41Z"/>
          <path class="cls-1" d="M248.7,39.48v.61h-2.44v-.61h-.6v-2.44h.6v-.6h2.44v.6h.6v.62h-.6v.6h-1.21v.6h-.6v.6h1.8v-.62h.62v.63h-.6ZM248.09,37.06h-1.2v1.19h.6v-.6h.6v-.6Z"/>
          <path class="cls-1" d="M255.84,40.09v-.61h-.6v-1.23h.6v-.6h1.82v-.59h-1.82v-.62h2.44v.6h.6v3.05h-3.04ZM257.66,38.27h-1.2v1.21h1.2v-1.21Z"/>
          <path class="cls-1" d="M262.76,37.67v2.43h-1.22v-3.65h1.22v.6h.6v-.6h.62v1.22h-1.21Z"/>
          <path class="cls-1" d="M267.85,37.06v3.03h-1.22v-3.03h-.61v-.62h.61v-1.21h1.22v1.21h.6v.62h-.6Z"/>
          <path class="cls-1" d="M270.51,35.85v-.62h1.22v.62h-1.22ZM270.51,40.09v-3.65h1.22v3.65h-1.22Z"/>
          <path class="cls-1" d="M276.21,39.48v.61h-1.82v-.62h1.21v-.6h-.6v-.6h-.6v-1.23h.6v-.6h1.83v.62h-1.21v.6h.6v.6h.61s0,1.22,0,1.22h-.61Z"/>
          <path class="cls-1" d="M280.69,37.06v3.03h-1.22v-3.03h-.61v-.62h.61v-1.21h1.22v1.21h.6v.62h-.6Z"/>
          <path class="cls-1" d="M283.95,40.09v-.61h-.6v-1.23h.6v-.6h1.82v-.59h-1.82v-.62h2.44v.6h.6v3.05h-3.04ZM285.76,38.27h-1.2v1.21h1.2v-1.21Z"/>
          <path class="cls-1" d="M291.47,39.48v.61h-1.82v-.62h1.21v-.6h-.6v-.6h-.6v-1.23h.6v-.6h1.83v.62h-1.21v.6h.6v.6h.61s0,1.22,0,1.22h-.61Z"/>
        </g>
      </g>
    </g>
  </g>
</svg>