<?xml version="1.0" encoding="UTF-8"?>
<svg id="Layer_2" data-name="Layer 2" xmlns="http://www.w3.org/2000/svg" viewBox="0 0 418.05 50.27">
  <defs>
    <style>
      .cls-1 {
        fill: #fff;
      }
    </style>
  </defs>
  <g id="Contenido">
    <g>
      <g>
        <g>
          <path class="cls-1" d="M35.01,6.04l.88,1.21h-1.77l.9-1.21ZM34.12,4.84h1.77l-.88,1.21-.9-1.21ZM35.89,7.25l.88,1.21h-1.77l.9-1.21ZM35,3.63h1.77l-.88,1.21-.9-1.21ZM36.77,8.45l.88,1.21h-1.77l.9-1.21ZM35.87,2.43h1.77l-.88,1.21-.9-1.21ZM37.65,9.66l.88,1.21h-1.77l.9-1.21ZM36.75,1.22h1.77l-.88,1.21-.9-1.21ZM38.53,10.87l.88,1.21h-1.77l.9-1.21ZM37.63.02h1.77l-.88,1.21-.9-1.21ZM41.28,10.87l.9,1.21h-1.77l.88-1.21ZM40.4.02h1.77l-.9,1.21-.88-1.21ZM42.16,9.66l.9,1.21h-1.77l.88-1.21ZM41.28,1.22h1.77l-.9,1.21-.88-1.21ZM43.04,8.45l.9,1.21h-1.77l.88-1.21ZM42.16,2.43h1.77l-.9,1.21-.88-1.21ZM43.92,7.25l.9,1.21h-1.77l.88-1.21ZM43.04,3.63h1.77l-.9,1.21-.88-1.21ZM44.79,6.04l.9,1.21h-1.77l.88-1.21ZM43.92,4.84h1.77l-.9,1.21-.88-1.21Z"/>
          <path class="cls-1" d="M35.01,18.78l.88,1.21h-1.77l.9-1.21ZM34.12,17.57h1.77l-.88,1.21-.9-1.21ZM35.89,19.98l.88,1.21h-1.77l.9-1.21ZM35,16.37h1.77l-.88,1.21-.9-1.21ZM36.77,21.19l.88,1.21h-1.77l.9-1.21ZM35.87,15.16h1.77l-.88,1.21-.9-1.21ZM37.65,22.4l.88,1.21h-1.77l.9-1.21ZM36.75,13.96h1.77l-.88,1.21-.9-1.21ZM38.53,23.6l.88,1.21h-1.77l.9-1.21ZM37.63,12.75h1.77l-.88,1.21-.9-1.21ZM41.28,23.6l.9,1.21h-1.77l.88-1.21ZM40.4,12.75h1.77l-.9,1.21-.88-1.21ZM42.16,22.4l.9,1.21h-1.77l.88-1.21ZM41.28,13.96h1.77l-.9,1.21-.88-1.21ZM43.04,21.19l.9,1.21h-1.77l.88-1.21ZM42.16,15.16h1.77l-.9,1.21-.88-1.21ZM43.92,19.98l.9,1.21h-1.77l.88-1.21ZM43.04,16.37h1.77l-.9,1.21-.88-1.21ZM44.79,18.78l.9,1.21h-1.77l.88-1.21ZM43.92,17.57h1.77l-.9,1.21-.88-1.21Z"/>
          <path class="cls-1" d="M35.01,31.51l.88,1.21h-1.77l.9-1.21ZM34.12,30.31h1.77l-.88,1.21-.9-1.21ZM35.89,32.72l.88,1.21h-1.77l.9-1.21ZM35,29.1h1.77l-.88,1.21-.9-1.21ZM36.77,33.93l.88,1.21h-1.77l.9-1.21ZM35.87,27.9h1.77l-.88,1.21-.9-1.21ZM37.65,35.13l.88,1.21h-1.77l.9-1.21ZM36.75,26.69h1.77l-.88,1.21-.9-1.21ZM38.53,36.34l.88,1.21h-1.77l.9-1.21ZM37.63,25.49h1.77l-.88,1.21-.9-1.21ZM41.28,36.34l.9,1.21h-1.77l.88-1.21ZM40.4,25.49h1.77l-.9,1.21-.88-1.21ZM42.16,35.13l.9,1.21h-1.77l.88-1.21ZM41.28,26.69h1.77l-.9,1.21-.88-1.21ZM43.04,33.93l.9,1.21h-1.77l.88-1.21ZM42.16,27.9h1.77l-.9,1.21-.88-1.21ZM43.92,32.72l.9,1.21h-1.77l.88-1.21ZM43.04,29.1h1.77l-.9,1.21-.88-1.21ZM44.79,31.51l.9,1.21h-1.77l.88-1.21ZM43.92,30.31h1.77l-.9,1.21-.88-1.21Z"/>
          <path class="cls-1" d="M35.01,44.23l.88,1.21h-1.77l.9-1.21ZM34.12,43.03h1.77l-.88,1.21-.9-1.21ZM35.89,45.44l.88,1.21h-1.77l.9-1.21ZM35,41.82h1.77l-.88,1.21-.9-1.21ZM36.77,46.64l.88,1.21h-1.77l.9-1.21ZM35.87,40.62h1.77l-.88,1.21-.9-1.21ZM37.65,47.85l.88,1.21h-1.77l.9-1.21ZM36.75,39.41h1.77l-.88,1.21-.9-1.21ZM38.53,49.05l.88,1.21h-1.77l.9-1.21ZM37.63,38.21h1.77l-.88,1.21-.9-1.21ZM41.28,49.05l.9,1.21h-1.77l.88-1.21ZM40.4,38.21h1.77l-.9,1.21-.88-1.21ZM42.16,47.85l.9,1.21h-1.77l.88-1.21ZM41.28,39.41h1.77l-.9,1.21-.88-1.21ZM43.04,46.64l.9,1.21h-1.77l.88-1.21ZM42.16,40.62h1.77l-.9,1.21-.88-1.21ZM43.92,45.44l.9,1.21h-1.77l.88-1.21ZM43.04,41.82h1.77l-.9,1.21-.88-1.21ZM44.79,44.23l.9,1.21h-1.77l.88-1.21ZM43.92,43.03h1.77l-.9,1.21-.88-1.21Z"/>
          <path class="cls-1" d="M44.82,6.04l.88,1.21h-1.77l.9-1.21ZM43.92,4.84h1.77l-.88,1.21-.9-1.21ZM45.7,7.25l.88,1.21h-1.77l.9-1.21ZM44.8,3.63h1.77l-.88,1.21-.9-1.21ZM46.58,8.45l.88,1.21h-1.77l.9-1.21ZM45.68,2.43h1.77l-.88,1.21-.9-1.21ZM47.45,9.66l.88,1.21h-1.77l.9-1.21ZM46.56,1.22h1.77l-.88,1.21-.9-1.21ZM48.33,10.87l.88,1.21h-1.77l.9-1.21ZM47.44.02h1.77l-.88,1.21-.9-1.21ZM51.09,10.87l.9,1.21h-1.77l.88-1.21ZM50.21.02h1.77l-.9,1.21-.88-1.21ZM51.97,9.66l.9,1.21h-1.77l.88-1.21ZM51.09,1.22h1.77l-.9,1.21-.88-1.21ZM52.84,8.45l.9,1.21h-1.77l.88-1.21ZM51.97,2.43h1.77l-.9,1.21-.88-1.21ZM53.72,7.25l.9,1.21h-1.77l.88-1.21ZM52.84,3.63h1.77l-.9,1.21-.88-1.21ZM54.6,6.04l.9,1.21h-1.77l.88-1.21ZM53.72,4.84h1.77l-.9,1.21-.88-1.21Z"/>
          <path class="cls-1" d="M44.82,31.51l.88,1.21h-1.77l.9-1.21ZM43.92,30.31h1.77l-.88,1.21-.9-1.21ZM45.7,32.72l.88,1.21h-1.77l.9-1.21ZM44.8,29.1h1.77l-.88,1.21-.9-1.21ZM46.58,33.93l.88,1.21h-1.77l.9-1.21ZM45.68,27.9h1.77l-.88,1.21-.9-1.21ZM47.45,35.13l.88,1.21h-1.77l.9-1.21ZM46.56,26.69h1.77l-.88,1.21-.9-1.21ZM48.33,36.34l.88,1.21h-1.77l.9-1.21ZM47.44,25.49h1.77l-.88,1.21-.9-1.21ZM51.09,36.34l.9,1.21h-1.77l.88-1.21ZM50.21,25.49h1.77l-.9,1.21-.88-1.21ZM51.97,35.13l.9,1.21h-1.77l.88-1.21ZM51.09,26.69h1.77l-.9,1.21-.88-1.21ZM52.84,33.93l.9,1.21h-1.77l.88-1.21ZM51.97,27.9h1.77l-.9,1.21-.88-1.21ZM53.72,32.72l.9,1.21h-1.77l.88-1.21ZM52.84,29.1h1.77l-.9,1.21-.88-1.21ZM54.6,31.51l.9,1.21h-1.77l.88-1.21ZM53.72,30.31h1.77l-.9,1.21-.88-1.21Z"/>
          <path class="cls-1" d="M54.63,6.04l.88,1.21h-1.77l.9-1.21ZM53.73,4.84h1.77l-.88,1.21-.9-1.21ZM55.5,7.25l.88,1.21h-1.77l.9-1.21ZM54.61,3.63h1.77l-.88,1.21-.9-1.21ZM56.38,8.45l.88,1.21h-1.77l.9-1.21ZM55.49,2.43h1.77l-.88,1.21-.9-1.21ZM57.26,9.66l.88,1.21h-1.77l.9-1.21ZM56.37,1.22h1.77l-.88,1.21-.9-1.21ZM58.14,10.87l.88,1.21h-1.77l.9-1.21ZM57.24.02h1.77l-.88,1.21-.9-1.21ZM60.89,10.87l.9,1.21h-1.77l.88-1.21ZM60.02.02h1.77l-.9,1.21-.88-1.21ZM61.77,9.66l.9,1.21h-1.77l.88-1.21ZM60.89,1.22h1.77l-.9,1.21-.88-1.21ZM62.65,8.45l.9,1.21h-1.77l.88-1.21ZM61.77,2.43h1.77l-.9,1.21-.88-1.21ZM63.53,7.25l.9,1.21h-1.77l.88-1.21ZM62.65,3.63h1.77l-.9,1.21-.88-1.21ZM64.41,6.04l.9,1.21h-1.77l.88-1.21ZM63.53,4.84h1.77l-.9,1.21-.88-1.21Z"/>
          <path class="cls-1" d="M54.63,18.78l.88,1.21h-1.77l.9-1.21ZM53.73,17.57h1.77l-.88,1.21-.9-1.21ZM55.5,19.98l.88,1.21h-1.77l.9-1.21ZM54.61,16.37h1.77l-.88,1.21-.9-1.21ZM56.38,21.19l.88,1.21h-1.77l.9-1.21ZM55.49,15.16h1.77l-.88,1.21-.9-1.21ZM57.26,22.4l.88,1.21h-1.77l.9-1.21ZM56.37,13.96h1.77l-.88,1.21-.9-1.21ZM58.14,23.6l.88,1.21h-1.77l.9-1.21ZM57.24,12.75h1.77l-.88,1.21-.9-1.21ZM60.89,23.6l.9,1.21h-1.77l.88-1.21ZM60.02,12.75h1.77l-.9,1.21-.88-1.21ZM61.77,22.4l.9,1.21h-1.77l.88-1.21ZM60.89,13.96h1.77l-.9,1.21-.88-1.21ZM62.65,21.19l.9,1.21h-1.77l.88-1.21ZM61.77,15.16h1.77l-.9,1.21-.88-1.21ZM63.53,19.98l.9,1.21h-1.77l.88-1.21ZM62.65,16.37h1.77l-.9,1.21-.88-1.21ZM64.41,18.78l.9,1.21h-1.77l.88-1.21ZM63.53,17.57h1.77l-.9,1.21-.88-1.21Z"/>
          <path class="cls-1" d="M54.63,31.51l.88,1.21h-1.77l.9-1.21ZM53.73,30.31h1.77l-.88,1.21-.9-1.21ZM55.5,32.72l.88,1.21h-1.77l.9-1.21ZM54.61,29.1h1.77l-.88,1.21-.9-1.21ZM56.38,33.93l.88,1.21h-1.77l.9-1.21ZM55.49,27.9h1.77l-.88,1.21-.9-1.21ZM57.26,35.13l.88,1.21h-1.77l.9-1.21ZM56.37,26.69h1.77l-.88,1.21-.9-1.21ZM58.14,36.34l.88,1.21h-1.77l.9-1.21ZM57.24,25.49h1.77l-.88,1.21-.9-1.21ZM60.89,36.34l.9,1.21h-1.77l.88-1.21ZM60.02,25.49h1.77l-.9,1.21-.88-1.21ZM61.77,35.13l.9,1.21h-1.77l.88-1.21ZM60.89,26.69h1.77l-.9,1.21-.88-1.21ZM62.65,33.93l.9,1.21h-1.77l.88-1.21ZM61.77,27.9h1.77l-.9,1.21-.88-1.21ZM63.53,32.72l.9,1.21h-1.77l.88-1.21ZM62.65,29.1h1.77l-.9,1.21-.88-1.21ZM64.41,31.51l.9,1.21h-1.77l.88-1.21ZM63.53,30.31h1.77l-.9,1.21-.88-1.21Z"/>
          <path class="cls-1" d="M54.63,44.23l.88,1.21h-1.77l.9-1.21ZM53.73,43.03h1.77l-.88,1.21-.9-1.21ZM55.5,45.44l.88,1.21h-1.77l.9-1.21ZM54.61,41.82h1.77l-.88,1.21-.9-1.21ZM56.38,46.64l.88,1.21h-1.77l.9-1.21ZM55.49,40.62h1.77l-.88,1.21-.9-1.21ZM57.26,47.85l.88,1.21h-1.77l.9-1.21ZM56.37,39.41h1.77l-.88,1.21-.9-1.21ZM58.14,49.05l.88,1.21h-1.77l.9-1.21ZM57.24,38.21h1.77l-.88,1.21-.9-1.21ZM60.89,49.05l.9,1.21h-1.77l.88-1.21ZM60.02,38.21h1.77l-.9,1.21-.88-1.21ZM61.77,47.85l.9,1.21h-1.77l.88-1.21ZM60.89,39.41h1.77l-.9,1.21-.88-1.21ZM62.65,46.64l.9,1.21h-1.77l.88-1.21ZM61.77,40.62h1.77l-.9,1.21-.88-1.21ZM63.53,45.44l.9,1.21h-1.77l.88-1.21ZM62.65,41.82h1.77l-.9,1.21-.88-1.21ZM64.41,44.23l.9,1.21h-1.77l.88-1.21ZM63.53,43.03h1.77l-.9,1.21-.88-1.21Z"/>
        </g>
        <g>
          <path class="cls-1" d="M70.28,6.04l.88,1.21h-1.77l.9-1.21ZM69.38,4.84h1.77l-.88,1.21-.9-1.21ZM71.16,7.25l.88,1.21h-1.77l.9-1.21ZM70.26,3.63h1.77l-.88,1.21-.9-1.21ZM72.03,8.45l.88,1.21h-1.77l.9-1.21ZM71.14,2.43h1.77l-.88,1.21-.9-1.21ZM72.91,9.66l.88,1.21h-1.77l.9-1.21ZM72.02,1.22h1.77l-.88,1.21-.9-1.21ZM73.79,10.87l.88,1.21h-1.77l.9-1.21ZM72.89.02h1.77l-.88,1.21-.9-1.21ZM76.55,10.87l.9,1.21h-1.77l.88-1.21ZM75.67.02h1.77l-.9,1.21-.88-1.21ZM77.42,9.66l.9,1.21h-1.77l.88-1.21ZM76.55,1.22h1.77l-.9,1.21-.88-1.21ZM78.3,8.45l.9,1.21h-1.77l.88-1.21ZM77.42,2.43h1.77l-.9,1.21-.88-1.21ZM79.18,7.25l.9,1.21h-1.77l.88-1.21ZM78.3,3.63h1.77l-.9,1.21-.88-1.21ZM80.06,6.04l.9,1.21h-1.77l.88-1.21ZM79.18,4.84h1.77l-.9,1.21-.88-1.21Z"/>
          <path class="cls-1" d="M70.28,18.78l.88,1.21h-1.77l.9-1.21ZM69.38,17.57h1.77l-.88,1.21-.9-1.21ZM71.16,19.98l.88,1.21h-1.77l.9-1.21ZM70.26,16.37h1.77l-.88,1.21-.9-1.21ZM72.03,21.19l.88,1.21h-1.77l.9-1.21ZM71.14,15.16h1.77l-.88,1.21-.9-1.21ZM72.91,22.4l.88,1.21h-1.77l.9-1.21ZM72.02,13.96h1.77l-.88,1.21-.9-1.21ZM73.79,23.6l.88,1.21h-1.77l.9-1.21ZM72.89,12.75h1.77l-.88,1.21-.9-1.21ZM76.55,23.6l.9,1.21h-1.77l.88-1.21ZM75.67,12.75h1.77l-.9,1.21-.88-1.21ZM77.42,22.4l.9,1.21h-1.77l.88-1.21ZM76.55,13.96h1.77l-.9,1.21-.88-1.21ZM78.3,21.19l.9,1.21h-1.77l.88-1.21ZM77.42,15.16h1.77l-.9,1.21-.88-1.21ZM79.18,19.98l.9,1.21h-1.77l.88-1.21ZM78.3,16.37h1.77l-.9,1.21-.88-1.21ZM80.06,18.78l.9,1.21h-1.77l.88-1.21ZM79.18,17.57h1.77l-.9,1.21-.88-1.21Z"/>
          <path class="cls-1" d="M70.28,31.51l.88,1.21h-1.77l.9-1.21ZM69.38,30.31h1.77l-.88,1.21-.9-1.21ZM71.16,32.72l.88,1.21h-1.77l.9-1.21ZM70.26,29.1h1.77l-.88,1.21-.9-1.21ZM72.03,33.93l.88,1.21h-1.77l.9-1.21ZM71.14,27.9h1.77l-.88,1.21-.9-1.21ZM72.91,35.13l.88,1.21h-1.77l.9-1.21ZM72.02,26.69h1.77l-.88,1.21-.9-1.21ZM73.79,36.34l.88,1.21h-1.77l.9-1.21ZM72.89,25.49h1.77l-.88,1.21-.9-1.21ZM76.55,36.34l.9,1.21h-1.77l.88-1.21ZM75.67,25.49h1.77l-.9,1.21-.88-1.21ZM77.42,35.13l.9,1.21h-1.77l.88-1.21ZM76.55,26.69h1.77l-.9,1.21-.88-1.21ZM78.3,33.93l.9,1.21h-1.77l.88-1.21ZM77.42,27.9h1.77l-.9,1.21-.88-1.21ZM79.18,32.72l.9,1.21h-1.77l.88-1.21ZM78.3,29.1h1.77l-.9,1.21-.88-1.21ZM80.06,31.51l.9,1.21h-1.77l.88-1.21ZM79.18,30.31h1.77l-.9,1.21-.88-1.21Z"/>
          <path class="cls-1" d="M70.28,44.23l.88,1.21h-1.77l.9-1.21ZM69.38,43.03h1.77l-.88,1.21-.9-1.21ZM71.16,45.44l.88,1.21h-1.77l.9-1.21ZM70.26,41.82h1.77l-.88,1.21-.9-1.21ZM72.03,46.64l.88,1.21h-1.77l.9-1.21ZM71.14,40.62h1.77l-.88,1.21-.9-1.21ZM72.91,47.85l.88,1.21h-1.77l.9-1.21ZM72.02,39.41h1.77l-.88,1.21-.9-1.21ZM73.79,49.05l.88,1.21h-1.77l.9-1.21ZM72.89,38.21h1.77l-.88,1.21-.9-1.21ZM76.55,49.05l.9,1.21h-1.77l.88-1.21ZM75.67,38.21h1.77l-.9,1.21-.88-1.21ZM77.42,47.85l.9,1.21h-1.77l.88-1.21ZM76.55,39.41h1.77l-.9,1.21-.88-1.21ZM78.3,46.64l.9,1.21h-1.77l.88-1.21ZM77.42,40.62h1.77l-.9,1.21-.88-1.21ZM79.18,45.44l.9,1.21h-1.77l.88-1.21ZM78.3,41.82h1.77l-.9,1.21-.88-1.21ZM80.06,44.23l.9,1.21h-1.77l.88-1.21ZM79.18,43.03h1.77l-.9,1.21-.88-1.21Z"/>
          <path class="cls-1" d="M80.08,44.23l.88,1.21h-1.77l.9-1.21ZM79.18,43.03h1.77l-.88,1.21-.9-1.21ZM80.95,45.44l.88,1.21h-1.77l.9-1.21ZM80.06,41.82h1.77l-.88,1.21-.9-1.21ZM81.83,46.64l.88,1.21h-1.77l.9-1.21ZM80.94,40.62h1.77l-.88,1.21-.9-1.21ZM82.71,47.85l.88,1.21h-1.77l.9-1.21ZM81.81,39.41h1.77l-.88,1.21-.9-1.21ZM83.59,49.05l.88,1.21h-1.77l.9-1.21ZM82.69,38.21h1.77l-.88,1.21-.9-1.21ZM86.34,49.05l.9,1.21h-1.77l.88-1.21ZM85.46,38.21h1.77l-.9,1.21-.88-1.21ZM87.22,47.85l.9,1.21h-1.77l.88-1.21ZM86.34,39.41h1.77l-.9,1.21-.88-1.21ZM88.1,46.64l.9,1.21h-1.77l.88-1.21ZM87.22,40.62h1.77l-.9,1.21-.88-1.21ZM88.98,45.44l.9,1.21h-1.77l.88-1.21ZM88.1,41.82h1.77l-.9,1.21-.88-1.21ZM89.86,44.23l.9,1.21h-1.77l.88-1.21ZM88.98,43.03h1.77l-.9,1.21-.88-1.21Z"/>
          <path class="cls-1" d="M89.87,6.04l.88,1.21h-1.77l.9-1.21ZM88.98,4.84h1.77l-.88,1.21-.9-1.21ZM90.75,7.25l.88,1.21h-1.77l.9-1.21ZM89.86,3.63h1.77l-.88,1.21-.9-1.21ZM91.63,8.45l.88,1.21h-1.77l.9-1.21ZM90.73,2.43h1.77l-.88,1.21-.9-1.21ZM92.51,9.66l.88,1.21h-1.77l.9-1.21ZM91.61,1.22h1.77l-.88,1.21-.9-1.21ZM93.39,10.87l.88,1.21h-1.77l.9-1.21ZM92.49.02h1.77l-.88,1.21-.9-1.21ZM96.14,10.87l.9,1.21h-1.77l.88-1.21ZM95.26.02h1.77l-.9,1.21-.88-1.21ZM97.02,9.66l.9,1.21h-1.77l.88-1.21ZM96.14,1.22h1.77l-.9,1.21-.88-1.21ZM97.9,8.45l.9,1.21h-1.77l.88-1.21ZM97.02,2.43h1.77l-.9,1.21-.88-1.21ZM98.78,7.25l.9,1.21h-1.77l.88-1.21ZM97.9,3.63h1.77l-.9,1.21-.88-1.21ZM99.65,6.04l.9,1.21h-1.77l.88-1.21ZM98.78,4.84h1.77l-.9,1.21-.88-1.21Z"/>
          <path class="cls-1" d="M89.87,18.78l.88,1.21h-1.77l.9-1.21ZM88.98,17.57h1.77l-.88,1.21-.9-1.21ZM90.75,19.98l.88,1.21h-1.77l.9-1.21ZM89.86,16.37h1.77l-.88,1.21-.9-1.21ZM91.63,21.19l.88,1.21h-1.77l.9-1.21ZM90.73,15.16h1.77l-.88,1.21-.9-1.21ZM92.51,22.4l.88,1.21h-1.77l.9-1.21ZM91.61,13.96h1.77l-.88,1.21-.9-1.21ZM93.39,23.6l.88,1.21h-1.77l.9-1.21ZM92.49,12.75h1.77l-.88,1.21-.9-1.21ZM96.14,23.6l.9,1.21h-1.77l.88-1.21ZM95.26,12.75h1.77l-.9,1.21-.88-1.21ZM97.02,22.4l.9,1.21h-1.77l.88-1.21ZM96.14,13.96h1.77l-.9,1.21-.88-1.21ZM97.9,21.19l.9,1.21h-1.77l.88-1.21ZM97.02,15.16h1.77l-.9,1.21-.88-1.21ZM98.78,19.98l.9,1.21h-1.77l.88-1.21ZM97.9,16.37h1.77l-.9,1.21-.88-1.21ZM99.65,18.78l.9,1.21h-1.77l.88-1.21ZM98.78,17.57h1.77l-.9,1.21-.88-1.21Z"/>
          <path class="cls-1" d="M89.87,31.51l.88,1.21h-1.77l.9-1.21ZM88.98,30.31h1.77l-.88,1.21-.9-1.21ZM90.75,32.72l.88,1.21h-1.77l.9-1.21ZM89.86,29.1h1.77l-.88,1.21-.9-1.21ZM91.63,33.93l.88,1.21h-1.77l.9-1.21ZM90.73,27.9h1.77l-.88,1.21-.9-1.21ZM92.51,35.13l.88,1.21h-1.77l.9-1.21ZM91.61,26.69h1.77l-.88,1.21-.9-1.21ZM93.39,36.34l.88,1.21h-1.77l.9-1.21ZM92.49,25.49h1.77l-.88,1.21-.9-1.21ZM96.14,36.34l.9,1.21h-1.77l.88-1.21ZM95.26,25.49h1.77l-.9,1.21-.88-1.21ZM97.02,35.13l.9,1.21h-1.77l.88-1.21ZM96.14,26.69h1.77l-.9,1.21-.88-1.21ZM97.9,33.93l.9,1.21h-1.77l.88-1.21ZM97.02,27.9h1.77l-.9,1.21-.88-1.21ZM98.78,32.72l.9,1.21h-1.77l.88-1.21ZM97.9,29.1h1.77l-.9,1.21-.88-1.21ZM99.65,31.51l.9,1.21h-1.77l.88-1.21ZM98.78,30.31h1.77l-.9,1.21-.88-1.21Z"/>
          <path class="cls-1" d="M89.87,44.23l.88,1.21h-1.77l.9-1.21ZM88.98,43.03h1.77l-.88,1.21-.9-1.21ZM90.75,45.44l.88,1.21h-1.77l.9-1.21ZM89.86,41.82h1.77l-.88,1.21-.9-1.21ZM91.63,46.64l.88,1.21h-1.77l.9-1.21ZM90.73,40.62h1.77l-.88,1.21-.9-1.21ZM92.51,47.85l.88,1.21h-1.77l.9-1.21ZM91.61,39.41h1.77l-.88,1.21-.9-1.21ZM93.39,49.05l.88,1.21h-1.77l.9-1.21ZM92.49,38.21h1.77l-.88,1.21-.9-1.21ZM96.14,49.05l.9,1.21h-1.77l.88-1.21ZM95.26,38.21h1.77l-.9,1.21-.88-1.21ZM97.02,47.85l.9,1.21h-1.77l.88-1.21ZM96.14,39.41h1.77l-.9,1.21-.88-1.21ZM97.9,46.64l.9,1.21h-1.77l.88-1.21ZM97.02,40.62h1.77l-.9,1.21-.88-1.21ZM98.78,45.44l.9,1.21h-1.77l.88-1.21ZM97.9,41.82h1.77l-.9,1.21-.88-1.21ZM99.65,44.23l.9,1.21h-1.77l.88-1.21ZM98.78,43.03h1.77l-.9,1.21-.88-1.21Z"/>
        </g>
        <g>
          <path class="cls-1" d="M.9,6.04l.88,1.21H0l.9-1.21ZM0,4.84h1.77l-.88,1.21-.9-1.21ZM1.77,7.25l.88,1.21H.88l.9-1.21ZM.88,3.63h1.77l-.88,1.21-.9-1.21ZM2.65,8.45l.88,1.21h-1.77l.9-1.21ZM1.76,2.43h1.77l-.88,1.21-.9-1.21ZM3.53,9.66l.88,1.21h-1.77l.9-1.21ZM2.63,1.22h1.77l-.88,1.21-.9-1.21ZM4.41,10.87l.88,1.21h-1.77l.9-1.21ZM3.51.02h1.77l-.88,1.21L3.51.02ZM7.16,10.87l.9,1.21h-1.77l.88-1.21ZM6.29.02h1.77l-.9,1.21L6.29.02ZM8.04,9.66l.9,1.21h-1.77l.88-1.21ZM7.16,1.22h1.77l-.9,1.21-.88-1.21ZM8.92,8.45l.9,1.21h-1.77l.88-1.21ZM8.04,2.43h1.77l-.9,1.21-.88-1.21ZM9.8,7.25l.9,1.21h-1.77l.88-1.21ZM8.92,3.63h1.77l-.9,1.21-.88-1.21ZM10.68,6.04l.9,1.21h-1.77l.88-1.21ZM9.8,4.84h1.77l-.9,1.21-.88-1.21Z"/>
          <path class="cls-1" d="M.9,18.78l.88,1.21H0l.9-1.21ZM0,17.57h1.77l-.88,1.21-.9-1.21ZM1.77,19.98l.88,1.21H.88l.9-1.21ZM.88,16.37h1.77l-.88,1.21-.9-1.21ZM2.65,21.19l.88,1.21h-1.77l.9-1.21ZM1.76,15.16h1.77l-.88,1.21-.9-1.21ZM3.53,22.4l.88,1.21h-1.77l.9-1.21ZM2.63,13.96h1.77l-.88,1.21-.9-1.21ZM4.41,23.6l.88,1.21h-1.77l.9-1.21ZM3.51,12.75h1.77l-.88,1.21-.9-1.21ZM7.16,23.6l.9,1.21h-1.77l.88-1.21ZM6.29,12.75h1.77l-.9,1.21-.88-1.21ZM8.04,22.4l.9,1.21h-1.77l.88-1.21ZM7.16,13.96h1.77l-.9,1.21-.88-1.21ZM8.92,21.19l.9,1.21h-1.77l.88-1.21ZM8.04,15.16h1.77l-.9,1.21-.88-1.21ZM9.8,19.98l.9,1.21h-1.77l.88-1.21ZM8.92,16.37h1.77l-.9,1.21-.88-1.21Z"/>
          <path class="cls-1" d="M.9,31.51l.88,1.21H0l.9-1.21ZM0,30.31h1.77l-.88,1.21-.9-1.21ZM1.77,32.72l.88,1.21H.88l.9-1.21ZM.88,29.1h1.77l-.88,1.21-.9-1.21ZM2.65,33.93l.88,1.21h-1.77l.9-1.21ZM1.76,27.9h1.77l-.88,1.21-.9-1.21ZM3.53,35.13l.88,1.21h-1.77l.9-1.21ZM2.63,26.69h1.77l-.88,1.21-.9-1.21ZM4.41,36.34l.88,1.21h-1.77l.9-1.21ZM3.51,25.49h1.77l-.88,1.21-.9-1.21ZM7.16,36.34l.9,1.21h-1.77l.88-1.21ZM6.29,25.49h1.77l-.9,1.21-.88-1.21ZM8.04,35.13l.9,1.21h-1.77l.88-1.21ZM7.16,26.69h1.77l-.9,1.21-.88-1.21ZM8.92,33.93l.9,1.21h-1.77l.88-1.21ZM8.04,27.9h1.77l-.9,1.21-.88-1.21ZM9.8,32.72l.9,1.21h-1.77l.88-1.21ZM8.92,29.1h1.77l-.9,1.21-.88-1.21Z"/>
          <path class="cls-1" d="M.9,44.23l.88,1.21H0l.9-1.21ZM0,43.03h1.77l-.88,1.21-.9-1.21ZM1.77,45.44l.88,1.21H.88l.9-1.21ZM.88,41.82h1.77l-.88,1.21-.9-1.21ZM2.65,46.64l.88,1.21h-1.77l.9-1.21ZM1.76,40.62h1.77l-.88,1.21-.9-1.21ZM3.53,47.85l.88,1.21h-1.77l.9-1.21ZM2.63,39.41h1.77l-.88,1.21-.9-1.21ZM4.41,49.05l.88,1.21h-1.77l.9-1.21ZM3.51,38.21h1.77l-.88,1.21-.9-1.21ZM7.16,49.05l.9,1.21h-1.77l.88-1.21ZM6.29,38.21h1.77l-.9,1.21-.88-1.21ZM8.04,47.85l.9,1.21h-1.77l.88-1.21ZM7.16,39.41h1.77l-.9,1.21-.88-1.21ZM8.92,46.64l.9,1.21h-1.77l.88-1.21ZM8.04,40.62h1.77l-.9,1.21-.88-1.21ZM9.8,45.44l.9,1.21h-1.77l.88-1.21ZM8.92,41.82h1.77l-.9,1.21-.88-1.21ZM10.68,44.23l.9,1.21h-1.77l.88-1.21ZM9.8,43.03h1.77l-.9,1.21-.88-1.21Z"/>
          <g>
            <path class="cls-1" d="M11,19.98l.88,1.21h-1.77l.9-1.21ZM10.11,16.37h1.77l-.88,1.21-.9-1.21ZM11.88,21.19l.88,1.21h-1.77l.9-1.21ZM10.99,15.16h1.77l-.88,1.21-.9-1.21ZM12.76,22.4l.88,1.21h-1.77l.9-1.21ZM11.87,13.96h1.77l-.88,1.21-.9-1.21ZM13.64,23.6l.88,1.21h-1.77l.9-1.21ZM12.74,12.75h1.77l-.88,1.21-.9-1.21ZM16.39,23.6l.9,1.21h-1.77l.88-1.21ZM17.27,22.4l.9,1.21h-1.77l.88-1.21ZM18.15,21.19l.9,1.21h-1.77l.88-1.21ZM19.03,19.98l.9,1.21h-1.77l.88-1.21ZM19.91,18.78l.9,1.21h-1.77l.88-1.21Z"/>
            <g>
              <polygon class="cls-1" points="13.82 11.2 15.59 11.2 14.72 12.41 13.82 11.2"/>
              <polygon class="cls-1" points="14.7 10 16.47 10 15.59 11.2 14.7 10"/>
              <polygon class="cls-1" points="15.58 8.79 17.35 8.79 16.47 10 15.58 8.79"/>
              <polygon class="cls-1" points="16.46 7.59 18.23 7.59 17.35 8.79 16.46 7.59"/>
              <g>
                <polygon class="cls-1" points="15.27 12.41 16.14 13.61 14.37 13.61 15.27 12.41"/>
                <polygon class="cls-1" points="16.14 13.61 17.02 14.82 15.25 14.82 16.14 13.61"/>
                <polygon class="cls-1" points="17.02 14.82 17.9 16.03 16.13 16.03 17.02 14.82"/>
                <polygon class="cls-1" points="17.9 16.03 18.78 17.23 17.01 17.23 17.9 16.03"/>
                <polygon class="cls-1" points="18.78 17.23 19.66 18.44 17.88 18.44 18.78 17.23"/>
              </g>
              <polygon class="cls-1" points="17.33 6.38 19.11 6.38 18.23 7.59 17.33 6.38"/>
              <polygon class="cls-1" points="20.98 17.23 21.88 18.44 20.11 18.44 20.98 17.23"/>
              <polygon class="cls-1" points="21.86 16.03 22.76 17.23 20.98 17.23 21.86 16.03"/>
              <polygon class="cls-1" points="22.74 14.82 23.64 16.03 21.86 16.03 22.74 14.82"/>
              <polygon class="cls-1" points="23.62 13.61 24.51 14.82 22.74 14.82 23.62 13.61"/>
              <polygon class="cls-1" points="24.5 12.41 25.39 13.61 23.62 13.61 24.5 12.41"/>
            </g>
            <g>
              <polygon class="cls-1" points="18.46 4.82 20.23 4.82 19.35 6.03 18.46 4.82"/>
              <polygon class="cls-1" points="19.34 3.62 21.11 3.62 20.23 4.82 19.34 3.62"/>
              <polygon class="cls-1" points="20.21 2.41 21.99 2.41 21.11 3.62 20.21 2.41"/>
              <polygon class="cls-1" points="21.09 1.21 22.87 1.21 21.99 2.41 21.09 1.21"/>
              <g>
                <polygon class="cls-1" points="19.9 6.03 20.78 7.23 19.01 7.23 19.9 6.03"/>
                <polygon class="cls-1" points="20.78 7.23 21.66 8.44 19.89 8.44 20.78 7.23"/>
                <polygon class="cls-1" points="21.66 8.44 22.54 9.64 20.76 9.64 21.66 8.44"/>
                <polygon class="cls-1" points="22.54 9.64 23.42 10.85 21.64 10.85 22.54 9.64"/>
                <polygon class="cls-1" points="23.42 10.85 24.29 12.05 22.52 12.05 23.42 10.85"/>
              </g>
              <polygon class="cls-1" points="21.97 0 23.74 0 22.87 1.21 21.97 0"/>
              <polygon class="cls-1" points="25.62 10.85 26.52 12.05 24.74 12.05 25.62 10.85"/>
              <polygon class="cls-1" points="24.74 0 26.52 0 25.62 1.21 24.74 0"/>
              <polygon class="cls-1" points="26.5 9.64 27.4 10.85 25.62 10.85 26.5 9.64"/>
              <polygon class="cls-1" points="25.62 1.21 27.4 1.21 26.5 2.41 25.62 1.21"/>
              <polygon class="cls-1" points="27.38 8.44 28.27 9.64 26.5 9.64 27.38 8.44"/>
              <polygon class="cls-1" points="26.5 2.41 28.27 2.41 27.38 3.62 26.5 2.41"/>
              <polygon class="cls-1" points="28.26 7.23 29.15 8.44 27.38 8.44 28.26 7.23"/>
              <polygon class="cls-1" points="27.38 3.62 29.15 3.62 28.26 4.82 27.38 3.62"/>
              <polygon class="cls-1" points="29.13 6.03 30.03 7.23 28.26 7.23 29.13 6.03"/>
              <polygon class="cls-1" points="28.26 4.82 30.03 4.82 29.13 6.03 28.26 4.82"/>
            </g>
          </g>
          <g>
            <path class="cls-1" d="M10.11,29.08h1.77l-.88,1.21-.9-1.21ZM11,32.7l.88,1.21h-1.77l.9-1.21ZM10.99,27.88h1.77l-.88,1.21-.9-1.21ZM11.88,33.9l.88,1.21h-1.77l.9-1.21ZM11.87,26.67h1.77l-.88,1.21-.9-1.21ZM12.76,35.11l.88,1.21h-1.77l.9-1.21ZM12.74,25.46h1.77l-.88,1.21-.9-1.21ZM13.64,36.31l.88,1.21h-1.77l.9-1.21ZM15.52,25.46h1.77l-.9,1.21-.88-1.21ZM16.39,26.67h1.77l-.9,1.21-.88-1.21ZM17.27,27.88h1.77l-.9,1.21-.88-1.21ZM18.15,29.08h1.77l-.9,1.21-.88-1.21ZM19.03,30.29h1.77l-.9,1.21-.88-1.21Z"/>
            <g>
              <polygon class="cls-1" points="14.72 37.86 15.59 39.07 13.82 39.07 14.72 37.86"/>
              <polygon class="cls-1" points="15.59 39.07 16.47 40.27 14.7 40.27 15.59 39.07"/>
              <polygon class="cls-1" points="16.47 40.27 17.35 41.48 15.58 41.48 16.47 40.27"/>
              <polygon class="cls-1" points="17.35 41.48 18.23 42.68 16.46 42.68 17.35 41.48"/>
              <g>
                <polygon class="cls-1" points="14.37 36.66 16.14 36.66 15.27 37.86 14.37 36.66"/>
                <polygon class="cls-1" points="15.25 35.45 17.02 35.45 16.14 36.66 15.25 35.45"/>
                <polygon class="cls-1" points="16.13 34.25 17.9 34.25 17.02 35.45 16.13 34.25"/>
                <polygon class="cls-1" points="17.01 33.04 18.78 33.04 17.9 34.25 17.01 33.04"/>
                <polygon class="cls-1" points="17.88 31.84 19.66 31.84 18.78 33.04 17.88 31.84"/>
              </g>
              <polygon class="cls-1" points="18.23 42.68 19.11 43.89 17.33 43.89 18.23 42.68"/>
              <polygon class="cls-1" points="20.11 31.84 21.88 31.84 20.98 33.04 20.11 31.84"/>
              <polygon class="cls-1" points="20.98 33.04 22.76 33.04 21.86 34.25 20.98 33.04"/>
              <polygon class="cls-1" points="21.86 34.25 23.64 34.25 22.74 35.45 21.86 34.25"/>
              <polygon class="cls-1" points="22.74 35.45 24.51 35.45 23.62 36.66 22.74 35.45"/>
              <polygon class="cls-1" points="23.62 36.66 25.39 36.66 24.5 37.86 23.62 36.66"/>
            </g>
            <g>
              <polygon class="cls-1" points="19.35 44.24 20.23 45.45 18.46 45.45 19.35 44.24"/>
              <polygon class="cls-1" points="20.23 45.45 21.11 46.66 19.34 46.66 20.23 45.45"/>
              <polygon class="cls-1" points="21.11 46.66 21.99 47.86 20.21 47.86 21.11 46.66"/>
              <polygon class="cls-1" points="21.99 47.86 22.87 49.07 21.09 49.07 21.99 47.86"/>
              <g>
                <polygon class="cls-1" points="19.01 43.04 20.78 43.04 19.9 44.24 19.01 43.04"/>
                <polygon class="cls-1" points="19.89 41.83 21.66 41.83 20.78 43.04 19.89 41.83"/>
                <polygon class="cls-1" points="20.76 40.63 22.54 40.63 21.66 41.83 20.76 40.63"/>
                <polygon class="cls-1" points="21.64 39.42 23.42 39.42 22.54 40.63 21.64 39.42"/>
                <polygon class="cls-1" points="22.52 38.22 24.29 38.22 23.42 39.42 22.52 38.22"/>
              </g>
              <polygon class="cls-1" points="22.87 49.07 23.74 50.27 21.97 50.27 22.87 49.07"/>
              <polygon class="cls-1" points="24.74 38.22 26.52 38.22 25.62 39.42 24.74 38.22"/>
              <polygon class="cls-1" points="25.62 49.07 26.52 50.27 24.74 50.27 25.62 49.07"/>
              <polygon class="cls-1" points="25.62 39.42 27.4 39.42 26.5 40.63 25.62 39.42"/>
              <polygon class="cls-1" points="26.5 47.86 27.4 49.07 25.62 49.07 26.5 47.86"/>
              <polygon class="cls-1" points="26.5 40.63 28.27 40.63 27.38 41.83 26.5 40.63"/>
              <polygon class="cls-1" points="27.38 46.66 28.27 47.86 26.5 47.86 27.38 46.66"/>
              <polygon class="cls-1" points="27.38 41.83 29.15 41.83 28.26 43.04 27.38 41.83"/>
              <polygon class="cls-1" points="28.26 45.45 29.15 46.66 27.38 46.66 28.26 45.45"/>
              <polygon class="cls-1" points="28.26 43.04 30.03 43.04 29.13 44.24 28.26 43.04"/>
              <polygon class="cls-1" points="29.13 44.24 30.03 45.45 28.26 45.45 29.13 44.24"/>
            </g>
          </g>
        </g>
        <g>
          <path class="cls-1" d="M139.64,6.04l.88,1.21h-1.77l.9-1.21ZM138.75,4.84h1.77l-.88,1.21-.9-1.21ZM140.52,7.25l.88,1.21h-1.77l.9-1.21ZM139.62,3.63h1.77l-.88,1.21-.9-1.21ZM141.4,8.45l.88,1.21h-1.77l.9-1.21ZM140.5,2.43h1.77l-.88,1.21-.9-1.21ZM142.28,9.66l.88,1.21h-1.77l.9-1.21ZM141.38,1.22h1.77l-.88,1.21-.9-1.21ZM143.15,10.87l.88,1.21h-1.77l.9-1.21ZM142.26.02h1.77l-.88,1.21-.9-1.21ZM145.91,10.87l.9,1.21h-1.77l.88-1.21ZM145.03.02h1.77l-.9,1.21-.88-1.21ZM146.79,9.66l.9,1.21h-1.77l.88-1.21ZM145.91,1.22h1.77l-.9,1.21-.88-1.21ZM147.67,8.45l.9,1.21h-1.77l.88-1.21ZM146.79,2.43h1.77l-.9,1.21-.88-1.21ZM148.54,7.25l.9,1.21h-1.77l.88-1.21ZM147.67,3.63h1.77l-.9,1.21-.88-1.21ZM149.42,6.04l.9,1.21h-1.77l.88-1.21ZM148.54,4.84h1.77l-.9,1.21-.88-1.21Z"/>
          <path class="cls-1" d="M139.64,18.78l.88,1.21h-1.77l.9-1.21ZM138.75,17.57h1.77l-.88,1.21-.9-1.21ZM140.52,19.98l.88,1.21h-1.77l.9-1.21ZM139.62,16.37h1.77l-.88,1.21-.9-1.21ZM141.4,21.19l.88,1.21h-1.77l.9-1.21ZM140.5,15.16h1.77l-.88,1.21-.9-1.21ZM142.28,22.4l.88,1.21h-1.77l.9-1.21ZM141.38,13.96h1.77l-.88,1.21-.9-1.21ZM143.15,23.6l.88,1.21h-1.77l.9-1.21ZM142.26,12.75h1.77l-.88,1.21-.9-1.21ZM145.91,23.6l.9,1.21h-1.77l.88-1.21ZM145.03,12.75h1.77l-.9,1.21-.88-1.21ZM146.79,22.4l.9,1.21h-1.77l.88-1.21ZM145.91,13.96h1.77l-.9,1.21-.88-1.21ZM147.67,21.19l.9,1.21h-1.77l.88-1.21ZM146.79,15.16h1.77l-.9,1.21-.88-1.21ZM148.54,19.98l.9,1.21h-1.77l.88-1.21ZM147.67,16.37h1.77l-.9,1.21-.88-1.21ZM149.42,18.78l.9,1.21h-1.77l.88-1.21ZM148.54,17.57h1.77l-.9,1.21-.88-1.21Z"/>
          <path class="cls-1" d="M139.64,31.51l.88,1.21h-1.77l.9-1.21ZM138.75,30.31h1.77l-.88,1.21-.9-1.21ZM140.52,32.72l.88,1.21h-1.77l.9-1.21ZM139.62,29.1h1.77l-.88,1.21-.9-1.21ZM141.4,33.93l.88,1.21h-1.77l.9-1.21ZM140.5,27.9h1.77l-.88,1.21-.9-1.21ZM142.28,35.13l.88,1.21h-1.77l.9-1.21ZM141.38,26.69h1.77l-.88,1.21-.9-1.21ZM143.15,36.34l.88,1.21h-1.77l.9-1.21ZM142.26,25.49h1.77l-.88,1.21-.9-1.21ZM145.91,36.34l.9,1.21h-1.77l.88-1.21ZM145.03,25.49h1.77l-.9,1.21-.88-1.21ZM146.79,35.13l.9,1.21h-1.77l.88-1.21ZM145.91,26.69h1.77l-.9,1.21-.88-1.21ZM147.67,33.93l.9,1.21h-1.77l.88-1.21ZM146.79,27.9h1.77l-.9,1.21-.88-1.21ZM148.54,32.72l.9,1.21h-1.77l.88-1.21ZM147.67,29.1h1.77l-.9,1.21-.88-1.21ZM149.42,31.51l.9,1.21h-1.77l.88-1.21ZM148.54,30.31h1.77l-.9,1.21-.88-1.21Z"/>
          <path class="cls-1" d="M139.64,44.23l.88,1.21h-1.77l.9-1.21ZM138.75,43.03h1.77l-.88,1.21-.9-1.21ZM140.52,45.44l.88,1.21h-1.77l.9-1.21ZM139.62,41.82h1.77l-.88,1.21-.9-1.21ZM141.4,46.64l.88,1.21h-1.77l.9-1.21ZM140.5,40.62h1.77l-.88,1.21-.9-1.21ZM142.28,47.85l.88,1.21h-1.77l.9-1.21ZM141.38,39.41h1.77l-.88,1.21-.9-1.21ZM143.15,49.05l.88,1.21h-1.77l.9-1.21ZM142.26,38.21h1.77l-.88,1.21-.9-1.21ZM145.91,49.05l.9,1.21h-1.77l.88-1.21ZM145.03,38.21h1.77l-.9,1.21-.88-1.21ZM146.79,47.85l.9,1.21h-1.77l.88-1.21ZM145.91,39.41h1.77l-.9,1.21-.88-1.21ZM147.67,46.64l.9,1.21h-1.77l.88-1.21ZM146.79,40.62h1.77l-.9,1.21-.88-1.21ZM148.54,45.44l.9,1.21h-1.77l.88-1.21ZM147.67,41.82h1.77l-.9,1.21-.88-1.21ZM149.42,44.23l.9,1.21h-1.77l.88-1.21ZM148.54,43.03h1.77l-.9,1.21-.88-1.21Z"/>
          <path class="cls-1" d="M149.45,6.04l.88,1.21h-1.77l.9-1.21ZM148.55,4.84h1.77l-.88,1.21-.9-1.21ZM150.33,7.25l.88,1.21h-1.77l.9-1.21ZM149.43,3.63h1.77l-.88,1.21-.9-1.21ZM151.2,8.45l.88,1.21h-1.77l.9-1.21ZM150.31,2.43h1.77l-.88,1.21-.9-1.21ZM152.08,9.66l.88,1.21h-1.77l.9-1.21ZM151.19,1.22h1.77l-.88,1.21-.9-1.21ZM152.96,10.87l.88,1.21h-1.77l.9-1.21ZM152.07.02h1.77l-.88,1.21-.9-1.21ZM155.72,10.87l.9,1.21h-1.77l.88-1.21ZM154.84.02h1.77l-.9,1.21-.88-1.21ZM156.59,9.66l.9,1.21h-1.77l.88-1.21ZM155.72,1.22h1.77l-.9,1.21-.88-1.21ZM157.47,8.45l.9,1.21h-1.77l.88-1.21ZM156.59,2.43h1.77l-.9,1.21-.88-1.21ZM158.35,7.25l.9,1.21h-1.77l.88-1.21ZM157.47,3.63h1.77l-.9,1.21-.88-1.21ZM159.23,6.04l.9,1.21h-1.77l.88-1.21ZM158.35,4.84h1.77l-.9,1.21-.88-1.21Z"/>
          <path class="cls-1" d="M149.45,31.51l.88,1.21h-1.77l.9-1.21ZM148.55,30.31h1.77l-.88,1.21-.9-1.21ZM150.33,32.72l.88,1.21h-1.77l.9-1.21ZM149.43,29.1h1.77l-.88,1.21-.9-1.21ZM151.2,33.93l.88,1.21h-1.77l.9-1.21ZM150.31,27.9h1.77l-.88,1.21-.9-1.21ZM152.08,35.13l.88,1.21h-1.77l.9-1.21ZM151.19,26.69h1.77l-.88,1.21-.9-1.21ZM152.96,36.34l.88,1.21h-1.77l.9-1.21ZM152.07,25.49h1.77l-.88,1.21-.9-1.21ZM155.72,36.34l.9,1.21h-1.77l.88-1.21ZM154.84,25.49h1.77l-.9,1.21-.88-1.21ZM156.59,35.13l.9,1.21h-1.77l.88-1.21ZM155.72,26.69h1.77l-.9,1.21-.88-1.21ZM157.47,33.93l.9,1.21h-1.77l.88-1.21ZM156.59,27.9h1.77l-.9,1.21-.88-1.21ZM158.35,32.72l.9,1.21h-1.77l.88-1.21ZM157.47,29.1h1.77l-.9,1.21-.88-1.21ZM159.23,31.51l.9,1.21h-1.77l.88-1.21ZM158.35,30.31h1.77l-.9,1.21-.88-1.21Z"/>
          <path class="cls-1" d="M159.25,6.04l.88,1.21h-1.77l.9-1.21ZM158.36,4.84h1.77l-.88,1.21-.9-1.21ZM160.13,7.25l.88,1.21h-1.77l.9-1.21ZM159.24,3.63h1.77l-.88,1.21-.9-1.21ZM161.01,8.45l.88,1.21h-1.77l.9-1.21ZM160.12,2.43h1.77l-.88,1.21-.9-1.21ZM161.89,9.66l.88,1.21h-1.77l.9-1.21ZM160.99,1.22h1.77l-.88,1.21-.9-1.21ZM162.77,10.87l.88,1.21h-1.77l.9-1.21ZM161.87.02h1.77l-.88,1.21-.9-1.21ZM165.52,10.87l.9,1.21h-1.77l.88-1.21ZM164.64.02h1.77l-.9,1.21-.88-1.21ZM166.4,9.66l.9,1.21h-1.77l.88-1.21ZM165.52,1.22h1.77l-.9,1.21-.88-1.21ZM167.28,8.45l.9,1.21h-1.77l.88-1.21ZM166.4,2.43h1.77l-.9,1.21-.88-1.21ZM168.16,7.25l.9,1.21h-1.77l.88-1.21ZM167.28,3.63h1.77l-.9,1.21-.88-1.21ZM169.04,6.04l.9,1.21h-1.77l.88-1.21ZM168.16,4.84h1.77l-.9,1.21-.88-1.21Z"/>
          <path class="cls-1" d="M159.25,18.78l.88,1.21h-1.77l.9-1.21ZM158.36,17.57h1.77l-.88,1.21-.9-1.21ZM160.13,19.98l.88,1.21h-1.77l.9-1.21ZM159.24,16.37h1.77l-.88,1.21-.9-1.21ZM161.01,21.19l.88,1.21h-1.77l.9-1.21ZM160.12,15.16h1.77l-.88,1.21-.9-1.21ZM161.89,22.4l.88,1.21h-1.77l.9-1.21ZM160.99,13.96h1.77l-.88,1.21-.9-1.21ZM162.77,23.6l.88,1.21h-1.77l.9-1.21ZM161.87,12.75h1.77l-.88,1.21-.9-1.21ZM165.52,23.6l.9,1.21h-1.77l.88-1.21ZM164.64,12.75h1.77l-.9,1.21-.88-1.21ZM166.4,22.4l.9,1.21h-1.77l.88-1.21ZM165.52,13.96h1.77l-.9,1.21-.88-1.21ZM167.28,21.19l.9,1.21h-1.77l.88-1.21ZM166.4,15.16h1.77l-.9,1.21-.88-1.21ZM168.16,19.98l.9,1.21h-1.77l.88-1.21ZM167.28,16.37h1.77l-.9,1.21-.88-1.21ZM169.04,18.78l.9,1.21h-1.77l.88-1.21ZM168.16,17.57h1.77l-.9,1.21-.88-1.21Z"/>
          <path class="cls-1" d="M159.25,31.51l.88,1.21h-1.77l.9-1.21ZM158.36,30.31h1.77l-.88,1.21-.9-1.21ZM160.13,32.72l.88,1.21h-1.77l.9-1.21ZM159.24,29.1h1.77l-.88,1.21-.9-1.21ZM161.01,33.93l.88,1.21h-1.77l.9-1.21ZM160.12,27.9h1.77l-.88,1.21-.9-1.21ZM161.89,35.13l.88,1.21h-1.77l.9-1.21ZM160.99,26.69h1.77l-.88,1.21-.9-1.21ZM162.77,36.34l.88,1.21h-1.77l.9-1.21ZM161.87,25.49h1.77l-.88,1.21-.9-1.21ZM165.52,36.34l.9,1.21h-1.77l.88-1.21ZM164.64,25.49h1.77l-.9,1.21-.88-1.21ZM166.4,35.13l.9,1.21h-1.77l.88-1.21ZM165.52,26.69h1.77l-.9,1.21-.88-1.21ZM167.28,33.93l.9,1.21h-1.77l.88-1.21ZM166.4,27.9h1.77l-.9,1.21-.88-1.21ZM168.16,32.72l.9,1.21h-1.77l.88-1.21ZM167.28,29.1h1.77l-.9,1.21-.88-1.21ZM169.04,31.51l.9,1.21h-1.77l.88-1.21ZM168.16,30.31h1.77l-.9,1.21-.88-1.21Z"/>
          <path class="cls-1" d="M159.25,44.23l.88,1.21h-1.77l.9-1.21ZM158.36,43.03h1.77l-.88,1.21-.9-1.21ZM160.13,45.44l.88,1.21h-1.77l.9-1.21ZM159.24,41.82h1.77l-.88,1.21-.9-1.21ZM161.01,46.64l.88,1.21h-1.77l.9-1.21ZM160.12,40.62h1.77l-.88,1.21-.9-1.21ZM161.89,47.85l.88,1.21h-1.77l.9-1.21ZM160.99,39.41h1.77l-.88,1.21-.9-1.21ZM162.77,49.05l.88,1.21h-1.77l.9-1.21ZM161.87,38.21h1.77l-.88,1.21-.9-1.21ZM165.52,49.05l.9,1.21h-1.77l.88-1.21ZM164.64,38.21h1.77l-.9,1.21-.88-1.21ZM166.4,47.85l.9,1.21h-1.77l.88-1.21ZM165.52,39.41h1.77l-.9,1.21-.88-1.21ZM167.28,46.64l.9,1.21h-1.77l.88-1.21ZM166.4,40.62h1.77l-.9,1.21-.88-1.21ZM168.16,45.44l.9,1.21h-1.77l.88-1.21ZM167.28,41.82h1.77l-.9,1.21-.88-1.21ZM169.04,44.23l.9,1.21h-1.77l.88-1.21ZM168.16,43.03h1.77l-.9,1.21-.88-1.21Z"/>
        </g>
        <g>
          <path class="cls-1" d="M105.52,6.04l.88,1.21h-1.77l.9-1.21ZM104.63,4.84h1.77l-.88,1.21-.9-1.21ZM106.4,7.25l.88,1.21h-1.77l.9-1.21ZM105.51,3.63h1.77l-.88,1.21-.9-1.21ZM107.28,8.45l.88,1.21h-1.77l.9-1.21ZM106.38,2.43h1.77l-.88,1.21-.9-1.21ZM108.16,9.66l.88,1.21h-1.77l.9-1.21ZM107.26,1.22h1.77l-.88,1.21-.9-1.21ZM109.04,10.87l.88,1.21h-1.77l.9-1.21ZM108.14.02h1.77l-.88,1.21-.9-1.21ZM111.79,10.87l.9,1.21h-1.77l.88-1.21ZM110.91.02h1.77l-.9,1.21-.88-1.21ZM112.67,9.66l.9,1.21h-1.77l.88-1.21ZM111.79,1.22h1.77l-.9,1.21-.88-1.21ZM113.55,8.45l.9,1.21h-1.77l.88-1.21ZM112.67,2.43h1.77l-.9,1.21-.88-1.21ZM114.43,7.25l.9,1.21h-1.77l.88-1.21ZM113.55,3.63h1.77l-.9,1.21-.88-1.21ZM115.3,6.04l.9,1.21h-1.77l.88-1.21ZM114.43,4.84h1.77l-.9,1.21-.88-1.21Z"/>
          <path class="cls-1" d="M105.52,18.78l.88,1.21h-1.77l.9-1.21ZM104.63,17.57h1.77l-.88,1.21-.9-1.21ZM106.4,19.98l.88,1.21h-1.77l.9-1.21ZM105.51,16.37h1.77l-.88,1.21-.9-1.21ZM107.28,21.19l.88,1.21h-1.77l.9-1.21ZM106.38,15.16h1.77l-.88,1.21-.9-1.21ZM108.16,22.4l.88,1.21h-1.77l.9-1.21ZM107.26,13.96h1.77l-.88,1.21-.9-1.21ZM109.04,23.6l.88,1.21h-1.77l.9-1.21ZM108.14,12.75h1.77l-.88,1.21-.9-1.21ZM111.79,23.6l.9,1.21h-1.77l.88-1.21ZM110.91,12.75h1.77l-.9,1.21-.88-1.21ZM112.67,22.4l.9,1.21h-1.77l.88-1.21ZM111.79,13.96h1.77l-.9,1.21-.88-1.21ZM113.55,21.19l.9,1.21h-1.77l.88-1.21ZM112.67,15.16h1.77l-.9,1.21-.88-1.21ZM114.43,19.98l.9,1.21h-1.77l.88-1.21ZM113.55,16.37h1.77l-.9,1.21-.88-1.21Z"/>
          <path class="cls-1" d="M105.52,31.51l.88,1.21h-1.77l.9-1.21ZM104.63,30.31h1.77l-.88,1.21-.9-1.21ZM106.4,32.72l.88,1.21h-1.77l.9-1.21ZM105.51,29.1h1.77l-.88,1.21-.9-1.21ZM107.28,33.93l.88,1.21h-1.77l.9-1.21ZM106.38,27.9h1.77l-.88,1.21-.9-1.21ZM108.16,35.13l.88,1.21h-1.77l.9-1.21ZM107.26,26.69h1.77l-.88,1.21-.9-1.21ZM109.04,36.34l.88,1.21h-1.77l.9-1.21ZM108.14,25.49h1.77l-.88,1.21-.9-1.21ZM111.79,36.34l.9,1.21h-1.77l.88-1.21ZM110.91,25.49h1.77l-.9,1.21-.88-1.21ZM112.67,35.13l.9,1.21h-1.77l.88-1.21ZM111.79,26.69h1.77l-.9,1.21-.88-1.21ZM113.55,33.93l.9,1.21h-1.77l.88-1.21ZM112.67,27.9h1.77l-.9,1.21-.88-1.21ZM114.43,32.72l.9,1.21h-1.77l.88-1.21ZM113.55,29.1h1.77l-.9,1.21-.88-1.21Z"/>
          <path class="cls-1" d="M105.52,44.23l.88,1.21h-1.77l.9-1.21ZM104.63,43.03h1.77l-.88,1.21-.9-1.21ZM106.4,45.44l.88,1.21h-1.77l.9-1.21ZM105.51,41.82h1.77l-.88,1.21-.9-1.21ZM107.28,46.64l.88,1.21h-1.77l.9-1.21ZM106.38,40.62h1.77l-.88,1.21-.9-1.21ZM108.16,47.85l.88,1.21h-1.77l.9-1.21ZM107.26,39.41h1.77l-.88,1.21-.9-1.21ZM109.04,49.05l.88,1.21h-1.77l.9-1.21ZM108.14,38.21h1.77l-.88,1.21-.9-1.21ZM111.79,49.05l.9,1.21h-1.77l.88-1.21ZM110.91,38.21h1.77l-.9,1.21-.88-1.21ZM112.67,47.85l.9,1.21h-1.77l.88-1.21ZM111.79,39.41h1.77l-.9,1.21-.88-1.21ZM113.55,46.64l.9,1.21h-1.77l.88-1.21ZM112.67,40.62h1.77l-.9,1.21-.88-1.21ZM114.43,45.44l.9,1.21h-1.77l.88-1.21ZM113.55,41.82h1.77l-.9,1.21-.88-1.21ZM115.3,44.23l.9,1.21h-1.77l.88-1.21ZM114.43,43.03h1.77l-.9,1.21-.88-1.21Z"/>
          <g>
            <path class="cls-1" d="M115.63,19.98l.88,1.21h-1.77l.9-1.21ZM114.74,16.37h1.77l-.88,1.21-.9-1.21ZM116.51,21.19l.88,1.21h-1.77l.9-1.21ZM115.62,15.16h1.77l-.88,1.21-.9-1.21ZM117.39,22.4l.88,1.21h-1.77l.9-1.21ZM116.49,13.96h1.77l-.88,1.21-.9-1.21ZM118.27,23.6l.88,1.21h-1.77l.9-1.21ZM117.37,12.75h1.77l-.88,1.21-.9-1.21ZM121.02,23.6l.9,1.21h-1.77l.88-1.21ZM121.9,22.4l.9,1.21h-1.77l.88-1.21ZM122.78,21.19l.9,1.21h-1.77l.88-1.21ZM123.66,19.98l.9,1.21h-1.77l.88-1.21ZM124.54,18.78l.9,1.21h-1.77l.88-1.21Z"/>
            <g>
              <polygon class="cls-1" points="118.45 11.2 120.22 11.2 119.35 12.41 118.45 11.2"/>
              <polygon class="cls-1" points="119.33 10 121.1 10 120.22 11.2 119.33 10"/>
              <polygon class="cls-1" points="120.21 8.79 121.98 8.79 121.1 10 120.21 8.79"/>
              <polygon class="cls-1" points="121.08 7.59 122.86 7.59 121.98 8.79 121.08 7.59"/>
              <g>
                <polygon class="cls-1" points="119.89 12.41 120.77 13.61 119 13.61 119.89 12.41"/>
                <polygon class="cls-1" points="120.77 13.61 121.65 14.82 119.88 14.82 120.77 13.61"/>
                <polygon class="cls-1" points="121.65 14.82 122.53 16.03 120.76 16.03 121.65 14.82"/>
                <polygon class="cls-1" points="122.53 16.03 123.41 17.23 121.63 17.23 122.53 16.03"/>
                <polygon class="cls-1" points="123.41 17.23 124.29 18.44 122.51 18.44 123.41 17.23"/>
              </g>
              <polygon class="cls-1" points="121.96 6.38 123.74 6.38 122.86 7.59 121.96 6.38"/>
              <polygon class="cls-1" points="125.61 17.23 126.51 18.44 124.73 18.44 125.61 17.23"/>
              <polygon class="cls-1" points="126.49 16.03 127.39 17.23 125.61 17.23 126.49 16.03"/>
              <polygon class="cls-1" points="127.37 14.82 128.26 16.03 126.49 16.03 127.37 14.82"/>
              <polygon class="cls-1" points="128.25 13.61 129.14 14.82 127.37 14.82 128.25 13.61"/>
              <polygon class="cls-1" points="129.13 12.41 130.02 13.61 128.25 13.61 129.13 12.41"/>
            </g>
            <g>
              <polygon class="cls-1" points="123.09 4.82 124.86 4.82 123.98 6.03 123.09 4.82"/>
              <polygon class="cls-1" points="123.97 3.62 125.74 3.62 124.86 4.82 123.97 3.62"/>
              <polygon class="cls-1" points="124.84 2.41 126.62 2.41 125.74 3.62 124.84 2.41"/>
              <polygon class="cls-1" points="125.72 1.21 127.5 1.21 126.62 2.41 125.72 1.21"/>
              <g>
                <polygon class="cls-1" points="124.53 6.03 125.41 7.23 123.64 7.23 124.53 6.03"/>
                <polygon class="cls-1" points="125.41 7.23 126.29 8.44 124.51 8.44 125.41 7.23"/>
                <polygon class="cls-1" points="126.29 8.44 127.17 9.64 125.39 9.64 126.29 8.44"/>
                <polygon class="cls-1" points="127.17 9.64 128.04 10.85 126.27 10.85 127.17 9.64"/>
                <polygon class="cls-1" points="128.04 10.85 128.92 12.05 127.15 12.05 128.04 10.85"/>
              </g>
              <polygon class="cls-1" points="126.6 0 128.37 0 127.5 1.21 126.6 0"/>
              <polygon class="cls-1" points="130.25 10.85 131.15 12.05 129.37 12.05 130.25 10.85"/>
              <polygon class="cls-1" points="129.37 0 131.15 0 130.25 1.21 129.37 0"/>
              <polygon class="cls-1" points="131.13 9.64 132.02 10.85 130.25 10.85 131.13 9.64"/>
              <polygon class="cls-1" points="130.25 1.21 132.02 1.21 131.13 2.41 130.25 1.21"/>
              <polygon class="cls-1" points="132.01 8.44 132.9 9.64 131.13 9.64 132.01 8.44"/>
              <polygon class="cls-1" points="131.13 2.41 132.9 2.41 132.01 3.62 131.13 2.41"/>
              <polygon class="cls-1" points="132.88 7.23 133.78 8.44 132.01 8.44 132.88 7.23"/>
              <polygon class="cls-1" points="132.01 3.62 133.78 3.62 132.88 4.82 132.01 3.62"/>
              <polygon class="cls-1" points="133.76 6.03 134.66 7.23 132.88 7.23 133.76 6.03"/>
              <polygon class="cls-1" points="132.88 4.82 134.66 4.82 133.76 6.03 132.88 4.82"/>
            </g>
          </g>
          <g>
            <path class="cls-1" d="M114.74,29.08h1.77l-.88,1.21-.9-1.21ZM115.63,32.7l.88,1.21h-1.77l.9-1.21ZM115.62,27.88h1.77l-.88,1.21-.9-1.21ZM116.51,33.9l.88,1.21h-1.77l.9-1.21ZM116.49,26.67h1.77l-.88,1.21-.9-1.21ZM117.39,35.11l.88,1.21h-1.77l.9-1.21ZM117.37,25.46h1.77l-.88,1.21-.9-1.21ZM118.27,36.31l.88,1.21h-1.77l.9-1.21ZM120.14,25.46h1.77l-.9,1.21-.88-1.21ZM121.02,26.67h1.77l-.9,1.21-.88-1.21ZM121.9,27.88h1.77l-.9,1.21-.88-1.21ZM122.78,29.08h1.77l-.9,1.21-.88-1.21ZM123.66,30.29h1.77l-.9,1.21-.88-1.21Z"/>
            <g>
              <polygon class="cls-1" points="119.35 37.86 120.22 39.07 118.45 39.07 119.35 37.86"/>
              <polygon class="cls-1" points="120.22 39.07 121.1 40.27 119.33 40.27 120.22 39.07"/>
              <polygon class="cls-1" points="121.1 40.27 121.98 41.48 120.21 41.48 121.1 40.27"/>
              <polygon class="cls-1" points="121.98 41.48 122.86 42.68 121.08 42.68 121.98 41.48"/>
              <g>
                <polygon class="cls-1" points="119 36.66 120.77 36.66 119.89 37.86 119 36.66"/>
                <polygon class="cls-1" points="119.88 35.45 121.65 35.45 120.77 36.66 119.88 35.45"/>
                <polygon class="cls-1" points="120.76 34.25 122.53 34.25 121.65 35.45 120.76 34.25"/>
                <polygon class="cls-1" points="121.63 33.04 123.41 33.04 122.53 34.25 121.63 33.04"/>
                <polygon class="cls-1" points="122.51 31.84 124.29 31.84 123.41 33.04 122.51 31.84"/>
              </g>
              <polygon class="cls-1" points="122.86 42.68 123.74 43.89 121.96 43.89 122.86 42.68"/>
              <polygon class="cls-1" points="124.73 31.84 126.51 31.84 125.61 33.04 124.73 31.84"/>
              <polygon class="cls-1" points="125.61 33.04 127.39 33.04 126.49 34.25 125.61 33.04"/>
              <polygon class="cls-1" points="126.49 34.25 128.26 34.25 127.37 35.45 126.49 34.25"/>
              <polygon class="cls-1" points="127.37 35.45 129.14 35.45 128.25 36.66 127.37 35.45"/>
              <polygon class="cls-1" points="128.25 36.66 130.02 36.66 129.13 37.86 128.25 36.66"/>
            </g>
            <g>
              <polygon class="cls-1" points="123.98 44.24 124.86 45.45 123.09 45.45 123.98 44.24"/>
              <polygon class="cls-1" points="124.86 45.45 125.74 46.66 123.97 46.66 124.86 45.45"/>
              <polygon class="cls-1" points="125.74 46.66 126.62 47.86 124.84 47.86 125.74 46.66"/>
              <polygon class="cls-1" points="126.62 47.86 127.5 49.07 125.72 49.07 126.62 47.86"/>
              <g>
                <polygon class="cls-1" points="123.64 43.04 125.41 43.04 124.53 44.24 123.64 43.04"/>
                <polygon class="cls-1" points="124.51 41.83 126.29 41.83 125.41 43.04 124.51 41.83"/>
                <polygon class="cls-1" points="125.39 40.63 127.17 40.63 126.29 41.83 125.39 40.63"/>
                <polygon class="cls-1" points="126.27 39.42 128.04 39.42 127.17 40.63 126.27 39.42"/>
                <polygon class="cls-1" points="127.15 38.22 128.92 38.22 128.04 39.42 127.15 38.22"/>
              </g>
              <polygon class="cls-1" points="127.5 49.07 128.37 50.27 126.6 50.27 127.5 49.07"/>
              <polygon class="cls-1" points="129.37 38.22 131.15 38.22 130.25 39.42 129.37 38.22"/>
              <polygon class="cls-1" points="130.25 49.07 131.15 50.27 129.37 50.27 130.25 49.07"/>
              <polygon class="cls-1" points="130.25 39.42 132.02 39.42 131.13 40.63 130.25 39.42"/>
              <polygon class="cls-1" points="131.13 47.86 132.02 49.07 130.25 49.07 131.13 47.86"/>
              <polygon class="cls-1" points="131.13 40.63 132.9 40.63 132.01 41.83 131.13 40.63"/>
              <polygon class="cls-1" points="132.01 46.66 132.9 47.86 131.13 47.86 132.01 46.66"/>
              <polygon class="cls-1" points="132.01 41.83 133.78 41.83 132.88 43.04 132.01 41.83"/>
              <polygon class="cls-1" points="132.88 45.45 133.78 46.66 132.01 46.66 132.88 45.45"/>
              <polygon class="cls-1" points="132.88 43.04 134.66 43.04 133.76 44.24 132.88 43.04"/>
              <polygon class="cls-1" points="133.76 44.24 134.66 45.45 132.88 45.45 133.76 44.24"/>
            </g>
          </g>
        </g>
      </g>
      <g>
        <g>
          <path class="cls-1" d="M182.11,34.85v-.96h-.95v-1.93h.95v-.95h2.85v-.92h-2.85v-.97h3.82v.95h.95v4.77h-4.76ZM184.96,31.99h-1.88v1.89h1.88v-1.89Z"/>
          <path class="cls-1" d="M193.9,33.9v.96h-2.86v-.97h1.89v-.93h-.95v-.95h-.95v-1.93h.95v-.95h2.87v.97h-1.9v.93h.95v.95h.96s0,1.91,0,1.91h-.96Z"/>
          <path class="cls-1" d="M199.96,34.85v-.96h-.95v-1.93h.95v-.95h2.85v-.92h-2.85v-.97h3.82v.95h.95v4.77h-4.76ZM202.81,31.99h-1.88v1.89h1.88v-1.89Z"/>
          <path class="cls-1" d="M216.49,34.85v-4.75h-.92v.95h-.96v3.81h-1.91v-4.75h-.93v.95h-.95v3.81h-1.91v-5.72h1.91v.95h.93v-.95h1.91v.95h1.88v-.95h1.91v.95h.96v4.77h-1.91Z"/>
          <path class="cls-1" d="M227.34,33.9v.96h-4.76v-7.62h1.91v1.9h2.85v.95h.95v3.82h-.95ZM226.37,30.1h-1.88v3.78h1.88v-3.78Z"/>
          <path class="cls-1" d="M232.45,34.85v-7.62h1.91v7.62h-1.91Z"/>
          <path class="cls-1" d="M243.29,33.9v.96h-3.82v-.96h-.95v-3.82h.95v-.95h3.82v.95h.95v.97h-.95v.95h-1.9v.95h-.95v.95h2.83v-.97h.97v.98h-.95ZM242.32,30.1h-1.88v1.87h.93v-.93h.95v-.93Z"/>
          <path class="cls-1" d="M249.35,34.85v-.96h-.95v-1.93h.95v-.95h2.85v-.92h-2.85v-.97h3.82v.95h.95v4.77h-4.76ZM252.2,31.99h-1.88v1.89h1.88v-1.89Z"/>
          <path class="cls-1" d="M264.36,34.85v-.96h-.95v-3.82h.95v-.95h2.85v-1.9h1.91v7.62h-4.76ZM267.21,30.1h-1.88v3.78h1.88v-3.78Z"/>
          <path class="cls-1" d="M278.05,33.9v.96h-3.82v-.96h-.95v-3.82h.95v-.95h3.82v.95h.95v.97h-.95v.95h-1.9v.95h-.95v.95h2.83v-.97h.97v.98h-.95ZM277.09,30.1h-1.88v1.87h.93v-.93h.95v-.93Z"/>
          <path class="cls-1" d="M295.89,34.85v-4.75h-.92v.95h-.96v3.81h-1.91v-4.75h-.93v.95h-.95v3.81h-1.91v-5.72h1.91v.95h.93v-.95h1.91v.95h1.88v-.95h1.91v.95h.96v4.77h-1.91Z"/>
          <path class="cls-1" d="M306.74,33.9v.96h-3.82v-.96h-.95v-4.76h1.91v4.75h1.88v-4.75h1.91v4.76h-.95Z"/>
          <path class="cls-1" d="M315.65,34.85v-4.75h-.93v.95h-.95v3.81h-1.91v-5.72h1.91v.95h.93v-.95h1.91v.95h.95v4.77h-1.91Z"/>
          <path class="cls-1" d="M322.68,34.85v-.96h-.95v-3.82h.95v-.95h2.85v-1.9h1.91v7.62h-4.76ZM325.53,30.1h-1.88v3.78h1.88v-3.78Z"/>
          <path class="cls-1" d="M336.37,33.9v.96h-3.82v-.96h-.95v-3.82h.95v-.95h3.82v.95h.95v3.82h-.95ZM335.41,30.1h-1.88v3.78h1.88v-3.78Z"/>
          <path class="cls-1" d="M344.35,33.9v.96h-2.86v-.97h1.89v-.93h-.95v-.95h-.95v-1.93h.95v-.95h2.87v.97h-1.9v.93h.95v.95h.96s0,1.91,0,1.91h-.96Z"/>
          <path class="cls-1" d="M359.36,33.9v.96h-2.85v1.9h-1.91v-7.62h4.76v.95h.95v3.82h-.95ZM358.39,30.1h-1.88v3.78h1.88v-3.78Z"/>
          <path class="cls-1" d="M369.24,33.9v.96h-3.82v-.96h-.95v-3.82h.95v-.95h3.82v.95h.95v3.82h-.95ZM368.27,30.1h-1.88v3.78h1.88v-3.78Z"/>
          <path class="cls-1" d="M377.21,33.9v.96h-2.86v-.97h1.89v-.93h-.95v-.95h-.95v-1.93h.95v-.95h2.87v.97h-1.9v.93h.95v.95h.96s0,1.91,0,1.91h-.96Z"/>
          <path class="cls-1" d="M382.33,28.2v-.97h1.91v.97h-1.91ZM382.33,34.85v-5.72h1.91v5.72h-1.91Z"/>
          <path class="cls-1" d="M393.17,33.9v.96h-4.76v-7.62h1.91v1.9h2.85v.95h.95v3.82h-.95ZM392.2,30.1h-1.88v3.78h1.88v-3.78Z"/>
          <path class="cls-1" d="M398.28,34.85v-7.62h1.91v7.62h-1.91Z"/>
          <path class="cls-1" d="M409.12,33.9v.96h-3.82v-.96h-.95v-3.82h.95v-.95h3.82v.95h.95v.97h-.95v.95h-1.9v.95h-.95v.95h2.83v-.97h.97v.98h-.95ZM408.15,30.1h-1.88v1.87h.93v-.93h.95v-.93Z"/>
          <path class="cls-1" d="M417.1,33.9v.96h-2.86v-.97h1.89v-.93h-.95v-.95h-.95v-1.93h.95v-.95h2.87v.97h-1.9v.93h.95v.95h.96s0,1.91,0,1.91h-.96Z"/>
        </g>
        <g>
          <path class="cls-1" d="M184.78,48.75v1.52h-1.53v-1.52h-2.28v-1.52h.76v-1.53h.77v1.54h-.76v.74h1.5v-3.8h1.53v3.8h.76v.77h-.76Z"/>
          <path class="cls-1" d="M191.16,46.47v1.52h-.76v2.28s-1.52,0-1.52,0v-2.3h.76v-1.52h.76v-1.5h-2.28v-.77h3.82v2.3h-.77Z"/>
          <path class="cls-1" d="M201.65,49.51v.77h-2.29v-.77h1.51v-.75h-.76v-.76h-.76v-1.54h.76v-.76h2.3v.77h-1.52v.75h.76v.76h.77s0,1.53,0,1.53h-.77Z"/>
          <path class="cls-1" d="M206.5,50.27v-.77h-.76v-1.54h.76v-.76h2.28v-.74h-2.28v-.77h3.05v.76h.76v3.82h-3.81ZM208.78,47.98h-1.5v1.51h1.5v-1.51Z"/>
          <path class="cls-1" d="M213.65,50.27v-6.1h1.53v6.1h-1.53Z"/>
          <path class="cls-1" d="M222.31,49.51v.77h-3.05v-.77h-.76v-3.05h.76v-.76h3.05v.76h.76v3.05h-.76ZM220.79,44.19v.76h-.77v-.77h.77v-.76h.77v.77h-.77ZM221.54,46.47h-1.5v3.03h1.5v-3.03Z"/>
          <path class="cls-1" d="M229.44,50.27v-3.8h-.75v.76h-.76v3.04h-1.53v-4.58h1.53v.76h.75v-.76h1.53v.76h.76v3.82h-1.53Z"/>
          <path class="cls-1" d="M241.45,50.27v-3.8h-.75v.76h-.76v3.04h-1.53v-4.58h1.53v.76h.75v-.76h1.53v.76h.76v3.82h-1.53Z"/>
          <path class="cls-1" d="M247.07,50.27v-.77h-.76v-1.54h.76v-.76h2.28v-.74h-2.28v-.77h3.05v.76h.76v3.82h-3.81ZM249.35,47.98h-1.5v1.51h1.5v-1.51Z"/>
          <path class="cls-1" d="M257.27,49.51v.77h-2.3v-.77h-.76v-3.05h.76v-.76h3.05v1.53h-.77v-.76h-1.5v3.03h1.5v-.77h.77v.78h-.76Z"/>
          <path class="cls-1" d="M261.36,44.95v-.77h1.53v.77h-1.53ZM261.36,50.27v-4.58h1.53v4.58h-1.53Z"/>
          <path class="cls-1" d="M270.03,49.51v.77h-3.05v-.77h-.76v-3.05h.76v-.76h3.05v.76h.76v3.05h-.76ZM269.25,46.47h-1.5v3.03h1.5v-3.03Z"/>
          <path class="cls-1" d="M277.16,50.27v-3.8h-.75v.76h-.76v3.04h-1.53v-4.58h1.53v.76h.75v-.76h1.53v.76h.76v3.82h-1.53Z"/>
          <path class="cls-1" d="M282.78,50.27v-.77h-.76v-1.54h.76v-.76h2.28v-.74h-2.28v-.77h3.05v.76h.76v3.82h-3.81ZM285.06,47.98h-1.5v1.51h1.5v-1.51Z"/>
          <path class="cls-1" d="M289.93,50.27v-6.1h1.53v6.1h-1.53Z"/>
          <path class="cls-1" d="M299.64,50.27v-.77h-.76v-3.05h.76v-.76h2.28v-1.52h1.53v6.1h-3.81ZM301.92,46.47h-1.5v3.03h1.5v-3.03Z"/>
          <path class="cls-1" d="M310.6,49.51v.77h-3.05v-.77h-.76v-3.05h.76v-.76h3.05v.76h.76v.77h-.76v.76h-1.52v.76h-.76v.76h2.26v-.77h.77v.78h-.76ZM309.83,46.47h-1.5v1.5h.75v-.75h.76v-.75Z"/>
          <path class="cls-1" d="M319.55,50.27v-.77h-.76v-1.54h.76v-.76h2.28v-.74h-2.28v-.77h3.05v.76h.76v3.82h-3.81ZM321.83,47.98h-1.5v1.51h1.5v-1.51Z"/>
          <path class="cls-1" d="M328.23,47.23v3.04h-1.53v-4.58h1.53v.76h.75v-.76h.77v1.53h-1.52Z"/>
          <path class="cls-1" d="M334.61,46.47v3.8h-1.53v-3.8h-.77v-.77h.77v-1.52h1.53v1.52h.76v.77h-.76Z"/>
          <path class="cls-1" d="M337.94,44.95v-.77h1.53v.77h-1.53ZM337.94,50.27v-4.58h1.53v4.58h-1.53Z"/>
          <path class="cls-1" d="M345.09,49.51v.77h-2.29v-.77h1.51v-.75h-.76v-.76h-.76v-1.54h.76v-.76h2.3v.77h-1.52v.75h.76v.76h.77s0,1.53,0,1.53h-.77Z"/>
          <path class="cls-1" d="M350.71,46.47v3.8h-1.53v-3.8h-.77v-.77h.77v-1.52h1.53v1.52h.76v.77h-.76Z"/>
          <path class="cls-1" d="M354.8,50.27v-.77h-.76v-1.54h.76v-.76h2.28v-.74h-2.28v-.77h3.05v.76h.76v3.82h-3.81ZM357.08,47.98h-1.5v1.51h1.5v-1.51Z"/>
          <path class="cls-1" d="M364.23,49.51v.77h-2.29v-.77h1.51v-.75h-.76v-.76h-.76v-1.54h.76v-.76h2.3v.77h-1.52v.75h.76v.76h.77s0,1.53,0,1.53h-.77Z"/>
        </g>
      </g>
    </g>
  </g>
</svg>