<?xml version="1.0" encoding="UTF-8"?>
<svg xmlns="http://www.w3.org/2000/svg" viewBox="0 0 158.28 160.98">
  <defs>
    <style>
      .cls-1 {
        opacity: .15;
      }

      .cls-1, .cls-2, .cls-3, .cls-4, .cls-5 {
        fill: #b5477d;
      }

      .cls-2 {
        opacity: .4;
      }

      .cls-3, .cls-6 {
        opacity: .6;
      }

      .cls-4 {
        opacity: .8;
      }

      .cls-7 {
        isolation: isolate;
      }

      .cls-8 {
        mix-blend-mode: multiply;
      }

      .cls-9 {
        fill: #d5a24a;
      }
    </style>
  </defs>
  <g class="cls-7">
    <g id="Layer_2" data-name="Layer 2">
      <g id="Fotos">
        <g>
          <rect class="cls-9" x="0" y="0" width="158.28" height="160.98"/>
          <g class="cls-8">
            <path class="cls-2" d="M82.05,133.86h27.79l2.32,3.24h-32.42l2.32-3.24ZM112.15,138.49l-2.32,3.24h-27.79l-2.32-3.24h32.42ZM85.43,129.16l21.04-.07v.07l2.38,3.24-25.8.07,2.38-3.31ZM108.85,143.19l-2.38,3.24v.07l-21.04-.07-2.38-3.31,25.8.07ZM88.8,124.53h14.36l2.38,3.31h-19.12l2.38-3.31ZM105.54,147.75l-2.38,3.31h-14.36l-2.38-3.31h19.12ZM92.17,119.9h7.61l2.38,3.31h-12.37l2.38-3.31ZM102.16,152.38l-2.38,3.31h-7.61l-2.38-3.31h12.37ZM96.01,114.6l2.84,3.97h-5.76l2.91-3.97ZM98.86,157.01l-2.84,3.97-2.91-3.97h5.76Z"/>
            <polygon class="cls-4" points="112.82 92.06 129.56 68.97 112.82 45.75 95.95 68.97 112.82 92.06"/>
            <polygon class="cls-4" points="79.21 92.06 95.95 68.97 79.21 45.75 62.33 68.97 79.21 92.06"/>
            <polygon class="cls-4" points="45.6 92.06 62.33 68.97 45.6 45.75 28.72 68.97 45.6 92.06"/>
            <polygon class="cls-1" points="112.82 46.31 129.56 23.22 112.82 0 95.95 23.22 112.82 46.31"/>
            <polygon class="cls-1" points="79.21 46.31 95.95 23.22 79.21 0 62.33 23.22 79.21 46.31"/>
            <polygon class="cls-1" points="45.6 46.31 62.33 23.22 45.6 0 28.72 23.22 45.6 46.31"/>
            <polygon class="cls-3" points="112.82 137.95 129.56 114.86 112.82 91.64 95.95 114.86 112.82 137.95"/>
            <g class="cls-6">
              <polygon class="cls-5" points="79.21 137.95 95.95 114.86 79.21 91.64 62.33 114.86 79.21 137.95"/>
              <polygon class="cls-5" points="45.6 137.95 62.33 114.86 45.6 91.64 28.72 114.86 45.6 137.95"/>
            </g>
            <path class="cls-2" d="M48.44,133.86h27.79l2.32,3.24h-32.42l2.32-3.24ZM78.54,138.49l-2.32,3.24h-27.79l-2.32-3.24h32.42ZM51.82,129.16l21.04-.07v.07l2.38,3.24-25.8.07,2.38-3.31ZM75.24,143.19l-2.38,3.24v.07l-21.04-.07-2.38-3.31,25.8.07ZM55.19,124.53h14.36l2.38,3.31h-19.12l2.38-3.31ZM71.93,147.75l-2.38,3.31h-14.36l-2.38-3.31h19.12ZM58.56,119.9h7.61l2.38,3.31h-12.37l2.38-3.31ZM68.55,152.38l-2.38,3.31h-7.61l-2.38-3.31h12.37ZM62.4,114.6l2.84,3.97h-5.76l2.91-3.97ZM65.25,157.01l-2.84,3.97-2.91-3.97h5.76Z"/>
            <g>
              <path class="cls-5" d="M82.05,87.91h27.79l2.32,3.24h-32.42l2.32-3.24ZM112.15,92.54l-2.32,3.24h-27.79l-2.32-3.24h32.42ZM85.43,83.21l21.04-.07v.07l2.38,3.24-25.8.07,2.38-3.31ZM108.85,97.23l-2.38,3.24v.07l-21.04-.07-2.38-3.31,25.8.07ZM88.8,78.58h14.36l2.38,3.31h-19.12l2.38-3.31ZM105.54,101.8l-2.38,3.31h-14.36l-2.38-3.31h19.12ZM92.17,73.95h7.61l2.38,3.31h-12.37l2.38-3.31ZM102.16,106.43l-2.38,3.31h-7.61l-2.38-3.31h12.37ZM96.01,68.65l2.84,3.97h-5.76l2.91-3.97ZM98.86,111.06l-2.84,3.97-2.91-3.97h5.76Z"/>
              <path class="cls-5" d="M48.44,87.91h27.79l2.32,3.24h-32.42l2.32-3.24ZM78.54,92.54l-2.32,3.24h-27.79l-2.32-3.24h32.42ZM51.82,83.21l21.04-.07v.07l2.38,3.24-25.8.07,2.38-3.31ZM75.24,97.23l-2.38,3.24v.07l-21.04-.07-2.38-3.31,25.8.07ZM55.19,78.58h14.36l2.38,3.31h-19.12l2.38-3.31ZM71.93,101.8l-2.38,3.31h-14.36l-2.38-3.31h19.12ZM58.56,73.95h7.61l2.38,3.31h-12.37l2.38-3.31ZM68.55,106.43l-2.38,3.31h-7.61l-2.38-3.31h12.37ZM62.4,68.65l2.84,3.97h-5.76l2.91-3.97ZM65.25,111.06l-2.84,3.97-2.91-3.97h5.76Z"/>
            </g>
            <g class="cls-6">
              <path class="cls-5" d="M82.05,42.1h27.79l2.32,3.24h-32.42l2.32-3.24ZM112.15,46.73l-2.32,3.24h-27.79l-2.32-3.24h32.42ZM85.43,37.4l21.04-.07v.07l2.38,3.24-25.8.07,2.38-3.31ZM108.85,51.42l-2.38,3.24v.07l-21.04-.07-2.38-3.31,25.8.07ZM88.8,32.77h14.36l2.38,3.31h-19.12l2.38-3.31ZM105.54,55.99l-2.38,3.31h-14.36l-2.38-3.31h19.12ZM92.17,28.14h7.61l2.38,3.31h-12.37l2.38-3.31ZM102.16,60.62l-2.38,3.31h-7.61l-2.38-3.31h12.37ZM96.01,22.84l2.84,3.97h-5.76l2.91-3.97ZM98.86,65.25l-2.84,3.97-2.91-3.97h5.76Z"/>
              <path class="cls-5" d="M48.44,42.1h27.79l2.32,3.24h-32.42l2.32-3.24ZM78.54,46.73l-2.32,3.24h-27.79l-2.32-3.24h32.42ZM51.82,37.4l21.04-.07v.07l2.38,3.24-25.8.07,2.38-3.31ZM75.24,51.42l-2.38,3.24v.07l-21.04-.07-2.38-3.31,25.8.07ZM55.19,32.77h14.36l2.38,3.31h-19.12l2.38-3.31ZM71.93,55.99l-2.38,3.31h-14.36l-2.38-3.31h19.12ZM58.56,28.14h7.61l2.38,3.31h-12.37l2.38-3.31ZM68.55,60.62l-2.38,3.31h-7.61l-2.38-3.31h12.37ZM62.4,22.84l2.84,3.97h-5.76l2.91-3.97ZM65.25,65.25l-2.84,3.97-2.91-3.97h5.76Z"/>
            </g>
          </g>
        </g>
      </g>
    </g>
  </g>
</svg>