<?xml version="1.0" encoding="UTF-8"?>
<svg id="Layer_2" data-name="Layer 2" xmlns="http://www.w3.org/2000/svg" viewBox="0 0 849.71 355.15">
  <defs>
    <style>
      .cls-1 {
        fill: #fff;
      }
    </style>
  </defs>
  <g id="Contenido">
    <g>
      <g>
        <g>
          <path class="cls-1" d="M178.65,31.25l4.38-6.09,4.3,6.09-4.3,5.91-4.38-5.91ZM213.62,19.25l-4.47,5.91,4.47,6.09-4.47,5.91,4.47,6.09-4.47,5.91-4.38-5.91-4.3,5.91-4.38-5.91-4.3,5.91-4.47-5.91,4.47-6.09-4.47-5.91,4.47-6.09-4.47-5.91,4.47-6.09,4.3,6.09,4.38-6.09,4.3,6.09,4.38-6.09,4.47,6.09ZM200.47,1.17l4.3,6.09-4.3,5.91-4.38-5.91,4.38-6.09ZM200.47,61.16l-4.38-5.91,4.38-6.09,4.3,6.09-4.3,5.91ZM218,25.16l4.3,6.09-4.3,5.91-4.38-5.91,4.38-6.09Z"/>
          <path class="cls-1" d="M178.65,93.66l4.38-6.09,4.3,6.09-4.3,5.91-4.38-5.91ZM213.62,81.66l-4.47,5.91,4.47,6.09-4.47,5.91,4.47,6.09-4.47,5.91-4.38-5.91-4.3,5.91-4.38-5.91-4.3,5.91-4.47-5.91,4.47-6.09-4.47-5.91,4.47-6.09-4.47-5.91,4.47-6.09,4.3,6.09,4.38-6.09,4.3,6.09,4.38-6.09,4.47,6.09ZM200.47,63.58l4.3,6.09-4.3,5.91-4.38-5.91,4.38-6.09ZM200.47,123.57l-4.38-5.91,4.38-6.09,4.3,6.09-4.3,5.91ZM218,87.57l4.3,6.09-4.3,5.91-4.38-5.91,4.38-6.09Z"/>
          <path class="cls-1" d="M178.65,156.9l4.38-6.09,4.3,6.09-4.3,5.91-4.38-5.91ZM213.62,144.9l-4.47,5.91,4.47,6.09-4.47,5.91,4.47,6.09-4.47,5.91-4.38-5.91-4.3,5.91-4.38-5.91-4.3,5.91-4.47-5.91,4.47-6.09-4.47-5.91,4.47-6.09-4.47-5.91,4.47-6.09,4.3,6.09,4.38-6.09,4.3,6.09,4.38-6.09,4.47,6.09ZM200.47,126.81l4.3,6.09-4.3,5.91-4.38-5.91,4.38-6.09ZM200.47,186.81l-4.38-5.91,4.38-6.09,4.3,6.09-4.3,5.91ZM218,150.81l4.3,6.09-4.3,5.91-4.38-5.91,4.38-6.09Z"/>
          <path class="cls-1" d="M178.65,220.14l4.38-6.09,4.3,6.09-4.3,5.91-4.38-5.91ZM213.62,208.14l-4.47,5.91,4.47,6.09-4.47,5.91,4.47,6.09-4.47,5.91-4.38-5.91-4.3,5.91-4.38-5.91-4.3,5.91-4.47-5.91,4.47-6.09-4.47-5.91,4.47-6.09-4.47-5.91,4.47-6.09,4.3,6.09,4.38-6.09,4.3,6.09,4.38-6.09,4.47,6.09ZM200.47,190.05l4.3,6.09-4.3,5.91-4.38-5.91,4.38-6.09ZM200.47,250.05l-4.38-5.91,4.38-6.09,4.3,6.09-4.3,5.91ZM218,214.05l4.3,6.09-4.3,5.91-4.38-5.91,4.38-6.09Z"/>
          <path class="cls-1" d="M227.46,30.36l4.38-6.09,4.3,6.09-4.3,5.91-4.38-5.91ZM262.43,18.36l-4.47,5.91,4.47,6.09-4.47,5.91,4.47,6.09-4.47,5.91-4.38-5.91-4.3,5.91-4.38-5.91-4.3,5.91-4.47-5.91,4.47-6.09-4.47-5.91,4.47-6.09-4.47-5.91,4.47-6.09,4.3,6.09,4.38-6.09,4.3,6.09,4.38-6.09,4.47,6.09ZM249.29.28l4.3,6.09-4.3,5.91-4.38-5.91,4.38-6.09ZM249.29,60.27l-4.38-5.91,4.38-6.09,4.3,6.09-4.3,5.91ZM266.82,24.28l4.3,6.09-4.3,5.91-4.38-5.91,4.38-6.09Z"/>
          <path class="cls-1" d="M227.46,156.9l4.38-6.09,4.3,6.09-4.3,5.91-4.38-5.91ZM262.43,144.9l-4.47,5.91,4.47,6.09-4.47,5.91,4.47,6.09-4.47,5.91-4.38-5.91-4.3,5.91-4.38-5.91-4.3,5.91-4.47-5.91,4.47-6.09-4.47-5.91,4.47-6.09-4.47-5.91,4.47-6.09,4.3,6.09,4.38-6.09,4.3,6.09,4.38-6.09,4.47,6.09ZM249.29,126.81l4.3,6.09-4.3,5.91-4.38-5.91,4.38-6.09ZM249.29,186.81l-4.38-5.91,4.38-6.09,4.3,6.09-4.3,5.91ZM266.82,150.81l4.3,6.09-4.3,5.91-4.38-5.91,4.38-6.09Z"/>
          <path class="cls-1" d="M276.28,30.36l4.38-6.09,4.3,6.09-4.3,5.91-4.38-5.91ZM311.25,18.36l-4.47,5.91,4.47,6.09-4.47,5.91,4.47,6.09-4.47,5.91-4.38-5.91-4.3,5.91-4.38-5.91-4.3,5.91-4.47-5.91,4.47-6.09-4.47-5.91,4.47-6.09-4.47-5.91,4.47-6.09,4.3,6.09,4.38-6.09,4.3,6.09,4.38-6.09,4.47,6.09ZM298.11.28l4.3,6.09-4.3,5.91-4.38-5.91,4.38-6.09ZM298.11,60.27l-4.38-5.91,4.38-6.09,4.3,6.09-4.3,5.91ZM315.63,24.28l4.3,6.09-4.3,5.91-4.38-5.91,4.38-6.09Z"/>
          <path class="cls-1" d="M276.28,93.66l4.38-6.09,4.3,6.09-4.3,5.91-4.38-5.91ZM311.25,81.66l-4.47,5.91,4.47,6.09-4.47,5.91,4.47,6.09-4.47,5.91-4.38-5.91-4.3,5.91-4.38-5.91-4.3,5.91-4.47-5.91,4.47-6.09-4.47-5.91,4.47-6.09-4.47-5.91,4.47-6.09,4.3,6.09,4.38-6.09,4.3,6.09,4.38-6.09,4.47,6.09ZM298.11,63.58l4.3,6.09-4.3,5.91-4.38-5.91,4.38-6.09ZM298.11,123.57l-4.38-5.91,4.38-6.09,4.3,6.09-4.3,5.91ZM315.63,87.57l4.3,6.09-4.3,5.91-4.38-5.91,4.38-6.09Z"/>
          <path class="cls-1" d="M276.28,156.9l4.38-6.09,4.3,6.09-4.3,5.91-4.38-5.91ZM311.25,144.9l-4.47,5.91,4.47,6.09-4.47,5.91,4.47,6.09-4.47,5.91-4.38-5.91-4.3,5.91-4.38-5.91-4.3,5.91-4.47-5.91,4.47-6.09-4.47-5.91,4.47-6.09-4.47-5.91,4.47-6.09,4.3,6.09,4.38-6.09,4.3,6.09,4.38-6.09,4.47,6.09ZM298.11,126.81l4.3,6.09-4.3,5.91-4.38-5.91,4.38-6.09ZM298.11,186.81l-4.38-5.91,4.38-6.09,4.3,6.09-4.3,5.91ZM315.63,150.81l4.3,6.09-4.3,5.91-4.38-5.91,4.38-6.09Z"/>
          <path class="cls-1" d="M276.28,220.14l4.38-6.09,4.3,6.09-4.3,5.91-4.38-5.91ZM311.25,208.14l-4.47,5.91,4.47,6.09-4.47,5.91,4.47,6.09-4.47,5.91-4.38-5.91-4.3,5.91-4.38-5.91-4.3,5.91-4.47-5.91,4.47-6.09-4.47-5.91,4.47-6.09-4.47-5.91,4.47-6.09,4.3,6.09,4.38-6.09,4.3,6.09,4.38-6.09,4.47,6.09ZM298.11,190.05l4.3,6.09-4.3,5.91-4.38-5.91,4.38-6.09ZM298.11,250.05l-4.38-5.91,4.38-6.09,4.3,6.09-4.3,5.91ZM315.63,214.05l4.3,6.09-4.3,5.91-4.38-5.91,4.38-6.09Z"/>
        </g>
        <g>
          <path class="cls-1" d="M354.31,31.25l4.38-6.09,4.3,6.09-4.3,5.91-4.38-5.91ZM389.28,19.25l-4.47,5.91,4.47,6.09-4.47,5.91,4.47,6.09-4.47,5.91-4.38-5.91-4.3,5.91-4.38-5.91-4.3,5.91-4.47-5.91,4.47-6.09-4.47-5.91,4.47-6.09-4.47-5.91,4.47-6.09,4.3,6.09,4.38-6.09,4.3,6.09,4.38-6.09,4.47,6.09ZM376.13,1.17l4.3,6.09-4.3,5.91-4.38-5.91,4.38-6.09ZM376.13,61.16l-4.38-5.91,4.38-6.09,4.3,6.09-4.3,5.91ZM393.66,25.16l4.3,6.09-4.3,5.91-4.38-5.91,4.38-6.09Z"/>
          <path class="cls-1" d="M354.31,93.66l4.38-6.09,4.3,6.09-4.3,5.91-4.38-5.91ZM389.28,81.66l-4.47,5.91,4.47,6.09-4.47,5.91,4.47,6.09-4.47,5.91-4.38-5.91-4.3,5.91-4.38-5.91-4.3,5.91-4.47-5.91,4.47-6.09-4.47-5.91,4.47-6.09-4.47-5.91,4.47-6.09,4.3,6.09,4.38-6.09,4.3,6.09,4.38-6.09,4.47,6.09ZM376.13,63.58l4.3,6.09-4.3,5.91-4.38-5.91,4.38-6.09ZM376.13,123.57l-4.38-5.91,4.38-6.09,4.3,6.09-4.3,5.91ZM393.66,87.57l4.3,6.09-4.3,5.91-4.38-5.91,4.38-6.09Z"/>
          <path class="cls-1" d="M354.31,156.9l4.38-6.09,4.3,6.09-4.3,5.91-4.38-5.91ZM389.28,144.9l-4.47,5.91,4.47,6.09-4.47,5.91,4.47,6.09-4.47,5.91-4.38-5.91-4.3,5.91-4.38-5.91-4.3,5.91-4.47-5.91,4.47-6.09-4.47-5.91,4.47-6.09-4.47-5.91,4.47-6.09,4.3,6.09,4.38-6.09,4.3,6.09,4.38-6.09,4.47,6.09ZM376.13,126.81l4.3,6.09-4.3,5.91-4.38-5.91,4.38-6.09ZM376.13,186.81l-4.38-5.91,4.38-6.09,4.3,6.09-4.3,5.91ZM393.66,150.81l4.3,6.09-4.3,5.91-4.38-5.91,4.38-6.09Z"/>
          <path class="cls-1" d="M354.31,220.14l4.38-6.09,4.3,6.09-4.3,5.91-4.38-5.91ZM389.28,208.14l-4.47,5.91,4.47,6.09-4.47,5.91,4.47,6.09-4.47,5.91-4.38-5.91-4.3,5.91-4.38-5.91-4.3,5.91-4.47-5.91,4.47-6.09-4.47-5.91,4.47-6.09-4.47-5.91,4.47-6.09,4.3,6.09,4.38-6.09,4.3,6.09,4.38-6.09,4.47,6.09ZM376.13,190.05l4.3,6.09-4.3,5.91-4.38-5.91,4.38-6.09ZM376.13,250.05l-4.38-5.91,4.38-6.09,4.3,6.09-4.3,5.91ZM393.66,214.05l4.3,6.09-4.3,5.91-4.38-5.91,4.38-6.09Z"/>
          <path class="cls-1" d="M403.12,220.14l4.38-6.09,4.3,6.09-4.3,5.91-4.38-5.91ZM438.09,208.14l-4.47,5.91,4.47,6.09-4.47,5.91,4.47,6.09-4.47,5.91-4.38-5.91-4.3,5.91-4.38-5.91-4.3,5.91-4.47-5.91,4.47-6.09-4.47-5.91,4.47-6.09-4.47-5.91,4.47-6.09,4.3,6.09,4.38-6.09,4.3,6.09,4.38-6.09,4.47,6.09ZM424.95,190.05l4.3,6.09-4.3,5.91-4.38-5.91,4.38-6.09ZM424.95,250.05l-4.38-5.91,4.38-6.09,4.3,6.09-4.3,5.91ZM442.48,214.05l4.3,6.09-4.3,5.91-4.38-5.91,4.38-6.09Z"/>
          <path class="cls-1" d="M451.94,30.36l4.38-6.09,4.3,6.09-4.3,5.91-4.38-5.91ZM486.91,18.36l-4.47,5.91,4.47,6.09-4.47,5.91,4.47,6.09-4.47,5.91-4.38-5.91-4.3,5.91-4.38-5.91-4.3,5.91-4.47-5.91,4.47-6.09-4.47-5.91,4.47-6.09-4.47-5.91,4.47-6.09,4.3,6.09,4.38-6.09,4.3,6.09,4.38-6.09,4.47,6.09ZM473.77.28l4.3,6.09-4.3,5.91-4.38-5.91,4.38-6.09ZM473.77,60.27l-4.38-5.91,4.38-6.09,4.3,6.09-4.3,5.91ZM491.29,24.28l4.3,6.09-4.3,5.91-4.38-5.91,4.38-6.09Z"/>
          <path class="cls-1" d="M451.94,93.66l4.38-6.09,4.3,6.09-4.3,5.91-4.38-5.91ZM486.91,81.66l-4.47,5.91,4.47,6.09-4.47,5.91,4.47,6.09-4.47,5.91-4.38-5.91-4.3,5.91-4.38-5.91-4.3,5.91-4.47-5.91,4.47-6.09-4.47-5.91,4.47-6.09-4.47-5.91,4.47-6.09,4.3,6.09,4.38-6.09,4.3,6.09,4.38-6.09,4.47,6.09ZM473.77,63.58l4.3,6.09-4.3,5.91-4.38-5.91,4.38-6.09ZM473.77,123.57l-4.38-5.91,4.38-6.09,4.3,6.09-4.3,5.91ZM491.29,87.57l4.3,6.09-4.3,5.91-4.38-5.91,4.38-6.09Z"/>
          <path class="cls-1" d="M451.94,156.9l4.38-6.09,4.3,6.09-4.3,5.91-4.38-5.91ZM486.91,144.9l-4.47,5.91,4.47,6.09-4.47,5.91,4.47,6.09-4.47,5.91-4.38-5.91-4.3,5.91-4.38-5.91-4.3,5.91-4.47-5.91,4.47-6.09-4.47-5.91,4.47-6.09-4.47-5.91,4.47-6.09,4.3,6.09,4.38-6.09,4.3,6.09,4.38-6.09,4.47,6.09ZM473.77,126.81l4.3,6.09-4.3,5.91-4.38-5.91,4.38-6.09ZM473.77,186.81l-4.38-5.91,4.38-6.09,4.3,6.09-4.3,5.91ZM491.29,150.81l4.3,6.09-4.3,5.91-4.38-5.91,4.38-6.09Z"/>
          <path class="cls-1" d="M451.94,220.14l4.38-6.09,4.3,6.09-4.3,5.91-4.38-5.91ZM486.91,208.14l-4.47,5.91,4.47,6.09-4.47,5.91,4.47,6.09-4.47,5.91-4.38-5.91-4.3,5.91-4.38-5.91-4.3,5.91-4.47-5.91,4.47-6.09-4.47-5.91,4.47-6.09-4.47-5.91,4.47-6.09,4.3,6.09,4.38-6.09,4.3,6.09,4.38-6.09,4.47,6.09ZM473.77,190.05l4.3,6.09-4.3,5.91-4.38-5.91,4.38-6.09ZM473.77,250.05l-4.38-5.91,4.38-6.09,4.3,6.09-4.3,5.91ZM491.29,214.05l4.3,6.09-4.3,5.91-4.38-5.91,4.38-6.09Z"/>
        </g>
        <g>
          <path class="cls-1" d="M8.65,31.25l4.38-6.09,4.3,6.09-4.3,5.91-4.38-5.91ZM43.62,19.25l-4.47,5.91,4.47,6.09-4.47,5.91,4.47,6.09-4.47,5.91-4.38-5.91-4.3,5.91-4.38-5.91-4.3,5.91-4.47-5.91,4.47-6.09-4.47-5.91,4.47-6.09-4.47-5.91,4.47-6.09,4.3,6.09,4.38-6.09,4.3,6.09,4.38-6.09,4.47,6.09ZM30.48,1.16l4.3,6.09-4.3,5.91-4.38-5.91,4.38-6.09ZM30.48,61.16l-4.38-5.91,4.38-6.09,4.3,6.09-4.3,5.91ZM48,25.16l4.3,6.09-4.3,5.91-4.38-5.91,4.38-6.09Z"/>
          <path class="cls-1" d="M8.23,93.66l4.38-6.09,4.3,6.09-4.3,5.91-4.38-5.91ZM43.2,81.66l-4.47,5.91,4.47,6.09-4.47,5.91,4.47,6.09-4.47,5.91-4.38-5.91-4.3,5.91-4.38-5.91-4.3,5.91-4.47-5.91,4.47-6.09-4.47-5.91,4.47-6.09-4.47-5.91,4.47-6.09,4.3,6.09,4.38-6.09,4.3,6.09,4.38-6.09,4.47,6.09ZM30.05,63.58l4.3,6.09-4.3,5.91-4.38-5.91,4.38-6.09ZM30.05,123.57l-4.38-5.91,4.38-6.09,4.3,6.09-4.3,5.91ZM47.58,87.57l4.3,6.09-4.3,5.91-4.38-5.91,4.38-6.09Z"/>
          <path class="cls-1" d="M8.23,156.9l4.38-6.09,4.3,6.09-4.3,5.91-4.38-5.91ZM43.2,144.9l-4.47,5.91,4.47,6.09-4.47,5.91,4.47,6.09-4.47,5.91-4.38-5.91-4.3,5.91-4.38-5.91-4.3,5.91-4.47-5.91,4.47-6.09-4.47-5.91,4.47-6.09-4.47-5.91,4.47-6.09,4.3,6.09,4.38-6.09,4.3,6.09,4.38-6.09,4.47,6.09ZM30.05,126.81l4.3,6.09-4.3,5.91-4.38-5.91,4.38-6.09ZM30.05,186.81l-4.38-5.91,4.38-6.09,4.3,6.09-4.3,5.91ZM47.58,150.81l4.3,6.09-4.3,5.91-4.38-5.91,4.38-6.09Z"/>
          <path class="cls-1" d="M8.23,220.14l4.38-6.09,4.3,6.09-4.3,5.91-4.38-5.91ZM43.2,208.14l-4.47,5.91,4.47,6.09-4.47,5.91,4.47,6.09-4.47,5.91-4.38-5.91-4.3,5.91-4.38-5.91-4.3,5.91-4.47-5.91,4.47-6.09-4.47-5.91,4.47-6.09-4.47-5.91,4.47-6.09,4.3,6.09,4.38-6.09,4.3,6.09,4.38-6.09,4.47,6.09ZM30.05,190.05l4.3,6.09-4.3,5.91-4.38-5.91,4.38-6.09ZM30.05,250.05l-4.38-5.91,4.38-6.09,4.3,6.09-4.3,5.91ZM47.58,214.05l4.3,6.09-4.3,5.91-4.38-5.91,4.38-6.09Z"/>
          <path class="cls-1" d="M77.52,62.88l4.38-6.09,4.3,6.09-4.3,5.91-4.38-5.91ZM112.49,50.88l-4.47,5.91,4.47,6.09-4.47,5.91,4.47,6.09-4.47,5.91-4.38-5.91-4.3,5.91-4.38-5.91-4.3,5.91-4.47-5.91,4.47-6.09-4.47-5.91,4.47-6.09-4.47-5.91,4.47-6.09,4.3,6.09,4.38-6.09,4.3,6.09,4.38-6.09,4.47,6.09ZM99.34,32.8l4.3,6.09-4.3,5.91-4.38-5.91,4.38-6.09ZM99.34,92.79l-4.38-5.91,4.38-6.09,4.3,6.09-4.3,5.91ZM116.87,56.8l4.3,6.09-4.3,5.91-4.38-5.91,4.38-6.09Z"/>
          <path class="cls-1" d="M54.6,94.51l4.38-6.09,4.3,6.09-4.3,5.91-4.38-5.91ZM89.57,82.52l-4.47,5.91,4.47,6.09-4.47,5.91,4.47,6.09-4.47,5.91-4.38-5.91-4.3,5.91-4.38-5.91-4.3,5.91-4.47-5.91,4.47-6.09-4.47-5.91,4.47-6.09-4.47-5.91,4.47-6.09,4.3,6.09,4.38-6.09,4.3,6.09,4.38-6.09,4.47,6.09ZM76.43,64.43l4.3,6.09-4.3,5.91-4.38-5.91,4.38-6.09ZM76.43,124.43l-4.38-5.91,4.38-6.09,4.3,6.09-4.3,5.91ZM93.95,88.43l4.3,6.09-4.3,5.91-4.38-5.91,4.38-6.09Z"/>
          <path class="cls-1" d="M54.56,157.84l4.38-6.09,4.3,6.09-4.3,5.91-4.38-5.91ZM89.53,145.84l-4.47,5.91,4.47,6.09-4.47,5.91,4.47,6.09-4.47,5.91-4.38-5.91-4.3,5.91-4.38-5.91-4.3,5.91-4.47-5.91,4.47-6.09-4.47-5.91,4.47-6.09-4.47-5.91,4.47-6.09,4.3,6.09,4.38-6.09,4.3,6.09,4.38-6.09,4.47,6.09ZM76.38,127.76l4.3,6.09-4.3,5.91-4.38-5.91,4.38-6.09ZM76.38,187.75l-4.38-5.91,4.38-6.09,4.3,6.09-4.3,5.91ZM93.91,151.75l4.3,6.09-4.3,5.91-4.38-5.91,4.38-6.09Z"/>
          <path class="cls-1" d="M100.54,31.25l4.38-6.09,4.3,6.09-4.3,5.91-4.38-5.91ZM135.51,19.25l-4.47,5.91,4.47,6.09-4.47,5.91,4.47,6.09-4.47,5.91-4.38-5.91-4.3,5.91-4.38-5.91-4.3,5.91-4.47-5.91,4.47-6.09-4.47-5.91,4.47-6.09-4.47-5.91,4.47-6.09,4.3,6.09,4.38-6.09,4.3,6.09,4.38-6.09,4.47,6.09ZM122.36,1.16l4.3,6.09-4.3,5.91-4.38-5.91,4.38-6.09ZM122.36,61.16l-4.38-5.91,4.38-6.09,4.3,6.09-4.3,5.91ZM139.89,25.16l4.3,6.09-4.3,5.91-4.38-5.91,4.38-6.09Z"/>
          <path class="cls-1" d="M31.59,125.69l4.38-6.09,4.3,6.09-4.3,5.91-4.38-5.91ZM66.55,113.69l-4.47,5.91,4.47,6.09-4.47,5.91,4.47,6.09-4.47,5.91-4.38-5.91-4.3,5.91-4.38-5.91-4.3,5.91-4.47-5.91,4.47-6.09-4.47-5.91,4.47-6.09-4.47-5.91,4.47-6.09,4.3,6.09,4.38-6.09,4.3,6.09,4.38-6.09,4.47,6.09ZM53.41,95.61l4.3,6.09-4.3,5.91-4.38-5.91,4.38-6.09ZM53.41,155.6l-4.38-5.91,4.38-6.09,4.3,6.09-4.3,5.91ZM70.94,119.61l4.3,6.09-4.3,5.91-4.38-5.91,4.38-6.09Z"/>
          <path class="cls-1" d="M77.48,189.42l4.38-6.09,4.3,6.09-4.3,5.91-4.38-5.91ZM112.44,177.42l-4.47,5.91,4.47,6.09-4.47,5.91,4.47,6.09-4.47,5.91-4.38-5.91-4.3,5.91-4.38-5.91-4.3,5.91-4.47-5.91,4.47-6.09-4.47-5.91,4.47-6.09-4.47-5.91,4.47-6.09,4.3,6.09,4.38-6.09,4.3,6.09,4.38-6.09,4.47,6.09ZM99.3,159.33l4.3,6.09-4.3,5.91-4.38-5.91,4.38-6.09ZM99.3,219.33l-4.38-5.91,4.38-6.09,4.3,6.09-4.3,5.91ZM116.83,183.33l4.3,6.09-4.3,5.91-4.38-5.91,4.38-6.09Z"/>
          <path class="cls-1" d="M100.49,221.13l4.38-6.09,4.3,6.09-4.3,5.91-4.38-5.91ZM135.46,209.14l-4.47,5.91,4.47,6.09-4.47,5.91,4.47,6.09-4.47,5.91-4.38-5.91-4.3,5.91-4.38-5.91-4.3,5.91-4.47-5.91,4.47-6.09-4.47-5.91,4.47-6.09-4.47-5.91,4.47-6.09,4.3,6.09,4.38-6.09,4.3,6.09,4.38-6.09,4.47,6.09ZM122.32,191.05l4.3,6.09-4.3,5.91-4.38-5.91,4.38-6.09ZM122.32,251.05l-4.38-5.91,4.38-6.09,4.3,6.09-4.3,5.91ZM139.84,215.05l4.3,6.09-4.3,5.91-4.38-5.91,4.38-6.09Z"/>
        </g>
        <g>
          <path class="cls-1" d="M700.19,30.97l4.38-6.09,4.3,6.09-4.3,5.91-4.38-5.91ZM735.16,18.97l-4.47,5.91,4.47,6.09-4.47,5.91,4.47,6.09-4.47,5.91-4.38-5.91-4.3,5.91-4.38-5.91-4.3,5.91-4.47-5.91,4.47-6.09-4.47-5.91,4.47-6.09-4.47-5.91,4.47-6.09,4.3,6.09,4.38-6.09,4.3,6.09,4.38-6.09,4.47,6.09ZM722.02.88l4.3,6.09-4.3,5.91-4.38-5.91,4.38-6.09ZM722.02,60.88l-4.38-5.91,4.38-6.09,4.3,6.09-4.3,5.91ZM739.54,24.88l4.3,6.09-4.3,5.91-4.38-5.91,4.38-6.09Z"/>
          <path class="cls-1" d="M700.19,93.38l4.38-6.09,4.3,6.09-4.3,5.91-4.38-5.91ZM735.16,81.38l-4.47,5.91,4.47,6.09-4.47,5.91,4.47,6.09-4.47,5.91-4.38-5.91-4.3,5.91-4.38-5.91-4.3,5.91-4.47-5.91,4.47-6.09-4.47-5.91,4.47-6.09-4.47-5.91,4.47-6.09,4.3,6.09,4.38-6.09,4.3,6.09,4.38-6.09,4.47,6.09ZM722.02,63.3l4.3,6.09-4.3,5.91-4.38-5.91,4.38-6.09ZM722.02,123.29l-4.38-5.91,4.38-6.09,4.3,6.09-4.3,5.91ZM739.54,87.29l4.3,6.09-4.3,5.91-4.38-5.91,4.38-6.09Z"/>
          <path class="cls-1" d="M700.19,156.62l4.38-6.09,4.3,6.09-4.3,5.91-4.38-5.91ZM735.16,144.62l-4.47,5.91,4.47,6.09-4.47,5.91,4.47,6.09-4.47,5.91-4.38-5.91-4.3,5.91-4.38-5.91-4.3,5.91-4.47-5.91,4.47-6.09-4.47-5.91,4.47-6.09-4.47-5.91,4.47-6.09,4.3,6.09,4.38-6.09,4.3,6.09,4.38-6.09,4.47,6.09ZM722.02,126.53l4.3,6.09-4.3,5.91-4.38-5.91,4.38-6.09ZM722.02,186.53l-4.38-5.91,4.38-6.09,4.3,6.09-4.3,5.91ZM739.54,150.53l4.3,6.09-4.3,5.91-4.38-5.91,4.38-6.09Z"/>
          <path class="cls-1" d="M700.19,219.86l4.38-6.09,4.3,6.09-4.3,5.91-4.38-5.91ZM735.16,207.86l-4.47,5.91,4.47,6.09-4.47,5.91,4.47,6.09-4.47,5.91-4.38-5.91-4.3,5.91-4.38-5.91-4.3,5.91-4.47-5.91,4.47-6.09-4.47-5.91,4.47-6.09-4.47-5.91,4.47-6.09,4.3,6.09,4.38-6.09,4.3,6.09,4.38-6.09,4.47,6.09ZM722.02,189.77l4.3,6.09-4.3,5.91-4.38-5.91,4.38-6.09ZM722.02,249.77l-4.38-5.91,4.38-6.09,4.3,6.09-4.3,5.91ZM739.54,213.77l4.3,6.09-4.3,5.91-4.38-5.91,4.38-6.09Z"/>
          <path class="cls-1" d="M749.01,30.08l4.38-6.09,4.3,6.09-4.3,5.91-4.38-5.91ZM783.98,18.08l-4.47,5.91,4.47,6.09-4.47,5.91,4.47,6.09-4.47,5.91-4.38-5.91-4.3,5.91-4.38-5.91-4.3,5.91-4.47-5.91,4.47-6.09-4.47-5.91,4.47-6.09-4.47-5.91,4.47-6.09,4.3,6.09,4.38-6.09,4.3,6.09,4.38-6.09,4.47,6.09ZM770.83,0l4.3,6.09-4.3,5.91-4.38-5.91,4.38-6.09ZM770.83,59.99l-4.38-5.91,4.38-6.09,4.3,6.09-4.3,5.91ZM788.36,24l4.3,6.09-4.3,5.91-4.38-5.91,4.38-6.09Z"/>
          <path class="cls-1" d="M749.01,156.62l4.38-6.09,4.3,6.09-4.3,5.91-4.38-5.91ZM783.98,144.62l-4.47,5.91,4.47,6.09-4.47,5.91,4.47,6.09-4.47,5.91-4.38-5.91-4.3,5.91-4.38-5.91-4.3,5.91-4.47-5.91,4.47-6.09-4.47-5.91,4.47-6.09-4.47-5.91,4.47-6.09,4.3,6.09,4.38-6.09,4.3,6.09,4.38-6.09,4.47,6.09ZM770.83,126.53l4.3,6.09-4.3,5.91-4.38-5.91,4.38-6.09ZM770.83,186.53l-4.38-5.91,4.38-6.09,4.3,6.09-4.3,5.91ZM788.36,150.53l4.3,6.09-4.3,5.91-4.38-5.91,4.38-6.09Z"/>
          <path class="cls-1" d="M797.83,30.08l4.38-6.09,4.3,6.09-4.3,5.91-4.38-5.91ZM832.8,18.08l-4.47,5.91,4.47,6.09-4.47,5.91,4.47,6.09-4.47,5.91-4.38-5.91-4.3,5.91-4.38-5.91-4.3,5.91-4.47-5.91,4.47-6.09-4.47-5.91,4.47-6.09-4.47-5.91,4.47-6.09,4.3,6.09,4.38-6.09,4.3,6.09,4.38-6.09,4.47,6.09ZM819.65,0l4.3,6.09-4.3,5.91-4.38-5.91,4.38-6.09ZM819.65,59.99l-4.38-5.91,4.38-6.09,4.3,6.09-4.3,5.91ZM837.18,24l4.3,6.09-4.3,5.91-4.38-5.91,4.38-6.09Z"/>
          <path class="cls-1" d="M797.83,93.38l4.38-6.09,4.3,6.09-4.3,5.91-4.38-5.91ZM832.8,81.38l-4.47,5.91,4.47,6.09-4.47,5.91,4.47,6.09-4.47,5.91-4.38-5.91-4.3,5.91-4.38-5.91-4.3,5.91-4.47-5.91,4.47-6.09-4.47-5.91,4.47-6.09-4.47-5.91,4.47-6.09,4.3,6.09,4.38-6.09,4.3,6.09,4.38-6.09,4.47,6.09ZM819.65,63.3l4.3,6.09-4.3,5.91-4.38-5.91,4.38-6.09ZM819.65,123.29l-4.38-5.91,4.38-6.09,4.3,6.09-4.3,5.91ZM837.18,87.29l4.3,6.09-4.3,5.91-4.38-5.91,4.38-6.09Z"/>
          <path class="cls-1" d="M797.83,156.62l4.38-6.09,4.3,6.09-4.3,5.91-4.38-5.91ZM832.8,144.62l-4.47,5.91,4.47,6.09-4.47,5.91,4.47,6.09-4.47,5.91-4.38-5.91-4.3,5.91-4.38-5.91-4.3,5.91-4.47-5.91,4.47-6.09-4.47-5.91,4.47-6.09-4.47-5.91,4.47-6.09,4.3,6.09,4.38-6.09,4.3,6.09,4.38-6.09,4.47,6.09ZM819.65,126.53l4.3,6.09-4.3,5.91-4.38-5.91,4.38-6.09ZM819.65,186.53l-4.38-5.91,4.38-6.09,4.3,6.09-4.3,5.91ZM837.18,150.53l4.3,6.09-4.3,5.91-4.38-5.91,4.38-6.09Z"/>
          <path class="cls-1" d="M797.83,219.86l4.38-6.09,4.3,6.09-4.3,5.91-4.38-5.91ZM832.8,207.86l-4.47,5.91,4.47,6.09-4.47,5.91,4.47,6.09-4.47,5.91-4.38-5.91-4.3,5.91-4.38-5.91-4.3,5.91-4.47-5.91,4.47-6.09-4.47-5.91,4.47-6.09-4.47-5.91,4.47-6.09,4.3,6.09,4.38-6.09,4.3,6.09,4.38-6.09,4.47,6.09ZM819.65,189.77l4.3,6.09-4.3,5.91-4.38-5.91,4.38-6.09ZM819.65,249.77l-4.38-5.91,4.38-6.09,4.3,6.09-4.3,5.91ZM837.18,213.77l4.3,6.09-4.3,5.91-4.38-5.91,4.38-6.09Z"/>
        </g>
        <g>
          <path class="cls-1" d="M530.2,30.97l4.38-6.09,4.3,6.09-4.3,5.91-4.38-5.91ZM565.17,18.97l-4.47,5.91,4.47,6.09-4.47,5.91,4.47,6.09-4.47,5.91-4.38-5.91-4.3,5.91-4.38-5.91-4.3,5.91-4.47-5.91,4.47-6.09-4.47-5.91,4.47-6.09-4.47-5.91,4.47-6.09,4.3,6.09,4.38-6.09,4.3,6.09,4.38-6.09,4.47,6.09ZM552.02.88l4.3,6.09-4.3,5.91-4.38-5.91,4.38-6.09ZM552.02,60.88l-4.38-5.91,4.38-6.09,4.3,6.09-4.3,5.91ZM569.55,24.88l4.3,6.09-4.3,5.91-4.38-5.91,4.38-6.09Z"/>
          <path class="cls-1" d="M529.78,93.38l4.38-6.09,4.3,6.09-4.3,5.91-4.38-5.91ZM564.75,81.38l-4.47,5.91,4.47,6.09-4.47,5.91,4.47,6.09-4.47,5.91-4.38-5.91-4.3,5.91-4.38-5.91-4.3,5.91-4.47-5.91,4.47-6.09-4.47-5.91,4.47-6.09-4.47-5.91,4.47-6.09,4.3,6.09,4.38-6.09,4.3,6.09,4.38-6.09,4.47,6.09ZM551.6,63.3l4.3,6.09-4.3,5.91-4.38-5.91,4.38-6.09ZM551.6,123.29l-4.38-5.91,4.38-6.09,4.3,6.09-4.3,5.91ZM569.13,87.29l4.3,6.09-4.3,5.91-4.38-5.91,4.38-6.09Z"/>
          <path class="cls-1" d="M529.78,156.62l4.38-6.09,4.3,6.09-4.3,5.91-4.38-5.91ZM564.75,144.62l-4.47,5.91,4.47,6.09-4.47,5.91,4.47,6.09-4.47,5.91-4.38-5.91-4.3,5.91-4.38-5.91-4.3,5.91-4.47-5.91,4.47-6.09-4.47-5.91,4.47-6.09-4.47-5.91,4.47-6.09,4.3,6.09,4.38-6.09,4.3,6.09,4.38-6.09,4.47,6.09ZM551.6,126.53l4.3,6.09-4.3,5.91-4.38-5.91,4.38-6.09ZM551.6,186.53l-4.38-5.91,4.38-6.09,4.3,6.09-4.3,5.91ZM569.13,150.53l4.3,6.09-4.3,5.91-4.38-5.91,4.38-6.09Z"/>
          <path class="cls-1" d="M529.78,219.86l4.38-6.09,4.3,6.09-4.3,5.91-4.38-5.91ZM564.75,207.86l-4.47,5.91,4.47,6.09-4.47,5.91,4.47,6.09-4.47,5.91-4.38-5.91-4.3,5.91-4.38-5.91-4.3,5.91-4.47-5.91,4.47-6.09-4.47-5.91,4.47-6.09-4.47-5.91,4.47-6.09,4.3,6.09,4.38-6.09,4.3,6.09,4.38-6.09,4.47,6.09ZM551.6,189.77l4.3,6.09-4.3,5.91-4.38-5.91,4.38-6.09ZM551.6,249.77l-4.38-5.91,4.38-6.09,4.3,6.09-4.3,5.91ZM569.13,213.77l4.3,6.09-4.3,5.91-4.38-5.91,4.38-6.09Z"/>
          <path class="cls-1" d="M599.06,62.6l4.38-6.09,4.3,6.09-4.3,5.91-4.38-5.91ZM634.03,50.6l-4.47,5.91,4.47,6.09-4.47,5.91,4.47,6.09-4.47,5.91-4.38-5.91-4.3,5.91-4.38-5.91-4.3,5.91-4.47-5.91,4.47-6.09-4.47-5.91,4.47-6.09-4.47-5.91,4.47-6.09,4.3,6.09,4.38-6.09,4.3,6.09,4.38-6.09,4.47,6.09ZM620.89,32.52l4.3,6.09-4.3,5.91-4.38-5.91,4.38-6.09ZM620.89,92.51l-4.38-5.91,4.38-6.09,4.3,6.09-4.3,5.91ZM638.42,56.52l4.3,6.09-4.3,5.91-4.38-5.91,4.38-6.09Z"/>
          <path class="cls-1" d="M576.15,94.23l4.38-6.09,4.3,6.09-4.3,5.91-4.38-5.91ZM611.12,82.24l-4.47,5.91,4.47,6.09-4.47,5.91,4.47,6.09-4.47,5.91-4.38-5.91-4.3,5.91-4.38-5.91-4.3,5.91-4.47-5.91,4.47-6.09-4.47-5.91,4.47-6.09-4.47-5.91,4.47-6.09,4.3,6.09,4.38-6.09,4.3,6.09,4.38-6.09,4.47,6.09ZM597.97,64.15l4.3,6.09-4.3,5.91-4.38-5.91,4.38-6.09ZM597.97,124.15l-4.38-5.91,4.38-6.09,4.3,6.09-4.3,5.91ZM615.5,88.15l4.3,6.09-4.3,5.91-4.38-5.91,4.38-6.09Z"/>
          <path class="cls-1" d="M576.11,157.56l4.38-6.09,4.3,6.09-4.3,5.91-4.38-5.91ZM611.08,145.56l-4.47,5.91,4.47,6.09-4.47,5.91,4.47,6.09-4.47,5.91-4.38-5.91-4.3,5.91-4.38-5.91-4.3,5.91-4.47-5.91,4.47-6.09-4.47-5.91,4.47-6.09-4.47-5.91,4.47-6.09,4.3,6.09,4.38-6.09,4.3,6.09,4.38-6.09,4.47,6.09ZM597.93,127.48l4.3,6.09-4.3,5.91-4.38-5.91,4.38-6.09ZM597.93,187.47l-4.38-5.91,4.38-6.09,4.3,6.09-4.3,5.91ZM615.46,151.47l4.3,6.09-4.3,5.91-4.38-5.91,4.38-6.09Z"/>
          <path class="cls-1" d="M622.08,30.97l4.38-6.09,4.3,6.09-4.3,5.91-4.38-5.91ZM657.05,18.97l-4.47,5.91,4.47,6.09-4.47,5.91,4.47,6.09-4.47,5.91-4.38-5.91-4.3,5.91-4.38-5.91-4.3,5.91-4.47-5.91,4.47-6.09-4.47-5.91,4.47-6.09-4.47-5.91,4.47-6.09,4.3,6.09,4.38-6.09,4.3,6.09,4.38-6.09,4.47,6.09ZM643.91.88l4.3,6.09-4.3,5.91-4.38-5.91,4.38-6.09ZM643.91,60.88l-4.38-5.91,4.38-6.09,4.3,6.09-4.3,5.91ZM661.43,24.88l4.3,6.09-4.3,5.91-4.38-5.91,4.38-6.09Z"/>
          <path class="cls-1" d="M553.13,125.41l4.38-6.09,4.3,6.09-4.3,5.91-4.38-5.91ZM588.1,113.41l-4.47,5.91,4.47,6.09-4.47,5.91,4.47,6.09-4.47,5.91-4.38-5.91-4.3,5.91-4.38-5.91-4.3,5.91-4.47-5.91,4.47-6.09-4.47-5.91,4.47-6.09-4.47-5.91,4.47-6.09,4.3,6.09,4.38-6.09,4.3,6.09,4.38-6.09,4.47,6.09ZM574.95,95.33l4.3,6.09-4.3,5.91-4.38-5.91,4.38-6.09ZM574.95,155.32l-4.38-5.91,4.38-6.09,4.3,6.09-4.3,5.91ZM592.48,119.33l4.3,6.09-4.3,5.91-4.38-5.91,4.38-6.09Z"/>
          <path class="cls-1" d="M599.02,189.14l4.38-6.09,4.3,6.09-4.3,5.91-4.38-5.91ZM633.99,177.14l-4.47,5.91,4.47,6.09-4.47,5.91,4.47,6.09-4.47,5.91-4.38-5.91-4.3,5.91-4.38-5.91-4.3,5.91-4.47-5.91,4.47-6.09-4.47-5.91,4.47-6.09-4.47-5.91,4.47-6.09,4.3,6.09,4.38-6.09,4.3,6.09,4.38-6.09,4.47,6.09ZM620.84,159.05l4.3,6.09-4.3,5.91-4.38-5.91,4.38-6.09ZM620.84,219.05l-4.38-5.91,4.38-6.09,4.3,6.09-4.3,5.91ZM638.37,183.05l4.3,6.09-4.3,5.91-4.38-5.91,4.38-6.09Z"/>
          <path class="cls-1" d="M622.04,220.85l4.38-6.09,4.3,6.09-4.3,5.91-4.38-5.91ZM657.01,208.86l-4.47,5.91,4.47,6.09-4.47,5.91,4.47,6.09-4.47,5.91-4.38-5.91-4.3,5.91-4.38-5.91-4.3,5.91-4.47-5.91,4.47-6.09-4.47-5.91,4.47-6.09-4.47-5.91,4.47-6.09,4.3,6.09,4.38-6.09,4.3,6.09,4.38-6.09,4.47,6.09ZM643.86,190.77l4.3,6.09-4.3,5.91-4.38-5.91,4.38-6.09ZM643.86,250.77l-4.38-5.91,4.38-6.09,4.3,6.09-4.3,5.91ZM661.39,214.77l4.3,6.09-4.3,5.91-4.38-5.91,4.38-6.09Z"/>
        </g>
      </g>
      <g>
        <path class="cls-1" d="M3.39,299.99v-3.42H0v-6.89h3.39v-3.38h10.22v-3.3H3.39v-3.47h13.69v3.38h3.39v17.08H3.39ZM13.61,289.75h-6.74v6.77h6.74v-6.77Z"/>
        <path class="cls-1" d="M45.7,296.56v3.42h-10.26v-3.47h6.78v-3.34h-3.39v-3.38l-3.39-.04v-6.85h3.39v-3.38h10.3v3.47h-6.83v3.34h3.39v3.38l3.43-.04v6.89h-3.43Z"/>
        <path class="cls-1" d="M67.44,299.99v-3.42h-3.39v-6.89h3.39v-3.38h10.22v-3.3h-10.22v-3.47h13.69v3.38h3.39v17.08h-17.09ZM77.66,289.75h-6.74v6.77h6.74v-6.77Z"/>
        <path class="cls-1" d="M126.71,299.99v-17h-3.31v3.38h-3.43v13.62h-6.87v-17h-3.35v3.38h-3.39v13.62h-6.87v-20.47h6.87v3.38h3.35v-3.38h6.86v3.38h6.73v-3.38h6.86v3.38h3.43v17.08h-6.87Z"/>
        <path class="cls-1" d="M165.62,296.56v3.42h-17.08v-27.28h6.87v6.81h10.22v3.38h3.39v13.66h-3.39ZM162.14,282.98h-6.74v13.54h6.74v-13.54Z"/>
        <path class="cls-1" d="M183.97,299.99v-27.28h6.87v27.28h-6.87Z"/>
        <path class="cls-1" d="M222.84,296.56v3.42h-13.69v-3.42h-3.39v-13.66h3.39v-3.38h13.69v3.38h3.39v3.47h-3.39v3.38h-6.83v3.38h-3.39v3.38h10.14v-3.47h3.47v3.51h-3.39ZM219.36,282.98h-6.74v6.69h3.35v-3.34h3.39v-3.34Z"/>
        <path class="cls-1" d="M244.58,299.99v-3.42h-3.39v-6.89h3.39v-3.38h10.22v-3.3h-10.22v-3.47h13.69v3.38h3.39v17.08h-17.09ZM254.8,289.75h-6.74v6.77h6.74v-6.77Z"/>
        <path class="cls-1" d="M298.41,299.99v-3.42h-3.39v-13.66h3.39v-3.38h10.22v-6.81h6.87v27.28h-17.09ZM308.63,282.98h-6.74v13.54h6.74v-13.54Z"/>
        <path class="cls-1" d="M347.54,296.56v3.42h-13.69v-3.42h-3.39v-13.66h3.39v-3.38h13.69v3.38h3.39v3.47h-3.39v3.38h-6.83v3.38h-3.39v3.38h10.14v-3.47h3.47v3.51h-3.39ZM344.07,282.98h-6.74v6.69h3.35v-3.34h3.39v-3.34Z"/>
        <path class="cls-1" d="M411.51,299.99v-17h-3.31v3.38h-3.43v13.62h-6.87v-17h-3.35v3.38h-3.39v13.62h-6.87v-20.47h6.87v3.38h3.35v-3.38h6.86v3.38h6.73v-3.38h6.86v3.38h3.43v17.08h-6.87Z"/>
        <path class="cls-1" d="M450.42,296.56v3.42h-13.69v-3.42h-3.39v-17.04h6.87v17h6.74v-17h6.87v17.04h-3.39Z"/>
        <path class="cls-1" d="M482.38,299.99v-17h-3.35v3.38h-3.39v13.62h-6.87v-20.47h6.87v3.38h3.35v-3.38h6.87v3.38h3.39v17.08h-6.87Z"/>
        <path class="cls-1" d="M507.6,299.99v-3.42h-3.39v-13.66h3.39v-3.38h10.22v-6.81h6.87v27.28h-17.09ZM517.82,282.98h-6.74v13.54h6.74v-13.54Z"/>
        <path class="cls-1" d="M556.73,296.56v3.42h-13.69v-3.42h-3.39v-13.66h3.39v-3.38h13.69v3.38h3.39v13.66h-3.39ZM553.25,282.98h-6.74v13.54h6.74v-13.54Z"/>
        <path class="cls-1" d="M585.34,296.56v3.42h-10.26v-3.47h6.78v-3.34h-3.39v-3.38l-3.39-.04v-6.85h3.39v-3.38h10.3v3.47h-6.83v3.34h3.39v3.38l3.43-.04v6.89h-3.43Z"/>
        <path class="cls-1" d="M639.17,296.56v3.42h-10.22v6.81h-6.87v-27.28h17.08v3.38h3.39v13.66h-3.39ZM635.7,282.98h-6.74v13.54h6.74v-13.54Z"/>
        <path class="cls-1" d="M674.61,296.56v3.42h-13.69v-3.42h-3.39v-13.66h3.39v-3.38h13.69v3.38h3.39v13.66h-3.39ZM671.13,282.98h-6.74v13.54h6.74v-13.54Z"/>
        <path class="cls-1" d="M703.22,296.56v3.42h-10.26v-3.47h6.78v-3.34h-3.39v-3.38l-3.39-.04v-6.85h3.39v-3.38h10.3v3.47h-6.83v3.34h3.39v3.38l3.43-.04v6.89h-3.43Z"/>
        <path class="cls-1" d="M721.57,276.17v-3.47h6.87v3.47h-6.87ZM721.57,299.99v-20.47h6.87v20.47h-6.87Z"/>
        <path class="cls-1" d="M760.44,296.56v3.42h-17.08v-27.28h6.87v6.81h10.22v3.38h3.39v13.66h-3.39ZM756.96,282.98h-6.74v13.54h6.74v-13.54Z"/>
        <path class="cls-1" d="M778.79,299.99v-27.28h6.87v27.28h-6.87Z"/>
        <path class="cls-1" d="M817.66,296.56v3.42h-13.69v-3.42h-3.39v-13.66h3.39v-3.38h13.69v3.38h3.39v3.47h-3.39v3.38h-6.83v3.38h-3.39v3.38h10.14v-3.47h3.47v3.51h-3.39ZM814.19,282.98h-6.74v6.69h3.35v-3.34h3.39v-3.34Z"/>
        <path class="cls-1" d="M846.27,296.56v3.42h-10.26v-3.47h6.78v-3.34h-3.39v-3.38l-3.39-.04v-6.85h3.39v-3.38h10.3v3.47h-6.83v3.34h3.39v3.38l3.43-.04v6.89h-3.43Z"/>
      </g>
      <g>
        <path class="cls-1" d="M108.48,349.7v5.45h-5.49v-5.45h-8.17v-5.45h2.71v-5.48h2.78v5.51h-2.71v2.64h5.4v-13.6h5.49v13.6h2.71v2.77h-2.71Z"/>
        <path class="cls-1" d="M131.35,341.55v5.45h-2.73l.03,8.15h-5.49v-8.22h2.71v-5.45h2.71v-5.38h-8.17v-2.77h13.7v8.22h-2.76Z"/>
        <path class="cls-1" d="M168.97,352.41v2.74h-8.21v-2.77h5.43v-2.67h-2.71v-2.71l-2.71-.03v-5.48h2.71v-2.71h8.24v2.77h-5.46v2.67h2.71v2.71l2.75-.03v5.51h-2.75Z"/>
        <path class="cls-1" d="M186.37,355.15v-2.74h-2.71v-5.51h2.71v-2.71h8.17v-2.64h-8.17v-2.77h10.95v2.71h2.71v13.67h-13.67ZM194.54,346.96h-5.4v5.41h5.4v-5.41Z"/>
        <path class="cls-1" d="M212,355.15v-21.82h5.49v21.82h-5.49Z"/>
        <path class="cls-1" d="M243.1,352.41v2.74h-10.95v-2.74h-2.71v-10.93h2.71v-2.71h10.95v2.71h2.71v10.93h-2.71ZM237.64,333.39v2.71h-2.78v-2.77h2.75v-2.71h2.78v2.77h-2.75ZM240.32,341.55h-5.4v10.83h5.4v-10.83Z"/>
        <path class="cls-1" d="M268.67,355.15v-13.6h-2.68v2.71h-2.71v10.89h-5.49v-16.37h5.49v2.71h2.68v-2.71h5.49v2.71h2.71v13.67h-5.49Z"/>
        <path class="cls-1" d="M311.73,355.15v-13.6h-2.68v2.71h-2.71v10.89h-5.49v-16.37h5.49v2.71h2.68v-2.71h5.49v2.71h2.71v13.67h-5.49Z"/>
        <path class="cls-1" d="M331.91,355.15v-2.74h-2.71v-5.51h2.71v-2.71h8.17v-2.64h-8.17v-2.77h10.95v2.71h2.71v13.67h-13.67ZM340.08,346.96h-5.4v5.41h5.4v-5.41Z"/>
        <path class="cls-1" d="M368.5,352.41v2.74h-8.24v-2.74h-2.71v-10.93h2.71v-2.71h10.95v5.48h-2.78v-2.71h-5.4v10.83h5.4v-2.77h2.78v2.8h-2.71Z"/>
        <path class="cls-1" d="M383.15,336.1v-2.77h5.49v2.77h-5.49ZM383.15,355.15v-16.37h5.49v16.37h-5.49Z"/>
        <path class="cls-1" d="M414.24,352.41v2.74h-10.95v-2.74h-2.71v-10.93h2.71v-2.71h10.95v2.71h2.71v10.93h-2.71ZM411.46,341.55h-5.4v10.83h5.4v-10.83Z"/>
        <path class="cls-1" d="M439.81,355.15v-13.6h-2.68v2.71h-2.71v10.89h-5.49v-16.37h5.49v2.71h2.68v-2.71h5.49v2.71h2.71v13.67h-5.49Z"/>
        <path class="cls-1" d="M459.99,355.15v-2.74h-2.71v-5.51h2.71v-2.71h8.17v-2.64h-8.17v-2.77h10.95v2.71h2.71v13.67h-13.67ZM468.16,346.96h-5.4v5.41h5.4v-5.41Z"/>
        <path class="cls-1" d="M485.62,355.15v-21.82h5.49v21.82h-5.49Z"/>
        <path class="cls-1" d="M520.48,355.15v-2.74h-2.71v-10.93h2.71v-2.71h8.17v-5.45h5.49v21.82h-13.67ZM528.65,341.55h-5.4v10.83h5.4v-10.83Z"/>
        <path class="cls-1" d="M559.78,352.41v2.74h-10.95v-2.74h-2.71v-10.93h2.71v-2.71h10.95v2.71h2.71v2.77h-2.71v2.71h-5.46v2.71h-2.71v2.71h8.11v-2.77h2.78v2.8h-2.71ZM557,341.55h-5.4v5.35h2.68v-2.67h2.71v-2.67Z"/>
        <path class="cls-1" d="M591.89,355.15v-2.74h-2.71v-5.51h2.71v-2.71h8.17v-2.64h-8.17v-2.77h10.95v2.71h2.71v13.67h-13.67ZM600.07,346.96h-5.4v5.41h5.4v-5.41Z"/>
        <path class="cls-1" d="M623.02,344.25v10.89h-5.49v-16.37h5.49v2.71h2.68v-2.71h2.78v5.48h-5.46Z"/>
        <path class="cls-1" d="M645.91,341.55v13.6h-5.49v-13.6h-2.75v-2.77h2.75v-5.45h5.49v5.45h2.71v2.77h-2.71Z"/>
        <path class="cls-1" d="M657.84,336.1v-2.77h5.49v2.77h-5.49ZM657.84,355.15v-16.37h5.49v16.37h-5.49Z"/>
        <path class="cls-1" d="M683.48,352.41v2.74h-8.21v-2.77h5.43v-2.67h-2.71v-2.71l-2.71-.03v-5.48h2.71v-2.71h8.24v2.77h-5.46v2.67h2.71v2.71l2.75-.03v5.51h-2.75Z"/>
        <path class="cls-1" d="M703.65,341.55v13.6h-5.49v-13.6h-2.75v-2.77h2.75v-5.45h5.49v5.45h2.71v2.77h-2.71Z"/>
        <path class="cls-1" d="M718.3,355.15v-2.74h-2.71v-5.51h2.71v-2.71h8.17v-2.64h-8.17v-2.77h10.95v2.71h2.71v13.67h-13.67ZM726.48,346.96h-5.4v5.41h5.4v-5.41Z"/>
        <path class="cls-1" d="M752.15,352.41v2.74h-8.21v-2.77h5.43v-2.67h-2.71v-2.71l-2.71-.03v-5.48h2.71v-2.71h8.24v2.77h-5.46v2.67h2.71v2.71l2.75-.03v5.51h-2.75Z"/>
      </g>
    </g>
  </g>
</svg>