<?xml version="1.0" encoding="UTF-8"?>
<svg id="Layer_2" data-name="Layer 2" xmlns="http://www.w3.org/2000/svg" viewBox="0 0 271.84 113.71">
  <defs>
    <style>
      .cls-1 {
        fill: #fff;
      }
    </style>
  </defs>
  <g id="Contenido">
    <g>
      <g>
        <g>
          <path class="cls-1" d="M56.3,9.63l1.4,1.92h-2.83l1.43-1.92ZM54.87,7.71h2.83l-1.4,1.92-1.43-1.92ZM57.7,11.56l1.4,1.92h-2.83l1.43-1.92ZM56.27,5.79h2.83l-1.4,1.92-1.43-1.92ZM59.09,13.48l1.4,1.92h-2.83l1.43-1.92ZM57.67,3.87h2.83l-1.4,1.92-1.43-1.92ZM60.49,15.4l1.4,1.92h-2.83l1.43-1.92ZM59.07,1.95h2.83l-1.4,1.92-1.43-1.92ZM61.89,17.32l1.4,1.92h-2.83l1.43-1.92ZM60.47.03h2.83l-1.4,1.92L60.47.03ZM66.29,17.32l1.43,1.92h-2.83l1.4-1.92ZM64.89.03h2.83l-1.43,1.92-1.4-1.92ZM67.69,15.4l1.43,1.92h-2.83l1.4-1.92ZM66.29,1.95h2.83l-1.43,1.92-1.4-1.92ZM69.09,13.48l1.43,1.92h-2.83l1.4-1.92ZM67.69,3.87h2.83l-1.43,1.92-1.4-1.92ZM70.49,11.56l1.43,1.92h-2.83l1.4-1.92ZM69.09,5.79h2.83l-1.43,1.92-1.4-1.92ZM71.89,9.63l1.43,1.92h-2.83l1.4-1.92ZM70.49,7.71h2.83l-1.43,1.92-1.4-1.92Z"/>
          <path class="cls-1" d="M56.3,29.93l1.4,1.92h-2.83l1.43-1.92ZM54.87,28.01h2.83l-1.4,1.92-1.43-1.92ZM57.7,31.86l1.4,1.92h-2.83l1.43-1.92ZM56.27,26.09h2.83l-1.4,1.92-1.43-1.92ZM59.09,33.78l1.4,1.92h-2.83l1.43-1.92ZM57.67,24.17h2.83l-1.4,1.92-1.43-1.92ZM60.49,35.7l1.4,1.92h-2.83l1.43-1.92ZM59.07,22.25h2.83l-1.4,1.92-1.43-1.92ZM61.89,37.62l1.4,1.92h-2.83l1.43-1.92ZM60.47,20.33h2.83l-1.4,1.92-1.43-1.92ZM66.29,37.62l1.43,1.92h-2.83l1.4-1.92ZM64.89,20.33h2.83l-1.43,1.92-1.4-1.92ZM67.69,35.7l1.43,1.92h-2.83l1.4-1.92ZM66.29,22.25h2.83l-1.43,1.92-1.4-1.92ZM69.09,33.78l1.43,1.92h-2.83l1.4-1.92ZM67.69,24.17h2.83l-1.43,1.92-1.4-1.92ZM70.49,31.86l1.43,1.92h-2.83l1.4-1.92ZM69.09,26.09h2.83l-1.43,1.92-1.4-1.92ZM71.89,29.93l1.43,1.92h-2.83l1.4-1.92ZM70.49,28.01h2.83l-1.43,1.92-1.4-1.92Z"/>
          <path class="cls-1" d="M56.3,50.24l1.4,1.92h-2.83l1.43-1.92ZM54.87,48.31h2.83l-1.4,1.92-1.43-1.92ZM57.7,52.16l1.4,1.92h-2.83l1.43-1.92ZM56.27,46.39h2.83l-1.4,1.92-1.43-1.92ZM59.09,54.08l1.4,1.92h-2.83l1.43-1.92ZM57.67,44.47h2.83l-1.4,1.92-1.43-1.92ZM60.49,56l1.4,1.92h-2.83l1.43-1.92ZM59.07,42.55h2.83l-1.4,1.92-1.43-1.92ZM61.89,57.92l1.4,1.92h-2.83l1.43-1.92ZM60.47,40.63h2.83l-1.4,1.92-1.43-1.92ZM66.29,57.92l1.43,1.92h-2.83l1.4-1.92ZM64.89,40.63h2.83l-1.43,1.92-1.4-1.92ZM67.69,56l1.43,1.92h-2.83l1.4-1.92ZM66.29,42.55h2.83l-1.43,1.92-1.4-1.92ZM69.09,54.08l1.43,1.92h-2.83l1.4-1.92ZM67.69,44.47h2.83l-1.43,1.92-1.4-1.92ZM70.49,52.16l1.43,1.92h-2.83l1.4-1.92ZM69.09,46.39h2.83l-1.43,1.92-1.4-1.92ZM71.89,50.24l1.43,1.92h-2.83l1.4-1.92ZM70.49,48.31h2.83l-1.43,1.92-1.4-1.92Z"/>
          <path class="cls-1" d="M56.3,70.51l1.4,1.92h-2.83l1.43-1.92ZM54.87,68.59h2.83l-1.4,1.92-1.43-1.92ZM57.7,72.43l1.4,1.92h-2.83l1.43-1.92ZM56.27,66.67h2.83l-1.4,1.92-1.43-1.92ZM59.09,74.35l1.4,1.92h-2.83l1.43-1.92ZM57.67,64.74h2.83l-1.4,1.92-1.43-1.92ZM60.49,76.27l1.4,1.92h-2.83l1.43-1.92ZM59.07,62.82h2.83l-1.4,1.92-1.43-1.92ZM61.89,78.19l1.4,1.92h-2.83l1.43-1.92ZM60.47,60.9h2.83l-1.4,1.92-1.43-1.92ZM66.29,78.19l1.43,1.92h-2.83l1.4-1.92ZM64.89,60.9h2.83l-1.43,1.92-1.4-1.92ZM67.69,76.27l1.43,1.92h-2.83l1.4-1.92ZM66.29,62.82h2.83l-1.43,1.92-1.4-1.92ZM69.09,74.35l1.43,1.92h-2.83l1.4-1.92ZM67.69,64.74h2.83l-1.43,1.92-1.4-1.92ZM70.49,72.43l1.43,1.92h-2.83l1.4-1.92ZM69.09,66.67h2.83l-1.43,1.92-1.4-1.92ZM71.89,70.51l1.43,1.92h-2.83l1.4-1.92ZM70.49,68.59h2.83l-1.43,1.92-1.4-1.92Z"/>
          <path class="cls-1" d="M71.93,9.63l1.4,1.92h-2.83l1.43-1.92ZM70.5,7.71h2.83l-1.4,1.92-1.43-1.92ZM73.33,11.56l1.4,1.92h-2.83l1.43-1.92ZM71.9,5.79h2.83l-1.4,1.92-1.43-1.92ZM74.73,13.48l1.4,1.92h-2.83l1.43-1.92ZM73.3,3.87h2.83l-1.4,1.92-1.43-1.92ZM76.13,15.4l1.4,1.92h-2.83l1.43-1.92ZM74.7,1.95h2.83l-1.4,1.92-1.43-1.92ZM77.53,17.32l1.4,1.92h-2.83l1.43-1.92ZM76.1.03h2.83l-1.4,1.92-1.43-1.92ZM81.92,17.32l1.43,1.92h-2.83l1.4-1.92ZM80.52.03h2.83l-1.43,1.92-1.4-1.92ZM83.32,15.4l1.43,1.92h-2.83l1.4-1.92ZM81.92,1.95h2.83l-1.43,1.92-1.4-1.92ZM84.72,13.48l1.43,1.92h-2.83l1.4-1.92ZM83.32,3.87h2.83l-1.43,1.92-1.4-1.92ZM86.12,11.56l1.43,1.92h-2.83l1.4-1.92ZM84.72,5.79h2.83l-1.43,1.92-1.4-1.92ZM87.52,9.63l1.43,1.92h-2.83l1.4-1.92ZM86.12,7.71h2.83l-1.43,1.92-1.4-1.92Z"/>
          <path class="cls-1" d="M71.93,50.24l1.4,1.92h-2.83l1.43-1.92ZM70.5,48.31h2.83l-1.4,1.92-1.43-1.92ZM73.33,52.16l1.4,1.92h-2.83l1.43-1.92ZM71.9,46.39h2.83l-1.4,1.92-1.43-1.92ZM74.73,54.08l1.4,1.92h-2.83l1.43-1.92ZM73.3,44.47h2.83l-1.4,1.92-1.43-1.92ZM76.13,56l1.4,1.92h-2.83l1.43-1.92ZM74.7,42.55h2.83l-1.4,1.92-1.43-1.92ZM77.53,57.92l1.4,1.92h-2.83l1.43-1.92ZM76.1,40.63h2.83l-1.4,1.92-1.43-1.92ZM81.92,57.92l1.43,1.92h-2.83l1.4-1.92ZM80.52,40.63h2.83l-1.43,1.92-1.4-1.92ZM83.32,56l1.43,1.92h-2.83l1.4-1.92ZM81.92,42.55h2.83l-1.43,1.92-1.4-1.92ZM84.72,54.08l1.43,1.92h-2.83l1.4-1.92ZM83.32,44.47h2.83l-1.43,1.92-1.4-1.92ZM86.12,52.16l1.43,1.92h-2.83l1.4-1.92ZM84.72,46.39h2.83l-1.43,1.92-1.4-1.92ZM87.52,50.24l1.43,1.92h-2.83l1.4-1.92ZM86.12,48.31h2.83l-1.43,1.92-1.4-1.92Z"/>
          <path class="cls-1" d="M87.56,9.63l1.4,1.92h-2.83l1.43-1.92ZM86.13,7.71h2.83l-1.4,1.92-1.43-1.92ZM88.96,11.56l1.4,1.92h-2.83l1.43-1.92ZM87.53,5.79h2.83l-1.4,1.92-1.43-1.92ZM90.36,13.48l1.4,1.92h-2.83l1.43-1.92ZM88.93,3.87h2.83l-1.4,1.92-1.43-1.92ZM91.76,15.4l1.4,1.92h-2.83l1.43-1.92ZM90.33,1.95h2.83l-1.4,1.92-1.43-1.92ZM93.16,17.32l1.4,1.92h-2.83l1.43-1.92ZM91.73.03h2.83l-1.4,1.92-1.43-1.92ZM97.55,17.32l1.43,1.92h-2.83l1.4-1.92ZM96.15.03h2.83l-1.43,1.92-1.4-1.92ZM98.95,15.4l1.43,1.92h-2.83l1.4-1.92ZM97.55,1.95h2.83l-1.43,1.92-1.4-1.92ZM100.35,13.48l1.43,1.92h-2.83l1.4-1.92ZM98.95,3.87h2.83l-1.43,1.92-1.4-1.92ZM101.75,11.56l1.43,1.92h-2.83l1.4-1.92ZM100.35,5.79h2.83l-1.43,1.92-1.4-1.92ZM103.15,9.63l1.43,1.92h-2.83l1.4-1.92ZM101.75,7.71h2.83l-1.43,1.92-1.4-1.92Z"/>
          <path class="cls-1" d="M87.56,29.93l1.4,1.92h-2.83l1.43-1.92ZM86.13,28.01h2.83l-1.4,1.92-1.43-1.92ZM88.96,31.86l1.4,1.92h-2.83l1.43-1.92ZM87.53,26.09h2.83l-1.4,1.92-1.43-1.92ZM90.36,33.78l1.4,1.92h-2.83l1.43-1.92ZM88.93,24.17h2.83l-1.4,1.92-1.43-1.92ZM91.76,35.7l1.4,1.92h-2.83l1.43-1.92ZM90.33,22.25h2.83l-1.4,1.92-1.43-1.92ZM93.16,37.62l1.4,1.92h-2.83l1.43-1.92ZM91.73,20.33h2.83l-1.4,1.92-1.43-1.92ZM97.55,37.62l1.43,1.92h-2.83l1.4-1.92ZM96.15,20.33h2.83l-1.43,1.92-1.4-1.92ZM98.95,35.7l1.43,1.92h-2.83l1.4-1.92ZM97.55,22.25h2.83l-1.43,1.92-1.4-1.92ZM100.35,33.78l1.43,1.92h-2.83l1.4-1.92ZM98.95,24.17h2.83l-1.43,1.92-1.4-1.92ZM101.75,31.86l1.43,1.92h-2.83l1.4-1.92ZM100.35,26.09h2.83l-1.43,1.92-1.4-1.92ZM103.15,29.93l1.43,1.92h-2.83l1.4-1.92ZM101.75,28.01h2.83l-1.43,1.92-1.4-1.92Z"/>
          <path class="cls-1" d="M87.56,50.24l1.4,1.92h-2.83l1.43-1.92ZM86.13,48.31h2.83l-1.4,1.92-1.43-1.92ZM88.96,52.16l1.4,1.92h-2.83l1.43-1.92ZM87.53,46.39h2.83l-1.4,1.92-1.43-1.92ZM90.36,54.08l1.4,1.92h-2.83l1.43-1.92ZM88.93,44.47h2.83l-1.4,1.92-1.43-1.92ZM91.76,56l1.4,1.92h-2.83l1.43-1.92ZM90.33,42.55h2.83l-1.4,1.92-1.43-1.92ZM93.16,57.92l1.4,1.92h-2.83l1.43-1.92ZM91.73,40.63h2.83l-1.4,1.92-1.43-1.92ZM97.55,57.92l1.43,1.92h-2.83l1.4-1.92ZM96.15,40.63h2.83l-1.43,1.92-1.4-1.92ZM98.95,56l1.43,1.92h-2.83l1.4-1.92ZM97.55,42.55h2.83l-1.43,1.92-1.4-1.92ZM100.35,54.08l1.43,1.92h-2.83l1.4-1.92ZM98.95,44.47h2.83l-1.43,1.92-1.4-1.92ZM101.75,52.16l1.43,1.92h-2.83l1.4-1.92ZM100.35,46.39h2.83l-1.43,1.92-1.4-1.92ZM103.15,50.24l1.43,1.92h-2.83l1.4-1.92ZM101.75,48.31h2.83l-1.43,1.92-1.4-1.92Z"/>
          <path class="cls-1" d="M87.56,70.51l1.4,1.92h-2.83l1.43-1.92ZM86.13,68.59h2.83l-1.4,1.92-1.43-1.92ZM88.96,72.43l1.4,1.92h-2.83l1.43-1.92ZM87.53,66.67h2.83l-1.4,1.92-1.43-1.92ZM90.36,74.35l1.4,1.92h-2.83l1.43-1.92ZM88.93,64.74h2.83l-1.4,1.92-1.43-1.92ZM91.76,76.27l1.4,1.92h-2.83l1.43-1.92ZM90.33,62.82h2.83l-1.4,1.92-1.43-1.92ZM93.16,78.19l1.4,1.92h-2.83l1.43-1.92ZM91.73,60.9h2.83l-1.4,1.92-1.43-1.92ZM97.55,78.19l1.43,1.92h-2.83l1.4-1.92ZM96.15,60.9h2.83l-1.43,1.92-1.4-1.92ZM98.95,76.27l1.43,1.92h-2.83l1.4-1.92ZM97.55,62.82h2.83l-1.43,1.92-1.4-1.92ZM100.35,74.35l1.43,1.92h-2.83l1.4-1.92ZM98.95,64.74h2.83l-1.43,1.92-1.4-1.92ZM101.75,72.43l1.43,1.92h-2.83l1.4-1.92ZM100.35,66.67h2.83l-1.43,1.92-1.4-1.92ZM103.15,70.51l1.43,1.92h-2.83l1.4-1.92ZM101.75,68.59h2.83l-1.43,1.92-1.4-1.92Z"/>
        </g>
        <g>
          <path class="cls-1" d="M112.51,9.63l1.4,1.92h-2.83l1.43-1.92ZM111.08,7.71h2.83l-1.4,1.92-1.43-1.92ZM113.91,11.56l1.4,1.92h-2.83l1.43-1.92ZM112.48,5.79h2.83l-1.4,1.92-1.43-1.92ZM115.31,13.48l1.4,1.92h-2.83l1.43-1.92ZM113.88,3.87h2.83l-1.4,1.92-1.43-1.92ZM116.71,15.4l1.4,1.92h-2.83l1.43-1.92ZM115.28,1.95h2.83l-1.4,1.92-1.43-1.92ZM118.11,17.32l1.4,1.92h-2.83l1.43-1.92ZM116.68.03h2.83l-1.4,1.92-1.43-1.92ZM122.5,17.32l1.43,1.92h-2.83l1.4-1.92ZM121.1.03h2.83l-1.43,1.92-1.4-1.92ZM123.9,15.4l1.43,1.92h-2.83l1.4-1.92ZM122.5,1.95h2.83l-1.43,1.92-1.4-1.92ZM125.3,13.48l1.43,1.92h-2.83l1.4-1.92ZM123.9,3.87h2.83l-1.43,1.92-1.4-1.92ZM126.7,11.56l1.43,1.92h-2.83l1.4-1.92ZM125.3,5.79h2.83l-1.43,1.92-1.4-1.92ZM128.1,9.63l1.43,1.92h-2.83l1.4-1.92ZM126.7,7.71h2.83l-1.43,1.92-1.4-1.92Z"/>
          <path class="cls-1" d="M112.51,29.93l1.4,1.92h-2.83l1.43-1.92ZM111.08,28.01h2.83l-1.4,1.92-1.43-1.92ZM113.91,31.86l1.4,1.92h-2.83l1.43-1.92ZM112.48,26.09h2.83l-1.4,1.92-1.43-1.92ZM115.31,33.78l1.4,1.92h-2.83l1.43-1.92ZM113.88,24.17h2.83l-1.4,1.92-1.43-1.92ZM116.71,35.7l1.4,1.92h-2.83l1.43-1.92ZM115.28,22.25h2.83l-1.4,1.92-1.43-1.92ZM118.11,37.62l1.4,1.92h-2.83l1.43-1.92ZM116.68,20.33h2.83l-1.4,1.92-1.43-1.92ZM122.5,37.62l1.43,1.92h-2.83l1.4-1.92ZM121.1,20.33h2.83l-1.43,1.92-1.4-1.92ZM123.9,35.7l1.43,1.92h-2.83l1.4-1.92ZM122.5,22.25h2.83l-1.43,1.92-1.4-1.92ZM125.3,33.78l1.43,1.92h-2.83l1.4-1.92ZM123.9,24.17h2.83l-1.43,1.92-1.4-1.92ZM126.7,31.86l1.43,1.92h-2.83l1.4-1.92ZM125.3,26.09h2.83l-1.43,1.92-1.4-1.92ZM128.1,29.93l1.43,1.92h-2.83l1.4-1.92ZM126.7,28.01h2.83l-1.43,1.92-1.4-1.92Z"/>
          <path class="cls-1" d="M112.51,50.24l1.4,1.92h-2.83l1.43-1.92ZM111.08,48.31h2.83l-1.4,1.92-1.43-1.92ZM113.91,52.16l1.4,1.92h-2.83l1.43-1.92ZM112.48,46.39h2.83l-1.4,1.92-1.43-1.92ZM115.31,54.08l1.4,1.92h-2.83l1.43-1.92ZM113.88,44.47h2.83l-1.4,1.92-1.43-1.92ZM116.71,56l1.4,1.92h-2.83l1.43-1.92ZM115.28,42.55h2.83l-1.4,1.92-1.43-1.92ZM118.11,57.92l1.4,1.92h-2.83l1.43-1.92ZM116.68,40.63h2.83l-1.4,1.92-1.43-1.92ZM122.5,57.92l1.43,1.92h-2.83l1.4-1.92ZM121.1,40.63h2.83l-1.43,1.92-1.4-1.92ZM123.9,56l1.43,1.92h-2.83l1.4-1.92ZM122.5,42.55h2.83l-1.43,1.92-1.4-1.92ZM125.3,54.08l1.43,1.92h-2.83l1.4-1.92ZM123.9,44.47h2.83l-1.43,1.92-1.4-1.92ZM126.7,52.16l1.43,1.92h-2.83l1.4-1.92ZM125.3,46.39h2.83l-1.43,1.92-1.4-1.92ZM128.1,50.24l1.43,1.92h-2.83l1.4-1.92ZM126.7,48.31h2.83l-1.43,1.92-1.4-1.92Z"/>
          <path class="cls-1" d="M112.51,70.51l1.4,1.92h-2.83l1.43-1.92ZM111.08,68.59h2.83l-1.4,1.92-1.43-1.92ZM113.91,72.43l1.4,1.92h-2.83l1.43-1.92ZM112.48,66.67h2.83l-1.4,1.92-1.43-1.92ZM115.31,74.35l1.4,1.92h-2.83l1.43-1.92ZM113.88,64.74h2.83l-1.4,1.92-1.43-1.92ZM116.71,76.27l1.4,1.92h-2.83l1.43-1.92ZM115.28,62.82h2.83l-1.4,1.92-1.43-1.92ZM118.11,78.19l1.4,1.92h-2.83l1.43-1.92ZM116.68,60.9h2.83l-1.4,1.92-1.43-1.92ZM122.5,78.19l1.43,1.92h-2.83l1.4-1.92ZM121.1,60.9h2.83l-1.43,1.92-1.4-1.92ZM123.9,76.27l1.43,1.92h-2.83l1.4-1.92ZM122.5,62.82h2.83l-1.43,1.92-1.4-1.92ZM125.3,74.35l1.43,1.92h-2.83l1.4-1.92ZM123.9,64.74h2.83l-1.43,1.92-1.4-1.92ZM126.7,72.43l1.43,1.92h-2.83l1.4-1.92ZM125.3,66.67h2.83l-1.43,1.92-1.4-1.92ZM128.1,70.51l1.43,1.92h-2.83l1.4-1.92ZM126.7,68.59h2.83l-1.43,1.92-1.4-1.92Z"/>
          <path class="cls-1" d="M128.12,70.51l1.4,1.92h-2.83l1.43-1.92ZM126.7,68.59h2.83l-1.4,1.92-1.43-1.92ZM129.52,72.43l1.4,1.92h-2.83l1.43-1.92ZM128.1,66.67h2.83l-1.4,1.92-1.43-1.92ZM130.92,74.35l1.4,1.92h-2.83l1.43-1.92ZM129.5,64.74h2.83l-1.4,1.92-1.43-1.92ZM132.32,76.27l1.4,1.92h-2.83l1.43-1.92ZM130.9,62.82h2.83l-1.4,1.92-1.43-1.92ZM133.72,78.19l1.4,1.92h-2.83l1.43-1.92ZM132.3,60.9h2.83l-1.4,1.92-1.43-1.92ZM138.12,78.19l1.43,1.92h-2.83l1.4-1.92ZM136.72,60.9h2.83l-1.43,1.92-1.4-1.92ZM139.52,76.27l1.43,1.92h-2.83l1.4-1.92ZM138.12,62.82h2.83l-1.43,1.92-1.4-1.92ZM140.92,74.35l1.43,1.92h-2.83l1.4-1.92ZM139.52,64.74h2.83l-1.43,1.92-1.4-1.92ZM142.32,72.43l1.43,1.92h-2.83l1.4-1.92ZM140.92,66.67h2.83l-1.43,1.92-1.4-1.92ZM143.72,70.51l1.43,1.92h-2.83l1.4-1.92ZM142.32,68.59h2.83l-1.43,1.92-1.4-1.92Z"/>
          <path class="cls-1" d="M143.74,9.63l1.4,1.92h-2.83l1.43-1.92ZM142.32,7.71h2.83l-1.4,1.92-1.43-1.92ZM145.14,11.56l1.4,1.92h-2.83l1.43-1.92ZM143.72,5.79h2.83l-1.4,1.92-1.43-1.92ZM146.54,13.48l1.4,1.92h-2.83l1.43-1.92ZM145.12,3.87h2.83l-1.4,1.92-1.43-1.92ZM147.94,15.4l1.4,1.92h-2.83l1.43-1.92ZM146.51,1.95h2.83l-1.4,1.92-1.43-1.92ZM149.34,17.32l1.4,1.92h-2.83l1.43-1.92ZM147.91.03h2.83l-1.4,1.92-1.43-1.92ZM153.73,17.32l1.43,1.92h-2.83l1.4-1.92ZM152.33.03h2.83l-1.43,1.92-1.4-1.92ZM155.13,15.4l1.43,1.92h-2.83l1.4-1.92ZM153.73,1.95h2.83l-1.43,1.92-1.4-1.92ZM156.53,13.48l1.43,1.92h-2.83l1.4-1.92ZM155.13,3.87h2.83l-1.43,1.92-1.4-1.92ZM157.93,11.56l1.43,1.92h-2.83l1.4-1.92ZM156.53,5.79h2.83l-1.43,1.92-1.4-1.92ZM159.33,9.63l1.43,1.92h-2.83l1.4-1.92ZM157.93,7.71h2.83l-1.43,1.92-1.4-1.92Z"/>
          <path class="cls-1" d="M143.74,29.93l1.4,1.92h-2.83l1.43-1.92ZM142.32,28.01h2.83l-1.4,1.92-1.43-1.92ZM145.14,31.86l1.4,1.92h-2.83l1.43-1.92ZM143.72,26.09h2.83l-1.4,1.92-1.43-1.92ZM146.54,33.78l1.4,1.92h-2.83l1.43-1.92ZM145.12,24.17h2.83l-1.4,1.92-1.43-1.92ZM147.94,35.7l1.4,1.92h-2.83l1.43-1.92ZM146.51,22.25h2.83l-1.4,1.92-1.43-1.92ZM149.34,37.62l1.4,1.92h-2.83l1.43-1.92ZM147.91,20.33h2.83l-1.4,1.92-1.43-1.92ZM153.73,37.62l1.43,1.92h-2.83l1.4-1.92ZM152.33,20.33h2.83l-1.43,1.92-1.4-1.92ZM155.13,35.7l1.43,1.92h-2.83l1.4-1.92ZM153.73,22.25h2.83l-1.43,1.92-1.4-1.92ZM156.53,33.78l1.43,1.92h-2.83l1.4-1.92ZM155.13,24.17h2.83l-1.43,1.92-1.4-1.92ZM157.93,31.86l1.43,1.92h-2.83l1.4-1.92ZM156.53,26.09h2.83l-1.43,1.92-1.4-1.92ZM159.33,29.93l1.43,1.92h-2.83l1.4-1.92ZM157.93,28.01h2.83l-1.43,1.92-1.4-1.92Z"/>
          <path class="cls-1" d="M143.74,50.24l1.4,1.92h-2.83l1.43-1.92ZM142.32,48.31h2.83l-1.4,1.92-1.43-1.92ZM145.14,52.16l1.4,1.92h-2.83l1.43-1.92ZM143.72,46.39h2.83l-1.4,1.92-1.43-1.92ZM146.54,54.08l1.4,1.92h-2.83l1.43-1.92ZM145.12,44.47h2.83l-1.4,1.92-1.43-1.92ZM147.94,56l1.4,1.92h-2.83l1.43-1.92ZM146.51,42.55h2.83l-1.4,1.92-1.43-1.92ZM149.34,57.92l1.4,1.92h-2.83l1.43-1.92ZM147.91,40.63h2.83l-1.4,1.92-1.43-1.92ZM153.73,57.92l1.43,1.92h-2.83l1.4-1.92ZM152.33,40.63h2.83l-1.43,1.92-1.4-1.92ZM155.13,56l1.43,1.92h-2.83l1.4-1.92ZM153.73,42.55h2.83l-1.43,1.92-1.4-1.92ZM156.53,54.08l1.43,1.92h-2.83l1.4-1.92ZM155.13,44.47h2.83l-1.43,1.92-1.4-1.92ZM157.93,52.16l1.43,1.92h-2.83l1.4-1.92ZM156.53,46.39h2.83l-1.43,1.92-1.4-1.92ZM159.33,50.24l1.43,1.92h-2.83l1.4-1.92ZM157.93,48.31h2.83l-1.43,1.92-1.4-1.92Z"/>
          <path class="cls-1" d="M143.74,70.51l1.4,1.92h-2.83l1.43-1.92ZM142.32,68.59h2.83l-1.4,1.92-1.43-1.92ZM145.14,72.43l1.4,1.92h-2.83l1.43-1.92ZM143.72,66.67h2.83l-1.4,1.92-1.43-1.92ZM146.54,74.35l1.4,1.92h-2.83l1.43-1.92ZM145.12,64.74h2.83l-1.4,1.92-1.43-1.92ZM147.94,76.27l1.4,1.92h-2.83l1.43-1.92ZM146.51,62.82h2.83l-1.4,1.92-1.43-1.92ZM149.34,78.19l1.4,1.92h-2.83l1.43-1.92ZM147.91,60.9h2.83l-1.4,1.92-1.43-1.92ZM153.73,78.19l1.43,1.92h-2.83l1.4-1.92ZM152.33,60.9h2.83l-1.43,1.92-1.4-1.92ZM155.13,76.27l1.43,1.92h-2.83l1.4-1.92ZM153.73,62.82h2.83l-1.43,1.92-1.4-1.92ZM156.53,74.35l1.43,1.92h-2.83l1.4-1.92ZM155.13,64.74h2.83l-1.43,1.92-1.4-1.92ZM157.93,72.43l1.43,1.92h-2.83l1.4-1.92ZM156.53,66.67h2.83l-1.43,1.92-1.4-1.92ZM159.33,70.51l1.43,1.92h-2.83l1.4-1.92ZM157.93,68.59h2.83l-1.43,1.92-1.4-1.92Z"/>
        </g>
        <g>
          <path class="cls-1" d="M1.91,9.63l1.4,1.92H.48l1.43-1.92ZM.48,7.71h2.83l-1.4,1.92-1.43-1.92ZM3.31,11.56l1.4,1.92H1.88l1.43-1.92ZM1.88,5.79h2.83l-1.4,1.92-1.43-1.92ZM4.71,13.48l1.4,1.92h-2.83l1.43-1.92ZM3.28,3.87h2.83l-1.4,1.92-1.43-1.92ZM6.11,15.4l1.4,1.92h-2.83l1.43-1.92ZM4.68,1.95h2.83l-1.4,1.92-1.43-1.92ZM7.51,17.32l1.4,1.92h-2.83l1.43-1.92ZM6.08.03h2.83l-1.4,1.92L6.08.03ZM11.9,17.32l1.43,1.92h-2.83l1.4-1.92ZM10.5.03h2.83l-1.43,1.92L10.5.03ZM13.3,15.4l1.43,1.92h-2.83l1.4-1.92ZM11.9,1.95h2.83l-1.43,1.92-1.4-1.92ZM14.7,13.48l1.43,1.92h-2.83l1.4-1.92ZM13.3,3.87h2.83l-1.43,1.92-1.4-1.92ZM16.1,11.56l1.43,1.92h-2.83l1.4-1.92ZM14.7,5.79h2.83l-1.43,1.92-1.4-1.92ZM17.5,9.63l1.43,1.92h-2.83l1.4-1.92ZM16.1,7.71h2.83l-1.43,1.92-1.4-1.92Z"/>
          <path class="cls-1" d="M1.91,29.93l1.4,1.92H.48l1.43-1.92ZM.48,28.01h2.83l-1.4,1.92-1.43-1.92ZM3.31,31.86l1.4,1.92H1.88l1.43-1.92ZM1.88,26.09h2.83l-1.4,1.92-1.43-1.92ZM4.71,33.78l1.4,1.92h-2.83l1.43-1.92ZM3.28,24.17h2.83l-1.4,1.92-1.43-1.92ZM6.11,35.7l1.4,1.92h-2.83l1.43-1.92ZM4.68,22.25h2.83l-1.4,1.92-1.43-1.92ZM7.51,37.62l1.4,1.92h-2.83l1.43-1.92ZM6.08,20.33h2.83l-1.4,1.92-1.43-1.92ZM11.9,37.62l1.43,1.92h-2.83l1.4-1.92ZM10.5,20.33h2.83l-1.43,1.92-1.4-1.92ZM13.3,35.7l1.43,1.92h-2.83l1.4-1.92ZM11.9,22.25h2.83l-1.43,1.92-1.4-1.92ZM14.7,33.78l1.43,1.92h-2.83l1.4-1.92ZM13.3,24.17h2.83l-1.43,1.92-1.4-1.92ZM16.1,31.86l1.43,1.92h-2.83l1.4-1.92ZM14.7,26.09h2.83l-1.43,1.92-1.4-1.92Z"/>
          <path class="cls-1" d="M1.91,50.24l1.4,1.92H.48l1.43-1.92ZM.48,48.31h2.83l-1.4,1.92-1.43-1.92ZM3.31,52.16l1.4,1.92H1.88l1.43-1.92ZM1.88,46.39h2.83l-1.4,1.92-1.43-1.92ZM4.71,54.08l1.4,1.92h-2.83l1.43-1.92ZM3.28,44.47h2.83l-1.4,1.92-1.43-1.92ZM6.11,56l1.4,1.92h-2.83l1.43-1.92ZM4.68,42.55h2.83l-1.4,1.92-1.43-1.92ZM7.51,57.92l1.4,1.92h-2.83l1.43-1.92ZM6.08,40.63h2.83l-1.4,1.92-1.43-1.92ZM11.9,57.92l1.43,1.92h-2.83l1.4-1.92ZM10.5,40.63h2.83l-1.43,1.92-1.4-1.92ZM13.3,56l1.43,1.92h-2.83l1.4-1.92ZM11.9,42.55h2.83l-1.43,1.92-1.4-1.92ZM14.7,54.08l1.43,1.92h-2.83l1.4-1.92ZM13.3,44.47h2.83l-1.43,1.92-1.4-1.92ZM16.1,52.16l1.43,1.92h-2.83l1.4-1.92ZM14.7,46.39h2.83l-1.43,1.92-1.4-1.92Z"/>
          <path class="cls-1" d="M1.91,70.51l1.4,1.92H.48l1.43-1.92ZM.48,68.59h2.83l-1.4,1.92-1.43-1.92ZM3.31,72.43l1.4,1.92H1.88l1.43-1.92ZM1.88,66.67h2.83l-1.4,1.92-1.43-1.92ZM4.71,74.35l1.4,1.92h-2.83l1.43-1.92ZM3.28,64.74h2.83l-1.4,1.92-1.43-1.92ZM6.11,76.27l1.4,1.92h-2.83l1.43-1.92ZM4.68,62.82h2.83l-1.4,1.92-1.43-1.92ZM7.51,78.19l1.4,1.92h-2.83l1.43-1.92ZM6.08,60.9h2.83l-1.4,1.92-1.43-1.92ZM11.9,78.19l1.43,1.92h-2.83l1.4-1.92ZM10.5,60.9h2.83l-1.43,1.92-1.4-1.92ZM13.3,76.27l1.43,1.92h-2.83l1.4-1.92ZM11.9,62.82h2.83l-1.43,1.92-1.4-1.92ZM14.7,74.35l1.43,1.92h-2.83l1.4-1.92ZM13.3,64.74h2.83l-1.43,1.92-1.4-1.92ZM16.1,72.43l1.43,1.92h-2.83l1.4-1.92ZM14.7,66.67h2.83l-1.43,1.92-1.4-1.92ZM17.5,70.51l1.43,1.92h-2.83l1.4-1.92ZM16.1,68.59h2.83l-1.43,1.92-1.4-1.92Z"/>
          <g>
            <path class="cls-1" d="M18.02,31.86l1.4,1.92h-2.83l1.43-1.92ZM16.6,26.09h2.83l-1.4,1.92-1.43-1.92ZM19.42,33.78l1.4,1.92h-2.83l1.43-1.92ZM18,24.17h2.83l-1.4,1.92-1.43-1.92ZM20.82,35.7l1.4,1.92h-2.83l1.43-1.92ZM19.4,22.25h2.83l-1.4,1.92-1.43-1.92ZM22.22,37.62l1.4,1.92h-2.83l1.43-1.92ZM20.8,20.33h2.83l-1.4,1.92-1.43-1.92ZM26.62,37.62l1.43,1.92h-2.83l1.4-1.92ZM28.02,35.7l1.43,1.92h-2.83l1.4-1.92ZM29.42,33.78l1.43,1.92h-2.83l1.4-1.92ZM30.82,31.86l1.43,1.92h-2.83l1.4-1.92ZM32.22,29.93l1.43,1.92h-2.83l1.4-1.92Z"/>
            <g>
              <polygon class="cls-1" points="22.51 17.86 25.34 17.86 23.94 19.78 22.51 17.86"/>
              <polygon class="cls-1" points="23.91 15.94 26.74 15.94 25.34 17.86 23.91 15.94"/>
              <polygon class="cls-1" points="25.31 14.02 28.14 14.02 26.74 15.94 25.31 14.02"/>
              <polygon class="cls-1" points="26.71 12.09 29.54 12.09 28.14 14.02 26.71 12.09"/>
              <g>
                <polygon class="cls-1" points="24.82 19.78 26.22 21.7 23.39 21.7 24.82 19.78"/>
                <polygon class="cls-1" points="26.22 21.7 27.62 23.62 24.79 23.62 26.22 21.7"/>
                <polygon class="cls-1" points="27.62 23.62 29.02 25.54 26.19 25.54 27.62 23.62"/>
                <polygon class="cls-1" points="29.02 25.54 30.42 27.47 27.59 27.47 29.02 25.54"/>
                <polygon class="cls-1" points="30.42 27.47 31.82 29.39 28.99 29.39 30.42 27.47"/>
              </g>
              <polygon class="cls-1" points="28.11 10.17 30.94 10.17 29.54 12.09 28.11 10.17"/>
              <polygon class="cls-1" points="33.93 27.47 35.36 29.39 32.53 29.39 33.93 27.47"/>
              <polygon class="cls-1" points="35.33 25.54 36.76 27.47 33.93 27.47 35.33 25.54"/>
              <polygon class="cls-1" points="36.73 23.62 38.16 25.54 35.33 25.54 36.73 23.62"/>
              <polygon class="cls-1" points="38.13 21.7 39.56 23.62 36.73 23.62 38.13 21.7"/>
              <polygon class="cls-1" points="39.53 19.78 40.96 21.7 38.13 21.7 39.53 19.78"/>
            </g>
            <g>
              <polygon class="cls-1" points="29.91 7.69 32.73 7.69 31.33 9.61 29.91 7.69"/>
              <polygon class="cls-1" points="31.31 5.76 34.13 5.76 32.73 7.69 31.31 5.76"/>
              <polygon class="cls-1" points="32.71 3.84 35.53 3.84 34.13 5.76 32.71 3.84"/>
              <polygon class="cls-1" points="34.11 1.92 36.93 1.92 35.53 3.84 34.11 1.92"/>
              <g>
                <polygon class="cls-1" points="32.21 9.61 33.61 11.53 30.78 11.53 32.21 9.61"/>
                <polygon class="cls-1" points="33.61 11.53 35.01 13.45 32.18 13.45 33.61 11.53"/>
                <polygon class="cls-1" points="35.01 13.45 36.41 15.37 33.58 15.37 35.01 13.45"/>
                <polygon class="cls-1" points="36.41 15.37 37.81 17.29 34.98 17.29 36.41 15.37"/>
                <polygon class="cls-1" points="37.81 17.29 39.21 19.21 36.38 19.21 37.81 17.29"/>
              </g>
              <polygon class="cls-1" points="35.51 0 38.33 0 36.93 1.92 35.51 0"/>
              <polygon class="cls-1" points="41.32 17.29 42.75 19.21 39.92 19.21 41.32 17.29"/>
              <polygon class="cls-1" points="39.92 0 42.75 0 41.32 1.92 39.92 0"/>
              <polygon class="cls-1" points="42.72 15.37 44.15 17.29 41.32 17.29 42.72 15.37"/>
              <polygon class="cls-1" points="41.32 1.92 44.15 1.92 42.72 3.84 41.32 1.92"/>
              <polygon class="cls-1" points="44.12 13.45 45.55 15.37 42.72 15.37 44.12 13.45"/>
              <polygon class="cls-1" points="42.72 3.84 45.55 3.84 44.12 5.76 42.72 3.84"/>
              <polygon class="cls-1" points="45.52 11.53 46.95 13.45 44.12 13.45 45.52 11.53"/>
              <polygon class="cls-1" points="44.12 5.76 46.95 5.76 45.52 7.69 44.12 5.76"/>
              <polygon class="cls-1" points="46.92 9.61 48.35 11.53 45.52 11.53 46.92 9.61"/>
              <polygon class="cls-1" points="45.52 7.69 48.35 7.69 46.92 9.61 45.52 7.69"/>
            </g>
          </g>
          <g>
            <path class="cls-1" d="M16.6,46.36h2.83l-1.4,1.92-1.43-1.92ZM18.02,52.12l1.4,1.92h-2.83l1.43-1.92ZM18,44.43h2.83l-1.4,1.92-1.43-1.92ZM19.42,54.04l1.4,1.92h-2.83l1.43-1.92ZM19.4,42.51h2.83l-1.4,1.92-1.43-1.92ZM20.82,55.96l1.4,1.92h-2.83l1.43-1.92ZM20.8,40.59h2.83l-1.4,1.92-1.43-1.92ZM22.22,57.88l1.4,1.92h-2.83l1.43-1.92ZM25.22,40.59h2.83l-1.43,1.92-1.4-1.92ZM26.62,42.51h2.83l-1.43,1.92-1.4-1.92ZM28.02,44.43h2.83l-1.43,1.92-1.4-1.92ZM29.42,46.36h2.83l-1.43,1.92-1.4-1.92ZM30.82,48.28h2.83l-1.43,1.92-1.4-1.92Z"/>
            <g>
              <polygon class="cls-1" points="23.94 60.35 25.34 62.27 22.51 62.27 23.94 60.35"/>
              <polygon class="cls-1" points="25.34 62.27 26.74 64.2 23.91 64.2 25.34 62.27"/>
              <polygon class="cls-1" points="26.74 64.2 28.14 66.12 25.31 66.12 26.74 64.2"/>
              <polygon class="cls-1" points="28.14 66.12 29.54 68.04 26.71 68.04 28.14 66.12"/>
              <g>
                <polygon class="cls-1" points="23.39 58.43 26.22 58.43 24.82 60.35 23.39 58.43"/>
                <polygon class="cls-1" points="24.79 56.51 27.62 56.51 26.22 58.43 24.79 56.51"/>
                <polygon class="cls-1" points="26.19 54.59 29.02 54.59 27.62 56.51 26.19 54.59"/>
                <polygon class="cls-1" points="27.59 52.67 30.42 52.67 29.02 54.59 27.59 52.67"/>
                <polygon class="cls-1" points="28.99 50.75 31.82 50.75 30.42 52.67 28.99 50.75"/>
              </g>
              <polygon class="cls-1" points="29.54 68.04 30.94 69.96 28.11 69.96 29.54 68.04"/>
              <polygon class="cls-1" points="32.53 50.75 35.36 50.75 33.93 52.67 32.53 50.75"/>
              <polygon class="cls-1" points="33.93 52.67 36.76 52.67 35.33 54.59 33.93 52.67"/>
              <polygon class="cls-1" points="35.33 54.59 38.16 54.59 36.73 56.51 35.33 54.59"/>
              <polygon class="cls-1" points="36.73 56.51 39.56 56.51 38.13 58.43 36.73 56.51"/>
              <polygon class="cls-1" points="38.13 58.43 40.96 58.43 39.53 60.35 38.13 58.43"/>
            </g>
            <g>
              <polygon class="cls-1" points="31.33 70.53 32.73 72.45 29.91 72.45 31.33 70.53"/>
              <polygon class="cls-1" points="32.73 72.45 34.13 74.37 31.31 74.37 32.73 72.45"/>
              <polygon class="cls-1" points="34.13 74.37 35.53 76.29 32.71 76.29 34.13 74.37"/>
              <polygon class="cls-1" points="35.53 76.29 36.93 78.21 34.11 78.21 35.53 76.29"/>
              <g>
                <polygon class="cls-1" points="30.78 68.61 33.61 68.61 32.21 70.53 30.78 68.61"/>
                <polygon class="cls-1" points="32.18 66.68 35.01 66.68 33.61 68.61 32.18 66.68"/>
                <polygon class="cls-1" points="33.58 64.76 36.41 64.76 35.01 66.68 33.58 64.76"/>
                <polygon class="cls-1" points="34.98 62.84 37.81 62.84 36.41 64.76 34.98 62.84"/>
                <polygon class="cls-1" points="36.38 60.92 39.21 60.92 37.81 62.84 36.38 60.92"/>
              </g>
              <polygon class="cls-1" points="36.93 78.21 38.33 80.13 35.51 80.13 36.93 78.21"/>
              <polygon class="cls-1" points="39.92 60.92 42.75 60.92 41.32 62.84 39.92 60.92"/>
              <polygon class="cls-1" points="41.32 78.21 42.75 80.13 39.92 80.13 41.32 78.21"/>
              <polygon class="cls-1" points="41.32 62.84 44.15 62.84 42.72 64.76 41.32 62.84"/>
              <polygon class="cls-1" points="42.72 76.29 44.15 78.21 41.32 78.21 42.72 76.29"/>
              <polygon class="cls-1" points="42.72 64.76 45.55 64.76 44.12 66.68 42.72 64.76"/>
              <polygon class="cls-1" points="44.12 74.37 45.55 76.29 42.72 76.29 44.12 74.37"/>
              <polygon class="cls-1" points="44.12 66.68 46.95 66.68 45.52 68.61 44.12 66.68"/>
              <polygon class="cls-1" points="45.52 72.45 46.95 74.37 44.12 74.37 45.52 72.45"/>
              <polygon class="cls-1" points="45.52 68.61 48.35 68.61 46.92 70.53 45.52 68.61"/>
              <polygon class="cls-1" points="46.92 70.53 48.35 72.45 45.52 72.45 46.92 70.53"/>
            </g>
          </g>
        </g>
        <g>
          <path class="cls-1" d="M223.08,9.63l1.4,1.92h-2.83l1.43-1.92ZM221.65,7.71h2.83l-1.4,1.92-1.43-1.92ZM224.47,11.56l1.4,1.92h-2.83l1.43-1.92ZM223.05,5.79h2.83l-1.4,1.92-1.43-1.92ZM225.87,13.48l1.4,1.92h-2.83l1.43-1.92ZM224.45,3.87h2.83l-1.4,1.92-1.43-1.92ZM227.27,15.4l1.4,1.92h-2.83l1.43-1.92ZM225.85,1.95h2.83l-1.4,1.92-1.43-1.92ZM228.67,17.32l1.4,1.92h-2.83l1.43-1.92ZM227.25.03h2.83l-1.4,1.92-1.43-1.92ZM233.07,17.32l1.43,1.92h-2.83l1.4-1.92ZM231.67.03h2.83l-1.43,1.92-1.4-1.92ZM234.47,15.4l1.43,1.92h-2.83l1.4-1.92ZM233.07,1.95h2.83l-1.43,1.92-1.4-1.92ZM235.87,13.48l1.43,1.92h-2.83l1.4-1.92ZM234.47,3.87h2.83l-1.43,1.92-1.4-1.92ZM237.27,11.56l1.43,1.92h-2.83l1.4-1.92ZM235.87,5.79h2.83l-1.43,1.92-1.4-1.92ZM238.67,9.63l1.43,1.92h-2.83l1.4-1.92ZM237.27,7.71h2.83l-1.43,1.92-1.4-1.92Z"/>
          <path class="cls-1" d="M223.08,29.93l1.4,1.92h-2.83l1.43-1.92ZM221.65,28.01h2.83l-1.4,1.92-1.43-1.92ZM224.47,31.86l1.4,1.92h-2.83l1.43-1.92ZM223.05,26.09h2.83l-1.4,1.92-1.43-1.92ZM225.87,33.78l1.4,1.92h-2.83l1.43-1.92ZM224.45,24.17h2.83l-1.4,1.92-1.43-1.92ZM227.27,35.7l1.4,1.92h-2.83l1.43-1.92ZM225.85,22.25h2.83l-1.4,1.92-1.43-1.92ZM228.67,37.62l1.4,1.92h-2.83l1.43-1.92ZM227.25,20.33h2.83l-1.4,1.92-1.43-1.92ZM233.07,37.62l1.43,1.92h-2.83l1.4-1.92ZM231.67,20.33h2.83l-1.43,1.92-1.4-1.92ZM234.47,35.7l1.43,1.92h-2.83l1.4-1.92ZM233.07,22.25h2.83l-1.43,1.92-1.4-1.92ZM235.87,33.78l1.43,1.92h-2.83l1.4-1.92ZM234.47,24.17h2.83l-1.43,1.92-1.4-1.92ZM237.27,31.86l1.43,1.92h-2.83l1.4-1.92ZM235.87,26.09h2.83l-1.43,1.92-1.4-1.92ZM238.67,29.93l1.43,1.92h-2.83l1.4-1.92ZM237.27,28.01h2.83l-1.43,1.92-1.4-1.92Z"/>
          <path class="cls-1" d="M223.08,50.24l1.4,1.92h-2.83l1.43-1.92ZM221.65,48.31h2.83l-1.4,1.92-1.43-1.92ZM224.47,52.16l1.4,1.92h-2.83l1.43-1.92ZM223.05,46.39h2.83l-1.4,1.92-1.43-1.92ZM225.87,54.08l1.4,1.92h-2.83l1.43-1.92ZM224.45,44.47h2.83l-1.4,1.92-1.43-1.92ZM227.27,56l1.4,1.92h-2.83l1.43-1.92ZM225.85,42.55h2.83l-1.4,1.92-1.43-1.92ZM228.67,57.92l1.4,1.92h-2.83l1.43-1.92ZM227.25,40.63h2.83l-1.4,1.92-1.43-1.92ZM233.07,57.92l1.43,1.92h-2.83l1.4-1.92ZM231.67,40.63h2.83l-1.43,1.92-1.4-1.92ZM234.47,56l1.43,1.92h-2.83l1.4-1.92ZM233.07,42.55h2.83l-1.43,1.92-1.4-1.92ZM235.87,54.08l1.43,1.92h-2.83l1.4-1.92ZM234.47,44.47h2.83l-1.43,1.92-1.4-1.92ZM237.27,52.16l1.43,1.92h-2.83l1.4-1.92ZM235.87,46.39h2.83l-1.43,1.92-1.4-1.92ZM238.67,50.24l1.43,1.92h-2.83l1.4-1.92ZM237.27,48.31h2.83l-1.43,1.92-1.4-1.92Z"/>
          <path class="cls-1" d="M223.08,70.51l1.4,1.92h-2.83l1.43-1.92ZM221.65,68.59h2.83l-1.4,1.92-1.43-1.92ZM224.47,72.43l1.4,1.92h-2.83l1.43-1.92ZM223.05,66.67h2.83l-1.4,1.92-1.43-1.92ZM225.87,74.35l1.4,1.92h-2.83l1.43-1.92ZM224.45,64.74h2.83l-1.4,1.92-1.43-1.92ZM227.27,76.27l1.4,1.92h-2.83l1.43-1.92ZM225.85,62.82h2.83l-1.4,1.92-1.43-1.92ZM228.67,78.19l1.4,1.92h-2.83l1.43-1.92ZM227.25,60.9h2.83l-1.4,1.92-1.43-1.92ZM233.07,78.19l1.43,1.92h-2.83l1.4-1.92ZM231.67,60.9h2.83l-1.43,1.92-1.4-1.92ZM234.47,76.27l1.43,1.92h-2.83l1.4-1.92ZM233.07,62.82h2.83l-1.43,1.92-1.4-1.92ZM235.87,74.35l1.43,1.92h-2.83l1.4-1.92ZM234.47,64.74h2.83l-1.43,1.92-1.4-1.92ZM237.27,72.43l1.43,1.92h-2.83l1.4-1.92ZM235.87,66.67h2.83l-1.43,1.92-1.4-1.92ZM238.67,70.51l1.43,1.92h-2.83l1.4-1.92ZM237.27,68.59h2.83l-1.43,1.92-1.4-1.92Z"/>
          <path class="cls-1" d="M238.71,9.63l1.4,1.92h-2.83l1.43-1.92ZM237.28,7.71h2.83l-1.4,1.92-1.43-1.92ZM240.11,11.56l1.4,1.92h-2.83l1.43-1.92ZM238.68,5.79h2.83l-1.4,1.92-1.43-1.92ZM241.51,13.48l1.4,1.92h-2.83l1.43-1.92ZM240.08,3.87h2.83l-1.4,1.92-1.43-1.92ZM242.91,15.4l1.4,1.92h-2.83l1.43-1.92ZM241.48,1.95h2.83l-1.4,1.92-1.43-1.92ZM244.31,17.32l1.4,1.92h-2.83l1.43-1.92ZM242.88.03h2.83l-1.4,1.92-1.43-1.92ZM248.7,17.32l1.43,1.92h-2.83l1.4-1.92ZM247.3.03h2.83l-1.43,1.92-1.4-1.92ZM250.1,15.4l1.43,1.92h-2.83l1.4-1.92ZM248.7,1.95h2.83l-1.43,1.92-1.4-1.92ZM251.5,13.48l1.43,1.92h-2.83l1.4-1.92ZM250.1,3.87h2.83l-1.43,1.92-1.4-1.92ZM252.9,11.56l1.43,1.92h-2.83l1.4-1.92ZM251.5,5.79h2.83l-1.43,1.92-1.4-1.92ZM254.3,9.63l1.43,1.92h-2.83l1.4-1.92ZM252.9,7.71h2.83l-1.43,1.92-1.4-1.92Z"/>
          <path class="cls-1" d="M238.71,50.24l1.4,1.92h-2.83l1.43-1.92ZM237.28,48.31h2.83l-1.4,1.92-1.43-1.92ZM240.11,52.16l1.4,1.92h-2.83l1.43-1.92ZM238.68,46.39h2.83l-1.4,1.92-1.43-1.92ZM241.51,54.08l1.4,1.92h-2.83l1.43-1.92ZM240.08,44.47h2.83l-1.4,1.92-1.43-1.92ZM242.91,56l1.4,1.92h-2.83l1.43-1.92ZM241.48,42.55h2.83l-1.4,1.92-1.43-1.92ZM244.31,57.92l1.4,1.92h-2.83l1.43-1.92ZM242.88,40.63h2.83l-1.4,1.92-1.43-1.92ZM248.7,57.92l1.43,1.92h-2.83l1.4-1.92ZM247.3,40.63h2.83l-1.43,1.92-1.4-1.92ZM250.1,56l1.43,1.92h-2.83l1.4-1.92ZM248.7,42.55h2.83l-1.43,1.92-1.4-1.92ZM251.5,54.08l1.43,1.92h-2.83l1.4-1.92ZM250.1,44.47h2.83l-1.43,1.92-1.4-1.92ZM252.9,52.16l1.43,1.92h-2.83l1.4-1.92ZM251.5,46.39h2.83l-1.43,1.92-1.4-1.92ZM254.3,50.24l1.43,1.92h-2.83l1.4-1.92ZM252.9,48.31h2.83l-1.43,1.92-1.4-1.92Z"/>
          <path class="cls-1" d="M254.34,9.63l1.4,1.92h-2.83l1.43-1.92ZM252.91,7.71h2.83l-1.4,1.92-1.43-1.92ZM255.74,11.56l1.4,1.92h-2.83l1.43-1.92ZM254.31,5.79h2.83l-1.4,1.92-1.43-1.92ZM257.14,13.48l1.4,1.92h-2.83l1.43-1.92ZM255.71,3.87h2.83l-1.4,1.92-1.43-1.92ZM258.54,15.4l1.4,1.92h-2.83l1.43-1.92ZM257.11,1.95h2.83l-1.4,1.92-1.43-1.92ZM259.94,17.32l1.4,1.92h-2.83l1.43-1.92ZM258.51.03h2.83l-1.4,1.92-1.43-1.92ZM264.33,17.32l1.43,1.92h-2.83l1.4-1.92ZM262.93.03h2.83l-1.43,1.92-1.4-1.92ZM265.73,15.4l1.43,1.92h-2.83l1.4-1.92ZM264.33,1.95h2.83l-1.43,1.92-1.4-1.92ZM267.13,13.48l1.43,1.92h-2.83l1.4-1.92ZM265.73,3.87h2.83l-1.43,1.92-1.4-1.92ZM268.53,11.56l1.43,1.92h-2.83l1.4-1.92ZM267.13,5.79h2.83l-1.43,1.92-1.4-1.92ZM269.93,9.63l1.43,1.92h-2.83l1.4-1.92ZM268.53,7.71h2.83l-1.43,1.92-1.4-1.92Z"/>
          <path class="cls-1" d="M254.34,29.93l1.4,1.92h-2.83l1.43-1.92ZM252.91,28.01h2.83l-1.4,1.92-1.43-1.92ZM255.74,31.86l1.4,1.92h-2.83l1.43-1.92ZM254.31,26.09h2.83l-1.4,1.92-1.43-1.92ZM257.14,33.78l1.4,1.92h-2.83l1.43-1.92ZM255.71,24.17h2.83l-1.4,1.92-1.43-1.92ZM258.54,35.7l1.4,1.92h-2.83l1.43-1.92ZM257.11,22.25h2.83l-1.4,1.92-1.43-1.92ZM259.94,37.62l1.4,1.92h-2.83l1.43-1.92ZM258.51,20.33h2.83l-1.4,1.92-1.43-1.92ZM264.33,37.62l1.43,1.92h-2.83l1.4-1.92ZM262.93,20.33h2.83l-1.43,1.92-1.4-1.92ZM265.73,35.7l1.43,1.92h-2.83l1.4-1.92ZM264.33,22.25h2.83l-1.43,1.92-1.4-1.92ZM267.13,33.78l1.43,1.92h-2.83l1.4-1.92ZM265.73,24.17h2.83l-1.43,1.92-1.4-1.92ZM268.53,31.86l1.43,1.92h-2.83l1.4-1.92ZM267.13,26.09h2.83l-1.43,1.92-1.4-1.92ZM269.93,29.93l1.43,1.92h-2.83l1.4-1.92ZM268.53,28.01h2.83l-1.43,1.92-1.4-1.92Z"/>
          <path class="cls-1" d="M254.34,50.24l1.4,1.92h-2.83l1.43-1.92ZM252.91,48.31h2.83l-1.4,1.92-1.43-1.92ZM255.74,52.16l1.4,1.92h-2.83l1.43-1.92ZM254.31,46.39h2.83l-1.4,1.92-1.43-1.92ZM257.14,54.08l1.4,1.92h-2.83l1.43-1.92ZM255.71,44.47h2.83l-1.4,1.92-1.43-1.92ZM258.54,56l1.4,1.92h-2.83l1.43-1.92ZM257.11,42.55h2.83l-1.4,1.92-1.43-1.92ZM259.94,57.92l1.4,1.92h-2.83l1.43-1.92ZM258.51,40.63h2.83l-1.4,1.92-1.43-1.92ZM264.33,57.92l1.43,1.92h-2.83l1.4-1.92ZM262.93,40.63h2.83l-1.43,1.92-1.4-1.92ZM265.73,56l1.43,1.92h-2.83l1.4-1.92ZM264.33,42.55h2.83l-1.43,1.92-1.4-1.92ZM267.13,54.08l1.43,1.92h-2.83l1.4-1.92ZM265.73,44.47h2.83l-1.43,1.92-1.4-1.92ZM268.53,52.16l1.43,1.92h-2.83l1.4-1.92ZM267.13,46.39h2.83l-1.43,1.92-1.4-1.92ZM269.93,50.24l1.43,1.92h-2.83l1.4-1.92ZM268.53,48.31h2.83l-1.43,1.92-1.4-1.92Z"/>
          <path class="cls-1" d="M254.34,70.51l1.4,1.92h-2.83l1.43-1.92ZM252.91,68.59h2.83l-1.4,1.92-1.43-1.92ZM255.74,72.43l1.4,1.92h-2.83l1.43-1.92ZM254.31,66.67h2.83l-1.4,1.92-1.43-1.92ZM257.14,74.35l1.4,1.92h-2.83l1.43-1.92ZM255.71,64.74h2.83l-1.4,1.92-1.43-1.92ZM258.54,76.27l1.4,1.92h-2.83l1.43-1.92ZM257.11,62.82h2.83l-1.4,1.92-1.43-1.92ZM259.94,78.19l1.4,1.92h-2.83l1.43-1.92ZM258.51,60.9h2.83l-1.4,1.92-1.43-1.92ZM264.33,78.19l1.43,1.92h-2.83l1.4-1.92ZM262.93,60.9h2.83l-1.43,1.92-1.4-1.92ZM265.73,76.27l1.43,1.92h-2.83l1.4-1.92ZM264.33,62.82h2.83l-1.43,1.92-1.4-1.92ZM267.13,74.35l1.43,1.92h-2.83l1.4-1.92ZM265.73,64.74h2.83l-1.43,1.92-1.4-1.92ZM268.53,72.43l1.43,1.92h-2.83l1.4-1.92ZM267.13,66.67h2.83l-1.43,1.92-1.4-1.92ZM269.93,70.51l1.43,1.92h-2.83l1.4-1.92ZM268.53,68.59h2.83l-1.43,1.92-1.4-1.92Z"/>
        </g>
        <g>
          <path class="cls-1" d="M168.69,9.63l1.4,1.92h-2.83l1.43-1.92ZM167.26,7.71h2.83l-1.4,1.92-1.43-1.92ZM170.09,11.56l1.4,1.92h-2.83l1.43-1.92ZM168.66,5.79h2.83l-1.4,1.92-1.43-1.92ZM171.49,13.48l1.4,1.92h-2.83l1.43-1.92ZM170.06,3.87h2.83l-1.4,1.92-1.43-1.92ZM172.89,15.4l1.4,1.92h-2.83l1.43-1.92ZM171.46,1.95h2.83l-1.4,1.92-1.43-1.92ZM174.29,17.32l1.4,1.92h-2.83l1.43-1.92ZM172.86.03h2.83l-1.4,1.92-1.43-1.92ZM178.68,17.32l1.43,1.92h-2.83l1.4-1.92ZM177.28.03h2.83l-1.43,1.92-1.4-1.92ZM180.08,15.4l1.43,1.92h-2.83l1.4-1.92ZM178.68,1.95h2.83l-1.43,1.92-1.4-1.92ZM181.48,13.48l1.43,1.92h-2.83l1.4-1.92ZM180.08,3.87h2.83l-1.43,1.92-1.4-1.92ZM182.88,11.56l1.43,1.92h-2.83l1.4-1.92ZM181.48,5.79h2.83l-1.43,1.92-1.4-1.92ZM184.28,9.63l1.43,1.92h-2.83l1.4-1.92ZM182.88,7.71h2.83l-1.43,1.92-1.4-1.92Z"/>
          <path class="cls-1" d="M168.69,29.93l1.4,1.92h-2.83l1.43-1.92ZM167.26,28.01h2.83l-1.4,1.92-1.43-1.92ZM170.09,31.86l1.4,1.92h-2.83l1.43-1.92ZM168.66,26.09h2.83l-1.4,1.92-1.43-1.92ZM171.49,33.78l1.4,1.92h-2.83l1.43-1.92ZM170.06,24.17h2.83l-1.4,1.92-1.43-1.92ZM172.89,35.7l1.4,1.92h-2.83l1.43-1.92ZM171.46,22.25h2.83l-1.4,1.92-1.43-1.92ZM174.29,37.62l1.4,1.92h-2.83l1.43-1.92ZM172.86,20.33h2.83l-1.4,1.92-1.43-1.92ZM178.68,37.62l1.43,1.92h-2.83l1.4-1.92ZM177.28,20.33h2.83l-1.43,1.92-1.4-1.92ZM180.08,35.7l1.43,1.92h-2.83l1.4-1.92ZM178.68,22.25h2.83l-1.43,1.92-1.4-1.92ZM181.48,33.78l1.43,1.92h-2.83l1.4-1.92ZM180.08,24.17h2.83l-1.43,1.92-1.4-1.92ZM182.88,31.86l1.43,1.92h-2.83l1.4-1.92ZM181.48,26.09h2.83l-1.43,1.92-1.4-1.92Z"/>
          <path class="cls-1" d="M168.69,50.24l1.4,1.92h-2.83l1.43-1.92ZM167.26,48.31h2.83l-1.4,1.92-1.43-1.92ZM170.09,52.16l1.4,1.92h-2.83l1.43-1.92ZM168.66,46.39h2.83l-1.4,1.92-1.43-1.92ZM171.49,54.08l1.4,1.92h-2.83l1.43-1.92ZM170.06,44.47h2.83l-1.4,1.92-1.43-1.92ZM172.89,56l1.4,1.92h-2.83l1.43-1.92ZM171.46,42.55h2.83l-1.4,1.92-1.43-1.92ZM174.29,57.92l1.4,1.92h-2.83l1.43-1.92ZM172.86,40.63h2.83l-1.4,1.92-1.43-1.92ZM178.68,57.92l1.43,1.92h-2.83l1.4-1.92ZM177.28,40.63h2.83l-1.43,1.92-1.4-1.92ZM180.08,56l1.43,1.92h-2.83l1.4-1.92ZM178.68,42.55h2.83l-1.43,1.92-1.4-1.92ZM181.48,54.08l1.43,1.92h-2.83l1.4-1.92ZM180.08,44.47h2.83l-1.43,1.92-1.4-1.92ZM182.88,52.16l1.43,1.92h-2.83l1.4-1.92ZM181.48,46.39h2.83l-1.43,1.92-1.4-1.92Z"/>
          <path class="cls-1" d="M168.69,70.51l1.4,1.92h-2.83l1.43-1.92ZM167.26,68.59h2.83l-1.4,1.92-1.43-1.92ZM170.09,72.43l1.4,1.92h-2.83l1.43-1.92ZM168.66,66.67h2.83l-1.4,1.92-1.43-1.92ZM171.49,74.35l1.4,1.92h-2.83l1.43-1.92ZM170.06,64.74h2.83l-1.4,1.92-1.43-1.92ZM172.89,76.27l1.4,1.92h-2.83l1.43-1.92ZM171.46,62.82h2.83l-1.4,1.92-1.43-1.92ZM174.29,78.19l1.4,1.92h-2.83l1.43-1.92ZM172.86,60.9h2.83l-1.4,1.92-1.43-1.92ZM178.68,78.19l1.43,1.92h-2.83l1.4-1.92ZM177.28,60.9h2.83l-1.43,1.92-1.4-1.92ZM180.08,76.27l1.43,1.92h-2.83l1.4-1.92ZM178.68,62.82h2.83l-1.43,1.92-1.4-1.92ZM181.48,74.35l1.43,1.92h-2.83l1.4-1.92ZM180.08,64.74h2.83l-1.43,1.92-1.4-1.92ZM182.88,72.43l1.43,1.92h-2.83l1.4-1.92ZM181.48,66.67h2.83l-1.43,1.92-1.4-1.92ZM184.28,70.51l1.43,1.92h-2.83l1.4-1.92ZM182.88,68.59h2.83l-1.43,1.92-1.4-1.92Z"/>
          <g>
            <path class="cls-1" d="M184.8,31.86l1.4,1.92h-2.83l1.43-1.92ZM183.38,26.09h2.83l-1.4,1.92-1.43-1.92ZM186.2,33.78l1.4,1.92h-2.83l1.43-1.92ZM184.78,24.17h2.83l-1.4,1.92-1.43-1.92ZM187.6,35.7l1.4,1.92h-2.83l1.43-1.92ZM186.18,22.25h2.83l-1.4,1.92-1.43-1.92ZM189,37.62l1.4,1.92h-2.83l1.43-1.92ZM187.58,20.33h2.83l-1.4,1.92-1.43-1.92ZM193.4,37.62l1.43,1.92h-2.83l1.4-1.92ZM194.8,35.7l1.43,1.92h-2.83l1.4-1.92ZM196.2,33.78l1.43,1.92h-2.83l1.4-1.92ZM197.6,31.86l1.43,1.92h-2.83l1.4-1.92ZM199,29.93l1.43,1.92h-2.83l1.4-1.92Z"/>
            <g>
              <polygon class="cls-1" points="189.29 17.86 192.12 17.86 190.72 19.78 189.29 17.86"/>
              <polygon class="cls-1" points="190.69 15.94 193.52 15.94 192.12 17.86 190.69 15.94"/>
              <polygon class="cls-1" points="192.09 14.02 194.92 14.02 193.52 15.94 192.09 14.02"/>
              <polygon class="cls-1" points="193.49 12.09 196.32 12.09 194.92 14.02 193.49 12.09"/>
              <g>
                <polygon class="cls-1" points="191.6 19.78 193 21.7 190.17 21.7 191.6 19.78"/>
                <polygon class="cls-1" points="193 21.7 194.4 23.62 191.57 23.62 193 21.7"/>
                <polygon class="cls-1" points="194.4 23.62 195.8 25.54 192.97 25.54 194.4 23.62"/>
                <polygon class="cls-1" points="195.8 25.54 197.2 27.47 194.37 27.47 195.8 25.54"/>
                <polygon class="cls-1" points="197.2 27.47 198.6 29.39 195.77 29.39 197.2 27.47"/>
              </g>
              <polygon class="cls-1" points="194.89 10.17 197.72 10.17 196.32 12.09 194.89 10.17"/>
              <polygon class="cls-1" points="200.71 27.47 202.14 29.39 199.31 29.39 200.71 27.47"/>
              <polygon class="cls-1" points="202.11 25.54 203.54 27.47 200.71 27.47 202.11 25.54"/>
              <polygon class="cls-1" points="203.51 23.62 204.94 25.54 202.11 25.54 203.51 23.62"/>
              <polygon class="cls-1" points="204.91 21.7 206.34 23.62 203.51 23.62 204.91 21.7"/>
              <polygon class="cls-1" points="206.31 19.78 207.74 21.7 204.91 21.7 206.31 19.78"/>
            </g>
            <g>
              <polygon class="cls-1" points="196.69 7.69 199.51 7.69 198.11 9.61 196.69 7.69"/>
              <polygon class="cls-1" points="198.09 5.76 200.91 5.76 199.51 7.69 198.09 5.76"/>
              <polygon class="cls-1" points="199.49 3.84 202.31 3.84 200.91 5.76 199.49 3.84"/>
              <polygon class="cls-1" points="200.89 1.92 203.71 1.92 202.31 3.84 200.89 1.92"/>
              <g>
                <polygon class="cls-1" points="198.99 9.61 200.39 11.53 197.56 11.53 198.99 9.61"/>
                <polygon class="cls-1" points="200.39 11.53 201.79 13.45 198.96 13.45 200.39 11.53"/>
                <polygon class="cls-1" points="201.79 13.45 203.19 15.37 200.36 15.37 201.79 13.45"/>
                <polygon class="cls-1" points="203.19 15.37 204.59 17.29 201.76 17.29 203.19 15.37"/>
                <polygon class="cls-1" points="204.59 17.29 205.99 19.21 203.16 19.21 204.59 17.29"/>
              </g>
              <polygon class="cls-1" points="202.29 0 205.11 0 203.71 1.92 202.29 0"/>
              <polygon class="cls-1" points="208.1 17.29 209.53 19.21 206.7 19.21 208.1 17.29"/>
              <polygon class="cls-1" points="206.7 0 209.53 0 208.1 1.92 206.7 0"/>
              <polygon class="cls-1" points="209.5 15.37 210.93 17.29 208.1 17.29 209.5 15.37"/>
              <polygon class="cls-1" points="208.1 1.92 210.93 1.92 209.5 3.84 208.1 1.92"/>
              <polygon class="cls-1" points="210.9 13.45 212.33 15.37 209.5 15.37 210.9 13.45"/>
              <polygon class="cls-1" points="209.5 3.84 212.33 3.84 210.9 5.76 209.5 3.84"/>
              <polygon class="cls-1" points="212.3 11.53 213.73 13.45 210.9 13.45 212.3 11.53"/>
              <polygon class="cls-1" points="210.9 5.76 213.73 5.76 212.3 7.69 210.9 5.76"/>
              <polygon class="cls-1" points="213.7 9.61 215.13 11.53 212.3 11.53 213.7 9.61"/>
              <polygon class="cls-1" points="212.3 7.69 215.13 7.69 213.7 9.61 212.3 7.69"/>
            </g>
          </g>
          <g>
            <path class="cls-1" d="M183.38,46.36h2.83l-1.4,1.92-1.43-1.92ZM184.8,52.12l1.4,1.92h-2.83l1.43-1.92ZM184.78,44.43h2.83l-1.4,1.92-1.43-1.92ZM186.2,54.04l1.4,1.92h-2.83l1.43-1.92ZM186.18,42.51h2.83l-1.4,1.92-1.43-1.92ZM187.6,55.96l1.4,1.92h-2.83l1.43-1.92ZM187.58,40.59h2.83l-1.4,1.92-1.43-1.92ZM189,57.88l1.4,1.92h-2.83l1.43-1.92ZM192,40.59h2.83l-1.43,1.92-1.4-1.92ZM193.4,42.51h2.83l-1.43,1.92-1.4-1.92ZM194.8,44.43h2.83l-1.43,1.92-1.4-1.92ZM196.2,46.36h2.83l-1.43,1.92-1.4-1.92ZM197.6,48.28h2.83l-1.43,1.92-1.4-1.92Z"/>
            <g>
              <polygon class="cls-1" points="190.72 60.35 192.12 62.27 189.29 62.27 190.72 60.35"/>
              <polygon class="cls-1" points="192.12 62.27 193.52 64.2 190.69 64.2 192.12 62.27"/>
              <polygon class="cls-1" points="193.52 64.2 194.92 66.12 192.09 66.12 193.52 64.2"/>
              <polygon class="cls-1" points="194.92 66.12 196.32 68.04 193.49 68.04 194.92 66.12"/>
              <g>
                <polygon class="cls-1" points="190.17 58.43 193 58.43 191.6 60.35 190.17 58.43"/>
                <polygon class="cls-1" points="191.57 56.51 194.4 56.51 193 58.43 191.57 56.51"/>
                <polygon class="cls-1" points="192.97 54.59 195.8 54.59 194.4 56.51 192.97 54.59"/>
                <polygon class="cls-1" points="194.37 52.67 197.2 52.67 195.8 54.59 194.37 52.67"/>
                <polygon class="cls-1" points="195.77 50.75 198.6 50.75 197.2 52.67 195.77 50.75"/>
              </g>
              <polygon class="cls-1" points="196.32 68.04 197.72 69.96 194.89 69.96 196.32 68.04"/>
              <polygon class="cls-1" points="199.31 50.75 202.14 50.75 200.71 52.67 199.31 50.75"/>
              <polygon class="cls-1" points="200.71 52.67 203.54 52.67 202.11 54.59 200.71 52.67"/>
              <polygon class="cls-1" points="202.11 54.59 204.94 54.59 203.51 56.51 202.11 54.59"/>
              <polygon class="cls-1" points="203.51 56.51 206.34 56.51 204.91 58.43 203.51 56.51"/>
              <polygon class="cls-1" points="204.91 58.43 207.74 58.43 206.31 60.35 204.91 58.43"/>
            </g>
            <g>
              <polygon class="cls-1" points="198.11 70.53 199.51 72.45 196.69 72.45 198.11 70.53"/>
              <polygon class="cls-1" points="199.51 72.45 200.91 74.37 198.09 74.37 199.51 72.45"/>
              <polygon class="cls-1" points="200.91 74.37 202.31 76.29 199.49 76.29 200.91 74.37"/>
              <polygon class="cls-1" points="202.31 76.29 203.71 78.21 200.89 78.21 202.31 76.29"/>
              <g>
                <polygon class="cls-1" points="197.56 68.61 200.39 68.61 198.99 70.53 197.56 68.61"/>
                <polygon class="cls-1" points="198.96 66.68 201.79 66.68 200.39 68.61 198.96 66.68"/>
                <polygon class="cls-1" points="200.36 64.76 203.19 64.76 201.79 66.68 200.36 64.76"/>
                <polygon class="cls-1" points="201.76 62.84 204.59 62.84 203.19 64.76 201.76 62.84"/>
                <polygon class="cls-1" points="203.16 60.92 205.99 60.92 204.59 62.84 203.16 60.92"/>
              </g>
              <polygon class="cls-1" points="203.71 78.21 205.11 80.13 202.29 80.13 203.71 78.21"/>
              <polygon class="cls-1" points="206.7 60.92 209.53 60.92 208.1 62.84 206.7 60.92"/>
              <polygon class="cls-1" points="208.1 78.21 209.53 80.13 206.7 80.13 208.1 78.21"/>
              <polygon class="cls-1" points="208.1 62.84 210.93 62.84 209.5 64.76 208.1 62.84"/>
              <polygon class="cls-1" points="209.5 76.29 210.93 78.21 208.1 78.21 209.5 76.29"/>
              <polygon class="cls-1" points="209.5 64.76 212.33 64.76 210.9 66.68 209.5 64.76"/>
              <polygon class="cls-1" points="210.9 74.37 212.33 76.29 209.5 76.29 210.9 74.37"/>
              <polygon class="cls-1" points="210.9 66.68 213.73 66.68 212.3 68.61 210.9 66.68"/>
              <polygon class="cls-1" points="212.3 72.45 213.73 74.37 210.9 74.37 212.3 72.45"/>
              <polygon class="cls-1" points="212.3 68.61 215.13 68.61 213.7 70.53 212.3 68.61"/>
              <polygon class="cls-1" points="213.7 70.53 215.13 72.45 212.3 72.45 213.7 70.53"/>
            </g>
          </g>
        </g>
      </g>
      <g>
        <path class="cls-1" d="M1.09,96.02v-1.1H0v-2.21h1.09v-1.09h3.27v-1.06H1.09v-1.11h4.38v1.09h1.09v5.48H1.09ZM4.35,92.74h-2.16v2.17h2.16v-2.17Z"/>
        <path class="cls-1" d="M14.62,94.92v1.1h-3.28v-1.11h2.17v-1.07h-1.09v-1.09h-1.09v-2.21h1.09v-1.09h3.3v1.11h-2.18v1.07h1.09v1.09h1.1s0,2.2,0,2.2h-1.1Z"/>
        <path class="cls-1" d="M21.58,96.02v-1.1h-1.09v-2.21h1.09v-1.09h3.27v-1.06h-3.27v-1.11h4.38v1.09h1.09v5.48h-5.47ZM24.84,92.74h-2.16v2.17h2.16v-2.17Z"/>
        <path class="cls-1" d="M40.54,96.02v-5.45h-1.06v1.09h-1.1v4.37h-2.2v-5.45h-1.07v1.09h-1.09v4.37h-2.2v-6.56h2.2v1.09h1.07v-1.09h2.19v1.09h2.15v-1.09h2.19v1.09h1.1v5.48h-2.2Z"/>
        <path class="cls-1" d="M52.98,94.92v1.1h-5.47v-8.75h2.2v2.18h3.27v1.09h1.09v4.38h-1.09ZM51.87,90.57h-2.16v4.34h2.16v-4.34Z"/>
        <path class="cls-1" d="M58.86,96.02v-8.75h2.2v8.75h-2.2Z"/>
        <path class="cls-1" d="M71.29,94.92v1.1h-4.38v-1.1h-1.09v-4.38h1.09v-1.09h4.38v1.09h1.09v1.11h-1.09v1.09h-2.18v1.09h-1.09v1.09h3.24v-1.11h1.11v1.12h-1.09ZM70.18,90.57h-2.16v2.14h1.07v-1.07h1.09v-1.07Z"/>
        <path class="cls-1" d="M78.25,96.02v-1.1h-1.09v-2.21h1.09v-1.09h3.27v-1.06h-3.27v-1.11h4.38v1.09h1.09v5.48h-5.47ZM81.52,92.74h-2.16v2.17h2.16v-2.17Z"/>
        <path class="cls-1" d="M95.47,96.02v-1.1h-1.09v-4.38h1.09v-1.09h3.27v-2.18h2.2v8.75h-5.47ZM98.74,90.57h-2.16v4.34h2.16v-4.34Z"/>
        <path class="cls-1" d="M111.19,94.92v1.1h-4.38v-1.1h-1.09v-4.38h1.09v-1.09h4.38v1.09h1.09v1.11h-1.09v1.09h-2.18v1.09h-1.09v1.09h3.24v-1.11h1.11v1.12h-1.09ZM110.07,90.57h-2.16v2.14h1.07v-1.07h1.09v-1.07Z"/>
        <path class="cls-1" d="M131.65,96.02v-5.45h-1.06v1.09h-1.1v4.37h-2.2v-5.45h-1.07v1.09h-1.09v4.37h-2.2v-6.56h2.2v1.09h1.07v-1.09h2.19v1.09h2.15v-1.09h2.19v1.09h1.1v5.48h-2.2Z"/>
        <path class="cls-1" d="M144.1,94.92v1.1h-4.38v-1.1h-1.09v-5.47h2.2v5.45h2.16v-5.45h2.2v5.47h-1.09Z"/>
        <path class="cls-1" d="M154.32,96.02v-5.45h-1.07v1.09h-1.09v4.37h-2.2v-6.56h2.2v1.09h1.07v-1.09h2.2v1.09h1.09v5.48h-2.2Z"/>
        <path class="cls-1" d="M162.39,96.02v-1.1h-1.09v-4.38h1.09v-1.09h3.27v-2.18h2.2v8.75h-5.47ZM165.66,90.57h-2.16v4.34h2.16v-4.34Z"/>
        <path class="cls-1" d="M178.11,94.92v1.1h-4.38v-1.1h-1.09v-4.38h1.09v-1.09h4.38v1.09h1.09v4.38h-1.09ZM177,90.57h-2.16v4.34h2.16v-4.34Z"/>
        <path class="cls-1" d="M187.26,94.92v1.1h-3.28v-1.11h2.17v-1.07h-1.09v-1.09h-1.09v-2.21h1.09v-1.09h3.3v1.11h-2.18v1.07h1.09v1.09h1.1s0,2.2,0,2.2h-1.1Z"/>
        <path class="cls-1" d="M204.48,94.92v1.1h-3.27v2.18h-2.2v-8.75h5.47v1.09h1.09v4.38h-1.09ZM203.37,90.57h-2.16v4.34h2.16v-4.34Z"/>
        <path class="cls-1" d="M215.82,94.92v1.1h-4.38v-1.1h-1.09v-4.38h1.09v-1.09h4.38v1.09h1.09v4.38h-1.09ZM214.71,90.57h-2.16v4.34h2.16v-4.34Z"/>
        <path class="cls-1" d="M224.97,94.92v1.1h-3.28v-1.11h2.17v-1.07h-1.09v-1.09h-1.09v-2.21h1.09v-1.09h3.3v1.11h-2.18v1.07h1.09v1.09h1.1s0,2.2,0,2.2h-1.1Z"/>
        <path class="cls-1" d="M230.85,88.38v-1.11h2.2v1.11h-2.2ZM230.85,96.02v-6.56h2.2v6.56h-2.2Z"/>
        <path class="cls-1" d="M243.28,94.92v1.1h-5.47v-8.75h2.2v2.18h3.27v1.09h1.09v4.38h-1.09ZM242.17,90.57h-2.16v4.34h2.16v-4.34Z"/>
        <path class="cls-1" d="M249.15,96.02v-8.75h2.2v8.75h-2.2Z"/>
        <path class="cls-1" d="M261.59,94.92v1.1h-4.38v-1.1h-1.09v-4.38h1.09v-1.09h4.38v1.09h1.09v1.11h-1.09v1.09h-2.18v1.09h-1.09v1.09h3.24v-1.11h1.11v1.12h-1.09ZM260.48,90.57h-2.16v2.14h1.07v-1.07h1.09v-1.07Z"/>
        <path class="cls-1" d="M270.74,94.92v1.1h-3.28v-1.11h2.17v-1.07h-1.09v-1.09h-1.09v-2.21h1.09v-1.09h3.3v1.11h-2.18v1.07h1.09v1.09h1.1s0,2.2,0,2.2h-1.1Z"/>
      </g>
      <g>
        <path class="cls-1" d="M34.71,111.96v1.75h-1.76v-1.75h-2.62v-1.75h.87v-1.76h.89v1.77h-.87v.85h1.73v-4.36h1.76v4.36h.87v.89h-.87Z"/>
        <path class="cls-1" d="M42.02,109.35v1.75h-.87v2.62s-1.75,0-1.75,0v-2.64h.87v-1.75h.87v-1.73h-2.62v-.89h4.38v2.64h-.88Z"/>
        <path class="cls-1" d="M54.06,112.83v.88h-2.63v-.89h1.74v-.86h-.87v-.87h-.87v-1.77h.87v-.87h2.64v.89h-1.75v.86h.87v.87h.88s0,1.76,0,1.76h-.88Z"/>
        <path class="cls-1" d="M59.62,113.71v-.88h-.87v-1.77h.87v-.87h2.62v-.85h-2.62v-.89h3.5v.87h.87v4.38h-4.37ZM62.24,111.09h-1.73v1.74h1.73v-1.74Z"/>
        <path class="cls-1" d="M67.82,113.71v-7h1.76v7h-1.76Z"/>
        <path class="cls-1" d="M77.77,112.83v.88h-3.5v-.88h-.87v-3.5h.87v-.87h3.5v.87h.87v3.5h-.87ZM76.03,106.73v.87h-.89v-.89h.88v-.87h.89v.89h-.88ZM76.88,109.35h-1.73v3.47h1.73v-3.47Z"/>
        <path class="cls-1" d="M85.95,113.71v-4.36h-.86v.87h-.87v3.49h-1.76v-5.25h1.76v.87h.86v-.87h1.76v.87h.87v4.38h-1.76Z"/>
        <path class="cls-1" d="M99.73,113.71v-4.36h-.86v.87h-.87v3.49h-1.76v-5.25h1.76v.87h.86v-.87h1.76v.87h.87v4.38h-1.76Z"/>
        <path class="cls-1" d="M106.19,113.71v-.88h-.87v-1.77h.87v-.87h2.62v-.85h-2.62v-.89h3.5v.87h.87v4.38h-4.37ZM108.8,111.09h-1.73v1.74h1.73v-1.74Z"/>
        <path class="cls-1" d="M117.89,112.83v.88h-2.64v-.88h-.87v-3.5h.87v-.87h3.5v1.76h-.89v-.87h-1.73v3.47h1.73v-.89h.89v.9h-.87Z"/>
        <path class="cls-1" d="M122.58,107.6v-.89h1.76v.89h-1.76ZM122.58,113.71v-5.25h1.76v5.25h-1.76Z"/>
        <path class="cls-1" d="M132.53,112.83v.88h-3.5v-.88h-.87v-3.5h.87v-.87h3.5v.87h.87v3.5h-.87ZM131.64,109.35h-1.73v3.47h1.73v-3.47Z"/>
        <path class="cls-1" d="M140.71,113.71v-4.36h-.86v.87h-.87v3.49h-1.76v-5.25h1.76v.87h.86v-.87h1.76v.87h.87v4.38h-1.76Z"/>
        <path class="cls-1" d="M147.16,113.71v-.88h-.87v-1.77h.87v-.87h2.62v-.85h-2.62v-.89h3.5v.87h.87v4.38h-4.37ZM149.78,111.09h-1.73v1.74h1.73v-1.74Z"/>
        <path class="cls-1" d="M155.36,113.71v-7h1.76v7h-1.76Z"/>
        <path class="cls-1" d="M166.51,113.71v-.88h-.87v-3.5h.87v-.87h2.62v-1.75h1.76v7h-4.37ZM169.13,109.35h-1.73v3.47h1.73v-3.47Z"/>
        <path class="cls-1" d="M179.09,112.83v.88h-3.5v-.88h-.87v-3.5h.87v-.87h3.5v.87h.87v.89h-.87v.87h-1.75v.87h-.87v.87h2.59v-.89h.89v.9h-.87ZM178.2,109.35h-1.73v1.72h.86v-.86h.87v-.86Z"/>
        <path class="cls-1" d="M189.36,113.71v-.88h-.87v-1.77h.87v-.87h2.62v-.85h-2.62v-.89h3.5v.87h.87v4.38h-4.37ZM191.97,111.09h-1.73v1.74h1.73v-1.74Z"/>
        <path class="cls-1" d="M199.32,110.22v3.49h-1.76v-5.25h1.76v.87h.86v-.87h.89v1.76h-1.75Z"/>
        <path class="cls-1" d="M206.64,109.35v4.36h-1.76v-4.36h-.88v-.89h.88v-1.75h1.76v1.75h.87v.89h-.87Z"/>
        <path class="cls-1" d="M210.46,107.6v-.89h1.76v.89h-1.76ZM210.46,113.71v-5.25h1.76v5.25h-1.76Z"/>
        <path class="cls-1" d="M218.66,112.83v.88h-2.63v-.89h1.74v-.86h-.87v-.87h-.87v-1.77h.87v-.87h2.64v.89h-1.75v.86h.87v.87h.88s0,1.76,0,1.76h-.88Z"/>
        <path class="cls-1" d="M225.11,109.35v4.36h-1.76v-4.36h-.88v-.89h.88v-1.75h1.76v1.75h.87v.89h-.87Z"/>
        <path class="cls-1" d="M229.8,113.71v-.88h-.87v-1.77h.87v-.87h2.62v-.85h-2.62v-.89h3.5v.87h.87v4.38h-4.37ZM232.42,111.09h-1.73v1.74h1.73v-1.74Z"/>
        <path class="cls-1" d="M240.63,112.83v.88h-2.63v-.89h1.74v-.86h-.87v-.87h-.87v-1.77h.87v-.87h2.64v.89h-1.75v.86h.87v.87h.88s0,1.76,0,1.76h-.88Z"/>
      </g>
    </g>
  </g>
</svg>