<?xml version="1.0" encoding="UTF-8"?>
<svg id="Layer_2" data-name="Layer 2" xmlns="http://www.w3.org/2000/svg" viewBox="0 0 543.68 227.45">
  <defs>
    <style>
      .cls-1 {
        fill: #fff;
      }
    </style>
  </defs>
  <g id="Contenido">
    <g>
      <g>
        <g>
          <path class="cls-1" d="M114.22,19.32l2.8-3.9,2.75,3.9-2.75,3.79-2.8-3.79ZM119.77,11.63l2.86-3.9,2.75,3.9-2.75,3.79-2.86-3.79ZM119.77,19.32l2.86-3.9,2.75,3.9-2.75,3.79-2.86-3.79ZM119.77,27.02l2.86-3.9,2.75,3.9-2.75,3.79-2.86-3.79ZM125.38,3.93L128.18.03l2.75,3.9-2.75,3.79-2.8-3.79ZM125.38,11.63l2.8-3.9,2.75,3.9-2.75,3.79-2.8-3.79ZM125.38,19.32l2.8-3.9,2.75,3.9-2.75,3.79-2.8-3.79ZM125.38,27.02l2.8-3.9,2.75,3.9-2.75,3.79-2.8-3.79ZM125.38,34.72l2.8-3.9,2.75,3.9-2.75,3.79-2.8-3.79ZM130.93,11.63l2.8-3.9,2.86,3.9-2.86,3.79-2.8-3.79ZM130.93,19.32l2.8-3.9,2.86,3.9-2.86,3.79-2.8-3.79ZM130.93,27.02l2.8-3.9,2.86,3.9-2.86,3.79-2.8-3.79ZM136.59,19.32l2.8-3.9,2.75,3.9-2.75,3.79-2.8-3.79Z"/>
          <path class="cls-1" d="M114.22,59.92l2.8-3.9,2.75,3.9-2.75,3.79-2.8-3.79ZM119.77,52.23l2.86-3.9,2.75,3.9-2.75,3.79-2.86-3.79ZM119.77,59.92l2.86-3.9,2.75,3.9-2.75,3.79-2.86-3.79ZM119.77,67.62l2.86-3.9,2.75,3.9-2.75,3.79-2.86-3.79ZM125.38,44.53l2.8-3.9,2.75,3.9-2.75,3.79-2.8-3.79ZM125.38,52.23l2.8-3.9,2.75,3.9-2.75,3.79-2.8-3.79ZM125.38,59.92l2.8-3.9,2.75,3.9-2.75,3.79-2.8-3.79ZM125.38,67.62l2.8-3.9,2.75,3.9-2.75,3.79-2.8-3.79ZM125.38,75.32l2.8-3.9,2.75,3.9-2.75,3.79-2.8-3.79ZM130.93,52.23l2.8-3.9,2.86,3.9-2.86,3.79-2.8-3.79ZM130.93,59.92l2.8-3.9,2.86,3.9-2.86,3.79-2.8-3.79ZM130.93,67.62l2.8-3.9,2.86,3.9-2.86,3.79-2.8-3.79ZM136.59,59.92l2.8-3.9,2.75,3.9-2.75,3.79-2.8-3.79Z"/>
          <path class="cls-1" d="M114.22,100.52l2.8-3.9,2.75,3.9-2.75,3.79-2.8-3.79ZM119.77,92.83l2.86-3.9,2.75,3.9-2.75,3.79-2.86-3.79ZM119.77,100.52l2.86-3.9,2.75,3.9-2.75,3.79-2.86-3.79ZM119.77,108.22l2.86-3.9,2.75,3.9-2.75,3.79-2.86-3.79ZM125.38,85.13l2.8-3.9,2.75,3.9-2.75,3.79-2.8-3.79ZM125.38,92.83l2.8-3.9,2.75,3.9-2.75,3.79-2.8-3.79ZM125.38,100.52l2.8-3.9,2.75,3.9-2.75,3.79-2.8-3.79ZM125.38,108.22l2.8-3.9,2.75,3.9-2.75,3.79-2.8-3.79ZM125.38,115.92l2.8-3.9,2.75,3.9-2.75,3.79-2.8-3.79ZM130.93,92.83l2.8-3.9,2.86,3.9-2.86,3.79-2.8-3.79ZM130.93,100.52l2.8-3.9,2.86,3.9-2.86,3.79-2.8-3.79ZM130.93,108.22l2.8-3.9,2.86,3.9-2.86,3.79-2.8-3.79ZM136.59,100.52l2.8-3.9,2.75,3.9-2.75,3.79-2.8-3.79Z"/>
          <path class="cls-1" d="M114.22,141.12l2.8-3.9,2.75,3.9-2.75,3.79-2.8-3.79ZM119.77,133.43l2.86-3.9,2.75,3.9-2.75,3.79-2.86-3.79ZM119.77,141.12l2.86-3.9,2.75,3.9-2.75,3.79-2.86-3.79ZM119.77,148.82l2.86-3.9,2.75,3.9-2.75,3.79-2.86-3.79ZM125.38,125.73l2.8-3.9,2.75,3.9-2.75,3.79-2.8-3.79ZM125.38,133.43l2.8-3.9,2.75,3.9-2.75,3.79-2.8-3.79ZM125.38,141.12l2.8-3.9,2.75,3.9-2.75,3.79-2.8-3.79ZM125.38,148.82l2.8-3.9,2.75,3.9-2.75,3.79-2.8-3.79ZM125.38,156.52l2.8-3.9,2.75,3.9-2.75,3.79-2.8-3.79ZM130.93,133.43l2.8-3.9,2.86,3.9-2.86,3.79-2.8-3.79ZM130.93,141.12l2.8-3.9,2.86,3.9-2.86,3.79-2.8-3.79ZM130.93,148.82l2.8-3.9,2.86,3.9-2.86,3.79-2.8-3.79ZM136.59,141.12l2.8-3.9,2.75,3.9-2.75,3.79-2.8-3.79Z"/>
          <path class="cls-1" d="M145.43,19.32l2.8-3.9,2.75,3.9-2.75,3.79-2.8-3.79ZM150.98,11.63l2.86-3.9,2.75,3.9-2.75,3.79-2.86-3.79ZM150.98,19.32l2.86-3.9,2.75,3.9-2.75,3.79-2.86-3.79ZM150.98,27.02l2.86-3.9,2.75,3.9-2.75,3.79-2.86-3.79ZM156.59,3.93L159.39.03l2.75,3.9-2.75,3.79-2.8-3.79ZM156.59,11.63l2.8-3.9,2.75,3.9-2.75,3.79-2.8-3.79ZM156.59,19.32l2.8-3.9,2.75,3.9-2.75,3.79-2.8-3.79ZM156.59,27.02l2.8-3.9,2.75,3.9-2.75,3.79-2.8-3.79ZM156.59,34.72l2.8-3.9,2.75,3.9-2.75,3.79-2.8-3.79ZM162.14,11.63l2.8-3.9,2.86,3.9-2.86,3.79-2.8-3.79ZM162.14,19.32l2.8-3.9,2.86,3.9-2.86,3.79-2.8-3.79ZM162.14,27.02l2.8-3.9,2.86,3.9-2.86,3.79-2.8-3.79ZM167.8,19.32l2.8-3.9,2.75,3.9-2.75,3.79-2.8-3.79Z"/>
          <path class="cls-1" d="M145.43,100.52l2.8-3.9,2.75,3.9-2.75,3.79-2.8-3.79ZM150.98,92.83l2.86-3.9,2.75,3.9-2.75,3.79-2.86-3.79ZM150.98,100.52l2.86-3.9,2.75,3.9-2.75,3.79-2.86-3.79ZM150.98,108.22l2.86-3.9,2.75,3.9-2.75,3.79-2.86-3.79ZM156.59,85.13l2.8-3.9,2.75,3.9-2.75,3.79-2.8-3.79ZM156.59,92.83l2.8-3.9,2.75,3.9-2.75,3.79-2.8-3.79ZM156.59,100.52l2.8-3.9,2.75,3.9-2.75,3.79-2.8-3.79ZM156.59,108.22l2.8-3.9,2.75,3.9-2.75,3.79-2.8-3.79ZM156.59,115.92l2.8-3.9,2.75,3.9-2.75,3.79-2.8-3.79ZM162.14,92.83l2.8-3.9,2.86,3.9-2.86,3.79-2.8-3.79ZM162.14,100.52l2.8-3.9,2.86,3.9-2.86,3.79-2.8-3.79ZM162.14,108.22l2.8-3.9,2.86,3.9-2.86,3.79-2.8-3.79ZM167.8,100.52l2.8-3.9,2.75,3.9-2.75,3.79-2.8-3.79Z"/>
          <path class="cls-1" d="M176.63,19.32l2.8-3.9,2.75,3.9-2.75,3.79-2.8-3.79ZM182.19,11.63l2.86-3.9,2.75,3.9-2.75,3.79-2.86-3.79ZM182.19,19.32l2.86-3.9,2.75,3.9-2.75,3.79-2.86-3.79ZM182.19,27.02l2.86-3.9,2.75,3.9-2.75,3.79-2.86-3.79ZM187.79,3.93L190.6.03l2.75,3.9-2.75,3.79-2.8-3.79ZM187.79,11.63l2.8-3.9,2.75,3.9-2.75,3.79-2.8-3.79ZM187.79,19.32l2.8-3.9,2.75,3.9-2.75,3.79-2.8-3.79ZM187.79,27.02l2.8-3.9,2.75,3.9-2.75,3.79-2.8-3.79ZM187.79,34.72l2.8-3.9,2.75,3.9-2.75,3.79-2.8-3.79ZM193.35,11.63l2.8-3.9,2.86,3.9-2.86,3.79-2.8-3.79ZM193.35,19.32l2.8-3.9,2.86,3.9-2.86,3.79-2.8-3.79ZM193.35,27.02l2.8-3.9,2.86,3.9-2.86,3.79-2.8-3.79ZM199.01,19.32l2.8-3.9,2.75,3.9-2.75,3.79-2.8-3.79Z"/>
          <path class="cls-1" d="M176.63,59.92l2.8-3.9,2.75,3.9-2.75,3.79-2.8-3.79ZM182.19,52.23l2.86-3.9,2.75,3.9-2.75,3.79-2.86-3.79ZM182.19,59.92l2.86-3.9,2.75,3.9-2.75,3.79-2.86-3.79ZM182.19,67.62l2.86-3.9,2.75,3.9-2.75,3.79-2.86-3.79ZM187.79,44.53l2.8-3.9,2.75,3.9-2.75,3.79-2.8-3.79ZM187.79,52.23l2.8-3.9,2.75,3.9-2.75,3.79-2.8-3.79ZM187.79,59.92l2.8-3.9,2.75,3.9-2.75,3.79-2.8-3.79ZM187.79,67.62l2.8-3.9,2.75,3.9-2.75,3.79-2.8-3.79ZM187.79,75.32l2.8-3.9,2.75,3.9-2.75,3.79-2.8-3.79ZM193.35,52.23l2.8-3.9,2.86,3.9-2.86,3.79-2.8-3.79ZM193.35,59.92l2.8-3.9,2.86,3.9-2.86,3.79-2.8-3.79ZM193.35,67.62l2.8-3.9,2.86,3.9-2.86,3.79-2.8-3.79ZM199.01,59.92l2.8-3.9,2.75,3.9-2.75,3.79-2.8-3.79Z"/>
          <path class="cls-1" d="M176.63,100.52l2.8-3.9,2.75,3.9-2.75,3.79-2.8-3.79ZM182.19,92.83l2.86-3.9,2.75,3.9-2.75,3.79-2.86-3.79ZM182.19,100.52l2.86-3.9,2.75,3.9-2.75,3.79-2.86-3.79ZM182.19,108.22l2.86-3.9,2.75,3.9-2.75,3.79-2.86-3.79ZM187.79,85.13l2.8-3.9,2.75,3.9-2.75,3.79-2.8-3.79ZM187.79,92.83l2.8-3.9,2.75,3.9-2.75,3.79-2.8-3.79ZM187.79,100.52l2.8-3.9,2.75,3.9-2.75,3.79-2.8-3.79ZM187.79,108.22l2.8-3.9,2.75,3.9-2.75,3.79-2.8-3.79ZM187.79,115.92l2.8-3.9,2.75,3.9-2.75,3.79-2.8-3.79ZM193.35,92.83l2.8-3.9,2.86,3.9-2.86,3.79-2.8-3.79ZM193.35,100.52l2.8-3.9,2.86,3.9-2.86,3.79-2.8-3.79ZM193.35,108.22l2.8-3.9,2.86,3.9-2.86,3.79-2.8-3.79ZM199.01,100.52l2.8-3.9,2.75,3.9-2.75,3.79-2.8-3.79Z"/>
          <path class="cls-1" d="M176.63,141.12l2.8-3.9,2.75,3.9-2.75,3.79-2.8-3.79ZM182.19,133.43l2.86-3.9,2.75,3.9-2.75,3.79-2.86-3.79ZM182.19,141.12l2.86-3.9,2.75,3.9-2.75,3.79-2.86-3.79ZM182.19,148.82l2.86-3.9,2.75,3.9-2.75,3.79-2.86-3.79ZM187.79,125.73l2.8-3.9,2.75,3.9-2.75,3.79-2.8-3.79ZM187.79,133.43l2.8-3.9,2.75,3.9-2.75,3.79-2.8-3.79ZM187.79,141.12l2.8-3.9,2.75,3.9-2.75,3.79-2.8-3.79ZM187.79,148.82l2.8-3.9,2.75,3.9-2.75,3.79-2.8-3.79ZM187.79,156.52l2.8-3.9,2.75,3.9-2.75,3.79-2.8-3.79ZM193.35,133.43l2.8-3.9,2.86,3.9-2.86,3.79-2.8-3.79ZM193.35,141.12l2.8-3.9,2.86,3.9-2.86,3.79-2.8-3.79ZM193.35,148.82l2.8-3.9,2.86,3.9-2.86,3.79-2.8-3.79ZM199.01,141.12l2.8-3.9,2.75,3.9-2.75,3.79-2.8-3.79Z"/>
        </g>
        <g>
          <path class="cls-1" d="M226.64,19.32l2.8-3.9,2.75,3.9-2.75,3.79-2.8-3.79ZM232.19,11.63l2.86-3.9,2.75,3.9-2.75,3.79-2.86-3.79ZM232.19,19.32l2.86-3.9,2.75,3.9-2.75,3.79-2.86-3.79ZM232.19,27.02l2.86-3.9,2.75,3.9-2.75,3.79-2.86-3.79ZM237.8,3.93L240.6.03l2.75,3.9-2.75,3.79-2.8-3.79ZM237.8,11.63l2.8-3.9,2.75,3.9-2.75,3.79-2.8-3.79ZM237.8,19.32l2.8-3.9,2.75,3.9-2.75,3.79-2.8-3.79ZM237.8,27.02l2.8-3.9,2.75,3.9-2.75,3.79-2.8-3.79ZM237.8,34.72l2.8-3.9,2.75,3.9-2.75,3.79-2.8-3.79ZM243.35,11.63l2.8-3.9,2.86,3.9-2.86,3.79-2.8-3.79ZM243.35,19.32l2.8-3.9,2.86,3.9-2.86,3.79-2.8-3.79ZM243.35,27.02l2.8-3.9,2.86,3.9-2.86,3.79-2.8-3.79ZM249.01,19.32l2.8-3.9,2.75,3.9-2.75,3.79-2.8-3.79Z"/>
          <path class="cls-1" d="M226.64,59.92l2.8-3.9,2.75,3.9-2.75,3.79-2.8-3.79ZM232.19,52.23l2.86-3.9,2.75,3.9-2.75,3.79-2.86-3.79ZM232.19,59.92l2.86-3.9,2.75,3.9-2.75,3.79-2.86-3.79ZM232.19,67.62l2.86-3.9,2.75,3.9-2.75,3.79-2.86-3.79ZM237.8,44.53l2.8-3.9,2.75,3.9-2.75,3.79-2.8-3.79ZM237.8,52.23l2.8-3.9,2.75,3.9-2.75,3.79-2.8-3.79ZM237.8,59.92l2.8-3.9,2.75,3.9-2.75,3.79-2.8-3.79ZM237.8,67.62l2.8-3.9,2.75,3.9-2.75,3.79-2.8-3.79ZM237.8,75.32l2.8-3.9,2.75,3.9-2.75,3.79-2.8-3.79ZM243.35,52.23l2.8-3.9,2.86,3.9-2.86,3.79-2.8-3.79ZM243.35,59.92l2.8-3.9,2.86,3.9-2.86,3.79-2.8-3.79ZM243.35,67.62l2.8-3.9,2.86,3.9-2.86,3.79-2.8-3.79ZM249.01,59.92l2.8-3.9,2.75,3.9-2.75,3.79-2.8-3.79Z"/>
          <path class="cls-1" d="M226.64,100.52l2.8-3.9,2.75,3.9-2.75,3.79-2.8-3.79ZM232.19,92.83l2.86-3.9,2.75,3.9-2.75,3.79-2.86-3.79ZM232.19,100.52l2.86-3.9,2.75,3.9-2.75,3.79-2.86-3.79ZM232.19,108.22l2.86-3.9,2.75,3.9-2.75,3.79-2.86-3.79ZM237.8,85.13l2.8-3.9,2.75,3.9-2.75,3.79-2.8-3.79ZM237.8,92.83l2.8-3.9,2.75,3.9-2.75,3.79-2.8-3.79ZM237.8,100.52l2.8-3.9,2.75,3.9-2.75,3.79-2.8-3.79ZM237.8,108.22l2.8-3.9,2.75,3.9-2.75,3.79-2.8-3.79ZM237.8,115.92l2.8-3.9,2.75,3.9-2.75,3.79-2.8-3.79ZM243.35,92.83l2.8-3.9,2.86,3.9-2.86,3.79-2.8-3.79ZM243.35,100.52l2.8-3.9,2.86,3.9-2.86,3.79-2.8-3.79ZM243.35,108.22l2.8-3.9,2.86,3.9-2.86,3.79-2.8-3.79ZM249.01,100.52l2.8-3.9,2.75,3.9-2.75,3.79-2.8-3.79Z"/>
          <path class="cls-1" d="M226.64,141.12l2.8-3.9,2.75,3.9-2.75,3.79-2.8-3.79ZM232.19,133.43l2.86-3.9,2.75,3.9-2.75,3.79-2.86-3.79ZM232.19,141.12l2.86-3.9,2.75,3.9-2.75,3.79-2.86-3.79ZM232.19,148.82l2.86-3.9,2.75,3.9-2.75,3.79-2.86-3.79ZM237.8,125.73l2.8-3.9,2.75,3.9-2.75,3.79-2.8-3.79ZM237.8,133.43l2.8-3.9,2.75,3.9-2.75,3.79-2.8-3.79ZM237.8,141.12l2.8-3.9,2.75,3.9-2.75,3.79-2.8-3.79ZM237.8,148.82l2.8-3.9,2.75,3.9-2.75,3.79-2.8-3.79ZM237.8,156.52l2.8-3.9,2.75,3.9-2.75,3.79-2.8-3.79ZM243.35,133.43l2.8-3.9,2.86,3.9-2.86,3.79-2.8-3.79ZM243.35,141.12l2.8-3.9,2.86,3.9-2.86,3.79-2.8-3.79ZM243.35,148.82l2.8-3.9,2.86,3.9-2.86,3.79-2.8-3.79ZM249.01,141.12l2.8-3.9,2.75,3.9-2.75,3.79-2.8-3.79Z"/>
          <path class="cls-1" d="M289.11,19.32l2.8-3.9,2.75,3.9-2.75,3.79-2.8-3.79ZM294.66,11.63l2.86-3.9,2.75,3.9-2.75,3.79-2.86-3.79ZM294.66,19.32l2.86-3.9,2.75,3.9-2.75,3.79-2.86-3.79ZM294.66,27.02l2.86-3.9,2.75,3.9-2.75,3.79-2.86-3.79ZM300.27,3.93l2.8-3.9,2.75,3.9-2.75,3.79-2.8-3.79ZM300.27,11.63l2.8-3.9,2.75,3.9-2.75,3.79-2.8-3.79ZM300.27,19.32l2.8-3.9,2.75,3.9-2.75,3.79-2.8-3.79ZM300.27,27.02l2.8-3.9,2.75,3.9-2.75,3.79-2.8-3.79ZM300.27,34.72l2.8-3.9,2.75,3.9-2.75,3.79-2.8-3.79ZM305.82,11.63l2.8-3.9,2.86,3.9-2.86,3.79-2.8-3.79ZM305.82,19.32l2.8-3.9,2.86,3.9-2.86,3.79-2.8-3.79ZM305.82,27.02l2.8-3.9,2.86,3.9-2.86,3.79-2.8-3.79ZM311.49,19.32l2.8-3.9,2.75,3.9-2.75,3.79-2.8-3.79Z"/>
          <path class="cls-1" d="M289.11,59.92l2.8-3.9,2.75,3.9-2.75,3.79-2.8-3.79ZM294.66,52.23l2.86-3.9,2.75,3.9-2.75,3.79-2.86-3.79ZM294.66,59.92l2.86-3.9,2.75,3.9-2.75,3.79-2.86-3.79ZM294.66,67.62l2.86-3.9,2.75,3.9-2.75,3.79-2.86-3.79ZM300.27,44.53l2.8-3.9,2.75,3.9-2.75,3.79-2.8-3.79ZM300.27,52.23l2.8-3.9,2.75,3.9-2.75,3.79-2.8-3.79ZM300.27,59.92l2.8-3.9,2.75,3.9-2.75,3.79-2.8-3.79ZM300.27,67.62l2.8-3.9,2.75,3.9-2.75,3.79-2.8-3.79ZM300.27,75.32l2.8-3.9,2.75,3.9-2.75,3.79-2.8-3.79ZM305.82,52.23l2.8-3.9,2.86,3.9-2.86,3.79-2.8-3.79ZM305.82,59.92l2.8-3.9,2.86,3.9-2.86,3.79-2.8-3.79ZM305.82,67.62l2.8-3.9,2.86,3.9-2.86,3.79-2.8-3.79ZM311.49,59.92l2.8-3.9,2.75,3.9-2.75,3.79-2.8-3.79Z"/>
          <path class="cls-1" d="M289.11,100.52l2.8-3.9,2.75,3.9-2.75,3.79-2.8-3.79ZM294.66,92.83l2.86-3.9,2.75,3.9-2.75,3.79-2.86-3.79ZM294.66,100.52l2.86-3.9,2.75,3.9-2.75,3.79-2.86-3.79ZM294.66,108.22l2.86-3.9,2.75,3.9-2.75,3.79-2.86-3.79ZM300.27,85.13l2.8-3.9,2.75,3.9-2.75,3.79-2.8-3.79ZM300.27,92.83l2.8-3.9,2.75,3.9-2.75,3.79-2.8-3.79ZM300.27,100.52l2.8-3.9,2.75,3.9-2.75,3.79-2.8-3.79ZM300.27,108.22l2.8-3.9,2.75,3.9-2.75,3.79-2.8-3.79ZM300.27,115.92l2.8-3.9,2.75,3.9-2.75,3.79-2.8-3.79ZM305.82,92.83l2.8-3.9,2.86,3.9-2.86,3.79-2.8-3.79ZM305.82,100.52l2.8-3.9,2.86,3.9-2.86,3.79-2.8-3.79ZM305.82,108.22l2.8-3.9,2.86,3.9-2.86,3.79-2.8-3.79ZM311.49,100.52l2.8-3.9,2.75,3.9-2.75,3.79-2.8-3.79Z"/>
          <path class="cls-1" d="M289.11,141.12l2.8-3.9,2.75,3.9-2.75,3.79-2.8-3.79ZM294.66,133.43l2.86-3.9,2.75,3.9-2.75,3.79-2.86-3.79ZM294.66,141.12l2.86-3.9,2.75,3.9-2.75,3.79-2.86-3.79ZM294.66,148.82l2.86-3.9,2.75,3.9-2.75,3.79-2.86-3.79ZM300.27,125.73l2.8-3.9,2.75,3.9-2.75,3.79-2.8-3.79ZM300.27,133.43l2.8-3.9,2.75,3.9-2.75,3.79-2.8-3.79ZM300.27,141.12l2.8-3.9,2.75,3.9-2.75,3.79-2.8-3.79ZM300.27,148.82l2.8-3.9,2.75,3.9-2.75,3.79-2.8-3.79ZM300.27,156.52l2.8-3.9,2.75,3.9-2.75,3.79-2.8-3.79ZM305.82,133.43l2.8-3.9,2.86,3.9-2.86,3.79-2.8-3.79ZM305.82,141.12l2.8-3.9,2.86,3.9-2.86,3.79-2.8-3.79ZM305.82,148.82l2.8-3.9,2.86,3.9-2.86,3.79-2.8-3.79ZM311.49,141.12l2.8-3.9,2.75,3.9-2.75,3.79-2.8-3.79Z"/>
          <path class="cls-1" d="M257.85,141.12l2.8-3.9,2.75,3.9-2.75,3.79-2.8-3.79ZM263.4,133.43l2.86-3.9,2.75,3.9-2.75,3.79-2.86-3.79ZM263.4,141.12l2.86-3.9,2.75,3.9-2.75,3.79-2.86-3.79ZM263.4,148.82l2.86-3.9,2.75,3.9-2.75,3.79-2.86-3.79ZM269.01,125.73l2.8-3.9,2.75,3.9-2.75,3.79-2.8-3.79ZM269.01,133.43l2.8-3.9,2.75,3.9-2.75,3.79-2.8-3.79ZM269.01,141.12l2.8-3.9,2.75,3.9-2.75,3.79-2.8-3.79ZM269.01,148.82l2.8-3.9,2.75,3.9-2.75,3.79-2.8-3.79ZM269.01,156.52l2.8-3.9,2.75,3.9-2.75,3.79-2.8-3.79ZM274.56,133.43l2.8-3.9,2.86,3.9-2.86,3.79-2.8-3.79ZM274.56,141.12l2.8-3.9,2.86,3.9-2.86,3.79-2.8-3.79ZM274.56,148.82l2.8-3.9,2.86,3.9-2.86,3.79-2.8-3.79ZM280.22,141.12l2.8-3.9,2.75,3.9-2.75,3.79-2.8-3.79Z"/>
        </g>
        <g>
          <path class="cls-1" d="M5.42,19.3l2.8-3.9,2.75,3.9-2.75,3.79-2.8-3.79ZM10.97,11.6l2.86-3.9,2.75,3.9-2.75,3.79-2.86-3.79ZM10.97,19.3l2.86-3.9,2.75,3.9-2.75,3.79-2.86-3.79ZM10.97,26.99l2.86-3.9,2.75,3.9-2.75,3.79-2.86-3.79ZM16.58,3.9l2.8-3.9,2.75,3.9-2.75,3.79-2.8-3.79ZM16.58,11.6l2.8-3.9,2.75,3.9-2.75,3.79-2.8-3.79ZM16.58,19.3l2.8-3.9,2.75,3.9-2.75,3.79-2.8-3.79ZM16.58,26.99l2.8-3.9,2.75,3.9-2.75,3.79-2.8-3.79ZM16.58,34.69l2.8-3.9,2.75,3.9-2.75,3.79-2.8-3.79ZM22.13,11.6l2.8-3.9,2.86,3.9-2.86,3.79-2.8-3.79ZM22.13,19.3l2.8-3.9,2.86,3.9-2.86,3.79-2.8-3.79ZM22.13,26.99l2.8-3.9,2.86,3.9-2.86,3.79-2.8-3.79ZM27.8,19.3l2.8-3.9,2.75,3.9-2.75,3.79-2.8-3.79Z"/>
          <path class="cls-1" d="M64.27,19.32l2.8-3.9,2.75,3.9-2.75,3.79-2.8-3.79ZM69.82,11.63l2.86-3.9,2.75,3.9-2.75,3.79-2.86-3.79ZM69.82,19.32l2.86-3.9,2.75,3.9-2.75,3.79-2.86-3.79ZM69.82,27.02l2.86-3.9,2.75,3.9-2.75,3.79-2.86-3.79ZM75.43,3.93L78.23.03l2.75,3.9-2.75,3.79-2.8-3.79ZM75.43,11.63l2.8-3.9,2.75,3.9-2.75,3.79-2.8-3.79ZM75.43,19.32l2.8-3.9,2.75,3.9-2.75,3.79-2.8-3.79ZM75.43,27.02l2.8-3.9,2.75,3.9-2.75,3.79-2.8-3.79ZM75.43,34.72l2.8-3.9,2.75,3.9-2.75,3.79-2.8-3.79ZM80.98,11.63l2.8-3.9,2.86,3.9-2.86,3.79-2.8-3.79ZM80.98,19.32l2.8-3.9,2.86,3.9-2.86,3.79-2.8-3.79ZM80.98,27.02l2.8-3.9,2.86,3.9-2.86,3.79-2.8-3.79ZM86.64,19.32l2.8-3.9,2.75,3.9-2.75,3.79-2.8-3.79Z"/>
          <path class="cls-1" d="M5.45,59.88l2.8-3.9,2.75,3.9-2.75,3.79-2.8-3.79ZM11,52.18l2.86-3.9,2.75,3.9-2.75,3.79-2.86-3.79ZM11,59.88l2.86-3.9,2.75,3.9-2.75,3.79-2.86-3.79ZM11,67.58l2.86-3.9,2.75,3.9-2.75,3.79-2.86-3.79ZM16.61,44.49l2.8-3.9,2.75,3.9-2.75,3.79-2.8-3.79ZM16.61,52.18l2.8-3.9,2.75,3.9-2.75,3.79-2.8-3.79ZM16.61,59.88l2.8-3.9,2.75,3.9-2.75,3.79-2.8-3.79ZM16.61,67.58l2.8-3.9,2.75,3.9-2.75,3.79-2.8-3.79ZM16.61,75.27l2.8-3.9,2.75,3.9-2.75,3.79-2.8-3.79ZM22.16,52.18l2.8-3.9,2.86,3.9-2.86,3.79-2.8-3.79ZM22.16,59.88l2.8-3.9,2.86,3.9-2.86,3.79-2.8-3.79ZM22.16,67.58l2.8-3.9,2.86,3.9-2.86,3.79-2.8-3.79ZM27.82,59.88l2.8-3.9,2.75,3.9-2.75,3.79-2.8-3.79Z"/>
          <path class="cls-1" d="M34.85,59.92l2.8-3.9,2.75,3.9-2.75,3.79-2.8-3.79ZM40.4,52.23l2.86-3.9,2.75,3.9-2.75,3.79-2.86-3.79ZM40.4,59.92l2.86-3.9,2.75,3.9-2.75,3.79-2.86-3.79ZM40.4,67.62l2.86-3.9,2.75,3.9-2.75,3.79-2.86-3.79ZM46.01,44.53l2.8-3.9,2.75,3.9-2.75,3.79-2.8-3.79ZM46.01,52.23l2.8-3.9,2.75,3.9-2.75,3.79-2.8-3.79ZM46.01,59.92l2.8-3.9,2.75,3.9-2.75,3.79-2.8-3.79ZM46.01,67.62l2.8-3.9,2.75,3.9-2.75,3.79-2.8-3.79ZM46.01,75.32l2.8-3.9,2.75,3.9-2.75,3.79-2.8-3.79ZM51.56,52.23l2.8-3.9,2.86,3.9-2.86,3.79-2.8-3.79ZM51.56,59.92l2.8-3.9,2.86,3.9-2.86,3.79-2.8-3.79ZM51.56,67.62l2.8-3.9,2.86,3.9-2.86,3.79-2.8-3.79ZM57.22,59.92l2.8-3.9,2.75,3.9-2.75,3.79-2.8-3.79Z"/>
          <path class="cls-1" d="M49.48,39.61l2.8-3.9,2.75,3.9-2.75,3.79-2.8-3.79ZM55.04,31.92l2.86-3.9,2.75,3.9-2.75,3.79-2.86-3.79ZM55.04,39.61l2.86-3.9,2.75,3.9-2.75,3.79-2.86-3.79ZM55.04,47.31l2.86-3.9,2.75,3.9-2.75,3.79-2.86-3.79ZM60.64,24.22l2.8-3.9,2.75,3.9-2.75,3.79-2.8-3.79ZM60.64,31.92l2.8-3.9,2.75,3.9-2.75,3.79-2.8-3.79ZM60.64,39.61l2.8-3.9,2.75,3.9-2.75,3.79-2.8-3.79ZM60.64,47.31l2.8-3.9,2.75,3.9-2.75,3.79-2.8-3.79ZM60.64,55.01l2.8-3.9,2.75,3.9-2.75,3.79-2.8-3.79ZM66.2,31.92l2.8-3.9,2.86,3.9-2.86,3.79-2.8-3.79ZM66.2,39.61l2.8-3.9,2.86,3.9-2.86,3.79-2.8-3.79ZM66.2,47.31l2.8-3.9,2.86,3.9-2.86,3.79-2.8-3.79ZM71.86,39.61l2.8-3.9,2.75,3.9-2.75,3.79-2.8-3.79Z"/>
          <path class="cls-1" d="M5.39,100.52l2.8-3.9,2.75,3.9-2.75,3.79-2.8-3.79ZM10.95,92.83l2.86-3.9,2.75,3.9-2.75,3.79-2.86-3.79ZM10.95,100.52l2.86-3.9,2.75,3.9-2.75,3.79-2.86-3.79ZM10.95,108.22l2.86-3.9,2.75,3.9-2.75,3.79-2.86-3.79ZM16.55,85.13l2.8-3.9,2.75,3.9-2.75,3.79-2.8-3.79ZM16.55,92.83l2.8-3.9,2.75,3.9-2.75,3.79-2.8-3.79ZM16.55,100.52l2.8-3.9,2.75,3.9-2.75,3.79-2.8-3.79ZM16.55,108.22l2.8-3.9,2.75,3.9-2.75,3.79-2.8-3.79ZM16.55,115.92l2.8-3.9,2.75,3.9-2.75,3.79-2.8-3.79ZM22.11,92.83l2.8-3.9,2.86,3.9-2.86,3.79-2.8-3.79ZM22.11,100.52l2.8-3.9,2.86,3.9-2.86,3.79-2.8-3.79ZM22.11,108.22l2.8-3.9,2.86,3.9-2.86,3.79-2.8-3.79ZM27.77,100.52l2.8-3.9,2.75,3.9-2.75,3.79-2.8-3.79Z"/>
          <path class="cls-1" d="M34.85,100.52l2.8-3.9,2.75,3.9-2.75,3.79-2.8-3.79ZM40.4,92.83l2.86-3.9,2.75,3.9-2.75,3.79-2.86-3.79ZM40.4,100.52l2.86-3.9,2.75,3.9-2.75,3.79-2.86-3.79ZM40.4,108.22l2.86-3.9,2.75,3.9-2.75,3.79-2.86-3.79ZM46.01,85.13l2.8-3.9,2.75,3.9-2.75,3.79-2.8-3.79ZM46.01,92.83l2.8-3.9,2.75,3.9-2.75,3.79-2.8-3.79ZM46.01,100.52l2.8-3.9,2.75,3.9-2.75,3.79-2.8-3.79ZM46.01,108.22l2.8-3.9,2.75,3.9-2.75,3.79-2.8-3.79ZM46.01,115.92l2.8-3.9,2.75,3.9-2.75,3.79-2.8-3.79ZM51.56,92.83l2.8-3.9,2.86,3.9-2.86,3.79-2.8-3.79ZM51.56,100.52l2.8-3.9,2.86,3.9-2.86,3.79-2.8-3.79ZM51.56,108.22l2.8-3.9,2.86,3.9-2.86,3.79-2.8-3.79ZM57.22,100.52l2.8-3.9,2.75,3.9-2.75,3.79-2.8-3.79Z"/>
          <path class="cls-1" d="M49.51,120.78l2.8-3.9,2.75,3.9-2.75,3.79-2.8-3.79ZM55.06,113.08l2.86-3.9,2.75,3.9-2.75,3.79-2.86-3.79ZM55.06,120.78l2.86-3.9,2.75,3.9-2.75,3.79-2.86-3.79ZM55.06,128.48l2.86-3.9,2.75,3.9-2.75,3.79-2.86-3.79ZM60.67,105.39l2.8-3.9,2.75,3.9-2.75,3.79-2.8-3.79ZM60.67,113.08l2.8-3.9,2.75,3.9-2.75,3.79-2.8-3.79ZM60.67,120.78l2.8-3.9,2.75,3.9-2.75,3.79-2.8-3.79ZM60.67,128.48l2.8-3.9,2.75,3.9-2.75,3.79-2.8-3.79ZM60.67,136.17l2.8-3.9,2.75,3.9-2.75,3.79-2.8-3.79ZM66.22,113.08l2.8-3.9,2.86,3.9-2.86,3.79-2.8-3.79ZM66.22,120.78l2.8-3.9,2.86,3.9-2.86,3.79-2.8-3.79ZM66.22,128.48l2.8-3.9,2.86,3.9-2.86,3.79-2.8-3.79ZM71.89,120.78l2.8-3.9,2.75,3.9-2.75,3.79-2.8-3.79Z"/>
          <path class="cls-1" d="M20.12,80.22l2.8-3.9,2.75,3.9-2.75,3.79-2.8-3.79ZM25.67,72.53l2.86-3.9,2.75,3.9-2.75,3.79-2.86-3.79ZM25.67,80.22l2.86-3.9,2.75,3.9-2.75,3.79-2.86-3.79ZM25.67,87.92l2.86-3.9,2.75,3.9-2.75,3.79-2.86-3.79ZM31.28,64.83l2.8-3.9,2.75,3.9-2.75,3.79-2.8-3.79ZM31.28,72.53l2.8-3.9,2.75,3.9-2.75,3.79-2.8-3.79ZM31.28,80.22l2.8-3.9,2.75,3.9-2.75,3.79-2.8-3.79ZM31.28,87.92l2.8-3.9,2.75,3.9-2.75,3.79-2.8-3.79ZM31.28,95.62l2.8-3.9,2.75,3.9-2.75,3.79-2.8-3.79ZM36.83,72.53l2.8-3.9,2.86,3.9-2.86,3.79-2.8-3.79ZM36.83,80.22l2.8-3.9,2.86,3.9-2.86,3.79-2.8-3.79ZM36.83,87.92l2.8-3.9,2.86,3.9-2.86,3.79-2.8-3.79ZM42.5,80.22l2.8-3.9,2.75,3.9-2.75,3.79-2.8-3.79Z"/>
          <path class="cls-1" d="M5.39,141.12l2.8-3.9,2.75,3.9-2.75,3.79-2.8-3.79ZM10.95,133.43l2.86-3.9,2.75,3.9-2.75,3.79-2.86-3.79ZM10.95,141.12l2.86-3.9,2.75,3.9-2.75,3.79-2.86-3.79ZM10.95,148.82l2.86-3.9,2.75,3.9-2.75,3.79-2.86-3.79ZM16.55,125.73l2.8-3.9,2.75,3.9-2.75,3.79-2.8-3.79ZM16.55,133.43l2.8-3.9,2.75,3.9-2.75,3.79-2.8-3.79ZM16.55,141.12l2.8-3.9,2.75,3.9-2.75,3.79-2.8-3.79ZM16.55,148.82l2.8-3.9,2.75,3.9-2.75,3.79-2.8-3.79ZM16.55,156.52l2.8-3.9,2.75,3.9-2.75,3.79-2.8-3.79ZM22.11,133.43l2.8-3.9,2.86,3.9-2.86,3.79-2.8-3.79ZM22.11,141.12l2.8-3.9,2.86,3.9-2.86,3.79-2.8-3.79ZM22.11,148.82l2.8-3.9,2.86,3.9-2.86,3.79-2.8-3.79ZM27.77,141.12l2.8-3.9,2.75,3.9-2.75,3.79-2.8-3.79Z"/>
          <path class="cls-1" d="M64.24,141.12l2.8-3.9,2.75,3.9-2.75,3.79-2.8-3.79ZM69.79,133.43l2.86-3.9,2.75,3.9-2.75,3.79-2.86-3.79ZM69.79,141.12l2.86-3.9,2.75,3.9-2.75,3.79-2.86-3.79ZM69.79,148.82l2.86-3.9,2.75,3.9-2.75,3.79-2.86-3.79ZM75.4,125.73l2.8-3.9,2.75,3.9-2.75,3.79-2.8-3.79ZM75.4,133.43l2.8-3.9,2.75,3.9-2.75,3.79-2.8-3.79ZM75.4,141.12l2.8-3.9,2.75,3.9-2.75,3.79-2.8-3.79ZM75.4,148.82l2.8-3.9,2.75,3.9-2.75,3.79-2.8-3.79ZM75.4,156.52l2.8-3.9,2.75,3.9-2.75,3.79-2.8-3.79ZM80.95,133.43l2.8-3.9,2.86,3.9-2.86,3.79-2.8-3.79ZM80.95,141.12l2.8-3.9,2.86,3.9-2.86,3.79-2.8-3.79ZM80.95,148.82l2.8-3.9,2.86,3.9-2.86,3.79-2.8-3.79ZM86.61,141.12l2.8-3.9,2.75,3.9-2.75,3.79-2.8-3.79Z"/>
        </g>
        <g>
          <path class="cls-1" d="M447.94,19.32l2.8-3.9,2.75,3.9-2.75,3.79-2.8-3.79ZM453.49,11.63l2.86-3.9,2.75,3.9-2.75,3.79-2.86-3.79ZM453.49,19.32l2.86-3.9,2.75,3.9-2.75,3.79-2.86-3.79ZM453.49,27.02l2.86-3.9,2.75,3.9-2.75,3.79-2.86-3.79ZM459.1,3.93l2.8-3.9,2.75,3.9-2.75,3.79-2.8-3.79ZM459.1,11.63l2.8-3.9,2.75,3.9-2.75,3.79-2.8-3.79ZM459.1,19.32l2.8-3.9,2.75,3.9-2.75,3.79-2.8-3.79ZM459.1,27.02l2.8-3.9,2.75,3.9-2.75,3.79-2.8-3.79ZM459.1,34.72l2.8-3.9,2.75,3.9-2.75,3.79-2.8-3.79ZM464.65,11.63l2.8-3.9,2.86,3.9-2.86,3.79-2.8-3.79ZM464.65,19.32l2.8-3.9,2.86,3.9-2.86,3.79-2.8-3.79ZM464.65,27.02l2.8-3.9,2.86,3.9-2.86,3.79-2.8-3.79ZM470.32,19.32l2.8-3.9,2.75,3.9-2.75,3.79-2.8-3.79Z"/>
          <path class="cls-1" d="M447.94,59.92l2.8-3.9,2.75,3.9-2.75,3.79-2.8-3.79ZM453.49,52.23l2.86-3.9,2.75,3.9-2.75,3.79-2.86-3.79ZM453.49,59.92l2.86-3.9,2.75,3.9-2.75,3.79-2.86-3.79ZM453.49,67.62l2.86-3.9,2.75,3.9-2.75,3.79-2.86-3.79ZM459.1,44.53l2.8-3.9,2.75,3.9-2.75,3.79-2.8-3.79ZM459.1,52.23l2.8-3.9,2.75,3.9-2.75,3.79-2.8-3.79ZM459.1,59.92l2.8-3.9,2.75,3.9-2.75,3.79-2.8-3.79ZM459.1,67.62l2.8-3.9,2.75,3.9-2.75,3.79-2.8-3.79ZM459.1,75.32l2.8-3.9,2.75,3.9-2.75,3.79-2.8-3.79ZM464.65,52.23l2.8-3.9,2.86,3.9-2.86,3.79-2.8-3.79ZM464.65,59.92l2.8-3.9,2.86,3.9-2.86,3.79-2.8-3.79ZM464.65,67.62l2.8-3.9,2.86,3.9-2.86,3.79-2.8-3.79ZM470.32,59.92l2.8-3.9,2.75,3.9-2.75,3.79-2.8-3.79Z"/>
          <path class="cls-1" d="M447.94,100.52l2.8-3.9,2.75,3.9-2.75,3.79-2.8-3.79ZM453.49,92.83l2.86-3.9,2.75,3.9-2.75,3.79-2.86-3.79ZM453.49,100.52l2.86-3.9,2.75,3.9-2.75,3.79-2.86-3.79ZM453.49,108.22l2.86-3.9,2.75,3.9-2.75,3.79-2.86-3.79ZM459.1,85.13l2.8-3.9,2.75,3.9-2.75,3.79-2.8-3.79ZM459.1,92.83l2.8-3.9,2.75,3.9-2.75,3.79-2.8-3.79ZM459.1,100.52l2.8-3.9,2.75,3.9-2.75,3.79-2.8-3.79ZM459.1,108.22l2.8-3.9,2.75,3.9-2.75,3.79-2.8-3.79ZM459.1,115.92l2.8-3.9,2.75,3.9-2.75,3.79-2.8-3.79ZM464.65,92.83l2.8-3.9,2.86,3.9-2.86,3.79-2.8-3.79ZM464.65,100.52l2.8-3.9,2.86,3.9-2.86,3.79-2.8-3.79ZM464.65,108.22l2.8-3.9,2.86,3.9-2.86,3.79-2.8-3.79ZM470.32,100.52l2.8-3.9,2.75,3.9-2.75,3.79-2.8-3.79Z"/>
          <path class="cls-1" d="M447.94,141.12l2.8-3.9,2.75,3.9-2.75,3.79-2.8-3.79ZM453.49,133.43l2.86-3.9,2.75,3.9-2.75,3.79-2.86-3.79ZM453.49,141.12l2.86-3.9,2.75,3.9-2.75,3.79-2.86-3.79ZM453.49,148.82l2.86-3.9,2.75,3.9-2.75,3.79-2.86-3.79ZM459.1,125.73l2.8-3.9,2.75,3.9-2.75,3.79-2.8-3.79ZM459.1,133.43l2.8-3.9,2.75,3.9-2.75,3.79-2.8-3.79ZM459.1,141.12l2.8-3.9,2.75,3.9-2.75,3.79-2.8-3.79ZM459.1,148.82l2.8-3.9,2.75,3.9-2.75,3.79-2.8-3.79ZM459.1,156.52l2.8-3.9,2.75,3.9-2.75,3.79-2.8-3.79ZM464.65,133.43l2.8-3.9,2.86,3.9-2.86,3.79-2.8-3.79ZM464.65,141.12l2.8-3.9,2.86,3.9-2.86,3.79-2.8-3.79ZM464.65,148.82l2.8-3.9,2.86,3.9-2.86,3.79-2.8-3.79ZM470.32,141.12l2.8-3.9,2.75,3.9-2.75,3.79-2.8-3.79Z"/>
          <path class="cls-1" d="M479.15,19.32l2.8-3.9,2.75,3.9-2.75,3.79-2.8-3.79ZM484.7,11.63l2.86-3.9,2.75,3.9-2.75,3.79-2.86-3.79ZM484.7,19.32l2.86-3.9,2.75,3.9-2.75,3.79-2.86-3.79ZM484.7,27.02l2.86-3.9,2.75,3.9-2.75,3.79-2.86-3.79ZM490.31,3.93l2.8-3.9,2.75,3.9-2.75,3.79-2.8-3.79ZM490.31,11.63l2.8-3.9,2.75,3.9-2.75,3.79-2.8-3.79ZM490.31,19.32l2.8-3.9,2.75,3.9-2.75,3.79-2.8-3.79ZM490.31,27.02l2.8-3.9,2.75,3.9-2.75,3.79-2.8-3.79ZM490.31,34.72l2.8-3.9,2.75,3.9-2.75,3.79-2.8-3.79ZM495.86,11.63l2.8-3.9,2.86,3.9-2.86,3.79-2.8-3.79ZM495.86,19.32l2.8-3.9,2.86,3.9-2.86,3.79-2.8-3.79ZM495.86,27.02l2.8-3.9,2.86,3.9-2.86,3.79-2.8-3.79ZM501.52,19.32l2.8-3.9,2.75,3.9-2.75,3.79-2.8-3.79Z"/>
          <path class="cls-1" d="M479.15,100.52l2.8-3.9,2.75,3.9-2.75,3.79-2.8-3.79ZM484.7,92.83l2.86-3.9,2.75,3.9-2.75,3.79-2.86-3.79ZM484.7,100.52l2.86-3.9,2.75,3.9-2.75,3.79-2.86-3.79ZM484.7,108.22l2.86-3.9,2.75,3.9-2.75,3.79-2.86-3.79ZM490.31,85.13l2.8-3.9,2.75,3.9-2.75,3.79-2.8-3.79ZM490.31,92.83l2.8-3.9,2.75,3.9-2.75,3.79-2.8-3.79ZM490.31,100.52l2.8-3.9,2.75,3.9-2.75,3.79-2.8-3.79ZM490.31,108.22l2.8-3.9,2.75,3.9-2.75,3.79-2.8-3.79ZM490.31,115.92l2.8-3.9,2.75,3.9-2.75,3.79-2.8-3.79ZM495.86,92.83l2.8-3.9,2.86,3.9-2.86,3.79-2.8-3.79ZM495.86,100.52l2.8-3.9,2.86,3.9-2.86,3.79-2.8-3.79ZM495.86,108.22l2.8-3.9,2.86,3.9-2.86,3.79-2.8-3.79ZM501.52,100.52l2.8-3.9,2.75,3.9-2.75,3.79-2.8-3.79Z"/>
          <path class="cls-1" d="M510.36,19.32l2.8-3.9,2.75,3.9-2.75,3.79-2.8-3.79ZM515.91,11.63l2.86-3.9,2.75,3.9-2.75,3.79-2.86-3.79ZM515.91,19.32l2.86-3.9,2.75,3.9-2.75,3.79-2.86-3.79ZM515.91,27.02l2.86-3.9,2.75,3.9-2.75,3.79-2.86-3.79ZM521.52,3.93l2.8-3.9,2.75,3.9-2.75,3.79-2.8-3.79ZM521.52,11.63l2.8-3.9,2.75,3.9-2.75,3.79-2.8-3.79ZM521.52,19.32l2.8-3.9,2.75,3.9-2.75,3.79-2.8-3.79ZM521.52,27.02l2.8-3.9,2.75,3.9-2.75,3.79-2.8-3.79ZM521.52,34.72l2.8-3.9,2.75,3.9-2.75,3.79-2.8-3.79ZM527.07,11.63l2.8-3.9,2.86,3.9-2.86,3.79-2.8-3.79ZM527.07,19.32l2.8-3.9,2.86,3.9-2.86,3.79-2.8-3.79ZM527.07,27.02l2.8-3.9,2.86,3.9-2.86,3.79-2.8-3.79ZM532.73,19.32l2.8-3.9,2.75,3.9-2.75,3.79-2.8-3.79Z"/>
          <path class="cls-1" d="M510.36,59.92l2.8-3.9,2.75,3.9-2.75,3.79-2.8-3.79ZM515.91,52.23l2.86-3.9,2.75,3.9-2.75,3.79-2.86-3.79ZM515.91,59.92l2.86-3.9,2.75,3.9-2.75,3.79-2.86-3.79ZM515.91,67.62l2.86-3.9,2.75,3.9-2.75,3.79-2.86-3.79ZM521.52,44.53l2.8-3.9,2.75,3.9-2.75,3.79-2.8-3.79ZM521.52,52.23l2.8-3.9,2.75,3.9-2.75,3.79-2.8-3.79ZM521.52,59.92l2.8-3.9,2.75,3.9-2.75,3.79-2.8-3.79ZM521.52,67.62l2.8-3.9,2.75,3.9-2.75,3.79-2.8-3.79ZM521.52,75.32l2.8-3.9,2.75,3.9-2.75,3.79-2.8-3.79ZM527.07,52.23l2.8-3.9,2.86,3.9-2.86,3.79-2.8-3.79ZM527.07,59.92l2.8-3.9,2.86,3.9-2.86,3.79-2.8-3.79ZM527.07,67.62l2.8-3.9,2.86,3.9-2.86,3.79-2.8-3.79ZM532.73,59.92l2.8-3.9,2.75,3.9-2.75,3.79-2.8-3.79Z"/>
          <path class="cls-1" d="M510.36,100.52l2.8-3.9,2.75,3.9-2.75,3.79-2.8-3.79ZM515.91,92.83l2.86-3.9,2.75,3.9-2.75,3.79-2.86-3.79ZM515.91,100.52l2.86-3.9,2.75,3.9-2.75,3.79-2.86-3.79ZM515.91,108.22l2.86-3.9,2.75,3.9-2.75,3.79-2.86-3.79ZM521.52,85.13l2.8-3.9,2.75,3.9-2.75,3.79-2.8-3.79ZM521.52,92.83l2.8-3.9,2.75,3.9-2.75,3.79-2.8-3.79ZM521.52,100.52l2.8-3.9,2.75,3.9-2.75,3.79-2.8-3.79ZM521.52,108.22l2.8-3.9,2.75,3.9-2.75,3.79-2.8-3.79ZM521.52,115.92l2.8-3.9,2.75,3.9-2.75,3.79-2.8-3.79ZM527.07,92.83l2.8-3.9,2.86,3.9-2.86,3.79-2.8-3.79ZM527.07,100.52l2.8-3.9,2.86,3.9-2.86,3.79-2.8-3.79ZM527.07,108.22l2.8-3.9,2.86,3.9-2.86,3.79-2.8-3.79ZM532.73,100.52l2.8-3.9,2.75,3.9-2.75,3.79-2.8-3.79Z"/>
          <path class="cls-1" d="M510.36,141.12l2.8-3.9,2.75,3.9-2.75,3.79-2.8-3.79ZM515.91,133.43l2.86-3.9,2.75,3.9-2.75,3.79-2.86-3.79ZM515.91,141.12l2.86-3.9,2.75,3.9-2.75,3.79-2.86-3.79ZM515.91,148.82l2.86-3.9,2.75,3.9-2.75,3.79-2.86-3.79ZM521.52,125.73l2.8-3.9,2.75,3.9-2.75,3.79-2.8-3.79ZM521.52,133.43l2.8-3.9,2.75,3.9-2.75,3.79-2.8-3.79ZM521.52,141.12l2.8-3.9,2.75,3.9-2.75,3.79-2.8-3.79ZM521.52,148.82l2.8-3.9,2.75,3.9-2.75,3.79-2.8-3.79ZM521.52,156.52l2.8-3.9,2.75,3.9-2.75,3.79-2.8-3.79ZM527.07,133.43l2.8-3.9,2.86,3.9-2.86,3.79-2.8-3.79ZM527.07,141.12l2.8-3.9,2.86,3.9-2.86,3.79-2.8-3.79ZM527.07,148.82l2.8-3.9,2.86,3.9-2.86,3.79-2.8-3.79ZM532.73,141.12l2.8-3.9,2.75,3.9-2.75,3.79-2.8-3.79Z"/>
        </g>
        <g>
          <path class="cls-1" d="M339.14,19.3l2.8-3.9,2.75,3.9-2.75,3.79-2.8-3.79ZM344.7,11.6l2.86-3.9,2.75,3.9-2.75,3.79-2.86-3.79ZM344.7,19.3l2.86-3.9,2.75,3.9-2.75,3.79-2.86-3.79ZM344.7,26.99l2.86-3.9,2.75,3.9-2.75,3.79-2.86-3.79ZM350.3,3.9l2.8-3.9,2.75,3.9-2.75,3.79-2.8-3.79ZM350.3,11.6l2.8-3.9,2.75,3.9-2.75,3.79-2.8-3.79ZM350.3,19.3l2.8-3.9,2.75,3.9-2.75,3.79-2.8-3.79ZM350.3,26.99l2.8-3.9,2.75,3.9-2.75,3.79-2.8-3.79ZM350.3,34.69l2.8-3.9,2.75,3.9-2.75,3.79-2.8-3.79ZM355.86,11.6l2.8-3.9,2.86,3.9-2.86,3.79-2.8-3.79ZM355.86,19.3l2.8-3.9,2.86,3.9-2.86,3.79-2.8-3.79ZM355.86,26.99l2.8-3.9,2.86,3.9-2.86,3.79-2.8-3.79ZM361.52,19.3l2.8-3.9,2.75,3.9-2.75,3.79-2.8-3.79Z"/>
          <path class="cls-1" d="M397.99,19.32l2.8-3.9,2.75,3.9-2.75,3.79-2.8-3.79ZM403.54,11.63l2.86-3.9,2.75,3.9-2.75,3.79-2.86-3.79ZM403.54,19.32l2.86-3.9,2.75,3.9-2.75,3.79-2.86-3.79ZM403.54,27.02l2.86-3.9,2.75,3.9-2.75,3.79-2.86-3.79ZM409.15,3.93l2.8-3.9,2.75,3.9-2.75,3.79-2.8-3.79ZM409.15,11.63l2.8-3.9,2.75,3.9-2.75,3.79-2.8-3.79ZM409.15,19.32l2.8-3.9,2.75,3.9-2.75,3.79-2.8-3.79ZM409.15,27.02l2.8-3.9,2.75,3.9-2.75,3.79-2.8-3.79ZM409.15,34.72l2.8-3.9,2.75,3.9-2.75,3.79-2.8-3.79ZM414.7,11.63l2.8-3.9,2.86,3.9-2.86,3.79-2.8-3.79ZM414.7,19.32l2.8-3.9,2.86,3.9-2.86,3.79-2.8-3.79ZM414.7,27.02l2.8-3.9,2.86,3.9-2.86,3.79-2.8-3.79ZM420.37,19.32l2.8-3.9,2.75,3.9-2.75,3.79-2.8-3.79Z"/>
          <path class="cls-1" d="M339.17,59.88l2.8-3.9,2.75,3.9-2.75,3.79-2.8-3.79ZM344.72,52.18l2.86-3.9,2.75,3.9-2.75,3.79-2.86-3.79ZM344.72,59.88l2.86-3.9,2.75,3.9-2.75,3.79-2.86-3.79ZM344.72,67.58l2.86-3.9,2.75,3.9-2.75,3.79-2.86-3.79ZM350.33,44.49l2.8-3.9,2.75,3.9-2.75,3.79-2.8-3.79ZM350.33,52.18l2.8-3.9,2.75,3.9-2.75,3.79-2.8-3.79ZM350.33,59.88l2.8-3.9,2.75,3.9-2.75,3.79-2.8-3.79ZM350.33,67.58l2.8-3.9,2.75,3.9-2.75,3.79-2.8-3.79ZM350.33,75.27l2.8-3.9,2.75,3.9-2.75,3.79-2.8-3.79ZM355.88,52.18l2.8-3.9,2.86,3.9-2.86,3.79-2.8-3.79ZM355.88,59.88l2.8-3.9,2.86,3.9-2.86,3.79-2.8-3.79ZM355.88,67.58l2.8-3.9,2.86,3.9-2.86,3.79-2.8-3.79ZM361.55,59.88l2.8-3.9,2.75,3.9-2.75,3.79-2.8-3.79Z"/>
          <path class="cls-1" d="M368.57,59.92l2.8-3.9,2.75,3.9-2.75,3.79-2.8-3.79ZM374.12,52.23l2.86-3.9,2.75,3.9-2.75,3.79-2.86-3.79ZM374.12,59.92l2.86-3.9,2.75,3.9-2.75,3.79-2.86-3.79ZM374.12,67.62l2.86-3.9,2.75,3.9-2.75,3.79-2.86-3.79ZM379.73,44.53l2.8-3.9,2.75,3.9-2.75,3.79-2.8-3.79ZM379.73,52.23l2.8-3.9,2.75,3.9-2.75,3.79-2.8-3.79ZM379.73,59.92l2.8-3.9,2.75,3.9-2.75,3.79-2.8-3.79ZM379.73,67.62l2.8-3.9,2.75,3.9-2.75,3.79-2.8-3.79ZM379.73,75.32l2.8-3.9,2.75,3.9-2.75,3.79-2.8-3.79ZM385.28,52.23l2.8-3.9,2.86,3.9-2.86,3.79-2.8-3.79ZM385.28,59.92l2.8-3.9,2.86,3.9-2.86,3.79-2.8-3.79ZM385.28,67.62l2.8-3.9,2.86,3.9-2.86,3.79-2.8-3.79ZM390.95,59.92l2.8-3.9,2.75,3.9-2.75,3.79-2.8-3.79Z"/>
          <path class="cls-1" d="M383.21,39.61l2.8-3.9,2.75,3.9-2.75,3.79-2.8-3.79ZM388.76,31.92l2.86-3.9,2.75,3.9-2.75,3.79-2.86-3.79ZM388.76,39.61l2.86-3.9,2.75,3.9-2.75,3.79-2.86-3.79ZM388.76,47.31l2.86-3.9,2.75,3.9-2.75,3.79-2.86-3.79ZM394.37,24.22l2.8-3.9,2.75,3.9-2.75,3.79-2.8-3.79ZM394.37,31.92l2.8-3.9,2.75,3.9-2.75,3.79-2.8-3.79ZM394.37,39.61l2.8-3.9,2.75,3.9-2.75,3.79-2.8-3.79ZM394.37,47.31l2.8-3.9,2.75,3.9-2.75,3.79-2.8-3.79ZM394.37,55.01l2.8-3.9,2.75,3.9-2.75,3.79-2.8-3.79ZM399.92,31.92l2.8-3.9,2.86,3.9-2.86,3.79-2.8-3.79ZM399.92,39.61l2.8-3.9,2.86,3.9-2.86,3.79-2.8-3.79ZM399.92,47.31l2.8-3.9,2.86,3.9-2.86,3.79-2.8-3.79ZM405.58,39.61l2.8-3.9,2.75,3.9-2.75,3.79-2.8-3.79Z"/>
          <path class="cls-1" d="M339.12,100.52l2.8-3.9,2.75,3.9-2.75,3.79-2.8-3.79ZM344.67,92.83l2.86-3.9,2.75,3.9-2.75,3.79-2.86-3.79ZM344.67,100.52l2.86-3.9,2.75,3.9-2.75,3.79-2.86-3.79ZM344.67,108.22l2.86-3.9,2.75,3.9-2.75,3.79-2.86-3.79ZM350.28,85.13l2.8-3.9,2.75,3.9-2.75,3.79-2.8-3.79ZM350.28,92.83l2.8-3.9,2.75,3.9-2.75,3.79-2.8-3.79ZM350.28,100.52l2.8-3.9,2.75,3.9-2.75,3.79-2.8-3.79ZM350.28,108.22l2.8-3.9,2.75,3.9-2.75,3.79-2.8-3.79ZM350.28,115.92l2.8-3.9,2.75,3.9-2.75,3.79-2.8-3.79ZM355.83,92.83l2.8-3.9,2.86,3.9-2.86,3.79-2.8-3.79ZM355.83,100.52l2.8-3.9,2.86,3.9-2.86,3.79-2.8-3.79ZM355.83,108.22l2.8-3.9,2.86,3.9-2.86,3.79-2.8-3.79ZM361.49,100.52l2.8-3.9,2.75,3.9-2.75,3.79-2.8-3.79Z"/>
          <path class="cls-1" d="M368.57,100.52l2.8-3.9,2.75,3.9-2.75,3.79-2.8-3.79ZM374.12,92.83l2.86-3.9,2.75,3.9-2.75,3.79-2.86-3.79ZM374.12,100.52l2.86-3.9,2.75,3.9-2.75,3.79-2.86-3.79ZM374.12,108.22l2.86-3.9,2.75,3.9-2.75,3.79-2.86-3.79ZM379.73,85.13l2.8-3.9,2.75,3.9-2.75,3.79-2.8-3.79ZM379.73,92.83l2.8-3.9,2.75,3.9-2.75,3.79-2.8-3.79ZM379.73,100.52l2.8-3.9,2.75,3.9-2.75,3.79-2.8-3.79ZM379.73,108.22l2.8-3.9,2.75,3.9-2.75,3.79-2.8-3.79ZM379.73,115.92l2.8-3.9,2.75,3.9-2.75,3.79-2.8-3.79ZM385.28,92.83l2.8-3.9,2.86,3.9-2.86,3.79-2.8-3.79ZM385.28,100.52l2.8-3.9,2.86,3.9-2.86,3.79-2.8-3.79ZM385.28,108.22l2.8-3.9,2.86,3.9-2.86,3.79-2.8-3.79ZM390.95,100.52l2.8-3.9,2.75,3.9-2.75,3.79-2.8-3.79Z"/>
          <path class="cls-1" d="M383.23,120.78l2.8-3.9,2.75,3.9-2.75,3.79-2.8-3.79ZM388.79,113.08l2.86-3.9,2.75,3.9-2.75,3.79-2.86-3.79ZM388.79,120.78l2.86-3.9,2.75,3.9-2.75,3.79-2.86-3.79ZM388.79,128.48l2.86-3.9,2.75,3.9-2.75,3.79-2.86-3.79ZM394.39,105.39l2.8-3.9,2.75,3.9-2.75,3.79-2.8-3.79ZM394.39,113.08l2.8-3.9,2.75,3.9-2.75,3.79-2.8-3.79ZM394.39,120.78l2.8-3.9,2.75,3.9-2.75,3.79-2.8-3.79ZM394.39,128.48l2.8-3.9,2.75,3.9-2.75,3.79-2.8-3.79ZM394.39,136.17l2.8-3.9,2.75,3.9-2.75,3.79-2.8-3.79ZM399.95,113.08l2.8-3.9,2.86,3.9-2.86,3.79-2.8-3.79ZM399.95,120.78l2.8-3.9,2.86,3.9-2.86,3.79-2.8-3.79ZM399.95,128.48l2.8-3.9,2.86,3.9-2.86,3.79-2.8-3.79ZM405.61,120.78l2.8-3.9,2.75,3.9-2.75,3.79-2.8-3.79Z"/>
          <path class="cls-1" d="M353.84,80.22l2.8-3.9,2.75,3.9-2.75,3.79-2.8-3.79ZM359.4,72.53l2.86-3.9,2.75,3.9-2.75,3.79-2.86-3.79ZM359.4,80.22l2.86-3.9,2.75,3.9-2.75,3.79-2.86-3.79ZM359.4,87.92l2.86-3.9,2.75,3.9-2.75,3.79-2.86-3.79ZM365,64.83l2.8-3.9,2.75,3.9-2.75,3.79-2.8-3.79ZM365,72.53l2.8-3.9,2.75,3.9-2.75,3.79-2.8-3.79ZM365,80.22l2.8-3.9,2.75,3.9-2.75,3.79-2.8-3.79ZM365,87.92l2.8-3.9,2.75,3.9-2.75,3.79-2.8-3.79ZM365,95.62l2.8-3.9,2.75,3.9-2.75,3.79-2.8-3.79ZM370.56,72.53l2.8-3.9,2.86,3.9-2.86,3.79-2.8-3.79ZM370.56,80.22l2.8-3.9,2.86,3.9-2.86,3.79-2.8-3.79ZM370.56,87.92l2.8-3.9,2.86,3.9-2.86,3.79-2.8-3.79ZM376.22,80.22l2.8-3.9,2.75,3.9-2.75,3.79-2.8-3.79Z"/>
          <path class="cls-1" d="M339.12,141.12l2.8-3.9,2.75,3.9-2.75,3.79-2.8-3.79ZM344.67,133.43l2.86-3.9,2.75,3.9-2.75,3.79-2.86-3.79ZM344.67,141.12l2.86-3.9,2.75,3.9-2.75,3.79-2.86-3.79ZM344.67,148.82l2.86-3.9,2.75,3.9-2.75,3.79-2.86-3.79ZM350.28,125.73l2.8-3.9,2.75,3.9-2.75,3.79-2.8-3.79ZM350.28,133.43l2.8-3.9,2.75,3.9-2.75,3.79-2.8-3.79ZM350.28,141.12l2.8-3.9,2.75,3.9-2.75,3.79-2.8-3.79ZM350.28,148.82l2.8-3.9,2.75,3.9-2.75,3.79-2.8-3.79ZM350.28,156.52l2.8-3.9,2.75,3.9-2.75,3.79-2.8-3.79ZM355.83,133.43l2.8-3.9,2.86,3.9-2.86,3.79-2.8-3.79ZM355.83,141.12l2.8-3.9,2.86,3.9-2.86,3.79-2.8-3.79ZM355.83,148.82l2.8-3.9,2.86,3.9-2.86,3.79-2.8-3.79ZM361.49,141.12l2.8-3.9,2.75,3.9-2.75,3.79-2.8-3.79Z"/>
          <path class="cls-1" d="M397.96,141.12l2.8-3.9,2.75,3.9-2.75,3.79-2.8-3.79ZM403.52,133.43l2.86-3.9,2.75,3.9-2.75,3.79-2.86-3.79ZM403.52,141.12l2.86-3.9,2.75,3.9-2.75,3.79-2.86-3.79ZM403.52,148.82l2.86-3.9,2.75,3.9-2.75,3.79-2.86-3.79ZM409.12,125.73l2.8-3.9,2.75,3.9-2.75,3.79-2.8-3.79ZM409.12,133.43l2.8-3.9,2.75,3.9-2.75,3.79-2.8-3.79ZM409.12,141.12l2.8-3.9,2.75,3.9-2.75,3.79-2.8-3.79ZM409.12,148.82l2.8-3.9,2.75,3.9-2.75,3.79-2.8-3.79ZM409.12,156.52l2.8-3.9,2.75,3.9-2.75,3.79-2.8-3.79ZM414.68,133.43l2.8-3.9,2.86,3.9-2.86,3.79-2.8-3.79ZM414.68,141.12l2.8-3.9,2.86,3.9-2.86,3.79-2.8-3.79ZM414.68,148.82l2.8-3.9,2.86,3.9-2.86,3.79-2.8-3.79ZM420.34,141.12l2.8-3.9,2.75,3.9-2.75,3.79-2.8-3.79Z"/>
        </g>
      </g>
      <g>
        <path class="cls-1" d="M2.17,192.06v-2.2H0v-4.42h2.17v-2.17h6.54v-2.12H2.17v-2.22h8.76v2.17h2.17v10.96H2.17ZM8.71,185.5h-4.31v4.34h4.31v-4.34Z"/>
        <path class="cls-1" d="M29.24,189.87v2.2h-6.56v-2.22h4.34v-2.14h-2.17v-2.17l-2.17-.03v-4.39h2.17v-2.17h6.59v2.22h-4.37v2.14h2.17v2.17l2.2-.03v4.42h-2.2Z"/>
        <path class="cls-1" d="M43.15,192.06v-2.2h-2.17v-4.42h2.17v-2.17h6.54v-2.12h-6.54v-2.22h8.76v2.17h2.17v10.96h-10.93ZM49.69,185.5h-4.31v4.34h4.31v-4.34Z"/>
        <path class="cls-1" d="M81.07,192.06v-10.91h-2.12v2.17h-2.2v8.73h-4.39v-10.91h-2.14v2.17h-2.17v8.73h-4.39v-13.13h4.39v2.17h2.14v-2.17h4.39v2.17h4.31v-2.17h4.39v2.17h2.19v10.96h-4.39Z"/>
        <path class="cls-1" d="M105.97,189.87v2.2h-10.93v-17.5h4.39v4.37h6.54v2.17h2.17v8.76h-2.17ZM103.75,181.16h-4.31v8.68h4.31v-8.68Z"/>
        <path class="cls-1" d="M117.71,192.06v-17.5h4.39v17.5h-4.39Z"/>
        <path class="cls-1" d="M142.58,189.87v2.2h-8.76v-2.2h-2.17v-8.76h2.17v-2.17h8.76v2.17h2.17v2.22h-2.17v2.17h-4.37v2.17h-2.17v2.17h6.49v-2.22h2.22v2.25h-2.17ZM140.36,181.16h-4.31v4.29h2.14v-2.14h2.17v-2.14Z"/>
        <path class="cls-1" d="M156.5,192.06v-2.2h-2.17v-4.42h2.17v-2.17h6.54v-2.12h-6.54v-2.22h8.76v2.17h2.17v10.96h-10.93ZM163.03,185.5h-4.31v4.34h4.31v-4.34Z"/>
        <path class="cls-1" d="M190.94,192.06v-2.2h-2.17v-8.76h2.17v-2.17h6.54v-4.37h4.39v17.5h-10.93ZM197.48,181.16h-4.31v8.68h4.31v-8.68Z"/>
        <path class="cls-1" d="M222.37,189.87v2.2h-8.76v-2.2h-2.17v-8.76h2.17v-2.17h8.76v2.17h2.17v2.22h-2.17v2.17h-4.37v2.17h-2.17v2.17h6.49v-2.22h2.22v2.25h-2.17ZM220.15,181.16h-4.31v4.29h2.14v-2.14h2.17v-2.14Z"/>
        <path class="cls-1" d="M263.3,192.06v-10.91h-2.12v2.17h-2.2v8.73h-4.39v-10.91h-2.14v2.17h-2.17v8.73h-4.39v-13.13h4.39v2.17h2.14v-2.17h4.39v2.17h4.31v-2.17h4.39v2.17h2.19v10.96h-4.39Z"/>
        <path class="cls-1" d="M288.2,189.87v2.2h-8.76v-2.2h-2.17v-10.93h4.39v10.91h4.31v-10.91h4.39v10.93h-2.17Z"/>
        <path class="cls-1" d="M308.65,192.06v-10.91h-2.14v2.17h-2.17v8.73h-4.39v-13.13h4.39v2.17h2.14v-2.17h4.39v2.17h2.17v10.96h-4.39Z"/>
        <path class="cls-1" d="M324.78,192.06v-2.2h-2.17v-8.76h2.17v-2.17h6.54v-4.37h4.39v17.5h-10.93ZM331.32,181.16h-4.31v8.68h4.31v-8.68Z"/>
        <path class="cls-1" d="M356.22,189.87v2.2h-8.76v-2.2h-2.17v-8.76h2.17v-2.17h8.76v2.17h2.17v8.76h-2.17ZM354,181.16h-4.31v8.68h4.31v-8.68Z"/>
        <path class="cls-1" d="M374.53,189.87v2.2h-6.56v-2.22h4.34v-2.14h-2.17v-2.17l-2.17-.03v-4.39h2.17v-2.17h6.59v2.22h-4.37v2.14h2.17v2.17l2.2-.03v4.42h-2.2Z"/>
        <path class="cls-1" d="M408.97,189.87v2.2h-6.54v4.37h-4.39v-17.5h10.93v2.17h2.17v8.76h-2.17ZM406.75,181.16h-4.31v8.68h4.31v-8.68Z"/>
        <path class="cls-1" d="M431.64,189.87v2.2h-8.76v-2.2h-2.17v-8.76h2.17v-2.17h8.76v2.17h2.17v8.76h-2.17ZM429.42,181.16h-4.31v8.68h4.31v-8.68Z"/>
        <path class="cls-1" d="M449.95,189.87v2.2h-6.56v-2.22h4.34v-2.14h-2.17v-2.17l-2.17-.03v-4.39h2.17v-2.17h6.59v2.22h-4.37v2.14h2.17v2.17l2.2-.03v4.42h-2.2Z"/>
        <path class="cls-1" d="M461.69,176.79v-2.22h4.39v2.22h-4.39ZM461.69,192.06v-13.13h4.39v13.13h-4.39Z"/>
        <path class="cls-1" d="M486.56,189.87v2.2h-10.93v-17.5h4.39v4.37h6.54v2.17h2.17v8.76h-2.17ZM484.34,181.16h-4.31v8.68h4.31v-8.68Z"/>
        <path class="cls-1" d="M498.31,192.06v-17.5h4.39v17.5h-4.39Z"/>
        <path class="cls-1" d="M523.18,189.87v2.2h-8.76v-2.2h-2.17v-8.76h2.17v-2.17h8.76v2.17h2.17v2.22h-2.17v2.17h-4.37v2.17h-2.17v2.17h6.49v-2.22h2.22v2.25h-2.17ZM520.95,181.16h-4.31v4.29h2.14v-2.14h2.17v-2.14Z"/>
        <path class="cls-1" d="M541.48,189.87v2.2h-6.56v-2.22h4.34v-2.14h-2.17v-2.17l-2.17-.03v-4.39h2.17v-2.17h6.59v2.22h-4.37v2.14h2.17v2.17l2.2-.03v4.42h-2.2Z"/>
      </g>
      <g>
        <path class="cls-1" d="M69.41,223.95v3.49h-3.51v-3.49h-5.23v-3.49h1.74v-3.51h1.78v3.54h-1.74v1.69h3.45v-8.72h3.51v8.72h1.74v1.78h-1.74Z"/>
        <path class="cls-1" d="M84.05,218.72v3.49h-1.75l.02,5.23h-3.51v-5.27h1.74v-3.49h1.74v-3.45h-5.23v-1.78h8.77v5.27h-1.77Z"/>
        <path class="cls-1" d="M108.12,225.69v1.76h-5.25v-1.78h3.47v-1.72h-1.74v-1.74l-1.74-.02v-3.51h1.74v-1.74h5.27v1.78h-3.49v1.72h1.74v1.74l1.76-.02v3.54h-1.76Z"/>
        <path class="cls-1" d="M119.25,227.45v-1.76h-1.74v-3.54h1.74v-1.74h5.23v-1.69h-5.23v-1.78h7.01v1.74h1.74v8.77h-8.75ZM124.48,222.19h-3.45v3.47h3.45v-3.47Z"/>
        <path class="cls-1" d="M135.65,227.45v-14h3.51v14h-3.51Z"/>
        <path class="cls-1" d="M155.55,225.69v1.76h-7.01v-1.76h-1.74v-7.01h1.74v-1.74h7.01v1.74h1.74v7.01h-1.74ZM152.05,213.49v1.74h-1.78v-1.78h1.76v-1.74h1.78v1.78h-1.76ZM153.77,218.72h-3.45v6.95h3.45v-6.95Z"/>
        <path class="cls-1" d="M171.91,227.45v-8.72h-1.72v1.74h-1.74v6.99h-3.51v-10.5h3.51v1.74h1.72v-1.74h3.51v1.74h1.74v8.77h-3.51Z"/>
        <path class="cls-1" d="M199.46,227.45v-8.72h-1.72v1.74h-1.74v6.99h-3.51v-10.5h3.51v1.74h1.72v-1.74h3.51v1.74h1.74v8.77h-3.51Z"/>
        <path class="cls-1" d="M212.37,227.45v-1.76h-1.74v-3.54h1.74v-1.74h5.23v-1.69h-5.23v-1.78h7.01v1.74h1.74v8.77h-8.75ZM217.6,222.19h-3.45v3.47h3.45v-3.47Z"/>
        <path class="cls-1" d="M235.78,225.69v1.76h-5.27v-1.76h-1.74v-7.01h1.74v-1.74h7.01v3.51h-1.78v-1.74h-3.45v6.95h3.45v-1.78h1.78v1.8h-1.74Z"/>
        <path class="cls-1" d="M245.15,215.23v-1.78h3.51v1.78h-3.51ZM245.15,227.45v-10.5h3.51v10.5h-3.51Z"/>
        <path class="cls-1" d="M265.05,225.69v1.76h-7.01v-1.76h-1.74v-7.01h1.74v-1.74h7.01v1.74h1.74v7.01h-1.74ZM263.27,218.72h-3.45v6.95h3.45v-6.95Z"/>
        <path class="cls-1" d="M281.41,227.45v-8.72h-1.72v1.74h-1.74v6.99h-3.51v-10.5h3.51v1.74h1.72v-1.74h3.51v1.74h1.74v8.77h-3.51Z"/>
        <path class="cls-1" d="M294.32,227.45v-1.76h-1.74v-3.54h1.74v-1.74h5.23v-1.69h-5.23v-1.78h7.01v1.74h1.74v8.77h-8.75ZM299.55,222.19h-3.45v3.47h3.45v-3.47Z"/>
        <path class="cls-1" d="M310.72,227.45v-14h3.51v14h-3.51Z"/>
        <path class="cls-1" d="M333.03,227.45v-1.76h-1.74v-7.01h1.74v-1.74h5.23v-3.49h3.51v14h-8.75ZM338.26,218.72h-3.45v6.95h3.45v-6.95Z"/>
        <path class="cls-1" d="M358.17,225.69v1.76h-7.01v-1.76h-1.74v-7.01h1.74v-1.74h7.01v1.74h1.74v1.78h-1.74v1.74h-3.49v1.74h-1.74v1.74h5.19v-1.78h1.78v1.8h-1.74ZM356.4,218.72h-3.45v3.43h1.72v-1.72h1.74v-1.72Z"/>
        <path class="cls-1" d="M378.72,227.45v-1.76h-1.74v-3.54h1.74v-1.74h5.23v-1.69h-5.23v-1.78h7.01v1.74h1.74v8.77h-8.75ZM383.95,222.19h-3.45v3.47h3.45v-3.47Z"/>
        <path class="cls-1" d="M398.64,220.46v6.99h-3.51v-10.5h3.51v1.74h1.72v-1.74h1.78v3.51h-3.49Z"/>
        <path class="cls-1" d="M413.28,218.72v8.72h-3.51v-8.72h-1.76v-1.78h1.76v-3.49h3.51v3.49h1.74v1.78h-1.74Z"/>
        <path class="cls-1" d="M420.92,215.23v-1.78h3.51v1.78h-3.51ZM420.92,227.45v-10.5h3.51v10.5h-3.51Z"/>
        <path class="cls-1" d="M437.32,225.69v1.76h-5.25v-1.78h3.47v-1.72h-1.74v-1.74l-1.74-.02v-3.51h1.74v-1.74h5.27v1.78h-3.49v1.72h1.74v1.74l1.76-.02v3.54h-1.76Z"/>
        <path class="cls-1" d="M450.23,218.72v8.72h-3.51v-8.72h-1.76v-1.78h1.76v-3.49h3.51v3.49h1.74v1.78h-1.74Z"/>
        <path class="cls-1" d="M459.6,227.45v-1.76h-1.74v-3.54h1.74v-1.74h5.23v-1.69h-5.23v-1.78h7.01v1.74h1.74v8.77h-8.75ZM464.83,222.19h-3.45v3.47h3.45v-3.47Z"/>
        <path class="cls-1" d="M481.26,225.69v1.76h-5.25v-1.78h3.47v-1.72h-1.74v-1.74l-1.74-.02v-3.51h1.74v-1.74h5.27v1.78h-3.49v1.72h1.74v1.74l1.76-.02v3.54h-1.76Z"/>
      </g>
    </g>
  </g>
</svg>