<?xml version="1.0" encoding="UTF-8"?>
<svg xmlns="http://www.w3.org/2000/svg" viewBox="0 0 640 1024.95">
  <defs>
    <style>
      .cls-1 {
        fill: rgb(206,57,33);
      }

      .cls-2 {

      }

      .cls-3 {
        isolation: isolate;
      }
    </style>
  </defs>
  <g class="cls-3">
    <g id="Layer_2" data-name="Layer 2">
      <g id="Figuras">
        <g class="cls-2">
          <path class="cls-1" d="M255.75,88.61l21.84-29.82,21,29.82-21,28.98-21.84-28.98ZM255.75,147.4l21.84-29.82,21,29.82-21,28.98-21.84-28.98ZM255.75,206.19l21.84-29.82,21,29.82-21,28.98-21.84-28.98ZM298.58,29.82L320,0l21,29.82-21,28.98-21.42-28.98ZM298.58,88.61l21.42-29.82,21,29.82-21,28.98-21.42-28.98ZM298.58,147.4l21.42-29.82,21,29.82-21,28.98-21.42-28.98ZM298.58,206.19l21.42-29.82,21,29.82-21,28.98-21.42-28.98ZM298.58,264.99l21.42-29.82,21,29.82-21,28.98-21.42-28.98ZM341,88.61l21.42-29.82,21.84,29.82-21.84,28.98-21.42-28.98ZM341,147.4l21.42-29.82,21.84,29.82-21.84,28.98-21.42-28.98ZM341,206.19l21.42-29.82,21.84,29.82-21.84,28.98-21.42-28.98Z"/>
          <path class="cls-1" d="M106.47,292.96l21.42-29.82,21,29.82-21,28.98-21.42-28.98ZM148.88,234.17l21.84-29.82,21,29.82-21,28.98-21.84-28.98ZM148.88,292.96l21.84-29.82,21,29.82-21,28.98-21.84-28.98ZM148.88,351.75l21.84-29.82,21,29.82-21,28.98-21.84-28.98ZM191.72,175.37l21.42-29.82,21,29.82-21,28.98-21.42-28.98ZM191.72,234.17l21.42-29.82,21,29.82-21,28.98-21.42-28.98ZM191.72,292.96l21.42-29.82,21,29.82-21,28.98-21.42-28.98ZM191.72,351.75l21.42-29.82,21,29.82-21,28.98-21.42-28.98ZM191.72,410.54l21.42-29.82,21,29.82-21,28.98-21.42-28.98ZM234.13,234.17l21.42-29.82,21.84,29.82-21.84,28.98-21.42-28.98ZM234.13,292.96l21.42-29.82,21.84,29.82-21.84,28.98-21.42-28.98ZM234.13,351.75l21.42-29.82,21.84,29.82-21.84,28.98-21.42-28.98ZM277.39,292.96l21.42-29.82,21,29.82-21,28.98-21.42-28.98Z"/>
          <path class="cls-1" d="M319.8,292.96l21.42-29.82,21,29.82-21,28.98-21.42-28.98ZM362.22,234.17l21.84-29.82,21,29.82-21,28.98-21.84-28.98ZM362.22,292.96l21.84-29.82,21,29.82-21,28.98-21.84-28.98ZM362.22,351.75l21.84-29.82,21,29.82-21,28.98-21.84-28.98ZM405.05,175.37l21.42-29.82,21,29.82-21,28.98-21.42-28.98ZM405.05,234.17l21.42-29.82,21,29.82-21,28.98-21.42-28.98ZM405.05,292.96l21.42-29.82,21,29.82-21,28.98-21.42-28.98ZM405.05,351.75l21.42-29.82,21,29.82-21,28.98-21.42-28.98ZM405.05,410.54l21.42-29.82,21,29.82-21,28.98-21.42-28.98ZM447.47,234.17l21.42-29.82,21.84,29.82-21.84,28.98-21.42-28.98ZM447.47,292.96l21.42-29.82,21.84,29.82-21.84,28.98-21.42-28.98ZM447.47,351.75l21.42-29.82,21.84,29.82-21.84,28.98-21.42-28.98ZM490.72,292.96l21.42-29.82,21,29.82-21,28.98-21.42-28.98Z"/>
          <path class="cls-1" d="M213.33,439.6l21.42-29.82,21,29.82-21,28.98-21.42-28.98ZM255.75,380.81l21.84-29.82,21,29.82-21,28.98-21.84-28.98ZM255.75,439.6l21.84-29.82,21,29.82-21,28.98-21.84-28.98ZM255.75,498.39l21.84-29.82,21,29.82-21,28.98-21.84-28.98ZM298.58,322.01l21.42-29.82,21,29.82-21,28.98-21.42-28.98ZM298.58,380.81l21.42-29.82,21,29.82-21,28.98-21.42-28.98ZM298.58,439.6l21.42-29.82,21,29.82-21,28.98-21.42-28.98ZM298.58,498.39l21.42-29.82,21,29.82-21,28.98-21.42-28.98ZM298.58,557.18l21.42-29.82,21,29.82-21,28.98-21.42-28.98ZM341,380.81l21.42-29.82,21.84,29.82-21.84,28.98-21.42-28.98ZM341,439.6l21.42-29.82,21.84,29.82-21.84,28.98-21.42-28.98ZM341,498.39l21.42-29.82,21.84,29.82-21.84,28.98-21.42-28.98ZM384.25,439.6l21.42-29.82,21,29.82-21,28.98-21.42-28.98Z"/>
          <path class="cls-1" d="M426.67,439.6l21.42-29.82,21,29.82-21,28.98-21.42-28.98ZM469.08,380.81l21.84-29.82,21,29.82-21,28.98-21.84-28.98ZM469.08,439.6l21.84-29.82,21,29.82-21,28.98-21.84-28.98ZM469.08,498.39l21.84-29.82,21,29.82-21,28.98-21.84-28.98ZM511.92,322.01l21.42-29.82,21,29.82-21,28.98-21.42-28.98ZM511.92,380.81l21.42-29.82,21,29.82-21,28.98-21.42-28.98ZM511.92,439.6l21.42-29.82,21,29.82-21,28.98-21.42-28.98ZM511.92,498.39l21.42-29.82,21,29.82-21,28.98-21.42-28.98ZM511.92,557.18l21.42-29.82,21,29.82-21,28.98-21.42-28.98ZM554.33,380.81l21.42-29.82,21.84,29.82-21.84,28.98-21.42-28.98ZM554.33,439.6l21.42-29.82,21.84,29.82-21.84,28.98-21.42-28.98ZM554.33,498.39l21.42-29.82,21.84,29.82-21.84,28.98-21.42-28.98ZM597.59,439.6l21.42-29.82,21,29.82-21,28.98-21.42-28.98Z"/>
          <path class="cls-1" d="M0,439.6l21.42-29.82,21,29.82-21,28.98L0,439.6ZM42.41,380.81l21.84-29.82,21,29.82-21,28.98-21.84-28.98ZM42.41,439.6l21.84-29.82,21,29.82-21,28.98-21.84-28.98ZM42.41,498.39l21.84-29.82,21,29.82-21,28.98-21.84-28.98ZM85.25,322.01l21.42-29.82,21,29.82-21,28.98-21.42-28.98ZM85.25,380.81l21.42-29.82,21,29.82-21,28.98-21.42-28.98ZM85.25,439.6l21.42-29.82,21,29.82-21,28.98-21.42-28.98ZM85.25,498.39l21.42-29.82,21,29.82-21,28.98-21.42-28.98ZM85.25,557.18l21.42-29.82,21,29.82-21,28.98-21.42-28.98ZM127.66,380.81l21.42-29.82,21.84,29.82-21.84,28.98-21.42-28.98ZM127.66,439.6l21.42-29.82,21.84,29.82-21.84,28.98-21.42-28.98ZM127.66,498.39l21.42-29.82,21.84,29.82-21.84,28.98-21.42-28.98ZM170.92,439.6l21.42-29.82,21,29.82-21,28.98-21.42-28.98Z"/>
          <path class="cls-1" d="M106.47,585.31l21.42-29.82,21,29.82-21,28.98-21.42-28.98ZM148.88,526.51l21.84-29.82,21,29.82-21,28.98-21.84-28.98ZM148.88,585.31l21.84-29.82,21,29.82-21,28.98-21.84-28.98ZM148.88,644.1l21.84-29.82,21,29.82-21,28.98-21.84-28.98ZM191.72,467.72l21.42-29.82,21,29.82-21,28.98-21.42-28.98ZM191.72,526.51l21.42-29.82,21,29.82-21,28.98-21.42-28.98ZM191.72,585.31l21.42-29.82,21,29.82-21,28.98-21.42-28.98ZM191.72,644.1l21.42-29.82,21,29.82-21,28.98-21.42-28.98ZM191.72,702.89l21.42-29.82,21,29.82-21,28.98-21.42-28.98ZM234.13,526.51l21.42-29.82,21.84,29.82-21.84,28.98-21.42-28.98ZM234.13,585.31l21.42-29.82,21.84,29.82-21.84,28.98-21.42-28.98ZM234.13,644.1l21.42-29.82,21.84,29.82-21.84,28.98-21.42-28.98ZM277.39,585.31l21.42-29.82,21,29.82-21,28.98-21.42-28.98Z"/>
          <path class="cls-1" d="M319.8,585.31l21.42-29.82,21,29.82-21,28.98-21.42-28.98ZM362.22,526.51l21.84-29.82,21,29.82-21,28.98-21.84-28.98ZM362.22,585.31l21.84-29.82,21,29.82-21,28.98-21.84-28.98ZM362.22,644.1l21.84-29.82,21,29.82-21,28.98-21.84-28.98ZM405.05,467.72l21.42-29.82,21,29.82-21,28.98-21.42-28.98ZM405.05,526.51l21.42-29.82,21,29.82-21,28.98-21.42-28.98ZM405.05,585.31l21.42-29.82,21,29.82-21,28.98-21.42-28.98ZM405.05,644.1l21.42-29.82,21,29.82-21,28.98-21.42-28.98ZM405.05,702.89l21.42-29.82,21,29.82-21,28.98-21.42-28.98ZM447.47,526.51l21.42-29.82,21.84,29.82-21.84,28.98-21.42-28.98ZM447.47,585.31l21.42-29.82,21.84,29.82-21.84,28.98-21.42-28.98ZM447.47,644.1l21.42-29.82,21.84,29.82-21.84,28.98-21.42-28.98ZM490.72,585.31l21.42-29.82,21,29.82-21,28.98-21.42-28.98Z"/>
          <path class="cls-1" d="M31.8,585.03l7.5-10.44,7.35,10.44-7.35,10.14-7.5-10.14ZM46.65,564.46l7.64-10.44,7.35,10.44-7.35,10.14-7.64-10.14ZM46.65,585.03l7.64-10.44,7.35,10.44-7.35,10.14-7.64-10.14ZM46.65,605.61l7.64-10.44,7.35,10.44-7.35,10.14-7.64-10.14ZM61.64,543.88l7.5-10.44,7.35,10.44-7.35,10.14-7.5-10.14ZM61.64,564.46l7.5-10.44,7.35,10.44-7.35,10.14-7.5-10.14ZM61.64,585.03l7.5-10.44,7.35,10.44-7.35,10.14-7.5-10.14ZM61.64,605.61l7.5-10.44,7.35,10.44-7.35,10.14-7.5-10.14ZM61.64,626.19l7.5-10.44,7.35,10.44-7.35,10.14-7.5-10.14ZM76.48,564.46l7.5-10.44,7.64,10.44-7.64,10.14-7.5-10.14ZM76.48,585.03l7.5-10.44,7.64,10.44-7.64,10.14-7.5-10.14ZM76.48,605.61l7.5-10.44,7.64,10.44-7.64,10.14-7.5-10.14ZM91.62,585.03l7.5-10.44,7.35,10.44-7.35,10.14-7.5-10.14Z"/>
          <path class="cls-1" d="M533.13,585.03l7.5-10.44,7.35,10.44-7.35,10.14-7.5-10.14ZM547.98,564.46l7.64-10.44,7.35,10.44-7.35,10.14-7.64-10.14ZM547.98,585.03l7.64-10.44,7.35,10.44-7.35,10.14-7.64-10.14ZM547.98,605.61l7.64-10.44,7.35,10.44-7.35,10.14-7.64-10.14ZM562.97,543.88l7.5-10.44,7.35,10.44-7.35,10.14-7.5-10.14ZM562.97,564.46l7.5-10.44,7.35,10.44-7.35,10.14-7.5-10.14ZM562.97,585.03l7.5-10.44,7.35,10.44-7.35,10.14-7.5-10.14ZM562.97,605.61l7.5-10.44,7.35,10.44-7.35,10.14-7.5-10.14ZM562.97,626.19l7.5-10.44,7.35,10.44-7.35,10.14-7.5-10.14ZM577.82,564.46l7.5-10.44,7.64,10.44-7.64,10.14-7.5-10.14ZM577.82,585.03l7.5-10.44,7.64,10.44-7.64,10.14-7.5-10.14ZM577.82,605.61l7.5-10.44,7.64,10.44-7.64,10.14-7.5-10.14ZM592.96,585.03l7.5-10.44,7.35,10.44-7.35,10.14-7.5-10.14Z"/>
          <path class="cls-1" d="M426.67,731.79l21.42-29.82,21,29.82-21,28.98-21.42-28.98ZM469.08,673l21.84-29.82,21,29.82-21,28.98-21.84-28.98ZM469.08,731.79l21.84-29.82,21,29.82-21,28.98-21.84-28.98ZM469.08,790.59l21.84-29.82,21,29.82-21,28.98-21.84-28.98ZM511.92,614.21l21.42-29.82,21,29.82-21,28.98-21.42-28.98ZM511.92,673l21.42-29.82,21,29.82-21,28.98-21.42-28.98ZM511.92,731.79l21.42-29.82,21,29.82-21,28.98-21.42-28.98ZM511.92,790.59l21.42-29.82,21,29.82-21,28.98-21.42-28.98ZM511.92,849.38l21.42-29.82,21,29.82-21,28.98-21.42-28.98ZM554.33,673l21.42-29.82,21.84,29.82-21.84,28.98-21.42-28.98ZM554.33,731.79l21.42-29.82,21.84,29.82-21.84,28.98-21.42-28.98ZM554.33,790.59l21.42-29.82,21.84,29.82-21.84,28.98-21.42-28.98ZM597.59,731.79l21.42-29.82,21,29.82-21,28.98-21.42-28.98Z"/>
          <path class="cls-1" d="M0,731.79l21.42-29.82,21,29.82-21,28.98-21.42-28.98ZM42.41,673l21.84-29.82,21,29.82-21,28.98-21.84-28.98ZM42.41,731.79l21.84-29.82,21,29.82-21,28.98-21.84-28.98ZM42.41,790.59l21.84-29.82,21,29.82-21,28.98-21.84-28.98ZM85.25,614.21l21.42-29.82,21,29.82-21,28.98-21.42-28.98ZM85.25,673l21.42-29.82,21,29.82-21,28.98-21.42-28.98ZM85.25,731.79l21.42-29.82,21,29.82-21,28.98-21.42-28.98ZM85.25,790.59l21.42-29.82,21,29.82-21,28.98-21.42-28.98ZM85.25,849.38l21.42-29.82,21,29.82-21,28.98-21.42-28.98ZM127.66,673l21.42-29.82,21.84,29.82-21.84,28.98-21.42-28.98ZM127.66,731.79l21.42-29.82,21.84,29.82-21.84,28.98-21.42-28.98ZM127.66,790.59l21.42-29.82,21.84,29.82-21.84,28.98-21.42-28.98ZM170.92,731.79l21.42-29.82,21,29.82-21,28.98-21.42-28.98Z"/>
          <path class="cls-1" d="M213.33,731.79l21.42-29.82,21,29.82-21,28.98-21.42-28.98ZM255.75,673l21.84-29.82,21,29.82-21,28.98-21.84-28.98ZM255.75,731.79l21.84-29.82,21,29.82-21,28.98-21.84-28.98ZM255.75,790.59l21.84-29.82,21,29.82-21,28.98-21.84-28.98ZM298.58,614.21l21.42-29.82,21,29.82-21,28.98-21.42-28.98ZM298.58,673l21.42-29.82,21,29.82-21,28.98-21.42-28.98ZM298.58,731.79l21.42-29.82,21,29.82-21,28.98-21.42-28.98ZM298.58,790.59l21.42-29.82,21,29.82-21,28.98-21.42-28.98ZM298.58,849.38l21.42-29.82,21,29.82-21,28.98-21.42-28.98ZM341,673l21.42-29.82,21.84,29.82-21.84,28.98-21.42-28.98ZM341,731.79l21.42-29.82,21.84,29.82-21.84,28.98-21.42-28.98ZM341,790.59l21.42-29.82,21.84,29.82-21.84,28.98-21.42-28.98ZM384.25,731.79l21.42-29.82,21,29.82-21,28.98-21.42-28.98Z"/>
          <polygon class="cls-1" points="213.55 1024.95 319.8 878.39 213.55 730.99 106.47 878.39 213.55 1024.95"/>
          <polygon class="cls-1" points="426.89 1024.95 533.13 878.39 426.89 730.99 319.8 878.39 426.89 1024.95"/>
        </g>
      </g>
    </g>
  </g>
</svg>