<?xml version="1.0" encoding="UTF-8"?>
<svg id="Layer_2" data-name="Layer 2" xmlns="http://www.w3.org/2000/svg" viewBox="0 0 679.72 284.36">
  <defs>
    <style>
      .cls-1 {
        fill: #fff;
      }
    </style>
  </defs>
  <g id="Contenido">
    <g>
      <g>
        <path class="cls-1" d="M179.78,24.09l3.5,4.8h-7.07l3.57-4.8ZM176.21,19.29h7.07l-3.5,4.8-3.57-4.8ZM218.76,24.09l3.57,4.8h-7.07l3.5-4.8ZM215.26,19.29h7.07l-3.57,4.8-3.5-4.8Z"/>
        <path class="cls-1" d="M179.78,125.61l3.5,4.8h-7.07l3.57-4.8ZM176.21,120.81h7.07l-3.5,4.8-3.57-4.8ZM218.76,125.61l3.57,4.8h-7.07l3.5-4.8ZM215.26,120.81h7.07l-3.57,4.8-3.5-4.8Z"/>
        <path class="cls-1" d="M229.26,50.83h7.07l-3.5,4.8-3.57-4.8ZM240.31,50.83h7.07l-3.57,4.8-3.5-4.8Z"/>
        <path class="cls-1" d="M229.26,101.59h7.07l-3.5,4.8-3.57-4.8ZM240.31,101.59h7.07l-3.57,4.8-3.5-4.8Z"/>
        <path class="cls-1" d="M229.26,152.35h7.07l-3.5,4.8-3.57-4.8ZM240.31,152.35h7.07l-3.57,4.8-3.5-4.8Z"/>
        <path class="cls-1" d="M181.68,24.47l3.02-4.4,13.27,18.01-3.09,4.47-13.2-18.08ZM185.59,18.83l2.82-3.78,10.52,14.43-2.82,3.64-10.52-14.3ZM189.24,13.75l2.54-3.3,6.94,9.69-2.47,3.23-7.01-9.62ZM193.77,43.3l-3.57,4.81h7.08l-3.51-4.81ZM192.6,9.21l6.74-9.21,6.6,9.28-6.67,9.28-6.67-9.35ZM199.68,29.42l10.52-14.43,2.82,3.78-10.52,14.3-2.82-3.64ZM199.89,20.07l6.94-9.69,2.54,3.3-7.01,9.62-2.47-3.23ZM200.65,38.01l13.26-18.01,3.02,4.4-13.2,18.08-3.09-4.47ZM208.34,48.11l-3.57-4.81-3.51,4.81h7.08Z"/>
        <path class="cls-1" d="M220.76,24.47l3.02-4.4,13.27,18.01-3.09,4.47-13.2-18.08ZM224.68,18.83l2.82-3.78,10.52,14.43-2.82,3.64-10.52-14.3ZM228.32,13.75l2.54-3.3,6.94,9.69-2.47,3.23-7.01-9.62ZM232.86,43.3l-3.57,4.81h7.08l-3.51-4.81ZM231.69,9.21l6.74-9.21,6.6,9.28-6.67,9.28-6.67-9.35ZM238.77,29.42l10.52-14.43,2.82,3.78-10.52,14.3-2.82-3.64ZM238.98,20.07l6.94-9.69,2.54,3.3-7.01,9.62-2.47-3.23ZM239.73,38.01l13.26-18.01,3.02,4.4-13.2,18.08-3.09-4.47ZM247.43,48.11l-3.57-4.81-3.51,4.81h7.08Z"/>
        <path class="cls-1" d="M220.76,75.23l3.02-4.4,13.27,18.01-3.09,4.47-13.2-18.08ZM224.68,69.59l2.82-3.78,10.52,14.43-2.82,3.64-10.52-14.3ZM228.32,64.51l2.54-3.3,6.94,9.69-2.47,3.23-7.01-9.62ZM232.86,94.06l-3.57,4.81h7.08l-3.51-4.81ZM231.69,59.97l6.74-9.21,6.6,9.28-6.67,9.28-6.67-9.35ZM238.77,80.18l10.52-14.43,2.82,3.78-10.52,14.3-2.82-3.64ZM238.98,70.83l6.94-9.69,2.54,3.3-7.01,9.62-2.47-3.23ZM239.73,88.77l13.26-18.01,3.02,4.4-13.2,18.08-3.09-4.47ZM247.43,98.87l-3.57-4.81-3.51,4.81h7.08Z"/>
        <path class="cls-1" d="M181.68,125.99l3.02-4.4,13.27,18.01-3.09,4.47-13.2-18.08ZM185.59,120.35l2.82-3.78,10.52,14.43-2.82,3.64-10.52-14.3ZM189.24,115.27l2.54-3.3,6.94,9.69-2.47,3.23-7.01-9.62ZM193.77,144.82l-3.57,4.81h7.08l-3.51-4.81ZM192.6,110.73l6.74-9.21,6.6,9.28-6.67,9.28-6.67-9.35ZM199.68,130.94l10.52-14.43,2.82,3.78-10.52,14.3-2.82-3.64ZM199.89,121.59l6.94-9.69,2.54,3.3-7.01,9.62-2.47-3.23ZM200.65,139.53l13.26-18.01,3.02,4.4-13.2,18.08-3.09-4.47ZM208.34,149.63l-3.57-4.81-3.51,4.81h7.08Z"/>
        <path class="cls-1" d="M220.76,125.99l3.02-4.4,13.27,18.01-3.09,4.47-13.2-18.08ZM224.68,120.35l2.82-3.78,10.52,14.43-2.82,3.64-10.52-14.3ZM228.32,115.27l2.54-3.3,6.94,9.69-2.47,3.23-7.01-9.62ZM232.86,144.82l-3.57,4.81h7.08l-3.51-4.81ZM231.69,110.73l6.74-9.21,6.6,9.28-6.67,9.28-6.67-9.35ZM238.77,130.94l10.52-14.43,2.82,3.78-10.52,14.3-2.82-3.64ZM238.98,121.59l6.94-9.69,2.54,3.3-7.01,9.62-2.47-3.23ZM239.73,139.53l13.26-18.01,3.02,4.4-13.2,18.08-3.09-4.47ZM247.43,149.63l-3.57-4.81-3.51,4.81h7.08Z"/>
        <g>
          <path class="cls-1" d="M151.16,50.83h7.07l-3.5,4.8-3.57-4.8ZM162.21,50.83h7.07l-3.57,4.8-3.5-4.8Z"/>
          <path class="cls-1" d="M151.16,101.59h7.07l-3.5,4.8-3.57-4.8ZM162.21,101.59h7.07l-3.57,4.8-3.5-4.8Z"/>
          <path class="cls-1" d="M151.16,152.35h7.07l-3.5,4.8-3.57-4.8ZM162.21,152.35h7.07l-3.57,4.8-3.5-4.8Z"/>
          <path class="cls-1" d="M142.59,24.47l3.02-4.4,13.27,18.01-3.09,4.47-13.2-18.08ZM146.51,18.83l2.82-3.78,10.52,14.43-2.82,3.64-10.52-14.3ZM150.15,13.75l2.54-3.3,6.94,9.69-2.47,3.23-7.01-9.62ZM154.69,43.3l-3.57,4.81h7.08l-3.51-4.81ZM153.52,9.21l6.74-9.21,6.6,9.28-6.67,9.28-6.67-9.35ZM160.6,29.42l10.52-14.43,2.82,3.78-10.52,14.3-2.82-3.64ZM160.8,20.07l6.94-9.69,2.54,3.3-7.01,9.62-2.47-3.23ZM161.56,38.01l13.26-18.01,3.02,4.4-13.2,18.08-3.09-4.47ZM169.26,48.11l-3.57-4.81-3.51,4.81h7.08Z"/>
          <path class="cls-1" d="M142.59,75.23l3.02-4.4,13.27,18.01-3.09,4.47-13.2-18.08ZM146.51,69.59l2.82-3.78,10.52,14.43-2.82,3.64-10.52-14.3ZM150.15,64.51l2.54-3.3,6.94,9.69-2.47,3.23-7.01-9.62ZM154.69,94.06l-3.57,4.81h7.08l-3.51-4.81ZM153.52,59.97l6.74-9.21,6.6,9.28-6.67,9.28-6.67-9.35ZM160.6,80.18l10.52-14.43,2.82,3.78-10.52,14.3-2.82-3.64ZM160.8,70.83l6.94-9.69,2.54,3.3-7.01,9.62-2.47-3.23ZM161.56,88.77l13.26-18.01,3.02,4.4-13.2,18.08-3.09-4.47ZM169.26,98.87l-3.57-4.81-3.51,4.81h7.08Z"/>
          <path class="cls-1" d="M142.59,125.99l3.02-4.4,13.27,18.01-3.09,4.47-13.2-18.08ZM146.51,120.35l2.82-3.78,10.52,14.43-2.82,3.64-10.52-14.3ZM150.15,115.27l2.54-3.3,6.94,9.69-2.47,3.23-7.01-9.62ZM154.69,144.82l-3.57,4.81h7.08l-3.51-4.81ZM153.52,110.73l6.74-9.21,6.6,9.28-6.67,9.28-6.67-9.35ZM160.6,130.94l10.52-14.43,2.82,3.78-10.52,14.3-2.82-3.64ZM160.8,121.59l6.94-9.69,2.54,3.3-7.01,9.62-2.47-3.23ZM161.56,139.53l13.26-18.01,3.02,4.4-13.2,18.08-3.09-4.47ZM169.26,149.63l-3.57-4.81-3.51,4.81h7.08Z"/>
          <path class="cls-1" d="M142.59,176.75l3.02-4.4,13.27,18.01-3.09,4.47-13.2-18.08ZM146.51,171.11l2.82-3.78,10.52,14.43-2.82,3.64-10.52-14.3ZM150.15,166.02l2.54-3.3,6.94,9.69-2.47,3.23-7.01-9.62ZM154.69,195.58l-3.57,4.81h7.08l-3.51-4.81ZM153.52,161.49l6.74-9.21,6.6,9.28-6.67,9.28-6.67-9.35ZM160.6,181.7l10.52-14.43,2.82,3.78-10.52,14.3-2.82-3.64ZM160.8,172.35l6.94-9.69,2.54,3.3-7.01,9.62-2.47-3.23ZM161.56,190.29l13.26-18.01,3.02,4.4-13.2,18.08-3.09-4.47ZM169.26,200.39l-3.57-4.81-3.51,4.81h7.08Z"/>
        </g>
        <g>
          <path class="cls-1" d="M56.26,44.66h7.07l-3.5,4.8-3.57-4.8Z"/>
          <path class="cls-1" d="M39.09,68.45h7.07l-3.5,4.8-3.57-4.8Z"/>
          <path class="cls-1" d="M74.71,19.29h7.07l-3.5,4.8-3.57-4.8Z"/>
          <path class="cls-1" d="M81.31,126.91h7.07l-3.57,4.8-3.5-4.8Z"/>
          <path class="cls-1" d="M42.65,127.13l3.5,4.8h-7.07l3.57-4.8ZM62.98,101.54h7.07l-3.57,4.8-3.5-4.8Z"/>
          <path class="cls-1" d="M99.76,152.28h7.07l-3.57,4.8-3.5-4.8Z"/>
          <path class="cls-1" d="M80.14,24.47l3.02-4.4,13.27,18.01-3.09,4.47-13.2-18.08ZM84.06,18.83l2.82-3.78,10.52,14.43-2.82,3.64-10.52-14.3ZM87.7,13.75l2.54-3.3,6.94,9.69-2.47,3.23-7.01-9.62ZM91.07,9.21L97.81,0l6.6,9.28-6.67,9.28-6.67-9.35ZM98.15,29.42l10.52-14.43,2.82,3.78-10.52,14.3-2.82-3.64ZM98.36,20.07l6.94-9.69,2.54,3.3-7.01,9.62-2.47-3.23ZM99.11,38.01l13.26-18.01,3.02,4.4-13.2,18.08-3.09-4.47ZM106.81,48.11l-3.57-4.81-3.51,4.81h7.08Z"/>
          <path class="cls-1" d="M61.69,49.84l3.02-4.4,13.27,18.01-3.09,4.47-13.2-18.08ZM65.61,44.2l2.82-3.78,10.52,14.43-2.82,3.64-10.52-14.3ZM69.25,39.12l2.54-3.3,6.94,9.69-2.47,3.23-7.01-9.62ZM72.62,34.58l6.74-9.21,6.6,9.28-6.67,9.28-6.67-9.35ZM79.7,54.79l10.52-14.43,2.82,3.78-10.52,14.3-2.82-3.64ZM79.91,45.44l6.94-9.69,2.54,3.3-7.01,9.62-2.47-3.23ZM80.66,63.38l13.26-18.01,3.02,4.4-13.2,18.08-3.09-4.47ZM88.36,73.48l-3.57-4.81-3.51,4.81h7.08Z"/>
          <path class="cls-1" d="M43.4,75.21l3.02-4.4,13.27,18.01-3.09,4.47-13.2-18.08ZM47.32,69.57l2.82-3.78,10.52,14.43-2.82,3.64-10.52-14.3ZM50.96,64.48l2.54-3.3,6.94,9.69-2.47,3.23-7.01-9.62ZM54.33,59.95l6.74-9.21,6.6,9.28-6.67,9.28-6.67-9.35ZM61.41,80.15l10.52-14.43,2.82,3.78-10.52,14.3-2.82-3.64ZM61.61,70.81l6.94-9.69,2.54,3.3-7.01,9.62-2.47-3.23ZM62.37,88.75l13.26-18.01,3.02,4.4-13.2,18.08-3.09-4.47ZM70.07,98.85l-3.57-4.81-3.51,4.81h7.08Z"/>
          <path class="cls-1" d="M25.03,100.61l3.02-4.4,13.27,18.01-3.09,4.47-13.2-18.08ZM28.94,94.97l2.82-3.78,10.52,14.43-2.82,3.64-10.52-14.3ZM32.59,89.89l2.54-3.3,6.94,9.69-2.47,3.23-7.01-9.62ZM35.95,85.35l6.74-9.21,6.6,9.28-6.67,9.28-6.67-9.35ZM43.03,105.56l10.52-14.43,2.82,3.78-10.52,14.3-2.82-3.64ZM43.24,96.21l6.94-9.69,2.54,3.3-7.01,9.62-2.47-3.23ZM44,114.15l13.26-18.01,3.02,4.4-13.2,18.08-3.09-4.47Z"/>
          <path class="cls-1" d="M43.4,126.01l3.02-4.4,13.27,18.01-3.09,4.47-13.2-18.08ZM47.32,120.38l2.82-3.78,10.52,14.43-2.82,3.64-10.52-14.3ZM50.96,115.29l2.54-3.3,6.94,9.69-2.47,3.23-7.01-9.62ZM55.49,144.84l-3.57,4.81h7.08l-3.51-4.81ZM54.33,110.75l6.74-9.21,6.6,9.28-6.67,9.28-6.67-9.35ZM61.41,130.96l10.52-14.43,2.82,3.78-10.52,14.3-2.82-3.64ZM61.61,121.61l6.94-9.69,2.54,3.3-7.01,9.62-2.47-3.23ZM62.37,139.55l13.26-18.01,3.02,4.4-13.2,18.08-3.09-4.47Z"/>
          <path class="cls-1" d="M61.73,151.34l3.02-4.4,13.27,18.01-3.09,4.47-13.2-18.08ZM65.65,145.71l2.82-3.78,10.52,14.43-2.82,3.64-10.52-14.3ZM69.29,140.62l2.54-3.3,6.94,9.69-2.47,3.23-7.01-9.62ZM73.83,170.18l-3.57,4.81h7.08l-3.51-4.81ZM72.66,136.09l6.74-9.21,6.6,9.28-6.67,9.28-6.67-9.35ZM79.74,156.29l10.52-14.43,2.82,3.78-10.52,14.3-2.82-3.64ZM79.94,146.95l6.94-9.69,2.54,3.3-7.01,9.62-2.47-3.23ZM80.7,164.88l13.26-18.01,3.02,4.4-13.2,18.08-3.09-4.47Z"/>
          <path class="cls-1" d="M80.18,176.78l3.02-4.4,13.27,18.01-3.09,4.47-13.2-18.08ZM84.09,171.15l2.82-3.78,10.52,14.43-2.82,3.64-10.52-14.3ZM87.74,166.06l2.54-3.3,6.94,9.69-2.47,3.23-7.01-9.62ZM92.27,195.61l-3.57,4.81h7.08l-3.51-4.81ZM91.1,161.52l6.74-9.21,6.6,9.28-6.67,9.28-6.67-9.35ZM98.18,181.73l10.52-14.43,2.82,3.78-10.52,14.3-2.82-3.64ZM98.39,172.38l6.94-9.69,2.54,3.3-7.01,9.62-2.47-3.23ZM99.15,190.32l13.26-18.01,3.02,4.4-13.2,18.08-3.09-4.47ZM106.84,200.42l-3.57-4.81-3.51,4.81h7.08Z"/>
          <g>
            <path class="cls-1" d="M15.18,50.83h7.07l-3.5,4.8-3.57-4.8ZM26.23,50.83h7.07l-3.57,4.8-3.5-4.8Z"/>
            <path class="cls-1" d="M15.18,101.59h7.07l-3.5,4.8-3.57-4.8Z"/>
            <path class="cls-1" d="M15.18,152.35h7.07l-3.5,4.8-3.57-4.8ZM26.23,152.35h7.07l-3.57,4.8-3.5-4.8Z"/>
            <path class="cls-1" d="M6.61,24.47l3.02-4.4,13.27,18.01-3.09,4.47L6.61,24.47ZM10.52,18.83l2.82-3.78,10.52,14.43-2.82,3.64-10.52-14.3ZM14.17,13.75l2.54-3.3,6.94,9.69-2.47,3.23-7.01-9.62ZM18.7,43.3l-3.57,4.81h7.08l-3.51-4.81ZM17.53,9.21L24.27,0l6.6,9.28-6.67,9.28-6.67-9.35ZM24.61,29.42l10.52-14.43,2.82,3.78-10.52,14.3-2.82-3.64ZM24.82,20.07l6.94-9.69,2.54,3.3-7.01,9.62-2.47-3.23ZM25.58,38.01l13.26-18.01,3.02,4.4-13.2,18.08-3.09-4.47ZM33.27,48.11l-3.57-4.81-3.51,4.81h7.08Z"/>
            <path class="cls-1" d="M6.61,75.23l3.02-4.4,13.27,18.01-3.09,4.47-13.2-18.08ZM10.52,69.59l2.82-3.78,10.52,14.43-2.82,3.64-10.52-14.3ZM14.17,64.51l2.54-3.3,6.94,9.69-2.47,3.23-7.01-9.62ZM18.7,94.06l-3.57,4.81h7.08l-3.51-4.81ZM17.53,59.97l6.74-9.21,6.6,9.28-6.67,9.28-6.67-9.35ZM24.61,80.18l10.52-14.43,2.82,3.78-10.52,14.3-2.82-3.64ZM24.82,70.83l6.94-9.69,2.54,3.3-7.01,9.62-2.47-3.23ZM25.58,88.77l13.26-18.01,3.02,4.4-13.2,18.08-3.09-4.47Z"/>
            <path class="cls-1" d="M6.61,125.99l3.02-4.4,13.27,18.01-3.09,4.47-13.2-18.08ZM10.52,120.35l2.82-3.78,10.52,14.43-2.82,3.64-10.52-14.3ZM14.17,115.27l2.54-3.3,6.94,9.69-2.47,3.23-7.01-9.62ZM18.7,144.82l-3.57,4.81h7.08l-3.51-4.81ZM17.53,110.73l6.74-9.21,6.6,9.28-6.67,9.28-6.67-9.35ZM24.61,130.94l10.52-14.43,2.82,3.78-10.52,14.3-2.82-3.64ZM24.82,121.59l6.94-9.69,2.54,3.3-7.01,9.62-2.47-3.23ZM25.58,139.53l13.26-18.01,3.02,4.4-13.2,18.08-3.09-4.47ZM33.27,149.63l-3.57-4.81-3.51,4.81h7.08Z"/>
            <path class="cls-1" d="M6.61,176.75l3.02-4.4,13.27,18.01-3.09,4.47-13.2-18.08ZM10.52,171.11l2.82-3.78,10.52,14.43-2.82,3.64-10.52-14.3ZM14.17,166.02l2.54-3.3,6.94,9.69-2.47,3.23-7.01-9.62ZM18.7,195.58l-3.57,4.81h7.08l-3.51-4.81ZM17.53,161.49l6.74-9.21,6.6,9.28-6.67,9.28-6.67-9.35ZM24.61,181.7l10.52-14.43,2.82,3.78-10.52,14.3-2.82-3.64ZM24.82,172.35l6.94-9.69,2.54,3.3-7.01,9.62-2.47-3.23ZM25.58,190.29l13.26-18.01,3.02,4.4-13.2,18.08-3.09-4.47ZM33.27,200.39l-3.57-4.81-3.51,4.81h7.08Z"/>
          </g>
        </g>
        <g>
          <path class="cls-1" d="M473.39,44.66h7.07l-3.5,4.8-3.57-4.8Z"/>
          <path class="cls-1" d="M456.22,68.45h7.07l-3.5,4.8-3.57-4.8Z"/>
          <path class="cls-1" d="M491.84,19.29h7.07l-3.5,4.8-3.57-4.8Z"/>
          <path class="cls-1" d="M498.44,126.91h7.07l-3.57,4.8-3.5-4.8Z"/>
          <path class="cls-1" d="M459.78,127.13l3.5,4.8h-7.07l3.57-4.8ZM480.11,101.54h7.07l-3.57,4.8-3.5-4.8Z"/>
          <path class="cls-1" d="M516.89,152.28h7.07l-3.57,4.8-3.5-4.8Z"/>
          <path class="cls-1" d="M497.27,24.47l3.02-4.4,13.27,18.01-3.09,4.47-13.2-18.08ZM501.19,18.83l2.82-3.78,10.52,14.43-2.82,3.64-10.52-14.3ZM504.83,13.75l2.54-3.3,6.94,9.69-2.47,3.23-7.01-9.62ZM508.2,9.21L514.93,0l6.6,9.28-6.67,9.28-6.67-9.35ZM515.28,29.42l10.52-14.43,2.82,3.78-10.52,14.3-2.82-3.64ZM515.48,20.07l6.94-9.69,2.54,3.3-7.01,9.62-2.47-3.23ZM516.24,38.01l13.26-18.01,3.02,4.4-13.2,18.08-3.09-4.47ZM523.94,48.11l-3.57-4.81-3.51,4.81h7.08Z"/>
          <path class="cls-1" d="M478.82,49.84l3.02-4.4,13.27,18.01-3.09,4.47-13.2-18.08ZM482.74,44.2l2.82-3.78,10.52,14.43-2.82,3.64-10.52-14.3ZM486.38,39.12l2.54-3.3,6.94,9.69-2.47,3.23-7.01-9.62ZM489.75,34.58l6.74-9.21,6.6,9.28-6.67,9.28-6.67-9.35ZM496.83,54.79l10.52-14.43,2.82,3.78-10.52,14.3-2.82-3.64ZM497.04,45.44l6.94-9.69,2.54,3.3-7.01,9.62-2.47-3.23ZM497.79,63.38l13.26-18.01,3.02,4.4-13.2,18.08-3.09-4.47ZM505.49,73.48l-3.57-4.81-3.51,4.81h7.08Z"/>
          <path class="cls-1" d="M460.53,75.21l3.02-4.4,13.27,18.01-3.09,4.47-13.2-18.08ZM464.44,69.57l2.82-3.78,10.52,14.43-2.82,3.64-10.52-14.3ZM468.09,64.48l2.54-3.3,6.94,9.69-2.47,3.23-7.01-9.62ZM471.45,59.95l6.74-9.21,6.6,9.28-6.67,9.28-6.67-9.35ZM478.53,80.15l10.52-14.43,2.82,3.78-10.52,14.3-2.82-3.64ZM478.74,70.81l6.94-9.69,2.54,3.3-7.01,9.62-2.47-3.23ZM479.5,88.75l13.26-18.01,3.02,4.4-13.2,18.08-3.09-4.47ZM487.19,98.85l-3.57-4.81-3.51,4.81h7.08Z"/>
          <path class="cls-1" d="M442.16,100.61l3.02-4.4,13.27,18.01-3.09,4.47-13.2-18.08ZM446.07,94.97l2.82-3.78,10.52,14.43-2.82,3.64-10.52-14.3ZM449.72,89.89l2.54-3.3,6.94,9.69-2.47,3.23-7.01-9.62ZM453.08,85.35l6.74-9.21,6.6,9.28-6.67,9.28-6.67-9.35ZM460.16,105.56l10.52-14.43,2.82,3.78-10.52,14.3-2.82-3.64ZM460.37,96.21l6.94-9.69,2.54,3.3-7.01,9.62-2.47-3.23ZM461.13,114.15l13.26-18.01,3.02,4.4-13.2,18.08-3.09-4.47Z"/>
          <path class="cls-1" d="M460.53,126.01l3.02-4.4,13.27,18.01-3.09,4.47-13.2-18.08ZM464.44,120.38l2.82-3.78,10.52,14.43-2.82,3.64-10.52-14.3ZM468.09,115.29l2.54-3.3,6.94,9.69-2.47,3.23-7.01-9.62ZM472.62,144.84l-3.57,4.81h7.08l-3.51-4.81ZM471.45,110.75l6.74-9.21,6.6,9.28-6.67,9.28-6.67-9.35ZM478.53,130.96l10.52-14.43,2.82,3.78-10.52,14.3-2.82-3.64ZM478.74,121.61l6.94-9.69,2.54,3.3-7.01,9.62-2.47-3.23ZM479.5,139.55l13.26-18.01,3.02,4.4-13.2,18.08-3.09-4.47Z"/>
          <path class="cls-1" d="M478.86,151.34l3.02-4.4,13.27,18.01-3.09,4.47-13.2-18.08ZM482.78,145.71l2.82-3.78,10.52,14.43-2.82,3.64-10.52-14.3ZM486.42,140.62l2.54-3.3,6.94,9.69-2.47,3.23-7.01-9.62ZM490.95,170.18l-3.57,4.81h7.08l-3.51-4.81ZM489.79,136.09l6.74-9.21,6.6,9.28-6.67,9.28-6.67-9.35ZM496.86,156.29l10.52-14.43,2.82,3.78-10.52,14.3-2.82-3.64ZM497.07,146.95l6.94-9.69,2.54,3.3-7.01,9.62-2.47-3.23ZM497.83,164.88l13.26-18.01,3.02,4.4-13.2,18.08-3.09-4.47Z"/>
          <path class="cls-1" d="M497.3,176.78l3.02-4.4,13.27,18.01-3.09,4.47-13.2-18.08ZM501.22,171.15l2.82-3.78,10.52,14.43-2.82,3.64-10.52-14.3ZM504.87,166.06l2.54-3.3,6.94,9.69-2.47,3.23-7.01-9.62ZM509.4,195.61l-3.57,4.81h7.08l-3.51-4.81ZM508.23,161.52l6.74-9.21,6.6,9.28-6.67,9.28-6.67-9.35ZM515.31,181.73l10.52-14.43,2.82,3.78-10.52,14.3-2.82-3.64ZM515.52,172.38l6.94-9.69,2.54,3.3-7.01,9.62-2.47-3.23ZM516.27,190.32l13.26-18.01,3.02,4.4-13.2,18.08-3.09-4.47ZM523.97,200.42l-3.57-4.81-3.51,4.81h7.08Z"/>
          <g>
            <path class="cls-1" d="M432.3,50.83h7.07l-3.5,4.8-3.57-4.8ZM443.35,50.83h7.07l-3.57,4.8-3.5-4.8Z"/>
            <path class="cls-1" d="M432.3,101.59h7.07l-3.5,4.8-3.57-4.8Z"/>
            <path class="cls-1" d="M432.3,152.35h7.07l-3.5,4.8-3.57-4.8ZM443.35,152.35h7.07l-3.57,4.8-3.5-4.8Z"/>
            <path class="cls-1" d="M423.73,24.47l3.02-4.4,13.27,18.01-3.09,4.47-13.2-18.08ZM427.65,18.83l2.82-3.78,10.52,14.43-2.82,3.64-10.52-14.3ZM431.3,13.75l2.54-3.3,6.94,9.69-2.47,3.23-7.01-9.62ZM435.83,43.3l-3.57,4.81h7.08l-3.51-4.81ZM434.66,9.21l6.74-9.21,6.6,9.28-6.67,9.28-6.67-9.35ZM441.74,29.42l10.52-14.43,2.82,3.78-10.52,14.3-2.82-3.64ZM441.95,20.07l6.94-9.69,2.54,3.3-7.01,9.62-2.47-3.23ZM442.7,38.01l13.26-18.01,3.02,4.4-13.2,18.08-3.09-4.47ZM450.4,48.11l-3.57-4.81-3.51,4.81h7.08Z"/>
            <path class="cls-1" d="M423.73,75.23l3.02-4.4,13.27,18.01-3.09,4.47-13.2-18.08ZM427.65,69.59l2.82-3.78,10.52,14.43-2.82,3.64-10.52-14.3ZM431.3,64.51l2.54-3.3,6.94,9.69-2.47,3.23-7.01-9.62ZM435.83,94.06l-3.57,4.81h7.08l-3.51-4.81ZM434.66,59.97l6.74-9.21,6.6,9.28-6.67,9.28-6.67-9.35ZM441.74,80.18l10.52-14.43,2.82,3.78-10.52,14.3-2.82-3.64ZM441.95,70.83l6.94-9.69,2.54,3.3-7.01,9.62-2.47-3.23ZM442.7,88.77l13.26-18.01,3.02,4.4-13.2,18.08-3.09-4.47Z"/>
            <path class="cls-1" d="M423.73,125.99l3.02-4.4,13.27,18.01-3.09,4.47-13.2-18.08ZM427.65,120.35l2.82-3.78,10.52,14.43-2.82,3.64-10.52-14.3ZM431.3,115.27l2.54-3.3,6.94,9.69-2.47,3.23-7.01-9.62ZM435.83,144.82l-3.57,4.81h7.08l-3.51-4.81ZM434.66,110.73l6.74-9.21,6.6,9.28-6.67,9.28-6.67-9.35ZM441.74,130.94l10.52-14.43,2.82,3.78-10.52,14.3-2.82-3.64ZM441.95,121.59l6.94-9.69,2.54,3.3-7.01,9.62-2.47-3.23ZM442.7,139.53l13.26-18.01,3.02,4.4-13.2,18.08-3.09-4.47ZM450.4,149.63l-3.57-4.81-3.51,4.81h7.08Z"/>
            <path class="cls-1" d="M423.73,176.75l3.02-4.4,13.27,18.01-3.09,4.47-13.2-18.08ZM427.65,171.11l2.82-3.78,10.52,14.43-2.82,3.64-10.52-14.3ZM431.3,166.02l2.54-3.3,6.94,9.69-2.47,3.23-7.01-9.62ZM435.83,195.58l-3.57,4.81h7.08l-3.51-4.81ZM434.66,161.49l6.74-9.21,6.6,9.28-6.67,9.28-6.67-9.35ZM441.74,181.7l10.52-14.43,2.82,3.78-10.52,14.3-2.82-3.64ZM441.95,172.35l6.94-9.69,2.54,3.3-7.01,9.62-2.47-3.23ZM442.7,190.29l13.26-18.01,3.02,4.4-13.2,18.08-3.09-4.47ZM450.4,200.39l-3.57-4.81-3.51,4.81h7.08Z"/>
          </g>
        </g>
        <path class="cls-1" d="M220.76,176.75l3.02-4.4,13.27,18.01-3.09,4.47-13.2-18.08ZM224.68,171.11l2.82-3.78,10.52,14.43-2.82,3.64-10.52-14.3ZM228.32,166.02l2.54-3.3,6.94,9.69-2.47,3.23-7.01-9.62ZM232.86,195.58l-3.57,4.81h7.08l-3.51-4.81ZM231.69,161.49l6.74-9.21,6.6,9.28-6.67,9.28-6.67-9.35ZM238.77,181.7l10.52-14.43,2.82,3.78-10.52,14.3-2.82-3.64ZM238.98,172.35l6.94-9.69,2.54,3.3-7.01,9.62-2.47-3.23ZM239.73,190.29l13.26-18.01,3.02,4.4-13.2,18.08-3.09-4.47ZM247.43,200.39l-3.57-4.81-3.51,4.81h7.08Z"/>
        <g>
          <path class="cls-1" d="M568.25,50.83h7.07l-3.5,4.8-3.57-4.8ZM579.3,50.83h7.07l-3.57,4.8-3.5-4.8Z"/>
          <path class="cls-1" d="M568.25,101.59h7.07l-3.5,4.8-3.57-4.8ZM579.3,101.59h7.07l-3.57,4.8-3.5-4.8Z"/>
          <path class="cls-1" d="M568.25,152.35h7.07l-3.5,4.8-3.57-4.8ZM579.3,152.35h7.07l-3.57,4.8-3.5-4.8Z"/>
          <path class="cls-1" d="M596.87,24.09l3.5,4.8h-7.07l3.57-4.8ZM593.3,19.29h7.07l-3.5,4.8-3.57-4.8ZM635.85,24.09l3.57,4.8h-7.07l3.5-4.8ZM632.35,19.29h7.07l-3.57,4.8-3.5-4.8Z"/>
          <path class="cls-1" d="M596.87,125.61l3.5,4.8h-7.07l3.57-4.8ZM593.3,120.81h7.07l-3.5,4.8-3.57-4.8ZM635.85,125.61l3.57,4.8h-7.07l3.5-4.8ZM632.35,120.81h7.07l-3.57,4.8-3.5-4.8Z"/>
          <path class="cls-1" d="M646.35,50.83h7.07l-3.5,4.8-3.57-4.8ZM657.4,50.83h7.07l-3.57,4.8-3.5-4.8Z"/>
          <path class="cls-1" d="M646.35,101.59h7.07l-3.5,4.8-3.57-4.8ZM657.4,101.59h7.07l-3.57,4.8-3.5-4.8Z"/>
          <path class="cls-1" d="M646.35,152.35h7.07l-3.5,4.8-3.57-4.8ZM657.4,152.35h7.07l-3.57,4.8-3.5-4.8Z"/>
          <g>
            <path class="cls-1" d="M559.68,24.47l3.02-4.4,13.27,18.01-3.09,4.47-13.2-18.08ZM563.6,18.83l2.82-3.78,10.52,14.43-2.82,3.64-10.52-14.3ZM567.24,13.75l2.54-3.3,6.94,9.69-2.47,3.23-7.01-9.62ZM571.78,43.3l-3.57,4.81h7.08l-3.51-4.81ZM570.61,9.21l6.74-9.21,6.6,9.28-6.67,9.28-6.67-9.35ZM577.69,29.42l10.52-14.43,2.82,3.78-10.52,14.3-2.82-3.64ZM577.89,20.07l6.94-9.69,2.54,3.3-7.01,9.62-2.47-3.23ZM578.65,38.01l13.26-18.01,3.02,4.4-13.2,18.08-3.09-4.47ZM586.35,48.11l-3.57-4.81-3.51,4.81h7.08Z"/>
            <path class="cls-1" d="M598.76,24.47l3.02-4.4,13.27,18.01-3.09,4.47-13.2-18.08ZM602.68,18.83l2.82-3.78,10.52,14.43-2.82,3.64-10.52-14.3ZM606.32,13.75l2.54-3.3,6.94,9.69-2.47,3.23-7.01-9.62ZM610.86,43.3l-3.57,4.81h7.08l-3.51-4.81ZM609.69,9.21l6.74-9.21,6.6,9.28-6.67,9.28-6.67-9.35ZM616.77,29.42l10.52-14.43,2.82,3.78-10.52,14.3-2.82-3.64ZM616.98,20.07l6.94-9.69,2.54,3.3-7.01,9.62-2.47-3.23ZM617.73,38.01l13.26-18.01,3.02,4.4-13.2,18.08-3.09-4.47ZM625.43,48.11l-3.57-4.81-3.51,4.81h7.08Z"/>
            <path class="cls-1" d="M637.85,24.47l3.02-4.4,13.27,18.01-3.09,4.47-13.2-18.08ZM641.77,18.83l2.82-3.78,10.52,14.43-2.82,3.64-10.52-14.3ZM645.41,13.75l2.54-3.3,6.94,9.69-2.47,3.23-7.01-9.62ZM649.95,43.3l-3.57,4.81h7.08l-3.51-4.81ZM648.78,9.21l6.74-9.21,6.6,9.28-6.67,9.28-6.67-9.35ZM655.86,29.42l10.52-14.43,2.82,3.78-10.52,14.3-2.82-3.64ZM656.06,20.07l6.94-9.69,2.54,3.3-7.01,9.62-2.47-3.23ZM656.82,38.01l13.26-18.01,3.02,4.4-13.2,18.08-3.09-4.47ZM664.52,48.11l-3.57-4.81-3.51,4.81h7.08Z"/>
          </g>
          <path class="cls-1" d="M559.68,75.23l3.02-4.4,13.27,18.01-3.09,4.47-13.2-18.08ZM563.6,69.59l2.82-3.78,10.52,14.43-2.82,3.64-10.52-14.3ZM567.24,64.51l2.54-3.3,6.94,9.69-2.47,3.23-7.01-9.62ZM571.78,94.06l-3.57,4.81h7.08l-3.51-4.81ZM570.61,59.97l6.74-9.21,6.6,9.28-6.67,9.28-6.67-9.35ZM577.69,80.18l10.52-14.43,2.82,3.78-10.52,14.3-2.82-3.64ZM577.89,70.83l6.94-9.69,2.54,3.3-7.01,9.62-2.47-3.23ZM578.65,88.77l13.26-18.01,3.02,4.4-13.2,18.08-3.09-4.47ZM586.35,98.87l-3.57-4.81-3.51,4.81h7.08Z"/>
          <path class="cls-1" d="M637.85,75.23l3.02-4.4,13.27,18.01-3.09,4.47-13.2-18.08ZM641.77,69.59l2.82-3.78,10.52,14.43-2.82,3.64-10.52-14.3ZM645.41,64.51l2.54-3.3,6.94,9.69-2.47,3.23-7.01-9.62ZM649.95,94.06l-3.57,4.81h7.08l-3.51-4.81ZM648.78,59.97l6.74-9.21,6.6,9.28-6.67,9.28-6.67-9.35ZM655.86,80.18l10.52-14.43,2.82,3.78-10.52,14.3-2.82-3.64ZM656.06,70.83l6.94-9.69,2.54,3.3-7.01,9.62-2.47-3.23ZM656.82,88.77l13.26-18.01,3.02,4.4-13.2,18.08-3.09-4.47ZM664.52,98.87l-3.57-4.81-3.51,4.81h7.08Z"/>
          <path class="cls-1" d="M559.68,125.99l3.02-4.4,13.27,18.01-3.09,4.47-13.2-18.08ZM563.6,120.35l2.82-3.78,10.52,14.43-2.82,3.64-10.52-14.3ZM567.24,115.27l2.54-3.3,6.94,9.69-2.47,3.23-7.01-9.62ZM571.78,144.82l-3.57,4.81h7.08l-3.51-4.81ZM570.61,110.73l6.74-9.21,6.6,9.28-6.67,9.28-6.67-9.35ZM577.69,130.94l10.52-14.43,2.82,3.78-10.52,14.3-2.82-3.64ZM577.89,121.59l6.94-9.69,2.54,3.3-7.01,9.62-2.47-3.23ZM578.65,139.53l13.26-18.01,3.02,4.4-13.2,18.08-3.09-4.47ZM586.35,149.63l-3.57-4.81-3.51,4.81h7.08Z"/>
          <path class="cls-1" d="M598.76,125.99l3.02-4.4,13.27,18.01-3.09,4.47-13.2-18.08ZM602.68,120.35l2.82-3.78,10.52,14.43-2.82,3.64-10.52-14.3ZM606.32,115.27l2.54-3.3,6.94,9.69-2.47,3.23-7.01-9.62ZM610.86,144.82l-3.57,4.81h7.08l-3.51-4.81ZM609.69,110.73l6.74-9.21,6.6,9.28-6.67,9.28-6.67-9.35ZM616.77,130.94l10.52-14.43,2.82,3.78-10.52,14.3-2.82-3.64ZM616.98,121.59l6.94-9.69,2.54,3.3-7.01,9.62-2.47-3.23ZM617.73,139.53l13.26-18.01,3.02,4.4-13.2,18.08-3.09-4.47ZM625.43,149.63l-3.57-4.81-3.51,4.81h7.08Z"/>
          <path class="cls-1" d="M637.85,125.99l3.02-4.4,13.27,18.01-3.09,4.47-13.2-18.08ZM641.77,120.35l2.82-3.78,10.52,14.43-2.82,3.64-10.52-14.3ZM645.41,115.27l2.54-3.3,6.94,9.69-2.47,3.23-7.01-9.62ZM649.95,144.82l-3.57,4.81h7.08l-3.51-4.81ZM648.78,110.73l6.74-9.21,6.6,9.28-6.67,9.28-6.67-9.35ZM655.86,130.94l10.52-14.43,2.82,3.78-10.52,14.3-2.82-3.64ZM656.06,121.59l6.94-9.69,2.54,3.3-7.01,9.62-2.47-3.23ZM656.82,139.53l13.26-18.01,3.02,4.4-13.2,18.08-3.09-4.47ZM664.52,149.63l-3.57-4.81-3.51,4.81h7.08Z"/>
          <path class="cls-1" d="M559.68,176.75l3.02-4.4,13.27,18.01-3.09,4.47-13.2-18.08ZM563.6,171.11l2.82-3.78,10.52,14.43-2.82,3.64-10.52-14.3ZM567.24,166.02l2.54-3.3,6.94,9.69-2.47,3.23-7.01-9.62ZM571.78,195.58l-3.57,4.81h7.08l-3.51-4.81ZM570.61,161.49l6.74-9.21,6.6,9.28-6.67,9.28-6.67-9.35ZM577.69,181.7l10.52-14.43,2.82,3.78-10.52,14.3-2.82-3.64ZM577.89,172.35l6.94-9.69,2.54,3.3-7.01,9.62-2.47-3.23ZM578.65,190.29l13.26-18.01,3.02,4.4-13.2,18.08-3.09-4.47ZM586.35,200.39l-3.57-4.81-3.51,4.81h7.08Z"/>
          <path class="cls-1" d="M637.85,176.75l3.02-4.4,13.27,18.01-3.09,4.47-13.2-18.08ZM641.77,171.11l2.82-3.78,10.52,14.43-2.82,3.64-10.52-14.3ZM645.41,166.02l2.54-3.3,6.94,9.69-2.47,3.23-7.01-9.62ZM649.95,195.58l-3.57,4.81h7.08l-3.51-4.81ZM648.78,161.49l6.74-9.21,6.6,9.28-6.67,9.28-6.67-9.35ZM655.86,181.7l10.52-14.43,2.82,3.78-10.52,14.3-2.82-3.64ZM656.06,172.35l6.94-9.69,2.54,3.3-7.01,9.62-2.47-3.23ZM656.82,190.29l13.26-18.01,3.02,4.4-13.2,18.08-3.09-4.47ZM664.52,200.39l-3.57-4.81-3.51,4.81h7.08Z"/>
        </g>
        <g>
          <g>
            <path class="cls-1" d="M291.71,50.83h7.07l-3.5,4.8-3.57-4.8ZM302.76,50.83h7.07l-3.57,4.8-3.5-4.8Z"/>
            <path class="cls-1" d="M291.71,101.59h7.07l-3.5,4.8-3.57-4.8ZM302.76,101.59h7.07l-3.57,4.8-3.5-4.8Z"/>
            <path class="cls-1" d="M291.71,152.35h7.07l-3.5,4.8-3.57-4.8ZM302.76,152.35h7.07l-3.57,4.8-3.5-4.8ZM320.26,176.37l3.57,4.8h-7.07l3.5-4.8ZM316.76,171.56h7.07l-3.57,4.8-3.5-4.8Z"/>
            <path class="cls-1" d="M369.82,50.83h7.07l-3.5,4.8-3.57-4.8ZM380.87,50.83h7.07l-3.57,4.8-3.5-4.8Z"/>
            <path class="cls-1" d="M369.82,101.59h7.07l-3.5,4.8-3.57-4.8ZM380.87,101.59h7.07l-3.57,4.8-3.5-4.8Z"/>
            <path class="cls-1" d="M359.38,176.37l3.5,4.8h-7.07l3.57-4.8ZM355.82,171.56h7.07l-3.5,4.8-3.57-4.8ZM369.82,152.35h7.07l-3.5,4.8-3.57-4.8ZM380.87,152.35h7.07l-3.57,4.8-3.5-4.8Z"/>
          </g>
          <path class="cls-1" d="M283.14,24.47l3.02-4.4,13.27,18.01-3.09,4.47-13.2-18.08ZM287.06,18.83l2.82-3.78,10.52,14.43-2.82,3.64-10.52-14.3ZM290.7,13.75l2.54-3.3,6.94,9.69-2.47,3.23-7.01-9.62ZM295.24,43.3l-3.57,4.81h7.08l-3.51-4.81ZM294.07,9.21l6.74-9.21,6.6,9.28-6.67,9.28-6.67-9.35ZM301.15,29.42l10.52-14.43,2.82,3.78-10.52,14.3-2.82-3.64ZM301.36,20.07l6.94-9.69,2.54,3.3-7.01,9.62-2.47-3.23ZM302.11,38.01l13.26-18.01,3.02,4.4-13.2,18.08-3.09-4.47ZM309.81,48.11l-3.57-4.81-3.51,4.81h7.08Z"/>
          <path class="cls-1" d="M361.31,24.47l3.02-4.4,13.27,18.01-3.09,4.47-13.2-18.08ZM365.23,18.83l2.82-3.78,10.52,14.43-2.82,3.64-10.52-14.3ZM368.87,13.75l2.54-3.3,6.94,9.69-2.47,3.23-7.01-9.62ZM373.41,43.3l-3.57,4.81h7.08l-3.51-4.81ZM372.24,9.21l6.74-9.21,6.6,9.28-6.67,9.28-6.67-9.35ZM379.32,29.42l10.52-14.43,2.82,3.78-10.52,14.3-2.82-3.64ZM379.53,20.07l6.94-9.69,2.54,3.3-7.01,9.62-2.47-3.23ZM380.28,38.01l13.26-18.01,3.02,4.4-13.2,18.08-3.09-4.47ZM387.98,48.11l-3.57-4.81-3.51,4.81h7.08Z"/>
          <path class="cls-1" d="M283.14,75.23l3.02-4.4,13.27,18.01-3.09,4.47-13.2-18.08ZM287.06,69.59l2.82-3.78,10.52,14.43-2.82,3.64-10.52-14.3ZM290.7,64.51l2.54-3.3,6.94,9.69-2.47,3.23-7.01-9.62ZM295.24,94.06l-3.57,4.81h7.08l-3.51-4.81ZM294.07,59.97l6.74-9.21,6.6,9.28-6.67,9.28-6.67-9.35ZM301.15,80.18l10.52-14.43,2.82,3.78-10.52,14.3-2.82-3.64ZM301.36,70.83l6.94-9.69,2.54,3.3-7.01,9.62-2.47-3.23ZM302.11,88.77l13.26-18.01,3.02,4.4-13.2,18.08-3.09-4.47ZM309.81,98.87l-3.57-4.81-3.51,4.81h7.08Z"/>
          <path class="cls-1" d="M361.31,75.23l3.02-4.4,13.27,18.01-3.09,4.47-13.2-18.08ZM365.23,69.59l2.82-3.78,10.52,14.43-2.82,3.64-10.52-14.3ZM368.87,64.51l2.54-3.3,6.94,9.69-2.47,3.23-7.01-9.62ZM373.41,94.06l-3.57,4.81h7.08l-3.51-4.81ZM372.24,59.97l6.74-9.21,6.6,9.28-6.67,9.28-6.67-9.35ZM379.32,80.18l10.52-14.43,2.82,3.78-10.52,14.3-2.82-3.64ZM379.53,70.83l6.94-9.69,2.54,3.3-7.01,9.62-2.47-3.23ZM380.28,88.77l13.26-18.01,3.02,4.4-13.2,18.08-3.09-4.47ZM387.98,98.87l-3.57-4.81-3.51,4.81h7.08Z"/>
          <path class="cls-1" d="M283.14,125.99l3.02-4.4,13.27,18.01-3.09,4.47-13.2-18.08ZM287.06,120.35l2.82-3.78,10.52,14.43-2.82,3.64-10.52-14.3ZM290.7,115.27l2.54-3.3,6.94,9.69-2.47,3.23-7.01-9.62ZM295.24,144.82l-3.57,4.81h7.08l-3.51-4.81ZM294.07,110.73l6.74-9.21,6.6,9.28-6.67,9.28-6.67-9.35ZM301.15,130.94l10.52-14.43,2.82,3.78-10.52,14.3-2.82-3.64ZM301.36,121.59l6.94-9.69,2.54,3.3-7.01,9.62-2.47-3.23ZM302.11,139.53l13.26-18.01,3.02,4.4-13.2,18.08-3.09-4.47ZM309.81,149.63l-3.57-4.81-3.51,4.81h7.08Z"/>
          <path class="cls-1" d="M361.31,125.99l3.02-4.4,13.27,18.01-3.09,4.47-13.2-18.08ZM365.23,120.35l2.82-3.78,10.52,14.43-2.82,3.64-10.52-14.3ZM368.87,115.27l2.54-3.3,6.94,9.69-2.47,3.23-7.01-9.62ZM373.41,144.82l-3.57,4.81h7.08l-3.51-4.81ZM372.24,110.73l6.74-9.21,6.6,9.28-6.67,9.28-6.67-9.35ZM379.32,130.94l10.52-14.43,2.82,3.78-10.52,14.3-2.82-3.64ZM379.53,121.59l6.94-9.69,2.54,3.3-7.01,9.62-2.47-3.23ZM380.28,139.53l13.26-18.01,3.02,4.4-13.2,18.08-3.09-4.47ZM387.98,149.63l-3.57-4.81-3.51,4.81h7.08Z"/>
          <path class="cls-1" d="M283.14,176.75l3.02-4.4,13.27,18.01-3.09,4.47-13.2-18.08ZM287.06,171.11l2.82-3.78,10.52,14.43-2.82,3.64-10.52-14.3ZM290.7,166.02l2.54-3.3,6.94,9.69-2.47,3.23-7.01-9.62ZM295.24,195.58l-3.57,4.81h7.08l-3.51-4.81ZM294.07,161.49l6.74-9.21,6.6,9.28-6.67,9.28-6.67-9.35ZM301.15,181.7l10.52-14.43,2.82,3.78-10.52,14.3-2.82-3.64ZM301.36,172.35l6.94-9.69,2.54,3.3-7.01,9.62-2.47-3.23ZM302.11,190.29l13.26-18.01,3.02,4.4-13.2,18.08-3.09-4.47ZM309.81,200.39l-3.57-4.81-3.51,4.81h7.08Z"/>
          <path class="cls-1" d="M322.23,176.75l3.02-4.4,13.27,18.01-3.09,4.47-13.2-18.08ZM326.15,171.11l2.82-3.78,10.52,14.43-2.82,3.64-10.52-14.3ZM329.79,166.02l2.54-3.3,6.94,9.69-2.47,3.23-7.01-9.62ZM334.33,195.58l-3.57,4.81h7.08l-3.51-4.81ZM333.16,161.49l6.74-9.21,6.6,9.28-6.67,9.28-6.67-9.35ZM340.24,181.7l10.52-14.43,2.82,3.78-10.52,14.3-2.82-3.64ZM340.44,172.35l6.94-9.69,2.54,3.3-7.01,9.62-2.47-3.23ZM341.2,190.29l13.26-18.01,3.02,4.4-13.2,18.08-3.09-4.47ZM348.9,200.39l-3.57-4.81-3.51,4.81h7.08Z"/>
          <path class="cls-1" d="M361.31,176.75l3.02-4.4,13.27,18.01-3.09,4.47-13.2-18.08ZM365.23,171.11l2.82-3.78,10.52,14.43-2.82,3.64-10.52-14.3ZM368.87,166.02l2.54-3.3,6.94,9.69-2.47,3.23-7.01-9.62ZM373.41,195.58l-3.57,4.81h7.08l-3.51-4.81ZM372.24,161.49l6.74-9.21,6.6,9.28-6.67,9.28-6.67-9.35ZM379.32,181.7l10.52-14.43,2.82,3.78-10.52,14.3-2.82-3.64ZM379.53,172.35l6.94-9.69,2.54,3.3-7.01,9.62-2.47-3.23ZM380.28,190.29l13.26-18.01,3.02,4.4-13.2,18.08-3.09-4.47ZM387.98,200.39l-3.57-4.81-3.51,4.81h7.08Z"/>
        </g>
      </g>
      <g>
        <path class="cls-1" d="M2.71,240.12v-2.75H0v-5.53h2.71v-2.71h8.17v-2.65H2.71v-2.78h10.95v2.71h2.71v13.7H2.71ZM10.89,231.91h-5.39v5.43h5.39v-5.43Z"/>
        <path class="cls-1" d="M36.55,237.37v2.75h-8.21v-2.78h5.43v-2.68h-2.71v-2.71l-2.71-.03v-5.49h2.71v-2.71h8.24v2.78h-5.46v2.68h2.71v2.71l2.75-.03v5.53h-2.75Z"/>
        <path class="cls-1" d="M53.95,240.12v-2.75h-2.71v-5.53h2.71v-2.71h8.17v-2.65h-8.17v-2.78h10.95v2.71h2.71v13.7h-13.67ZM62.12,231.91h-5.39v5.43h5.39v-5.43Z"/>
        <path class="cls-1" d="M101.36,240.12v-13.63h-2.65v2.71h-2.75v10.92h-5.49v-13.63h-2.68v2.71h-2.71v10.92h-5.49v-16.41h5.49v2.71h2.68v-2.71h5.48v2.71h5.39v-2.71h5.48v2.71h2.74v13.7h-5.49Z"/>
        <path class="cls-1" d="M132.48,237.37v2.75h-13.67v-21.87h5.49v5.46h8.17v2.71h2.71v10.95h-2.71ZM129.7,226.49h-5.39v10.85h5.39v-10.85Z"/>
        <path class="cls-1" d="M147.16,240.12v-21.87h5.49v21.87h-5.49Z"/>
        <path class="cls-1" d="M178.26,237.37v2.75h-10.95v-2.75h-2.71v-10.95h2.71v-2.71h10.95v2.71h2.71v2.78h-2.71v2.71h-5.46v2.71h-2.71v2.71h8.11v-2.78h2.78v2.81h-2.71ZM175.48,226.49h-5.39v5.36h2.68v-2.68h2.71v-2.68Z"/>
        <path class="cls-1" d="M195.65,240.12v-2.75h-2.71v-5.53h2.71v-2.71h8.17v-2.65h-8.17v-2.78h10.95v2.71h2.71v13.7h-13.67ZM203.83,231.91h-5.39v5.43h5.39v-5.43Z"/>
        <path class="cls-1" d="M238.71,240.12v-2.75h-2.71v-10.95h2.71v-2.71h8.17v-5.46h5.49v21.87h-13.67ZM246.89,226.49h-5.39v10.85h5.39v-10.85Z"/>
        <path class="cls-1" d="M278.01,237.37v2.75h-10.95v-2.75h-2.71v-10.95h2.71v-2.71h10.95v2.71h2.71v2.78h-2.71v2.71h-5.46v2.71h-2.71v2.71h8.11v-2.78h2.78v2.81h-2.71ZM275.23,226.49h-5.39v5.36h2.68v-2.68h2.71v-2.68Z"/>
        <path class="cls-1" d="M329.18,240.12v-13.63h-2.65v2.71h-2.75v10.92h-5.49v-13.63h-2.68v2.71h-2.71v10.92h-5.49v-16.41h5.49v2.71h2.68v-2.71h5.48v2.71h5.39v-2.71h5.48v2.71h2.74v13.7h-5.49Z"/>
        <path class="cls-1" d="M360.31,237.37v2.75h-10.95v-2.75h-2.71v-13.67h5.49v13.63h5.39v-13.63h5.49v13.67h-2.71Z"/>
        <path class="cls-1" d="M385.88,240.12v-13.63h-2.68v2.71h-2.71v10.92h-5.49v-16.41h5.49v2.71h2.68v-2.71h5.49v2.71h2.71v13.7h-5.49Z"/>
        <path class="cls-1" d="M406.05,240.12v-2.75h-2.71v-10.95h2.71v-2.71h8.17v-5.46h5.49v21.87h-13.67ZM414.22,226.49h-5.39v10.85h5.39v-10.85Z"/>
        <path class="cls-1" d="M445.35,237.37v2.75h-10.95v-2.75h-2.71v-10.95h2.71v-2.71h10.95v2.71h2.71v10.95h-2.71ZM442.57,226.49h-5.39v10.85h5.39v-10.85Z"/>
        <path class="cls-1" d="M468.24,237.37v2.75h-8.21v-2.78h5.43v-2.68h-2.71v-2.71l-2.71-.03v-5.49h2.71v-2.71h8.24v2.78h-5.46v2.68h2.71v2.71l2.75-.03v5.53h-2.75Z"/>
        <path class="cls-1" d="M511.3,237.37v2.75h-8.17v5.46h-5.49v-21.87h13.67v2.71h2.71v10.95h-2.71ZM508.52,226.49h-5.39v10.85h5.39v-10.85Z"/>
        <path class="cls-1" d="M539.65,237.37v2.75h-10.95v-2.75h-2.71v-10.95h2.71v-2.71h10.95v2.71h2.71v10.95h-2.71ZM536.87,226.49h-5.39v10.85h5.39v-10.85Z"/>
        <path class="cls-1" d="M562.53,237.37v2.75h-8.21v-2.78h5.43v-2.68h-2.71v-2.71l-2.71-.03v-5.49h2.71v-2.71h8.24v2.78h-5.46v2.68h2.71v2.71l2.75-.03v5.53h-2.75Z"/>
        <path class="cls-1" d="M577.21,221.03v-2.78h5.49v2.78h-5.49ZM577.21,240.12v-16.41h5.49v16.41h-5.49Z"/>
        <path class="cls-1" d="M608.31,237.37v2.75h-13.67v-21.87h5.49v5.46h8.17v2.71h2.71v10.95h-2.71ZM605.53,226.49h-5.39v10.85h5.39v-10.85Z"/>
        <path class="cls-1" d="M622.99,240.12v-21.87h5.49v21.87h-5.49Z"/>
        <path class="cls-1" d="M654.08,237.37v2.75h-10.95v-2.75h-2.71v-10.95h2.71v-2.71h10.95v2.71h2.71v2.78h-2.71v2.71h-5.46v2.71h-2.71v2.71h8.11v-2.78h2.78v2.81h-2.71ZM651.3,226.49h-5.39v5.36h2.68v-2.68h2.71v-2.68Z"/>
        <path class="cls-1" d="M676.97,237.37v2.75h-8.21v-2.78h5.43v-2.68h-2.71v-2.71l-2.71-.03v-5.49h2.71v-2.71h8.24v2.78h-5.46v2.68h2.71v2.71l2.75-.03v5.53h-2.75Z"/>
      </g>
      <g>
        <path class="cls-1" d="M86.78,279.99v4.37h-4.39v-4.37h-6.54v-4.37h2.17v-4.39h2.22v4.42h-2.17v2.12h4.32v-10.91h4.39v10.91h2.17v2.22h-2.17Z"/>
        <path class="cls-1" d="M105.08,273.45v4.37h-2.18l.03,6.54h-4.39v-6.59h2.17v-4.37h2.17v-4.32h-6.54v-2.22h10.96v6.59h-2.21Z"/>
        <path class="cls-1" d="M135.17,282.16v2.2h-6.57v-2.22h4.34v-2.14h-2.17v-2.17l-2.17-.03v-4.39h2.17v-2.17h6.59v2.22h-4.37v2.14h2.17v2.17l2.2-.03v4.42h-2.2Z"/>
        <path class="cls-1" d="M149.08,284.36v-2.2h-2.17v-4.42h2.17v-2.17h6.54v-2.12h-6.54v-2.22h8.76v2.17h2.17v10.96h-10.93ZM155.62,277.79h-4.32v4.34h4.32v-4.34Z"/>
        <path class="cls-1" d="M169.59,284.36v-17.5h4.39v17.5h-4.39Z"/>
        <path class="cls-1" d="M194.47,282.16v2.2h-8.76v-2.2h-2.17v-8.76h2.17v-2.17h8.76v2.17h2.17v8.76h-2.17ZM190.1,266.91v2.17h-2.22v-2.22h2.2v-2.17h2.22v2.22h-2.2ZM192.24,273.45h-4.32v8.68h4.32v-8.68Z"/>
        <path class="cls-1" d="M214.92,284.36v-10.91h-2.14v2.17h-2.17v8.74h-4.39v-13.13h4.39v2.17h2.14v-2.17h4.39v2.17h2.17v10.96h-4.39Z"/>
        <path class="cls-1" d="M249.37,284.36v-10.91h-2.14v2.17h-2.17v8.74h-4.39v-13.13h4.39v2.17h2.14v-2.17h4.39v2.17h2.17v10.96h-4.39Z"/>
        <path class="cls-1" d="M265.51,284.36v-2.2h-2.17v-4.42h2.17v-2.17h6.54v-2.12h-6.54v-2.22h8.76v2.17h2.17v10.96h-10.93ZM272.05,277.79h-4.32v4.34h4.32v-4.34Z"/>
        <path class="cls-1" d="M294.78,282.16v2.2h-6.59v-2.2h-2.17v-8.76h2.17v-2.17h8.76v4.39h-2.22v-2.17h-4.32v8.68h4.32v-2.22h2.22v2.25h-2.17Z"/>
        <path class="cls-1" d="M306.5,269.08v-2.22h4.39v2.22h-4.39ZM306.5,284.36v-13.13h4.39v13.13h-4.39Z"/>
        <path class="cls-1" d="M331.37,282.16v2.2h-8.76v-2.2h-2.17v-8.76h2.17v-2.17h8.76v2.17h2.17v8.76h-2.17ZM329.15,273.45h-4.32v8.68h4.32v-8.68Z"/>
        <path class="cls-1" d="M351.82,284.36v-10.91h-2.14v2.17h-2.17v8.74h-4.39v-13.13h4.39v2.17h2.14v-2.17h4.39v2.17h2.17v10.96h-4.39Z"/>
        <path class="cls-1" d="M367.96,284.36v-2.2h-2.17v-4.42h2.17v-2.17h6.54v-2.12h-6.54v-2.22h8.76v2.17h2.17v10.96h-10.93ZM374.5,277.79h-4.32v4.34h4.32v-4.34Z"/>
        <path class="cls-1" d="M388.47,284.36v-17.5h4.39v17.5h-4.39Z"/>
        <path class="cls-1" d="M416.35,284.36v-2.2h-2.17v-8.76h2.17v-2.17h6.54v-4.37h4.39v17.5h-10.93ZM422.89,273.45h-4.32v8.68h4.32v-8.68Z"/>
        <path class="cls-1" d="M447.79,282.16v2.2h-8.76v-2.2h-2.17v-8.76h2.17v-2.17h8.76v2.17h2.17v2.22h-2.17v2.17h-4.37v2.17h-2.17v2.17h6.49v-2.22h2.22v2.25h-2.17ZM445.57,273.45h-4.32v4.29h2.14v-2.14h2.17v-2.14Z"/>
        <path class="cls-1" d="M473.48,284.36v-2.2h-2.17v-4.42h2.17v-2.17h6.54v-2.12h-6.54v-2.22h8.76v2.17h2.17v10.96h-10.93ZM480.02,277.79h-4.32v4.34h4.32v-4.34Z"/>
        <path class="cls-1" d="M498.38,275.62v8.74h-4.39v-13.13h4.39v2.17h2.14v-2.17h2.22v4.39h-4.37Z"/>
        <path class="cls-1" d="M516.69,273.45v10.91h-4.39v-10.91h-2.2v-2.22h2.2v-4.37h4.39v4.37h2.17v2.22h-2.17Z"/>
        <path class="cls-1" d="M526.24,269.08v-2.22h4.39v2.22h-4.39ZM526.24,284.36v-13.13h4.39v13.13h-4.39Z"/>
        <path class="cls-1" d="M546.74,282.16v2.2h-6.57v-2.22h4.34v-2.14h-2.17v-2.17l-2.17-.03v-4.39h2.17v-2.17h6.59v2.22h-4.37v2.14h2.17v2.17l2.2-.03v4.42h-2.2Z"/>
        <path class="cls-1" d="M562.88,273.45v10.91h-4.39v-10.91h-2.2v-2.22h2.2v-4.37h4.39v4.37h2.17v2.22h-2.17Z"/>
        <path class="cls-1" d="M574.6,284.36v-2.2h-2.17v-4.42h2.17v-2.17h6.54v-2.12h-6.54v-2.22h8.76v2.17h2.17v10.96h-10.93ZM581.14,277.79h-4.32v4.34h4.32v-4.34Z"/>
        <path class="cls-1" d="M601.67,282.16v2.2h-6.57v-2.22h4.34v-2.14h-2.17v-2.17l-2.17-.03v-4.39h2.17v-2.17h6.59v2.22h-4.37v2.14h2.17v2.17l2.2-.03v4.42h-2.2Z"/>
      </g>
    </g>
  </g>
</svg>