<?xml version="1.0" encoding="UTF-8"?>
<svg id="Layer_2" data-name="Layer 2" xmlns="http://www.w3.org/2000/svg" viewBox="0 0 638.89 267.26">
  <defs>
    <style>
      .cls-1 {
        fill: #fff;
      }
    </style>
  </defs>
  <g id="Contenido">
    <g>
      <path class="cls-1" d="M132.31,22.64l3.29,4.52h-6.64l3.35-4.52ZM128.95,18.13h6.64l-3.29,4.52-3.35-4.52ZM135.6,27.16l3.29,4.52h-6.64l3.35-4.52ZM132.24,13.61h6.64l-3.29,4.52-3.35-4.52ZM134.82,23.29h31.61l-2.26,3.16h-27.09l-2.26-3.16ZM134.82,21.93l2.26-3.16h27.09l2.26,3.16h-31.61ZM138.89,31.67l3.29,4.52h-6.64l3.35-4.52ZM135.53,9.1h6.64l-3.29,4.52-3.35-4.52ZM138.05,27.8l25.16.06-2.32,3.16v.06l-20.51-.06-2.32-3.23ZM138.05,17.42l2.32-3.23,20.51-.06v.06l2.32,3.16-25.16.06ZM142.18,36.19l3.29,4.52h-6.64l3.35-4.52ZM138.82,4.58h6.64l-3.29,4.52-3.35-4.52ZM141.34,32.32h18.64l-2.32,3.23h-14l-2.32-3.23ZM141.34,12.9l2.32-3.23h14l2.32,3.23h-18.64ZM145.47,40.71l3.29,4.52h-6.64l3.35-4.52ZM142.11.06h6.64l-3.29,4.52-3.35-4.52ZM144.63,36.84h12.06l-2.32,3.23h-7.42l-2.32-3.23ZM144.63,8.39l2.32-3.23h7.42l2.32,3.23h-12.06ZM147.86,41.35h5.61l-2.77,3.87-2.84-3.87ZM147.86,3.87l2.84-3.87,2.77,3.87h-5.61ZM155.79,40.71l3.35,4.52h-6.64l3.29-4.52ZM152.5.06h6.64l-3.35,4.52-3.29-4.52ZM159.08,36.19l3.35,4.52h-6.64l3.29-4.52ZM155.79,4.58h6.64l-3.35,4.52-3.29-4.52ZM162.37,31.67l3.35,4.52h-6.64l3.29-4.52ZM159.08,9.1h6.64l-3.35,4.52-3.29-4.52ZM165.66,27.16l3.35,4.52h-6.64l3.29-4.52ZM162.37,13.61h6.64l-3.35,4.52-3.29-4.52ZM168.95,22.64l3.35,4.52h-6.64l3.29-4.52ZM165.66,18.13h6.64l-3.35,4.52-3.29-4.52Z"/>
      <path class="cls-1" d="M132.31,70.35l3.29,4.52h-6.64l3.35-4.52ZM128.95,65.84h6.64l-3.29,4.52-3.35-4.52ZM135.6,74.87l3.29,4.52h-6.64l3.35-4.52ZM132.24,61.32h6.64l-3.29,4.52-3.35-4.52ZM134.82,71h31.61l-2.26,3.16h-27.09l-2.26-3.16ZM134.82,69.64l2.26-3.16h27.09l2.26,3.16h-31.61ZM138.89,79.39l3.29,4.52h-6.64l3.35-4.52ZM135.53,56.81h6.64l-3.29,4.52-3.35-4.52ZM138.05,75.51l25.16.06-2.32,3.16v.06l-20.51-.06-2.32-3.23ZM138.05,65.13l2.32-3.23,20.51-.06v.06l2.32,3.16-25.16.06ZM142.18,83.9l3.29,4.52h-6.64l3.35-4.52ZM138.82,52.29h6.64l-3.29,4.52-3.35-4.52ZM141.34,80.03h18.64l-2.32,3.23h-14l-2.32-3.23ZM141.34,60.61l2.32-3.23h14l2.32,3.23h-18.64ZM145.47,88.42l3.29,4.52h-6.64l3.35-4.52ZM142.11,47.78h6.64l-3.29,4.52-3.35-4.52ZM144.63,84.55h12.06l-2.32,3.23h-7.42l-2.32-3.23ZM144.63,56.1l2.32-3.23h7.42l2.32,3.23h-12.06ZM147.86,89.06h5.61l-2.77,3.87-2.84-3.87ZM147.86,51.58l2.84-3.87,2.77,3.87h-5.61ZM155.79,88.42l3.35,4.52h-6.64l3.29-4.52ZM152.5,47.78h6.64l-3.35,4.52-3.29-4.52ZM159.08,83.9l3.35,4.52h-6.64l3.29-4.52ZM155.79,52.29h6.64l-3.35,4.52-3.29-4.52ZM162.37,79.39l3.35,4.52h-6.64l3.29-4.52ZM159.08,56.81h6.64l-3.35,4.52-3.29-4.52ZM165.66,74.87l3.35,4.52h-6.64l3.29-4.52ZM162.37,61.32h6.64l-3.35,4.52-3.29-4.52ZM168.95,70.35l3.35,4.52h-6.64l3.29-4.52ZM165.66,65.84h6.64l-3.35,4.52-3.29-4.52Z"/>
      <path class="cls-1" d="M132.31,118.07l3.29,4.52h-6.64l3.35-4.52ZM128.95,113.55h6.64l-3.29,4.52-3.35-4.52ZM135.6,122.58l3.29,4.52h-6.64l3.35-4.52ZM132.24,109.03h6.64l-3.29,4.52-3.35-4.52ZM134.82,118.71h31.61l-2.26,3.16h-27.09l-2.26-3.16ZM134.82,117.36l2.26-3.16h27.09l2.26,3.16h-31.61ZM138.89,127.1l3.29,4.52h-6.64l3.35-4.52ZM135.53,104.52h6.64l-3.29,4.52-3.35-4.52ZM138.05,123.23l25.16.06-2.32,3.16v.06l-20.51-.06-2.32-3.23ZM138.05,112.84l2.32-3.23,20.51-.06v.06l2.32,3.16-25.16.06ZM142.18,131.61l3.29,4.52h-6.64l3.35-4.52ZM138.82,100h6.64l-3.29,4.52-3.35-4.52ZM141.34,127.74h18.64l-2.32,3.23h-14l-2.32-3.23ZM141.34,108.32l2.32-3.23h14l2.32,3.23h-18.64ZM145.47,136.13l3.29,4.52h-6.64l3.35-4.52ZM142.11,95.49h6.64l-3.29,4.52-3.35-4.52ZM144.63,132.26h12.06l-2.32,3.23h-7.42l-2.32-3.23ZM144.63,103.81l2.32-3.23h7.42l2.32,3.23h-12.06ZM147.86,136.77h5.61l-2.77,3.87-2.84-3.87ZM147.86,99.29l2.84-3.87,2.77,3.87h-5.61ZM155.79,136.13l3.35,4.52h-6.64l3.29-4.52ZM152.5,95.49h6.64l-3.35,4.52-3.29-4.52ZM159.08,131.61l3.35,4.52h-6.64l3.29-4.52ZM155.79,100h6.64l-3.35,4.52-3.29-4.52ZM162.37,127.1l3.35,4.52h-6.64l3.29-4.52ZM159.08,104.52h6.64l-3.35,4.52-3.29-4.52ZM165.66,122.58l3.35,4.52h-6.64l3.29-4.52ZM162.37,109.03h6.64l-3.35,4.52-3.29-4.52ZM168.95,118.07l3.35,4.52h-6.64l3.29-4.52ZM165.66,113.55h6.64l-3.35,4.52-3.29-4.52Z"/>
      <path class="cls-1" d="M132.31,165.78l3.29,4.52h-6.64l3.35-4.52ZM128.95,161.26h6.64l-3.29,4.52-3.35-4.52ZM135.6,170.29l3.29,4.52h-6.64l3.35-4.52ZM132.24,156.74h6.64l-3.29,4.52-3.35-4.52ZM134.82,166.42h31.61l-2.26,3.16h-27.09l-2.26-3.16ZM134.82,165.07l2.26-3.16h27.09l2.26,3.16h-31.61ZM138.89,174.81l3.29,4.52h-6.64l3.35-4.52ZM135.53,152.23h6.64l-3.29,4.52-3.35-4.52ZM138.05,170.94l25.16.06-2.32,3.16v.06l-20.51-.06-2.32-3.23ZM138.05,160.55l2.32-3.23,20.51-.06v.06l2.32,3.16-25.16.06ZM142.18,179.32l3.29,4.52h-6.64l3.35-4.52ZM138.82,147.71h6.64l-3.29,4.52-3.35-4.52ZM141.34,175.45h18.64l-2.32,3.23h-14l-2.32-3.23ZM141.34,156.04l2.32-3.23h14l2.32,3.23h-18.64ZM145.47,183.84l3.29,4.52h-6.64l3.35-4.52ZM142.11,143.2h6.64l-3.29,4.52-3.35-4.52ZM144.63,179.97h12.06l-2.32,3.23h-7.42l-2.32-3.23ZM144.63,151.52l2.32-3.23h7.42l2.32,3.23h-12.06ZM147.86,184.48h5.61l-2.77,3.87-2.84-3.87ZM147.86,147l2.84-3.87,2.77,3.87h-5.61ZM155.79,183.84l3.35,4.52h-6.64l3.29-4.52ZM152.5,143.2h6.64l-3.35,4.52-3.29-4.52ZM159.08,179.32l3.35,4.52h-6.64l3.29-4.52ZM155.79,147.71h6.64l-3.35,4.52-3.29-4.52ZM162.37,174.81l3.35,4.52h-6.64l3.29-4.52ZM159.08,152.23h6.64l-3.35,4.52-3.29-4.52ZM165.66,170.29l3.35,4.52h-6.64l3.29-4.52ZM162.37,156.74h6.64l-3.35,4.52-3.29-4.52ZM168.95,165.78l3.35,4.52h-6.64l3.29-4.52ZM165.66,161.26h6.64l-3.35,4.52-3.29-4.52Z"/>
      <path class="cls-1" d="M169.01,22.64l3.29,4.52h-6.64l3.35-4.52ZM165.66,18.13h6.64l-3.29,4.52-3.35-4.52ZM172.3,27.16l3.29,4.52h-6.64l3.35-4.52ZM168.95,13.61h6.64l-3.29,4.52-3.35-4.52ZM171.53,23.29h31.61l-2.26,3.16h-27.09l-2.26-3.16ZM171.53,21.93l2.26-3.16h27.09l2.26,3.16h-31.61ZM175.59,31.67l3.29,4.52h-6.64l3.35-4.52ZM172.24,9.1h6.64l-3.29,4.52-3.35-4.52ZM174.76,27.8l25.16.06-2.32,3.16v.06l-20.51-.06-2.32-3.23ZM174.76,17.42l2.32-3.23,20.51-.06v.06l2.32,3.16-25.16.06ZM178.88,36.19l3.29,4.52h-6.64l3.35-4.52ZM175.53,4.58h6.64l-3.29,4.52-3.35-4.52ZM178.05,32.32h18.64l-2.32,3.23h-14l-2.32-3.23ZM178.05,12.9l2.32-3.23h14l2.32,3.23h-18.64ZM182.17,40.71l3.29,4.52h-6.64l3.35-4.52ZM178.82.06h6.64l-3.29,4.52-3.35-4.52ZM181.34,36.84h12.06l-2.32,3.23h-7.42l-2.32-3.23ZM181.34,8.39l2.32-3.23h7.42l2.32,3.23h-12.06ZM184.56,41.35h5.61l-2.77,3.87-2.84-3.87ZM184.56,3.87l2.84-3.87,2.77,3.87h-5.61ZM192.5,40.71l3.35,4.52h-6.64l3.29-4.52ZM189.21.06h6.64l-3.35,4.52-3.29-4.52ZM195.79,36.19l3.35,4.52h-6.64l3.29-4.52ZM192.5,4.58h6.64l-3.35,4.52-3.29-4.52ZM199.08,31.67l3.35,4.52h-6.64l3.29-4.52ZM195.79,9.1h6.64l-3.35,4.52-3.29-4.52ZM202.37,27.16l3.35,4.52h-6.64l3.29-4.52ZM199.08,13.61h6.64l-3.35,4.52-3.29-4.52ZM205.66,22.64l3.35,4.52h-6.64l3.29-4.52ZM202.37,18.13h6.64l-3.35,4.52-3.29-4.52Z"/>
      <path class="cls-1" d="M169.01,118.07l3.29,4.52h-6.64l3.35-4.52ZM165.66,113.55h6.64l-3.29,4.52-3.35-4.52ZM172.3,122.58l3.29,4.52h-6.64l3.35-4.52ZM168.95,109.03h6.64l-3.29,4.52-3.35-4.52ZM171.53,118.71h31.61l-2.26,3.16h-27.09l-2.26-3.16ZM171.53,117.36l2.26-3.16h27.09l2.26,3.16h-31.61ZM175.59,127.1l3.29,4.52h-6.64l3.35-4.52ZM172.24,104.52h6.64l-3.29,4.52-3.35-4.52ZM174.76,123.23l25.16.06-2.32,3.16v.06l-20.51-.06-2.32-3.23ZM174.76,112.84l2.32-3.23,20.51-.06v.06l2.32,3.16-25.16.06ZM178.88,131.61l3.29,4.52h-6.64l3.35-4.52ZM175.53,100h6.64l-3.29,4.52-3.35-4.52ZM178.05,127.74h18.64l-2.32,3.23h-14l-2.32-3.23ZM178.05,108.32l2.32-3.23h14l2.32,3.23h-18.64ZM182.17,136.13l3.29,4.52h-6.64l3.35-4.52ZM178.82,95.49h6.64l-3.29,4.52-3.35-4.52ZM181.34,132.26h12.06l-2.32,3.23h-7.42l-2.32-3.23ZM181.34,103.81l2.32-3.23h7.42l2.32,3.23h-12.06ZM184.56,136.77h5.61l-2.77,3.87-2.84-3.87ZM184.56,99.29l2.84-3.87,2.77,3.87h-5.61ZM192.5,136.13l3.35,4.52h-6.64l3.29-4.52ZM189.21,95.49h6.64l-3.35,4.52-3.29-4.52ZM195.79,131.61l3.35,4.52h-6.64l3.29-4.52ZM192.5,100h6.64l-3.35,4.52-3.29-4.52ZM199.08,127.1l3.35,4.52h-6.64l3.29-4.52ZM195.79,104.52h6.64l-3.35,4.52-3.29-4.52ZM202.37,122.58l3.35,4.52h-6.64l3.29-4.52ZM199.08,109.03h6.64l-3.35,4.52-3.29-4.52ZM205.66,118.07l3.35,4.52h-6.64l3.29-4.52ZM202.37,113.55h6.64l-3.35,4.52-3.29-4.52Z"/>
      <path class="cls-1" d="M205.72,22.64l3.29,4.52h-6.64l3.35-4.52ZM202.37,18.13h6.64l-3.29,4.52-3.35-4.52ZM209.01,27.16l3.29,4.52h-6.64l3.35-4.52ZM205.66,13.61h6.64l-3.29,4.52-3.35-4.52ZM208.24,23.29h31.61l-2.26,3.16h-27.09l-2.26-3.16ZM208.24,21.93l2.26-3.16h27.09l2.26,3.16h-31.61ZM212.3,31.67l3.29,4.52h-6.64l3.35-4.52ZM208.95,9.1h6.64l-3.29,4.52-3.35-4.52ZM211.46,27.8l25.16.06-2.32,3.16v.06l-20.51-.06-2.32-3.23ZM211.46,17.42l2.32-3.23,20.51-.06v.06l2.32,3.16-25.16.06ZM215.59,36.19l3.29,4.52h-6.64l3.35-4.52ZM212.24,4.58h6.64l-3.29,4.52-3.35-4.52ZM214.75,32.32h18.64l-2.32,3.23h-14l-2.32-3.23ZM214.75,12.9l2.32-3.23h14l2.32,3.23h-18.64ZM218.88,40.71l3.29,4.52h-6.64l3.35-4.52ZM215.53.06h6.64l-3.29,4.52-3.35-4.52ZM218.04,36.84h12.06l-2.32,3.23h-7.42l-2.32-3.23ZM218.04,8.39l2.32-3.23h7.42l2.32,3.23h-12.06ZM221.27,41.35h5.61l-2.77,3.87-2.84-3.87ZM221.27,3.87l2.84-3.87,2.77,3.87h-5.61ZM229.2,40.71l3.35,4.52h-6.64l3.29-4.52ZM225.91.06h6.64l-3.35,4.52-3.29-4.52ZM232.49,36.19l3.35,4.52h-6.64l3.29-4.52ZM229.2,4.58h6.64l-3.35,4.52-3.29-4.52ZM235.78,31.67l3.35,4.52h-6.64l3.29-4.52ZM232.49,9.1h6.64l-3.35,4.52-3.29-4.52ZM239.07,27.16l3.35,4.52h-6.64l3.29-4.52ZM235.78,13.61h6.64l-3.35,4.52-3.29-4.52ZM242.36,22.64l3.35,4.52h-6.64l3.29-4.52ZM239.07,18.13h6.64l-3.35,4.52-3.29-4.52Z"/>
      <path class="cls-1" d="M205.72,70.35l3.29,4.52h-6.64l3.35-4.52ZM202.37,65.84h6.64l-3.29,4.52-3.35-4.52ZM209.01,74.87l3.29,4.52h-6.64l3.35-4.52ZM205.66,61.32h6.64l-3.29,4.52-3.35-4.52ZM208.24,71h31.61l-2.26,3.16h-27.09l-2.26-3.16ZM208.24,69.64l2.26-3.16h27.09l2.26,3.16h-31.61ZM212.3,79.39l3.29,4.52h-6.64l3.35-4.52ZM208.95,56.81h6.64l-3.29,4.52-3.35-4.52ZM211.46,75.51l25.16.06-2.32,3.16v.06l-20.51-.06-2.32-3.23ZM211.46,65.13l2.32-3.23,20.51-.06v.06l2.32,3.16-25.16.06ZM215.59,83.9l3.29,4.52h-6.64l3.35-4.52ZM212.24,52.29h6.64l-3.29,4.52-3.35-4.52ZM214.75,80.03h18.64l-2.32,3.23h-14l-2.32-3.23ZM214.75,60.61l2.32-3.23h14l2.32,3.23h-18.64ZM218.88,88.42l3.29,4.52h-6.64l3.35-4.52ZM215.53,47.78h6.64l-3.29,4.52-3.35-4.52ZM218.04,84.55h12.06l-2.32,3.23h-7.42l-2.32-3.23ZM218.04,56.1l2.32-3.23h7.42l2.32,3.23h-12.06ZM221.27,89.06h5.61l-2.77,3.87-2.84-3.87ZM221.27,51.58l2.84-3.87,2.77,3.87h-5.61ZM229.2,88.42l3.35,4.52h-6.64l3.29-4.52ZM225.91,47.78h6.64l-3.35,4.52-3.29-4.52ZM232.49,83.9l3.35,4.52h-6.64l3.29-4.52ZM229.2,52.29h6.64l-3.35,4.52-3.29-4.52ZM235.78,79.39l3.35,4.52h-6.64l3.29-4.52ZM232.49,56.81h6.64l-3.35,4.52-3.29-4.52ZM239.07,74.87l3.35,4.52h-6.64l3.29-4.52ZM235.78,61.32h6.64l-3.35,4.52-3.29-4.52ZM242.36,70.35l3.35,4.52h-6.64l3.29-4.52ZM239.07,65.84h6.64l-3.35,4.52-3.29-4.52Z"/>
      <path class="cls-1" d="M205.72,118.07l3.29,4.52h-6.64l3.35-4.52ZM202.37,113.55h6.64l-3.29,4.52-3.35-4.52ZM209.01,122.58l3.29,4.52h-6.64l3.35-4.52ZM205.66,109.03h6.64l-3.29,4.52-3.35-4.52ZM208.24,118.71h31.61l-2.26,3.16h-27.09l-2.26-3.16ZM208.24,117.36l2.26-3.16h27.09l2.26,3.16h-31.61ZM212.3,127.1l3.29,4.52h-6.64l3.35-4.52ZM208.95,104.52h6.64l-3.29,4.52-3.35-4.52ZM211.46,123.23l25.16.06-2.32,3.16v.06l-20.51-.06-2.32-3.23ZM211.46,112.84l2.32-3.23,20.51-.06v.06l2.32,3.16-25.16.06ZM215.59,131.61l3.29,4.52h-6.64l3.35-4.52ZM212.24,100h6.64l-3.29,4.52-3.35-4.52ZM214.75,127.74h18.64l-2.32,3.23h-14l-2.32-3.23ZM214.75,108.32l2.32-3.23h14l2.32,3.23h-18.64ZM218.88,136.13l3.29,4.52h-6.64l3.35-4.52ZM215.53,95.49h6.64l-3.29,4.52-3.35-4.52ZM218.04,132.26h12.06l-2.32,3.23h-7.42l-2.32-3.23ZM218.04,103.81l2.32-3.23h7.42l2.32,3.23h-12.06ZM221.27,136.77h5.61l-2.77,3.87-2.84-3.87ZM221.27,99.29l2.84-3.87,2.77,3.87h-5.61ZM229.2,136.13l3.35,4.52h-6.64l3.29-4.52ZM225.91,95.49h6.64l-3.35,4.52-3.29-4.52ZM232.49,131.61l3.35,4.52h-6.64l3.29-4.52ZM229.2,100h6.64l-3.35,4.52-3.29-4.52ZM235.78,127.1l3.35,4.52h-6.64l3.29-4.52ZM232.49,104.52h6.64l-3.35,4.52-3.29-4.52ZM239.07,122.58l3.35,4.52h-6.64l3.29-4.52ZM235.78,109.03h6.64l-3.35,4.52-3.29-4.52ZM242.36,118.07l3.35,4.52h-6.64l3.29-4.52ZM239.07,113.55h6.64l-3.35,4.52-3.29-4.52Z"/>
      <path class="cls-1" d="M205.72,165.78l3.29,4.52h-6.64l3.35-4.52ZM202.37,161.26h6.64l-3.29,4.52-3.35-4.52ZM209.01,170.29l3.29,4.52h-6.64l3.35-4.52ZM205.66,156.74h6.64l-3.29,4.52-3.35-4.52ZM208.24,166.42h31.61l-2.26,3.16h-27.09l-2.26-3.16ZM208.24,165.07l2.26-3.16h27.09l2.26,3.16h-31.61ZM212.3,174.81l3.29,4.52h-6.64l3.35-4.52ZM208.95,152.23h6.64l-3.29,4.52-3.35-4.52ZM211.46,170.94l25.16.06-2.32,3.16v.06l-20.51-.06-2.32-3.23ZM211.46,160.55l2.32-3.23,20.51-.06v.06l2.32,3.16-25.16.06ZM215.59,179.32l3.29,4.52h-6.64l3.35-4.52ZM212.24,147.71h6.64l-3.29,4.52-3.35-4.52ZM214.75,175.45h18.64l-2.32,3.23h-14l-2.32-3.23ZM214.75,156.04l2.32-3.23h14l2.32,3.23h-18.64ZM218.88,183.84l3.29,4.52h-6.64l3.35-4.52ZM215.53,143.2h6.64l-3.29,4.52-3.35-4.52ZM218.04,179.97h12.06l-2.32,3.23h-7.42l-2.32-3.23ZM218.04,151.52l2.32-3.23h7.42l2.32,3.23h-12.06ZM221.27,184.48h5.61l-2.77,3.87-2.84-3.87ZM221.27,147l2.84-3.87,2.77,3.87h-5.61ZM229.2,183.84l3.35,4.52h-6.64l3.29-4.52ZM225.91,143.2h6.64l-3.35,4.52-3.29-4.52ZM232.49,179.32l3.35,4.52h-6.64l3.29-4.52ZM229.2,147.71h6.64l-3.35,4.52-3.29-4.52ZM235.78,174.81l3.35,4.52h-6.64l3.29-4.52ZM232.49,152.23h6.64l-3.35,4.52-3.29-4.52ZM239.07,170.29l3.35,4.52h-6.64l3.29-4.52ZM235.78,156.74h6.64l-3.35,4.52-3.29-4.52ZM242.36,165.78l3.35,4.52h-6.64l3.29-4.52ZM239.07,161.26h6.64l-3.35,4.52-3.29-4.52Z"/>
      <path class="cls-1" d="M264.42,22.64l3.29,4.52h-6.64l3.35-4.52ZM261.06,18.13h6.64l-3.29,4.52-3.35-4.52ZM267.71,27.16l3.29,4.52h-6.64l3.35-4.52ZM264.35,13.61h6.64l-3.29,4.52-3.35-4.52ZM266.94,23.29h31.61l-2.26,3.16h-27.09l-2.26-3.16ZM266.94,21.93l2.26-3.16h27.09l2.26,3.16h-31.61ZM271,31.67l3.29,4.52h-6.64l3.35-4.52ZM267.64,9.1h6.64l-3.29,4.52-3.35-4.52ZM270.16,27.8l25.16.06-2.32,3.16v.06l-20.51-.06-2.32-3.23ZM270.16,17.42l2.32-3.23,20.51-.06v.06l2.32,3.16-25.16.06ZM274.29,36.19l3.29,4.52h-6.64l3.35-4.52ZM270.93,4.58h6.64l-3.29,4.52-3.35-4.52ZM273.45,32.32h18.64l-2.32,3.23h-14l-2.32-3.23ZM273.45,12.9l2.32-3.23h14l2.32,3.23h-18.64ZM277.58,40.71l3.29,4.52h-6.64l3.35-4.52ZM274.22.06h6.64l-3.29,4.52-3.35-4.52ZM276.74,36.84h12.06l-2.32,3.23h-7.42l-2.32-3.23ZM276.74,8.39l2.32-3.23h7.42l2.32,3.23h-12.06ZM279.97,41.35h5.61l-2.77,3.87-2.84-3.87ZM279.97,3.87l2.84-3.87,2.77,3.87h-5.61ZM287.9,40.71l3.35,4.52h-6.64l3.29-4.52ZM284.61.06h6.64l-3.35,4.52-3.29-4.52ZM291.19,36.19l3.35,4.52h-6.64l3.29-4.52ZM287.9,4.58h6.64l-3.35,4.52-3.29-4.52ZM294.48,31.67l3.35,4.52h-6.64l3.29-4.52ZM291.19,9.1h6.64l-3.35,4.52-3.29-4.52ZM297.77,27.16l3.35,4.52h-6.64l3.29-4.52ZM294.48,13.61h6.64l-3.35,4.52-3.29-4.52ZM301.06,22.64l3.35,4.52h-6.64l3.29-4.52ZM297.77,18.13h6.64l-3.35,4.52-3.29-4.52Z"/>
      <path class="cls-1" d="M264.42,70.35l3.29,4.52h-6.64l3.35-4.52ZM261.06,65.84h6.64l-3.29,4.52-3.35-4.52ZM267.71,74.87l3.29,4.52h-6.64l3.35-4.52ZM264.35,61.32h6.64l-3.29,4.52-3.35-4.52ZM266.94,71h31.61l-2.26,3.16h-27.09l-2.26-3.16ZM266.94,69.64l2.26-3.16h27.09l2.26,3.16h-31.61ZM271,79.39l3.29,4.52h-6.64l3.35-4.52ZM267.64,56.81h6.64l-3.29,4.52-3.35-4.52ZM270.16,75.51l25.16.06-2.32,3.16v.06l-20.51-.06-2.32-3.23ZM270.16,65.13l2.32-3.23,20.51-.06v.06l2.32,3.16-25.16.06ZM274.29,83.9l3.29,4.52h-6.64l3.35-4.52ZM270.93,52.29h6.64l-3.29,4.52-3.35-4.52ZM273.45,80.03h18.64l-2.32,3.23h-14l-2.32-3.23ZM273.45,60.61l2.32-3.23h14l2.32,3.23h-18.64ZM277.58,88.42l3.29,4.52h-6.64l3.35-4.52ZM274.22,47.78h6.64l-3.29,4.52-3.35-4.52ZM276.74,84.55h12.06l-2.32,3.23h-7.42l-2.32-3.23ZM276.74,56.1l2.32-3.23h7.42l2.32,3.23h-12.06ZM279.97,89.06h5.61l-2.77,3.87-2.84-3.87ZM279.97,51.58l2.84-3.87,2.77,3.87h-5.61ZM287.9,88.42l3.35,4.52h-6.64l3.29-4.52ZM284.61,47.78h6.64l-3.35,4.52-3.29-4.52ZM291.19,83.9l3.35,4.52h-6.64l3.29-4.52ZM287.9,52.29h6.64l-3.35,4.52-3.29-4.52ZM294.48,79.39l3.35,4.52h-6.64l3.29-4.52ZM291.19,56.81h6.64l-3.35,4.52-3.29-4.52ZM297.77,74.87l3.35,4.52h-6.64l3.29-4.52ZM294.48,61.32h6.64l-3.35,4.52-3.29-4.52ZM301.06,70.35l3.35,4.52h-6.64l3.29-4.52ZM297.77,65.84h6.64l-3.35,4.52-3.29-4.52Z"/>
      <path class="cls-1" d="M264.42,118.07l3.29,4.52h-6.64l3.35-4.52ZM261.06,113.55h6.64l-3.29,4.52-3.35-4.52ZM267.71,122.58l3.29,4.52h-6.64l3.35-4.52ZM264.35,109.03h6.64l-3.29,4.52-3.35-4.52ZM266.94,118.71h31.61l-2.26,3.16h-27.09l-2.26-3.16ZM266.94,117.36l2.26-3.16h27.09l2.26,3.16h-31.61ZM271,127.1l3.29,4.52h-6.64l3.35-4.52ZM267.64,104.52h6.64l-3.29,4.52-3.35-4.52ZM270.16,123.23l25.16.06-2.32,3.16v.06l-20.51-.06-2.32-3.23ZM270.16,112.84l2.32-3.23,20.51-.06v.06l2.32,3.16-25.16.06ZM274.29,131.61l3.29,4.52h-6.64l3.35-4.52ZM270.93,100h6.64l-3.29,4.52-3.35-4.52ZM273.45,127.74h18.64l-2.32,3.23h-14l-2.32-3.23ZM273.45,108.32l2.32-3.23h14l2.32,3.23h-18.64ZM277.58,136.13l3.29,4.52h-6.64l3.35-4.52ZM274.22,95.49h6.64l-3.29,4.52-3.35-4.52ZM276.74,132.26h12.06l-2.32,3.23h-7.42l-2.32-3.23ZM276.74,103.81l2.32-3.23h7.42l2.32,3.23h-12.06ZM279.97,136.77h5.61l-2.77,3.87-2.84-3.87ZM279.97,99.29l2.84-3.87,2.77,3.87h-5.61ZM287.9,136.13l3.35,4.52h-6.64l3.29-4.52ZM284.61,95.49h6.64l-3.35,4.52-3.29-4.52ZM291.19,131.61l3.35,4.52h-6.64l3.29-4.52ZM287.9,100h6.64l-3.35,4.52-3.29-4.52ZM294.48,127.1l3.35,4.52h-6.64l3.29-4.52ZM291.19,104.52h6.64l-3.35,4.52-3.29-4.52ZM297.77,122.58l3.35,4.52h-6.64l3.29-4.52ZM294.48,109.03h6.64l-3.35,4.52-3.29-4.52ZM301.06,118.07l3.35,4.52h-6.64l3.29-4.52ZM297.77,113.55h6.64l-3.35,4.52-3.29-4.52Z"/>
      <path class="cls-1" d="M264.42,165.78l3.29,4.52h-6.64l3.35-4.52ZM261.06,161.26h6.64l-3.29,4.52-3.35-4.52ZM267.71,170.29l3.29,4.52h-6.64l3.35-4.52ZM264.35,156.74h6.64l-3.29,4.52-3.35-4.52ZM266.94,166.42h31.61l-2.26,3.16h-27.09l-2.26-3.16ZM266.94,165.07l2.26-3.16h27.09l2.26,3.16h-31.61ZM271,174.81l3.29,4.52h-6.64l3.35-4.52ZM267.64,152.23h6.64l-3.29,4.52-3.35-4.52ZM270.16,170.94l25.16.06-2.32,3.16v.06l-20.51-.06-2.32-3.23ZM270.16,160.55l2.32-3.23,20.51-.06v.06l2.32,3.16-25.16.06ZM274.29,179.32l3.29,4.52h-6.64l3.35-4.52ZM270.93,147.71h6.64l-3.29,4.52-3.35-4.52ZM273.45,175.45h18.64l-2.32,3.23h-14l-2.32-3.23ZM273.45,156.04l2.32-3.23h14l2.32,3.23h-18.64ZM277.58,183.84l3.29,4.52h-6.64l3.35-4.52ZM274.22,143.2h6.64l-3.29,4.52-3.35-4.52ZM276.74,179.97h12.06l-2.32,3.23h-7.42l-2.32-3.23ZM276.74,151.52l2.32-3.23h7.42l2.32,3.23h-12.06ZM279.97,184.48h5.61l-2.77,3.87-2.84-3.87ZM279.97,147l2.84-3.87,2.77,3.87h-5.61ZM287.9,183.84l3.35,4.52h-6.64l3.29-4.52ZM284.61,143.2h6.64l-3.35,4.52-3.29-4.52ZM291.19,179.32l3.35,4.52h-6.64l3.29-4.52ZM287.9,147.71h6.64l-3.35,4.52-3.29-4.52ZM294.48,174.81l3.35,4.52h-6.64l3.29-4.52ZM291.19,152.23h6.64l-3.35,4.52-3.29-4.52ZM297.77,170.29l3.35,4.52h-6.64l3.29-4.52ZM294.48,156.74h6.64l-3.35,4.52-3.29-4.52ZM301.06,165.78l3.35,4.52h-6.64l3.29-4.52ZM297.77,161.26h6.64l-3.35,4.52-3.29-4.52Z"/>
      <path class="cls-1" d="M301.13,165.78l3.29,4.52h-6.64l3.35-4.52ZM297.77,161.26h6.64l-3.29,4.52-3.35-4.52ZM304.42,170.29l3.29,4.52h-6.64l3.35-4.52ZM301.06,156.74h6.64l-3.29,4.52-3.35-4.52ZM303.64,166.42h31.61l-2.26,3.16h-27.09l-2.26-3.16ZM303.64,165.07l2.26-3.16h27.09l2.26,3.16h-31.61ZM307.71,174.81l3.29,4.52h-6.64l3.35-4.52ZM304.35,152.23h6.64l-3.29,4.52-3.35-4.52ZM306.87,170.94l25.16.06-2.32,3.16v.06l-20.51-.06-2.32-3.23ZM306.87,160.55l2.32-3.23,20.51-.06v.06l2.32,3.16-25.16.06ZM311,179.32l3.29,4.52h-6.64l3.35-4.52ZM307.64,147.71h6.64l-3.29,4.52-3.35-4.52ZM310.16,175.45h18.64l-2.32,3.23h-14l-2.32-3.23ZM310.16,156.04l2.32-3.23h14l2.32,3.23h-18.64ZM314.29,183.84l3.29,4.52h-6.64l3.35-4.52ZM310.93,143.2h6.64l-3.29,4.52-3.35-4.52ZM313.45,179.97h12.06l-2.32,3.23h-7.42l-2.32-3.23ZM313.45,151.52l2.32-3.23h7.42l2.32,3.23h-12.06ZM316.67,184.48h5.61l-2.77,3.87-2.84-3.87ZM316.67,147l2.84-3.87,2.77,3.87h-5.61ZM324.61,183.84l3.35,4.52h-6.64l3.29-4.52ZM321.32,143.2h6.64l-3.35,4.52-3.29-4.52ZM327.9,179.32l3.35,4.52h-6.64l3.29-4.52ZM324.61,147.71h6.64l-3.35,4.52-3.29-4.52ZM331.19,174.81l3.35,4.52h-6.64l3.29-4.52ZM327.9,152.23h6.64l-3.35,4.52-3.29-4.52ZM334.48,170.29l3.35,4.52h-6.64l3.29-4.52ZM331.19,156.74h6.64l-3.35,4.52-3.29-4.52ZM337.77,165.78l3.35,4.52h-6.64l3.29-4.52ZM334.48,161.26h6.64l-3.35,4.52-3.29-4.52Z"/>
      <path class="cls-1" d="M337.83,22.64l3.29,4.52h-6.64l3.35-4.52ZM334.48,18.13h6.64l-3.29,4.52-3.35-4.52ZM341.12,27.16l3.29,4.52h-6.64l3.35-4.52ZM337.77,13.61h6.64l-3.29,4.52-3.35-4.52ZM340.35,23.29h31.61l-2.26,3.16h-27.09l-2.26-3.16ZM340.35,21.93l2.26-3.16h27.09l2.26,3.16h-31.61ZM344.41,31.67l3.29,4.52h-6.64l3.35-4.52ZM341.06,9.1h6.64l-3.29,4.52-3.35-4.52ZM343.57,27.8l25.16.06-2.32,3.16v.06l-20.51-.06-2.32-3.23ZM343.57,17.42l2.32-3.23,20.51-.06v.06l2.32,3.16-25.16.06ZM347.7,36.19l3.29,4.52h-6.64l3.35-4.52ZM344.35,4.58h6.64l-3.29,4.52-3.35-4.52ZM346.86,32.32h18.64l-2.32,3.23h-14l-2.32-3.23ZM346.86,12.9l2.32-3.23h14l2.32,3.23h-18.64ZM350.99,40.71l3.29,4.52h-6.64l3.35-4.52ZM347.64.06h6.64l-3.29,4.52-3.35-4.52ZM350.15,36.84h12.06l-2.32,3.23h-7.42l-2.32-3.23ZM350.15,8.39l2.32-3.23h7.42l2.32,3.23h-12.06ZM353.38,41.35h5.61l-2.77,3.87-2.84-3.87ZM353.38,3.87l2.84-3.87,2.77,3.87h-5.61ZM361.31,40.71l3.35,4.52h-6.64l3.29-4.52ZM358.02.06h6.64l-3.35,4.52-3.29-4.52ZM364.6,36.19l3.35,4.52h-6.64l3.29-4.52ZM361.31,4.58h6.64l-3.35,4.52-3.29-4.52ZM367.89,31.67l3.35,4.52h-6.64l3.29-4.52ZM364.6,9.1h6.64l-3.35,4.52-3.29-4.52ZM371.18,27.16l3.35,4.52h-6.64l3.29-4.52ZM367.89,13.61h6.64l-3.35,4.52-3.29-4.52ZM374.47,22.64l3.35,4.52h-6.64l3.29-4.52ZM371.18,18.13h6.64l-3.35,4.52-3.29-4.52Z"/>
      <path class="cls-1" d="M337.83,70.35l3.29,4.52h-6.64l3.35-4.52ZM334.48,65.84h6.64l-3.29,4.52-3.35-4.52ZM341.12,74.87l3.29,4.52h-6.64l3.35-4.52ZM337.77,61.32h6.64l-3.29,4.52-3.35-4.52ZM340.35,71h31.61l-2.26,3.16h-27.09l-2.26-3.16ZM340.35,69.64l2.26-3.16h27.09l2.26,3.16h-31.61ZM344.41,79.39l3.29,4.52h-6.64l3.35-4.52ZM341.06,56.81h6.64l-3.29,4.52-3.35-4.52ZM343.57,75.51l25.16.06-2.32,3.16v.06l-20.51-.06-2.32-3.23ZM343.57,65.13l2.32-3.23,20.51-.06v.06l2.32,3.16-25.16.06ZM347.7,83.9l3.29,4.52h-6.64l3.35-4.52ZM344.35,52.29h6.64l-3.29,4.52-3.35-4.52ZM346.86,80.03h18.64l-2.32,3.23h-14l-2.32-3.23ZM346.86,60.61l2.32-3.23h14l2.32,3.23h-18.64ZM350.99,88.42l3.29,4.52h-6.64l3.35-4.52ZM347.64,47.78h6.64l-3.29,4.52-3.35-4.52ZM350.15,84.55h12.06l-2.32,3.23h-7.42l-2.32-3.23ZM350.15,56.1l2.32-3.23h7.42l2.32,3.23h-12.06ZM353.38,89.06h5.61l-2.77,3.87-2.84-3.87ZM353.38,51.58l2.84-3.87,2.77,3.87h-5.61ZM361.31,88.42l3.35,4.52h-6.64l3.29-4.52ZM358.02,47.78h6.64l-3.35,4.52-3.29-4.52ZM364.6,83.9l3.35,4.52h-6.64l3.29-4.52ZM361.31,52.29h6.64l-3.35,4.52-3.29-4.52ZM367.89,79.39l3.35,4.52h-6.64l3.29-4.52ZM364.6,56.81h6.64l-3.35,4.52-3.29-4.52ZM371.18,74.87l3.35,4.52h-6.64l3.29-4.52ZM367.89,61.32h6.64l-3.35,4.52-3.29-4.52ZM374.47,70.35l3.35,4.52h-6.64l3.29-4.52ZM371.18,65.84h6.64l-3.35,4.52-3.29-4.52Z"/>
      <path class="cls-1" d="M337.83,118.07l3.29,4.52h-6.64l3.35-4.52ZM334.48,113.55h6.64l-3.29,4.52-3.35-4.52ZM341.12,122.58l3.29,4.52h-6.64l3.35-4.52ZM337.77,109.03h6.64l-3.29,4.52-3.35-4.52ZM340.35,118.71h31.61l-2.26,3.16h-27.09l-2.26-3.16ZM340.35,117.36l2.26-3.16h27.09l2.26,3.16h-31.61ZM344.41,127.1l3.29,4.52h-6.64l3.35-4.52ZM341.06,104.52h6.64l-3.29,4.52-3.35-4.52ZM343.57,123.23l25.16.06-2.32,3.16v.06l-20.51-.06-2.32-3.23ZM343.57,112.84l2.32-3.23,20.51-.06v.06l2.32,3.16-25.16.06ZM347.7,131.61l3.29,4.52h-6.64l3.35-4.52ZM344.35,100h6.64l-3.29,4.52-3.35-4.52ZM346.86,127.74h18.64l-2.32,3.23h-14l-2.32-3.23ZM346.86,108.32l2.32-3.23h14l2.32,3.23h-18.64ZM350.99,136.13l3.29,4.52h-6.64l3.35-4.52ZM347.64,95.49h6.64l-3.29,4.52-3.35-4.52ZM350.15,132.26h12.06l-2.32,3.23h-7.42l-2.32-3.23ZM350.15,103.81l2.32-3.23h7.42l2.32,3.23h-12.06ZM353.38,136.77h5.61l-2.77,3.87-2.84-3.87ZM353.38,99.29l2.84-3.87,2.77,3.87h-5.61ZM361.31,136.13l3.35,4.52h-6.64l3.29-4.52ZM358.02,95.49h6.64l-3.35,4.52-3.29-4.52ZM364.6,131.61l3.35,4.52h-6.64l3.29-4.52ZM361.31,100h6.64l-3.35,4.52-3.29-4.52ZM367.89,127.1l3.35,4.52h-6.64l3.29-4.52ZM364.6,104.52h6.64l-3.35,4.52-3.29-4.52ZM371.18,122.58l3.35,4.52h-6.64l3.29-4.52ZM367.89,109.03h6.64l-3.35,4.52-3.29-4.52ZM374.47,118.07l3.35,4.52h-6.64l3.29-4.52ZM371.18,113.55h6.64l-3.35,4.52-3.29-4.52Z"/>
      <path class="cls-1" d="M337.83,165.78l3.29,4.52h-6.64l3.35-4.52ZM334.48,161.26h6.64l-3.29,4.52-3.35-4.52ZM341.12,170.29l3.29,4.52h-6.64l3.35-4.52ZM337.77,156.74h6.64l-3.29,4.52-3.35-4.52ZM340.35,166.42h31.61l-2.26,3.16h-27.09l-2.26-3.16ZM340.35,165.07l2.26-3.16h27.09l2.26,3.16h-31.61ZM344.41,174.81l3.29,4.52h-6.64l3.35-4.52ZM341.06,152.23h6.64l-3.29,4.52-3.35-4.52ZM343.57,170.94l25.16.06-2.32,3.16v.06l-20.51-.06-2.32-3.23ZM343.57,160.55l2.32-3.23,20.51-.06v.06l2.32,3.16-25.16.06ZM347.7,179.32l3.29,4.52h-6.64l3.35-4.52ZM344.35,147.71h6.64l-3.29,4.52-3.35-4.52ZM346.86,175.45h18.64l-2.32,3.23h-14l-2.32-3.23ZM346.86,156.04l2.32-3.23h14l2.32,3.23h-18.64ZM350.99,183.84l3.29,4.52h-6.64l3.35-4.52ZM347.64,143.2h6.64l-3.29,4.52-3.35-4.52ZM350.15,179.97h12.06l-2.32,3.23h-7.42l-2.32-3.23ZM350.15,151.52l2.32-3.23h7.42l2.32,3.23h-12.06ZM353.38,184.48h5.61l-2.77,3.87-2.84-3.87ZM353.38,147l2.84-3.87,2.77,3.87h-5.61ZM361.31,183.84l3.35,4.52h-6.64l3.29-4.52ZM358.02,143.2h6.64l-3.35,4.52-3.29-4.52ZM364.6,179.32l3.35,4.52h-6.64l3.29-4.52ZM361.31,147.71h6.64l-3.35,4.52-3.29-4.52ZM367.89,174.81l3.35,4.52h-6.64l3.29-4.52ZM364.6,152.23h6.64l-3.35,4.52-3.29-4.52ZM371.18,170.29l3.35,4.52h-6.64l3.29-4.52ZM367.89,156.74h6.64l-3.35,4.52-3.29-4.52ZM374.47,165.78l3.35,4.52h-6.64l3.29-4.52ZM371.18,161.26h6.64l-3.35,4.52-3.29-4.52Z"/>
      <path class="cls-1" d="M1.1,113.51h6.64l-3.29,4.52-3.35-4.52ZM4.46,118.02l3.29,4.52H1.1l3.35-4.52ZM4.39,108.99h6.64l-3.29,4.52-3.35-4.52ZM7.75,122.54l3.29,4.52h-6.64l3.35-4.52ZM9.23,114.22h27.09l2.26,3.16H6.98l2.26-3.16ZM38.59,118.73l-2.26,3.16H9.23l-2.26-3.16h31.61ZM7.68,104.48h6.64l-3.29,4.52-3.35-4.52ZM11.04,127.05l3.29,4.52h-6.64l3.35-4.52ZM12.52,109.64l20.51-.06v.06l2.32,3.16-25.16.06,2.32-3.23ZM35.36,123.31l-2.32,3.16v.06l-20.51-.06-2.32-3.23,25.16.06ZM10.97,99.96h6.64l-3.29,4.52-3.35-4.52ZM14.33,131.57l3.29,4.52h-6.64l3.35-4.52ZM15.81,105.12h14l2.32,3.23H13.49l2.32-3.23ZM32.13,127.76l-2.32,3.23h-14l-2.32-3.23h18.64ZM14.26,95.44h6.64l-3.29,4.52-3.35-4.52ZM17.62,136.09l3.29,4.52h-6.64l3.35-4.52ZM19.1,100.6h7.42l2.32,3.23h-12.06l2.32-3.23ZM28.84,132.28l-2.32,3.23h-7.42l-2.32-3.23h12.06ZM22.84,95.44l2.77,3.87h-5.61l2.84-3.87ZM25.62,136.79l-2.77,3.87-2.84-3.87h5.61ZM27.94,136.09l3.35,4.52h-6.64l3.29-4.52ZM31.23,131.57l3.35,4.52h-6.64l3.29-4.52ZM34.52,127.05l3.35,4.52h-6.64l3.29-4.52ZM37.81,122.54l3.35,4.52h-6.64l3.29-4.52Z"/>
      <path class="cls-1" d="M1.1,161.2h6.64l-3.29,4.52-3.35-4.52ZM4.46,165.71l3.29,4.52H1.1l3.35-4.52ZM4.39,156.68h6.64l-3.29,4.52-3.35-4.52ZM7.75,170.23l3.29,4.52h-6.64l3.35-4.52ZM9.23,161.91h27.09l2.26,3.16H6.98l2.26-3.16ZM38.59,166.42l-2.26,3.16H9.23l-2.26-3.16h31.61ZM7.68,152.16h6.64l-3.29,4.52-3.35-4.52ZM11.04,174.74l3.29,4.52h-6.64l3.35-4.52ZM12.52,157.33l20.51-.06v.06l2.32,3.16-25.16.06,2.32-3.23ZM35.36,171l-2.32,3.16v.06l-20.51-.06-2.32-3.23,25.16.06ZM10.97,147.65h6.64l-3.29,4.52-3.35-4.52ZM14.33,179.26l3.29,4.52h-6.64l3.35-4.52ZM15.81,152.81h14l2.32,3.23H13.49l2.32-3.23ZM32.13,175.45l-2.32,3.23h-14l-2.32-3.23h18.64ZM14.26,143.13h6.64l-3.29,4.52-3.35-4.52ZM17.62,183.77l3.29,4.52h-6.64l3.35-4.52ZM19.1,148.29h7.42l2.32,3.23h-12.06l2.32-3.23ZM28.84,179.97l-2.32,3.23h-7.42l-2.32-3.23h12.06ZM22.84,143.13l2.77,3.87h-5.61l2.84-3.87ZM25.62,184.48l-2.77,3.87-2.84-3.87h5.61ZM24.65,143.13h6.64l-3.35,4.52-3.29-4.52ZM27.94,183.77l3.35,4.52h-6.64l3.29-4.52ZM27.94,147.65h6.64l-3.35,4.52-3.29-4.52ZM31.23,179.26l3.35,4.52h-6.64l3.29-4.52ZM31.23,152.16h6.64l-3.35,4.52-3.29-4.52ZM34.52,174.74l3.35,4.52h-6.64l3.29-4.52ZM34.52,156.68h6.64l-3.35,4.52-3.29-4.52ZM37.81,170.23l3.35,4.52h-6.64l3.29-4.52ZM37.81,161.2h6.64l-3.35,4.52-3.29-4.52ZM41.1,165.71l3.35,4.52h-6.64l3.29-4.52Z"/>
      <path class="cls-1" d="M26.58,90.34h27.09l2.26,3.16h-31.61l2.26-3.16ZM55.93,94.86l-2.26,3.16h-27.09l-2.26-3.16h31.61ZM29.87,85.76l20.51-.06v.06l2.32,3.16-25.16.06,2.32-3.23ZM52.71,99.44l-2.32,3.16v.06l-20.51-.06-2.32-3.23,25.16.06ZM33.16,81.24h14l2.32,3.23h-18.64l2.32-3.23ZM49.48,103.89l-2.32,3.23h-14l-2.32-3.23h18.64ZM36.45,76.73h7.42l2.32,3.23h-12.06l2.32-3.23ZM46.19,108.4l-2.32,3.23h-7.42l-2.32-3.23h12.06ZM40.19,71.57l2.77,3.87h-5.61l2.84-3.87ZM42.96,112.92l-2.77,3.87-2.84-3.87h5.61Z"/>
      <path class="cls-1" d="M4.49,22.64l3.29,4.52H1.14l3.35-4.52ZM1.14,18.13h6.64l-3.29,4.52-3.35-4.52ZM7.78,27.16l3.29,4.52h-6.64l3.35-4.52ZM4.43,13.61h6.64l-3.29,4.52-3.35-4.52ZM7.01,23.29h31.61l-2.26,3.16H9.26l-2.26-3.16ZM7.01,21.93l2.26-3.16h27.09l2.26,3.16H7.01ZM11.07,31.68l3.29,4.52h-6.64l3.35-4.52ZM7.72,9.1h6.64l-3.29,4.52-3.35-4.52ZM10.23,27.8l25.16.06-2.32,3.16v.06l-20.51-.06-2.32-3.23ZM10.23,17.42l2.32-3.23,20.51-.06v.06l2.32,3.16-25.16.06ZM14.36,36.19l3.29,4.52h-6.64l3.35-4.52ZM11.01,4.58h6.64l-3.29,4.52-3.35-4.52ZM13.52,32.32h18.64l-2.32,3.23h-14l-2.32-3.23ZM13.52,12.9l2.32-3.23h14l2.32,3.23H13.52ZM17.65,40.71l3.29,4.52h-6.64l3.35-4.52ZM14.3.07h6.64l-3.29,4.52L14.3.07ZM16.81,36.84h12.06l-2.32,3.23h-7.42l-2.32-3.23ZM16.81,8.39l2.32-3.23h7.42l2.32,3.23h-12.06ZM20.04,41.35h5.61l-2.77,3.87-2.84-3.87ZM20.04,3.87L22.88,0l2.77,3.87h-5.61ZM27.97,40.71l3.35,4.52h-6.64l3.29-4.52ZM24.68.07h6.64l-3.35,4.52L24.68.07ZM31.26,36.19l3.35,4.52h-6.64l3.29-4.52ZM27.97,4.58h6.64l-3.35,4.52-3.29-4.52ZM34.55,31.68l3.35,4.52h-6.64l3.29-4.52ZM31.26,9.1h6.64l-3.35,4.52-3.29-4.52ZM37.84,27.16l3.35,4.52h-6.64l3.29-4.52ZM34.55,13.61h6.64l-3.35,4.52-3.29-4.52ZM41.13,22.64l3.35,4.52h-6.64l3.29-4.52ZM37.84,18.13h6.64l-3.35,4.52-3.29-4.52Z"/>
      <path class="cls-1" d="M52.92,41.97h6.64l-3.29,4.52-3.35-4.52ZM56.21,37.46h6.64l-3.29,4.52-3.35-4.52ZM58.79,47.13h31.61l-2.26,3.16h-27.09l-2.26-3.16ZM58.79,45.78l2.26-3.16h27.09l2.26,3.16h-31.61ZM59.5,32.94h6.64l-3.29,4.52-3.35-4.52ZM62.01,51.65l25.16.06-2.32,3.16v.06l-20.51-.06-2.32-3.23ZM62.01,41.26l2.32-3.23,20.51-.06v.06l2.32,3.16-25.16.06ZM62.79,28.43h6.64l-3.29,4.52-3.35-4.52ZM65.3,56.16h18.64l-2.32,3.23h-14l-2.32-3.23ZM65.3,36.75l2.32-3.23h14l2.32,3.23h-18.64ZM66.08,23.91h6.64l-3.29,4.52-3.35-4.52ZM68.59,60.68h12.06l-2.32,3.23h-7.42l-2.32-3.23ZM68.59,32.23l2.32-3.23h7.42l2.32,3.23h-12.06ZM71.82,65.2h5.61l-2.77,3.87-2.84-3.87ZM71.82,27.72l2.84-3.87,2.77,3.87h-5.61ZM79.75,64.55l3.35,4.52h-6.64l3.29-4.52ZM83.04,60.04l3.35,4.52h-6.64l3.29-4.52ZM86.33,55.52l3.35,4.52h-6.64l3.29-4.52ZM89.62,51l3.35,4.52h-6.64l3.29-4.52ZM92.91,46.49l3.35,4.52h-6.64l3.29-4.52Z"/>
      <path class="cls-1" d="M4.49,70.33l3.29,4.52H1.14l3.35-4.52ZM1.14,65.82h6.64l-3.29,4.52-3.35-4.52ZM7.78,74.85l3.29,4.52h-6.64l3.35-4.52ZM4.43,61.3h6.64l-3.29,4.52-3.35-4.52ZM7.01,70.98h31.61l-2.26,3.16H9.26l-2.26-3.16ZM7.01,69.62l2.26-3.16h27.09l2.26,3.16H7.01ZM11.07,79.36l3.29,4.52h-6.64l3.35-4.52ZM7.72,56.79h6.64l-3.29,4.52-3.35-4.52ZM10.23,75.49l25.16.06-2.32,3.16v.06l-20.51-.06-2.32-3.23ZM10.23,65.11l2.32-3.23,20.51-.06v.06l2.32,3.16-25.16.06ZM14.36,83.88l3.29,4.52h-6.64l3.35-4.52ZM11.01,52.27h6.64l-3.29,4.52-3.35-4.52ZM13.52,80.01h18.64l-2.32,3.23h-14l-2.32-3.23ZM13.52,60.59l2.32-3.23h14l2.32,3.23H13.52ZM17.65,88.4l3.29,4.52h-6.64l3.35-4.52ZM14.3,47.75h6.64l-3.29,4.52-3.35-4.52ZM16.81,84.53h12.06l-2.32,3.23h-7.42l-2.32-3.23ZM16.81,56.08l2.32-3.23h7.42l2.32,3.23h-12.06ZM20.04,89.04h5.61l-2.77,3.87-2.84-3.87ZM20.04,51.56l2.84-3.87,2.77,3.87h-5.61ZM24.68,47.75h6.64l-3.35,4.52-3.29-4.52ZM27.97,52.27h6.64l-3.35,4.52-3.29-4.52ZM31.26,56.79h6.64l-3.35,4.52-3.29-4.52ZM34.55,61.3h6.64l-3.35,4.52-3.29-4.52Z"/>
      <path class="cls-1" d="M37.84,65.82h4.49l-2.17,3.04-2.32-3.04ZM38.98,61.3h6.64l-3.29,4.52-3.35-4.52ZM41.56,70.98h31.61l-2.26,3.16h-27.09l-2.26-3.16ZM41.56,69.62l2.26-3.16h27.09l2.26,3.16h-31.61ZM42.27,56.79h6.64l-3.29,4.52-3.35-4.52ZM44.78,75.49l25.16.06-2.32,3.16v.06l-20.51-.06-2.32-3.23ZM44.78,65.11l2.32-3.23,20.51-.06v.06l2.32,3.16-25.16.06ZM45.56,52.27h6.64l-3.29,4.52-3.35-4.52ZM48.07,80.01h18.64l-2.32,3.23h-14l-2.32-3.23ZM48.07,60.59l2.32-3.23h14l2.32,3.23h-18.64ZM48.85,47.75h6.64l-3.29,4.52-3.35-4.52ZM51.36,84.53h12.06l-2.32,3.23h-7.42l-2.32-3.23ZM51.36,56.08l2.32-3.23h7.42l2.32,3.23h-12.06ZM54.59,89.04h5.61l-2.77,3.87-2.84-3.87ZM54.59,51.56l2.84-3.87,2.77,3.87h-5.61ZM62.52,88.4l3.35,4.52h-6.64l3.29-4.52ZM65.81,83.88l3.35,4.52h-6.64l3.29-4.52ZM69.1,79.36l3.35,4.52h-6.64l3.29-4.52ZM72.39,74.85l3.35,4.52h-6.64l3.29-4.52ZM75.68,70.33l3.35,4.52h-6.64l3.29-4.52Z"/>
      <path class="cls-1" d="M70.26,18.13h6.64l-3.29,4.52-3.35-4.52ZM73.55,13.61h6.64l-3.29,4.52-3.35-4.52ZM76.13,23.29h31.61l-2.26,3.16h-27.09l-2.26-3.16ZM76.13,21.93l2.26-3.16h27.09l2.26,3.16h-31.61ZM76.84,9.1h6.64l-3.29,4.52-3.35-4.52ZM79.35,27.8l25.16.06-2.32,3.16v.06l-20.51-.06-2.32-3.23ZM79.35,17.42l2.32-3.23,20.51-.06v.06l2.32,3.16-25.16.06ZM80.13,4.58h6.64l-3.29,4.52-3.35-4.52ZM82.64,32.32h18.64l-2.32,3.23h-14l-2.32-3.23ZM82.64,12.9l2.32-3.23h14l2.32,3.23h-18.64ZM83.42.07h6.64l-3.29,4.52L83.42.07ZM85.93,36.84h12.06l-2.32,3.23h-7.42l-2.32-3.23ZM85.93,8.39l2.32-3.23h7.42l2.32,3.23h-12.06ZM89.16,41.35h5.61l-2.77,3.87-2.84-3.87ZM89.16,3.87L92,0l2.77,3.87h-5.61ZM97.09,40.71l3.35,4.52h-6.64l3.29-4.52ZM93.8.07h6.64l-3.35,4.52L93.8.07ZM100.38,36.19l3.35,4.52h-6.64l3.29-4.52ZM97.09,4.58h6.64l-3.35,4.52-3.29-4.52ZM103.67,31.68l3.35,4.52h-6.64l3.29-4.52ZM100.38,9.1h6.64l-3.35,4.52-3.29-4.52ZM106.96,27.16l3.35,4.52h-6.64l3.29-4.52ZM103.67,13.61h6.64l-3.35,4.52-3.29-4.52ZM110.25,22.64l3.35,4.52h-6.64l3.29-4.52ZM106.96,18.13h6.64l-3.35,4.52-3.29-4.52Z"/>
      <g>
        <path class="cls-1" d="M56.27,141.87l3.29,4.52h-6.64l3.35-4.52ZM59.56,146.38l3.29,4.52h-6.64l3.35-4.52ZM61.04,138.06h27.09l2.26,3.16h-31.61l2.26-3.16ZM90.4,142.58l-2.26,3.16h-27.09l-2.26-3.16h31.61ZM62.85,150.9l3.29,4.52h-6.64l3.35-4.52ZM64.33,133.48l20.51-.06v.06l2.32,3.16-25.16.06,2.32-3.23ZM87.17,147.16l-2.32,3.16v.06l-20.51-.06-2.32-3.23,25.16.06ZM66.14,155.41l3.29,4.52h-6.64l3.35-4.52ZM67.62,128.96h14l2.32,3.23h-18.64l2.32-3.23ZM83.95,151.61l-2.32,3.23h-14l-2.32-3.23h18.64ZM69.43,159.93l3.29,4.52h-6.64l3.35-4.52ZM70.91,124.45h7.42l2.32,3.23h-12.06l2.32-3.23ZM80.66,156.12l-2.32,3.23h-7.42l-2.32-3.23h12.06ZM74.66,119.29l2.77,3.87h-5.61l2.84-3.87ZM77.43,160.64l-2.77,3.87-2.84-3.87h5.61ZM76.46,119.29h6.64l-3.35,4.52-3.29-4.52ZM79.75,123.8h6.64l-3.35,4.52-3.29-4.52ZM83.04,128.32h6.64l-3.35,4.52-3.29-4.52ZM86.33,132.84h6.64l-3.35,4.52-3.29-4.52ZM89.62,137.35h6.64l-3.35,4.52-3.29-4.52Z"/>
        <path class="cls-1" d="M40.16,119.5l2.17,3.04h-4.49l2.32-3.04ZM42.33,122.54l3.29,4.52h-6.64l3.35-4.52ZM43.81,114.22h27.09l2.26,3.16h-31.61l2.26-3.16ZM73.17,118.73l-2.26,3.16h-27.09l-2.26-3.16h31.61ZM45.62,127.05l3.29,4.52h-6.64l3.35-4.52ZM47.1,109.64l20.51-.06v.06l2.32,3.16-25.16.06,2.32-3.23ZM69.94,123.31l-2.32,3.16v.06l-20.51-.06-2.32-3.23,25.16.06ZM48.91,131.57l3.29,4.52h-6.64l3.35-4.52ZM50.39,105.12h14l2.32,3.23h-18.64l2.32-3.23ZM66.72,127.76l-2.32,3.23h-14l-2.32-3.23h18.64ZM52.2,136.09l3.29,4.52h-6.64l3.35-4.52ZM53.68,100.6h7.42l2.32,3.23h-12.06l2.32-3.23ZM63.43,132.28l-2.32,3.23h-7.42l-2.32-3.23h12.06ZM57.43,95.44l2.77,3.87h-5.61l2.84-3.87ZM60.2,136.79l-2.77,3.87-2.84-3.87h5.61ZM59.23,95.44h6.64l-3.35,4.52-3.29-4.52ZM62.52,99.96h6.64l-3.35,4.52-3.29-4.52ZM65.81,104.48h6.64l-3.35,4.52-3.29-4.52ZM69.1,108.99h6.64l-3.35,4.52-3.29-4.52ZM72.39,113.51h6.64l-3.35,4.52-3.29-4.52Z"/>
        <path class="cls-1" d="M73.61,165.71l3.29,4.52h-6.64l3.35-4.52ZM76.9,170.23l3.29,4.52h-6.64l3.35-4.52ZM78.38,161.91h27.09l2.26,3.16h-31.61l2.26-3.16ZM107.74,166.42l-2.26,3.16h-27.09l-2.26-3.16h31.61ZM80.19,174.74l3.29,4.52h-6.64l3.35-4.52ZM81.67,157.33l20.51-.06v.06l2.32,3.16-25.16.06,2.32-3.23ZM104.51,171l-2.32,3.16v.06l-20.51-.06-2.32-3.23,25.16.06ZM83.48,179.26l3.29,4.52h-6.64l3.35-4.52ZM84.96,152.81h14l2.32,3.23h-18.64l2.32-3.23ZM101.28,175.45l-2.32,3.23h-14l-2.32-3.23h18.64ZM86.77,183.77l3.29,4.52h-6.64l3.35-4.52ZM88.25,148.29h7.42l2.32,3.23h-12.06l2.32-3.23ZM97.99,179.97l-2.32,3.23h-7.42l-2.32-3.23h12.06ZM92,143.13l2.77,3.87h-5.61l2.84-3.87ZM94.77,184.48l-2.77,3.87-2.84-3.87h5.61ZM93.8,143.13h6.64l-3.35,4.52-3.29-4.52ZM97.09,183.77l3.35,4.52h-6.64l3.29-4.52ZM97.09,147.65h6.64l-3.35,4.52-3.29-4.52ZM100.38,179.26l3.35,4.52h-6.64l3.29-4.52ZM100.38,152.16h6.64l-3.35,4.52-3.29-4.52ZM103.67,174.74l3.35,4.52h-6.64l3.29-4.52ZM103.67,156.68h6.64l-3.35,4.52-3.29-4.52ZM106.96,170.23l3.35,4.52h-6.64l3.29-4.52ZM106.96,161.2h6.64l-3.35,4.52-3.29-4.52ZM110.25,165.71l3.35,4.52h-6.64l3.29-4.52Z"/>
      </g>
      <path class="cls-1" d="M524.38,22.64l3.29,4.52h-6.64l3.35-4.52ZM521.02,18.13h6.64l-3.29,4.52-3.35-4.52ZM527.67,27.16l3.29,4.52h-6.64l3.35-4.52ZM524.31,13.61h6.64l-3.29,4.52-3.35-4.52ZM526.9,23.29h31.61l-2.26,3.16h-27.09l-2.26-3.16ZM526.9,21.93l2.26-3.16h27.09l2.26,3.16h-31.61ZM530.96,31.67l3.29,4.52h-6.64l3.35-4.52ZM527.6,9.1h6.64l-3.29,4.52-3.35-4.52ZM530.12,27.8l25.16.06-2.32,3.16v.06l-20.51-.06-2.32-3.23ZM530.12,17.42l2.32-3.23,20.51-.06v.06l2.32,3.16-25.16.06ZM534.25,36.19l3.29,4.52h-6.64l3.35-4.52ZM530.89,4.58h6.64l-3.29,4.52-3.35-4.52ZM533.41,32.32h18.64l-2.32,3.23h-14l-2.32-3.23ZM533.41,12.9l2.32-3.23h14l2.32,3.23h-18.64ZM537.54,40.71l3.29,4.52h-6.64l3.35-4.52ZM534.18.06h6.64l-3.29,4.52-3.35-4.52ZM536.7,36.84h12.06l-2.32,3.23h-7.42l-2.32-3.23ZM536.7,8.39l2.32-3.23h7.42l2.32,3.23h-12.06ZM539.93,41.35h5.61l-2.77,3.87-2.84-3.87ZM539.93,3.87l2.84-3.87,2.77,3.87h-5.61ZM547.86,40.71l3.35,4.52h-6.64l3.29-4.52ZM544.57.06h6.64l-3.35,4.52-3.29-4.52ZM551.15,36.19l3.35,4.52h-6.64l3.29-4.52ZM547.86,4.58h6.64l-3.35,4.52-3.29-4.52ZM554.44,31.67l3.35,4.52h-6.64l3.29-4.52ZM551.15,9.1h6.64l-3.35,4.52-3.29-4.52ZM557.73,27.16l3.35,4.52h-6.64l3.29-4.52ZM554.44,13.61h6.64l-3.35,4.52-3.29-4.52ZM561.02,22.64l3.35,4.52h-6.64l3.29-4.52ZM557.73,18.13h6.64l-3.35,4.52-3.29-4.52Z"/>
      <path class="cls-1" d="M524.38,70.35l3.29,4.52h-6.64l3.35-4.52ZM521.02,65.84h6.64l-3.29,4.52-3.35-4.52ZM527.67,74.87l3.29,4.52h-6.64l3.35-4.52ZM524.31,61.32h6.64l-3.29,4.52-3.35-4.52ZM526.9,71h31.61l-2.26,3.16h-27.09l-2.26-3.16ZM526.9,69.64l2.26-3.16h27.09l2.26,3.16h-31.61ZM530.96,79.39l3.29,4.52h-6.64l3.35-4.52ZM527.6,56.81h6.64l-3.29,4.52-3.35-4.52ZM530.12,75.51l25.16.06-2.32,3.16v.06l-20.51-.06-2.32-3.23ZM530.12,65.13l2.32-3.23,20.51-.06v.06l2.32,3.16-25.16.06ZM534.25,83.9l3.29,4.52h-6.64l3.35-4.52ZM530.89,52.29h6.64l-3.29,4.52-3.35-4.52ZM533.41,80.03h18.64l-2.32,3.23h-14l-2.32-3.23ZM533.41,60.61l2.32-3.23h14l2.32,3.23h-18.64ZM537.54,88.42l3.29,4.52h-6.64l3.35-4.52ZM534.18,47.78h6.64l-3.29,4.52-3.35-4.52ZM536.7,84.55h12.06l-2.32,3.23h-7.42l-2.32-3.23ZM536.7,56.1l2.32-3.23h7.42l2.32,3.23h-12.06ZM539.93,89.06h5.61l-2.77,3.87-2.84-3.87ZM539.93,51.58l2.84-3.87,2.77,3.87h-5.61ZM547.86,88.42l3.35,4.52h-6.64l3.29-4.52ZM544.57,47.78h6.64l-3.35,4.52-3.29-4.52ZM551.15,83.9l3.35,4.52h-6.64l3.29-4.52ZM547.86,52.29h6.64l-3.35,4.52-3.29-4.52ZM554.44,79.39l3.35,4.52h-6.64l3.29-4.52ZM551.15,56.81h6.64l-3.35,4.52-3.29-4.52ZM557.73,74.87l3.35,4.52h-6.64l3.29-4.52ZM554.44,61.32h6.64l-3.35,4.52-3.29-4.52ZM561.02,70.35l3.35,4.52h-6.64l3.29-4.52ZM557.73,65.84h6.64l-3.35,4.52-3.29-4.52Z"/>
      <path class="cls-1" d="M524.38,118.07l3.29,4.52h-6.64l3.35-4.52ZM521.02,113.55h6.64l-3.29,4.52-3.35-4.52ZM527.67,122.58l3.29,4.52h-6.64l3.35-4.52ZM524.31,109.03h6.64l-3.29,4.52-3.35-4.52ZM526.9,118.71h31.61l-2.26,3.16h-27.09l-2.26-3.16ZM526.9,117.36l2.26-3.16h27.09l2.26,3.16h-31.61ZM530.96,127.1l3.29,4.52h-6.64l3.35-4.52ZM527.6,104.52h6.64l-3.29,4.52-3.35-4.52ZM530.12,123.23l25.16.06-2.32,3.16v.06l-20.51-.06-2.32-3.23ZM530.12,112.84l2.32-3.23,20.51-.06v.06l2.32,3.16-25.16.06ZM534.25,131.61l3.29,4.52h-6.64l3.35-4.52ZM530.89,100h6.64l-3.29,4.52-3.35-4.52ZM533.41,127.74h18.64l-2.32,3.23h-14l-2.32-3.23ZM533.41,108.32l2.32-3.23h14l2.32,3.23h-18.64ZM537.54,136.13l3.29,4.52h-6.64l3.35-4.52ZM534.18,95.49h6.64l-3.29,4.52-3.35-4.52ZM536.7,132.26h12.06l-2.32,3.23h-7.42l-2.32-3.23ZM536.7,103.81l2.32-3.23h7.42l2.32,3.23h-12.06ZM539.93,136.77h5.61l-2.77,3.87-2.84-3.87ZM539.93,99.29l2.84-3.87,2.77,3.87h-5.61ZM547.86,136.13l3.35,4.52h-6.64l3.29-4.52ZM544.57,95.49h6.64l-3.35,4.52-3.29-4.52ZM551.15,131.61l3.35,4.52h-6.64l3.29-4.52ZM547.86,100h6.64l-3.35,4.52-3.29-4.52ZM554.44,127.1l3.35,4.52h-6.64l3.29-4.52ZM551.15,104.52h6.64l-3.35,4.52-3.29-4.52ZM557.73,122.58l3.35,4.52h-6.64l3.29-4.52ZM554.44,109.03h6.64l-3.35,4.52-3.29-4.52ZM561.02,118.07l3.35,4.52h-6.64l3.29-4.52ZM557.73,113.55h6.64l-3.35,4.52-3.29-4.52Z"/>
      <path class="cls-1" d="M524.38,165.78l3.29,4.52h-6.64l3.35-4.52ZM521.02,161.26h6.64l-3.29,4.52-3.35-4.52ZM527.67,170.29l3.29,4.52h-6.64l3.35-4.52ZM524.31,156.74h6.64l-3.29,4.52-3.35-4.52ZM526.9,166.42h31.61l-2.26,3.16h-27.09l-2.26-3.16ZM526.9,165.07l2.26-3.16h27.09l2.26,3.16h-31.61ZM530.96,174.81l3.29,4.52h-6.64l3.35-4.52ZM527.6,152.23h6.64l-3.29,4.52-3.35-4.52ZM530.12,170.94l25.16.06-2.32,3.16v.06l-20.51-.06-2.32-3.23ZM530.12,160.55l2.32-3.23,20.51-.06v.06l2.32,3.16-25.16.06ZM534.25,179.32l3.29,4.52h-6.64l3.35-4.52ZM530.89,147.71h6.64l-3.29,4.52-3.35-4.52ZM533.41,175.45h18.64l-2.32,3.23h-14l-2.32-3.23ZM533.41,156.04l2.32-3.23h14l2.32,3.23h-18.64ZM537.54,183.84l3.29,4.52h-6.64l3.35-4.52ZM534.18,143.2h6.64l-3.29,4.52-3.35-4.52ZM536.7,179.97h12.06l-2.32,3.23h-7.42l-2.32-3.23ZM536.7,151.52l2.32-3.23h7.42l2.32,3.23h-12.06ZM539.93,184.48h5.61l-2.77,3.87-2.84-3.87ZM539.93,147l2.84-3.87,2.77,3.87h-5.61ZM547.86,183.84l3.35,4.52h-6.64l3.29-4.52ZM544.57,143.2h6.64l-3.35,4.52-3.29-4.52ZM551.15,179.32l3.35,4.52h-6.64l3.29-4.52ZM547.86,147.71h6.64l-3.35,4.52-3.29-4.52ZM554.44,174.81l3.35,4.52h-6.64l3.29-4.52ZM551.15,152.23h6.64l-3.35,4.52-3.29-4.52ZM557.73,170.29l3.35,4.52h-6.64l3.29-4.52ZM554.44,156.74h6.64l-3.35,4.52-3.29-4.52ZM561.02,165.78l3.35,4.52h-6.64l3.29-4.52ZM557.73,161.26h6.64l-3.35,4.52-3.29-4.52Z"/>
      <path class="cls-1" d="M561.09,22.64l3.29,4.52h-6.64l3.35-4.52ZM557.73,18.13h6.64l-3.29,4.52-3.35-4.52ZM564.38,27.16l3.29,4.52h-6.64l3.35-4.52ZM561.02,13.61h6.64l-3.29,4.52-3.35-4.52ZM563.6,23.29h31.61l-2.26,3.16h-27.09l-2.26-3.16ZM563.6,21.93l2.26-3.16h27.09l2.26,3.16h-31.61ZM567.67,31.67l3.29,4.52h-6.64l3.35-4.52ZM564.31,9.1h6.64l-3.29,4.52-3.35-4.52ZM566.83,27.8l25.16.06-2.32,3.16v.06l-20.51-.06-2.32-3.23ZM566.83,17.42l2.32-3.23,20.51-.06v.06l2.32,3.16-25.16.06ZM570.96,36.19l3.29,4.52h-6.64l3.35-4.52ZM567.6,4.58h6.64l-3.29,4.52-3.35-4.52ZM570.12,32.32h18.64l-2.32,3.23h-14l-2.32-3.23ZM570.12,12.9l2.32-3.23h14l2.32,3.23h-18.64ZM574.25,40.71l3.29,4.52h-6.64l3.35-4.52ZM570.89.06h6.64l-3.29,4.52-3.35-4.52ZM573.41,36.84h12.06l-2.32,3.23h-7.42l-2.32-3.23ZM573.41,8.39l2.32-3.23h7.42l2.32,3.23h-12.06ZM576.63,41.35h5.61l-2.77,3.87-2.84-3.87ZM576.63,3.87l2.84-3.87,2.77,3.87h-5.61ZM584.57,40.71l3.35,4.52h-6.64l3.29-4.52ZM581.28.06h6.64l-3.35,4.52-3.29-4.52ZM587.86,36.19l3.35,4.52h-6.64l3.29-4.52ZM584.57,4.58h6.64l-3.35,4.52-3.29-4.52ZM591.15,31.67l3.35,4.52h-6.64l3.29-4.52ZM587.86,9.1h6.64l-3.35,4.52-3.29-4.52ZM594.44,27.16l3.35,4.52h-6.64l3.29-4.52ZM591.15,13.61h6.64l-3.35,4.52-3.29-4.52ZM597.73,22.64l3.35,4.52h-6.64l3.29-4.52ZM594.44,18.13h6.64l-3.35,4.52-3.29-4.52Z"/>
      <path class="cls-1" d="M561.09,118.07l3.29,4.52h-6.64l3.35-4.52ZM557.73,113.55h6.64l-3.29,4.52-3.35-4.52ZM564.38,122.58l3.29,4.52h-6.64l3.35-4.52ZM561.02,109.03h6.64l-3.29,4.52-3.35-4.52ZM563.6,118.71h31.61l-2.26,3.16h-27.09l-2.26-3.16ZM563.6,117.36l2.26-3.16h27.09l2.26,3.16h-31.61ZM567.67,127.1l3.29,4.52h-6.64l3.35-4.52ZM564.31,104.52h6.64l-3.29,4.52-3.35-4.52ZM566.83,123.23l25.16.06-2.32,3.16v.06l-20.51-.06-2.32-3.23ZM566.83,112.84l2.32-3.23,20.51-.06v.06l2.32,3.16-25.16.06ZM570.96,131.61l3.29,4.52h-6.64l3.35-4.52ZM567.6,100h6.64l-3.29,4.52-3.35-4.52ZM570.12,127.74h18.64l-2.32,3.23h-14l-2.32-3.23ZM570.12,108.32l2.32-3.23h14l2.32,3.23h-18.64ZM574.25,136.13l3.29,4.52h-6.64l3.35-4.52ZM570.89,95.49h6.64l-3.29,4.52-3.35-4.52ZM573.41,132.26h12.06l-2.32,3.23h-7.42l-2.32-3.23ZM573.41,103.81l2.32-3.23h7.42l2.32,3.23h-12.06ZM576.63,136.77h5.61l-2.77,3.87-2.84-3.87ZM576.63,99.29l2.84-3.87,2.77,3.87h-5.61ZM584.57,136.13l3.35,4.52h-6.64l3.29-4.52ZM581.28,95.49h6.64l-3.35,4.52-3.29-4.52ZM587.86,131.61l3.35,4.52h-6.64l3.29-4.52ZM584.57,100h6.64l-3.35,4.52-3.29-4.52ZM591.15,127.1l3.35,4.52h-6.64l3.29-4.52ZM587.86,104.52h6.64l-3.35,4.52-3.29-4.52ZM594.44,122.58l3.35,4.52h-6.64l3.29-4.52ZM591.15,109.03h6.64l-3.35,4.52-3.29-4.52ZM597.73,118.07l3.35,4.52h-6.64l3.29-4.52ZM594.44,113.55h6.64l-3.35,4.52-3.29-4.52Z"/>
      <path class="cls-1" d="M597.79,22.64l3.29,4.52h-6.64l3.35-4.52ZM594.44,18.13h6.64l-3.29,4.52-3.35-4.52ZM601.08,27.16l3.29,4.52h-6.64l3.35-4.52ZM597.73,13.61h6.64l-3.29,4.52-3.35-4.52ZM600.31,23.29h31.61l-2.26,3.16h-27.09l-2.26-3.16ZM600.31,21.93l2.26-3.16h27.09l2.26,3.16h-31.61ZM604.37,31.67l3.29,4.52h-6.64l3.35-4.52ZM601.02,9.1h6.64l-3.29,4.52-3.35-4.52ZM603.53,27.8l25.16.06-2.32,3.16v.06l-20.51-.06-2.32-3.23ZM603.53,17.42l2.32-3.23,20.51-.06v.06l2.32,3.16-25.16.06ZM607.66,36.19l3.29,4.52h-6.64l3.35-4.52ZM604.31,4.58h6.64l-3.29,4.52-3.35-4.52ZM606.82,32.32h18.64l-2.32,3.23h-14l-2.32-3.23ZM606.82,12.9l2.32-3.23h14l2.32,3.23h-18.64ZM610.95,40.71l3.29,4.52h-6.64l3.35-4.52ZM607.6.06h6.64l-3.29,4.52-3.35-4.52ZM610.11,36.84h12.06l-2.32,3.23h-7.42l-2.32-3.23ZM610.11,8.39l2.32-3.23h7.42l2.32,3.23h-12.06ZM613.34,41.35h5.61l-2.77,3.87-2.84-3.87ZM613.34,3.87l2.84-3.87,2.77,3.87h-5.61ZM621.27,40.71l3.35,4.52h-6.64l3.29-4.52ZM617.98.06h6.64l-3.35,4.52-3.29-4.52ZM624.56,36.19l3.35,4.52h-6.64l3.29-4.52ZM621.27,4.58h6.64l-3.35,4.52-3.29-4.52ZM627.85,31.67l3.35,4.52h-6.64l3.29-4.52ZM624.56,9.1h6.64l-3.35,4.52-3.29-4.52ZM631.14,27.16l3.35,4.52h-6.64l3.29-4.52ZM627.85,13.61h6.64l-3.35,4.52-3.29-4.52ZM634.43,22.64l3.35,4.52h-6.64l3.29-4.52ZM631.14,18.13h6.64l-3.35,4.52-3.29-4.52Z"/>
      <path class="cls-1" d="M597.79,70.35l3.29,4.52h-6.64l3.35-4.52ZM594.44,65.84h6.64l-3.29,4.52-3.35-4.52ZM601.08,74.87l3.29,4.52h-6.64l3.35-4.52ZM597.73,61.32h6.64l-3.29,4.52-3.35-4.52ZM600.31,71h31.61l-2.26,3.16h-27.09l-2.26-3.16ZM600.31,69.64l2.26-3.16h27.09l2.26,3.16h-31.61ZM604.37,79.39l3.29,4.52h-6.64l3.35-4.52ZM601.02,56.81h6.64l-3.29,4.52-3.35-4.52ZM603.53,75.51l25.16.06-2.32,3.16v.06l-20.51-.06-2.32-3.23ZM603.53,65.13l2.32-3.23,20.51-.06v.06l2.32,3.16-25.16.06ZM607.66,83.9l3.29,4.52h-6.64l3.35-4.52ZM604.31,52.29h6.64l-3.29,4.52-3.35-4.52ZM606.82,80.03h18.64l-2.32,3.23h-14l-2.32-3.23ZM606.82,60.61l2.32-3.23h14l2.32,3.23h-18.64ZM610.95,88.42l3.29,4.52h-6.64l3.35-4.52ZM607.6,47.78h6.64l-3.29,4.52-3.35-4.52ZM610.11,84.55h12.06l-2.32,3.23h-7.42l-2.32-3.23ZM610.11,56.1l2.32-3.23h7.42l2.32,3.23h-12.06ZM613.34,89.06h5.61l-2.77,3.87-2.84-3.87ZM613.34,51.58l2.84-3.87,2.77,3.87h-5.61ZM621.27,88.42l3.35,4.52h-6.64l3.29-4.52ZM617.98,47.78h6.64l-3.35,4.52-3.29-4.52ZM624.56,83.9l3.35,4.52h-6.64l3.29-4.52ZM621.27,52.29h6.64l-3.35,4.52-3.29-4.52ZM627.85,79.39l3.35,4.52h-6.64l3.29-4.52ZM624.56,56.81h6.64l-3.35,4.52-3.29-4.52ZM631.14,74.87l3.35,4.52h-6.64l3.29-4.52ZM627.85,61.32h6.64l-3.35,4.52-3.29-4.52ZM634.43,70.35l3.35,4.52h-6.64l3.29-4.52ZM631.14,65.84h6.64l-3.35,4.52-3.29-4.52Z"/>
      <path class="cls-1" d="M597.79,118.07l3.29,4.52h-6.64l3.35-4.52ZM594.44,113.55h6.64l-3.29,4.52-3.35-4.52ZM601.08,122.58l3.29,4.52h-6.64l3.35-4.52ZM597.73,109.03h6.64l-3.29,4.52-3.35-4.52ZM600.31,118.71h31.61l-2.26,3.16h-27.09l-2.26-3.16ZM600.31,117.36l2.26-3.16h27.09l2.26,3.16h-31.61ZM604.37,127.1l3.29,4.52h-6.64l3.35-4.52ZM601.02,104.52h6.64l-3.29,4.52-3.35-4.52ZM603.53,123.23l25.16.06-2.32,3.16v.06l-20.51-.06-2.32-3.23ZM603.53,112.84l2.32-3.23,20.51-.06v.06l2.32,3.16-25.16.06ZM607.66,131.61l3.29,4.52h-6.64l3.35-4.52ZM604.31,100h6.64l-3.29,4.52-3.35-4.52ZM606.82,127.74h18.64l-2.32,3.23h-14l-2.32-3.23ZM606.82,108.32l2.32-3.23h14l2.32,3.23h-18.64ZM610.95,136.13l3.29,4.52h-6.64l3.35-4.52ZM607.6,95.49h6.64l-3.29,4.52-3.35-4.52ZM610.11,132.26h12.06l-2.32,3.23h-7.42l-2.32-3.23ZM610.11,103.81l2.32-3.23h7.42l2.32,3.23h-12.06ZM613.34,136.77h5.61l-2.77,3.87-2.84-3.87ZM613.34,99.29l2.84-3.87,2.77,3.87h-5.61ZM621.27,136.13l3.35,4.52h-6.64l3.29-4.52ZM617.98,95.49h6.64l-3.35,4.52-3.29-4.52ZM624.56,131.61l3.35,4.52h-6.64l3.29-4.52ZM621.27,100h6.64l-3.35,4.52-3.29-4.52ZM627.85,127.1l3.35,4.52h-6.64l3.29-4.52ZM624.56,104.52h6.64l-3.35,4.52-3.29-4.52ZM631.14,122.58l3.35,4.52h-6.64l3.29-4.52ZM627.85,109.03h6.64l-3.35,4.52-3.29-4.52ZM634.43,118.07l3.35,4.52h-6.64l3.29-4.52ZM631.14,113.55h6.64l-3.35,4.52-3.29-4.52Z"/>
      <path class="cls-1" d="M597.79,165.78l3.29,4.52h-6.64l3.35-4.52ZM594.44,161.26h6.64l-3.29,4.52-3.35-4.52ZM601.08,170.29l3.29,4.52h-6.64l3.35-4.52ZM597.73,156.74h6.64l-3.29,4.52-3.35-4.52ZM600.31,166.42h31.61l-2.26,3.16h-27.09l-2.26-3.16ZM600.31,165.07l2.26-3.16h27.09l2.26,3.16h-31.61ZM604.37,174.81l3.29,4.52h-6.64l3.35-4.52ZM601.02,152.23h6.64l-3.29,4.52-3.35-4.52ZM603.53,170.94l25.16.06-2.32,3.16v.06l-20.51-.06-2.32-3.23ZM603.53,160.55l2.32-3.23,20.51-.06v.06l2.32,3.16-25.16.06ZM607.66,179.32l3.29,4.52h-6.64l3.35-4.52ZM604.31,147.71h6.64l-3.29,4.52-3.35-4.52ZM606.82,175.45h18.64l-2.32,3.23h-14l-2.32-3.23ZM606.82,156.04l2.32-3.23h14l2.32,3.23h-18.64ZM610.95,183.84l3.29,4.52h-6.64l3.35-4.52ZM607.6,143.2h6.64l-3.29,4.52-3.35-4.52ZM610.11,179.97h12.06l-2.32,3.23h-7.42l-2.32-3.23ZM610.11,151.52l2.32-3.23h7.42l2.32,3.23h-12.06ZM613.34,184.48h5.61l-2.77,3.87-2.84-3.87ZM613.34,147l2.84-3.87,2.77,3.87h-5.61ZM621.27,183.84l3.35,4.52h-6.64l3.29-4.52ZM617.98,143.2h6.64l-3.35,4.52-3.29-4.52ZM624.56,179.32l3.35,4.52h-6.64l3.29-4.52ZM621.27,147.71h6.64l-3.35,4.52-3.29-4.52ZM627.85,174.81l3.35,4.52h-6.64l3.29-4.52ZM624.56,152.23h6.64l-3.35,4.52-3.29-4.52ZM631.14,170.29l3.35,4.52h-6.64l3.29-4.52ZM627.85,156.74h6.64l-3.35,4.52-3.29-4.52ZM634.43,165.78l3.35,4.52h-6.64l3.29-4.52ZM631.14,161.26h6.64l-3.35,4.52-3.29-4.52Z"/>
      <path class="cls-1" d="M393.18,113.51h6.64l-3.29,4.52-3.35-4.52ZM396.53,118.02l3.29,4.52h-6.64l3.35-4.52ZM396.47,108.99h6.64l-3.29,4.52-3.35-4.52ZM399.82,122.54l3.29,4.52h-6.64l3.35-4.52ZM401.3,114.22h27.09l2.26,3.16h-31.61l2.26-3.16ZM430.66,118.73l-2.26,3.16h-27.09l-2.26-3.16h31.61ZM399.76,104.48h6.64l-3.29,4.52-3.35-4.52ZM403.11,127.05l3.29,4.52h-6.64l3.35-4.52ZM404.59,109.64l20.51-.06v.06l2.32,3.16-25.16.06,2.32-3.23ZM427.43,123.31l-2.32,3.16v.06l-20.51-.06-2.32-3.23,25.16.06ZM403.05,99.96h6.64l-3.29,4.52-3.35-4.52ZM406.4,131.57l3.29,4.52h-6.64l3.35-4.52ZM407.88,105.12h14l2.32,3.23h-18.64l2.32-3.23ZM424.21,127.76l-2.32,3.23h-14l-2.32-3.23h18.64ZM406.34,95.44h6.64l-3.29,4.52-3.35-4.52ZM409.69,136.09l3.29,4.52h-6.64l3.35-4.52ZM411.17,100.6h7.42l2.32,3.23h-12.06l2.32-3.23ZM420.91,132.28l-2.32,3.23h-7.42l-2.32-3.23h12.06ZM414.92,95.44l2.77,3.87h-5.61l2.84-3.87ZM417.69,136.79l-2.77,3.87-2.84-3.87h5.61ZM420.01,136.09l3.35,4.52h-6.64l3.29-4.52ZM423.3,131.57l3.35,4.52h-6.64l3.29-4.52ZM426.59,127.05l3.35,4.52h-6.64l3.29-4.52ZM429.88,122.54l3.35,4.52h-6.64l3.29-4.52Z"/>
      <path class="cls-1" d="M393.18,161.2h6.64l-3.29,4.52-3.35-4.52ZM396.53,165.71l3.29,4.52h-6.64l3.35-4.52ZM396.47,156.68h6.64l-3.29,4.52-3.35-4.52ZM399.82,170.23l3.29,4.52h-6.64l3.35-4.52ZM401.3,161.91h27.09l2.26,3.16h-31.61l2.26-3.16ZM430.66,166.42l-2.26,3.16h-27.09l-2.26-3.16h31.61ZM399.76,152.16h6.64l-3.29,4.52-3.35-4.52ZM403.11,174.74l3.29,4.52h-6.64l3.35-4.52ZM404.59,157.33l20.51-.06v.06l2.32,3.16-25.16.06,2.32-3.23ZM427.43,171l-2.32,3.16v.06l-20.51-.06-2.32-3.23,25.16.06ZM403.05,147.65h6.64l-3.29,4.52-3.35-4.52ZM406.4,179.26l3.29,4.52h-6.64l3.35-4.52ZM407.88,152.81h14l2.32,3.23h-18.64l2.32-3.23ZM424.21,175.45l-2.32,3.23h-14l-2.32-3.23h18.64ZM406.34,143.13h6.64l-3.29,4.52-3.35-4.52ZM409.69,183.77l3.29,4.52h-6.64l3.35-4.52ZM411.17,148.29h7.42l2.32,3.23h-12.06l2.32-3.23ZM420.91,179.97l-2.32,3.23h-7.42l-2.32-3.23h12.06ZM414.92,143.13l2.77,3.87h-5.61l2.84-3.87ZM417.69,184.48l-2.77,3.87-2.84-3.87h5.61ZM416.72,143.13h6.64l-3.35,4.52-3.29-4.52ZM420.01,183.77l3.35,4.52h-6.64l3.29-4.52ZM420.01,147.65h6.64l-3.35,4.52-3.29-4.52ZM423.3,179.26l3.35,4.52h-6.64l3.29-4.52ZM423.3,152.16h6.64l-3.35,4.52-3.29-4.52ZM426.59,174.74l3.35,4.52h-6.64l3.29-4.52ZM426.59,156.68h6.64l-3.35,4.52-3.29-4.52ZM429.88,170.23l3.35,4.52h-6.64l3.29-4.52ZM429.88,161.2h6.64l-3.35,4.52-3.29-4.52ZM433.17,165.71l3.35,4.52h-6.64l3.29-4.52Z"/>
      <path class="cls-1" d="M418.65,90.34h27.09l2.26,3.16h-31.61l2.26-3.16ZM448,94.86l-2.26,3.16h-27.09l-2.26-3.16h31.61ZM421.94,85.76l20.51-.06v.06l2.32,3.16-25.16.06,2.32-3.23ZM444.78,99.44l-2.32,3.16v.06l-20.51-.06-2.32-3.23,25.16.06ZM425.23,81.24h14l2.32,3.23h-18.64l2.32-3.23ZM441.55,103.89l-2.32,3.23h-14l-2.32-3.23h18.64ZM428.52,76.73h7.42l2.32,3.23h-12.06l2.32-3.23ZM438.26,108.4l-2.32,3.23h-7.42l-2.32-3.23h12.06ZM432.26,71.57l2.77,3.87h-5.61l2.84-3.87ZM435.04,112.92l-2.77,3.87-2.84-3.87h5.61Z"/>
      <path class="cls-1" d="M396.56,22.64l3.29,4.52h-6.64l3.35-4.52ZM393.21,18.13h6.64l-3.29,4.52-3.35-4.52ZM399.85,27.16l3.29,4.52h-6.64l3.35-4.52ZM396.5,13.61h6.64l-3.29,4.52-3.35-4.52ZM399.08,23.29h31.61l-2.26,3.16h-27.09l-2.26-3.16ZM399.08,21.93l2.26-3.16h27.09l2.26,3.16h-31.61ZM403.14,31.68l3.29,4.52h-6.64l3.35-4.52ZM399.79,9.1h6.64l-3.29,4.52-3.35-4.52ZM402.3,27.8l25.16.06-2.32,3.16v.06l-20.51-.06-2.32-3.23ZM402.3,17.42l2.32-3.23,20.51-.06v.06l2.32,3.16-25.16.06ZM406.43,36.19l3.29,4.52h-6.64l3.35-4.52ZM403.08,4.58h6.64l-3.29,4.52-3.35-4.52ZM405.59,32.32h18.64l-2.32,3.23h-14l-2.32-3.23ZM405.59,12.9l2.32-3.23h14l2.32,3.23h-18.64ZM409.72,40.71l3.29,4.52h-6.64l3.35-4.52ZM406.37.07h6.64l-3.29,4.52-3.35-4.52ZM408.88,36.84h12.06l-2.32,3.23h-7.42l-2.32-3.23ZM408.88,8.39l2.32-3.23h7.42l2.32,3.23h-12.06ZM412.11,41.35h5.61l-2.77,3.87-2.84-3.87ZM412.11,3.87L414.95,0l2.77,3.87h-5.61ZM420.04,40.71l3.35,4.52h-6.64l3.29-4.52ZM416.75.07h6.64l-3.35,4.52-3.29-4.52ZM423.33,36.19l3.35,4.52h-6.64l3.29-4.52ZM420.04,4.58h6.64l-3.35,4.52-3.29-4.52ZM426.62,31.68l3.35,4.52h-6.64l3.29-4.52ZM423.33,9.1h6.64l-3.35,4.52-3.29-4.52ZM429.91,27.16l3.35,4.52h-6.64l3.29-4.52ZM426.62,13.61h6.64l-3.35,4.52-3.29-4.52ZM433.2,22.64l3.35,4.52h-6.64l3.29-4.52ZM429.91,18.13h6.64l-3.35,4.52-3.29-4.52Z"/>
      <path class="cls-1" d="M444.99,41.97h6.64l-3.29,4.52-3.35-4.52ZM448.28,37.46h6.64l-3.29,4.52-3.35-4.52ZM450.86,47.13h31.61l-2.26,3.16h-27.09l-2.26-3.16ZM450.86,45.78l2.26-3.16h27.09l2.26,3.16h-31.61ZM451.57,32.94h6.64l-3.29,4.52-3.35-4.52ZM454.08,51.65l25.16.06-2.32,3.16v.06l-20.51-.06-2.32-3.23ZM454.08,41.26l2.32-3.23,20.51-.06v.06l2.32,3.16-25.16.06ZM454.86,28.43h6.64l-3.29,4.52-3.35-4.52ZM457.37,56.16h18.64l-2.32,3.23h-14l-2.32-3.23ZM457.37,36.75l2.32-3.23h14l2.32,3.23h-18.64ZM458.15,23.91h6.64l-3.29,4.52-3.35-4.52ZM460.66,60.68h12.06l-2.32,3.23h-7.42l-2.32-3.23ZM460.66,32.23l2.32-3.23h7.42l2.32,3.23h-12.06ZM463.89,65.2h5.61l-2.77,3.87-2.84-3.87ZM463.89,27.72l2.84-3.87,2.77,3.87h-5.61ZM471.82,64.55l3.35,4.52h-6.64l3.29-4.52ZM475.11,60.04l3.35,4.52h-6.64l3.29-4.52ZM478.4,55.52l3.35,4.52h-6.64l3.29-4.52ZM481.69,51l3.35,4.52h-6.64l3.29-4.52ZM484.98,46.49l3.35,4.52h-6.64l3.29-4.52Z"/>
      <path class="cls-1" d="M396.56,70.33l3.29,4.52h-6.64l3.35-4.52ZM393.21,65.82h6.64l-3.29,4.52-3.35-4.52ZM399.85,74.85l3.29,4.52h-6.64l3.35-4.52ZM396.5,61.3h6.64l-3.29,4.52-3.35-4.52ZM399.08,70.98h31.61l-2.26,3.16h-27.09l-2.26-3.16ZM399.08,69.62l2.26-3.16h27.09l2.26,3.16h-31.61ZM403.14,79.36l3.29,4.52h-6.64l3.35-4.52ZM399.79,56.79h6.64l-3.29,4.52-3.35-4.52ZM402.3,75.49l25.16.06-2.32,3.16v.06l-20.51-.06-2.32-3.23ZM402.3,65.11l2.32-3.23,20.51-.06v.06l2.32,3.16-25.16.06ZM406.43,83.88l3.29,4.52h-6.64l3.35-4.52ZM403.08,52.27h6.64l-3.29,4.52-3.35-4.52ZM405.59,80.01h18.64l-2.32,3.23h-14l-2.32-3.23ZM405.59,60.59l2.32-3.23h14l2.32,3.23h-18.64ZM409.72,88.4l3.29,4.52h-6.64l3.35-4.52ZM406.37,47.75h6.64l-3.29,4.52-3.35-4.52ZM408.88,84.53h12.06l-2.32,3.23h-7.42l-2.32-3.23ZM408.88,56.08l2.32-3.23h7.42l2.32,3.23h-12.06ZM412.11,89.04h5.61l-2.77,3.87-2.84-3.87ZM412.11,51.56l2.84-3.87,2.77,3.87h-5.61ZM416.75,47.75h6.64l-3.35,4.52-3.29-4.52ZM420.04,52.27h6.64l-3.35,4.52-3.29-4.52ZM423.33,56.79h6.64l-3.35,4.52-3.29-4.52ZM426.62,61.3h6.64l-3.35,4.52-3.29-4.52Z"/>
      <path class="cls-1" d="M429.91,65.82h4.49l-2.17,3.04-2.32-3.04ZM431.05,61.3h6.64l-3.29,4.52-3.35-4.52ZM433.63,70.98h31.61l-2.26,3.16h-27.09l-2.26-3.16ZM433.63,69.62l2.26-3.16h27.09l2.26,3.16h-31.61ZM434.34,56.79h6.64l-3.29,4.52-3.35-4.52ZM436.85,75.49l25.16.06-2.32,3.16v.06l-20.51-.06-2.32-3.23ZM436.85,65.11l2.32-3.23,20.51-.06v.06l2.32,3.16-25.16.06ZM437.63,52.27h6.64l-3.29,4.52-3.35-4.52ZM440.14,80.01h18.64l-2.32,3.23h-14l-2.32-3.23ZM440.14,60.59l2.32-3.23h14l2.32,3.23h-18.64ZM440.92,47.75h6.64l-3.29,4.52-3.35-4.52ZM443.43,84.53h12.06l-2.32,3.23h-7.42l-2.32-3.23ZM443.43,56.08l2.32-3.23h7.42l2.32,3.23h-12.06ZM446.66,89.04h5.61l-2.77,3.87-2.84-3.87ZM446.66,51.56l2.84-3.87,2.77,3.87h-5.61ZM454.59,88.4l3.35,4.52h-6.64l3.29-4.52ZM457.88,83.88l3.35,4.52h-6.64l3.29-4.52ZM461.17,79.36l3.35,4.52h-6.64l3.29-4.52ZM464.46,74.85l3.35,4.52h-6.64l3.29-4.52ZM467.75,70.33l3.35,4.52h-6.64l3.29-4.52Z"/>
      <path class="cls-1" d="M462.33,18.13h6.64l-3.29,4.52-3.35-4.52ZM465.62,13.61h6.64l-3.29,4.52-3.35-4.52ZM468.2,23.29h31.61l-2.26,3.16h-27.09l-2.26-3.16ZM468.2,21.93l2.26-3.16h27.09l2.26,3.16h-31.61ZM468.91,9.1h6.64l-3.29,4.52-3.35-4.52ZM471.42,27.8l25.16.06-2.32,3.16v.06l-20.51-.06-2.32-3.23ZM471.42,17.42l2.32-3.23,20.51-.06v.06l2.32,3.16-25.16.06ZM472.2,4.58h6.64l-3.29,4.52-3.35-4.52ZM474.71,32.32h18.64l-2.32,3.23h-14l-2.32-3.23ZM474.71,12.9l2.32-3.23h14l2.32,3.23h-18.64ZM475.49.07h6.64l-3.29,4.52-3.35-4.52ZM478,36.84h12.06l-2.32,3.23h-7.42l-2.32-3.23ZM478,8.39l2.32-3.23h7.42l2.32,3.23h-12.06ZM481.23,41.35h5.61l-2.77,3.87-2.84-3.87ZM481.23,3.87L484.07,0l2.77,3.87h-5.61ZM489.16,40.71l3.35,4.52h-6.64l3.29-4.52ZM485.87.07h6.64l-3.35,4.52-3.29-4.52ZM492.45,36.19l3.35,4.52h-6.64l3.29-4.52ZM489.16,4.58h6.64l-3.35,4.52-3.29-4.52ZM495.74,31.68l3.35,4.52h-6.64l3.29-4.52ZM492.45,9.1h6.64l-3.35,4.52-3.29-4.52ZM499.03,27.16l3.35,4.52h-6.64l3.29-4.52ZM495.74,13.61h6.64l-3.35,4.52-3.29-4.52ZM502.32,22.64l3.35,4.52h-6.64l3.29-4.52ZM499.03,18.13h6.64l-3.35,4.52-3.29-4.52Z"/>
      <g>
        <path class="cls-1" d="M448.34,141.87l3.29,4.52h-6.64l3.35-4.52ZM451.63,146.38l3.29,4.52h-6.64l3.35-4.52ZM453.12,138.06h27.09l2.26,3.16h-31.61l2.26-3.16ZM482.47,142.58l-2.26,3.16h-27.09l-2.26-3.16h31.61ZM454.92,150.9l3.29,4.52h-6.64l3.35-4.52ZM456.41,133.48l20.51-.06v.06l2.32,3.16-25.16.06,2.32-3.23ZM479.24,147.16l-2.32,3.16v.06l-20.51-.06-2.32-3.23,25.16.06ZM458.21,155.41l3.29,4.52h-6.64l3.35-4.52ZM459.7,128.96h14l2.32,3.23h-18.64l2.32-3.23ZM476.02,151.61l-2.32,3.23h-14l-2.32-3.23h18.64ZM461.5,159.93l3.29,4.52h-6.64l3.35-4.52ZM462.99,124.45h7.42l2.32,3.23h-12.06l2.32-3.23ZM472.73,156.12l-2.32,3.23h-7.42l-2.32-3.23h12.06ZM466.73,119.29l2.77,3.87h-5.61l2.84-3.87ZM469.5,160.64l-2.77,3.87-2.84-3.87h5.61ZM468.53,119.29h6.64l-3.35,4.52-3.29-4.52ZM471.82,123.8h6.64l-3.35,4.52-3.29-4.52ZM475.11,128.32h6.64l-3.35,4.52-3.29-4.52ZM478.4,132.84h6.64l-3.35,4.52-3.29-4.52ZM481.69,137.35h6.64l-3.35,4.52-3.29-4.52Z"/>
        <path class="cls-1" d="M432.23,119.5l2.17,3.04h-4.49l2.32-3.04ZM434.4,122.54l3.29,4.52h-6.64l3.35-4.52ZM435.89,114.22h27.09l2.26,3.16h-31.61l2.26-3.16ZM465.24,118.73l-2.26,3.16h-27.09l-2.26-3.16h31.61ZM437.69,127.05l3.29,4.52h-6.64l3.35-4.52ZM439.18,109.64l20.51-.06v.06l2.32,3.16-25.16.06,2.32-3.23ZM462.01,123.31l-2.32,3.16v.06l-20.51-.06-2.32-3.23,25.16.06ZM440.98,131.57l3.29,4.52h-6.64l3.35-4.52ZM442.47,105.12h14l2.32,3.23h-18.64l2.32-3.23ZM458.79,127.76l-2.32,3.23h-14l-2.32-3.23h18.64ZM444.27,136.09l3.29,4.52h-6.64l3.35-4.52ZM445.76,100.6h7.42l2.32,3.23h-12.06l2.32-3.23ZM455.5,132.28l-2.32,3.23h-7.42l-2.32-3.23h12.06ZM449.5,95.44l2.77,3.87h-5.61l2.84-3.87ZM452.27,136.79l-2.77,3.87-2.84-3.87h5.61ZM451.3,95.44h6.64l-3.35,4.52-3.29-4.52ZM454.59,99.96h6.64l-3.35,4.52-3.29-4.52ZM457.88,104.48h6.64l-3.35,4.52-3.29-4.52ZM461.17,108.99h6.64l-3.35,4.52-3.29-4.52ZM464.46,113.51h6.64l-3.35,4.52-3.29-4.52Z"/>
        <path class="cls-1" d="M465.68,165.71l3.29,4.52h-6.64l3.35-4.52ZM468.97,170.23l3.29,4.52h-6.64l3.35-4.52ZM470.45,161.91h27.09l2.26,3.16h-31.61l2.26-3.16ZM499.81,166.42l-2.26,3.16h-27.09l-2.26-3.16h31.61ZM472.26,174.74l3.29,4.52h-6.64l3.35-4.52ZM473.74,157.33l20.51-.06v.06l2.32,3.16-25.16.06,2.32-3.23ZM496.58,171l-2.32,3.16v.06l-20.51-.06-2.32-3.23,25.16.06ZM475.55,179.26l3.29,4.52h-6.64l3.35-4.52ZM477.03,152.81h14l2.32,3.23h-18.64l2.32-3.23ZM493.36,175.45l-2.32,3.23h-14l-2.32-3.23h18.64ZM478.84,183.77l3.29,4.52h-6.64l3.35-4.52ZM480.32,148.29h7.42l2.32,3.23h-12.06l2.32-3.23ZM490.07,179.97l-2.32,3.23h-7.42l-2.32-3.23h12.06ZM484.07,143.13l2.77,3.87h-5.61l2.84-3.87ZM486.84,184.48l-2.77,3.87-2.84-3.87h5.61ZM485.87,143.13h6.64l-3.35,4.52-3.29-4.52ZM489.16,183.77l3.35,4.52h-6.64l3.29-4.52ZM489.16,147.65h6.64l-3.35,4.52-3.29-4.52ZM492.45,179.26l3.35,4.52h-6.64l3.29-4.52ZM492.45,152.16h6.64l-3.35,4.52-3.29-4.52ZM495.74,174.74l3.35,4.52h-6.64l3.29-4.52ZM495.74,156.68h6.64l-3.35,4.52-3.29-4.52ZM499.03,170.23l3.35,4.52h-6.64l3.29-4.52ZM499.03,161.2h6.64l-3.35,4.52-3.29-4.52ZM502.32,165.71l3.35,4.52h-6.64l3.29-4.52Z"/>
      </g>
      <g>
        <path class="cls-1" d="M2.55,225.68v-2.58H0v-5.19h2.55v-2.55h7.68v-2.49H2.55v-2.61h10.3v2.55h2.55v12.88H2.55ZM10.23,217.97h-5.07v5.1h5.07v-5.1Z"/>
        <path class="cls-1" d="M34.36,223.1v2.58h-7.71v-2.61h5.1v-2.52h-2.55v-2.55l-2.55-.03v-5.16h2.55v-2.55h7.74v2.61h-5.13v2.52h2.55v2.55l2.58-.03v5.19h-2.58Z"/>
        <path class="cls-1" d="M50.71,225.68v-2.58h-2.55v-5.19h2.55v-2.55h7.68v-2.49h-7.68v-2.61h10.3v2.55h2.55v12.88h-12.85ZM58.39,217.97h-5.07v5.1h5.07v-5.1Z"/>
        <path class="cls-1" d="M95.27,225.68v-12.82h-2.49v2.55h-2.58v10.26h-5.16v-12.82h-2.52v2.55h-2.55v10.26h-5.16v-15.43h5.16v2.55h2.52v-2.55h5.16v2.55h5.06v-2.55h5.16v2.55h2.58v12.88h-5.16Z"/>
        <path class="cls-1" d="M124.53,223.1v2.58h-12.85v-20.56h5.16v5.13h7.68v2.55h2.55v10.3h-2.55ZM121.91,212.87h-5.07v10.2h5.07v-10.2Z"/>
        <path class="cls-1" d="M138.33,225.68v-20.56h5.16v20.56h-5.16Z"/>
        <path class="cls-1" d="M167.55,223.1v2.58h-10.3v-2.58h-2.55v-10.3h2.55v-2.55h10.3v2.55h2.55v2.61h-2.55v2.55h-5.13v2.55h-2.55v2.55h7.62v-2.61h2.61v2.64h-2.55ZM164.94,212.87h-5.07v5.04h2.52v-2.52h2.55v-2.52Z"/>
        <path class="cls-1" d="M183.9,225.68v-2.58h-2.55v-5.19h2.55v-2.55h7.68v-2.49h-7.68v-2.61h10.3v2.55h2.55v12.88h-12.85ZM191.58,217.97h-5.07v5.1h5.07v-5.1Z"/>
        <path class="cls-1" d="M224.38,225.68v-2.58h-2.55v-10.3h2.55v-2.55h7.68v-5.13h5.16v20.56h-12.85ZM232.06,212.87h-5.07v10.2h5.07v-10.2Z"/>
        <path class="cls-1" d="M261.32,223.1v2.58h-10.3v-2.58h-2.55v-10.3h2.55v-2.55h10.3v2.55h2.55v2.61h-2.55v2.55h-5.13v2.55h-2.55v2.55h7.62v-2.61h2.61v2.64h-2.55ZM258.7,212.87h-5.07v5.04h2.52v-2.52h2.55v-2.52Z"/>
        <path class="cls-1" d="M309.41,225.68v-12.82h-2.49v2.55h-2.58v10.26h-5.16v-12.82h-2.52v2.55h-2.55v10.26h-5.16v-15.43h5.16v2.55h2.52v-2.55h5.16v2.55h5.06v-2.55h5.16v2.55h2.58v12.88h-5.16Z"/>
        <path class="cls-1" d="M338.67,223.1v2.58h-10.3v-2.58h-2.55v-12.85h5.16v12.82h5.07v-12.82h5.16v12.85h-2.55Z"/>
        <path class="cls-1" d="M362.7,225.68v-12.82h-2.52v2.55h-2.55v10.26h-5.16v-15.43h5.16v2.55h2.52v-2.55h5.16v2.55h2.55v12.88h-5.16Z"/>
        <path class="cls-1" d="M381.66,225.68v-2.58h-2.55v-10.3h2.55v-2.55h7.68v-5.13h5.16v20.56h-12.85ZM389.35,212.87h-5.07v10.2h5.07v-10.2Z"/>
        <path class="cls-1" d="M418.6,223.1v2.58h-10.3v-2.58h-2.55v-10.3h2.55v-2.55h10.3v2.55h2.55v10.3h-2.55ZM415.99,212.87h-5.07v10.2h5.07v-10.2Z"/>
        <path class="cls-1" d="M440.12,223.1v2.58h-7.71v-2.61h5.1v-2.52h-2.55v-2.55l-2.55-.03v-5.16h2.55v-2.55h7.74v2.61h-5.13v2.52h2.55v2.55l2.58-.03v5.19h-2.58Z"/>
        <path class="cls-1" d="M480.59,223.1v2.58h-7.68v5.13h-5.16v-20.56h12.85v2.55h2.55v10.3h-2.55ZM477.98,212.87h-5.07v10.2h5.07v-10.2Z"/>
        <path class="cls-1" d="M507.24,223.1v2.58h-10.3v-2.58h-2.55v-10.3h2.55v-2.55h10.3v2.55h2.55v10.3h-2.55ZM504.62,212.87h-5.07v10.2h5.07v-10.2Z"/>
        <path class="cls-1" d="M528.75,223.1v2.58h-7.71v-2.61h5.1v-2.52h-2.55v-2.55l-2.55-.03v-5.16h2.55v-2.55h7.74v2.61h-5.13v2.52h2.55v2.55l2.58-.03v5.19h-2.58Z"/>
        <path class="cls-1" d="M542.55,207.73v-2.61h5.16v2.61h-5.16ZM542.55,225.68v-15.43h5.16v15.43h-5.16Z"/>
        <path class="cls-1" d="M571.77,223.1v2.58h-12.85v-20.56h5.16v5.13h7.68v2.55h2.55v10.3h-2.55ZM569.16,212.87h-5.07v10.2h5.07v-10.2Z"/>
        <path class="cls-1" d="M585.57,225.68v-20.56h5.16v20.56h-5.16Z"/>
        <path class="cls-1" d="M614.8,223.1v2.58h-10.3v-2.58h-2.55v-10.3h2.55v-2.55h10.3v2.55h2.55v2.61h-2.55v2.55h-5.13v2.55h-2.55v2.55h7.62v-2.61h2.61v2.64h-2.55ZM612.19,212.87h-5.07v5.04h2.52v-2.52h2.55v-2.52Z"/>
        <path class="cls-1" d="M636.31,223.1v2.58h-7.71v-2.61h5.1v-2.52h-2.55v-2.55l-2.55-.03v-5.16h2.55v-2.55h7.74v2.61h-5.13v2.52h2.55v2.55l2.58-.03v5.19h-2.58Z"/>
      </g>
      <g>
        <path class="cls-1" d="M81.57,263.16v4.11h-4.13v-4.11h-6.15v-4.11h2.04v-4.13h2.09v4.15h-2.04v1.99h4.06v-10.25h4.13v10.25h2.04v2.09h-2.04Z"/>
        <path class="cls-1" d="M98.77,257.01v4.11h-2.05l.02,6.15h-4.13v-6.2h2.04v-4.11h2.04v-4.06h-6.15v-2.09h10.3v6.2h-2.08Z"/>
        <path class="cls-1" d="M127.05,265.2v2.07h-6.17v-2.09h4.08v-2.02h-2.04v-2.04l-2.04-.02v-4.13h2.04v-2.04h6.2v2.09h-4.11v2.02h2.04v2.04l2.07-.02v4.15h-2.07Z"/>
        <path class="cls-1" d="M140.13,267.26v-2.07h-2.04v-4.15h2.04v-2.04h6.15v-1.99h-6.15v-2.09h8.24v2.04h2.04v10.3h-10.28ZM146.28,261.09h-4.06v4.08h4.06v-4.08Z"/>
        <path class="cls-1" d="M159.41,267.26v-16.45h4.13v16.45h-4.13Z"/>
        <path class="cls-1" d="M182.79,265.2v2.07h-8.24v-2.07h-2.04v-8.24h2.04v-2.04h8.24v2.04h2.04v8.24h-2.04ZM178.68,250.86v2.04h-2.09v-2.09h2.07v-2.04h2.09v2.09h-2.07ZM180.7,257.01h-4.06v8.16h4.06v-8.16Z"/>
        <path class="cls-1" d="M202.01,267.26v-10.25h-2.02v2.04h-2.04v8.21h-4.13v-12.34h4.13v2.04h2.02v-2.04h4.13v2.04h2.04v10.3h-4.13Z"/>
        <path class="cls-1" d="M234.39,267.26v-10.25h-2.02v2.04h-2.04v8.21h-4.13v-12.34h4.13v2.04h2.02v-2.04h4.13v2.04h2.04v10.3h-4.13Z"/>
        <path class="cls-1" d="M249.56,267.26v-2.07h-2.04v-4.15h2.04v-2.04h6.15v-1.99h-6.15v-2.09h8.24v2.04h2.04v10.3h-10.28ZM255.71,261.09h-4.06v4.08h4.06v-4.08Z"/>
        <path class="cls-1" d="M277.07,265.2v2.07h-6.2v-2.07h-2.04v-8.24h2.04v-2.04h8.24v4.13h-2.09v-2.04h-4.06v8.16h4.06v-2.09h2.09v2.11h-2.04Z"/>
        <path class="cls-1" d="M288.09,252.9v-2.09h4.13v2.09h-4.13ZM288.09,267.26v-12.34h4.13v12.34h-4.13Z"/>
        <path class="cls-1" d="M311.47,265.2v2.07h-8.24v-2.07h-2.04v-8.24h2.04v-2.04h8.24v2.04h2.04v8.24h-2.04ZM309.38,257.01h-4.06v8.16h4.06v-8.16Z"/>
        <path class="cls-1" d="M330.7,267.26v-10.25h-2.02v2.04h-2.04v8.21h-4.13v-12.34h4.13v2.04h2.02v-2.04h4.13v2.04h2.04v10.3h-4.13Z"/>
        <path class="cls-1" d="M345.86,267.26v-2.07h-2.04v-4.15h2.04v-2.04h6.15v-1.99h-6.15v-2.09h8.24v2.04h2.04v10.3h-10.28ZM352.01,261.09h-4.06v4.08h4.06v-4.08Z"/>
        <path class="cls-1" d="M365.14,267.26v-16.45h4.13v16.45h-4.13Z"/>
        <path class="cls-1" d="M391.35,267.26v-2.07h-2.04v-8.24h2.04v-2.04h6.15v-4.11h4.13v16.45h-10.28ZM397.49,257.01h-4.06v8.16h4.06v-8.16Z"/>
        <path class="cls-1" d="M420.9,265.2v2.07h-8.24v-2.07h-2.04v-8.24h2.04v-2.04h8.24v2.04h2.04v2.09h-2.04v2.04h-4.11v2.04h-2.04v2.04h6.1v-2.09h2.09v2.11h-2.04ZM418.81,257.01h-4.06v4.03h2.02v-2.02h2.04v-2.02Z"/>
        <path class="cls-1" d="M445.04,267.26v-2.07h-2.04v-4.15h2.04v-2.04h6.15v-1.99h-6.15v-2.09h8.24v2.04h2.04v10.3h-10.28ZM451.19,261.09h-4.06v4.08h4.06v-4.08Z"/>
        <path class="cls-1" d="M468.45,259.05v8.21h-4.13v-12.34h4.13v2.04h2.02v-2.04h2.09v4.13h-4.11Z"/>
        <path class="cls-1" d="M485.66,257.01v10.25h-4.13v-10.25h-2.07v-2.09h2.07v-4.11h4.13v4.11h2.04v2.09h-2.04Z"/>
        <path class="cls-1" d="M494.63,252.9v-2.09h4.13v2.09h-4.13ZM494.63,267.26v-12.34h4.13v12.34h-4.13Z"/>
        <path class="cls-1" d="M513.91,265.2v2.07h-6.17v-2.09h4.08v-2.02h-2.04v-2.04l-2.04-.02v-4.13h2.04v-2.04h6.2v2.09h-4.11v2.02h2.04v2.04l2.07-.02v4.15h-2.07Z"/>
        <path class="cls-1" d="M529.08,257.01v10.25h-4.13v-10.25h-2.07v-2.09h2.07v-4.11h4.13v4.11h2.04v2.09h-2.04Z"/>
        <path class="cls-1" d="M540.09,267.26v-2.07h-2.04v-4.15h2.04v-2.04h6.15v-1.99h-6.15v-2.09h8.24v2.04h2.04v10.3h-10.28ZM546.24,261.09h-4.06v4.08h4.06v-4.08Z"/>
        <path class="cls-1" d="M565.54,265.2v2.07h-6.17v-2.09h4.08v-2.02h-2.04v-2.04l-2.04-.02v-4.13h2.04v-2.04h6.2v2.09h-4.11v2.02h2.04v2.04l2.07-.02v4.15h-2.07Z"/>
      </g>
    </g>
  </g>
</svg>