<?xml version="1.0" encoding="UTF-8"?>
<svg xmlns="http://www.w3.org/2000/svg" viewBox="0 0 319.54 333.33">
  <defs>
    <style>
      .cls-1 {
        isolation: isolate;
      }

      .cls-2 {
        fill: #ccc;
        mix-blend-mode: multiply;
      }
    </style>
  </defs>
  <g class="cls-1">
    <g id="Layer_2" data-name="Layer 2">
      <g id="Figuras">
        <path class="cls-2" d="M48.98,133.62l-24.25,33.29L0,133.62h48.98ZM48.98,200.19H0l24.73-33.29,24.25,33.29ZM73.23,100.33l-24.25,33.29-24.73-33.29h48.98ZM73.23,233.47H24.25l24.73-33.29,24.25,33.29ZM160.24,332.85l120.3-165.95L160.24,0,38.99,166.9l121.25,165.95ZM97.48,67.05l-24.25,33.29-24.73-33.29h48.98ZM97.48,266.76h-48.98l24.73-33.29,24.25,33.29ZM121.73,33.76l-24.25,33.29-24.73-33.29h48.98ZM121.73,300.04h-48.98l24.73-33.29,24.25,33.29ZM145.98.48l-24.25,33.29L97,.48h48.98ZM145.98,333.33h-48.98l24.73-33.29,24.25,33.29ZM173.56.48h48.98l-24.73,33.29L173.56.48ZM173.56,333.33l24.25-33.29,24.73,33.29h-48.98ZM197.81,33.76h48.98l-24.73,33.29-24.25-33.29ZM197.81,300.04l24.25-33.29,24.73,33.29h-48.98ZM222.06,67.05h48.98l-24.73,33.29-24.25-33.29ZM222.06,266.76l24.25-33.29,24.73,33.29h-48.98ZM246.31,100.33h48.98l-24.73,33.29-24.25-33.29ZM246.31,233.47l24.25-33.29,24.73,33.29h-48.98ZM270.56,133.62h48.98l-24.73,33.29-24.25-33.29ZM270.56,200.19l24.25-33.29,24.73,33.29h-48.98Z"/>
      </g>
    </g>
  </g>
</svg>