<?xml version="1.0" encoding="UTF-8"?>
<svg xmlns="http://www.w3.org/2000/svg" viewBox="0 0 244.63 333.81">
  <defs>
    <style>
      .cls-1 {
        isolation: isolate;
      }

      .cls-2 {
        fill: #cc3f24;
        mix-blend-mode: multiply;
        opacity: 1.5;
      }
    </style>
  </defs>
  <g class="cls-1">
    <g id="Layer_2" data-name="Layer 2">
      <g id="Figuras">
        <path class="cls-2" d="M158.32,288.03l-35.76,45.78-36.24-45.78L0,169.76l20.98-30.52,88.22,119.69,13.35-17.17,35.76,46.26ZM119.69,204.58l-19.55,25.27L27.18,130.66l19.55-26.23,72.96,100.14ZM118.26,139.72l-17.17,22.41-48.64-66.76,17.64-22.89,48.16,67.24ZM168.33,64.38l-46.26,64.38-46.26-64.85L122.55,0l45.78,64.38ZM122.08,28.61l-24.32,33.86,24.32,32.9,23.84-32.9-23.84-33.86ZM144.49,229.37l-19.55-25.27,72.96-100.14,19.55,26.23-72.96,99.19ZM143.54,161.66l-17.17-22.41,48.16-67.24,17.64,22.89-48.64,66.76ZM223.65,138.77l20.98,30.52-86.31,118.74-22.89-29.57,88.22-119.69Z"/>
      </g>
    </g>
  </g>
</svg>