<?xml version="1.0" encoding="UTF-8"?>
<svg xmlns="http://www.w3.org/2000/svg" viewBox="0 0 296.11 319.72">
  <defs>
    <style>
      .cls-1 {
        fill: #fff;
        fill-rule: evenodd;
      }

      .cls-2 {
        isolation: isolate;
      }

      .cls-3 {
        fill: #ccc;
        mix-blend-mode: multiply;
      }
    </style>
  </defs>
  <g class="cls-2">
    <g id="Layer_2" data-name="Layer 2">
      <g id="Figuras">
        <g>
          <path class="cls-1" d="M4.06,92.77c-.27.09-1.19.16-1.87.24l.53,2.5c.32,1.28.9,2.72.92,4.04l.1,5.1c.66,1.06-.18,3.32-.39,4.3-.21.05-.68.51-.71.79-.32.08-.18,2.26-.18,2.6,0,1.53-.49,3.27.61,4.49.86.96.39,3.55.39,4.83.08.91-.1,1.7.18,2.6.46,1.5,1.99.97,2.24,2.52.18,1.12.15,2.07.75,3.09.92,1.58,1.81,1.64,1.81,3.88,0,.88-.36,1.57-.39,2.38-.02.51.67,1.3.87,1.89.36.86.52,1.28,1,2.07.57.93.59,2.85,1.67,3.21,2.41.82.61,2.61,1.26,4.57.68,2.03-1.9,3.71-.06,6.01.55,1.11,1.39,2.04,2.7,1.6,1.76-.6,4.44,1.2,5.39,2.54,1.08,1.52,1.37,1.41,3.15,1.93,1.8.53,3.71,2.07,5.43,1.04l2.71-1.62c1.02-.61,1.7-.62,2.79-1.02.76-.13,2.19.15,2.79-.12,2.13-.94,2.27-1.54,4.74-1.28.89.09,2.8.47,3.62.14.6-.24,1.01-1.06,1.79-1.3,1.43-.44,1.72-.23,2.66-1.64.39-.58,1.32-2.01,2.05-2.01.02.05-.01.05.06.06.4,1.4,3.38.67,4.25.32.73.07,2.09.08,2.68.45.52.33.47.45,1.14.37,1.14-.12,1.46-.77,1.2-1.85-.21-.88-.42-.8.04-1.62.24-.42.56-.92.75-1.34.14-.32,0-.74.18-1.06.26-.45.92-.04.89-.99l-.08-1.87c.06-.91-.96-.84-.9-1.75.07-1.16.43-.36,1.18-.71,1.34-.62,1.47-1.68,3.29-1.14,1.08.32,1.93.76,2.89,1.32.69.4,1.51.29,2.14.79.37.29.86,1,1.34,1.12.28.07,1.81.68,1.95.59.73-.46,1.02-1.17,1.99-1.04.85.24,1.52.31,2.07.99,1.1,1.36,1.31,2.2,2.85,3.15.61.38.27.67.47,1.22.11.31.56.22.69.43.33.56.23,1.32.65,1.91.86,1.2,1.78.38.98,2.11-.55,1.18-.75,2.06-.24,3.35.03.94.94,1.83.94,2.48,0,.56-.16,1.03-.41,1.5-.51.94.35,1.88.35,2.98,0,.81.14,1.64-.55,2.17-.79.61-.82,2.4-1.4,3.41-.67,1.16-1.45,1.6-1.79,3.09.8.55,2.07,1.25,2.99,1.54,1.12.35.88,1.13,1.51,1.85,1.01,1.15,2.74-.46,3.21,1.83.16.79,1.28,1.05,1.77,1.93.5.9,3.83.53,4.84.89,1.76.62,2.05,2.86,2.66,4.37l.7,1.19s-.09.09-.15.15c-.29.28.01.66-.2.95-.3.39-.73.49-1.14.77-.86.58-.43,1.49-.73,2.29-.24.65-1.51.36-2.05.57-1.92.76-1.5,2.89-1.5,4.59,0,.72-.48.51-.87.87-.42.39-.49.88-1.08,1.06-.71.22-1.22.19-1.81.61-.46.32-.55,1.35-.94,1.56-.24.13-1.05.11-.87.55.5,1.19-1.28.84-1.12,2.19.07.61.2,1.22-.04,1.81-.22.54-1.53,1.19-1.53,1.71,0,.45.39.68.39,1.08,0,.46-.62.77-.45,1.2.21.54.42.79.89,1.14,1.28.96.62,2.99.1,4.22-.52,1.21-1.01,2.43-1.51,3.65-.48,1.15-1.21,2.14-1.73,3.27-.27.58-.49,1.56-.81,2.03,1.3.2,2.47,1.07,3.74,1.42.86.24,2.21-.59,2.75.18,1.46,2.06,2.22-.51,3.64.06.34.14.82.88,1.24,1.12.86.49,1.07.68,2.09.14,1.07-1.07,1.95-1.17,3.34-1.22,1.13-.04,1.45-.99,2.89-.81,1.41.18,4.25-1.16,4.74-.79,1.39,1.04.49,1.1,1.08,2.58.61,1.54.6.41,1.48.37,1.89-.08,3.82-.11,5.65-.51,2.11-.46,1.92-1.81,3.15-3.03.6.06,1.29-1.32,1.77-1.6l3.13-1.77c.86-.49,1.45-.89,2.4-.45,2.12.97,1.7.02,3.68.02,1.42,0,2.38.51,3.03-1.12.09,0,.1-.09.16,0,1.72,0,2.49-1.39,4.03-.3,1.24.88.44,1.58,1.3,2.46,1.04,1.07,1.51,2.6,1.91,4.14.18.69.2,1.97,1.18,1.77,1.21-.25.91.53,1.65,1.08.66.26,1.18,1.58,1.91,1.97.81.44,1.13.18,1.97.18.08,0,1.71,1.83,2.05,2.05.5.33.85.94,1.04,1.5.21.59-.1.87-.37,1.34-.53.92-.07,1.76-.63,2.56-.67.94-1.53,1.71-2.01,2.78.08.57-.22,1.41-.22,2.07,0,.72.37.81.73,1.32.39.56-.25,1.46-.49,1.97-.28.59-2.91.2-3.6.2-.75,0-.92.21-1.51.53-.5.28-1.33,1.03-1.85,1.12.21,1.4-1.93,1.26-2.81,1.26.03.19.67.68.37,1.06-.55.71-.44,1.37-.14,2.17.46,1.22.41,2.54.83,3.8.25.75-.3,1.48.26,2.19.44.55.15,1.67-.2,2.23-.43.95-.95,1.52-1.48,2.38-.41.68.23,1.28.33,1.97.11.71.13.8.47,1.42.4.74-.13,1.42.1,2.17.22.7.62.78.75,1.66l.61.3c.94,0,1.54-1.04,2.01-1.73.21-.31.5-.6.73-.93.35-.5.69-.93,1-1.46.66-.14.99.2,1.61.2.5,0,.97-.77,1.32-.53.61.41,1.25-1.02,1.79-1.28,1.19-.56,3.25-.47,4.17-1.54.48-.56.69-.45,1.38-.45.58,0,1.31-1.01,1.93-1.36,1.15-.64,2.36-.09,3.64-.73.99-.5,2.04-.38,3.01-.85,1.05-.51.49-.89,2.01-1.16.67-.12,1.85-.86,2.44-1.24.69-.46,1.36-.42,2.09-.71.83-.33,2.11-1.78,2.58-2.56.58-.96,1.36-.66,2.03-.08,1.1.96,2.58.82,3.31,2.17.34.62.98.81,1.18,1.48.26.87.16,1.29,1.18,1.56.78.2,1.61.29,2.22.79.48.39.44,1.15.73,1.64.29.48.84.47.96,1.02.07.32-.15.98.35,1.01,1.66.07,2.89.34,2.07,2.4-.26.65-.27,1.17-.14,1.85.16.82-.56,1.43-.83,2.19-.36,1.01.33.88.63,1.73.5,1.42-.22,2.37-.77,3.57-.45.97.81,1.55.49,2.19-1.16,2.32.44,1.79,1.1,3.35.29.68.49,1.21.37,1.99-.15,1.03.6,1.29,1.26,1.75,1.19.84,2.63,2.15,2.83,3.59.14,1.02-.51,1.9-.51,2.92,0,.85-.43,1.57-.14,2.38.57,1.59-1.27,2.66-.92,3.92.59,2.16.08,2.1-.94,4.08-.41.8-.36.57-1.02,1.14-.47.41.19.73.35,1.01.17.27-.36.56-.43.83-.19.75.75.89.89,1.83.12.83,1.17,3.14,1.71,3.78.75.89.49,2.17,1.91,2.03.47-.05,1.06-.24,1.53-.2.45.04.65.38,1.08.49,2.17.57,2-.6,3.25,1.79.3.58.6,1.16.9,1.73.21.4,1.57.47,2.07.73.57.3,1.13.43,1.55.91.24.27.64.54.85.83.35.5.68.84,1.06,1.22.22.22.17.7.33,1,.2.36.61.48,1,.55,1.15.2,2.35.85,3.11-.51.95-1.69,1.05-1.08,2.54-1.08,1.05,0,1.82-1.04,3.01-1,.6.02.87.91,1.81,1,.88.08,3.62-1.13,3.19.77-.47,2.05,1.01,1.14,1.93.77,1.71-.69,2.43,1.68,3.78-.87.25-.47,1.15-2.03,1.87-1.3.52.53.28,1.5,1.32,1.4.58-.06,1.19-1.3,1.77-.97.6.34.61,1.22,1.3,1.54,1.12.52.1-2.71,2.32-1.91,2.16.78,6.88-1.97,3.99-2.92-.94-.31-1.64.23-1.61-1.16.02-1.17,1.1-.22,1.61,0,1.77.75,1.38-1.79,2.81-2.38,1.61-.66,1.44.82,2.46.97.74.1,1.41-.39,2.03.24.77.77.62,1.72,2.01,1.66,1.48-.07,1.6-1,2.68-1.48.93-.41.88-.7,1.89-.2.64.32,1.96.12,2.44-.39.57-.62-1.06-2.31-1.46-2.76-.87-1-.45-1.85.45-1.98l.06-.6c-.58-.35-.54-.64-1.34-.93-.8-.29-1.62.56-1.85-.87-.35-2.19-2.63-.47-2.56-2.52.05-1.29-.46-1.01-1.46-.57-.52.23-.31-.47-.92-.24-.68.26-1.56-1.41-2.26-1.26-2.35.5-3.46.82-5.73-.34l-1-.51c-1.38-.7-1.88.83-2.83-.41-.63-.82-.87-.19-1.77-.02-1.02.19-1.27-.37-2.11-.61-.79-.3-1.64-1.16-2.42-1.62-.8-.46-1.09-.93-1.2-1.85-.07-.55-.25-4.22-1.34-3.8-1.37.53-.17-1.03-.47-1.62-.17-.33.45-.86.65-1.16.84-1.28-.1-2.52-1.06-3.29-.46-.37-.51-1.35,0-1.79.36-.31.73-.41.89-.87.71-.53,1.42-1.44,1.77-2.25.38-.87,1.38-.38,1.95-1.18.34-.48.62-.85,1.24-.93,1.15-.13.42-1.19.77-1.66.35-.47.67-.28.61-.99-.04-.53.45-.88.89-1.12.73-.4,2.26-2.35,2.73-2.35.9,0,.99-.81.59-1.54-.53-.96-.61-.82.3-1.56,1.35-1.1.99-2.28,1.79-3.39.07-.89.42-2.35.16-3.19-.38-1.25.32-1.49.35-2.48.02-.58-.64-.86-.63-1.16.02-.58,1.15-.4,1.55-.87.67-.77.64-2.14,1.2-2.66,1.64-1.53-.68-1.67-.55-2.42.12-.72.28-1.4.28-2.15,0-1.16.46-1.53.77-2.5.77-1.08,1.84-1.34,1.89-2.74.02-.68,1.05-2.02,1.55-2.42.56-.45.58-.99.51-1.68-.1-.91-.4-1.52-.75-2.29-.35-.79-.89-2.45-1.53-2.96l-.67.14c-.35.24-.61.59-.96.85l-.77.57c-.37.28-.63.52-1.12.49-.72-.04-1.29-1.81-1.55-2.4-.14-.31-.41-.69-.45-.99-.66-1.31-1.28-2.71-1.22-4.2.05-1.33.32-2.66.41-4,.07-1.03-.09-1.18-1.14-1.18-1.19,0-2.23.65-3.42.81-1.57.35-2.4.96-3.29-.81-.45-.9-1.32-1.99-2.11-2.58-1.8-1.35-4.6,2.88-6.41,2.88s-4.24.67-5.86.14c-1.57-.52-.92-4.06-.63-5.3.71-1.07,1.11-2.09,1.57-3.25.46-1.16.02-1.77-.24-2.8-.17-.7-1.28.08-1.65.34-.95.66-1.61,1.11-2.38,2.01-.31.36-2.95,1.89-3.11.87-.26-1.68.1-3.48.16-5.18.08-2.51-1.33-5.26-3.84-6.05-1.99-1.84-5.47-3.2-8.03-3.76-2.97-.66-5.52.65-7.3-2.4-.75-1.29-2.03-1.49-2.7-2.9-.5-1.06.23-1.56.26-2.54.14-1.79-1.65-3.98-3.32-4.39-.48-.12-1.5.33-1.5-.49,0-.9.83-1.59.83-2.36,0-1.09-1.2-1.69-1.44-2.82-.2-.96,1.33-2.89,1.95-3.63,1.18-.44,3.31-.44,4.17-1.3.59-.59,1.1-2.19.92-3.03-.08-.4-1.56-1.41-1.99-1.48-.59-1.77,1.48-1.82,1.48-3.47,0-1.15-1.51-2.68-1.77-4.04-.35-1.8,3.72-6.38,5.29-6.07.78.15,1.82.83,2.56.83.55,0,1.04-.12,1.55-.14,1.62-.06,1.46-.07,2.44,1.04.17.2,1.41-.11,1.67-.16.64.52,1.16,1.5,1.67,2.15.5.63.76,1.66,1.75,1.06.31-.18,1.03-.95,1.22-1.26.49-.79,1.49-.97,2.38-.97,1.17,0,1.54-1.33,1.18-2.42-.24-.72-1.41-2.71-1.08-3.51.43-1.04.82-1.36.28-2.52.17-2.51,3.24-.67,4.07-3.29l2.09-6.56c.45-1.43.99-2.01,1.73-3.19.92-1.46-1.85-2.47-1.63-3.72.68-.68,1.85-1.59,2.22-2.5.22-.52,1.15-1.74,1.75-1.79.47-1.05.47-1.29.41-2.48-.02-.45-.39-2.08-.18-2.33.46-.51.4-.7.33-1.38-.03-.34-.26-2.26-.41-2.33,0-.07-.04-.13,0-.2.74,0,1.64.2,2.24.2.53,1.85,1.07,2.36,2.72.71.34-.34.99-.23,1.46-.41,2.58,0,2.51-.27,1.73,1.5-.4.89-.53,2.43-.47,3.45.05.89,1,1.35,1.75,1.48,1.54.27,1.63.15,2.95-.18.4-.1,1.91-.5,1.08.61-.57.76.36.73.96.73,1.19,0,1.31,1.15,2.03,1.75,1.76,1.47,3.7,2.42,4.7-.57.53-1.59,2.02-1.61,2.99-2.58.61-.61,3.22-1.82,3.97-2.29l2.14-1.32c.8-.17,1.67-.31,2.05-1.12.3-.64.31-.81.94-1.16,1.18-.66.71-1.52,2.05-1.93.41-.13.32-.38.59-.63.15-.14.9-.04,1.12-.04,1.04,0,2.01,0,2.72.79.41.47,1.13.39,1.69.35.8-.05.73.75,1.36.91.25.06,1.09-1.27,1.34-1.56.38-.43.47-.89.61-1.44.27-1.36.46-2.49,1.24-3.65.72-1.06,1.84-1.76,2.48-2.84.15-.26.02-.56.16-.79.44-.74,1.26-.68,1.57-1.75.21-.72.61-1.8,1.51-1.71.55.05.95.43,1.63.43.34.53.68,1.48,1.4,1.48.48,0,1.1-.36,1.57-.1.28.15.31.54.63.71.54.28,1.09.05,1.63.51.42.36.9,1.23.81,1.77-.19,1.18,3.07,5.3,4.27,4.95.94-.28,2.02.05,2.97-.1,1.34-.21.43-.95.9-1.68.43-.66,1.14-2.27,1.81-2.42,1.37-.32,1.54-3.51,3.84-2.92.12-.65-.28-.79-.61-1.24-.37-.49-.06-1.43-.06-2.11s-.1-1.24-.14-1.87c-.04-.68-.76-1.53-1.3-1.85-.24-.14-.63-.42-.63-.73,0-.51.17-.72.06-1.32-.14-.73-.38-1.36-.55-2.01-.16-.58,1.09-.86,1.42-1.06,1.1-.69-.26-2.32,1.4-3.01.8-.34,1.56-1.28,1.71-2.25.26-1.65,2.03-1.99,2.03-3.59,0-.77-.1-1.37.28-2.05.41-.73,1.07-.82,1.55-1.73.36-.67.65-1.46,1.48-1.73.61-.2.89-.25,1-.93.07-.4-.1-.51.1-.95.41-.92.39-1.98.82-3.02.47-1.21-.03-1.33-.03-2.58,0-.95-.06-1.48-.89-2.03-.68-.45-2.14-1.53-3.01-1.56-.9-.03-1.12-.48-1.81-.61-.97-.19-1.64-.18-2.44-.83-.88-.71-.71-1.48-2.01-1.64l-3.99-.49-9.42-8.04c-2.39-2.06-5.05-3.48-7.2-5.77-1.39-1.48-3.04-3.44-4.64-4.55-1.37-.95-1.95-1.89-2.58-3.49l.1-1.79c0-1.15,2.31-5.24.96-5.58-.84-.21-.82-.85-1.46-1.12-1.16-.5-.1-1.71-.61-2.4-.37-.51-.51-.71-.67-1.36-.24-.98-.15-.5-1.14-.75-.53-.03-2.4-.28-2.56-.99-.16-.69.38-1.51.24-2.33-.31-1.77-1.63-3.5-3.38-3.8-1.86-.33-1.72-1.23-.22-2.01.9-.47,3.18-.7,3.11-2.11-.04-.82.24-1.96-.28-2.66-.56-1.03-1.31-.76-.43-2.03.93-1.35-1.06-1.18-1.24-1.93-.12-.53-.07-1.23-.16-1.79-.1-.64-.23-1.5.61-1.6.98-.11,1.78.39,2.85.14,1.29-.3,2.1-1.87,1.18-3.03l-.9.81c-.56.39-.64.74-1.32.53-.44-.14-.7-.45-1.08-.65-.88-.47-2.23-.05-2.91-.75-.54-.55-.96-.56-1.77-.34-.9.25-2.16.45-3.09.39-.48-.03-.89-.33-1.46-.37-.31-.08-.72-.96-.85-1.26-.8,0-4.38,1.21-4.9.61-.99-1.14-1.13-3.08-2.22-3.96l-2.56-2.07c-1.17-.94-5.3-.07-6.95-.69-.99-.37-1.96-1.06-3.05-.73-1.24.38-3.19.73-4.51.49-.6-.02-1.39-.05-1.83-.43-.34-.29-.35-.39-.87-.39-1.31,0-2.19-.05-3.46-.32-2.62-.54-3.94-1.93-6.1-3.07-.93-.49-3.25-.31-3.88-.89-.49-.45-.04-1-.95-1.17-.02.49-.04,1.1-.19,1.31-.26.36-.48-.27-.71-.06-.04.04.22,1.88-.49.95-1.02-1.34-.55,1.29-.63,1.83-.22,1.53-1.3-.2-1.85-.2-.5,0-.63,1.25-.33,1.42.28.16.74,0,1.06.1.5.15-.24,1.82.24,1.54,1.1-.65.76-.25,1.22.61.38.7,1.8.43,1.42,1.6-.13.39.53,1.62.02,1.62-.22,0-.63-.38-.65.12-.04,1.06.42.6-.65,1.04-1.75.72.95,1.8.04,2.8-.35.39-.89-.22-1.16.18-.13.2-.01.57-.3.67-.73.26-1.27-.56-1.53.69-.11.51.64.61.45,1.04-.23.53-1.33,1.14-.55,1.97.78.82.9.55.29,1.54-.15.25-.83.48-.57.85.55.78-.63.39-.96,1.12-.23.51.39.87.39,1.44,0,.51-.38.41-.65.16-.4-.37-1.03.03-1.24.45-.1.21-.04.4-.28.49-.21.08-.57.3-.69.49-.25.42-.42.95.02,1.3.29.23.62.59.47,1-.17.5-.83.98-1.28.53-.39-.39-.67.07-.9.43-.13.21-.37.28-.73.2-1.14-.26-1.79,1.65-3.11.41-.41-.38-.1-.92-.12-1.4-.02-.59-.85-.81-1.32-.81-.02,0-.81.14-1.02.51-.14.26-.09.68-.33.81-1.47.78-.36.64-.92,1.73-.19.36-.63.17-.85.59-.3.6-.01,1.38-1.1,1.06-.43-.13-1.14-.67-1.53-.67-.08,0-.17,0-.23,0l-.32-.68c-.56-.42-.46-2.78-.77-3.47-2.41,0-3.86,5.66-6.26,3.65-.98-.83-1.48-.95-2.6-1.56-.52-.28-.76-.79-1.24-1.04-.64-.34-1.47-.12-2.2-.12-1.12,0-1.17-.25-1.93-.93-1.84-1.63-2.7-3.35-1.4-5.64.64-2.4-1.01-3.16-1.71-4.93-.2-.5-.13-1.09-.43-1.52-.45-.65-.98-.56-1.04-1.58-.06-.87-1.75-.73-2.36-.51-.37.13-.85.91-1.18,1.22-2.12,1.99-2.28,1.42-5.02,1.42-1.19,0-2.94.83-3.9.22-.55-.35-.61-.47-1.3-.33l-1.75.35c-2.24.71-4.23.56-4.35,3.72-.07,1.89,0,4.06-1.46,5.36-.81.72-.05,2.94-1.34,3.41-1.15.42-4.51.18-5.35-.73-.42-.46-.81-1.87-1.02-2.03-.24-.18-1.13-.31-1.2-.45-1.09-2.06.49-.98-2.14-1.66-.89-.23-1.58-.34-2.36-.87-.6-.41-1.21-.33-1.59-.59-.94,0-2.3-1.01-2.75-.87-1.42.44-1.87-.4-2.91-1.02-2.51-1.51-2.64-1-4.86.47-1.03.68-2,2.56-3.32.95-1.26-1.54-3.53.33-4.82,1.16l-2.32,1.5c-.33.21-.36.81-.65,1.12-1.25,1.33-2.04.36-2.85,1.36-.43.77-.24,2.2-1.36,2.35-1.18.16-1.23.06-2.22-.73l-3.88-3.09c-.34-.27-1.04.72-1.5.37-.36-.28-1.06-.8-.59-1.18.31-.25,1.24-.68,1.24-1.16-.07-.01-.04,0-.06-.06-1.36,0-1.77-.46-2.79-1.12-.36-.23-2.18-1.44-2.52-1.36-.68.16-.24,1.24-.71,1.42-1.33.51-.74.23-1.38,1.48-.27.53-.8.33-1.2.63-.3.23-.47.94-.81,1.06-.44.17-1.13-.43-1.61-.59-1.11-.37-.84-.2-.79-1.22.14-2.41-.73-3.24-2.24-4.81-.32-.7.27-1,.04-1.64-.19-.51-.59-.49-.73-1.08-.27-1.15-2.11,0-2.36-1.66-.14-.91-.91-.87-1.22-1.6-.48-1.13-.48-2.11-2.07-2.11s-2.53.79-3.88,1.36c-.93.39-1.23.11-1.18,1.24.11,2.34-1.16,3.33-3.21,1.73-1.04-.81-.3-.42-1.1-.14l-.92,1.48c.15.49,2.42,2.01,1.1,2.01-.51,0-1.11-.03-1.5.34-.34.33-.47,1.08-.83.49-.39-.64-.12-.85-.9-1.28-.73-.4-1.09-.88-1.42-1.66-1.14-2.66-2.91,1.35-2.77,2.6l-2.6,5.14c-.9,1.78-2.23,2.7-3.09,4.43-.51,1.03-1.61,1.61-2.3,2.66-1.36,2.04-1.8,2.64-4.09,3.61-.63.58-1.32.96-1.79,1.68-.63.96-.12.9-1.2,1.44-.88.44-1.94,3.52-2.6,4.43-.7.97-1.06,1.55-.83,2.6.14.65-2.07,2.25-1.55,3.15.89,0,1.56-2.35,2.46-2.72.27-.11,2.12,1.66,2.38,1.69.16.97-1.41,1.25-.45,2.56.41.71,5.18,5.37,1.93,4-.8-.34-1.58-.55-2.5-.55-1.53,0-1.77,1.36-2.46,2.46-.52.83.19,1.21.04,1.85-.15.63-1.1.61-1.1,1.62,0,1.48,1.85,3.27,2.87,4.16.22.19,1.15.74,1.1.81-.23.36-.98.56-1.38.43-.57-.19-.75-.61-1.12-1.02-1.47-1.62-2.01-.24-2.79,1.24-.6,1.47-.79,3.93-2.71,3.25-1.02-.36-3.29,3.12-4.01,3.69-1.19.92.23,1.07,1,1.1,1.37.06,1.83,1.07,2.85,1.48.55.22,1.3-.4,1.48-.2.15.17.33,1.49.29,1.73-.97.2-1.59-.34-2.5-.63-1.87-.61-1.61,0-2.03,1.4-.21.7-1.35-.1-1.91-.1-.67,0-2.43,1.14-2.56,1.06-.47-.27-.6-.8-1.12-.14-.42.53-.42,1.31-.81,1.73-.1.99-.82,2.6.67,2.6.03.05.02.05.08.06.15,1.07-.85,2.08-.67,2.9.41.12,1.98,1.65,1.44,2.09-1.08.88-.06,1.33-.14,2.54l-.12,1.81c-.05.84.4,1.71-.79,1.08-.36-.19-.29-.7-.47-1.02-.47-.82-.33-3.06-1.69-3.23-.35-.79.48-1.13-.61-1.97-.68-.53-1.88-.38-2.62-.81-2.28-1.33-.87,2.72-2.79.73-.72-.61-1.63-.43-2.46-.24-.78.18-1.21,1.25-1.3,1.99-.04.3-.46,1.15-.83.87-.4-.31-.24-1.18-.69-1.44-.61-.34-1.82,1.06-2.34,1.38-.04.25-.87,1.41-.59,1.5.2.06,1.16.05,1.16.28,0,.95.05,2.29-.92,2.62Z"/>
          <g>
            <path class="cls-3" d="M47.26,66.42l2.37-3.3,2.32,3.3-2.32,3.2-2.37-3.2ZM51.95,59.92l2.41-3.3,2.32,3.3-2.32,3.2-2.41-3.2ZM51.95,66.42l2.41-3.3,2.32,3.3-2.32,3.2-2.41-3.2ZM51.95,72.92l2.41-3.3,2.32,3.3-2.32,3.2-2.41-3.2ZM56.68,53.42l2.37-3.3,2.32,3.3-2.32,3.2-2.37-3.2ZM56.68,59.92l2.37-3.3,2.32,3.3-2.32,3.2-2.37-3.2ZM56.68,66.42l2.37-3.3,2.32,3.3-2.32,3.2-2.37-3.2ZM56.68,72.92l2.37-3.3,2.32,3.3-2.32,3.2-2.37-3.2ZM56.68,79.42l2.37-3.3,2.32,3.3-2.32,3.2-2.37-3.2ZM61.37,59.92l2.37-3.3,2.41,3.3-2.41,3.2-2.37-3.2ZM61.37,66.42l2.37-3.3,2.41,3.3-2.41,3.2-2.37-3.2ZM61.37,72.92l2.37-3.3,2.41,3.3-2.41,3.2-2.37-3.2ZM66.15,66.42l2.37-3.3,2.32,3.3-2.32,3.2-2.37-3.2Z"/>
            <path class="cls-3" d="M47.26,98.92l2.37-3.3,2.32,3.3-2.32,3.2-2.37-3.2ZM51.95,92.42l2.41-3.3,2.32,3.3-2.32,3.2-2.41-3.2ZM51.95,98.92l2.41-3.3,2.32,3.3-2.32,3.2-2.41-3.2ZM51.95,105.41l2.41-3.3,2.32,3.3-2.32,3.2-2.41-3.2ZM56.68,85.92l2.37-3.3,2.32,3.3-2.32,3.2-2.37-3.2ZM56.68,92.42l2.37-3.3,2.32,3.3-2.32,3.2-2.37-3.2ZM56.68,98.92l2.37-3.3,2.32,3.3-2.32,3.2-2.37-3.2ZM56.68,105.41l2.37-3.3,2.32,3.3-2.32,3.2-2.37-3.2ZM56.68,111.91l2.37-3.3,2.32,3.3-2.32,3.2-2.37-3.2ZM61.37,92.42l2.37-3.3,2.41,3.3-2.41,3.2-2.37-3.2ZM61.37,98.92l2.37-3.3,2.41,3.3-2.41,3.2-2.37-3.2ZM61.37,105.41l2.37-3.3,2.41,3.3-2.41,3.2-2.37-3.2ZM66.15,98.92l2.37-3.3,2.32,3.3-2.32,3.2-2.37-3.2Z"/>
            <path class="cls-3" d="M103.85,20.93l2.37-3.3,2.32,3.3-2.32,3.2-2.37-3.2ZM108.53,14.43l2.41-3.3,2.32,3.3-2.32,3.2-2.41-3.2ZM108.53,20.93l2.41-3.3,2.32,3.3-2.32,3.2-2.41-3.2ZM108.53,27.43l2.41-3.3,2.32,3.3-2.32,3.2-2.41-3.2ZM113.27,7.93l2.37-3.3,2.32,3.3-2.32,3.2-2.37-3.2ZM113.27,14.43l2.37-3.3,2.32,3.3-2.32,3.2-2.37-3.2ZM113.27,20.93l2.37-3.3,2.32,3.3-2.32,3.2-2.37-3.2ZM113.27,27.43l2.37-3.3,2.32,3.3-2.32,3.2-2.37-3.2ZM113.27,33.93l2.37-3.3,2.32,3.3-2.32,3.2-2.37-3.2ZM117.96,14.43l2.37-3.3,2.41,3.3-2.41,3.2-2.37-3.2ZM117.96,20.93l2.37-3.3,2.41,3.3-2.41,3.2-2.37-3.2ZM117.96,27.43l2.37-3.3,2.41,3.3-2.41,3.2-2.37-3.2ZM122.74,20.93l2.37-3.3,2.32,3.3-2.32,3.2-2.37-3.2Z"/>
            <path class="cls-3" d="M103.85,53.42l2.37-3.3,2.32,3.3-2.32,3.2-2.37-3.2ZM108.53,46.92l2.41-3.3,2.32,3.3-2.32,3.2-2.41-3.2ZM108.53,53.42l2.41-3.3,2.32,3.3-2.32,3.2-2.41-3.2ZM108.53,59.92l2.41-3.3,2.32,3.3-2.32,3.2-2.41-3.2ZM113.27,40.42l2.37-3.3,2.32,3.3-2.32,3.2-2.37-3.2ZM113.27,46.92l2.37-3.3,2.32,3.3-2.32,3.2-2.37-3.2ZM113.27,53.42l2.37-3.3,2.32,3.3-2.32,3.2-2.37-3.2ZM113.27,59.92l2.37-3.3,2.32,3.3-2.32,3.2-2.37-3.2ZM113.27,66.42l2.37-3.3,2.32,3.3-2.32,3.2-2.37-3.2ZM117.96,46.92l2.37-3.3,2.41,3.3-2.41,3.2-2.37-3.2ZM117.96,53.42l2.37-3.3,2.41,3.3-2.41,3.2-2.37-3.2ZM117.96,59.92l2.37-3.3,2.41,3.3-2.41,3.2-2.37-3.2ZM122.74,53.42l2.37-3.3,2.32,3.3-2.32,3.2-2.37-3.2Z"/>
            <path class="cls-3" d="M94.38,33.93l2.37-3.3,2.32,3.3-2.32,3.2-2.37-3.2ZM99.06,27.43l2.41-3.3,2.32,3.3-2.32,3.2-2.41-3.2ZM99.06,33.93l2.41-3.3,2.32,3.3-2.32,3.2-2.41-3.2ZM99.06,40.42l2.41-3.3,2.32,3.3-2.32,3.2-2.41-3.2ZM103.8,20.93l2.37-3.3,2.32,3.3-2.32,3.2-2.37-3.2ZM103.8,27.43l2.37-3.3,2.32,3.3-2.32,3.2-2.37-3.2ZM103.8,33.93l2.37-3.3,2.32,3.3-2.32,3.2-2.37-3.2ZM103.8,40.42l2.37-3.3,2.32,3.3-2.32,3.2-2.37-3.2ZM103.8,46.92l2.37-3.3,2.32,3.3-2.32,3.2-2.37-3.2ZM108.49,27.43l2.37-3.3,2.41,3.3-2.41,3.2-2.37-3.2ZM108.49,33.93l2.37-3.3,2.41,3.3-2.41,3.2-2.37-3.2ZM108.49,40.42l2.37-3.3,2.41,3.3-2.41,3.2-2.37-3.2ZM113.27,33.93l2.37-3.3,2.32,3.3-2.32,3.2-2.37-3.2Z"/>
            <path class="cls-3" d="M94.38,66.42l2.37-3.3,2.32,3.3-2.32,3.2-2.37-3.2ZM99.06,59.92l2.41-3.3,2.32,3.3-2.32,3.2-2.41-3.2ZM99.06,66.42l2.41-3.3,2.32,3.3-2.32,3.2-2.41-3.2ZM99.06,72.92l2.41-3.3,2.32,3.3-2.32,3.2-2.41-3.2ZM103.8,53.42l2.37-3.3,2.32,3.3-2.32,3.2-2.37-3.2ZM103.8,59.92l2.37-3.3,2.32,3.3-2.32,3.2-2.37-3.2ZM103.8,66.42l2.37-3.3,2.32,3.3-2.32,3.2-2.37-3.2ZM103.8,72.92l2.37-3.3,2.32,3.3-2.32,3.2-2.37-3.2ZM103.8,79.42l2.37-3.3,2.32,3.3-2.32,3.2-2.37-3.2ZM108.49,59.92l2.37-3.3,2.41,3.3-2.41,3.2-2.37-3.2ZM108.49,66.42l2.37-3.3,2.41,3.3-2.41,3.2-2.37-3.2ZM108.49,72.92l2.37-3.3,2.41,3.3-2.41,3.2-2.37-3.2ZM113.27,66.42l2.37-3.3,2.32,3.3-2.32,3.2-2.37-3.2Z"/>
            <path class="cls-3" d="M85,46.92l2.37-3.3,2.32,3.3-2.32,3.2-2.37-3.2ZM89.69,40.42l2.41-3.3,2.32,3.3-2.32,3.2-2.41-3.2ZM89.69,46.92l2.41-3.3,2.32,3.3-2.32,3.2-2.41-3.2ZM89.69,53.42l2.41-3.3,2.32,3.3-2.32,3.2-2.41-3.2ZM94.42,33.93l2.37-3.3,2.32,3.3-2.32,3.2-2.37-3.2ZM94.42,40.42l2.37-3.3,2.32,3.3-2.32,3.2-2.37-3.2ZM94.42,46.92l2.37-3.3,2.32,3.3-2.32,3.2-2.37-3.2ZM94.42,53.42l2.37-3.3,2.32,3.3-2.32,3.2-2.37-3.2ZM94.42,59.92l2.37-3.3,2.32,3.3-2.32,3.2-2.37-3.2ZM99.11,40.42l2.37-3.3,2.41,3.3-2.41,3.2-2.37-3.2ZM99.11,46.92l2.37-3.3,2.41,3.3-2.41,3.2-2.37-3.2ZM99.11,53.42l2.37-3.3,2.41,3.3-2.41,3.2-2.37-3.2ZM103.89,46.92l2.37-3.3,2.32,3.3-2.32,3.2-2.37-3.2Z"/>
            <path class="cls-3" d="M85,79.42l2.37-3.3,2.32,3.3-2.32,3.2-2.37-3.2ZM89.69,72.92l2.41-3.3,2.32,3.3-2.32,3.2-2.41-3.2ZM89.69,79.42l2.41-3.3,2.32,3.3-2.32,3.2-2.41-3.2ZM89.69,85.92l2.41-3.3,2.32,3.3-2.32,3.2-2.41-3.2ZM94.42,66.42l2.37-3.3,2.32,3.3-2.32,3.2-2.37-3.2ZM94.42,72.92l2.37-3.3,2.32,3.3-2.32,3.2-2.37-3.2ZM94.42,79.42l2.37-3.3,2.32,3.3-2.32,3.2-2.37-3.2ZM94.42,85.92l2.37-3.3,2.32,3.3-2.32,3.2-2.37-3.2ZM94.42,92.42l2.37-3.3,2.32,3.3-2.32,3.2-2.37-3.2ZM99.11,72.92l2.37-3.3,2.41,3.3-2.41,3.2-2.37-3.2ZM99.11,79.42l2.37-3.3,2.41,3.3-2.41,3.2-2.37-3.2ZM99.11,85.92l2.37-3.3,2.41,3.3-2.41,3.2-2.37-3.2ZM103.89,79.42l2.37-3.3,2.32,3.3-2.32,3.2-2.37-3.2Z"/>
            <path class="cls-3" d="M75.53,59.92l2.37-3.3,2.32,3.3-2.32,3.2-2.37-3.2ZM80.22,53.42l2.41-3.3,2.32,3.3-2.32,3.2-2.41-3.2ZM80.22,59.92l2.41-3.3,2.32,3.3-2.32,3.2-2.41-3.2ZM80.22,66.42l2.41-3.3,2.32,3.3-2.32,3.2-2.41-3.2ZM84.95,46.92l2.37-3.3,2.32,3.3-2.32,3.2-2.37-3.2ZM84.95,53.42l2.37-3.3,2.32,3.3-2.32,3.2-2.37-3.2ZM84.95,59.92l2.37-3.3,2.32,3.3-2.32,3.2-2.37-3.2ZM84.95,66.42l2.37-3.3,2.32,3.3-2.32,3.2-2.37-3.2ZM84.95,72.92l2.37-3.3,2.32,3.3-2.32,3.2-2.37-3.2ZM89.64,53.42l2.37-3.3,2.41,3.3-2.41,3.2-2.37-3.2ZM89.64,59.92l2.37-3.3,2.41,3.3-2.41,3.2-2.37-3.2ZM89.64,66.42l2.37-3.3,2.41,3.3-2.41,3.2-2.37-3.2ZM94.42,59.92l2.37-3.3,2.32,3.3-2.32,3.2-2.37-3.2Z"/>
            <path class="cls-3" d="M75.53,92.42l2.37-3.3,2.32,3.3-2.32,3.2-2.37-3.2ZM80.22,85.92l2.41-3.3,2.32,3.3-2.32,3.2-2.41-3.2ZM80.22,92.42l2.41-3.3,2.32,3.3-2.32,3.2-2.41-3.2ZM80.22,98.92l2.41-3.3,2.32,3.3-2.32,3.2-2.41-3.2ZM84.95,79.42l2.37-3.3,2.32,3.3-2.32,3.2-2.37-3.2ZM84.95,85.92l2.37-3.3,2.32,3.3-2.32,3.2-2.37-3.2ZM84.95,92.42l2.37-3.3,2.32,3.3-2.32,3.2-2.37-3.2ZM84.95,98.92l2.37-3.3,2.32,3.3-2.32,3.2-2.37-3.2ZM84.95,105.41l2.37-3.3,2.32,3.3-2.32,3.2-2.37-3.2ZM89.64,85.92l2.37-3.3,2.41,3.3-2.41,3.2-2.37-3.2ZM89.64,92.42l2.37-3.3,2.41,3.3-2.41,3.2-2.37-3.2ZM89.64,98.92l2.37-3.3,2.41,3.3-2.41,3.2-2.37-3.2ZM94.42,92.42l2.37-3.3,2.32,3.3-2.32,3.2-2.37-3.2Z"/>
            <path class="cls-3" d="M108.58,72.92l2.37-3.3,2.32,3.3-2.32,3.2-2.37-3.2ZM113.27,66.42l2.41-3.3,2.32,3.3-2.32,3.2-2.41-3.2ZM113.27,72.92l2.41-3.3,2.32,3.3-2.32,3.2-2.41-3.2ZM113.27,79.42l2.41-3.3,2.32,3.3-2.32,3.2-2.41-3.2ZM118,59.92l2.37-3.3,2.32,3.3-2.32,3.2-2.37-3.2ZM118,66.42l2.37-3.3,2.32,3.3-2.32,3.2-2.37-3.2ZM118,72.92l2.37-3.3,2.32,3.3-2.32,3.2-2.37-3.2ZM118,79.42l2.37-3.3,2.32,3.3-2.32,3.2-2.37-3.2ZM118,85.92l2.37-3.3,2.32,3.3-2.32,3.2-2.37-3.2ZM122.69,66.42l2.37-3.3,2.41,3.3-2.41,3.2-2.37-3.2ZM122.69,72.92l2.37-3.3,2.41,3.3-2.41,3.2-2.37-3.2ZM122.69,79.42l2.37-3.3,2.41,3.3-2.41,3.2-2.37-3.2ZM127.47,72.92l2.37-3.3,2.32,3.3-2.32,3.2-2.37-3.2Z"/>
            <path class="cls-3" d="M108.58,105.41l2.37-3.3,2.32,3.3-2.32,3.2-2.37-3.2ZM113.27,98.92l2.41-3.3,2.32,3.3-2.32,3.2-2.41-3.2ZM113.27,105.41l2.41-3.3,2.32,3.3-2.32,3.2-2.41-3.2ZM113.27,111.91l2.41-3.3,2.32,3.3-2.32,3.2-2.41-3.2ZM118,92.42l2.37-3.3,2.32,3.3-2.32,3.2-2.37-3.2ZM118,98.92l2.37-3.3,2.32,3.3-2.32,3.2-2.37-3.2ZM118,105.41l2.37-3.3,2.32,3.3-2.32,3.2-2.37-3.2ZM118,111.91l2.37-3.3,2.32,3.3-2.32,3.2-2.37-3.2ZM118,118.41l2.37-3.3,2.32,3.3-2.32,3.2-2.37-3.2ZM122.69,98.92l2.37-3.3,2.41,3.3-2.41,3.2-2.37-3.2ZM122.69,105.41l2.37-3.3,2.41,3.3-2.41,3.2-2.37-3.2ZM122.69,111.91l2.37-3.3,2.41,3.3-2.41,3.2-2.37-3.2ZM127.47,105.41l2.37-3.3,2.32,3.3-2.32,3.2-2.37-3.2Z"/>
            <path class="cls-3" d="M99.11,85.92l2.37-3.3,2.32,3.3-2.32,3.2-2.37-3.2ZM103.8,79.42l2.41-3.3,2.32,3.3-2.32,3.2-2.41-3.2ZM103.8,85.92l2.41-3.3,2.32,3.3-2.32,3.2-2.41-3.2ZM103.8,92.42l2.41-3.3,2.32,3.3-2.32,3.2-2.41-3.2ZM108.53,72.92l2.37-3.3,2.32,3.3-2.32,3.2-2.37-3.2ZM108.53,79.42l2.37-3.3,2.32,3.3-2.32,3.2-2.37-3.2ZM108.53,85.92l2.37-3.3,2.32,3.3-2.32,3.2-2.37-3.2ZM108.53,92.42l2.37-3.3,2.32,3.3-2.32,3.2-2.37-3.2ZM108.53,98.92l2.37-3.3,2.32,3.3-2.32,3.2-2.37-3.2ZM113.22,79.42l2.37-3.3,2.41,3.3-2.41,3.2-2.37-3.2ZM113.22,85.92l2.37-3.3,2.41,3.3-2.41,3.2-2.37-3.2ZM113.22,92.42l2.37-3.3,2.41,3.3-2.41,3.2-2.37-3.2ZM118,85.92l2.37-3.3,2.32,3.3-2.32,3.2-2.37-3.2Z"/>
            <path class="cls-3" d="M99.11,118.41l2.37-3.3,2.32,3.3-2.32,3.2-2.37-3.2ZM103.8,111.91l2.41-3.3,2.32,3.3-2.32,3.2-2.41-3.2ZM103.8,118.41l2.41-3.3,2.32,3.3-2.32,3.2-2.41-3.2ZM103.8,124.91l2.41-3.3,2.32,3.3-2.32,3.2-2.41-3.2ZM108.53,105.41l2.37-3.3,2.32,3.3-2.32,3.2-2.37-3.2ZM108.53,111.91l2.37-3.3,2.32,3.3-2.32,3.2-2.37-3.2ZM108.53,118.41l2.37-3.3,2.32,3.3-2.32,3.2-2.37-3.2ZM108.53,124.91l2.37-3.3,2.32,3.3-2.32,3.2-2.37-3.2ZM108.53,131.41l2.37-3.3,2.32,3.3-2.32,3.2-2.37-3.2ZM113.22,111.91l2.37-3.3,2.41,3.3-2.41,3.2-2.37-3.2ZM113.22,118.41l2.37-3.3,2.41,3.3-2.41,3.2-2.37-3.2ZM113.22,124.91l2.37-3.3,2.41,3.3-2.41,3.2-2.37-3.2ZM118,118.41l2.37-3.3,2.32,3.3-2.32,3.2-2.37-3.2Z"/>
            <path class="cls-3" d="M89.73,98.92l2.37-3.3,2.32,3.3-2.32,3.2-2.37-3.2ZM94.42,92.42l2.41-3.3,2.32,3.3-2.32,3.2-2.41-3.2ZM94.42,98.92l2.41-3.3,2.32,3.3-2.32,3.2-2.41-3.2ZM94.42,105.41l2.41-3.3,2.32,3.3-2.32,3.2-2.41-3.2ZM99.16,85.92l2.37-3.3,2.32,3.3-2.32,3.2-2.37-3.2ZM99.16,92.42l2.37-3.3,2.32,3.3-2.32,3.2-2.37-3.2ZM99.16,98.92l2.37-3.3,2.32,3.3-2.32,3.2-2.37-3.2ZM99.16,105.41l2.37-3.3,2.32,3.3-2.32,3.2-2.37-3.2ZM99.16,111.91l2.37-3.3,2.32,3.3-2.32,3.2-2.37-3.2ZM103.85,92.42l2.37-3.3,2.41,3.3-2.41,3.2-2.37-3.2ZM103.85,98.92l2.37-3.3,2.41,3.3-2.41,3.2-2.37-3.2ZM103.85,105.41l2.37-3.3,2.41,3.3-2.41,3.2-2.37-3.2ZM108.63,98.92l2.37-3.3,2.32,3.3-2.32,3.2-2.37-3.2Z"/>
            <path class="cls-3" d="M89.73,131.41l2.37-3.3,2.32,3.3-2.32,3.2-2.37-3.2ZM94.42,124.91l2.41-3.3,2.32,3.3-2.32,3.2-2.41-3.2ZM94.42,131.41l2.41-3.3,2.32,3.3-2.32,3.2-2.41-3.2ZM94.42,137.91l2.41-3.3,2.32,3.3-2.32,3.2-2.41-3.2ZM99.16,118.41l2.37-3.3,2.32,3.3-2.32,3.2-2.37-3.2ZM99.16,124.91l2.37-3.3,2.32,3.3-2.32,3.2-2.37-3.2ZM99.16,131.41l2.37-3.3,2.32,3.3-2.32,3.2-2.37-3.2ZM99.16,137.91l2.37-3.3,2.32,3.3-2.32,3.2-2.37-3.2ZM99.16,144.41l2.37-3.3,2.32,3.3-2.32,3.2-2.37-3.2ZM103.85,124.91l2.37-3.3,2.41,3.3-2.41,3.2-2.37-3.2ZM103.85,131.41l2.37-3.3,2.41,3.3-2.41,3.2-2.37-3.2ZM103.85,137.91l2.37-3.3,2.41,3.3-2.41,3.2-2.37-3.2ZM108.63,131.41l2.37-3.3,2.32,3.3-2.32,3.2-2.37-3.2Z"/>
            <path class="cls-3" d="M80.26,111.91l2.37-3.3,2.32,3.3-2.32,3.2-2.37-3.2ZM84.95,105.41l2.41-3.3,2.32,3.3-2.32,3.2-2.41-3.2ZM84.95,111.91l2.41-3.3,2.32,3.3-2.32,3.2-2.41-3.2ZM84.95,118.41l2.41-3.3,2.32,3.3-2.32,3.2-2.41-3.2ZM89.69,98.92l2.37-3.3,2.32,3.3-2.32,3.2-2.37-3.2ZM89.69,105.41l2.37-3.3,2.32,3.3-2.32,3.2-2.37-3.2ZM89.69,111.91l2.37-3.3,2.32,3.3-2.32,3.2-2.37-3.2ZM89.69,118.41l2.37-3.3,2.32,3.3-2.32,3.2-2.37-3.2ZM89.69,124.91l2.37-3.3,2.32,3.3-2.32,3.2-2.37-3.2ZM94.38,105.41l2.37-3.3,2.41,3.3-2.41,3.2-2.37-3.2ZM94.38,111.91l2.37-3.3,2.41,3.3-2.41,3.2-2.37-3.2ZM94.38,118.41l2.37-3.3,2.41,3.3-2.41,3.2-2.37-3.2ZM99.16,111.91l2.37-3.3,2.32,3.3-2.32,3.2-2.37-3.2Z"/>
            <path class="cls-3" d="M80.26,144.41l2.37-3.3,2.32,3.3-2.32,3.2-2.37-3.2ZM84.95,137.91l2.41-3.3,2.32,3.3-2.32,3.2-2.41-3.2ZM84.95,144.41l2.41-3.3,2.32,3.3-2.32,3.2-2.41-3.2ZM84.95,150.91l2.41-3.3,2.32,3.3-2.32,3.2-2.41-3.2ZM89.69,131.41l2.37-3.3,2.32,3.3-2.32,3.2-2.37-3.2ZM89.69,137.91l2.37-3.3,2.32,3.3-2.32,3.2-2.37-3.2ZM89.69,144.41l2.37-3.3,2.32,3.3-2.32,3.2-2.37-3.2ZM89.69,150.91l2.37-3.3,2.32,3.3-2.32,3.2-2.37-3.2ZM89.69,157.41l2.37-3.3,2.32,3.3-2.32,3.2-2.37-3.2ZM94.38,137.91l2.37-3.3,2.41,3.3-2.41,3.2-2.37-3.2ZM94.38,144.41l2.37-3.3,2.41,3.3-2.41,3.2-2.37-3.2ZM94.38,150.91l2.37-3.3,2.41,3.3-2.41,3.2-2.37-3.2ZM99.16,144.41l2.37-3.3,2.32,3.3-2.32,3.2-2.37-3.2Z"/>
            <path class="cls-3" d="M146.32,53.42l2.37-3.3,2.32,3.3-2.32,3.2-2.37-3.2ZM151.01,46.92l2.41-3.3,2.32,3.3-2.32,3.2-2.41-3.2ZM151.01,53.42l2.41-3.3,2.32,3.3-2.32,3.2-2.41-3.2ZM151.01,59.92l2.41-3.3,2.32,3.3-2.32,3.2-2.41-3.2ZM155.75,40.42l2.37-3.3,2.32,3.3-2.32,3.2-2.37-3.2ZM155.75,46.92l2.37-3.3,2.32,3.3-2.32,3.2-2.37-3.2ZM155.75,53.42l2.37-3.3,2.32,3.3-2.32,3.2-2.37-3.2ZM155.75,59.92l2.37-3.3,2.32,3.3-2.32,3.2-2.37-3.2ZM155.75,66.42l2.37-3.3,2.32,3.3-2.32,3.2-2.37-3.2ZM160.43,46.92l2.37-3.3,2.41,3.3-2.41,3.2-2.37-3.2ZM160.43,53.42l2.37-3.3,2.41,3.3-2.41,3.2-2.37-3.2ZM160.43,59.92l2.37-3.3,2.41,3.3-2.41,3.2-2.37-3.2ZM165.22,53.42l2.37-3.3,2.32,3.3-2.32,3.2-2.37-3.2Z"/>
            <path class="cls-3" d="M136.85,66.42l2.37-3.3,2.32,3.3-2.32,3.2-2.37-3.2ZM141.54,59.92l2.41-3.3,2.32,3.3-2.32,3.2-2.41-3.2ZM141.54,66.42l2.41-3.3,2.32,3.3-2.32,3.2-2.41-3.2ZM141.54,72.92l2.41-3.3,2.32,3.3-2.32,3.2-2.41-3.2ZM146.28,53.42l2.37-3.3,2.32,3.3-2.32,3.2-2.37-3.2ZM146.28,59.92l2.37-3.3,2.32,3.3-2.32,3.2-2.37-3.2ZM146.28,66.42l2.37-3.3,2.32,3.3-2.32,3.2-2.37-3.2ZM146.28,72.92l2.37-3.3,2.32,3.3-2.32,3.2-2.37-3.2ZM146.28,79.42l2.37-3.3,2.32,3.3-2.32,3.2-2.37-3.2ZM150.96,59.92l2.37-3.3,2.41,3.3-2.41,3.2-2.37-3.2ZM150.96,66.42l2.37-3.3,2.41,3.3-2.41,3.2-2.37-3.2ZM150.96,72.92l2.37-3.3,2.41,3.3-2.41,3.2-2.37-3.2ZM155.75,66.42l2.37-3.3,2.32,3.3-2.32,3.2-2.37-3.2Z"/>
            <path class="cls-3" d="M127.47,79.42l2.37-3.3,2.32,3.3-2.32,3.2-2.37-3.2ZM132.16,72.92l2.41-3.3,2.32,3.3-2.32,3.2-2.41-3.2ZM132.16,79.42l2.41-3.3,2.32,3.3-2.32,3.2-2.41-3.2ZM132.16,85.92l2.41-3.3,2.32,3.3-2.32,3.2-2.41-3.2ZM136.9,66.42l2.37-3.3,2.32,3.3-2.32,3.2-2.37-3.2ZM136.9,72.92l2.37-3.3,2.32,3.3-2.32,3.2-2.37-3.2ZM136.9,79.42l2.37-3.3,2.32,3.3-2.32,3.2-2.37-3.2ZM136.9,85.92l2.37-3.3,2.32,3.3-2.32,3.2-2.37-3.2ZM136.9,92.42l2.37-3.3,2.32,3.3-2.32,3.2-2.37-3.2ZM141.59,72.92l2.37-3.3,2.41,3.3-2.41,3.2-2.37-3.2ZM141.59,79.42l2.37-3.3,2.41,3.3-2.41,3.2-2.37-3.2ZM141.59,85.92l2.37-3.3,2.41,3.3-2.41,3.2-2.37-3.2ZM146.37,79.42l2.37-3.3,2.32,3.3-2.32,3.2-2.37-3.2Z"/>
            <path class="cls-3" d="M118,92.42l2.37-3.3,2.32,3.3-2.32,3.2-2.37-3.2ZM122.69,85.92l2.41-3.3,2.32,3.3-2.32,3.2-2.41-3.2ZM122.69,92.42l2.41-3.3,2.32,3.3-2.32,3.2-2.41-3.2ZM122.69,98.92l2.41-3.3,2.32,3.3-2.32,3.2-2.41-3.2ZM127.43,79.42l2.37-3.3,2.32,3.3-2.32,3.2-2.37-3.2ZM127.43,85.92l2.37-3.3,2.32,3.3-2.32,3.2-2.37-3.2ZM127.43,92.42l2.37-3.3,2.32,3.3-2.32,3.2-2.37-3.2ZM127.43,98.92l2.37-3.3,2.32,3.3-2.32,3.2-2.37-3.2ZM127.43,105.41l2.37-3.3,2.32,3.3-2.32,3.2-2.37-3.2ZM132.12,85.92l2.37-3.3,2.41,3.3-2.41,3.2-2.37-3.2ZM132.12,92.42l2.37-3.3,2.41,3.3-2.41,3.2-2.37-3.2ZM132.12,98.92l2.37-3.3,2.41,3.3-2.41,3.2-2.37-3.2ZM136.9,92.42l2.37-3.3,2.32,3.3-2.32,3.2-2.37-3.2Z"/>
            <path class="cls-3" d="M192.89,79.42l2.37-3.3,2.32,3.3-2.32,3.2-2.37-3.2ZM197.57,72.92l2.41-3.3,2.32,3.3-2.32,3.2-2.41-3.2ZM197.57,79.42l2.41-3.3,2.32,3.3-2.32,3.2-2.41-3.2ZM197.57,85.92l2.41-3.3,2.32,3.3-2.32,3.2-2.41-3.2ZM202.31,66.42l2.37-3.3,2.32,3.3-2.32,3.2-2.37-3.2ZM202.31,72.92l2.37-3.3,2.32,3.3-2.32,3.2-2.37-3.2ZM202.31,79.42l2.37-3.3,2.32,3.3-2.32,3.2-2.37-3.2ZM202.31,85.92l2.37-3.3,2.32,3.3-2.32,3.2-2.37-3.2ZM202.31,92.42l2.37-3.3,2.32,3.3-2.32,3.2-2.37-3.2ZM207,72.92l2.37-3.3,2.41,3.3-2.41,3.2-2.37-3.2ZM207,79.42l2.37-3.3,2.41,3.3-2.41,3.2-2.37-3.2ZM207,85.92l2.37-3.3,2.41,3.3-2.41,3.2-2.37-3.2ZM211.78,79.42l2.37-3.3,2.32,3.3-2.32,3.2-2.37-3.2Z"/>
            <path class="cls-3" d="M84.65,163.91l2.37-3.3,2.32,3.3-2.32,3.2-2.37-3.2ZM89.34,157.41l2.41-3.3,2.32,3.3-2.32,3.2-2.41-3.2ZM89.34,163.91l2.41-3.3,2.32,3.3-2.32,3.2-2.41-3.2ZM89.34,170.41l2.41-3.3,2.32,3.3-2.32,3.2-2.41-3.2ZM94.08,150.91l2.37-3.3,2.32,3.3-2.32,3.2-2.37-3.2ZM94.08,157.41l2.37-3.3,2.32,3.3-2.32,3.2-2.37-3.2ZM94.08,163.91l2.37-3.3,2.32,3.3-2.32,3.2-2.37-3.2ZM94.08,170.41l2.37-3.3,2.32,3.3-2.32,3.2-2.37-3.2ZM94.08,176.9l2.37-3.3,2.32,3.3-2.32,3.2-2.37-3.2ZM98.76,157.41l2.37-3.3,2.41,3.3-2.41,3.2-2.37-3.2ZM98.76,163.91l2.37-3.3,2.41,3.3-2.41,3.2-2.37-3.2ZM98.76,170.41l2.37-3.3,2.41,3.3-2.41,3.2-2.37-3.2ZM103.55,163.91l2.37-3.3,2.32,3.3-2.32,3.2-2.37-3.2Z"/>
            <path class="cls-3" d="M75.18,176.9l2.37-3.3,2.32,3.3-2.32,3.2-2.37-3.2ZM79.87,170.41l2.41-3.3,2.32,3.3-2.32,3.2-2.41-3.2ZM79.87,176.9l2.41-3.3,2.32,3.3-2.32,3.2-2.41-3.2ZM79.87,183.4l2.41-3.3,2.32,3.3-2.32,3.2-2.41-3.2ZM84.61,163.91l2.37-3.3,2.32,3.3-2.32,3.2-2.37-3.2ZM84.61,170.41l2.37-3.3,2.32,3.3-2.32,3.2-2.37-3.2ZM84.61,176.9l2.37-3.3,2.32,3.3-2.32,3.2-2.37-3.2ZM84.61,183.4l2.37-3.3,2.32,3.3-2.32,3.2-2.37-3.2ZM84.61,189.9l2.37-3.3,2.32,3.3-2.32,3.2-2.37-3.2ZM89.29,170.41l2.37-3.3,2.41,3.3-2.41,3.2-2.37-3.2ZM89.29,176.9l2.37-3.3,2.41,3.3-2.41,3.2-2.37-3.2ZM89.29,183.4l2.37-3.3,2.41,3.3-2.41,3.2-2.37-3.2ZM94.08,176.9l2.37-3.3,2.32,3.3-2.32,3.2-2.37-3.2Z"/>
            <path class="cls-3" d="M127.13,228.9l2.37-3.3,2.32,3.3-2.32,3.2-2.37-3.2ZM131.82,222.4l2.41-3.3,2.32,3.3-2.32,3.2-2.41-3.2ZM131.82,228.9l2.41-3.3,2.32,3.3-2.32,3.2-2.41-3.2ZM131.82,235.4l2.41-3.3,2.32,3.3-2.32,3.2-2.41-3.2ZM136.55,215.9l2.37-3.3,2.32,3.3-2.32,3.2-2.37-3.2ZM136.55,222.4l2.37-3.3,2.32,3.3-2.32,3.2-2.37-3.2ZM136.55,228.9l2.37-3.3,2.32,3.3-2.32,3.2-2.37-3.2ZM136.55,235.4l2.37-3.3,2.32,3.3-2.32,3.2-2.37-3.2ZM136.55,241.9l2.37-3.3,2.32,3.3-2.32,3.2-2.37-3.2ZM141.24,222.4l2.37-3.3,2.41,3.3-2.41,3.2-2.37-3.2ZM141.24,228.9l2.37-3.3,2.41,3.3-2.41,3.2-2.37-3.2ZM141.24,235.4l2.37-3.3,2.41,3.3-2.41,3.2-2.37-3.2ZM146.02,228.9l2.37-3.3,2.32,3.3-2.32,3.2-2.37-3.2Z"/>
            <path class="cls-3" d="M117.66,209.4l2.37-3.3,2.32,3.3-2.32,3.2-2.37-3.2ZM122.35,202.9l2.41-3.3,2.32,3.3-2.32,3.2-2.41-3.2ZM122.35,209.4l2.41-3.3,2.32,3.3-2.32,3.2-2.41-3.2ZM122.35,215.9l2.41-3.3,2.32,3.3-2.32,3.2-2.41-3.2ZM127.08,196.4l2.37-3.3,2.32,3.3-2.32,3.2-2.37-3.2ZM127.08,202.9l2.37-3.3,2.32,3.3-2.32,3.2-2.37-3.2ZM127.08,209.4l2.37-3.3,2.32,3.3-2.32,3.2-2.37-3.2ZM127.08,215.9l2.37-3.3,2.32,3.3-2.32,3.2-2.37-3.2ZM127.08,222.4l2.37-3.3,2.32,3.3-2.32,3.2-2.37-3.2ZM131.77,202.9l2.37-3.3,2.41,3.3-2.41,3.2-2.37-3.2ZM131.77,209.4l2.37-3.3,2.41,3.3-2.41,3.2-2.37-3.2ZM131.77,215.9l2.37-3.3,2.41,3.3-2.41,3.2-2.37-3.2ZM136.55,209.4l2.37-3.3,2.32,3.3-2.32,3.2-2.37-3.2Z"/>
            <path class="cls-3" d="M108.28,222.4l2.37-3.3,2.32,3.3-2.32,3.2-2.37-3.2ZM112.97,215.9l2.41-3.3,2.32,3.3-2.32,3.2-2.41-3.2ZM112.97,222.4l2.41-3.3,2.32,3.3-2.32,3.2-2.41-3.2ZM112.97,228.9l2.41-3.3,2.32,3.3-2.32,3.2-2.41-3.2ZM117.7,209.4l2.37-3.3,2.32,3.3-2.32,3.2-2.37-3.2ZM117.7,215.9l2.37-3.3,2.32,3.3-2.32,3.2-2.37-3.2ZM117.7,222.4l2.37-3.3,2.32,3.3-2.32,3.2-2.37-3.2ZM117.7,228.9l2.37-3.3,2.32,3.3-2.32,3.2-2.37-3.2ZM117.7,235.4l2.37-3.3,2.32,3.3-2.32,3.2-2.37-3.2ZM122.39,215.9l2.37-3.3,2.41,3.3-2.41,3.2-2.37-3.2ZM122.39,222.4l2.37-3.3,2.41,3.3-2.41,3.2-2.37-3.2ZM122.39,228.9l2.37-3.3,2.41,3.3-2.41,3.2-2.37-3.2ZM127.17,222.4l2.37-3.3,2.32,3.3-2.32,3.2-2.37-3.2Z"/>
            <path class="cls-3" d="M135.95,241.9l2.37-3.3,2.32,3.3-2.32,3.2-2.37-3.2ZM140.64,235.4l2.41-3.3,2.32,3.3-2.32,3.2-2.41-3.2ZM140.64,241.9l2.41-3.3,2.32,3.3-2.32,3.2-2.41-3.2ZM140.64,248.39l2.41-3.3,2.32,3.3-2.32,3.2-2.41-3.2ZM145.37,228.9l2.37-3.3,2.32,3.3-2.32,3.2-2.37-3.2ZM145.37,235.4l2.37-3.3,2.32,3.3-2.32,3.2-2.37-3.2ZM145.37,241.9l2.37-3.3,2.32,3.3-2.32,3.2-2.37-3.2ZM145.37,248.39l2.37-3.3,2.32,3.3-2.32,3.2-2.37-3.2ZM145.37,254.89l2.37-3.3,2.32,3.3-2.32,3.2-2.37-3.2ZM150.06,235.4l2.37-3.3,2.41,3.3-2.41,3.2-2.37-3.2ZM150.06,241.9l2.37-3.3,2.41,3.3-2.41,3.2-2.37-3.2ZM150.06,248.39l2.37-3.3,2.41,3.3-2.41,3.2-2.37-3.2ZM154.84,241.9l2.37-3.3,2.32,3.3-2.32,3.2-2.37-3.2Z"/>
            <path class="cls-3" d="M126.48,254.89l2.37-3.3,2.32,3.3-2.32,3.2-2.37-3.2ZM131.17,248.39l2.41-3.3,2.32,3.3-2.32,3.2-2.41-3.2ZM131.17,254.89l2.41-3.3,2.32,3.3-2.32,3.2-2.41-3.2ZM131.17,261.39l2.41-3.3,2.32,3.3-2.32,3.2-2.41-3.2ZM135.9,241.9l2.37-3.3,2.32,3.3-2.32,3.2-2.37-3.2ZM135.9,248.39l2.37-3.3,2.32,3.3-2.32,3.2-2.37-3.2ZM135.9,254.89l2.37-3.3,2.32,3.3-2.32,3.2-2.37-3.2ZM135.9,261.39l2.37-3.3,2.32,3.3-2.32,3.2-2.37-3.2ZM135.9,267.89l2.37-3.3,2.32,3.3-2.32,3.2-2.37-3.2ZM140.59,248.39l2.37-3.3,2.41,3.3-2.41,3.2-2.37-3.2ZM140.59,254.89l2.37-3.3,2.41,3.3-2.41,3.2-2.37-3.2ZM140.59,261.39l2.37-3.3,2.41,3.3-2.41,3.2-2.37-3.2ZM145.37,254.89l2.37-3.3,2.32,3.3-2.32,3.2-2.37-3.2Z"/>
            <path class="cls-3" d="M173.69,254.89l2.37-3.3,2.32,3.3-2.32,3.2-2.37-3.2ZM178.38,248.39l2.41-3.3,2.32,3.3-2.32,3.2-2.41-3.2ZM178.38,254.89l2.41-3.3,2.32,3.3-2.32,3.2-2.41-3.2ZM178.38,261.39l2.41-3.3,2.32,3.3-2.32,3.2-2.41-3.2ZM183.11,241.9l2.37-3.3,2.32,3.3-2.32,3.2-2.37-3.2ZM183.11,248.39l2.37-3.3,2.32,3.3-2.32,3.2-2.37-3.2ZM183.11,254.89l2.37-3.3,2.32,3.3-2.32,3.2-2.37-3.2ZM183.11,261.39l2.37-3.3,2.32,3.3-2.32,3.2-2.37-3.2ZM183.11,267.89l2.37-3.3,2.32,3.3-2.32,3.2-2.37-3.2ZM187.8,248.39l2.37-3.3,2.41,3.3-2.41,3.2-2.37-3.2ZM187.8,254.89l2.37-3.3,2.41,3.3-2.41,3.2-2.37-3.2ZM187.8,261.39l2.37-3.3,2.41,3.3-2.41,3.2-2.37-3.2ZM192.58,254.89l2.37-3.3,2.32,3.3-2.32,3.2-2.37-3.2Z"/>
            <path class="cls-3" d="M164.22,267.89l2.37-3.3,2.32,3.3-2.32,3.2-2.37-3.2ZM168.91,261.39l2.41-3.3,2.32,3.3-2.32,3.2-2.41-3.2ZM168.91,267.89l2.41-3.3,2.32,3.3-2.32,3.2-2.41-3.2ZM168.91,274.39l2.41-3.3,2.32,3.3-2.32,3.2-2.41-3.2ZM173.64,254.89l2.37-3.3,2.32,3.3-2.32,3.2-2.37-3.2ZM173.64,261.39l2.37-3.3,2.32,3.3-2.32,3.2-2.37-3.2ZM173.64,267.89l2.37-3.3,2.32,3.3-2.32,3.2-2.37-3.2ZM173.64,274.39l2.37-3.3,2.32,3.3-2.32,3.2-2.37-3.2ZM173.64,280.89l2.37-3.3,2.32,3.3-2.32,3.2-2.37-3.2ZM178.33,261.39l2.37-3.3,2.41,3.3-2.41,3.2-2.37-3.2ZM178.33,267.89l2.37-3.3,2.41,3.3-2.41,3.2-2.37-3.2ZM178.33,274.39l2.37-3.3,2.41,3.3-2.41,3.2-2.37-3.2ZM183.11,267.89l2.37-3.3,2.32,3.3-2.32,3.2-2.37-3.2Z"/>
            <path class="cls-3" d="M154.84,248.39l2.37-3.3,2.32,3.3-2.32,3.2-2.37-3.2ZM159.53,241.9l2.41-3.3,2.32,3.3-2.32,3.2-2.41-3.2ZM159.53,248.39l2.41-3.3,2.32,3.3-2.32,3.2-2.41-3.2ZM159.53,254.89l2.41-3.3,2.32,3.3-2.32,3.2-2.41-3.2ZM164.27,235.4l2.37-3.3,2.32,3.3-2.32,3.2-2.37-3.2ZM164.27,241.9l2.37-3.3,2.32,3.3-2.32,3.2-2.37-3.2ZM164.27,248.39l2.37-3.3,2.32,3.3-2.32,3.2-2.37-3.2ZM164.27,254.89l2.37-3.3,2.32,3.3-2.32,3.2-2.37-3.2ZM164.27,261.39l2.37-3.3,2.32,3.3-2.32,3.2-2.37-3.2ZM168.96,241.9l2.37-3.3,2.41,3.3-2.41,3.2-2.37-3.2ZM168.96,248.39l2.37-3.3,2.41,3.3-2.41,3.2-2.37-3.2ZM168.96,254.89l2.37-3.3,2.41,3.3-2.41,3.2-2.37-3.2ZM173.74,248.39l2.37-3.3,2.32,3.3-2.32,3.2-2.37-3.2Z"/>
            <path class="cls-3" d="M145.37,261.39l2.37-3.3,2.32,3.3-2.32,3.2-2.37-3.2ZM150.06,254.89l2.41-3.3,2.32,3.3-2.32,3.2-2.41-3.2ZM150.06,261.39l2.41-3.3,2.32,3.3-2.32,3.2-2.41-3.2ZM150.06,267.89l2.41-3.3,2.32,3.3-2.32,3.2-2.41-3.2ZM154.8,248.39l2.37-3.3,2.32,3.3-2.32,3.2-2.37-3.2ZM154.8,254.89l2.37-3.3,2.32,3.3-2.32,3.2-2.37-3.2ZM154.8,261.39l2.37-3.3,2.32,3.3-2.32,3.2-2.37-3.2ZM154.8,267.89l2.37-3.3,2.32,3.3-2.32,3.2-2.37-3.2ZM154.8,274.39l2.37-3.3,2.32,3.3-2.32,3.2-2.37-3.2ZM159.49,254.89l2.37-3.3,2.41,3.3-2.41,3.2-2.37-3.2ZM159.49,261.39l2.37-3.3,2.41,3.3-2.41,3.2-2.37-3.2ZM159.49,267.89l2.37-3.3,2.41,3.3-2.41,3.2-2.37-3.2ZM164.27,261.39l2.37-3.3,2.32,3.3-2.32,3.2-2.37-3.2Z"/>
            <path class="cls-3" d="M216.17,254.89l2.37-3.3,2.32,3.3-2.32,3.2-2.37-3.2ZM220.86,248.39l2.41-3.3,2.32,3.3-2.32,3.2-2.41-3.2ZM220.86,254.89l2.41-3.3,2.32,3.3-2.32,3.2-2.41-3.2ZM220.86,261.39l2.41-3.3,2.32,3.3-2.32,3.2-2.41-3.2ZM225.59,241.9l2.37-3.3,2.32,3.3-2.32,3.2-2.37-3.2ZM225.59,248.39l2.37-3.3,2.32,3.3-2.32,3.2-2.37-3.2ZM225.59,254.89l2.37-3.3,2.32,3.3-2.32,3.2-2.37-3.2ZM225.59,261.39l2.37-3.3,2.32,3.3-2.32,3.2-2.37-3.2ZM225.59,267.89l2.37-3.3,2.32,3.3-2.32,3.2-2.37-3.2ZM230.28,248.39l2.37-3.3,2.41,3.3-2.41,3.2-2.37-3.2ZM230.28,254.89l2.37-3.3,2.41,3.3-2.41,3.2-2.37-3.2ZM230.28,261.39l2.37-3.3,2.41,3.3-2.41,3.2-2.37-3.2ZM235.06,254.89l2.37-3.3,2.32,3.3-2.32,3.2-2.37-3.2Z"/>
            <path class="cls-3" d="M202.36,66.42l2.37-3.3,2.32,3.3-2.32,3.2-2.37-3.2ZM207.04,59.92l2.41-3.3,2.32,3.3-2.32,3.2-2.41-3.2ZM207.04,66.42l2.41-3.3,2.32,3.3-2.32,3.2-2.41-3.2ZM207.04,72.92l2.41-3.3,2.32,3.3-2.32,3.2-2.41-3.2ZM211.78,53.42l2.37-3.3,2.32,3.3-2.32,3.2-2.37-3.2ZM211.78,59.92l2.37-3.3,2.32,3.3-2.32,3.2-2.37-3.2ZM211.78,66.42l2.37-3.3,2.32,3.3-2.32,3.2-2.37-3.2ZM211.78,72.92l2.37-3.3,2.32,3.3-2.32,3.2-2.37-3.2ZM211.78,79.42l2.37-3.3,2.32,3.3-2.32,3.2-2.37-3.2ZM216.47,59.92l2.37-3.3,2.41,3.3-2.41,3.2-2.37-3.2ZM216.47,66.42l2.37-3.3,2.41,3.3-2.41,3.2-2.37-3.2ZM216.47,72.92l2.37-3.3,2.41,3.3-2.41,3.2-2.37-3.2ZM221.25,66.42l2.37-3.3,2.32,3.3-2.32,3.2-2.37-3.2Z"/>
            <path class="cls-3" d="M240.1,46.92l2.37-3.3,2.32,3.3-2.32,3.2-2.37-3.2ZM244.78,40.42l2.41-3.3,2.32,3.3-2.32,3.2-2.41-3.2ZM244.78,46.92l2.41-3.3,2.32,3.3-2.32,3.2-2.41-3.2ZM244.78,53.42l2.41-3.3,2.32,3.3-2.32,3.2-2.41-3.2ZM249.52,33.93l2.37-3.3,2.32,3.3-2.32,3.2-2.37-3.2ZM249.52,40.42l2.37-3.3,2.32,3.3-2.32,3.2-2.37-3.2ZM249.52,46.92l2.37-3.3,2.32,3.3-2.32,3.2-2.37-3.2ZM249.52,53.42l2.37-3.3,2.32,3.3-2.32,3.2-2.37-3.2ZM249.52,59.92l2.37-3.3,2.32,3.3-2.32,3.2-2.37-3.2ZM254.21,40.42l2.37-3.3,2.41,3.3-2.41,3.2-2.37-3.2ZM254.21,46.92l2.37-3.3,2.41,3.3-2.41,3.2-2.37-3.2ZM254.21,53.42l2.37-3.3,2.41,3.3-2.41,3.2-2.37-3.2ZM258.99,46.92l2.37-3.3,2.32,3.3-2.32,3.2-2.37-3.2Z"/>
            <path class="cls-3" d="M230.63,59.92l2.37-3.3,2.32,3.3-2.32,3.2-2.37-3.2ZM235.31,53.42l2.41-3.3,2.32,3.3-2.32,3.2-2.41-3.2ZM235.31,59.92l2.41-3.3,2.32,3.3-2.32,3.2-2.41-3.2ZM235.31,66.42l2.41-3.3,2.32,3.3-2.32,3.2-2.41-3.2ZM240.05,46.92l2.37-3.3,2.32,3.3-2.32,3.2-2.37-3.2ZM240.05,53.42l2.37-3.3,2.32,3.3-2.32,3.2-2.37-3.2ZM240.05,59.92l2.37-3.3,2.32,3.3-2.32,3.2-2.37-3.2ZM240.05,66.42l2.37-3.3,2.32,3.3-2.32,3.2-2.37-3.2ZM240.05,72.92l2.37-3.3,2.32,3.3-2.32,3.2-2.37-3.2ZM244.74,53.42l2.37-3.3,2.41,3.3-2.41,3.2-2.37-3.2ZM244.74,59.92l2.37-3.3,2.41,3.3-2.41,3.2-2.37-3.2ZM244.74,66.42l2.37-3.3,2.41,3.3-2.41,3.2-2.37-3.2ZM249.52,59.92l2.37-3.3,2.32,3.3-2.32,3.2-2.37-3.2Z"/>
            <path class="cls-3" d="M221.25,40.42l2.37-3.3,2.32,3.3-2.32,3.2-2.37-3.2ZM225.94,33.93l2.41-3.3,2.32,3.3-2.32,3.2-2.41-3.2ZM225.94,40.42l2.41-3.3,2.32,3.3-2.32,3.2-2.41-3.2ZM225.94,46.92l2.41-3.3,2.32,3.3-2.32,3.2-2.41-3.2ZM230.67,27.43l2.37-3.3,2.32,3.3-2.32,3.2-2.37-3.2ZM230.67,33.93l2.37-3.3,2.32,3.3-2.32,3.2-2.37-3.2ZM230.67,40.42l2.37-3.3,2.32,3.3-2.32,3.2-2.37-3.2ZM230.67,46.92l2.37-3.3,2.32,3.3-2.32,3.2-2.37-3.2ZM230.67,53.42l2.37-3.3,2.32,3.3-2.32,3.2-2.37-3.2ZM235.36,33.93l2.37-3.3,2.41,3.3-2.41,3.2-2.37-3.2ZM235.36,40.42l2.37-3.3,2.41,3.3-2.41,3.2-2.37-3.2ZM235.36,46.92l2.37-3.3,2.41,3.3-2.41,3.2-2.37-3.2ZM240.14,40.42l2.37-3.3,2.32,3.3-2.32,3.2-2.37-3.2Z"/>
            <path class="cls-3" d="M221.25,72.92l2.37-3.3,2.32,3.3-2.32,3.2-2.37-3.2ZM225.94,66.42l2.41-3.3,2.32,3.3-2.32,3.2-2.41-3.2ZM225.94,72.92l2.41-3.3,2.32,3.3-2.32,3.2-2.41-3.2ZM225.94,79.42l2.41-3.3,2.32,3.3-2.32,3.2-2.41-3.2ZM230.67,59.92l2.37-3.3,2.32,3.3-2.32,3.2-2.37-3.2ZM230.67,66.42l2.37-3.3,2.32,3.3-2.32,3.2-2.37-3.2ZM230.67,72.92l2.37-3.3,2.32,3.3-2.32,3.2-2.37-3.2ZM230.67,79.42l2.37-3.3,2.32,3.3-2.32,3.2-2.37-3.2ZM230.67,85.92l2.37-3.3,2.32,3.3-2.32,3.2-2.37-3.2ZM235.36,66.42l2.37-3.3,2.41,3.3-2.41,3.2-2.37-3.2ZM235.36,72.92l2.37-3.3,2.41,3.3-2.41,3.2-2.37-3.2ZM235.36,79.42l2.37-3.3,2.41,3.3-2.41,3.2-2.37-3.2ZM240.14,72.92l2.37-3.3,2.32,3.3-2.32,3.2-2.37-3.2Z"/>
            <path class="cls-3" d="M244.83,66.42l2.37-3.3,2.32,3.3-2.32,3.2-2.37-3.2ZM249.52,59.92l2.41-3.3,2.32,3.3-2.32,3.2-2.41-3.2ZM249.52,66.42l2.41-3.3,2.32,3.3-2.32,3.2-2.41-3.2ZM249.52,72.92l2.41-3.3,2.32,3.3-2.32,3.2-2.41-3.2ZM254.26,53.42l2.37-3.3,2.32,3.3-2.32,3.2-2.37-3.2ZM254.26,59.92l2.37-3.3,2.32,3.3-2.32,3.2-2.37-3.2ZM254.26,66.42l2.37-3.3,2.32,3.3-2.32,3.2-2.37-3.2ZM254.26,72.92l2.37-3.3,2.32,3.3-2.32,3.2-2.37-3.2ZM254.26,79.42l2.37-3.3,2.32,3.3-2.32,3.2-2.37-3.2ZM258.94,59.92l2.37-3.3,2.41,3.3-2.41,3.2-2.37-3.2ZM258.94,66.42l2.37-3.3,2.41,3.3-2.41,3.2-2.37-3.2ZM258.94,72.92l2.37-3.3,2.41,3.3-2.41,3.2-2.37-3.2ZM263.73,66.42l2.37-3.3,2.32,3.3-2.32,3.2-2.37-3.2Z"/>
            <path class="cls-3" d="M235.36,79.42l2.37-3.3,2.32,3.3-2.32,3.2-2.37-3.2ZM240.05,72.92l2.41-3.3,2.32,3.3-2.32,3.2-2.41-3.2ZM240.05,79.42l2.41-3.3,2.32,3.3-2.32,3.2-2.41-3.2ZM240.05,85.92l2.41-3.3,2.32,3.3-2.32,3.2-2.41-3.2ZM244.78,66.42l2.37-3.3,2.32,3.3-2.32,3.2-2.37-3.2ZM244.78,72.92l2.37-3.3,2.32,3.3-2.32,3.2-2.37-3.2ZM244.78,79.42l2.37-3.3,2.32,3.3-2.32,3.2-2.37-3.2ZM244.78,85.92l2.37-3.3,2.32,3.3-2.32,3.2-2.37-3.2ZM244.78,92.42l2.37-3.3,2.32,3.3-2.32,3.2-2.37-3.2ZM249.47,72.92l2.37-3.3,2.41,3.3-2.41,3.2-2.37-3.2ZM249.47,79.42l2.37-3.3,2.41,3.3-2.41,3.2-2.37-3.2ZM249.47,85.92l2.37-3.3,2.41,3.3-2.41,3.2-2.37-3.2ZM254.26,79.42l2.37-3.3,2.32,3.3-2.32,3.2-2.37-3.2Z"/>
            <path class="cls-3" d="M18.85,79.42l2.37-3.3,2.32,3.3-2.32,3.2-2.37-3.2ZM23.54,72.92l2.41-3.3,2.32,3.3-2.32,3.2-2.41-3.2ZM23.54,79.42l2.41-3.3,2.32,3.3-2.32,3.2-2.41-3.2ZM23.54,85.92l2.41-3.3,2.32,3.3-2.32,3.2-2.41-3.2ZM28.27,66.42l2.37-3.3,2.32,3.3-2.32,3.2-2.37-3.2ZM28.27,72.92l2.37-3.3,2.32,3.3-2.32,3.2-2.37-3.2ZM28.27,79.42l2.37-3.3,2.32,3.3-2.32,3.2-2.37-3.2ZM28.27,85.92l2.37-3.3,2.32,3.3-2.32,3.2-2.37-3.2ZM28.27,92.42l2.37-3.3,2.32,3.3-2.32,3.2-2.37-3.2ZM32.96,72.92l2.37-3.3,2.41,3.3-2.41,3.2-2.37-3.2ZM32.96,79.42l2.37-3.3,2.41,3.3-2.41,3.2-2.37-3.2ZM32.96,85.92l2.37-3.3,2.41,3.3-2.41,3.2-2.37-3.2ZM37.74,79.42l2.37-3.3,2.32,3.3-2.32,3.2-2.37-3.2Z"/>
            <path class="cls-3" d="M18.85,111.91l2.37-3.3,2.32,3.3-2.32,3.2-2.37-3.2ZM23.54,105.41l2.41-3.3,2.32,3.3-2.32,3.2-2.41-3.2ZM23.54,111.91l2.41-3.3,2.32,3.3-2.32,3.2-2.41-3.2ZM23.54,118.41l2.41-3.3,2.32,3.3-2.32,3.2-2.41-3.2ZM28.27,98.92l2.37-3.3,2.32,3.3-2.32,3.2-2.37-3.2ZM28.27,105.41l2.37-3.3,2.32,3.3-2.32,3.2-2.37-3.2ZM28.27,111.91l2.37-3.3,2.32,3.3-2.32,3.2-2.37-3.2ZM28.27,118.41l2.37-3.3,2.32,3.3-2.32,3.2-2.37-3.2ZM28.27,124.91l2.37-3.3,2.32,3.3-2.32,3.2-2.37-3.2ZM32.96,105.41l2.37-3.3,2.41,3.3-2.41,3.2-2.37-3.2ZM32.96,111.91l2.37-3.3,2.41,3.3-2.41,3.2-2.37-3.2ZM32.96,118.41l2.37-3.3,2.41,3.3-2.41,3.2-2.37-3.2ZM37.74,111.91l2.37-3.3,2.32,3.3-2.32,3.2-2.37-3.2Z"/>
            <path class="cls-3" d="M9.47,92.42l2.37-3.3,2.32,3.3-2.32,3.2-2.37-3.2ZM14.16,85.92l2.41-3.3,2.32,3.3-2.32,3.2-2.41-3.2ZM14.16,92.42l2.41-3.3,2.32,3.3-2.32,3.2-2.41-3.2ZM14.16,98.92l2.41-3.3,2.32,3.3-2.32,3.2-2.41-3.2ZM18.89,79.42l2.37-3.3,2.32,3.3-2.32,3.2-2.37-3.2ZM18.89,85.92l2.37-3.3,2.32,3.3-2.32,3.2-2.37-3.2ZM18.89,92.42l2.37-3.3,2.32,3.3-2.32,3.2-2.37-3.2ZM18.89,98.92l2.37-3.3,2.32,3.3-2.32,3.2-2.37-3.2ZM18.89,105.41l2.37-3.3,2.32,3.3-2.32,3.2-2.37-3.2ZM23.58,85.92l2.37-3.3,2.41,3.3-2.41,3.2-2.37-3.2ZM23.58,92.42l2.37-3.3,2.41,3.3-2.41,3.2-2.37-3.2ZM23.58,98.92l2.37-3.3,2.41,3.3-2.41,3.2-2.37-3.2ZM28.36,92.42l2.37-3.3,2.32,3.3-2.32,3.2-2.37-3.2Z"/>
            <path class="cls-3" d="M0,105.41l2.37-3.3,2.32,3.3-2.32,3.2-2.37-3.2ZM4.69,98.92l2.41-3.3,2.32,3.3-2.32,3.2-2.41-3.2ZM4.69,105.41l2.41-3.3,2.32,3.3-2.32,3.2-2.41-3.2ZM4.69,111.91l2.41-3.3,2.32,3.3-2.32,3.2-2.41-3.2ZM9.42,92.42l2.37-3.3,2.32,3.3-2.32,3.2-2.37-3.2ZM9.42,98.92l2.37-3.3,2.32,3.3-2.32,3.2-2.37-3.2ZM9.42,105.41l2.37-3.3,2.32,3.3-2.32,3.2-2.37-3.2ZM9.42,111.91l2.37-3.3,2.32,3.3-2.32,3.2-2.37-3.2ZM9.42,118.41l2.37-3.3,2.32,3.3-2.32,3.2-2.37-3.2ZM14.11,98.92l2.37-3.3,2.41,3.3-2.41,3.2-2.37-3.2ZM14.11,105.41l2.37-3.3,2.41,3.3-2.41,3.2-2.37-3.2ZM14.11,111.91l2.37-3.3,2.41,3.3-2.41,3.2-2.37-3.2ZM18.89,105.41l2.37-3.3,2.32,3.3-2.32,3.2-2.37-3.2Z"/>
            <path class="cls-3" d="M0,137.91l2.37-3.3,2.32,3.3-2.32,3.2-2.37-3.2ZM4.69,131.41l2.41-3.3,2.32,3.3-2.32,3.2-2.41-3.2ZM4.69,137.91l2.41-3.3,2.32,3.3-2.32,3.2-2.41-3.2ZM4.69,144.41l2.41-3.3,2.32,3.3-2.32,3.2-2.41-3.2ZM9.42,124.91l2.37-3.3,2.32,3.3-2.32,3.2-2.37-3.2ZM9.42,131.41l2.37-3.3,2.32,3.3-2.32,3.2-2.37-3.2ZM9.42,137.91l2.37-3.3,2.32,3.3-2.32,3.2-2.37-3.2ZM9.42,144.41l2.37-3.3,2.32,3.3-2.32,3.2-2.37-3.2ZM9.42,150.91l2.37-3.3,2.32,3.3-2.32,3.2-2.37-3.2ZM14.11,131.41l2.37-3.3,2.41,3.3-2.41,3.2-2.37-3.2ZM14.11,137.91l2.37-3.3,2.41,3.3-2.41,3.2-2.37-3.2ZM14.11,144.41l2.37-3.3,2.41,3.3-2.41,3.2-2.37-3.2ZM18.89,137.91l2.37-3.3,2.32,3.3-2.32,3.2-2.37-3.2Z"/>
          </g>
        </g>
      </g>
    </g>
  </g>
</svg>